<svg width="1301" height="816" viewBox="0 0 1301 816" fill="none" xmlns="http://www.w3.org/2000/svg">
<path d="M871.916 235.309C873.262 238.189 874.871 241.692 876.53 245.161C899.949 294.232 912.819 346.643 912.973 402.946C913.169 473.031 894.599 536.339 860.89 593.872C823.341 657.961 773.372 705.773 715.064 742.273C660.135 776.662 601.529 798.149 539.853 808.487C440.803 825.082 344.135 814.575 250.396 773.084C189.871 746.293 135.675 707.643 90.2013 653.484C50.4403 606.127 21.3819 551.377 8.00443 486.553C-10.0337 399.139 2.85961 317.099 42.1937 240.448C73.8591 178.73 117.796 130.977 169.74 92.907C229.72 48.9481 295.248 22.1597 365.031 8.88251C401.341 1.97601 437.894 -1.0014 474.653 0.296936C576.417 3.90411 671.438 33.816 757.122 99.4171C762.04 103.182 765.732 102.971 770.827 100.305C800.333 84.864 830.247 84.2022 860.281 98.3444C870.868 103.328 880.238 110.561 888.207 120.129C909.017 145.117 911.727 178.635 894.314 206.917C888.192 216.853 880.062 225.115 871.916 235.309ZM751.545 111.845C748.855 109.649 746.628 107.69 744.286 105.939C671.233 51.4066 590.8 22.6295 504.818 13.6436C460.626 9.02362 416.51 10.4171 372.53 17.6063C312.095 27.4874 254.482 47.709 200.399 80.8553C146.661 113.786 99.5611 156.306 64.3419 214.424C4.46274 313.225 -7.75393 419.311 32.9479 531.525C56.3109 595.94 94.9745 646.884 142.659 688.546C224.624 760.162 318.179 794.664 419.486 803.359C462.489 807.047 505.325 804.713 547.959 797.126C607.976 786.444 665.057 765.415 718.473 731.586C770.396 698.703 815.355 656.258 849.96 599.978C881.134 549.279 899.74 493.015 903.053 430.589C906.518 365.36 892.818 304.766 864.575 248.475C863.353 246.039 861.796 243.834 861.143 242.754C847.72 246.326 835.409 250.841 822.81 252.688C799.457 256.114 777.251 250.692 756.841 236.644C747.265 230.057 739.16 221.523 732.957 210.729C719.405 187.145 719.748 159.135 734.426 134.911C739.256 126.939 745.396 120.042 751.545 111.845ZM818.078 242.373C839.079 241.751 859.246 236.134 876.371 220.283C898.914 199.415 902.659 165.617 885.788 138.466C877.888 125.754 867.455 116.557 855.25 110.26C829.2 96.8177 802.589 95.6402 775.695 106.63C765.242 110.899 755.904 117.495 748.02 126.657C731.619 145.712 728.318 172.261 739.374 195.867C744.574 206.973 751.934 215.787 760.855 222.862C777.962 236.434 797.145 241.943 818.078 242.373Z" fill="black"></path>
<path d="M985.815 309.054C968.152 308.632 952.798 304.346 938.956 294.012C908.742 271.457 904.818 231.529 930.111 202.019C948.013 181.129 970.287 173.114 995.153 174.198C1011.11 174.893 1026.01 180.118 1039.17 191.017C1066.23 213.442 1069.6 250.684 1046.91 278.949C1030.08 299.922 1008.59 308.282 985.815 309.054ZM991.476 297.971C1007.5 297.641 1023.43 293.218 1037.02 280.712C1053.57 265.482 1057.6 240.728 1046.07 220.195C1041.74 212.482 1035.66 205.496 1029.18 200.146C1014.37 187.908 997.228 183.91 979.253 185.22C964.621 186.283 950.886 190.905 939.078 201.512C921.365 217.424 917.373 243.294 930.322 264.515C935.076 272.311 941.705 279.105 948.56 284.494C961.043 294.313 975.485 297.765 991.476 297.971Z" fill="black"></path>
<path d="M1084.42 427.134C1070.19 427.236 1057.1 423.014 1045.65 413.057C1026.33 396.256 1023.48 369.817 1038.43 347.88C1059.18 317.433 1102.62 311.02 1129.29 334.465C1148.52 351.368 1151.63 377.857 1136.46 399.688C1123.16 418.839 1105.21 426.833 1084.42 427.134ZM1088.93 416.049C1103.78 416.118 1115.89 411.97 1124.59 404.246C1136.32 393.842 1139.83 376.689 1133.29 361.311C1129.72 352.92 1124.19 346.553 1117.39 341.73C1105.79 333.511 1093.11 330.381 1079.65 331.541C1069.19 332.443 1059.31 335.639 1050.75 343.036C1038.01 354.044 1034.72 371.46 1042.29 387.655C1046.13 395.876 1051.83 402.019 1058.73 406.653C1068.43 413.17 1078.91 416.33 1088.93 416.049Z" fill="black"></path>
<path d="M1088.93 416.048C1078.91 416.329 1068.43 413.169 1058.73 406.654C1051.84 402.019 1046.14 395.875 1042.29 387.656C1034.73 371.459 1038.01 354.041 1050.75 343.036C1059.31 335.637 1069.19 332.441 1079.65 331.541C1093.11 330.382 1105.79 333.51 1117.39 341.731C1124.2 346.552 1129.72 352.918 1133.3 361.312C1139.84 376.688 1136.32 393.842 1124.59 404.245C1115.89 411.969 1103.78 416.119 1088.93 416.048Z" fill="white"></path>
<path d="M991.475 297.969C975.482 297.764 961.043 294.311 948.559 284.493C941.705 279.106 935.074 272.308 930.319 264.516C917.372 243.293 921.364 217.423 939.079 201.51C950.886 190.906 964.618 186.282 979.253 185.219C997.227 183.908 1014.37 187.909 1029.18 200.144C1035.66 205.496 1041.74 212.482 1046.07 220.192C1057.6 240.728 1053.57 265.48 1037.02 280.711C1023.43 293.216 1007.5 297.641 991.475 297.969Z" fill="white"></path>
<path d="M818.077 242.371C797.145 241.941 777.962 236.434 760.854 222.862C751.934 215.783 744.572 206.969 739.373 195.866C728.317 172.261 731.618 145.71 748.02 126.653C755.903 117.493 765.241 110.896 775.694 106.628C802.587 95.6383 829.201 96.8141 855.251 110.258C867.455 116.553 877.888 125.75 885.787 138.464C902.66 165.615 898.915 199.413 876.37 220.283C859.247 236.132 839.076 241.749 818.077 242.371Z" fill="white"></path>
<path d="M751.544 111.845C745.397 120.042 739.254 126.937 734.424 134.909C719.748 159.133 719.403 187.141 732.958 210.727C739.161 221.519 747.263 230.054 756.84 236.642C777.25 250.689 799.456 256.111 822.809 252.685C835.408 250.839 847.719 246.324 861.14 242.752C861.795 243.833 863.351 246.038 864.574 248.473C892.817 304.763 906.518 365.358 903.053 430.587C899.739 493.012 881.134 549.277 849.959 599.977C815.355 656.255 770.395 698.7 718.472 731.582C665.058 765.414 607.976 786.442 547.957 797.126C505.324 804.711 462.49 807.045 419.485 803.355C318.178 794.66 224.623 760.16 142.657 688.544C94.9728 646.882 56.3087 595.938 32.9471 531.524C-7.75473 419.309 4.46195 313.222 64.3411 214.42C99.5603 156.302 146.66 113.783 200.397 80.8518C254.48 47.7083 312.093 27.4837 372.529 17.6043C416.509 10.4135 460.625 9.02161 504.817 13.6417C590.799 22.6292 671.232 51.4045 744.284 105.935C746.627 107.687 748.855 109.647 751.544 111.845Z" fill="white"></path>
<path d="M897.771 476.099C889.69 520.699 873.368 561.906 849.959 599.975C815.354 656.256 770.395 698.7 718.472 731.583C665.057 765.413 607.976 786.442 547.958 797.124C505.324 804.71 462.488 807.045 419.485 803.356C268.302 790.381 95.3929 703.693 32.9471 531.522C-7.75472 419.309 4.46195 313.223 64.3411 214.421C84.6398 180.924 108.886 152.61 136.077 128.324C117.352 173.509 107.061 222.685 107.061 274.13C107.061 607.991 251.459 674.578 531.351 674.578C687.626 674.578 824.148 594.822 897.771 476.099Z" fill="#E6E6E6"></path>
<path d="M1088.93 416.048C1078.91 416.329 1068.43 413.169 1058.73 406.654C1051.83 402.019 1046.13 395.875 1042.29 387.656C1034.79 371.588 1037.96 354.321 1050.45 343.3C1049.86 350.018 1051.12 357.101 1054.33 363.963C1058.17 372.181 1063.87 378.328 1070.77 382.962C1080.46 389.478 1090.94 392.638 1100.96 392.354C1115.67 392.425 1127.69 388.359 1136.37 380.783C1135.5 389.775 1131.45 398.162 1124.59 404.245C1115.89 411.969 1103.78 416.119 1088.93 416.048Z" fill="#E6E6E6"></path>
<path d="M991.472 297.969C975.48 297.764 961.04 294.311 948.556 284.493C941.702 279.106 935.071 272.308 930.316 264.516C918.255 244.74 920.9 220.93 935.646 204.9C933.337 216.707 935.405 229.435 942.352 240.822C947.106 248.617 953.738 255.412 960.591 260.799C973.076 270.62 987.515 274.073 1003.51 274.278C1019.53 273.946 1035.46 269.525 1049.05 257.017C1049.99 256.158 1050.88 255.259 1051.74 254.338C1049.81 264.284 1044.8 273.551 1037.01 280.711C1023.42 293.216 1007.5 297.641 991.472 297.969Z" fill="#E6E6E6"></path>
<path d="M818.08 242.371C797.148 241.941 777.965 236.434 760.857 222.862C751.937 215.783 744.575 206.969 739.376 195.866C728.566 172.783 731.486 146.885 746.955 127.933C743.259 142.188 744.648 157.73 751.412 172.172C756.611 183.278 763.969 192.092 772.89 199.167C790.001 212.74 809.183 218.249 830.115 218.68C851.115 218.057 871.285 212.44 888.406 196.588C890.523 194.629 892.474 192.557 894.258 190.385C891.364 201.581 885.363 211.957 876.373 220.283C859.25 236.132 839.079 241.749 818.08 242.371Z" fill="#E6E6E6"></path>
<path d="M1237.25 489.395C1221.1 489.106 1206.77 484.851 1194.27 474.011C1173.01 455.593 1170.15 425.785 1187.7 402.625C1202.66 382.896 1222.21 375.321 1244.31 376.035C1257.43 376.462 1269.75 380.61 1280.74 389.302C1304.8 408.312 1307.83 440.617 1287.69 464.946C1273.75 481.801 1256.18 488.634 1237.25 489.395ZM1241.16 480.085C1254.2 479.979 1267.12 476.546 1278.41 467.068C1294.66 453.441 1297.93 429.926 1285.84 411.362C1282.42 406.099 1278 401.357 1273.3 397.639C1260.68 387.655 1246.37 384.186 1231.27 385.354C1219.25 386.282 1207.98 390.088 1198.2 398.655C1183.03 411.952 1179.82 434.093 1190.38 452.425C1194.87 460.217 1200.89 466.074 1207.92 470.512C1218.06 476.909 1228.97 479.885 1241.16 480.085Z" fill="black"></path>
<path d="M1241.16 480.083C1228.97 479.884 1218.06 476.906 1207.92 470.51C1200.89 466.072 1194.87 460.215 1190.38 452.423C1179.82 434.091 1183.03 411.95 1198.2 398.653C1207.98 390.086 1219.25 386.28 1231.27 385.352C1246.37 384.184 1260.68 387.653 1273.3 397.637C1278 401.354 1282.42 406.097 1285.84 411.362C1297.93 429.924 1294.67 453.437 1278.41 467.066C1267.12 476.544 1254.2 479.977 1241.16 480.083Z" fill="white"></path>
<path d="M1241.16 480.083C1228.96 479.884 1218.06 476.906 1207.92 470.51C1200.89 466.072 1194.87 460.215 1190.38 452.423C1180.58 435.408 1182.64 415.118 1195.11 401.659C1193.12 411.735 1194.83 422.674 1200.49 432.51C1204.99 440.304 1211 446.16 1218.04 450.599C1228.17 456.995 1239.08 459.97 1251.27 460.172C1264.31 460.063 1277.23 456.633 1288.53 447.155C1289.89 446.01 1291.17 444.795 1292.35 443.518C1290.58 452.491 1285.86 460.818 1278.41 467.066C1267.12 476.544 1254.2 479.977 1241.16 480.083Z" fill="#E6E6E6"></path>
</svg>