<svg width="831" height="482" viewBox="0 0 831 482" fill="none" xmlns="http://www.w3.org/2000/svg">
<path d="M255.554 137.209C254.966 127.36 254.38 117.51 253.756 107.068C258.138 106.266 261.535 105.649 265.555 104.916C265.555 94.8517 265.555 85.0629 265.555 74.4153C248.779 71.0703 230.761 71.7919 214.051 66.074C230.674 33.9662 274.221 22.1275 306.74 40.3799C321.449 48.6303 331.742 60.7038 342.832 75.1416C330.455 75.1416 319.769 75.1416 309.077 75.1416C298.615 75.1416 288.157 75.1416 276.885 75.1416C274.212 84.2981 275.567 93.6965 276.034 103.673C279.927 104.691 283.62 105.652 287.862 106.754C287.687 109.99 287.516 113.126 287.284 117.354C403.848 122.729 519.946 118.363 636.318 120.392C637.16 115.827 637.893 112.632 638.28 109.405C638.488 107.665 638.095 105.862 637.924 103.278C631.663 102.799 625.763 102.346 618.808 101.814C618.808 93.3722 618.808 85.1564 618.808 75.5807C627.652 75.1746 636.705 74.7538 646.285 74.3102C647.31 71.9505 648.547 69.6718 649.305 67.2684C652.462 57.2607 657.161 48.0407 664.198 39.7197C668.791 34.2905 673.232 28.473 672.125 19.8283C660.611 18.2808 655.538 27.786 647.295 30.6284C647.295 34.8537 647.497 38.4924 647.25 42.1027C646.747 49.5348 642.234 53.4084 634.07 53.727C627.646 53.9745 622.202 51.775 617.584 47.9025C614.934 45.6795 612.619 43.1258 609.577 40.1639C606.879 41.3379 604.024 42.4499 601.305 43.7824C584.969 51.7547 567.305 55.0551 549.044 56.3515C543.586 56.7378 539.011 54.9615 537.248 50.4034C535.288 45.3299 533.676 39.7777 533.826 34.475C534.007 27.9821 536.88 24.8342 545.011 24.2202C564.66 22.7424 584.204 20.1409 603.863 17.9825C607.34 9.85213 609.094 0.958997 620.214 0.120956C626.391 -0.346091 632.479 0.26476 634.897 6.95486C632.994 6.41768 631.128 5.73209 629.185 5.36872C621.268 3.88779 615.769 6.88161 613.476 13.8096C610.207 23.7065 614.674 37.4369 623.586 43.9192C627.668 46.8897 632.258 50.2103 637.739 47.0726C643.047 44.0329 642.62 39.2821 641.103 34.5883C622.446 32.7099 621.239 31.6859 623.153 19.8135C629.07 27.6964 633.162 28.9761 642.769 24.7635C648.538 22.2296 653.692 18.572 659.29 15.6879C664.768 12.8683 670.776 11.2019 676.238 15.231C681.494 19.1005 680.636 24.6945 678.248 29.4483C675.261 35.404 671.356 41.0136 667.469 46.5572C661.489 55.0956 655.689 63.6525 652.96 75.2885C655.82 73.992 657.6 73.7227 658.308 72.782C667.632 60.3827 676.949 47.9762 685.94 35.3766C689.839 29.9154 695.086 24.0074 691.335 17.1501C687.168 9.53965 678.439 10.5449 670.92 11.0694C657.376 12.0101 643.888 13.6017 631.317 14.8321C632.33 12.3571 633.481 9.53091 634.634 6.70423C638.974 9.81449 643.303 8.67517 648.195 7.49816C657.888 5.1614 667.779 2.62437 677.704 2.14462C697.545 1.178 706.118 12.9335 697.241 29.3635C691.767 39.4926 683.793 48.5133 676.763 57.9147C672.998 62.9552 668.85 67.7567 663.771 74.0352C672.163 74.6288 678.373 75.0695 685.367 75.565C685.367 84.2865 685.367 92.5625 685.367 101.438C681.727 102.112 678.289 102.746 673.167 103.696C669.639 141.565 671.67 179.512 675.943 218.5C679.922 218.745 683.386 219.13 686.847 219.142C770.832 219.496 833.695 278.817 830.911 355.136C828.257 428.175 759.214 485.839 679.256 481.8C607.522 478.175 548.411 422.985 547.291 357.4C546.298 299.075 575.161 256.722 632.349 230.506C634.141 229.685 635.942 228.867 637.72 228.019C638.072 227.854 638.354 227.564 639.922 226.393C638.757 213.125 637.515 199 636.163 183.597C634.228 185.019 632.857 185.636 632.096 186.64C598.898 230.319 560.262 269.949 521.949 309.823C511.311 320.899 501.015 332.268 490.023 343.043C484.407 348.55 482.369 354.318 482.211 361.807C481.613 390.655 457.722 413.29 426.861 414.655C420.152 414.947 413.365 413.901 405.679 413.415C402.968 422.606 400.381 431.36 397.44 441.331C404.38 441.752 410.218 442.109 416.659 442.505C419.738 451.181 418.554 459.724 417.534 468.127C407.702 470.714 362.939 470.971 350.303 468.469C350.303 460.414 350.303 452.17 350.303 443.303C362.481 440.204 375.1 443.522 387.902 441.185C391.096 430.839 394.33 420.351 397.094 411.405C387.219 401.049 378.334 391.736 368.221 381.135C340.747 381.135 311.04 381.135 280.621 381.135C279.061 385.159 277.577 388.894 276.162 392.647C256.554 444.55 204.213 480.454 146.005 481.923C73.6629 483.745 12.8574 437.409 1.74489 371.999C-9.95315 303.152 38.2969 238.043 112.602 222.396C132.588 218.188 152.593 218.163 172.613 222.17C176.916 223.032 181.199 223.976 186.43 225.082C188.865 221.779 191.252 218.461 193.72 215.2C210.215 193.383 226.663 171.535 243.294 149.807C246.034 146.229 249.611 143.175 252.799 139.881C251.64 142.582 250.879 145.499 249.258 147.944C211.47 204.965 173.507 261.887 135.847 318.978C131.755 325.178 127.424 329.862 119.638 332.663C107.08 337.181 101.504 346.764 101.589 358.949C101.673 371.771 111.287 383.637 125.099 388.346C139.643 393.307 156.389 390.449 165.926 379.411C171.812 372.596 178.148 371.47 186.693 371.524C242.385 371.865 298.08 371.836 353.774 371.865C358.079 371.868 362.378 371.381 366.33 371.146C367.654 361.434 367.929 352.552 370.328 344.174C372.023 338.256 371.335 333.616 368.39 328.498C363.515 320.026 359.046 311.358 354.462 302.752C330.477 257.708 307.239 212.363 289.521 164.868C286.944 157.954 285.286 150.75 283.205 143.68C284.34 145.102 285.772 146.402 286.575 147.973C315.166 203.947 343.696 259.952 372.261 315.938C374.059 319.457 376.125 322.866 378.798 327.64C391.139 312.69 407.157 306.537 424.765 304.998C427.643 294.843 430.108 286.152 432.761 276.81C423.599 276.435 415.677 276.108 407.091 275.755C407.091 266.337 407.091 257.808 407.091 248.431C429.968 247.786 451.835 247.593 473.892 248.443C473.892 258.274 473.892 266.564 473.892 276.471C462.93 276.471 452.718 276.471 442.279 276.471C439.346 287.033 436.821 296.117 434.518 304.42C445.509 309.452 455.11 313.853 465.389 318.561C467.034 317.144 469.141 315.52 470.998 313.686C492.625 292.355 514.4 271.15 535.768 249.603C567.131 217.968 598.181 186.079 629.422 154.346C630.962 152.783 633.037 151.659 634.864 150.335C632.782 153.837 631.177 157.689 628.535 160.794C612.215 179.984 596.52 199.7 578.992 217.938C547.063 251.156 514 283.454 481.422 316.145C478.191 319.39 475.044 322.701 471.481 326.369C474.266 331.068 476.82 335.373 480.022 340.788C533.659 280.807 592.697 227.462 643.683 167.29C645.428 173.574 645.938 179.385 646.513 185.189C647.855 198.748 648.896 212.337 650.647 225.85C655.007 259.538 662.718 292.626 673.21 325.164C674.848 330.249 674.067 333.866 669.495 337.792C649.875 354.654 659.005 381.508 682.444 389.849C702.622 397.036 725.323 387.814 731.885 369.747C738.102 352.627 726.146 334.409 705.293 329.237C703.734 328.85 702.167 328.359 700.577 328.257C695.813 327.944 693.725 325.336 692.32 321.451C680.028 287.477 670.274 253 665.856 217.343C661.393 181.334 661.925 145.325 664.786 109.277C664.924 107.534 664.569 105.76 664.393 103.284C658.489 103.284 653.095 103.284 647.105 103.284C646.117 109.867 645.21 115.938 644.203 122.687C638.881 123.161 634.15 123.767 629.397 123.978C604.81 125.074 580.225 126.136 555.627 127.085C486.227 129.766 416.826 130.15 347.501 125.646C327.404 124.341 307.413 121.689 287.381 119.6C286.236 119.477 285.156 118.871 284.162 118.531C283.298 115.65 282.488 112.956 281.754 110.504C274.052 110.504 267.093 110.504 259.022 110.504C259.022 116.35 259.461 121.149 258.882 125.842C258.405 129.694 256.707 133.425 255.554 137.209ZM647.672 265.978C605.031 275.053 575.478 327.179 587.555 371.236C601.78 423.124 660.065 454.587 716.711 440.955C772.365 427.559 804.491 377.28 789.579 327.241C774.833 277.771 718.088 252.045 682.089 259.164C686.975 278.714 691.854 298.254 696.546 317.036C726.094 324.72 738.537 336.749 739.395 357.249C740.205 376.59 729.061 392.991 710.824 399.297C693.624 405.244 674.522 400.517 662.786 387.431C656.419 380.334 653.332 372.075 652.743 363.046C651.825 348.998 658.183 337.386 667.925 327.844C660.974 306.613 654.319 286.28 647.672 265.978ZM162.148 260.446C114.459 246.016 55.4916 277.84 41.2879 325.007C25.8218 376.348 62.6044 430.788 120.221 441.845C172.978 451.971 232.877 421.393 239.745 379.751C218.984 378.346 198.329 376.943 178.203 375.575C176.075 378.549 174.832 380.439 173.426 382.224C162.881 395.649 148.689 402.442 130.642 399.399C112.253 396.306 100.563 385.705 96.5376 368.951C92.3673 351.589 97.2484 335.961 113.469 326.096C123.141 320.214 129.14 312.936 134.528 304.308C141.711 292.808 149.241 281.484 156.549 270.046C158.527 266.951 160.247 263.718 162.148 260.446ZM680.879 246.617C692.906 248.039 704.7 248.452 715.947 250.928C774.415 263.817 809.509 316.429 796.981 371.605C780.558 443.954 688.175 477.186 623.436 434.033C559.134 391.172 564.702 299.901 633.929 262.041C637.967 259.832 642.022 257.639 646.142 255.394C644.446 248.522 642.995 242.649 641.52 236.69C584.121 253.168 534.296 316.069 560.088 387.566C583.769 453.228 663.11 488.606 735.042 465.842C806.011 443.385 842.626 372.905 816.018 309.166C802.438 276.634 777.791 253.139 742.86 239.109C722.512 230.935 701.272 226.612 678.231 229.526C678.462 233.682 678.392 236.613 678.847 239.471C679.24 241.966 680.225 244.389 680.879 246.617ZM248.019 380.805C245.931 385.227 244.114 389.312 242.094 393.315C216.752 443.533 153.797 466.508 98.8717 445.604C47.5299 426.057 20.4989 374.304 35.5193 324.305C50.7153 273.722 103.104 241.563 158.614 249.196C166.576 250.294 171.977 249.301 175.106 242.191C176.247 239.612 177.714 237.153 179.045 234.609C163.467 228.779 145.527 227.263 123.665 229.676C44.3546 238.444 -8.29024 307.034 10.0242 377.741C23.6364 430.283 75.128 469.294 135.292 472.645C193.931 475.912 249.038 443.565 269.378 393.859C270.995 389.904 272.105 385.778 273.76 380.805C264.374 380.805 256.782 380.805 248.019 380.805ZM425.066 405.024C453.234 405.124 476.591 385.101 476.613 360.837C476.635 336.183 452.98 315.398 424.739 315.264C396.568 315.128 373.355 335.142 373.352 359.558C373.345 384.431 396.661 404.928 425.066 405.024ZM332.606 69.324C297.867 33.6709 246.738 31.1309 225.326 62.7823C260.505 65.5831 295.1 68.2349 332.606 69.324ZM604.292 24.5247C586.505 26.184 569.593 27.7687 552.704 29.3431C555.191 36.6761 557.492 43.4526 560.303 51.7462C574.45 46.0603 588.269 40.534 602.058 34.9558C607.654 32.6928 606.895 29.0107 604.292 24.5247ZM416.441 254.988C415.761 261.031 415.184 266.141 414.477 272.432C432.134 270.533 447.878 268.836 464.239 267.076C464.506 262.522 464.71 259.061 464.947 254.988C448.81 254.988 433.702 254.988 416.441 254.988ZM408.002 449.404C392.298 449.404 376.576 449.404 359.904 449.404C359.34 455.161 358.863 460.005 358.268 466.076C372.347 464.657 384.941 463.389 397.538 462.119C408.56 461.004 408.631 460.916 408.002 449.404ZM677.417 82.219C660.125 82.219 644.325 82.219 628.325 82.219C627.344 88.1417 626.589 92.7111 625.574 98.8569C643.318 97.0517 659.402 95.4107 675.534 93.7712C676.282 89.1902 676.8 86.0123 677.417 82.219ZM541.083 27.3193C536.559 38.3328 538.816 45.2892 548.102 51.0016C552.783 43.107 550.764 35.7826 541.083 27.3193Z" fill="black"></path>
<path d="M283.207 143.68C285.288 150.75 286.946 157.955 289.523 164.869C307.241 212.363 330.479 257.708 354.464 302.752C359.048 311.359 363.517 320.027 368.392 328.499C371.337 333.616 372.025 338.256 370.33 344.174C367.931 352.553 367.656 361.434 366.332 371.147C362.38 371.381 358.081 371.868 353.776 371.865C298.082 371.837 242.387 371.865 186.695 371.524C178.15 371.471 171.815 372.596 165.928 379.411C156.391 390.449 139.645 393.307 125.101 388.346C111.289 383.638 101.675 371.772 101.591 358.949C101.506 346.764 107.082 337.181 119.64 332.664C127.426 329.863 131.757 325.178 135.849 318.978C173.509 261.887 211.472 204.966 249.26 147.944C250.881 145.5 251.642 142.582 252.801 139.881C253.72 138.992 254.636 138.102 255.556 137.209C256.709 133.426 258.407 129.695 258.884 125.842C259.463 121.149 259.024 116.35 259.024 110.504C267.095 110.504 274.054 110.504 281.756 110.504C282.49 112.956 283.3 115.65 284.164 118.531C285.158 118.871 286.239 119.478 287.383 119.6C307.415 121.689 327.406 124.342 347.504 125.647C416.828 130.15 486.229 129.767 555.629 127.086C580.227 126.137 604.812 125.074 629.399 123.978C634.152 123.768 638.883 123.162 644.205 122.687C645.212 115.938 646.119 109.868 647.108 103.284C653.097 103.284 658.491 103.284 664.395 103.284C664.571 105.76 664.926 107.534 664.789 109.277C661.927 145.325 661.395 181.335 665.858 217.344C670.276 253 680.03 287.478 692.322 321.452C693.728 325.337 695.815 327.945 700.579 328.257C702.169 328.359 703.736 328.851 705.295 329.238C726.148 334.41 738.104 352.627 731.887 369.747C725.325 387.814 702.624 397.037 682.446 389.85C659.007 381.509 649.877 354.655 669.498 337.792C674.069 333.867 674.85 330.249 673.212 325.164C662.72 292.627 655.009 259.539 650.649 225.85C648.898 212.338 647.857 198.748 646.515 185.189C645.94 179.386 645.43 173.574 643.685 167.29C592.699 227.462 533.661 280.808 480.024 340.789C476.822 335.374 474.268 331.069 471.483 326.37C475.046 322.702 478.193 319.39 481.424 316.146C514.002 283.454 547.066 251.156 578.994 217.939C596.522 199.701 612.217 179.985 628.537 160.794C631.179 157.69 632.784 153.838 634.866 150.336L634.601 150.599C637.162 148.852 639.72 147.103 644.607 143.765C638.609 143.111 635.941 142.6 633.26 142.565C612.294 142.304 591.325 142.115 570.357 141.94C477.22 141.146 384.088 140.359 290.951 139.588C288.546 139.569 286.09 139.524 283.777 139.986C283.363 140.07 283.534 142.594 283.438 143.99L283.207 143.68ZM357.981 358.554C362.035 351.253 358.609 345.978 356.11 340.622C327.061 278.343 294.42 217.452 269.162 153.701C268.713 152.57 267.421 151.717 265.784 149.934C220.6 206.427 185.695 267.219 149.765 328.946C162.829 333.567 170.515 341.801 174.796 352.638C236.067 358.961 296.85 359.524 357.981 358.554ZM137.593 370.096C144.431 369.994 149.931 364.965 149.809 358.93C149.691 353.057 143.74 347.813 137.26 347.871C130.611 347.93 125.227 353.048 125.291 359.243C125.355 365.577 130.601 370.201 137.593 370.096ZM696.488 376.082C703.259 375.977 708.476 370.961 708.358 364.673C708.233 358.367 702.83 353.525 696.046 353.656C689.407 353.782 683.865 359.032 683.994 365.076C684.122 371.15 689.838 376.185 696.488 376.082Z" fill="#9900CC"></path>
<path d="M680.883 246.618C680.229 244.389 679.244 241.966 678.851 239.471C678.396 236.613 678.465 233.683 678.235 229.526C701.276 226.612 722.516 230.935 742.863 239.109C777.795 253.14 802.442 276.634 816.022 309.166C842.63 372.905 806.015 443.385 735.045 465.842C663.114 488.606 583.773 453.229 560.092 387.566C534.3 316.069 584.125 253.168 641.524 236.691C642.999 242.649 644.45 248.522 646.146 255.394C642.026 257.64 637.971 259.833 633.933 262.041C564.706 299.901 559.138 391.172 623.44 434.033C688.179 477.186 780.561 443.954 796.985 371.606C809.513 316.429 774.419 263.817 715.951 250.928C704.704 248.452 692.91 248.04 680.883 246.618Z" fill="#999999"></path>
<path d="M248.023 380.805C256.785 380.805 264.378 380.805 273.764 380.805C272.109 385.778 270.999 389.904 269.382 393.859C249.042 443.565 193.935 475.913 135.296 472.645C75.1318 469.294 23.6402 430.283 10.028 377.741C-8.28645 307.034 44.3584 238.444 123.669 229.676C145.531 227.263 163.471 228.779 179.049 234.609C177.717 237.153 176.251 239.612 175.11 242.191C171.981 249.301 166.58 250.294 158.618 249.196C103.108 241.563 50.7191 273.722 35.5231 324.305C20.5027 374.304 47.5337 426.057 98.8755 445.604C153.8 466.508 216.756 443.533 242.098 393.315C244.118 389.312 245.935 385.227 248.023 380.805Z" fill="#999999"></path>
<path d="M425.07 405.025C396.665 404.928 373.349 384.431 373.355 359.558C373.359 335.142 396.572 315.129 424.743 315.264C452.984 315.398 476.639 336.183 476.617 360.837C476.595 385.101 453.238 405.124 425.07 405.025Z" fill="#707E99"></path>
<path d="M332.608 69.3247C295.102 68.2356 260.507 65.5838 225.328 62.783C246.74 31.1316 297.869 33.6716 332.608 69.3247Z" fill="#ACAC7C"></path>
<path d="M634.635 6.70479C633.482 9.53147 632.331 12.3577 631.319 14.8326C643.89 13.6023 657.377 12.0106 670.921 11.0699C678.441 10.5454 687.169 9.54021 691.336 17.1507C695.088 24.008 689.841 29.9159 685.942 35.3772C676.951 47.9768 667.634 60.3832 658.309 72.7826C657.602 73.7233 655.822 73.9926 652.962 75.2891C655.691 63.653 661.491 55.0962 667.471 46.5577C671.357 41.0142 675.262 35.4046 678.25 29.4489C680.637 24.695 681.495 19.1011 676.24 15.2316C670.778 11.2024 664.769 12.8689 659.291 15.6885C653.693 18.5726 648.539 22.2301 642.771 24.7641C633.163 28.9767 629.072 27.697 623.155 19.8141C621.241 31.6865 622.447 32.7105 641.104 34.5888C642.622 39.2827 643.049 44.0335 637.741 47.0731C632.26 50.2108 627.669 46.8903 623.587 43.9198C614.675 37.4375 610.209 23.707 613.478 13.8101C615.771 6.88217 621.269 3.88835 629.187 5.36928C631.129 5.73265 632.996 6.41824 634.899 6.95542L634.635 6.70479Z" fill="#707E99"></path>
<path d="M604.296 24.5249C606.898 29.0109 607.658 32.693 602.061 34.956C588.273 40.5342 574.454 46.0605 560.306 51.7463C557.495 43.4528 555.194 36.6763 552.708 29.3433C569.596 27.7689 586.508 26.1842 604.296 24.5249Z" fill="#ACAC7C"></path>
<path d="M416.442 254.988C433.704 254.988 448.811 254.988 464.948 254.988C464.711 259.062 464.507 262.523 464.24 267.076C447.879 268.837 432.135 270.533 414.478 272.432C415.185 266.141 415.762 261.031 416.442 254.988Z" fill="#707E99"></path>
<path d="M408.004 449.404C408.632 460.916 408.561 461.004 397.539 462.119C384.942 463.389 372.349 464.657 358.27 466.076C358.865 460.005 359.341 455.161 359.905 449.404C376.578 449.404 392.299 449.404 408.004 449.404Z" fill="#707E99"></path>
<path d="M677.422 82.2193C676.806 86.0126 676.288 89.1905 675.539 93.7715C659.407 95.411 643.324 97.052 625.579 98.8572C626.595 92.7114 627.35 88.142 628.33 82.2193C644.33 82.2193 660.13 82.2193 677.422 82.2193Z" fill="#707E99"></path>
<path d="M541.084 27.3197C550.765 35.783 552.784 43.1074 548.104 51.002C538.817 45.2897 536.56 38.3332 541.084 27.3197Z" fill="#ACAC7C"></path>
<path d="M357.979 358.554C296.848 359.524 236.065 358.96 174.794 352.637C170.513 341.801 162.827 333.566 149.763 328.945C185.693 267.218 220.598 206.427 265.782 149.933C267.418 151.717 268.711 152.569 269.16 153.701C294.418 217.451 327.058 278.343 356.108 340.622C358.607 345.978 362.033 351.253 357.979 358.554ZM266.308 158.11C247.343 183.611 231.087 210.043 215.334 237.145C260.434 264.131 282.698 301.792 284.601 349.547C306.427 349.547 327.132 349.547 350.031 349.547C318.844 285.866 287.645 224.144 266.308 158.11ZM245.57 349.667C245.647 317.465 222.802 282.82 194.564 272.119C184.118 289.538 173.616 307.042 164.114 322.889C170.878 332.587 176.406 340.508 182.793 349.667C202.645 349.667 223.773 349.667 245.57 349.667ZM276.82 350.02C279.251 310.841 247.501 261.614 209.47 246.928C206.565 251.912 203.627 256.941 200.464 262.368C234.696 283.664 251.717 312.746 253.08 350.02C261.394 350.02 268.792 350.02 276.82 350.02Z" fill="black"></path>
<path d="M634.6 150.6C633.245 149.153 631.976 146.563 630.512 146.469C624.915 146.114 619.246 146.403 613.622 146.727C542.397 150.816 471.089 152.43 399.78 150.21C364.393 149.11 329.103 145.471 293.758 143.12C290.361 142.895 286.881 143.677 283.44 143.99C283.533 142.594 283.362 140.07 283.776 139.987C286.09 139.524 288.545 139.569 290.95 139.589C384.088 140.36 477.219 141.146 570.357 141.94C591.325 142.116 612.293 142.305 633.26 142.565C635.941 142.6 638.608 143.111 644.607 143.765C639.719 147.103 637.161 148.852 634.6 150.6Z" fill="black"></path>
<path d="M137.591 370.096C130.599 370.201 125.353 365.577 125.288 359.243C125.225 353.048 130.608 347.93 137.258 347.871C143.737 347.813 149.689 353.057 149.807 358.93C149.929 364.965 144.429 369.994 137.591 370.096Z" fill="black"></path>
<path d="M696.487 376.082C689.837 376.184 684.121 371.15 683.993 365.076C683.864 359.032 689.406 353.781 696.044 353.656C702.829 353.525 708.232 358.367 708.357 364.672C708.475 370.96 703.258 375.977 696.487 376.082Z" fill="black"></path>
<path d="M276.822 350.02C268.794 350.02 261.396 350.02 253.082 350.02C251.719 312.746 234.698 283.664 200.466 262.368C203.629 256.941 206.567 251.912 209.472 246.928C247.503 261.614 279.253 310.841 276.822 350.02Z" fill="#999999"></path>
</svg>