<svg width="538" height="490" viewBox="0 0 538 490" fill="none" xmlns="http://www.w3.org/2000/svg">
<path d="M121.359 8.90592C125.122 8.34035 128.885 7.77679 132.646 7.21403C147.807 4.70373 162.688 7.06579 177.435 9.91965C210.255 16.2695 241.022 28.1472 271.16 41.5404C331.047 68.1546 387.199 100.735 441.379 136.361C461.285 149.449 480.685 163.233 499.962 177.134C506.83 182.084 512.94 188.061 518.883 194.019C527.164 202.324 529.522 212.38 525.436 223.041C521.689 232.819 517.176 242.371 512.433 251.768C501.746 272.945 488.836 292.827 471.618 309.976C433.191 348.249 385.671 359.773 331.982 349.862C295.823 343.186 272.533 316.817 268.352 282.292C266.027 263.09 268.193 244.554 275.946 226.834C279.411 218.916 285.013 211.818 289.691 204.373C290.598 202.926 291.709 201.592 293.212 199.544C289.762 196.58 286.684 193.568 283.22 191.02C267.228 179.258 248.665 173.382 228.971 169.621C217.161 167.366 207.266 169.097 196.866 175.181C174.207 188.437 150.442 199.906 124.916 207.713C106.44 213.364 87.6629 216.847 68.0309 214.84C54.9256 213.498 42.7623 209.691 31.3761 203.651C6.57735 190.489 -3.91702 169.013 1.30998 142.735C4.00803 129.166 9.23574 116.46 16.5996 104.608C41.0983 65.1701 74.0331 33.7066 117.017 11.8682C118.577 11.0767 119.916 9.90077 121.359 8.90592ZM121.58 158.199C138.925 158.299 155.61 152.113 169.136 138.774C175.759 132.24 179.741 124.742 179.7 115.456C179.676 110.265 180.41 105.066 180.861 99.879C181.423 93.4551 182.28 87.0455 182.59 80.6116C183.178 68.3935 177.344 59.0342 166.94 52.1873C150.879 41.6171 132.704 38.5102 113.469 39.5251C95.7428 40.4598 80.8919 47.1266 68.6288 59.1209C63.7029 63.9402 60.3191 69.3483 60.0838 76.1963C59.648 88.8367 59.0741 101.475 58.792 114.118C58.4677 128.567 65.8005 139.278 78.1834 147.119C90.606 154.984 104.542 158.259 121.58 158.199ZM328.429 235.936C328.376 235.938 328.324 235.938 328.269 235.939C328.269 241.146 328.31 246.355 328.264 251.561C328.123 267.574 336.56 278.779 350.655 286.791C360.581 292.433 371.518 295.267 382.96 296.002C404.962 297.419 424.162 291.471 439.416 275.935C445.553 269.688 448.973 262.521 449.273 253.84C449.626 243.684 450.045 233.462 451.596 223.427C454.149 206.92 446.62 195.682 432.302 187.453C422.663 181.916 412.015 179.008 400.907 177.83C377.475 175.345 356.259 179.644 339.079 196.159C333.481 201.538 329.78 207.494 329.451 215.121C329.151 222.062 328.774 228.997 328.429 235.936ZM257.081 67.295C247.462 68.2274 238.369 69.5257 229.936 73.5388C225.339 75.7253 221.383 78.6767 220.86 84.0131C220.352 89.1992 219.916 94.394 219.673 99.5952C219.41 105.206 221.847 109.891 226.596 113.14C241.596 123.391 258.295 126.442 276.162 121.91C285.163 119.628 290.07 113.289 291.168 104.55C291.724 100.116 291.945 95.6439 292.629 91.2307C293.991 82.4337 290.676 75.9705 280.028 72.2493C272.734 69.701 264.754 68.8864 257.081 67.295ZM304.319 133.793C303.174 141.139 303.583 148.573 311.014 153.598C326.047 163.766 342.77 166.782 360.628 162.201C369.303 159.974 374.134 153.823 375.389 145.447C376.016 141.274 376.341 137.06 376.699 132.856C377.714 120.952 374.074 115.42 361.95 111.633C347.154 107.011 332.28 107.483 317.647 112.415C309.523 115.155 304.045 119.998 304.691 128.973C304.797 130.441 304.475 131.938 304.319 133.793Z" fill="#A0A7B4"/>
<path d="M272.224 319.258C274.076 321.174 274.83 321.794 275.377 322.545C289.832 342.312 310.402 353.054 334.949 357.397C358.622 361.584 382.337 360.647 405.717 355.413C434.381 348.997 457.839 334.282 477.632 314.117C496.287 295.109 509.921 273.121 520.943 249.583C523.154 244.864 525.632 240.255 528.791 234.004C529.566 237.13 530.093 238.578 530.266 240.066C531.04 246.718 531.366 253.438 532.522 260.031C533.639 266.419 532.782 272.458 530.123 278.219C519.509 301.222 508.307 323.943 492.389 344.287C483.754 355.323 474.151 365.512 462.953 374.334C441.055 391.591 415.903 401.326 387.425 403.973C371.8 405.423 356.361 405.451 340.912 402.593C304.682 395.891 279.176 372.443 273.597 332.95C273.044 329.039 272.799 325.09 272.224 319.258Z" fill="#767F90"/>
<path d="M3.8689 192.243C5.2774 193.018 6.04622 193.254 6.53181 193.737C28.5947 215.65 56.299 223.64 87.5918 222.557C110.951 221.749 132.981 215.548 153.838 206.175C170.489 198.689 186.425 189.804 202.665 181.518C205.127 180.263 207.515 178.883 210.827 177.076C211.489 184.488 212.09 190.825 212.619 197.168C213.135 203.352 213.463 209.553 214.108 215.726C214.42 218.706 213.972 220.874 210.9 222.563C181.435 238.747 151.795 254.56 118.436 262.829C100.319 267.32 82.0024 268.865 63.5092 265.159C50.4166 262.536 38.3955 257.499 27.7219 249.858C14.1119 240.115 6.80975 227.13 5.52844 211.119C5.04061 205.037 4.46298 198.959 3.8689 192.243Z" fill="#767F90"/>
<path d="M283.53 198.815C276.922 209.27 270.905 218.789 264.697 228.613C251.224 225.609 236.983 222.433 221.49 218.978C220.386 204.268 219.235 188.883 217.997 172.361C242.38 178.14 263.198 188.373 283.53 198.815Z" fill="#767F90"/>
<path d="M211.91 477.152C205.843 476.481 200.449 475.889 195.247 475.318C183.302 435.363 208.859 373.644 269.323 353.681C270.26 355.528 271.27 357.427 272.186 359.363C273.149 361.388 274.021 363.449 275.277 366.27C272.904 367.392 270.656 368.455 268.407 369.521C244.795 380.704 226.749 397.24 215.01 419.495C205.988 436.595 203.477 454.366 210.961 472.699C211.402 473.781 211.465 474.998 211.91 477.152Z" fill="#00CCFF"/>
<path d="M482.046 157.244C476.497 153.166 471.999 149.861 467.812 146.783C469.982 140.21 472.386 134.413 473.795 128.41C479.349 104.695 466.383 85.8792 441.193 80.5569C431.005 78.4049 420.7 78.2826 410.465 79.5898C406.12 80.1416 403.482 79.3248 401.292 75.8467C399.747 73.394 397.61 71.2713 395.288 68.4561C405.836 65.1023 415.808 65.1581 425.751 65.6928C439.736 66.4477 452.716 70.3822 464.379 77.7497C485.266 90.9458 494.93 112.845 489.994 136.032C489.016 140.63 487.36 145.114 485.782 149.577C484.968 151.878 483.64 154.019 482.046 157.244Z" fill="#00CCFF"/>
<path d="M405.919 105.678C384.372 93.2675 363.363 81.166 342.124 68.9367C355.63 61.2045 374.266 63.7358 389.335 74.9781C402.231 84.6023 409.058 96.8492 405.919 105.678Z" fill="#767F90"/>
<path d="M121.579 158.198C104.542 158.258 90.6033 154.983 78.183 147.118C65.8001 139.276 58.4673 128.568 58.7894 114.117C59.0737 101.474 59.6476 88.8354 60.0834 76.195C60.321 69.347 63.7025 63.9389 68.6284 59.1196C80.8915 47.1253 95.7424 40.4585 113.469 39.5238C132.703 38.5089 150.878 41.6157 166.939 52.188C177.343 59.035 183.178 68.3923 182.589 80.6125C182.28 87.0442 181.423 93.452 180.863 99.8756C180.41 105.067 179.675 110.261 179.7 115.455C179.741 124.741 175.759 132.238 169.135 138.773C155.61 152.114 138.925 158.298 121.579 158.198ZM116.341 44.6736C103.528 44.5303 91.7421 47.457 81.5873 55.0198C67.2105 65.7285 65.7324 81.7756 77.8246 94.7872C79.0367 96.0905 80.3528 97.3204 81.7262 98.4765C100.879 114.558 135.556 117.27 157.331 104.411C178.474 91.9263 179.591 72.7973 159.8 58.4624C147.055 49.2334 132.35 45.0344 116.341 44.6736ZM70.1607 95.5678C69.5329 95.6307 68.9041 95.6963 68.2752 95.7588C68.2752 101.146 68.5693 106.548 68.2161 111.916C67.4035 124.27 73.0877 133.403 83.5013 140.348C91.1877 145.474 99.8661 148.408 109.081 149.73C124.24 151.909 139.139 151.241 153.051 144.378C162.047 139.942 169.418 133.615 170.935 123.854C172.082 116.484 171.162 108.833 171.162 100.893C139.317 128.512 90.1121 120.008 70.1607 95.5678Z" fill="black"/>
<path d="M328.431 235.935C328.775 228.995 329.152 222.059 329.452 215.119C329.781 207.492 333.482 201.539 339.08 196.158C356.257 179.643 377.476 175.343 400.91 177.828C412.016 179.004 422.666 181.912 432.303 187.451C446.623 195.681 454.15 206.918 451.597 223.425C450.046 233.46 449.628 243.682 449.274 253.839C448.974 262.519 445.554 269.687 439.42 275.933C424.163 291.469 404.963 297.417 382.961 296.001C371.519 295.265 360.582 292.431 350.656 286.789C336.562 278.777 328.124 267.573 328.265 251.56C328.309 246.352 328.27 241.145 328.27 235.938C328.323 235.937 328.377 235.937 328.431 235.935ZM393.76 250.193C396.135 250.193 398.528 250.392 400.877 250.161C414.092 248.875 426.103 244.924 435.546 235.695C445.848 225.629 446.347 213.657 436.627 203.018C433.574 199.674 429.922 196.645 426.04 194.165C413.459 186.13 399.325 182.429 384.181 182.602C370.282 182.762 357.59 186.427 347.555 196.018C337.775 205.367 336.21 217.844 344.257 228.533C347.823 233.267 352.654 237.506 357.763 240.796C368.484 247.701 380.797 250.367 393.76 250.193ZM441.173 238.462C435.115 242.427 430.281 246.382 424.732 249.005C419.15 251.642 412.979 253.512 406.844 254.687C400.961 255.813 394.749 256.196 388.755 255.827C382.492 255.442 376.117 254.349 370.161 252.505C364.216 250.663 358.38 248.014 353.147 244.789C348.082 241.667 343.846 237.358 337.854 232.426C337.854 238.717 338.235 243.433 337.784 248.08C336.371 262.665 343.272 273.007 356.193 280.1C370.127 287.748 385.34 290.03 401.268 288.256C411.379 287.125 420.904 284.369 429.066 278.377C435.793 273.439 440.477 267.176 441.075 259.036C441.561 252.409 441.173 245.726 441.173 238.462Z" fill="black"/>
<path d="M257.079 67.2952C264.752 68.8865 272.732 69.7012 280.026 72.2494C290.672 75.9723 293.989 82.4338 292.628 91.2308C291.943 95.6419 291.722 100.116 291.166 104.548C290.069 113.289 285.161 119.626 276.158 121.91C258.295 126.442 241.594 123.391 226.594 113.14C221.843 109.892 219.408 105.208 219.671 99.5932C219.914 94.3942 220.351 89.1993 220.859 84.0154C221.382 78.6769 225.337 75.7254 229.934 73.539C238.369 69.5259 247.46 68.2254 257.079 67.2952ZM253.345 72.0769C247.196 73.3566 241.526 73.7627 236.563 75.7334C227.223 79.4416 226.287 88.8161 234.175 94.8087C235.398 95.7337 236.757 96.5689 238.186 97.1703C250.323 102.292 262.695 102.866 275.088 98.219C277.942 97.1476 280.648 95.2794 282.852 93.237C287.067 89.3328 286.879 85.4064 282.395 81.7102C280.256 79.9457 277.699 78.2757 275.024 77.5018C267.777 75.3997 260.367 73.7979 253.345 72.0769ZM228.232 99.5275C228.475 106.513 229.451 108.548 233.74 111.635C244.071 119.075 266.64 119.823 277.516 113.13C282.954 109.784 285.042 105.3 283.271 98.8095C265.087 107.626 247.047 109.819 228.232 99.5275Z" fill="black"/>
<path d="M304.318 133.793C304.474 131.937 304.796 130.441 304.691 128.971C304.044 119.997 309.523 115.155 317.647 112.414C332.279 107.48 347.154 107.01 361.95 111.633C374.076 115.42 377.713 120.952 376.699 132.856C376.341 137.059 376.016 141.274 375.391 145.446C374.131 153.822 369.303 159.973 360.625 162.2C342.769 166.784 326.047 163.764 311.014 153.597C303.582 148.572 303.174 141.14 304.318 133.793ZM339.198 141.596C350.503 141.546 357.987 140.335 364.44 135.879C372.109 130.593 372.12 124.541 363.891 120.072C351.53 113.357 338.124 111.483 324.165 114.781C318.453 116.131 313.853 119.076 313.305 125.169C312.761 131.232 316.845 134.76 322.025 137.306C328.482 140.477 335.461 141.624 339.198 141.596ZM312.445 139.85C312.934 147.355 314.115 150.158 319.422 152.828C332.8 159.565 346.686 160.131 360.485 154.127C367.305 151.157 368.793 147.123 367.21 139.342C349.306 147.937 331.267 150.091 312.445 139.85Z" fill="black"/>
<path d="M116.342 44.675C132.352 45.0358 147.057 49.2347 159.802 58.4637C179.593 72.7987 178.475 91.9277 157.333 104.413C135.557 117.271 100.881 114.56 81.7278 98.4778C80.3544 97.3217 79.0383 96.0919 77.8262 94.7886C65.734 81.7769 67.2121 65.7298 81.5889 55.0212C91.7437 47.4583 103.53 44.5317 116.342 44.675Z" fill="#FF0000"/>
<path d="M70.1603 95.5678C90.1117 120.008 139.317 128.512 171.162 100.893C171.162 108.833 172.082 116.484 170.935 123.854C169.418 133.615 162.047 139.942 153.051 144.378C139.139 151.241 124.239 151.909 109.08 149.73C99.8657 148.408 91.1873 145.474 83.5009 140.348C73.0873 133.403 67.4031 124.27 68.2157 111.916C68.5689 106.548 68.2748 101.146 68.2748 95.7588C68.9037 95.6963 69.5325 95.6307 70.1603 95.5678Z" fill="#CB1212"/>
<path d="M393.758 250.194C380.795 250.367 368.482 247.702 357.762 240.797C352.653 237.507 347.821 233.268 344.256 228.534C336.208 217.845 337.773 205.368 347.554 196.019C357.589 186.427 370.28 182.763 384.18 182.603C399.323 182.429 413.457 186.131 426.038 194.166C429.921 196.645 433.573 199.675 436.626 203.019C446.345 213.658 445.847 225.629 435.544 235.695C426.102 244.924 414.09 248.876 400.876 250.162C398.527 250.392 396.133 250.194 393.758 250.194Z" fill="#99CC33"/>
<path d="M441.171 238.462C441.171 245.726 441.559 252.409 441.074 259.035C440.476 267.178 435.792 273.439 429.065 278.377C420.903 284.369 411.378 287.124 401.266 288.253C385.339 290.031 370.124 287.746 356.191 280.099C343.271 273.007 336.367 262.665 337.783 248.08C338.234 243.433 337.853 238.715 337.853 232.425C343.845 237.358 348.079 241.666 353.146 244.789C358.379 248.014 364.215 250.663 370.16 252.502C376.116 254.349 382.491 255.444 388.754 255.827C394.748 256.196 400.96 255.812 406.843 254.687C412.98 253.514 419.149 251.642 424.729 249.005C430.279 246.382 435.116 242.427 441.171 238.462Z" fill="#61A70C"/>
<path d="M253.348 72.0766C260.37 73.7976 267.779 75.3994 275.026 77.5015C277.702 78.2754 280.259 79.9454 282.398 81.7099C286.881 85.4061 287.069 89.3325 282.855 93.2367C280.651 95.2791 277.945 97.1473 275.091 98.2187C262.698 102.866 250.325 102.291 238.188 97.17C236.76 96.5686 235.4 95.7334 234.178 94.8084C226.29 88.8158 227.225 79.4413 236.566 75.7331C241.529 73.7624 247.198 73.3563 253.348 72.0766Z" fill="#FF7500"/>
<path d="M228.234 99.5277C247.049 109.819 265.089 107.626 283.272 98.8096C285.043 105.3 282.956 109.784 277.518 113.13C266.642 119.824 244.073 119.075 233.742 111.635C229.452 108.548 228.477 106.513 228.234 99.5277Z" fill="#DE500C"/>
<path d="M339.2 141.595C335.463 141.623 328.484 140.476 322.027 137.305C316.846 134.759 312.763 131.231 313.307 125.168C313.855 119.075 318.455 116.129 324.166 114.78C338.126 111.482 351.532 113.356 363.892 120.07C372.122 124.539 372.111 130.592 364.442 135.878C357.989 140.334 350.505 141.545 339.2 141.595Z" fill="#FFF000"/>
<path d="M312.444 139.849C331.266 150.09 349.305 147.936 367.209 139.341C368.792 147.122 367.304 151.156 360.485 154.126C346.685 160.13 332.799 159.564 319.422 152.827C314.114 150.157 312.934 147.354 312.444 139.849Z" fill="#E5C209"/>
<path d="M52.5848 55.8548C71.2558 36.6591 92.1055 20.1911 116.815 8.76544C120.499 7.06385 124.565 6.14206 128.453 4.86078C127.039 5.87254 125.723 7.06387 124.192 7.8653C81.9993 30.0299 49.6713 61.9585 25.6239 101.984C18.3957 114.013 13.2643 126.907 10.6141 140.678C5.48338 167.346 15.7863 189.141 40.1281 202.498C51.3047 208.628 63.2439 212.491 76.1078 213.854C95.3781 215.891 113.812 212.356 131.945 206.621C157.001 198.697 180.328 187.061 202.569 173.608C212.777 167.431 222.49 165.674 234.083 167.963C253.414 171.78 271.635 177.743 287.333 189.682C290.731 192.266 293.754 195.322 297.141 198.33C295.665 200.409 294.575 201.762 293.684 203.231C289.093 210.786 283.594 217.99 280.193 226.026C272.583 244.009 270.457 262.818 272.741 282.307C276.843 317.347 299.704 344.106 335.196 350.881C387.896 360.939 434.541 349.244 472.26 310.403C489.163 292.999 501.833 272.822 512.323 251.33C516.981 241.794 521.409 232.099 525.086 222.177C529.097 211.357 526.785 201.152 518.654 192.725C512.821 186.676 506.823 180.611 500.082 175.585C481.16 161.48 462.116 147.492 442.578 134.209C389.396 98.0539 334.279 64.9894 275.495 37.9799C245.912 24.3878 215.712 12.3337 183.496 5.88953C169.021 2.99328 154.414 0.596157 139.533 3.14374C141.936 0.133414 145.454 0.459706 148.786 0.257568C172.481 -1.18342 195.237 3.59666 217.664 10.2786C258.282 22.383 296.284 40.273 333.469 59.9496C336.15 61.3674 338.878 62.7053 340.875 63.721C346.191 61.2005 350.49 58.8087 355.056 57.0815C364.078 53.6669 373.337 53.4084 382.425 56.834C387.159 58.6198 391.543 62.4548 396.263 62.7539C401.095 63.0601 406.059 59.8316 411.103 58.746C439.263 52.6765 463.714 58.9178 482.783 80.5723C500.916 101.165 503.019 131.053 487.526 152.898C486.661 154.118 485.958 155.448 485.072 156.902C486.539 158.223 487.805 159.464 489.18 160.58C498.342 168.009 507.562 175.366 516.687 182.838C526.959 191.249 532.176 201.941 532.965 215.066C533.766 228.382 534.824 241.739 536.891 254.913C539.071 268.783 536.406 281.405 529.827 293.583C528.145 296.701 526.749 299.965 525.272 303.185C514.544 326.574 501.308 348.421 483.312 367.322C463.647 387.976 440.344 402.937 411.851 409.349C389.623 414.35 367.085 415.245 344.611 411.354C319.029 406.924 297.816 395.339 283.428 373.563C282.781 372.583 281.769 371.83 280.78 370.822C264.808 378.509 251.843 389.131 240.967 402.227C232.401 412.54 225.922 423.937 222.567 436.879C218.629 452.074 219.911 466.702 227.19 480.971C229.894 481.213 232.515 481.421 235.091 481.642L231.781 489.517C229.064 489.297 226.364 489.074 223.665 488.839C203.029 487.043 182.793 484.145 163 480.03V471.808C171.246 473.288 179.62 474.734 188.13 476.21C189.258 476.404 190.488 476.042 191.63 475.941C186.862 414.5 211.245 371.472 272.624 351.415C271.571 345.117 270.344 339.201 269.63 333.229C268.102 320.473 266.981 307.67 265.431 294.917C263.202 276.57 262.19 258.281 266.667 240.086C266.895 239.16 266.697 238.135 266.697 236.173C256.608 232.554 246.359 229.131 236.332 225.17C231.229 223.153 227.316 223.758 222.726 226.745C200.914 240.932 178.174 253.52 153.581 262.7C131.806 270.827 109.449 275.827 85.9171 274.18C66.2929 272.803 48.3659 266.685 32.5845 255.238C17.6194 244.386 9.46798 229.736 7.92935 211.609C7.29003 204.08 6.42524 196.568 5.57992 189.057C4.50985 179.547 3.11006 170.067 2.29484 160.537C0.882172 144.04 5.1885 128.532 11.9401 113.605C21.7539 91.9006 35.9001 73.0051 52.5848 55.8548ZM276.539 319.823C277.101 325.743 277.343 329.749 277.885 333.719C283.361 373.798 308.4 397.594 343.962 404.395C359.126 407.295 374.281 407.269 389.618 405.796C417.571 403.11 442.26 393.231 463.755 375.72C474.746 366.762 484.173 356.424 492.651 345.224C508.273 324.58 519.27 301.519 529.689 278.174C532.298 272.328 533.138 266.199 532.042 259.715C530.907 253.025 530.587 246.208 529.827 239.454C529.658 237.944 529.142 236.475 528.379 233.303C525.281 239.646 522.845 244.324 520.677 249.113C509.857 273.001 496.476 295.315 478.163 314.606C458.735 335.07 435.709 350.004 407.573 356.515C384.623 361.826 361.346 362.777 338.109 358.528C314.016 354.121 293.82 343.219 279.634 323.157C279.097 322.396 278.357 321.768 276.539 319.823ZM13.1299 190.922C13.7108 197.737 14.2778 203.904 14.7566 210.078C16.0143 226.327 23.1819 239.505 36.539 249.392C47.0182 257.147 58.8179 262.258 71.6693 264.92C89.8218 268.682 107.803 267.112 125.585 262.558C158.329 254.164 187.423 238.116 216.345 221.692C219.36 219.978 219.799 217.777 219.493 214.752C218.863 208.491 218.539 202.196 218.032 195.92C217.513 189.483 216.923 183.052 216.273 175.53C213.024 177.363 210.678 178.764 208.262 180.037C192.322 188.447 176.678 197.464 160.336 205.06C139.861 214.571 118.235 220.866 95.3064 221.684C64.5941 222.785 37.3979 214.676 15.7415 192.438C15.2627 191.948 14.5102 191.708 13.1299 190.922ZM287.636 197.589C267.679 186.994 247.242 176.609 223.311 170.744C224.526 187.511 225.658 203.123 226.737 218.053C241.947 221.56 255.926 224.783 269.151 227.83C275.246 217.861 281.15 208.201 287.636 197.589ZM217.335 480.062C216.898 477.877 216.836 476.642 216.403 475.543C209.057 456.938 211.521 438.903 220.377 421.549C231.9 398.964 249.613 382.182 272.791 370.833C274.999 369.751 277.205 368.672 279.534 367.534C278.301 364.671 277.446 362.579 276.5 360.524C275.601 358.559 274.609 356.632 273.69 354.757C214.34 375.017 189.254 437.653 200.979 478.201C206.084 478.781 211.38 479.381 217.335 480.062ZM410.49 104.981C427.995 116.817 444.818 128.194 462.12 139.893C465.74 130.563 467.831 122.06 467.316 113.145C466.713 102.739 462.349 94.1412 453.021 88.5829C439.538 80.5431 424.534 79.1876 408.615 79.2596C410.744 88.0364 416.092 95.9016 410.49 104.981ZM482.497 155.403C484.062 152.13 485.365 149.958 486.164 147.622C487.713 143.093 489.339 138.542 490.299 133.876C495.144 110.344 485.657 88.1202 465.155 74.7281C453.707 67.2512 440.966 63.2583 427.238 62.4921C417.479 61.9495 407.691 61.8929 397.337 65.2965C399.617 68.1535 401.714 70.3078 403.231 72.7969C405.38 76.3267 407.97 77.1556 412.235 76.5955C422.281 75.269 432.396 75.393 442.396 77.577C467.122 82.9784 479.85 102.074 474.397 126.141C473.015 132.233 470.655 138.116 468.525 144.787C472.635 147.91 477.05 151.264 482.497 155.403ZM407.771 103.071C410.852 94.1116 404.152 81.6828 391.493 71.9156C376.702 60.5064 358.409 57.9375 345.151 65.7845C365.999 78.1955 386.622 90.4767 407.771 103.071Z" fill="black"/>
</svg>
