<svg width="287" height="101" viewBox="0 0 287 101" fill="none" xmlns="http://www.w3.org/2000/svg" style="position:relative;width:287px;height:101px">
<path d="M1 37.4685C3.00389 34.8218 5.00779 32.6438 7.20617 30.7173C1.35506 42.6837 1.42746 54.6961 6.38575 66.603C11.0679 77.8467 19.2065 81.9784 31.0047 79.9309C23.6377 86.7708 13.3577 86.3423 6.69109 78.7652C4.7273 76.5332 3.17225 73.9415 1.21494 71.2573C1 59.9789 1 48.958 1 37.4685Z" fill="#38203E"/>
<path d="M31.2367 79.6919C19.2065 81.9785 11.0679 77.8468 6.38572 66.603C1.42743 54.6962 1.35503 42.6837 7.54813 30.6075C7.69564 30.2461 7.40956 29.8624 7.56726 29.9956C8.00437 29.7455 8.28378 29.3622 8.56319 28.9789C12.7503 24.2752 17.5925 20.4138 23.9775 19.5763C26.9759 19.183 30.4763 19.3753 33.1307 20.6207C35.2826 21.6302 37.5638 24.4954 37.8093 26.7528C38.0009 28.5135 35.1522 30.6049 32.9824 32.6228C22.8464 29.3784 18.3221 31.9299 15.5669 42.3058C15.109 46.0402 14.8724 49.4828 14.5838 53.351C15.2086 56.4834 15.5011 59.3679 16.651 61.8561C18.4439 65.7359 20.5054 69.7634 26.3227 68.9939C26.818 68.6838 26.9995 68.3784 27.163 68.3136C27.1452 68.5541 27.6262 68.5902 27.9267 68.4258C33.9411 62.5689 33.1982 55.608 32.8786 48.3839C29.9509 48.7087 27.822 48.9899 25.6846 49.1734C19.6769 49.689 18.115 48.2861 17.8588 41.7436C19.4744 40.2517 20.7679 38.6329 22.4245 38.0546C25.1521 37.1025 28.1148 36.824 30.9784 36.2615C41.0489 37.3712 42.8592 39.3136 44.9337 52.0285C43.8938 58.1186 42.834 63.3932 41.7743 68.6677C38.3391 72.2628 34.9039 75.8578 31.2367 79.6919Z" fill="#FA8002"/>
<path d="M97.9549 66.8859C98.1607 70.85 99.5179 75.308 93.0787 76.6574C90.8827 74.665 88.5218 72.9336 87.9625 70.7424C85.5915 61.4537 85.4899 52.1091 89.1115 42.9968C96.0116 35.3418 100.649 35.2579 108.137 42.6685C108.396 42.5284 108.774 42.4536 108.907 42.2319C111.596 37.7296 114.841 33.8381 120.764 35.0547C127.745 36.4888 130.524 41.895 132.131 48.9872C131.958 56.0757 131.687 62.3885 131.416 68.7014C130.581 72.1573 130.477 76.1149 125.073 76.8863C120.482 75.448 119.971 72.5305 120.431 68.8391C121.144 63.1045 121.743 57.3335 121.891 51.5651C121.932 49.9971 120.182 48.383 119.254 46.79C118.069 48.129 116.885 49.4681 115.7 50.8071C115.114 53.8663 114.348 56.9046 113.991 59.9902C113.609 63.2904 112.509 65.7445 108.136 66.2174C103.875 65.1577 103.451 62.3246 102.952 59.2425C102.394 55.7851 101.265 52.4199 100.385 49.0146C99.7738 49.1349 99.1629 49.2551 98.552 49.3754C95.8149 55.051 96.7422 60.9594 97.9549 66.8859Z" fill="#F98002"/>
<path d="M82.764 73.7528C81.4394 74.3521 80.1147 74.9513 78.1855 75.5256C75.5675 73.7766 73.5541 72.0526 71.18 70.0199C70.035 71.0631 68.4915 72.4696 66.9479 73.876C65.7991 74.3273 64.6504 74.7786 62.8386 75.4781C55.4877 76.1332 51.5287 73.7383 48.7168 67.8351C45.2667 60.5922 47.5682 53.9345 50.5754 47.3104C50.5754 47.3104 50.3848 46.9556 50.568 47.0596C51.0227 46.7697 51.2941 46.3758 51.5655 45.9819C57.1685 39.4189 63.4664 34.4944 72.9086 36.7178C73.6202 36.8853 74.4976 36.5718 75.246 36.3248C81.7677 34.1722 84.4825 36.2844 84.032 43.2124C83.9678 44.1988 83.8276 45.1803 83.5439 46.9455C83.489 54.5201 83.6891 61.3133 83.6876 68.1065C83.6872 69.9887 83.0883 71.8707 82.764 73.7528ZM61.9375 62.1059C61.9375 62.1059 62.0183 62.2743 62.7057 62.121C64.6137 59.6626 66.9373 57.4116 68.2994 54.6809C69.4047 52.4652 69.3553 49.6735 69.818 47.1372C67.2857 48.2597 64.7516 49.3782 62.227 50.5175C62.1155 50.5677 62.0896 50.8074 61.4273 51.3502C60.25 54.2283 58.7981 57.0322 57.9937 60.0111C57.4747 61.9334 58.2088 63.7963 61.5652 62.912C61.7437 62.6129 61.9221 62.3138 61.9375 62.1059Z" fill="#FA8002"/>
<path d="M234.921 53.9319C235.547 58.4568 235.922 63.0361 236.888 67.4872C237.531 70.4507 239.36 71.4867 242.354 69.3271C243.664 68.3819 245.701 68.4446 248.012 68.3383C249.465 70.0773 250.314 71.5278 251.164 72.9783C248.927 75.5552 246.69 78.1321 243.908 80.9436C243.203 81.4501 243.042 81.7219 242.881 81.9938C242.881 81.9938 243.14 81.8608 242.644 81.7217C237.639 82.6058 233.433 81.369 231.047 77.7313C228.397 73.6932 226.363 69.0262 225.125 64.3513C223.927 59.8234 224.08 54.9375 223.63 50.1057C218.799 50.5225 215.806 48.9636 215.653 43.9581C216.904 42.6232 218.154 41.2882 220.12 39.8176C223.872 39.8576 225.103 38.6104 225.154 35.3961C225.232 30.5127 225.882 25.6385 226.289 20.7604C227.666 17.8894 229.423 15.4158 233.12 16.538C236.956 17.7025 237.245 20.7785 236.858 24.1998C236.323 28.9325 235.962 33.6848 235.477 38.9678C238.399 38.9678 240.844 38.4605 242.932 39.1061C245.153 39.7931 248.059 41.1353 248.843 42.9705C250.212 46.1728 248.235 48.6678 243.912 49.5562C241.521 49.6885 239.878 49.8345 238.25 49.7309C235.029 49.5258 234.177 51.0631 234.921 53.9319Z" fill="#F97F02"/>
<path d="M193.27 10.0822C194.977 7.10256 197.295 4.95101 200.911 6.36948C204.876 7.92525 204.477 11.3571 203.937 14.8065C201.717 28.9953 199.587 43.1981 197.437 58.2017C198.678 65.6894 199.907 72.3711 201.136 79.0528C203.222 81.0347 205.41 82.9219 207.363 85.0274C209.036 86.8309 211.644 88.9076 211.608 90.821C211.574 92.5943 208.585 94.3113 206.178 96.0419C203.943 95.4285 202.429 94.8263 200.9 93.8473C199.318 88.8441 197.05 85.0266 191.23 84.8577C186.793 74.5304 185.416 63.9867 186.727 53.3239C188.504 38.8603 191.052 24.4916 193.27 10.0822Z" fill="#F98002"/>
<path d="M139.573 40.9799C148.607 32.0901 155.379 31.4558 163.793 39.276C167.591 45.1413 165.734 49.9973 162.516 54.9177C157.718 57.7498 153.223 60.4205 148.727 63.0912C148.772 63.6579 148.816 64.2246 148.86 64.7913C150.752 64.7913 152.646 64.8193 154.538 64.7844C156.989 64.7392 159.438 64.6439 162.033 64.8911C162.242 67.4336 162.306 69.6552 162.371 71.8767C160.467 73.0982 158.564 74.3196 156.018 75.7927C148.018 77.4179 141.922 74.2598 138.386 67.0789C134.473 59.1294 134.667 51.0829 138.113 43.0243C138.113 43.0243 138.029 42.9972 138.31 42.8731C138.918 42.1593 139.245 41.5696 139.573 40.9799ZM156.387 44.024C153.813 41.4273 151.459 42.7252 149.497 44.7253C148.827 45.4083 148.528 47.6566 148.982 48.0124C150.252 49.0076 152.691 50.3409 153.423 49.813C154.968 48.6987 155.72 46.4838 156.387 44.024Z" fill="#F98002"/>
<path d="M185.076 12.0221C184.944 13.1865 184.5 14.5 184.162 15.8965C183 20.5 183.416 18.4685 183 21C182.771 22.4475 182.627 23.9265 182.033 25.7855C181.712 26.7978 181.757 27.3986 181.803 27.9994C181.336 30.7816 180.869 33.5637 179.938 36.7877C176.967 38.6496 176.706 39.9284 179.712 41.002C179.547 42.4406 179.382 43.8792 178.809 45.7702C175.957 47.6843 175.782 48.966 178.701 50.0022C178.714 55.7136 178.726 61.425 178.391 67.6745C177.535 69.4505 176.359 70.8711 176.638 71.8937C177.666 75.6547 178.976 79.3735 180.57 82.934C181.859 85.8142 184.227 86.5717 187.39 84.8269C188.513 85.3911 189.33 85.9162 190.087 86.8371C188.685 90.0887 187.342 92.9445 185.678 95.8141C184.209 95.2931 183.063 94.7584 181.901 93.8474C180.551 88.8404 178.345 85.4725 173 85C172.893 84.979 172.552 84.7476 172.706 84.412C173.367 82.1783 174.849 79.7481 170.569 80.044C169.667 76.8413 169.012 73.9223 168.632 70.9221C172.02 68.7921 169.888 67.9281 167.923 66.6013C168.214 57.8017 168.621 49.4007 169.353 40.9075C172.726 39.102 172.053 37.5111 169.525 35.5415C170.577 29.6956 171.624 24.2895 173.014 18.7777C174 13.5 173.5 15.5 174.191 11.6803C174.205 10.9349 174.237 10.5093 174.269 10.0838C175.891 7.27048 177.967 5.30967 181.846 6.80392C183.113 8.94887 184.094 10.4855 185.076 12.0221Z" fill="#F98002"/>
<path d="M256.539 48.0071C260.447 45.6825 264.095 42.3649 268.323 41.2557C275.457 39.384 281.889 43.1256 284.807 49.3421C288.168 56.5018 286.671 64.7683 280.9 69.8518C279.308 71.2545 277.316 72.2035 274.803 73.6348C261.303 75.7404 252.656 69.3758 253.217 58.2143C253.369 55.1804 254.729 52.2071 255.534 49.206C255.534 49.206 255.31 48.9017 255.511 49.0232C255.987 48.7655 256.263 48.3863 256.539 48.0071ZM271.662 63.5785C275.251 61.8816 276.984 58.9004 275.98 55.1912C275.533 53.5375 273.477 51.6762 271.767 51.1438C268.439 50.1077 265.714 51.6418 263.785 55.5657C262.458 61.8668 264.63 64.3232 271.662 63.5785Z" fill="#FA8002"/>
<path d="M181.917 94.2238C183.063 94.7585 184.209 95.2933 185.974 95.9189C186.793 96.0725 186.993 96.1351 187.193 96.1977C185.394 100.459 182.088 100.547 178.478 99.1266C171.412 96.3464 167.534 90.649 165.285 83.7599C164.103 80.136 163.47 76.3326 162.48 72.2435C162.306 69.6551 162.242 67.4336 162.061 64.4242C162.236 60.6763 162.527 57.7163 162.819 54.7563C165.734 49.9972 167.591 45.1412 164.094 39.4459C165.611 31.6356 166.967 24.1135 168.977 16.77C169.636 14.3602 171.988 12.4134 173.918 10.1694C174.237 10.5095 174.205 10.935 174.063 12.0492C173.525 14.7864 173.098 16.835 172.671 18.8836C171.624 24.2897 170.577 29.6958 169.388 35.877C169.174 38.1013 169.101 39.5507 169.028 41C168.621 49.4009 168.214 57.8018 167.869 67.0035C168.073 68.8706 168.215 69.937 168.357 71.0034C169.012 73.9224 169.667 76.8414 170.594 80.3878C171.428 82.2594 171.99 83.5036 172.552 84.7478C172.552 84.7478 172.604 84.9593 172.788 85.3253C175.954 88.5355 178.935 91.3797 181.917 94.2238Z" fill="#39203E"/>
<path d="M190.147 86.4414C189.33 85.9163 188.513 85.3913 187.193 84.5808C185.428 82.9552 184.167 81.6151 182.825 79.9631C182.442 79.089 182.141 78.5267 181.892 78.0326C181.944 78.1007 181.814 78.2134 181.814 78.2134C180.217 60.0598 182.455 42.2038 186.024 24.4569C186.612 21.5343 187.02 18.4901 188.191 15.798C189.1 13.7105 191.069 12.0846 192.918 10.168C191.052 24.4918 188.504 38.8606 186.727 53.3241C185.416 63.9869 186.793 74.5307 190.957 85.0895C190.557 86.038 190.329 86.4239 190.084 86.8355C190.068 86.8613 190.085 86.9197 190.22 86.8157C190.355 86.7116 190.147 86.4414 190.147 86.4414Z" fill="#39213E"/>
<path d="M203.895 45.9309C206.909 40.9404 208.769 40.4985 213.813 44.2053C214.189 47.829 214.21 50.906 214.231 53.983C213.822 58.8593 213.314 63.73 213.036 68.6138C212.839 72.0977 211.757 74.67 207.16 75.1225C202.404 73.7338 202.214 70.4497 202.431 67.0434C202.878 60.0033 203.403 52.9681 203.895 45.9309Z" fill="#FA8002"/>
<path d="M214.62 54.0039C214.21 50.9064 214.189 47.8294 214.146 44.3922C214.464 44.0266 214.804 44.021 215.399 43.9868C215.806 48.9637 218.799 50.5226 223.63 50.1058C224.08 54.9376 223.927 59.8235 225.125 64.3514C226.363 69.0263 228.397 73.6932 231.047 77.7313C233.433 81.369 237.64 82.6058 242.578 81.5925C235.749 88.4567 227.478 87.1222 222.985 77.3322C220.507 71.9322 220.084 65.5368 219.091 59.5312C218.638 56.7897 218.862 54.0391 214.62 54.0039Z" fill="#371F3F"/>
<path d="M137.781 43.1035C134.667 51.0829 134.473 59.1293 138.387 67.0788C141.922 74.2598 148.018 77.4178 155.778 76.0233C149.376 82.8599 141.166 82.1359 135.15 74.102C133.972 72.529 132.969 70.8245 131.651 68.9411C131.687 62.3888 131.958 56.0759 132.248 49.3481C133.995 47.0164 135.722 45.0996 137.781 43.1035Z" fill="#3B213D"/>
<path d="M255.195 49.3389C254.729 52.2071 253.369 55.1803 253.217 58.2142C252.656 69.3758 261.303 75.7404 274.565 73.8669C268.474 80.3904 260.283 80.2343 251.43 73.179C250.314 71.5276 249.465 70.0771 248.441 68.3774C247.775 60.9601 248.05 54.0624 255.195 49.3389Z" fill="#38203E"/>
<path d="M50.2395 47.4087C47.5683 53.9345 45.2667 60.5922 48.7168 67.8351C51.5288 73.7383 55.4878 76.1333 62.5972 75.6707C57.8015 81.4573 50.9608 81.4695 46.1786 75.4959C44.6476 73.5834 43.5316 71.3387 42 68.957C42.8341 63.3933 43.8938 58.1188 45.0246 52.4203C46.6983 50.4999 48.301 49.0034 50.2395 47.4087Z" fill="#39203E"/>
<path d="M115.845 51.2099C116.885 49.4681 118.069 48.1291 119.254 46.79C120.182 48.383 121.932 49.9971 121.891 51.5652C121.743 57.3336 121.144 63.1045 120.431 68.8392C119.971 72.5305 120.482 75.4481 124.72 76.9805C122.959 78.2031 120.851 79.3063 118.743 80.4094C117.645 78.0423 115.695 75.7061 115.608 73.3022C115.346 66.0866 115.81 58.8445 115.845 51.2099Z" fill="#371F3F"/>
<path d="M82.8213 74.1401C83.0883 71.8705 83.6872 69.9885 83.6876 68.1063C83.6891 61.3131 83.489 54.5199 83.5456 47.3951C85.3036 45.7749 86.8809 44.4862 88.7848 43.0972C85.4899 52.1091 85.5914 61.4537 87.9624 70.7425C88.5218 72.9337 90.8826 74.6651 92.7303 76.771C91.3016 78.1186 88.7828 80.6793 87.9644 80.2187C85.8661 79.0377 84.5234 76.5143 82.8213 74.1401Z" fill="#3E233D"/>
<path d="M203.536 46.0005C203.403 52.9683 202.878 60.0035 202.431 67.0436C202.214 70.4499 202.404 73.734 206.788 75.2009C205.389 76.5578 203.628 77.7815 201.501 79.0291C199.907 72.3713 198.678 65.6896 197.552 58.6115C198.114 56.1637 198.246 53.959 199.117 52.1006C200.133 49.9324 201.795 48.0668 203.536 46.0005Z" fill="#39213D"/>
<path d="M98.21 67.1482C96.7422 60.9595 95.8149 55.0511 98.552 49.3755C99.1629 49.2552 99.7738 49.1349 100.385 49.0146C101.265 52.42 102.394 55.7852 102.952 59.2425C103.451 62.3247 103.875 65.1578 107.767 66.3164C105.511 70.9856 103 71.2307 98.21 67.1482Z" fill="#3B223F"/>
<path d="M206.663 30.0371C208.874 28.7481 210.983 26.8616 213.346 26.4555C214.33 26.2864 217.131 29.5644 216.856 30.7563C216.37 32.863 214.162 34.5726 212.055 36.4561C207.926 35.7455 206.563 33.4344 206.663 30.0371Z" fill="#F98002"/>
<path d="M31.1106 36.0139C28.1149 36.824 25.1522 37.1026 22.4246 38.0547C20.7679 38.6329 19.4744 40.2517 17.5407 41.7308C16.6384 42.0437 16.2133 42.0289 15.7882 42.0141C18.3221 31.93 22.8465 29.3785 32.6818 32.7973C32.4498 33.8542 31.8462 34.8102 31.1106 36.0139Z" fill="#462848"/>
<path d="M225.904 20.8511C225.882 25.6386 225.232 30.5129 225.154 35.3962C225.103 38.6105 223.872 39.8577 220.447 39.6723C220.436 35.3987 220.405 31.0403 221.357 26.9088C221.863 24.7165 224.076 22.918 225.904 20.8511Z" fill="#371F3F"/>
<path d="M200.915 94.2244C202.429 94.8266 203.943 95.4287 205.818 96.1134C204.031 101.004 200.366 100.432 196.582 98.7273C194.791 97.9204 193.223 96.62 191.479 95.0198C192.159 92.7703 192.914 91.0441 193.636 89.3931C196.055 90.9985 198.485 92.6115 200.915 94.2244Z" fill="#38203E"/>
<path d="M190.522 85.4204L193.191 89.4999C192.444 91.1186 191.661 92.8139 190.699 94.801C189.383 95.4233 188.253 95.7409 186.784 96.1281C186.234 96.135 186.023 96.0723 185.5 95.905C186.603 92.9445 188.019 90.0887 189.498 86.837C189.561 86.4412 189.78 86.7114 189.796 86.7962C189.964 86.8743 190.115 86.8674 190.266 86.8606C190.015 86.8436 189.763 86.8265 189.511 86.8095C189.752 86.4237 189.993 86.0378 190.522 85.4204Z" fill="#F98002"/>
<path d="M191.282 85.0279C197.6 84.6341 199.991 88.4516 201.659 93.4549C199.113 92.2187 196.551 90.6058 194 89.0003C193.983 89.036 193.967 89.0717 193.951 89.1074L191.282 85.0279Z" fill="#F98002"/>
<path d="M183.358 80.4608C184.829 81.8329 186.299 83.2051 188 84.8293C184.899 86.9081 182.137 86.1325 180.634 83.1835C178.776 79.538 177.248 75.7304 176.049 71.8796C175.723 70.8326 177.095 69.378 178.047 68C179.415 71.2066 180.425 74.5237 181.76 78.0954C182.085 78.35 182.237 78.2346 182.174 78.5082C182.527 79.3414 182.942 79.9011 183.358 80.4608Z" fill="#F98002"/>
<path d="M67.1621 74.1455C68.4915 72.4697 70.035 71.0633 71.18 70.02C73.5541 72.0528 75.5675 73.7767 77.9006 75.66C74.524 81.3149 71.7786 80.9593 67.1621 74.1455Z" fill="#37203F"/>
<path d="M206.334 30.1377C206.563 33.4348 207.926 35.7459 211.748 36.6207C209.838 37.7514 207.669 39.1972 205.362 39.4667C204.448 39.5736 202.125 36.7797 202.377 35.8118C202.909 33.7768 204.72 32.0759 206.334 30.1377Z" fill="#351E3F"/>
<path d="M235.322 53.9261C234.177 51.0629 235.029 49.5255 238.251 49.7306C239.878 49.8342 241.522 49.6882 243.613 49.7397C241.286 51.1897 238.505 52.5551 235.322 53.9261Z" fill="#341E42"/>
<path d="M185 12C183.935 10.6661 182.968 9.03835 182 7C183.032 8.29499 184.065 10.0006 185 12Z" fill="#F98002"/>
<path d="M181.404 6.79988C184.05 7.45719 185.696 9.10634 184.955 12.1152C183.748 10.6522 182.65 8.94173 181.404 6.79988Z" fill="#F98002"/>
<path d="M179.604 41C176.458 40.2842 177.091 38.0938 179.923 36.5C180 37.5 179.756 39.4773 179.604 41Z" fill="#F98002"/>
<path d="M178.749 50.0639C174.888 48.8499 175.256 47.0694 178.978 45.1402C179.217 46.5179 179.073 48.0225 178.749 50.0639Z" fill="#F98002"/>
<path d="M181.902 27.6772C181.757 27.3988 181.712 26.798 181.851 26.1045C182.024 26.4595 182.013 26.9071 181.902 27.6772Z" fill="#F98002"/>
<path d="M139.339 41.2144C139.245 41.5693 138.918 42.159 138.296 42.9145C138.37 42.5366 138.737 41.9928 139.339 41.2144Z" fill="#3B213D"/>
<path d="M8.29977 29.1646C8.28385 29.3621 8.00444 29.7454 7.36792 30.1278C7.35264 29.868 7.69446 29.6091 8.29977 29.1646Z" fill="#38203E"/>
<path d="M243.046 81.8438C243.042 81.7217 243.203 81.4499 243.638 81.1616C243.674 81.3226 243.44 81.5055 243.046 81.8438Z" fill="#371F3F"/>
<path d="M256.282 48.1938C256.263 48.3866 255.987 48.7658 255.359 49.1355C255.346 48.8774 255.686 48.6288 256.282 48.1938Z" fill="#38203E"/>
<path d="M51.2995 46.1631C51.2941 46.3759 51.0227 46.7698 50.3906 47.1549C50.3644 46.8787 50.6989 46.6115 51.2995 46.1631Z" fill="#39203E"/>
<path d="M27.9267 68.4257C27.7474 64.8347 27.8169 61.0767 28.0052 57.3246C28.1686 54.0695 27.1677 52.3608 23.4719 52.8603C20.887 53.2097 18.2226 52.9719 15.1148 52.9608C14.8725 49.4827 15.1091 46.0401 15.5669 42.3057C16.2134 42.0287 16.6385 42.0436 17.3818 42.0713C18.1151 48.2861 19.677 49.689 25.6847 49.1733C27.8221 48.9899 29.951 48.7087 32.8787 48.3839C33.1982 55.608 33.9412 62.5689 27.9267 68.4257Z" fill="#39213D"/>
<path d="M26.3227 68.9938C26.2457 68.7646 26.4967 68.5467 26.9713 68.209C26.9995 68.3783 26.8181 68.6837 26.3227 68.9938Z" fill="#39213D"/>
<path d="M62.0239 50.9588C62.0897 50.8074 62.1156 50.5677 62.227 50.5174C64.7517 49.3782 67.2858 48.2596 69.8181 47.1372C69.3554 49.6734 69.4048 52.4651 68.2995 54.6809C66.9374 57.4115 64.6138 59.6626 62.4563 61.8412C63.0879 59.6194 64.0381 57.7053 64.8331 55.7287C65.9327 52.995 65.1929 51.2335 62.0239 50.9588Z" fill="#42253C"/>
<path d="M61.2807 62.9397C61.2304 62.7423 61.4735 62.5272 61.9131 62.1685C61.9221 62.3138 61.7436 62.6129 61.2807 62.9397Z" fill="#42253C"/>
<path d="M182 94C179.036 91.3873 176.057 88.3763 173 85C178.157 85.1127 180.651 88.6992 182 94Z" fill="#F98002"/>
<path d="M169.354 40.9078C169.101 39.5508 169.144 37.2846 169.354 35.5C172.023 36.6945 172.726 39.1022 169.354 40.9078Z" fill="#F98002"/>
<path d="M172.706 84.4122C171.99 83.5037 171.088 81.5881 170.5 80.0002C174.508 79.077 174 82.5 172.706 84.4122Z" fill="#F98002"/>
<path d="M168.5 72C168.083 71.0148 168.088 67.4684 168 66C169.903 66.526 171.889 69.87 168.5 72Z" fill="#F98002"/>
<path d="M264.184 54.9199C265.714 51.6422 268.439 50.108 271.767 51.1441C273.477 51.6765 275.533 53.5378 275.98 55.1916C276.984 58.9007 275.251 61.8819 271.334 63.2412C271.514 57.8647 269.513 54.9706 264.184 54.9199Z" fill="#39213E"/>
<path d="M182.825 79.9632C182.549 79.7284 182.193 79.1817 181.838 78.2998C182.141 78.5268 182.442 79.0891 182.825 79.9632Z" fill="#4E2E5F"/>
<path d="M190.084 86.8354C190.339 86.8266 190.578 86.8437 190.816 86.8607C190.673 86.8675 190.529 86.8743 190.236 86.9004C190.085 86.9196 190.068 86.8612 190.084 86.8354Z" fill="#F98002"/>
</svg>
