<svg width="763" height="1215" viewBox="0 0 763 1215" fill="none" xmlns="http://www.w3.org/2000/svg">
<path d="M658.855 72.352C659.252 66.4011 659.3 62.0079 659.888 57.6702C660.928 50.0054 662.154 42.3544 663.603 34.7419C664.125 32.0013 665.341 29.3266 666.532 26.7248C672.839 12.9519 684.651 6.05217 701.485 5.94866C710.371 5.89456 719.138 7.1049 727.416 10.0872C745.504 16.6036 754.764 28.9667 757.526 45.49C759.921 59.81 756.923 73.5656 750.986 86.8173C740.619 109.959 723.835 128.533 698.938 141.073C698.245 141.423 697.562 141.799 696.915 142.212C696.601 142.413 696.378 142.726 696.74 142.366C688.921 224.15 674.384 304.094 644.779 382.685C643.6 380.973 642.863 380.246 642.549 379.4C632.261 351.618 620.514 324.329 606.455 297.83C605.005 295.098 605.729 292.784 606.708 290.241C614.599 269.74 621.313 248.95 626.697 227.832C632.26 206.013 636.554 184.024 637.761 161.659C638.599 146.127 636.801 130.746 633.154 115.551C631.4 108.251 627.662 101.636 623.026 95.3844C617.34 87.7157 611.708 80.0156 606.208 72.2455C604.744 70.1775 603.543 67.8822 602.757 65.5524C601.221 60.9987 603.137 57.3716 608.242 55.8564C611.595 54.8617 615.32 54.2934 618.848 54.3915C628.629 54.6634 637.898 56.9279 646.28 61.4568C649.806 63.3636 653.605 65.129 654.394 69.4118C654.557 70.2961 656.589 70.9165 658.855 72.352Z" fill="#FF8300"></path>
<path d="M0 175.393C0.745102 173.045 1.5442 170.708 2.22295 168.344C3.29774 164.6 3.97279 160.745 5.36903 157.099C14.8604 132.316 37.8984 120.695 67.1292 123.012C71.3113 123.344 75.5248 123.949 79.5726 124.913C93.3261 128.185 102.793 135.654 107.599 147.512C110.865 155.569 111.895 163.927 112.105 172.4C112.172 175.162 112.115 177.928 112.115 181.42C114.421 180.287 115.918 179.53 117.435 178.81C129.669 172.988 142.563 170.427 156.346 173.316C163.938 174.908 168.571 179.135 168.506 184.745C168.47 187.981 167.529 191.425 166.005 194.387C163.291 199.661 159.879 204.666 156.657 209.734C154.997 212.344 153.259 214.932 151.312 217.382C141.714 229.452 138.14 243.144 136.23 257.495C133.21 280.184 136.376 302.46 141.449 324.57C153.438 376.833 172.12 427.22 197.979 475.525C200.159 479.596 202.586 483.566 205.375 488.408C209.384 483.152 212.787 478.831 216.026 474.418C224.196 463.287 231.27 451.669 235.96 439.037C242.749 420.756 243.571 401.985 240.368 383.212C236.573 360.976 231.807 338.864 227.221 316.737C222.466 293.8 220.047 270.726 221.941 247.447C224.345 217.878 233.694 190.335 255.57 167.044C278.788 142.321 308.303 126.67 344.75 121.905C370.559 118.531 395.616 122.013 420.033 129.502C452.939 139.593 481.576 155.915 507.671 175.891C533.775 195.873 555.206 219.257 573.007 245.202C580.344 255.896 586.987 266.954 593.941 277.849C594.904 279.357 595.843 280.876 597.21 283.054C598.083 281.468 598.771 280.514 599.159 279.474C611.11 247.336 621.028 214.763 626.576 181.258C629.768 161.981 629.846 142.742 625.931 123.504C624.112 114.56 620.719 106.23 615.334 98.4504C610.029 90.7839 604.903 83.0181 599.912 75.1911C598.263 72.6066 596.914 69.7808 596.066 66.9204C593.836 59.3981 597.408 53.7026 605.804 51.1231C613.024 48.9065 620.467 49.203 627.854 50.2694C635.46 51.3666 642.607 53.6341 649.012 57.5004C649.638 57.8776 650.381 58.1027 651.675 58.6588C651.82 56.7971 651.939 55.3125 652.05 53.8281C652.519 47.5216 652.5 41.1523 653.543 34.919C656.901 14.8699 669.335 4.06956 692.271 0.853553C701.488 -0.439775 710.726 -0.331523 719.802 1.64778C735.999 5.18009 747.636 13.7451 755.081 26.7505C760.783 36.7112 763.187 47.3979 762.989 58.4063C762.556 82.5132 753.49 103.862 735.034 121.944C726.486 130.32 716.38 136.999 704.524 141.281C699.857 142.966 698.473 145.166 698.256 149.434C694.645 220.107 683.134 289.723 660.904 357.838C657.212 369.15 652.72 380.269 648.339 391.399C647.235 394.211 647.033 396.708 647.996 399.547C661.556 439.547 671.636 480.231 678.547 521.499C685.754 564.543 689.58 607.819 688.278 651.347C687.082 691.361 682.346 731.022 669.251 769.546C664.739 782.82 658.582 795.667 653.156 808.703C652.546 810.168 651.803 811.591 651.046 813.193C652.081 813.758 652.862 814.309 653.748 814.653C675.251 822.974 686.03 838.238 689.75 857.813C693.627 878.218 689.958 898.084 683.251 917.656C675.149 941.301 661.109 961.973 642.695 980.562C620.477 1002.99 596.053 1023.26 568.055 1040.11C553.265 1049 537.723 1056.69 520.452 1061.33C510.403 1064.03 500.139 1065.88 489.577 1064.52C468.928 1061.87 454.13 1052.05 444.982 1035.73C439.969 1026.79 437.627 1017.19 436.358 1007.34C433.948 988.625 436.227 970.123 439.432 951.662C440.487 945.59 441.839 939.559 443.034 933.615C427.017 932.588 411.097 931.567 394.723 930.517C394.256 934.398 393.779 938.2 393.34 942.005C388.948 980.062 376.895 1016.1 356.059 1049.79C348.185 1062.52 338.884 1074.41 327.33 1084.83C325.005 1086.92 324.582 1088.74 325.614 1091.36C327.363 1095.81 328.797 1100.35 330.409 1104.98C337.384 1103.72 343.77 1102.24 350.264 1101.45C374.86 1098.44 395.998 1104.45 412.868 1120.7C423.16 1130.62 430.365 1142.18 434.839 1154.93C440.944 1172.33 435.012 1186.55 417.721 1196.63C413.732 1198.96 409.344 1200.79 405.034 1202.66C400.976 1204.42 400.915 1204.31 398.758 1208.13C397.068 1206.47 395.225 1205.91 392.628 1206.62C370.757 1212.56 348.215 1214.51 325.443 1214.91C318.815 1215.03 312.179 1214.88 305.55 1214.98C282.598 1215.34 236.735 1210.46 214.492 1205.47C211.486 1204.79 210.163 1203.21 208.926 1201.18C204.415 1193.8 201.981 1185.82 200.455 1177.64C197.294 1160.7 196.094 1143.58 200.208 1126.74C206.236 1102.06 217.11 1079.09 235.716 1059.4C242.303 1052.43 250.031 1046.57 259.275 1042.38C266.147 1039.27 273.361 1037.26 281.208 1037.45C292.153 1037.7 300.642 1041.36 305.15 1051.58C306.889 1049.72 308.294 1048.37 309.497 1046.9C322.687 1030.76 332.348 1013.03 340.416 994.575C349.48 973.84 356.148 952.497 361.521 930.827C361.894 929.314 362.099 927.769 362.469 925.771C360.322 925.29 358.452 924.819 356.555 924.452C315.035 916.401 275.714 903.506 239.717 883.458C192.413 857.114 155.917 822.378 133.35 777.107C116.233 742.769 109.739 706.834 112.906 669.474C115.752 635.904 126.118 604.151 142.494 573.84C144.562 570.015 144.299 567.283 141.895 563.724C125.442 539.345 114.256 513.001 104.92 486.02C92.965 451.474 84.6136 416.22 78.178 380.59C72.7797 350.704 69.0319 320.66 66.6186 290.485C65.9877 282.601 65.6889 274.697 65.2331 266.699C64.2564 266.16 63.489 265.6 62.6096 265.267C31.5106 253.546 13.322 232.388 4.55716 204.381C3.55242 201.17 3.06983 197.838 2.23366 194.584C1.57922 192.038 0.750871 189.527 0 187.001C0 183.131 0 179.263 0 175.393ZM218.164 514.177C216.033 512.552 213.442 511.153 211.739 509.169C206.708 503.307 201.707 497.4 197.856 490.84C192.169 481.148 186.001 471.647 180.851 461.741C158.86 419.45 143.694 375.251 134.024 329.618C128.957 305.713 125.911 281.67 128.86 257.238C130.793 241.217 135.021 226.167 146.182 212.94C151.181 207.014 155.423 200.585 159.739 194.243C161.249 192.028 162.378 189.466 162.93 186.936C163.821 182.852 161.962 180.18 157.561 178.557C155.745 177.889 153.722 177.46 151.756 177.321C138.627 176.39 126.704 179.416 115.963 186.03C113.646 187.457 111.774 189.123 111.075 191.8C110.809 192.817 108.785 193.483 106.819 194.811C106.522 192.352 106.308 191.003 106.204 189.648C105.733 183.51 105.493 177.354 104.793 171.236C103.809 162.633 101.905 154.181 97.4612 146.35C91.1962 135.305 81.0434 129.381 66.898 128.781C58.795 128.437 50.8268 129.152 43.07 131.215C25.7423 135.822 14.5884 145.781 9.655 161.057C7.15842 168.785 6.41785 176.715 7.66326 184.585C13.0521 218.646 32.1148 245.101 65.7342 263.266C67.0802 263.992 68.4117 264.742 69.3592 265.264C69.3592 267.417 69.1923 269.141 69.386 270.834C71.0802 285.701 72.6734 300.578 74.6128 315.42C79.8182 355.268 87.4567 394.764 97.8037 433.84C107.112 468.991 118.521 503.582 134.848 536.801C146.091 559.674 159.413 581.476 178.174 600.436C178.607 600.873 178.848 601.455 179.18 601.969C167.37 595.016 158.455 585.746 149.85 575.026C147.226 580.221 145.041 584.343 143.044 588.534C124.734 626.975 115.943 666.789 120.513 708.528C124.586 745.733 138.875 779.682 163.133 810.391C188.776 842.853 222.239 867.678 261.586 886.57C313.757 911.618 370.134 923.723 429.08 927.731C434.032 928.068 438.995 928.273 444.196 928.552C446.304 920.686 448.293 913.18 450.328 905.683C454.69 889.615 459.711 873.663 461.219 857.104C462.315 845.081 461.907 833.176 456.984 821.731C450.753 807.243 438.667 799.138 421.232 796.818C410.68 795.415 400.415 796.595 390.188 798.729C387.492 799.292 384.798 799.863 382.121 800.427C381.014 796.961 380.978 796.865 384.514 795.861C394.331 793.072 404.394 791.457 414.74 791.826C439.409 792.706 456.451 804.259 463.06 825.064C465.033 831.274 466.074 837.814 466.572 844.26C467.618 857.852 465.551 871.287 462.413 884.586C457.257 906.44 451.555 928.205 446.959 950.147C443.006 969.027 441.124 988.137 443.771 1007.37C445.127 1017.22 447.73 1026.74 453.25 1035.51C459.967 1046.18 469.914 1053.45 483.294 1056.89C489.464 1058.47 495.781 1059.31 502.446 1057.87C504.734 1044.37 510.501 1032.01 517.419 1020.07C538.971 982.885 565.306 948.487 596.78 917.16C606.885 907.102 617.951 897.89 630.551 890.195C637.833 885.747 645.524 881.991 654.113 879.783C663.335 877.412 672.33 877.403 681.011 881.497C681.659 881.802 682.467 881.846 683.672 882.117C684.68 869.947 683.873 858.328 679.001 847.087C672.931 833.077 661.797 823.56 645.722 818.516C632.52 814.373 619.059 813.746 605.392 816.589C587.729 820.263 572.783 828.326 559.379 838.704C534.696 857.816 517.058 881.317 504.036 907.625C502.679 910.365 501.585 913.205 500.233 915.947C498.89 918.674 498.815 918.646 494.972 916.732C495.127 916.093 495.209 915.394 495.47 914.75C496.814 911.437 498.269 908.16 499.551 904.83C500.313 902.847 501.186 900.819 501.393 898.763C504.012 872.863 502.907 847.114 496.7 821.631C493.076 806.752 487.675 792.43 477.826 779.694C462.626 760.035 441.278 752.919 415.005 758.697C404.015 761.115 393.646 764.78 384.338 770.572C380.188 773.154 375.886 775.545 371.653 778.023C371.814 776.486 372.548 775.666 373.393 774.946C385.745 764.409 400.179 757.07 416.994 753.531C446.228 747.378 469.797 755.621 486.192 777.625C492.727 786.396 497.214 795.967 500.466 805.995C508.366 830.358 509.232 855.212 507.045 880.265C506.754 883.605 506.349 886.938 505.996 890.273C508.032 888.682 509.074 886.996 510.128 885.314C520.431 868.86 532.98 853.88 548.424 840.818C560.065 830.975 572.907 822.609 587.717 816.717C603.448 810.458 619.78 807.758 637.015 810.353C638.328 810.551 639.716 810.379 641.828 810.379C646.543 798.893 651.68 787.622 655.817 776.075C669.68 737.381 675.447 697.493 677.312 657.143C678.889 623.016 677.519 588.923 673.671 554.929C669.49 517.986 662.819 481.381 653.449 445.165C640.778 396.189 623.948 348.397 600.505 302.475C581.017 264.297 556.349 229.092 523.32 198.63C498.51 175.747 470.993 155.963 438.239 142.307C411.095 130.99 382.704 124.82 352.415 127.886C318.656 131.303 289.498 143.239 266.294 165.198C243.96 186.331 234.035 212.241 230.42 240.286C227.104 266.012 229.308 291.545 234.768 316.909C239.525 339.011 244.862 361.011 247.856 383.396C251.808 412.943 247.104 440.919 229.526 466.74C223.877 475.041 217.859 483.16 211.752 491.212C209.953 493.584 209.482 495.432 211.395 497.853C214.023 501.175 216.326 504.691 218.838 508.083C220.253 509.995 221.178 511.82 218.164 514.177ZM657.35 72.3101C655.084 70.8747 653.052 70.2543 652.888 69.37C652.1 65.0871 648.301 63.3218 644.774 61.4149C636.392 56.8861 627.124 54.6216 617.343 54.3497C613.815 54.2516 610.089 54.8199 606.737 55.8146C601.632 57.3298 599.716 60.9569 601.252 65.5106C602.038 67.8404 603.239 70.1357 604.703 72.2037C610.203 79.9738 615.834 87.6739 621.52 95.3426C626.157 101.594 629.895 108.209 631.648 115.509C635.296 130.704 637.093 146.086 636.256 161.617C635.049 183.982 630.755 205.972 625.192 227.79C619.808 248.908 613.094 269.698 605.203 290.199C604.224 292.742 603.499 295.057 604.949 297.788C619.009 324.287 630.756 351.576 641.044 379.358C641.357 380.204 642.094 380.931 643.274 382.643C672.879 304.052 687.416 224.108 695.235 142.324C694.872 142.684 695.095 142.371 695.41 142.17C696.057 141.757 696.739 141.381 697.433 141.031C722.329 128.491 739.113 109.917 749.481 86.7755C755.418 73.5238 758.415 59.7682 756.021 45.4482C753.259 28.9249 743.998 16.5618 725.911 10.0454C717.632 7.06309 708.866 5.85275 699.98 5.90685C683.146 6.01036 671.333 12.9101 665.027 26.683C663.836 29.2848 662.62 31.9595 662.097 34.7001C660.649 42.3126 659.422 49.9636 658.383 57.6284C657.795 61.966 657.747 66.3592 657.35 72.3101ZM368.208 926.625C367.644 929.35 367.163 931.23 366.876 933.131C364.001 952.174 359.095 970.812 352.153 989.026C343.972 1010.49 333.251 1030.84 317.345 1048.88C304.03 1063.99 287.606 1075.42 266.912 1081.87C265.873 1082.19 264.752 1082.31 263.669 1082.53C264.273 1081.41 265.11 1080.97 265.992 1080.61C279.497 1075.04 290.642 1066.83 300.362 1057.04C303.919 1053.45 303.989 1051.65 300.597 1047.84C297.019 1043.83 292.067 1042.13 286.425 1041.81C276.088 1041.22 267.141 1044.62 258.829 1049.52C247.988 1055.91 239.462 1064.33 232.616 1073.96C212.813 1101.84 201.697 1131.78 205.17 1165.05C206.343 1176.28 208.457 1187.33 213.26 1197.91C214.775 1201.24 216.985 1202.87 221.141 1203.26C236.902 1204.77 252.617 1206.65 268.382 1208.13C275.718 1208.81 283.128 1208.88 289.732 1209.2C293.24 1204.48 295.821 1200.04 299.408 1196.36C311.761 1183.67 327.68 1176.19 346.459 1173.9C367.686 1171.3 387.12 1180.28 397.229 1196.67C397.676 1197.39 398.298 1198.04 399.216 1199.19C404.155 1196.82 409.095 1194.84 413.547 1192.23C427.557 1184 432.593 1172.74 428.386 1158.38C422.584 1138.58 408.577 1124.09 388.826 1113.77C373.551 1105.79 357.289 1103.95 340.192 1109.08C310.232 1118.05 283.934 1132.14 261.712 1151.93C258.91 1154.42 256.575 1157.32 253.994 1160.01C253.252 1160.78 252.403 1161.48 251.602 1162.21C268.086 1136.64 293.222 1119.82 322.795 1107.77C322.197 1104.86 321.622 1102.46 321.222 1100.03C320.807 1097.51 320.562 1094.97 320.141 1091.62C318.005 1093.37 316.593 1094.53 315.171 1095.69C313.806 1096.8 312.43 1097.9 311.06 1099C353.489 1048.3 379.556 992.113 388.966 929.525C381.663 928.504 375.205 927.602 368.208 926.625ZM506.041 1057.05C507.515 1057.27 508.116 1057.5 508.639 1057.41C511.192 1056.95 513.753 1056.5 516.256 1055.88C531.282 1052.14 544.958 1045.87 557.875 1038.36C594.531 1017.03 625.909 990.756 651.856 959.7C668.746 939.483 678.23 916.429 682.567 891.739C683.507 886.379 683.132 885.913 677.17 884.301C670.368 882.464 663.675 883.274 657.082 885.24C647.841 887.992 639.744 892.534 632.042 897.654C620.165 905.551 609.462 914.581 599.639 924.36C565.632 958.213 538.212 995.932 514.822 1035.97C512.183 1040.49 510.213 1045.32 508.134 1050.07C507.219 1052.16 506.809 1054.43 506.041 1057.05ZM394.808 1200.38C392.383 1197.68 390.873 1195.63 388.958 1193.93C380.626 1186.53 370.4 1182.24 358.692 1181.13C332.14 1178.62 312.427 1189.49 295.988 1206.37C295.345 1207.03 295.3 1208.14 294.844 1209.4C328.517 1209.95 361.477 1209.44 394.808 1200.38Z" fill="black"></path>
<path d="M218.165 514.177C221.179 511.82 220.254 509.995 218.839 508.083C216.326 504.691 214.024 501.174 211.396 497.853C209.483 495.432 209.954 493.584 211.753 491.212C217.86 483.159 223.878 475.041 229.527 466.74C247.105 440.919 251.809 412.943 247.857 383.396C244.863 361.011 239.526 339.011 234.769 316.909C229.308 291.545 227.105 266.012 230.421 240.285C234.036 212.24 243.961 186.331 266.295 165.198C289.498 143.239 318.657 131.302 352.416 127.886C382.705 124.82 411.096 130.989 438.24 142.307C470.994 155.963 498.511 175.747 523.321 198.63C556.35 229.092 581.017 264.297 600.506 302.474C623.949 348.397 640.779 396.189 653.45 445.165C662.82 481.381 669.491 517.986 673.672 554.929C677.52 588.923 678.89 623.016 677.313 657.143C675.448 697.493 669.681 737.381 655.818 776.074C651.681 787.622 646.544 798.893 641.829 810.379C639.717 810.379 638.329 810.551 637.016 810.353C619.78 807.758 603.449 810.458 587.718 816.717C572.908 822.609 560.066 830.975 548.425 840.818C532.981 853.88 520.432 868.86 510.129 885.314C509.075 886.996 508.033 888.681 505.997 890.273C506.35 886.937 506.755 883.605 507.046 880.264C509.233 855.212 508.367 830.358 500.467 805.994C497.215 795.967 492.727 786.396 486.193 777.625C469.798 755.621 446.229 747.378 416.995 753.531C400.179 757.07 385.746 764.408 373.394 774.946C372.549 775.665 371.814 776.486 371.654 778.023C375.887 775.545 380.189 773.153 384.339 770.572C393.647 764.78 404.016 761.115 415.006 758.697C441.279 752.919 462.627 760.035 477.827 779.694C487.676 792.43 493.076 806.752 496.701 821.631C502.908 847.114 504.013 872.863 501.394 898.763C501.187 900.819 500.314 902.847 499.552 904.829C498.27 908.159 496.815 911.437 495.471 914.749C495.21 915.393 495.128 916.092 494.973 916.732C498.816 918.646 498.891 918.674 500.234 915.946C501.586 913.205 502.68 910.364 504.037 907.624C517.059 881.316 534.697 857.816 559.38 838.704C572.784 828.325 587.73 820.263 605.393 816.589C619.06 813.746 632.521 814.373 645.723 818.516C661.798 823.56 672.932 833.076 679.002 847.087C683.874 858.328 684.681 869.947 683.673 882.117C682.468 881.846 681.66 881.802 681.012 881.496C672.331 877.403 663.336 877.412 654.114 879.783C645.525 881.991 637.834 885.747 630.552 890.195C617.952 897.89 606.886 907.102 596.781 917.16C565.307 948.487 538.972 982.885 517.42 1020.07C510.502 1032.01 504.735 1044.37 502.447 1057.87C495.782 1059.31 489.465 1058.47 483.295 1056.89C469.915 1053.45 459.968 1046.18 453.251 1035.51C447.731 1026.74 445.128 1017.22 443.772 1007.37C441.125 988.137 443.007 969.027 446.96 950.147C451.556 928.205 457.258 906.44 462.414 884.586C465.552 871.287 467.619 857.852 466.573 844.26C466.075 837.814 465.034 831.274 463.061 825.064C456.452 804.259 439.41 792.706 414.741 791.825C404.395 791.457 394.332 793.072 384.515 795.861C380.979 796.865 381.015 796.961 382.121 800.426C384.799 799.863 387.493 799.292 390.189 798.729C400.416 796.595 410.681 795.415 421.233 796.818C438.668 799.138 450.754 807.243 456.985 821.731C461.908 833.176 462.316 845.081 461.22 857.104C459.712 873.663 454.691 889.615 450.329 905.683C448.294 913.18 446.304 920.686 444.197 928.552C438.996 928.273 434.033 928.067 429.081 927.731C370.135 923.723 313.758 911.618 261.587 886.57C222.24 867.677 188.777 842.853 163.134 810.39C138.876 779.681 124.587 745.733 120.514 708.528C115.944 666.789 124.735 626.975 143.045 588.534C145.042 584.343 147.227 580.221 149.851 575.025C158.456 585.746 167.371 595.015 179.181 601.969C178.849 601.455 178.608 600.873 178.175 600.436C159.414 581.476 146.092 559.674 134.849 536.801C118.522 503.582 107.113 468.991 97.8046 433.84C87.4576 394.763 79.8191 355.268 74.6137 315.42C72.6743 300.578 71.0811 285.701 69.3869 270.834C69.1932 269.141 69.3601 267.416 69.3601 265.264C68.4126 264.742 67.0811 263.992 65.7351 263.266C32.1157 245.101 13.053 218.645 7.66417 184.585C6.41877 176.715 7.15933 168.784 9.65592 161.057C14.5893 145.781 25.7432 135.822 43.0709 131.214C50.8277 129.151 58.796 128.437 66.8989 128.781C81.0443 129.381 91.1972 135.305 97.4621 146.35C101.906 154.181 103.81 162.633 104.794 171.236C105.494 177.354 105.734 183.509 106.205 189.648C106.309 191.003 106.523 192.352 106.82 194.81C108.786 193.483 110.81 192.817 111.076 191.8C111.775 189.123 113.647 187.457 115.964 186.029C126.704 179.416 138.628 176.39 151.756 177.321C153.723 177.46 155.746 177.889 157.562 178.557C161.963 180.18 163.821 182.852 162.931 186.936C162.379 189.465 161.25 192.028 159.74 194.243C155.423 200.585 151.182 207.014 146.183 212.94C135.022 226.167 130.794 241.217 128.861 257.238C125.912 281.67 128.958 305.713 134.024 329.618C143.695 375.251 158.861 419.45 180.852 461.741C186.002 471.647 192.17 481.148 197.857 490.839C201.708 497.4 206.709 503.307 211.74 509.169C213.443 511.152 216.034 512.552 218.165 514.177ZM322.56 551.817C340.106 518.724 342.493 486.95 313.726 457.342C317.455 449.491 322.471 442.269 328.057 435.467C329.07 435.862 329.288 435.897 329.43 436.009C330.925 437.179 332.409 438.361 333.897 439.537C363.539 462.938 397.364 479.472 436.478 487.248C451.235 490.182 466.168 491.004 481.271 489.369C480.401 488.902 479.483 488.717 478.555 488.582C469.248 487.232 459.877 486.158 450.641 484.503C399.57 475.348 356.442 453.984 321.976 419.628C289.851 387.606 276.279 350.398 282 307.972C282.911 301.219 284.231 294.509 285.362 287.778C284.564 288.469 284.043 289.23 283.768 290.053C275.304 315.458 272.545 341.08 280.199 367.046C280.89 369.394 280.854 371.409 279.661 373.632C264.243 402.354 258.667 432.523 262.826 464.018C266.207 489.623 275.687 513.309 293.174 534.24C311.52 556.201 335.522 571.07 366.072 577.064C395.202 582.78 423.55 579.26 451.3 570.508C451.938 570.306 452.504 569.933 453.104 569.64C443.367 570.618 433.989 573.174 423.787 573.101C423.675 570.912 423.623 569.189 423.495 567.469C423.275 564.492 423.326 561.465 422.707 558.549C419.993 545.753 411.975 542.076 398.327 547.511C386.793 552.103 376.917 558.586 369.911 568.053C369.283 568.9 368.437 569.623 367.498 570.609C351.009 566.994 336.114 560.897 322.56 551.817ZM387.496 359.634C381.494 365.262 375.076 370.257 372.423 377.753C373.693 377.349 374.164 376.314 374.96 375.535C387.071 363.711 402.124 355.856 419.202 350.922C440.096 344.886 461.56 343.105 483.438 344.952C487.262 345.275 491.09 345.567 496.068 345.966C489.178 341.261 481.711 340.301 474.923 338.074C475.342 337.004 475.45 336.472 475.737 336.029C487.849 317.354 491.975 297.227 489.655 276.026C484.822 231.853 450.929 204.083 410.407 195.202C391.508 191.06 374.583 195.063 359.965 206.29C351.055 213.134 344.56 221.578 339.876 231.038C327.942 255.139 325.77 279.971 333.809 305.268C341.542 329.6 357.738 347.948 384.738 358.219C385.598 358.546 386.37 359.051 387.496 359.634Z" fill="#FF8300"></path>
<path fill-rule="evenodd" clip-rule="evenodd" d="M368.208 926.624C375.205 927.602 381.662 928.503 388.966 929.525C379.556 992.113 353.489 1048.3 311.06 1099C312.43 1097.9 313.805 1096.8 315.171 1095.69C316.592 1094.53 318.005 1093.37 320.14 1091.62C320.562 1094.97 320.807 1097.51 321.222 1100.03C321.622 1102.46 322.196 1104.86 322.794 1107.77C293.222 1119.82 268.085 1136.64 251.602 1162.21C252.403 1161.48 253.252 1160.78 253.994 1160.01C256.575 1157.32 258.909 1154.42 261.712 1151.93C283.933 1132.14 310.232 1118.05 340.191 1109.07C357.289 1103.95 373.55 1105.79 388.826 1113.77C408.576 1124.09 422.584 1138.58 428.385 1158.38C432.592 1172.74 427.557 1184 413.547 1192.23C409.095 1194.84 404.155 1196.82 399.216 1199.19C398.297 1198.04 397.676 1197.39 397.228 1196.67C387.12 1180.28 367.686 1171.3 346.459 1173.89C327.68 1176.19 311.761 1183.67 299.407 1196.36C295.821 1200.04 293.24 1204.48 289.732 1209.2C283.127 1208.88 275.717 1208.81 268.382 1208.12C252.617 1206.65 236.902 1204.76 221.14 1203.26C216.985 1202.87 214.775 1201.24 213.26 1197.91C208.457 1187.33 206.343 1176.28 205.17 1165.05C201.697 1131.78 212.812 1101.84 232.616 1073.96C239.461 1064.32 247.988 1055.91 258.829 1049.52C267.14 1044.62 276.087 1041.22 286.425 1041.81C292.066 1042.13 297.018 1043.83 300.596 1047.84C303.989 1051.65 303.919 1053.45 300.361 1057.04C290.642 1066.83 279.497 1075.04 265.992 1080.61C265.11 1080.97 264.273 1081.41 263.668 1082.52C264.751 1082.31 265.873 1082.19 266.911 1081.87C287.606 1075.42 304.03 1063.99 317.345 1048.88C333.251 1030.84 343.972 1010.49 352.153 989.025C359.095 970.811 364 952.174 366.875 933.131C367.163 931.229 367.644 929.35 368.208 926.624Z" fill="#F06105"></path>
<path d="M506.043 1057.05C506.81 1054.42 507.221 1052.16 508.135 1050.07C510.215 1045.32 512.184 1040.49 514.823 1035.97C538.213 995.931 565.634 958.213 599.64 924.36C609.463 914.58 620.166 905.551 632.043 897.653C639.745 892.533 647.842 887.992 657.084 885.239C663.676 883.274 670.369 882.463 677.171 884.3C683.133 885.913 683.508 886.379 682.568 891.738C678.231 916.429 668.747 939.482 651.857 959.699C625.91 990.756 594.533 1017.03 557.877 1038.36C544.959 1045.87 531.283 1052.14 516.257 1055.88C513.754 1056.5 511.193 1056.95 508.641 1057.41C508.118 1057.5 507.516 1057.27 506.043 1057.05Z" fill="#FFAB00"></path>
<path d="M394.811 1200.38C361.48 1209.44 328.519 1209.95 294.846 1209.4C295.303 1208.14 295.348 1207.03 295.991 1206.37C312.43 1189.49 332.143 1178.62 358.695 1181.13C370.403 1182.24 380.629 1186.53 388.961 1193.93C390.876 1195.63 392.386 1197.68 394.811 1200.38Z" fill="#FFAB00"></path>
<path d="M322.56 551.817C336.114 560.897 351.009 566.994 367.498 570.609C368.437 569.624 369.283 568.9 369.912 568.053C376.917 558.586 386.793 552.103 398.327 547.511C411.975 542.076 419.993 545.754 422.707 558.549C423.326 561.465 423.275 564.492 423.495 567.469C423.623 569.189 423.675 570.913 423.788 573.101C433.989 573.174 443.367 570.618 453.104 569.64C452.504 569.933 451.938 570.306 451.3 570.508C423.551 579.26 395.202 582.78 366.072 577.064C335.522 571.07 311.52 556.201 293.174 534.24C275.687 513.309 266.207 489.623 262.827 464.018C258.668 432.523 264.243 402.354 279.661 373.632C280.854 371.409 280.89 369.394 280.199 367.046C272.545 341.08 275.304 315.458 283.769 290.053C284.043 289.23 284.564 288.469 285.362 287.778C284.231 294.509 282.911 301.219 282 307.972C276.279 350.398 289.851 387.606 321.976 419.628C356.442 453.984 399.57 475.348 450.641 484.503C459.877 486.158 469.248 487.232 478.555 488.582C479.483 488.717 480.401 488.902 481.271 489.369C466.169 491.004 451.236 490.182 436.478 487.248C397.364 479.472 363.539 462.938 333.897 439.537C332.409 438.362 330.925 437.179 329.43 436.009C329.289 435.898 329.07 435.862 328.057 435.467C322.471 442.269 317.455 449.491 313.726 457.342C342.493 486.95 340.106 518.724 322.56 551.817ZM276.893 494.538C285.402 515.72 298.237 533.744 317.766 548.503C318.819 546.974 319.712 546.026 320.187 544.937C325.473 532.848 328.685 520.403 328.412 507.377C328.001 487.628 319.4 471.222 302.221 458.345C292.791 451.276 281.94 446.393 270.298 442.792C269.468 442.536 268.478 442.674 267.606 442.63C266.557 445.496 268.564 445.41 270.395 445.608C284.27 447.106 292.307 454.464 295.956 465.753C299.723 477.403 294.055 487.613 281.491 492.7C280.233 493.209 278.969 493.709 276.893 494.538ZM282.09 375.185C272.145 395.33 267.447 416.221 267.141 438.371C282.102 441.094 295.872 445.608 307.604 453.36C312.481 445.289 317.133 437.591 322.088 429.389C305.213 413.925 291.168 396.141 282.09 375.185ZM374.229 571.358C384.147 574.458 410.988 575.529 420.018 572.981C419.195 569.341 418.597 565.552 417.464 561.89C414.12 551.088 408.417 548.737 397.819 554.668C389.752 559.183 382.528 564.852 374.96 570.042C374.57 570.309 374.471 570.903 374.229 571.358ZM275.129 489.72C286.493 484.63 292.452 475.091 289.987 466.773C287.63 458.817 278.005 452.845 267.686 453.351C268.193 465.656 270.962 477.559 275.129 489.72Z" fill="black"></path>
<path d="M387.497 359.634C386.371 359.051 385.599 358.546 384.739 358.219C357.738 347.948 341.542 329.6 333.81 305.268C325.77 279.971 327.942 255.139 339.877 231.038C344.561 221.578 351.056 213.134 359.966 206.29C374.584 195.063 391.508 191.06 410.407 195.202C450.93 204.083 484.823 231.853 489.656 276.026C491.975 297.227 487.849 317.354 475.738 336.029C475.45 336.472 475.343 337.004 474.923 338.074C481.712 340.301 489.179 341.261 496.069 345.966C491.09 345.567 487.263 345.275 483.439 344.952C461.561 343.105 440.096 344.886 419.203 350.922C402.125 355.856 387.072 363.711 374.961 375.535C374.164 376.314 373.693 377.349 372.424 377.753C375.077 370.257 381.495 365.262 387.497 359.634ZM471.277 337.876C473.069 334.554 474.983 331.478 476.433 328.244C485.285 308.481 486.552 288.136 480.806 267.687C471.532 234.683 448.415 212.528 410.935 202.725C390.595 197.405 373.349 202.601 359.49 216.509C352.806 223.217 348.195 231.002 344.876 239.368C337.755 257.322 336.147 275.696 339.587 294.436C342.4 309.761 348.303 323.995 359.1 336.466C367.251 345.876 377.364 353.139 390.15 357.85C401.566 350.111 414.185 344.487 428.04 341.038C442.08 337.544 456.361 336.291 471.277 337.876Z" fill="black"></path>
<path d="M276.895 494.538C278.971 493.709 280.234 493.209 281.493 492.7C294.056 487.613 299.725 477.403 295.958 465.753C292.309 454.464 284.272 447.107 270.397 445.608C268.565 445.41 266.559 445.496 267.607 442.63C268.48 442.674 269.47 442.536 270.3 442.792C281.942 446.393 292.792 451.276 302.223 458.345C319.402 471.222 328.003 487.628 328.414 507.377C328.687 520.404 325.475 532.848 320.189 544.937C319.714 546.026 318.821 546.974 317.767 548.503C298.239 533.744 285.404 515.72 276.895 494.538Z" fill="#EDA7A7"></path>
<path fill-rule="evenodd" clip-rule="evenodd" d="M282.091 375.185C291.169 396.141 305.214 413.925 322.089 429.389C317.133 437.591 312.481 445.289 307.604 453.36C295.873 445.608 282.102 441.094 267.141 438.371C267.448 416.221 272.146 395.33 282.091 375.185Z" fill="#F06105"></path>
<path d="M374.231 571.358C374.473 570.903 374.572 570.309 374.962 570.041C382.529 564.852 389.754 559.183 397.82 554.668C408.418 548.737 414.121 551.088 417.466 561.89C418.599 565.552 419.197 569.341 420.019 572.981C410.989 575.529 384.149 574.458 374.231 571.358Z" fill="white"></path>
<path d="M275.127 489.72C270.96 477.559 268.192 465.656 267.685 453.351C278.003 452.845 287.628 458.817 289.985 466.772C292.45 475.091 286.492 484.629 275.127 489.72Z" fill="white"></path>
<path d="M471.275 337.876C456.359 336.29 442.077 337.544 428.038 341.038C414.183 344.486 401.563 350.111 390.147 357.85C377.362 353.139 367.249 345.876 359.098 336.465C348.3 323.995 342.397 309.761 339.585 294.435C336.145 275.696 337.753 257.321 344.874 239.368C348.193 231.002 352.804 223.217 359.488 216.508C373.347 202.601 390.592 197.405 410.933 202.725C448.412 212.527 471.53 234.683 480.804 267.687C486.549 288.136 485.283 308.481 476.43 328.243C474.981 331.478 473.067 334.554 471.275 337.876Z" fill="white"></path>
<path d="M423.511 263.546C404.184 262.918 389.092 248.918 389.797 232.279C390.504 215.639 406.742 202.659 426.07 203.286C445.396 203.915 460.49 217.915 459.783 234.554C459.076 251.193 442.838 264.174 423.511 263.546Z" fill="black"></path>
<path d="M430.035 232.786C422.841 232.553 417.224 227.342 417.487 221.148C417.75 214.956 423.793 210.124 430.987 210.358C438.181 210.593 443.798 215.803 443.535 221.996C443.272 228.188 437.228 233.02 430.035 232.786Z" fill="white"></path>
<path d="M303.621 178.515C302.273 187.367 307.892 192.206 313.636 193.907C319.679 195.695 324.611 193.947 327.754 187.819C332.092 179.363 338.339 173.752 349.364 172.278C357.383 171.204 360.76 166.793 359.766 160.904C358.771 155.022 352.808 151.136 345.07 151.709C332.665 152.638 322.355 157.434 314.845 166.051C310.877 170.608 305.42 175.817 303.621 178.515Z" fill="black"></path>
<path d="M471.278 337.876C456.361 336.29 442.08 337.544 428.041 341.039C414.186 344.486 401.566 350.11 390.15 357.851C377.365 353.14 367.252 345.876 359.101 336.465C351.085 327.208 345.769 316.977 342.409 306.053C357.3 319.068 377.179 327.02 399.017 327.02C438.509 327.02 471.603 301.026 480.342 266.084L480.807 267.687C486.551 288.136 485.286 308.479 476.433 328.244C474.984 331.479 473.069 334.552 471.278 337.876Z" fill="#E9E9CF"></path>
<path fill-rule="evenodd" clip-rule="evenodd" d="M328.062 476.632C324.6 470.108 319.88 463.676 313.726 457.341C317.456 449.49 322.473 442.27 328.057 435.468C329.071 435.863 329.289 435.898 329.432 436.008L330.621 436.943C330.718 450.151 329.932 463.398 328.062 476.632Z" fill="#F06105"></path>
<path fill-rule="evenodd" clip-rule="evenodd" d="M510.654 884.483L510.13 885.314C509.075 886.995 508.033 888.683 505.998 890.273C506.202 888.349 506.423 886.424 506.629 884.499C507.97 884.499 509.311 884.494 510.654 884.483Z" fill="#F06105"></path>
<path fill-rule="evenodd" clip-rule="evenodd" d="M218.164 514.177C221.181 511.82 220.253 509.996 218.84 508.084C216.327 504.691 214.023 501.176 211.399 497.853C209.485 495.432 209.955 493.585 211.755 491.212C217.861 483.16 223.878 475.041 229.53 466.74C247.107 440.921 251.81 412.942 247.859 383.396C244.861 361.012 239.526 339.012 234.769 316.91C229.31 291.545 227.107 266.013 230.422 240.285C234.037 212.241 243.962 186.331 266.295 165.199C274.487 157.446 283.422 150.946 293.039 145.625C268.974 215.781 326.436 319.911 330.412 427.621C327.544 425.04 324.733 422.376 321.976 419.629C289.853 387.608 276.279 350.398 282.001 307.972C282.912 301.221 284.233 294.51 285.363 287.778C284.565 288.47 284.044 289.231 283.769 290.053C275.304 315.459 272.544 341.081 280.199 367.046C280.893 369.395 280.853 371.409 279.662 373.631C264.244 402.354 258.668 432.524 262.828 464.019C266.206 489.623 275.689 513.31 293.174 534.241C297.127 538.972 301.344 543.37 305.827 547.426C299 560.792 290.573 574.037 280.187 587.096C144.253 758.03 285.73 864.653 456.739 882.011C454.772 889.93 452.471 897.792 450.329 905.682C448.294 913.179 446.304 920.687 444.199 928.552C438.997 928.274 434.032 928.068 429.082 927.732C370.135 923.725 313.76 911.619 261.587 886.57C222.241 867.678 188.779 842.852 163.133 810.391C138.876 779.682 124.587 745.733 120.516 708.527C115.945 666.789 124.736 626.975 143.046 588.534C145.043 584.342 147.229 580.222 149.851 575.027C158.457 585.746 167.371 595.016 179.182 601.971C178.851 601.455 178.607 600.874 178.175 600.435C159.415 581.477 146.093 559.673 134.851 536.803C118.522 503.581 107.113 468.991 97.804 433.84C87.4595 394.764 79.8198 355.269 74.6131 315.421C72.6749 300.577 71.0825 285.702 69.3863 270.836C69.1959 269.142 69.362 267.417 69.362 265.265C68.4133 264.742 67.083 263.993 65.737 263.266C32.1164 245.102 13.0548 218.645 7.66358 184.587C6.41817 176.716 7.16122 168.786 9.6578 161.057C14.5912 145.781 25.7426 135.823 43.0703 131.216C50.8271 129.151 58.7966 128.438 66.8996 128.782C81.0437 129.383 91.1966 135.305 97.464 146.35C101.906 154.183 103.811 162.634 104.796 171.237C105.493 177.354 105.735 183.509 106.205 189.649C106.31 191.005 106.523 192.352 106.82 194.81C108.785 193.484 110.811 192.817 111.077 191.799C111.777 189.123 113.647 187.457 115.964 186.029C126.705 179.415 138.629 176.39 151.756 177.323C153.723 177.461 155.746 177.89 157.562 178.558C161.965 180.18 163.823 182.851 162.932 186.938C162.379 189.467 161.25 192.027 159.741 194.245C155.423 200.586 151.183 207.015 146.185 212.939C135.023 226.168 130.797 241.216 128.86 257.237C125.913 281.669 128.959 305.714 134.026 329.618C143.694 375.251 158.862 419.451 180.851 461.742C186.003 471.647 192.171 481.148 197.858 490.839C201.708 497.4 206.709 503.306 211.739 509.17C213.445 511.152 216.035 512.552 218.164 514.177Z" fill="#F06105"></path>
</svg>