<svg width="139" height="238" viewBox="0 0 139 238" fill="none" xmlns="http://www.w3.org/2000/svg">
<path d="M61.8324 87.7778C61.7601 87.9856 61.6946 88.2098 61.6047 88.4241C60.7473 90.4696 61.0228 92.3977 62.2295 94.2128C63.2039 95.6777 64.536 96.739 66.1382 97.4383C69.3374 98.8341 72.5462 98.8463 75.7363 97.3952C76.8007 96.9111 77.7217 96.2197 78.4808 95.3262C79.8125 93.7598 80.2363 91.9739 79.755 89.9735C79.6903 89.7057 79.6354 89.4361 79.5554 89.0724C80.7046 88.9766 81.8044 88.8904 82.904 88.7921C94.9104 87.7157 106.036 84.1336 115.912 77.0785C121.628 72.996 126.428 68.0291 129.687 61.7634C136.167 49.306 135.449 37.0728 128.06 25.2396C123.617 18.1258 117.392 12.8459 110.15 8.73231C102.724 4.5144 94.7389 1.93341 86.2928 0.763313C74.5851 -0.858688 63.1003 0.0623016 51.9054 3.9381C43.5146 6.84251 35.9946 11.2087 29.7156 17.5619C24.6669 22.6703 20.9502 28.5882 19.1929 35.6028C16.9324 44.6223 18.1748 53.2272 22.602 61.3669C26.4357 68.4152 31.9716 73.8858 38.6186 78.2795C45.305 82.6987 52.6246 85.6116 60.4292 87.3495C60.8179 87.4357 61.2059 87.5236 61.5914 87.6208C61.662 87.6384 61.7207 87.703 61.8324 87.7778ZM97.516 12.2844C97.7331 12.4443 97.9351 12.6328 98.17 12.7595C104.645 16.2631 109.607 21.3105 113.297 27.6377C114.406 29.5392 115.194 31.5776 115.601 33.7543C116.388 37.9703 114.807 41.4155 111.071 43.527C109.356 44.4959 107.524 45.1068 105.549 45.3219C102.592 45.6442 99.7631 45.0852 96.9803 44.1787C93.1348 42.9264 89.5548 41.0867 86.1413 38.9601C84.5746 37.9836 83.084 37.7058 81.305 38.0675C78.3382 38.671 75.5418 39.6138 73.133 41.5011C72.611 41.9096 72.1473 42.3926 71.6276 42.8682C71.854 43.1968 72.0212 43.4108 72.1581 43.643C72.8625 44.8372 73.7064 45.9759 74.2285 47.2464C75.3964 50.0889 75.7227 53.0625 75.3723 56.1432C74.7425 61.6826 71.2344 65.9125 65.7873 66.9834C57.6992 68.5737 50.5408 66.7246 44.7519 60.5848C42.1576 57.8335 40.2135 54.6439 38.6033 51.2466C37.8885 49.7389 37.2092 48.2065 36.6445 46.6378C36.0292 44.9276 36.3839 43.3141 37.6319 41.9821C38.5269 41.026 39.4474 40.0671 40.4822 39.2728C43.3859 37.0431 46.3087 34.8317 49.3072 32.7318C57.469 27.0163 65.9279 21.7895 74.9495 17.52C79.4896 15.3713 84.1242 13.4659 89.0685 12.4471C91.29 11.9893 93.5316 11.6103 95.8158 12.0128C95.4468 11.5369 94.907 11.5888 94.3956 11.5568C90.7591 11.3288 87.2668 12.0846 83.8251 13.141C77.5913 15.0544 71.759 17.8823 66.052 20.993C65.6407 21.2172 65.222 21.4287 64.9156 21.5891C64.0998 21.1906 63.4399 20.8124 62.7393 20.5395C61.3548 19.9997 59.9337 19.9586 58.5388 20.5003C57.8125 20.7827 57.1393 21.389 56.4152 21.4363C55.6735 21.4845 54.9119 20.9743 54.1377 20.8028C49.8157 19.8433 46.0632 20.8297 43.137 24.2528C40.354 27.5084 40.0313 32.2329 42.409 35.6864C42.5416 35.8791 42.6497 36.0892 42.7855 36.3194C42.5605 36.528 42.3663 36.7242 42.1551 36.9008C40.7491 38.0749 39.3341 39.2379 37.9337 40.4191C36.3572 41.7488 35.5566 43.4391 35.4357 45.5138C35.3125 47.6188 35.1501 49.7304 34.8329 51.8127C34.4984 54.0053 34.9075 56.0006 35.9169 57.9259C36.1752 58.4185 36.3894 58.9347 36.616 59.4438C38.2626 63.1411 40.2939 66.5945 43.0557 69.5825C46.0737 72.8475 49.6502 75.2124 54.0226 76.2261C57.4344 77.0169 60.8932 77.1584 64.3422 76.543C68.2684 75.8428 71.5237 74.0114 73.7319 70.569C73.8314 70.4142 73.9866 70.2951 74.1384 70.1356C76.5895 71.3508 78.5792 73.03 80.2488 75.1004C81.5632 76.7306 82.5574 78.5321 83.0724 80.5781C83.6768 82.9802 83.48 85.2924 82.3628 87.5482C81.5184 87.6259 80.7258 87.682 79.9379 87.777C79.177 87.8685 78.6381 87.6608 78.0808 87.0479C74.3896 82.9915 67.5255 82.5652 63.3404 86.123C62.7732 86.6046 62.2649 86.6819 61.6062 86.5499C54.5266 85.1325 47.7915 82.7792 41.5281 79.156C35.4568 75.6436 30.1855 71.217 26.0895 65.4734C17.3879 53.2734 17.0319 38.273 25.1418 25.6665C28.1511 20.9893 31.9592 17.0565 36.4087 13.7491C46.1296 6.52361 57.1637 2.77391 69.1228 1.56861C75.2082 0.955711 81.2891 1.10261 87.3479 2.00401C95.0972 3.15661 102.466 5.4657 109.356 9.219C115.839 12.751 121.533 17.2538 125.826 23.3157C133.424 34.0426 135.042 45.5736 129.97 57.8156C127.227 64.4368 122.714 69.7662 117.159 74.2206C108.699 81.005 98.9606 84.9012 88.3573 86.7956C88.1844 86.8262 87.9956 86.7693 87.8204 86.7531C88.552 77.0405 84.8101 70.2387 75.3899 67.0679C75.5518 66.0724 75.74 65.1372 75.8497 64.193C76.0841 62.1764 76.2562 60.1528 76.494 58.1368C76.8361 55.2364 76.9916 52.3453 76.3044 49.469C76.2692 49.3227 76.2998 49.1606 76.2998 48.8505C77.8478 48.2782 79.4211 47.7373 80.9597 47.1109C81.7432 46.7922 82.3436 46.8878 83.048 47.36C86.3954 49.6028 89.8854 51.5927 93.6598 53.0438C97.0015 54.3284 100.433 55.119 104.044 54.8585C107.056 54.6408 109.807 53.6736 112.229 51.8643C114.526 50.1488 115.777 47.8328 116.013 44.9673C116.111 43.7773 116.244 42.5896 116.374 41.4025C116.538 39.899 116.753 38.4003 116.878 36.8939C117.094 34.2858 116.433 31.8344 115.397 29.4745C113.891 26.0438 111.72 23.0566 109.16 20.3456C106.294 17.3111 103.094 14.7077 99.3021 12.9018C98.7369 12.6328 98.1127 12.4871 97.516 12.2844ZM74.7892 62.0738C74.7028 63.0098 74.6656 63.6431 74.5826 64.2704C73.7421 70.6064 69.8998 74.368 64.4419 75.4431C62.1147 75.9015 59.7889 75.8975 57.4351 75.6645C53.145 75.2399 49.356 73.678 46.0574 70.91C44.3704 69.4941 42.9235 67.8596 41.6225 66.0891C39.2249 62.8259 37.5372 59.1805 35.9382 55.4901C35.538 54.566 35.4087 53.5968 35.5773 52.5718C35.7514 51.5142 35.8004 50.4368 35.9169 49.3689C35.943 49.1305 36.0221 48.8981 36.1392 48.3967C36.6149 49.3996 36.9888 50.1388 37.3212 50.896C38.9817 54.6723 41.0354 58.1997 43.8461 61.2489C46.8278 64.4841 50.3611 66.8448 54.6794 67.8741C58.2017 68.7137 61.774 68.8642 65.3402 68.1924C69.0375 67.4956 72.1371 65.7722 74.3144 62.6008C74.3966 62.4806 74.51 62.3814 74.7892 62.0738ZM115.215 41.6973C115.126 42.7744 115.039 43.7493 114.965 44.7252C114.772 47.294 113.672 49.3772 111.622 50.9399C110.014 52.1662 108.203 52.974 106.231 53.3947C103.445 53.9894 100.685 53.7414 97.9562 53.0214C92.931 51.6945 88.4658 49.1575 84.0273 46.5612C83.5646 46.2902 83.4973 45.9424 83.5441 45.4642C83.6407 44.4744 83.6908 43.4794 83.7685 42.4873C83.8479 41.4696 83.9383 40.4528 84.0384 39.2637C84.537 39.5537 84.897 39.7751 85.2678 39.9763C87.7141 41.3058 90.115 42.7313 92.6232 43.9321C95.7652 45.4356 99.0841 46.4305 102.603 46.5601C107.317 46.7341 111.49 45.452 114.814 41.9365C114.887 41.8591 115.003 41.8214 115.215 41.6973ZM70.3876 84.9613C72.5842 84.9511 74.2855 85.3069 75.8434 86.1941C79.2555 88.137 79.7482 91.9603 76.9586 94.7162C73.8527 97.7841 67.833 98.1498 64.3708 95.4779C63.3594 94.6978 62.6542 93.7153 62.4126 92.4377C62.0753 90.6564 62.6091 89.1243 63.8175 87.8269C65.6985 85.8077 68.1196 85.0608 70.3876 84.9613ZM73.0862 42.7509C76.149 41.0762 79.2856 39.4344 82.9584 38.5071C82.7716 41.1578 82.5981 43.6259 82.4324 45.9861C80.098 46.5402 77.9528 47.0499 75.9231 47.5315C74.9877 45.9557 74.0817 44.4287 73.0862 42.7509ZM83.8754 87.4045C83.9422 87.059 83.9519 86.8639 84.0183 86.6902C85.1456 83.7489 84.7675 80.8981 83.4086 78.1548C81.64 74.5845 78.9216 71.9316 75.3644 70.1375C75.0256 69.9666 74.6869 69.796 74.3297 69.616C74.5188 69.1636 74.6501 68.8328 74.7952 68.5079C74.9332 68.1972 75.0856 67.8925 75.2263 67.5963C84.335 70.7991 88.1849 80.7006 86.3855 87.1103C85.602 87.2021 84.7893 87.2971 83.8754 87.4045ZM54.2318 28.1114C51.5452 29.9825 48.9632 31.7811 46.3081 33.6304C45.7526 32.1556 45.4318 30.8114 45.5105 29.402C45.6032 27.757 46.2731 26.3978 47.7045 25.5194C49.7738 24.2483 52.0764 24.034 54.5195 24.0453C54.1927 25.4329 53.3718 26.6762 54.2318 28.1114ZM43.181 36.0821C42.9409 35.5648 42.7407 35.2215 42.618 34.8522C42.3805 34.1361 42.1307 33.4167 41.9836 32.6794C41.2399 28.9595 42.6957 25.4459 45.8424 23.329C47.5994 22.147 49.5547 21.516 51.6614 21.3947C53.1592 21.3091 54.6614 21.3 56.2504 21.838C55.9006 22.2896 55.5786 22.6303 55.3458 23.0237C55.0162 23.5819 54.6185 23.7128 53.9639 23.6241C52.4222 23.4146 50.8696 23.4342 49.335 23.7795C45.5405 24.6333 43.5869 27.6519 44.4239 31.4565C44.636 32.4195 44.9982 33.3495 45.3254 34.404C44.6945 34.8978 44.017 35.4282 43.181 36.0821ZM54.6492 27.8095C54.1762 26.3933 55.2045 24.4286 57.1473 22.8846C59.4172 21.0809 62.2247 20.6747 64.2591 21.9154C61.0599 23.8773 57.8948 25.8187 54.6492 27.8095Z" fill="black"></path>
<path d="M18.7425 162.067C18.4801 162.081 18.3609 162.099 18.2433 162.092C16.1626 161.976 15.1316 162.512 14.5367 164.486C14.0004 166.264 13.7564 168.133 13.4372 169.97C13.172 171.499 12.9878 173.041 12.7627 174.576C12.4517 176.694 11.3891 178.337 9.70622 179.653C7.50452 181.374 5.49223 183.303 3.79533 185.539C1.33713 188.777 -0.0656369 192.373 0.00236311 196.496C0.0265631 197.957 0.290684 199.351 0.869184 200.676C2.73408 204.943 5.69001 208.233 9.78471 210.472C11.157 211.222 12.62 211.728 14.1801 211.93C14.5298 211.975 14.8737 212.067 15.3329 212.162C16.1617 220.762 17.6437 229.251 19.7102 237.809H21.4913C21.44 237.68 21.3952 237.565 21.3702 237.445C20.3994 232.77 19.3734 228.106 18.4817 223.415C17.1194 216.251 16.2214 209.02 15.9527 201.729C15.8149 197.992 15.912 194.246 15.9347 190.504C15.9375 190.048 15.9946 189.459 16.2724 189.162C17.5052 187.846 18.8609 186.737 20.7842 186.485C24.55 185.993 28.2098 185.067 31.6382 183.375C33.3264 182.542 34.8906 181.522 36.1801 180.127C37.7622 178.417 38.7013 176.413 38.5181 174.062C38.2381 170.465 36.7706 167.377 34.0638 164.966C32.5946 163.658 30.8118 163.193 28.837 163.498C26.7586 163.819 25.0315 164.842 23.414 166.107C23.0855 166.365 22.7564 166.622 22.3754 166.921C21.9458 164.837 21.6857 164.115 20.7261 163.274C20.1437 162.764 20.0832 162.292 20.2881 161.607C21.2239 158.482 22.0306 155.315 23.0502 152.218C26.0536 143.099 30.0241 134.435 35.5046 126.513C39.9853 120.036 45.2858 114.349 51.8591 109.948C60.7551 103.993 70.4697 102.33 80.7093 105.333C92.9036 108.91 100.796 116.941 103.849 129.405C105.358 135.566 104.961 141.753 103.38 147.847C102.402 151.62 101.194 155.333 100.086 159.072C98.8773 163.148 98.1296 167.28 98.5579 171.556C98.5684 171.662 98.4992 171.775 98.4675 171.883C97.0885 172.329 95.7114 172.725 94.3709 173.221C93.0355 173.716 91.6831 174.214 90.5157 175.224C92.5456 174.581 94.4382 173.853 96.3937 173.387C103.661 171.654 111.031 171.235 118.457 171.992C121.474 172.3 124.431 172.94 127.249 174.111C129.177 174.912 130.957 175.946 132.431 177.455C134.139 179.204 135.101 181.297 135.302 183.73C135.465 185.702 135.227 187.625 134.488 189.473C132.353 194.815 129.361 199.624 125.475 203.868C125.052 204.329 124.533 204.726 123.999 205.056C122.463 206.008 121.087 207.14 119.903 208.503C119.714 208.721 119.565 208.973 119.397 209.209C119.814 209.037 120.078 208.745 120.384 208.506C121.449 207.674 122.462 206.753 123.612 206.06C126.992 204.023 130.638 203.585 134.419 204.679C136.943 205.41 137.94 207.337 137.277 209.871C136.896 211.326 136.148 212.589 135.203 213.734C132.711 216.748 129.547 218.718 125.755 219.649C123.839 220.12 121.886 220.169 119.945 219.822C115.95 219.111 112.846 216.92 110.306 213.857C110 213.488 109.852 212.952 109.735 212.468C109.538 211.658 109.526 210.793 109.252 210.015C108.921 209.075 109.099 208.294 109.65 207.557C110.15 206.889 110.671 206.232 111.243 205.626C112.007 204.815 112.843 204.073 113.624 203.277C117.74 199.086 120.674 194.168 122.552 188.618C123.234 186.603 123.55 184.519 123.378 182.384C123.315 181.603 123.195 180.836 122.714 180.178C122.79 181.108 122.867 182.038 122.947 183.015C122.672 182.985 122.545 182.999 122.445 182.955C119.047 181.482 115.465 180.767 111.806 180.406C108.032 180.033 104.259 179.873 100.521 180.777C98.1942 181.341 95.9043 182.008 93.7931 183.169C93.0521 183.577 92.2868 183.972 91.6374 184.796C91.9135 184.728 92.0293 184.724 92.1199 184.674C95.0726 183.041 98.3446 182.543 101.602 181.983C102.24 181.874 102.631 182.065 102.975 182.623C103.623 183.672 104.345 184.676 105.048 185.69C108.088 190.077 111.086 194.489 113.651 199.178C113.874 199.586 114.075 200.007 114.29 200.43C112.174 202.617 110.135 204.725 108.097 206.832C105.096 203.708 104.987 203.626 103.529 203.402C106.085 205.428 107.38 208.117 108.006 211.156C108.634 214.2 108.363 217.144 106.741 219.915C108.689 219.165 109.151 217.401 109.679 215.532C112.639 218.678 116.143 220.588 120.189 221.444C120.669 226.978 120.424 232.371 120.123 237.809H122.594C122.557 232.433 123.267 227.142 122.674 221.712C123.221 221.635 123.714 221.553 124.21 221.5C128.828 221.002 132.598 218.883 135.648 215.444C137.174 213.724 138.328 211.787 138.738 209.474C139.268 206.491 137.904 204.277 134.982 203.496C132.465 202.823 129.939 202.893 127.43 203.591C127.093 203.685 126.757 203.784 126.308 203.72C126.599 203.419 126.89 203.117 127.183 202.817C130.289 199.632 132.953 196.126 134.939 192.128C136.123 189.743 136.855 187.257 136.802 184.554C136.728 180.713 135.184 177.632 132.175 175.276C129.679 173.321 126.786 172.212 123.743 171.488C119.059 170.373 114.297 170.03 109.506 170.398C106.693 170.615 103.897 171.055 101.093 171.388C100.862 171.415 100.626 171.391 100.279 171.391C100.236 170.993 100.184 170.609 100.154 170.224C99.9028 166.962 100.447 163.787 101.293 160.663C102.344 156.783 103.512 152.936 104.577 149.06C105.69 145.007 106.23 140.877 106.186 136.665C106.018 120.755 95.5452 107.413 80.0842 103.625C69.667 101.073 59.9274 102.785 51.0049 108.779C43.6846 113.697 37.8955 120.109 33.0932 127.449C27.6209 135.813 23.7441 144.907 20.8594 154.444C20.2261 156.538 19.6963 158.664 19.1161 160.774C19.0018 161.191 18.8767 161.604 18.7425 162.067ZM15.2857 211.674C14.2168 211.285 13.3278 211.055 12.5256 210.653C7.74716 208.26 4.32313 204.567 2.18413 199.681C1.66763 198.501 1.46772 197.256 1.45732 195.96C1.42922 192.496 2.53976 189.393 4.36796 186.512C6.15376 183.699 8.40594 181.287 10.9148 179.115C11.8432 178.311 12.546 177.37 12.9598 176.226C13.2436 175.442 13.519 174.646 13.6863 173.831C14.1191 171.728 14.4437 169.601 14.9064 167.505C15.1268 166.506 15.49 165.521 15.9246 164.592C16.3212 163.747 17.0797 163.243 18.0618 163.368C19.5702 163.561 20.7778 164.251 21.4283 165.703C21.8527 166.649 21.8999 167.547 21.0597 168.326C20.9126 168.463 20.8258 168.664 20.7115 168.835C21.2685 168.585 21.6941 168.232 22.1261 167.886C23.5641 166.735 25.0943 165.744 26.8672 165.176C29.9075 164.203 32.4863 164.926 34.4017 167.464C35.1826 168.499 35.8172 169.683 36.3224 170.881C37.668 174.076 37.0333 176.954 34.6766 179.467C33.5216 180.7 32.1517 181.652 30.6836 182.47C27.8467 184.049 24.8072 185.1 21.6713 185.889C21.3314 185.974 20.9613 185.996 20.6108 185.97C18.6263 185.823 16.8888 186.47 15.4624 187.781C14.4471 188.716 13.4978 189.772 12.7265 190.913C10.6677 193.961 9.49333 197.373 8.94133 201.001C8.85693 201.555 8.86948 202.125 8.83708 202.688C8.92778 202.704 9.01872 202.72 9.10942 202.737C10.5409 198.713 12.047 194.727 14.6951 191.265C14.4772 198.003 14.753 204.692 15.2857 211.674ZM122.796 184.199C123.075 188.129 119.681 194.574 116.008 198.337C115.858 198.151 115.704 197.979 115.572 197.791C113.485 194.835 111.405 191.876 109.318 188.921C107.918 186.94 106.507 184.968 105.112 182.983C104.872 182.642 104.692 182.259 104.367 181.689C110.798 181.56 116.884 182.037 122.796 184.199Z" fill="black"></path>
<path d="M95.5504 85.1539C103.385 82.9494 110.651 79.4398 117.16 74.2198C122.715 69.7654 127.228 64.4363 129.971 57.8151C135.042 45.5731 133.424 34.0418 125.827 23.3149C121.533 17.2533 115.84 12.7508 109.357 9.21852C102.467 5.46522 95.0981 3.15613 87.3488 2.00352C81.29 1.10213 75.2091 0.955032 69.1237 1.56813C57.1646 2.77343 46.13 6.52283 36.4099 13.7486C31.96 17.0563 28.152 20.9888 25.1427 25.666C17.0328 38.2722 17.3887 53.2729 26.0903 65.4729C30.1866 71.2165 35.4573 75.6431 41.5289 79.1555C47.7923 82.7787 54.5275 85.132 61.6071 86.5494C62.2658 86.6812 62.7738 86.6041 63.3413 86.1225C67.5261 82.565 74.6997 83.6098 78.391 87.6662C79.7879 89.2026 94.475 85.6227 95.5504 85.1539Z" fill="#FFF600"></path>
<path d="M106.742 219.915C108.364 217.144 108.634 214.2 108.007 211.156C107.381 208.117 106.086 205.428 103.53 203.402C104.988 203.626 105.096 203.708 108.097 206.832C110.136 204.725 112.175 202.617 114.291 200.43C114.075 200.007 113.875 199.586 113.651 199.178C111.086 194.489 108.088 190.077 105.049 185.69C104.345 184.676 103.624 183.672 102.976 182.623C102.631 182.065 102.24 181.874 101.603 181.983C98.3452 182.543 95.0732 183.041 92.1205 184.674C92.0299 184.724 91.914 184.728 91.6379 184.796C92.2873 183.972 93.0527 183.577 93.7937 183.169C95.9049 182.008 98.1947 181.341 100.522 180.777C104.259 179.873 108.032 180.033 111.807 180.406C115.466 180.767 119.047 181.482 122.445 182.955C122.546 182.999 122.673 182.985 122.947 183.015C122.867 182.038 122.791 181.108 122.715 180.178C123.196 180.836 123.316 181.603 123.378 182.384C123.55 184.519 123.234 186.603 122.553 188.618C120.675 194.168 117.74 199.086 113.625 203.277C112.843 204.073 112.008 204.815 111.243 205.626C110.672 206.232 110.15 206.889 109.651 207.557C109.1 208.294 108.922 209.075 109.253 210.015C109.526 210.793 109.539 211.658 109.735 212.468C109.853 212.952 110 213.488 110.307 213.857C112.846 216.92 115.951 219.111 119.945 219.822C121.887 220.169 123.84 220.12 125.755 219.649C129.548 218.718 132.711 216.748 135.203 213.734C136.149 212.589 136.897 211.326 137.278 209.871C137.941 207.337 136.943 205.41 134.42 204.679C130.639 203.585 126.992 204.023 123.612 206.06C122.462 206.753 121.449 207.674 120.385 208.506C120.079 208.745 119.814 209.037 119.397 209.209C119.565 208.973 119.714 208.721 119.903 208.503C121.087 207.14 122.463 206.008 123.999 205.056C124.534 204.726 125.053 204.329 125.475 203.868C129.361 199.624 132.354 194.815 134.489 189.473C135.228 187.625 135.466 185.702 135.302 183.73C135.102 181.297 134.139 179.204 132.432 177.455C130.958 175.946 129.178 174.912 127.249 174.111C124.432 172.94 121.474 172.3 118.458 171.992C111.031 171.235 103.662 171.654 96.3943 173.387C94.4388 173.853 92.5461 174.581 90.5162 175.224C91.6836 174.214 93.0361 173.716 94.3715 173.221C95.712 172.725 97.089 172.329 98.468 171.883C98.4997 171.775 98.569 171.662 98.5585 171.556C98.1302 167.28 98.8779 163.148 100.086 159.072C101.195 155.333 102.403 151.62 103.381 147.847C104.962 141.753 105.358 135.566 103.849 129.405C100.796 116.941 92.9041 108.91 80.7098 105.333C70.4702 102.33 60.7556 103.993 51.8596 109.948C45.2863 114.349 39.9858 120.036 35.5051 126.513C30.0246 134.435 26.0542 143.099 23.0508 152.218C22.0312 155.315 21.2245 158.482 20.2887 161.607C20.0838 162.292 20.1443 162.764 20.7267 163.274C21.6863 164.115 21.9464 164.837 22.376 166.921C22.757 166.622 23.0861 166.365 23.4145 166.107C25.0321 164.842 26.7591 163.819 28.8375 163.498C30.8123 163.193 32.5951 163.658 34.0643 164.966C36.7711 167.377 38.2387 170.465 38.5187 174.062C38.7019 176.413 37.7628 178.417 36.1807 180.127C34.8912 181.522 33.327 182.542 31.6388 183.375C28.2104 185.067 24.5506 185.993 20.7848 186.485C18.8615 186.737 17.5057 187.846 16.2729 189.162C15.9951 189.459 15.9381 190.048 15.9353 190.504C15.9126 194.246 15.8154 197.992 15.9532 201.729C16.2219 209.02 17.12 216.251 18.4823 223.415C19.374 228.106 20.3999 232.77 21.3707 237.445C21.3957 237.565 21.4405 237.68 21.4918 237.809H120.123C120.425 232.371 120.669 226.978 120.19 221.444C116.144 220.588 112.64 218.678 109.679 215.532C109.152 217.401 108.689 219.165 106.742 219.915ZM81.6517 148.492C81.6061 148.565 81.5599 148.637 81.5143 148.711C81.2443 148.565 80.9745 148.421 80.7052 148.275C79.3072 147.515 77.9341 146.704 76.5066 146.004C72.099 143.845 67.4496 142.588 62.5387 142.245C59.3856 142.025 56.2565 142.17 53.1237 142.481C52.7704 142.516 52.4107 142.486 52.0543 142.486C52.0473 142.413 52.0399 142.341 52.0331 142.269C53.794 141.899 55.5549 141.529 57.37 141.147C57.2324 140.783 57.1426 140.524 57.0377 140.27C56.1609 138.144 55.7468 135.923 55.7496 133.633C55.7558 128.512 57.2154 123.828 60.1008 119.599C61.4835 117.572 63.1783 115.847 65.2689 114.537C67.701 113.013 70.3512 112.214 73.2206 112.514C78.8684 113.104 82.9585 115.985 85.3335 121.162C87.3418 125.541 87.7434 130.127 86.7029 134.814C85.6503 139.556 83.2789 143.435 79.0386 146.017C78.9521 146.069 78.9038 146.185 78.8171 146.298C79.7755 147.04 80.7135 147.766 81.6517 148.492ZM53.0808 156.376C57.3801 156.304 61.5374 156.658 65.6681 157.351C69.8075 158.046 73.8821 159.007 77.9769 160.449C77.9769 159.82 77.9344 159.38 77.984 158.951C78.2245 156.881 79.0736 155.194 81.1296 154.395C83.2972 153.554 85.1967 154.731 85.453 157.029C85.4924 157.382 85.4867 157.745 85.4618 158.1C85.3617 159.516 84.8608 160.811 84.2264 162.063C84.051 162.408 83.8741 162.754 83.6731 163.148C84.3662 163.588 85.0064 163.983 85.6337 164.397C86.2318 164.791 86.8264 165.192 87.4044 165.615C87.9751 166.033 88.523 166.483 89.0806 166.919C88.7058 166.95 88.4662 166.821 88.2369 166.675C83.9699 163.973 79.3827 161.981 74.5509 160.546C69.0761 158.921 63.4737 157.933 57.7948 157.426C54.4179 157.125 51.0302 157.181 47.6794 157.822C46.4848 158.05 45.294 158.296 44.1012 158.533C44.0686 158.453 44.0361 158.373 44.0032 158.293C44.8292 157.879 45.6549 157.465 46.4623 157.06C46.1623 156.38 45.8366 155.781 45.6291 155.143C45.1222 153.585 45.2143 152.07 46.188 150.698C47.6136 148.688 50.1047 148.654 51.4543 150.704C52.0096 151.547 52.345 152.563 52.6304 153.544C52.8822 154.409 52.9247 155.333 53.0808 156.376Z" fill="#FF6600"></path>
<path d="M15.2859 211.675C14.7532 204.693 14.4774 198.003 14.6953 191.266C12.0472 194.728 10.5412 198.714 9.10965 202.737C9.01895 202.721 8.92801 202.705 8.83731 202.688C8.86971 202.126 8.85716 201.556 8.94156 201.002C9.49356 197.374 10.6679 193.961 12.7267 190.914C13.498 189.772 14.4474 188.716 15.4627 187.782C16.8891 186.471 18.6265 185.823 20.611 185.971C20.9615 185.997 21.3316 185.975 21.6715 185.89C24.8074 185.101 27.847 184.05 30.6839 182.47C32.152 181.653 33.5218 180.7 34.6768 179.468C37.0335 176.954 37.6683 174.076 36.3227 170.882C35.8175 169.683 35.1828 168.5 34.4019 167.464C32.4865 164.926 29.9078 164.204 26.8675 165.177C25.0946 165.745 23.5644 166.736 22.1264 167.887C21.6944 168.233 21.2687 168.586 20.7117 168.835C20.826 168.664 20.9129 168.463 21.06 168.327C21.9002 167.547 21.8529 166.649 21.4285 165.703C20.778 164.251 19.5704 163.562 18.062 163.369C17.0799 163.243 16.3214 163.748 15.9248 164.593C15.4902 165.521 15.127 166.507 14.9066 167.505C14.4439 169.602 14.1194 171.729 13.6866 173.832C13.5193 174.646 13.2438 175.443 12.96 176.227C12.5462 177.37 11.8435 178.311 10.9151 179.115C8.40617 181.287 6.154 183.699 4.3682 186.513C2.54 189.393 1.42945 192.496 1.45755 195.961C1.46795 197.257 1.66786 198.502 2.18436 199.682C4.32336 204.568 7.74739 208.261 12.5258 210.654C13.328 211.056 14.217 211.285 15.2859 211.675Z" fill="#FF6600"></path>
<path d="M122.796 184.199C116.885 182.037 110.798 181.56 104.367 181.689C104.693 182.259 104.873 182.642 105.112 182.983C106.507 184.968 107.919 186.94 109.318 188.921C111.405 191.876 113.486 194.835 115.572 197.791C115.704 197.979 115.859 198.151 116.008 198.337C119.681 194.574 123.075 188.129 122.796 184.199Z" fill="#4D2E60"></path>
<path d="M70.3867 84.9606C68.119 85.0601 65.6979 85.807 63.8169 87.8262C62.6085 89.1236 62.0745 90.6554 62.412 92.4373C62.6536 93.7146 63.3589 94.6971 64.3703 95.4774C67.8325 98.1491 73.8521 97.7834 76.958 94.7155C79.7476 91.9596 79.2553 88.1363 75.8428 86.1937C74.2846 85.3062 72.5836 84.9504 70.3867 84.9606Z" fill="#FFF600"></path>
<path d="M81.6519 148.492C80.7137 147.766 79.7757 147.04 78.8173 146.298C78.904 146.185 78.9522 146.07 79.0387 146.017C83.279 143.435 85.6504 139.556 86.703 134.815C87.7435 130.128 87.3419 125.541 85.3336 121.162C82.9586 115.986 78.8685 113.105 73.2207 112.514C70.3513 112.214 67.7011 113.013 65.269 114.538C63.1784 115.847 61.4837 117.573 60.101 119.599C57.2156 123.829 55.756 128.513 55.7498 133.633C55.747 135.923 56.161 138.145 57.0378 140.27C57.1427 140.524 57.2325 140.784 57.3701 141.148C55.555 141.529 53.7941 141.9 52.0332 142.269C52.04 142.341 52.0474 142.414 52.0544 142.486C52.4108 142.486 52.7705 142.516 53.1238 142.482C56.2566 142.17 59.3857 142.025 62.5388 142.246C67.4497 142.588 72.0991 143.845 76.5067 146.004C77.9342 146.704 79.3073 147.515 80.7053 148.275C80.9746 148.421 81.2444 148.566 81.5144 148.711C81.56 148.638 81.6063 148.565 81.6519 148.492ZM58.043 141.158C57.2116 139.37 56.8442 137.657 56.7411 135.905C56.3947 130.042 57.9923 124.727 61.4133 119.967C62.8231 118.006 64.5531 116.37 66.6855 115.2C69.4589 113.679 72.3739 113.283 75.4542 114.091C79.6079 115.18 82.4078 117.821 84.1296 121.662C86.0844 126.023 86.3968 130.567 85.4209 135.213C84.7267 138.516 83.3139 141.469 80.8976 143.869C80.1181 144.644 79.2155 145.295 78.3353 146.031C72.0781 141.992 65.3315 140.462 58.043 141.158Z" fill="black"></path>
<path d="M53.0815 156.376C52.9254 155.334 52.8829 154.409 52.6311 153.545C52.3457 152.564 52.0104 151.547 51.4551 150.704C50.1055 148.655 47.6143 148.689 46.1887 150.699C45.215 152.071 45.123 153.586 45.6299 155.144C45.8374 155.781 46.163 156.381 46.463 157.061C45.6556 157.465 44.8299 157.88 44.0039 158.294C44.0368 158.374 44.0693 158.454 44.1019 158.534C45.2947 158.296 46.4856 158.051 47.6802 157.823C51.031 157.182 54.4186 157.125 57.7955 157.427C63.4744 157.933 69.0768 158.921 74.5516 160.547C79.3834 161.981 83.9707 163.973 88.2377 166.676C88.467 166.821 88.7065 166.95 89.0813 166.919C88.5237 166.483 87.9759 166.034 87.4052 165.615C86.8272 165.192 86.2325 164.792 85.6344 164.397C85.0071 163.983 84.3669 163.589 83.6738 163.149C83.8748 162.755 84.0518 162.409 84.2272 162.063C84.8616 160.811 85.3624 159.517 85.4625 158.1C85.4874 157.745 85.4931 157.383 85.4537 157.03C85.1974 154.731 83.298 153.554 81.1304 154.396C79.0744 155.194 78.2252 156.881 77.9847 158.952C77.9351 159.38 77.9777 159.82 77.9777 160.449C73.8829 159.008 69.8082 158.046 65.6688 157.352C61.5381 156.659 57.3808 156.305 53.0815 156.376ZM78.2277 160.523C78.5154 158.625 79.1835 157.059 80.6223 155.901C81.3659 155.303 82.2195 154.912 83.1569 155.297C84.1453 155.703 84.3205 156.676 84.3284 157.596C84.3449 159.4 83.8389 161.097 83.0991 162.793C81.4521 162.026 79.8826 161.294 78.2277 160.523ZM52.3026 156.295C50.4427 156.519 48.6898 156.73 46.972 156.937C46.0722 155.444 46.1943 152.909 46.823 151.695C47.7456 149.915 49.2643 149.723 50.4597 151.311C51.5576 152.77 51.9816 154.49 52.3026 156.295Z" fill="black"></path>
<path d="M58.0436 141.158C65.3321 140.461 72.0787 141.992 78.3359 146.03C79.2161 145.294 80.1187 144.643 80.8982 143.869C83.3145 141.468 84.7273 138.515 85.4215 135.212C86.3974 130.567 86.085 126.022 84.1302 121.661C82.4084 117.821 79.6085 115.18 75.4548 114.09C72.3745 113.282 69.4595 113.679 66.6861 115.2C64.5537 116.369 62.8237 118.005 61.4139 119.967C57.9929 124.726 56.3953 130.041 56.7417 135.904C56.8448 137.656 57.2122 139.369 58.0436 141.158Z" fill="white"></path>
<path d="M78.2266 160.523C79.8815 161.294 81.451 162.026 83.098 162.793C83.8378 161.097 84.3438 159.4 84.3273 157.596C84.3194 156.676 84.1442 155.702 83.1558 155.297C82.2184 154.912 81.3648 155.303 80.6212 155.901C79.1824 157.059 78.5143 158.625 78.2266 160.523Z" fill="white"></path>
<path d="M52.3025 156.294C51.9815 154.489 51.5575 152.769 50.4596 151.31C49.2642 149.722 47.7455 149.915 46.8229 151.695C46.1942 152.909 46.0722 155.443 46.972 156.937C48.6898 156.73 50.4426 156.518 52.3025 156.294Z" fill="white"></path>
<path d="M62.4355 92.5495C62.6964 93.7724 63.3895 94.72 64.3711 95.4774C67.8333 98.1491 73.853 97.7834 76.9589 94.7155C79.3522 92.3514 79.3294 89.2012 77.1201 87.1271C77.5002 88.7919 76.9575 90.6203 75.4302 92.1286C72.3243 95.1968 66.3048 95.5625 62.8425 92.8905C62.7003 92.7811 62.5648 92.6675 62.4355 92.5495Z" fill="#FFDA00"></path>
<path d="M74.8012 113.522C78.0288 115.35 79.2712 119.257 77.5766 122.25C75.8818 125.242 71.8917 126.186 68.6641 124.358C65.4366 122.531 64.1942 118.623 65.8887 115.631C67.5836 112.638 71.5737 111.694 74.8012 113.522Z" fill="black"></path>
<path d="M71.3046 113.94C72.5422 114.641 73.0187 116.14 72.3687 117.287C71.7191 118.435 70.1888 118.797 68.9509 118.096C67.713 117.395 67.2365 115.896 67.8862 114.749C68.5362 113.601 70.0667 113.239 71.3046 113.94Z" fill="white"></path>
<path d="M58.0436 141.158C65.3321 140.461 72.0787 141.992 78.3359 146.03C79.2161 145.294 80.1187 144.643 80.8982 143.869C83.3145 141.468 84.7273 138.515 85.4215 135.212C85.4841 134.914 85.5417 134.616 85.5935 134.318C82.6818 137.839 78.3612 140.07 73.5381 140.07C65.7777 140.07 59.3188 134.295 57.9361 126.664C56.9547 129.575 56.5498 132.656 56.7417 135.904C56.8448 137.656 57.2122 139.369 58.0436 141.158Z" fill="#E9E9CF"></path>
<path d="M82.9779 112.861C83.3289 114.002 84.5393 114.643 85.681 114.293C86.8228 113.942 87.4637 112.731 87.1128 111.59C86.6606 110.116 85.1367 108.615 83.3147 107.657C81.6932 106.805 79.7393 106.3 78.0271 106.556C76.8431 106.729 76.024 107.829 76.1969 109.013C76.3701 110.198 77.4704 111.017 78.6543 110.844C79.415 110.73 80.4074 111.019 81.2978 111.487C82.1827 111.952 82.8637 112.488 82.9779 112.861Z" fill="#373435"></path>
<path d="M106.741 219.915C108.363 217.144 108.634 214.2 108.006 211.156C107.38 208.117 106.085 205.428 103.529 203.402C104.987 203.626 105.095 203.708 108.097 206.832C110.135 204.725 112.174 202.617 114.29 200.43C114.075 200.007 113.874 199.586 113.651 199.178C111.086 194.489 108.088 190.077 105.048 185.69C104.345 184.676 103.623 183.672 102.975 182.623C102.631 182.065 102.24 181.874 101.602 181.983C98.7338 182.476 95.854 182.921 93.1909 184.135C98.8582 204.597 111.379 220.006 98.5577 237.809H120.123C120.424 232.371 120.668 226.978 120.189 221.444C116.143 220.588 112.639 218.678 109.679 215.532C109.151 217.401 108.688 219.165 106.741 219.915ZM93.0435 183.592C93.2926 183.441 93.5444 183.306 93.793 183.169C95.9042 182.008 98.194 181.341 100.521 180.777C104.259 179.873 108.032 180.033 111.806 180.406C115.465 180.767 119.047 181.482 122.444 182.955C122.545 182.999 122.672 182.985 122.946 183.015C122.867 182.038 122.79 181.108 122.714 180.178C123.195 180.836 123.315 181.603 123.378 182.384C123.55 184.519 123.234 186.603 122.552 188.618C120.674 194.168 117.74 199.086 113.624 203.277C112.843 204.073 112.007 204.815 111.243 205.626C110.671 206.232 110.15 206.889 109.65 207.557C109.099 208.294 108.921 209.075 109.252 210.015C109.525 210.793 109.538 211.658 109.734 212.468C109.852 212.952 109.999 213.488 110.306 213.857C112.846 216.92 115.95 219.111 119.944 219.822C121.886 220.169 123.839 220.12 125.755 219.649C129.547 218.718 132.711 216.748 135.203 213.734C136.148 212.589 136.896 211.326 137.277 209.871C137.94 207.337 136.943 205.41 134.419 204.679C130.638 203.585 126.991 204.023 123.611 206.06C122.462 206.753 121.448 207.674 120.384 208.506C120.078 208.745 119.814 209.037 119.396 209.209C119.564 208.973 119.713 208.721 119.903 208.503C121.087 207.14 122.463 206.008 123.999 205.056C124.533 204.726 125.052 204.329 125.475 203.868C129.361 199.624 132.353 194.815 134.488 189.473C135.227 187.625 135.465 185.702 135.302 183.73C135.101 181.297 134.139 179.204 132.431 177.455C130.957 175.946 129.177 174.912 127.249 174.111C124.431 172.94 121.474 172.3 118.457 171.992C111.03 171.235 103.661 171.654 96.3936 173.387C94.683 173.795 93.0208 174.403 91.2727 174.979C91.6818 177.955 92.296 180.821 93.0435 183.592ZM91.233 174.678C92.221 174.016 93.3012 173.617 94.3707 173.221C95.7112 172.725 97.0883 172.329 98.4673 171.883C98.499 171.775 98.5682 171.662 98.5577 171.556C98.1294 167.28 98.8772 163.148 100.086 159.072C101.194 155.333 102.402 151.62 103.38 147.847C104.961 141.753 105.358 135.566 103.849 129.405C102.81 125.163 101.209 121.434 99.07 118.22C100.621 126.238 99.0679 135.899 95.6519 144.02C90.7794 155.603 90.0396 165.652 91.233 174.678Z" fill="#E75409"></path>
<path d="M95.5491 85.1539C103.383 82.9494 110.649 79.4398 117.159 74.2198C122.713 69.7654 127.227 64.4363 129.97 57.8151C133.854 48.4398 133.814 39.4815 130.17 30.9818C130.225 31.7018 130.254 32.426 130.254 33.1557C130.254 55.2781 104.78 73.2121 73.3558 73.2121C48.1598 73.2121 26.792 61.6813 19.3105 45.7075C19.4706 52.5634 21.7352 59.3685 26.089 65.4729C30.1853 71.2165 35.456 75.6431 41.5276 79.1555C47.791 82.7787 54.5261 85.132 61.6057 86.5494C62.2644 86.6812 62.7725 86.6041 63.34 86.1225C67.5248 82.565 74.6983 83.6098 78.3896 87.6662C79.7865 89.2026 94.4737 85.6227 95.5491 85.1539Z" fill="#FFDA00"></path>
<path d="M61.8974 77.3779V70.7869L77.2975 56.5276C78.6073 55.2601 79.7058 54.1193 80.593 53.1053C81.4943 52.0913 82.1774 51.0984 82.6421 50.1267C83.1069 49.1408 83.3393 48.0776 83.3393 46.9368C83.3393 45.6693 83.0505 44.5778 82.4731 43.6624C81.8957 42.7329 81.107 42.0217 80.1071 41.5288C79.1072 41.0218 77.9735 40.7683 76.706 40.7683C75.3822 40.7683 74.2273 41.0359 73.2415 41.5711C72.2557 42.1062 71.4952 42.8738 70.96 43.8737C70.4248 44.8736 70.1572 46.0636 70.1572 47.4438H61.4749C61.4749 44.6131 62.1157 42.1555 63.3973 40.0712C64.6788 37.9868 66.4745 36.3743 68.7841 35.2336C71.0938 34.0928 73.7555 33.5224 76.7694 33.5224C79.8677 33.5224 82.5647 34.0717 84.8603 35.1702C87.1699 36.2546 88.9655 37.7615 90.2471 39.6909C91.5287 41.6203 92.1695 43.8314 92.1695 46.3242C92.1695 47.9578 91.8456 49.5704 91.1978 51.1618C90.564 52.7532 89.4303 54.5207 87.7966 56.4642C86.163 58.3936 83.8603 60.7103 80.8888 63.4143L74.5724 69.6039V69.8997H92.7399V77.3779H61.8974Z" fill="#373435"></path>
<path d="M53.8879 10.7209V7.61375H68.5272V10.7209H63.0701V25.4385H59.345V10.7209H53.8879ZM70.8684 25.4385V12.0699H74.5761V25.4385H70.8684ZM72.731 10.3466C72.1797 10.3466 71.7069 10.1639 71.3123 9.79832C70.9235 9.42697 70.7292 8.9831 70.7292 8.46669C70.7292 7.95608 70.9235 7.51801 71.3123 7.15246C71.7069 6.78112 72.1797 6.59544 72.731 6.59544C73.2822 6.59544 73.7522 6.78112 74.1409 7.15246C74.5355 7.51801 74.7328 7.95608 74.7328 8.46669C74.7328 8.9831 74.5355 9.42697 74.1409 9.79832C73.7522 10.1639 73.2822 10.3466 72.731 10.3466ZM77.5462 30.4517V12.0699H81.2016V14.3154H81.367C81.5295 13.9557 81.7644 13.5901 82.072 13.2188C82.3853 12.8416 82.7915 12.5283 83.2905 12.2788C83.7953 12.0235 84.4219 11.8959 85.1704 11.8959C86.1452 11.8959 87.0446 12.1512 87.8685 12.6618C88.6924 13.1666 89.351 13.9296 89.8442 14.9508C90.3374 15.9662 90.584 17.2398 90.584 18.7716C90.584 20.2628 90.3432 21.5219 89.8616 22.5489C89.3858 23.5701 88.7359 24.3447 87.912 24.8728C87.0939 25.395 86.1771 25.6561 85.1617 25.6561C84.4422 25.6561 83.8301 25.5371 83.3253 25.2992C82.8263 25.0613 82.4172 24.7625 82.0981 24.4028C81.779 24.0372 81.5353 23.6688 81.367 23.2974H81.2538V30.4517H77.5462ZM81.1755 18.7542C81.1755 19.5491 81.2858 20.2425 81.5062 20.8343C81.7267 21.4262 82.0459 21.8875 82.4636 22.2182C82.8814 22.5431 83.3891 22.7056 83.9867 22.7056C84.5902 22.7056 85.1008 22.5402 85.5185 22.2095C85.9363 21.873 86.2525 21.4088 86.4672 20.8169C86.6877 20.2193 86.798 19.5317 86.798 18.7542C86.798 17.9825 86.6906 17.3036 86.4759 16.7176C86.2612 16.1316 85.945 15.6732 85.5273 15.3424C85.1095 15.0117 84.596 14.8463 83.9867 14.8463C83.3833 14.8463 82.8727 15.0059 82.4549 15.325C82.043 15.6442 81.7267 16.0967 81.5062 16.6828C81.2858 17.2688 81.1755 17.9593 81.1755 18.7542ZM99.096 25.6996C97.744 25.6996 96.5749 25.4124 95.5885 24.8379C94.6079 24.2577 93.8507 23.4512 93.3169 22.4184C92.7831 21.3798 92.5161 20.1758 92.5161 18.8064C92.5161 17.4255 92.7831 16.2186 93.3169 15.1858C93.8507 14.1472 94.6079 13.3406 95.5885 12.7662C96.5749 12.186 97.744 11.8959 99.096 11.8959C100.448 11.8959 101.614 12.186 102.595 12.7662C103.581 13.3406 104.341 14.1472 104.875 15.1858C105.409 16.2186 105.676 17.4255 105.676 18.8064C105.676 20.1758 105.409 21.3798 104.875 22.4184C104.341 23.4512 103.581 24.2577 102.595 24.8379C101.614 25.4124 100.448 25.6996 99.096 25.6996ZM99.1134 22.8274C99.7284 22.8274 100.242 22.6534 100.654 22.3052C101.066 21.9513 101.376 21.4697 101.585 20.8604C101.8 20.2512 101.907 19.5578 101.907 18.7803C101.907 18.0028 101.8 17.3094 101.585 16.7002C101.376 16.0909 101.066 15.6093 100.654 15.2554C100.242 14.9015 99.7284 14.7245 99.1134 14.7245C98.4925 14.7245 97.9703 14.9015 97.5468 15.2554C97.129 15.6093 96.8128 16.0909 96.5981 16.7002C96.3892 17.3094 96.2848 18.0028 96.2848 18.7803C96.2848 19.5578 96.3892 20.2512 96.5981 20.8604C96.8128 21.4697 97.129 21.9513 97.5468 22.3052C97.9703 22.6534 98.4925 22.8274 99.1134 22.8274Z" fill="#373435"></path>
</svg>