<svg width="897" height="1072" viewBox="0 0 897 1072" fill="none" xmlns="http://www.w3.org/2000/svg">
<path d="M4.51806 1071.03C3.84723 1067.19 3.22211 1063.63 2.65694 1060.07C-0.504741 1040.09 -0.710682 1020.03 1.33025 999.991C7.5783 938.688 31.3906 881.858 63.8089 827.386C103.722 760.32 154.469 699.719 216.555 646.002C240.146 625.59 262.446 604.237 282.245 581.043C307.169 551.849 323.461 519.381 334.497 484.768C344.182 454.395 354.071 424.064 364.507 393.87C370.916 375.333 378.387 357.048 387.968 339.456C401.291 314.997 418.396 292.743 441.434 273.98C469.695 250.962 503.014 236.511 541.981 231.932C573.35 228.246 604.044 231.543 633.92 239.876C707.814 260.483 765.973 298.741 809.329 353.301C837.776 389.098 857.017 428.405 870.523 469.838C881.072 502.204 887.722 535.174 891.714 568.569C896.346 607.303 897.366 646.121 895.161 684.97C891.415 750.973 880.931 816.16 860.236 879.996C844.815 927.561 822.831 972.979 796.957 1017.08C786.515 1034.88 775.544 1052.46 764.823 1070.15L764.292 1071.03H750.052C758.978 1056.96 768.354 1043.09 777.151 1028.95C805.505 983.411 829.328 936.264 845.647 886.578C867.709 819.395 878.275 750.685 881.894 681.185C884.34 634.214 882.5 587.326 874.46 540.704C868.128 503.986 858.243 468.036 842.611 433.316C825.819 396.023 803.139 361.644 771.829 331.588C770.121 329.949 768.331 328.369 767.263 327.39C752.107 329.934 737.815 332.33 723.631 334.709C729.893 342.131 736.729 349.101 742.029 356.827C747.412 364.673 751.281 373.265 755.88 381.655C760.449 381.09 765.097 380.515 769.592 379.958C771.085 382.683 770.125 383.872 767.434 384.425C763.698 385.196 759.987 386.063 756.197 386.903C756.819 391.701 757.375 396.003 757.967 400.573C760.843 400.356 763.128 400.185 765.708 399.991C766.788 405.871 759.58 403.554 758.297 406.368C756.234 415.18 754.62 424.164 751.113 432.584C741.323 456.092 723.106 474.279 699.335 488.656C697.478 489.778 695.633 490.91 693.782 492.038C697.776 496.571 701.47 500.435 704.718 504.548C707.983 508.686 710.803 513.077 714.418 518.208C712.78 517.672 712.509 517.655 712.385 517.532C709.602 514.709 706.817 511.887 704.066 509.042C681.074 485.278 651.208 473.926 615.178 473.72C594.778 473.601 575.029 476.957 555.567 481.816C553.395 482.36 551.206 482.844 549.026 483.356C548.849 482.959 548.67 482.56 548.492 482.161C558.337 478.242 568.184 474.32 578.252 470.315C577.21 469.596 576.231 468.9 575.228 468.233C550.082 451.466 539.611 429.492 542.787 402.663C543.068 400.312 543.237 397.949 543.443 395.77C539.82 393.571 536.567 391.733 533.495 389.696C530.605 387.776 527.804 385.718 526.229 382.823C529.462 384.209 532.217 386.006 535.179 387.512C538.045 388.971 541.123 390.132 544.545 391.611C555.926 353.059 582.462 327.39 627.093 316.709C621.89 311.199 616.454 306.184 612.046 300.587C606.697 293.795 604.631 286.616 605.461 281.732C606.047 282.772 606.572 283.564 606.956 284.403C611.933 295.251 620.619 303.517 631.814 310.029C641.216 315.497 651.545 319.317 662.41 322.106C687.282 328.489 712.761 329.94 738.522 328.354C746.892 327.839 755.196 326.555 763.53 325.625C763.587 325.142 763.646 324.661 763.706 324.178C753.826 315.125 743.178 306.739 731.682 299.176C686.203 269.263 635.995 248.464 577.991 243.545C534.244 239.832 494.322 248.766 459.143 271.513C433.404 288.156 414.74 309.673 400.055 333.868C390.182 350.134 383.207 367.363 376.32 384.634C363.169 417.613 353.004 451.315 342.615 484.956C330.828 523.123 312.505 558.575 284.323 590.227C264.516 612.476 242.626 633.149 219.665 653.038C167.522 698.204 123.714 748.619 87.6319 803.847C55.8899 852.428 31.2469 903.348 18.4838 958.055C10.0799 994.078 7.56409 1030.3 13.9332 1066.77C14.1795 1068.18 14.4791 1069.58 14.8099 1071.03H4.51806ZM551.315 399.625C548.82 409.774 548.857 419.769 551.972 429.703C557.371 446.925 570.801 458.806 588.123 467.916C589.881 468.842 592.642 468.678 594.913 468.58C604.227 468.172 613.548 467.002 622.837 467.194C646.738 467.688 668.61 473.396 686.984 487C687.772 487.586 688.741 487.997 689.865 488.62C700.71 482.499 710.2 475.275 718.594 467.02C733.505 452.354 743.764 435.76 747.258 416.451C747.735 413.81 747.713 411.103 747.938 408.2C746.086 408.344 744.995 408.336 743.953 408.525C719.62 412.971 694.936 414.167 670.13 414.31C640.728 414.481 611.487 413.048 582.77 407.327C572.461 405.275 562.388 402.364 551.315 399.625ZM744.591 383.012C744.476 381.747 744.534 381.18 744.365 380.667C738.878 364.043 728.583 349.71 715.263 336.814C713.419 335.028 711.243 334.379 708.409 334.32C701.257 334.17 694.087 333.927 686.97 333.324C669.331 331.828 652.295 328.375 636.778 320.808C633.643 319.281 631.011 319.064 627.648 320.091C611.242 325.111 596.772 332.686 584.688 343.345C580.066 347.42 575.998 351.943 571.295 356.646C574.15 359.18 576.362 361.409 578.891 363.339C585.089 368.069 592.334 371.399 599.997 374.086C615.982 379.693 632.789 382.39 649.872 384.049C673.025 386.296 696.238 386.222 719.453 385.013C727.836 384.575 736.188 383.694 744.591 383.012ZM552.554 393.952C585.834 406.65 671.319 410.019 709.917 405.336C703.255 402.874 701.073 398.21 700.043 392.934C698.177 392.839 696.689 392.723 695.199 392.694C681.539 392.419 667.85 392.539 654.228 391.799C637.507 390.892 621.08 388.287 605.393 383.054C591.812 378.525 579.808 372.16 571.7 361.473C571.238 360.865 570.936 360.167 570.141 358.778C561.397 370.381 556.001 381.64 552.554 393.952ZM742.675 388.777C732.788 389.831 723.279 390.846 713.062 391.935C720.765 397.366 734.411 395.71 742.675 388.777ZM747.763 393.564C744.651 395.964 742.597 397.767 740.278 399.277C737.961 400.783 735.38 401.993 732.913 403.334C733.086 403.607 733.256 403.88 733.427 404.153C738.189 403.516 742.952 402.879 747.763 402.235C747.763 399.292 747.763 396.969 747.763 393.564Z" fill="black"/>
<path d="M763.529 325.625C755.195 326.555 746.891 327.839 738.521 328.354C712.76 329.94 687.281 328.489 662.409 322.106C651.544 319.317 641.215 315.497 631.813 310.029C620.618 303.517 611.933 295.251 606.955 284.403C606.571 283.564 606.046 282.772 605.46 281.732C604.63 286.616 606.696 293.795 612.046 300.587C616.453 306.184 621.889 311.199 627.092 316.709C582.461 327.39 555.925 353.059 544.544 391.611C541.122 390.132 538.044 388.971 535.178 387.512C532.216 386.006 529.461 384.209 526.228 382.823C527.803 385.718 530.605 387.776 533.494 389.696C536.566 391.733 539.819 393.571 543.442 395.77C543.236 397.949 543.067 400.312 542.786 402.663C539.61 429.492 550.081 451.466 575.227 468.233C576.23 468.9 577.209 469.596 578.251 470.315C568.183 474.32 558.337 478.242 548.491 482.161C548.669 482.56 548.848 482.959 549.025 483.356C551.205 482.844 553.394 482.36 555.566 481.816C575.028 476.957 594.777 473.601 615.177 473.72C651.207 473.926 681.073 485.278 704.065 509.042C706.816 511.887 709.601 514.709 712.384 517.532C712.508 517.655 712.779 517.672 714.417 518.208C710.802 513.077 707.982 508.686 704.717 504.548C701.469 500.435 697.775 496.571 693.781 492.038C695.632 490.91 697.477 489.778 699.334 488.656C723.105 474.279 741.322 456.092 751.112 432.584C754.619 424.164 756.233 415.18 758.296 406.368C759.579 403.554 766.787 405.871 765.707 399.991C763.127 400.185 760.842 400.356 757.966 400.573C757.374 396.003 756.818 391.701 756.196 386.903C759.986 386.063 763.697 385.196 767.433 384.425C770.124 383.872 771.084 382.683 769.591 379.958C765.096 380.515 760.448 381.09 755.879 381.655C751.28 373.265 747.411 364.673 742.028 356.827C736.728 349.101 729.892 342.131 723.63 334.709C737.814 332.33 752.106 329.934 767.263 327.39C768.33 328.369 770.12 329.949 771.828 331.588C803.138 361.644 825.818 396.023 842.61 433.316C858.242 468.036 868.127 503.986 874.459 540.704C882.499 587.326 884.339 634.214 881.893 681.185C878.274 750.685 867.709 819.395 845.646 886.578C829.327 936.264 805.504 983.411 777.151 1028.95C768.353 1043.09 758.977 1056.96 750.051 1071.03H14.809C14.4782 1069.58 14.1785 1068.18 13.9322 1066.77C7.56313 1030.3 10.0789 994.078 18.4828 958.055C31.2459 903.348 55.8889 852.428 87.631 803.847C123.713 748.619 167.521 698.204 219.664 653.038C242.625 633.149 264.516 612.476 284.322 590.227C312.504 558.575 330.827 523.123 342.614 484.956C353.003 451.315 363.168 417.613 376.319 384.634C383.206 367.363 390.181 350.134 400.054 333.868C414.739 309.673 433.403 288.156 459.142 271.513C494.321 248.766 534.243 239.832 577.991 243.545C635.994 248.464 686.202 269.263 731.681 299.176C743.177 306.739 753.825 315.125 763.705 324.178C763.646 324.661 763.586 325.142 763.529 325.625ZM687.824 873.771C687.185 872.942 686.756 871.687 685.864 871.375C684.094 870.754 682.079 870.614 680.152 870.341C642.629 865.049 605.524 858.175 569 849.132C507.054 833.795 448.753 811.825 395.599 780.52C368.949 764.824 344.105 747.282 320.804 728.15C319.315 726.925 318.063 725.199 314.616 724.741C316.09 726.371 316.821 727.276 317.663 728.097C369.677 778.874 432.138 816.845 507.183 839.581C561.279 855.972 617.282 864.983 673.993 871.454C678.673 871.989 683.288 872.927 687.932 873.675C689.837 878.448 693.887 881.726 698.563 884.533C705.038 888.419 712.297 890.921 719.959 892.387C754.737 899.043 788.621 896.507 821.273 884.359C827.742 881.952 833.909 878.503 839.349 874.655C855.902 862.95 858.769 846.103 847.492 830.516C846.608 829.295 845.792 828.042 845.374 827.43C847.522 822.051 849.73 817.43 851.205 812.649C855.111 799.987 854.643 787.098 853.036 774.24C850.992 757.907 845.835 742.09 841.305 726.178C839.643 720.34 837.998 714.497 836.345 708.656C835.698 710.405 835.479 712.064 835.73 713.668C838.365 730.445 841.118 747.209 843.754 763.985C845.616 775.856 847.21 787.753 845.694 799.751C844.697 807.635 842.672 815.271 837.562 822.409C827.138 818.858 816.878 819.336 806.615 821.652C794.964 824.281 784.268 828.703 774.15 834.204C769.511 836.725 769.47 836.674 765.08 833.781C763.637 832.83 762.195 831.874 760.753 830.921C760.494 831.129 760.233 831.34 759.97 831.546C762.117 833.864 764.266 836.181 766.352 838.432C763.106 841.393 760.198 844.05 757.286 846.704C758.213 846.942 758.821 846.845 759.204 846.543C770.66 837.547 784.64 832.527 799.297 828.868C805.676 827.276 812.48 826.422 819.137 826.195C835.363 825.645 844.408 833.314 845.733 847.798C846.598 857.27 841.077 864.391 832.957 870.278C825.261 875.86 816.282 879.545 806.81 882.402C784.786 889.046 762.018 891.247 738.802 890.07C719.893 889.109 701.694 886.21 687.824 873.771ZM750.936 579.693C756.375 575.593 763.195 573.875 770.373 573.293C786.874 571.955 795.472 580.3 791.923 594.025C791.37 596.172 790.444 598.257 789.557 600.33C788.522 602.752 787.34 605.13 786.221 607.526C770.925 640.286 762.585 674.146 764.998 709.486C765.951 723.424 768.047 737.334 770.375 751.166C771.814 759.729 775.15 767.983 780.163 775.632C782.077 778.555 784.095 781.445 787.412 783.218C784.901 778.698 781.692 774.421 780.126 769.747C777.887 763.061 776.321 756.135 775.425 749.224C774.244 740.084 773.852 730.865 773.368 721.671C772.313 701.589 772.661 681.561 776.518 661.646C780.198 642.644 787.096 624.473 795.386 606.619C797.054 603.032 798.696 599.38 799.674 595.632C803.724 580.124 793.15 569.447 774.395 569.884C772.88 569.921 771.37 570.129 769.86 570.269C762.387 570.96 755.872 573.761 749.435 577.394C747.408 574.165 745.709 571.208 743.751 568.381C736.978 558.607 727.693 551.061 714.284 548.987C688.848 545.055 666.743 550.884 649.932 567.922C634.575 583.492 634.684 603.202 649.245 619.284C655.005 625.647 662.146 630.707 670.085 634.993C682.28 641.574 695.543 646.09 709.355 649.546C711.785 650.154 714.166 650.902 716.566 651.584C713.353 703.33 713.522 754.387 727.484 804.534C722.155 801.343 717.39 797.738 711.889 795.35C699.708 790.065 688.086 792.806 680.753 802.591C673.832 811.826 670.288 821.952 671.906 833.063C672.243 835.37 672.488 837.687 672.838 840.504C670.433 840.013 668.752 839.777 667.155 839.328C649.228 834.281 631.193 829.487 613.417 824.087C510.132 792.715 421.836 742.978 352.172 670.517C351.592 669.91 350.793 669.455 349.822 668.723C349.747 669.42 349.65 669.616 349.725 669.733C350.141 670.375 350.552 671.025 351.046 671.624C376.355 702.247 405.342 730.026 439.551 753.777C479.461 781.488 524.289 801.802 572.318 817.338C603.813 827.526 636.054 835.67 668.724 842.624C672.602 843.448 674.946 844.822 676.569 848.212C678.66 852.577 681.899 856.6 685.062 860.529C686.959 862.884 689.713 864.701 692.877 865.449C690.009 861.366 686.655 857.551 684.492 853.3C680.58 845.607 679.233 837.328 679.331 829.002C679.424 821.134 681.933 813.688 687.275 807.142C692.355 800.919 699.671 798.647 707.789 801.052C718.058 804.095 724.663 810.532 728.825 818.846C732.283 825.761 731.871 832.384 726.079 838.544C733.194 836.003 736.211 831.15 736.846 824.443C739.181 826.356 740.859 827.729 742.205 828.83C739.504 820.776 736.321 812.76 734.19 804.549C731.858 795.578 730.12 786.464 728.777 777.343C722.592 735.308 719.514 693.094 719.221 650.522C714.296 649.008 709.156 647.574 704.152 645.856C688.904 640.623 674.928 633.666 663.362 623.579C657.55 618.513 652.85 612.809 649.855 606.161C643.054 591.056 648.046 575.578 663.062 565.568C672.185 559.487 682.717 556.381 694.144 555.058C712.397 552.942 727.133 557.973 737.974 570.563C741.406 574.547 744.449 578.911 746.714 583.445C750.177 590.373 752.833 597.594 755.778 604.706C756.812 607.201 757.681 609.746 758.626 612.269C759.077 612.167 759.528 612.065 759.979 611.964C756.99 601.299 754.001 590.634 750.936 579.693ZM565.384 685.597C565.962 685.489 566.538 685.38 567.117 685.272C565.909 674.487 564.938 663.677 563.361 652.929C562.825 649.264 563.591 646.929 566.912 644.349C574.577 638.396 582.071 632.211 588.839 625.538C592.411 622.018 595.071 617.495 596.815 613.051C600.79 602.922 595.811 596.599 583.476 594.859C573.382 593.437 563.585 595.147 553.774 596.744C549.986 597.36 546.226 598.108 542.365 598.812C541.038 597.053 540.074 595.629 538.944 594.305C531.575 585.666 524.652 576.713 516.666 568.501C503.906 555.374 488.799 544.227 472.489 534.356C468.199 531.76 467.33 529.392 468.598 525.18C470.415 519.147 471.343 512.9 472.283 506.704C473.293 500.051 472.741 493.439 469.509 487.207C465.242 478.973 457.871 476.48 448.319 480.264C444.43 481.806 440.548 483.743 437.417 486.195C430.896 491.303 424.859 496.856 418.669 502.266C417.052 503.681 415.605 505.236 414.271 506.54C410.526 505.641 407.439 504.899 404.352 504.157C406.075 505.937 408.126 506.931 410.103 508.022C425.561 516.559 441.32 524.738 456.378 533.756C477.206 546.232 495.92 560.774 512.163 577.525C538.001 604.164 553.198 634.92 561.362 668.415C562.756 674.134 564.046 679.87 565.384 685.597Z" fill="#FF8300"/>
<path d="M551.315 399.627C562.388 402.366 572.461 405.277 582.771 407.329C611.487 413.05 640.729 414.483 670.13 414.311C694.937 414.168 719.62 412.972 743.953 408.527C744.995 408.338 746.086 408.346 747.939 408.201C747.714 411.105 747.735 413.811 747.258 416.453C743.764 435.761 733.505 452.355 718.594 467.022C710.2 475.277 700.71 482.501 689.865 488.622C688.742 487.998 687.772 487.588 686.984 487.002C668.61 473.397 646.738 467.69 622.838 467.196C613.549 467.004 604.227 468.174 594.913 468.582C592.642 468.68 589.882 468.844 588.123 467.917C570.801 458.808 557.372 446.927 551.972 429.705C548.857 419.771 548.82 409.775 551.315 399.627Z" fill="#D6580E"/>
<path d="M744.589 383.012C736.186 383.695 727.834 384.575 719.451 385.013C696.236 386.223 673.024 386.297 649.87 384.049C632.787 382.39 615.98 379.694 599.995 374.087C592.332 371.4 585.087 368.07 578.889 363.339C576.36 361.41 574.148 359.18 571.294 356.647C575.996 351.944 580.064 347.421 584.687 343.346C596.77 332.687 611.24 325.112 627.646 320.092C631.009 319.064 633.642 319.281 636.776 320.808C652.294 328.375 669.33 331.829 686.969 333.325C694.085 333.928 701.256 334.171 708.408 334.321C711.242 334.379 713.417 335.029 715.261 336.814C728.581 349.711 738.876 364.043 744.363 380.667C744.532 381.18 744.474 381.748 744.589 383.012Z" fill="#D6580E"/>
<path d="M552.552 393.953C555.999 381.641 561.394 370.382 570.139 358.779C570.934 360.168 571.236 360.866 571.697 361.474C579.806 372.161 591.81 378.526 605.391 383.055C621.077 388.288 637.504 390.893 654.225 391.8C667.848 392.54 681.537 392.42 695.197 392.695C696.687 392.724 698.175 392.84 700.041 392.935C701.071 398.211 703.253 402.875 709.915 405.337C671.317 410.02 585.832 406.651 552.552 393.953Z" fill="white"/>
<path d="M742.675 388.778C734.41 395.71 720.765 397.366 713.062 391.936C723.278 390.847 732.788 389.832 742.675 388.778Z" fill="white"/>
<path d="M747.764 393.564C747.764 396.97 747.764 399.292 747.764 402.236C742.952 402.88 738.19 403.517 733.428 404.153C733.257 403.881 733.087 403.608 732.914 403.335C735.381 401.994 737.962 400.784 740.279 399.278C742.598 397.767 744.652 395.964 747.764 393.564Z" fill="white"/>
<path d="M750.934 579.694C753.999 590.635 756.989 601.3 759.977 611.964C759.527 612.066 759.076 612.167 758.625 612.27C757.679 609.747 756.81 607.202 755.777 604.706C752.832 597.595 750.175 590.374 746.713 583.445C744.448 578.912 741.405 574.548 737.973 570.563C727.132 557.973 712.395 552.943 694.142 555.058C682.715 556.382 672.184 559.487 663.06 565.569C648.045 575.579 643.052 591.057 649.854 606.161C652.849 612.81 657.549 618.514 663.361 623.58C674.927 633.666 688.902 640.623 704.151 645.857C709.154 647.574 714.295 649.008 719.22 650.523C719.513 693.095 722.591 735.308 728.775 777.344C730.119 786.465 731.857 795.578 734.189 804.55C736.32 812.761 739.502 820.777 742.203 828.831C740.858 827.729 739.18 826.357 736.845 824.443C736.21 831.15 733.193 836.004 726.078 838.545C731.87 832.385 732.281 825.762 728.823 818.847C724.662 810.533 718.057 804.096 707.787 801.053C699.669 798.647 692.354 800.92 687.274 807.143C681.931 813.688 679.423 821.134 679.329 829.002C679.231 837.329 680.578 845.608 684.49 853.301C686.654 857.552 690.008 861.367 692.875 865.449C689.711 864.702 686.957 862.884 685.061 860.529C681.897 856.601 678.658 852.578 676.567 848.212C674.944 844.823 672.601 843.448 668.722 842.624C636.052 835.671 603.812 827.527 572.317 817.339C524.287 801.803 479.46 781.489 439.55 753.778C405.341 730.027 376.353 702.248 351.045 671.625C350.55 671.026 350.14 670.376 349.724 669.734C349.649 669.616 349.745 669.42 349.821 668.723C350.792 669.456 351.59 669.911 352.171 670.517C421.834 742.979 510.13 792.715 613.415 824.088C631.192 829.488 649.226 834.282 667.154 839.328C668.751 839.778 670.431 840.014 672.837 840.505C672.486 837.688 672.241 835.371 671.905 833.063C670.286 821.953 673.83 811.827 680.752 802.592C688.084 792.807 699.706 790.065 711.888 795.351C717.389 797.738 722.154 801.343 727.483 804.535C713.521 754.388 713.352 703.33 716.564 651.584C714.164 650.902 711.783 650.155 709.353 649.547C695.541 646.09 682.278 641.575 670.084 634.994C662.144 630.708 655.004 625.648 649.244 619.285C634.682 603.202 634.574 583.492 649.931 567.923C666.741 550.885 688.847 545.056 714.283 548.988C727.692 551.061 736.976 558.607 743.75 568.381C745.708 571.209 747.407 574.166 749.434 577.394C755.87 573.762 762.386 570.96 769.859 570.27C771.368 570.13 772.879 569.921 774.394 569.884C793.148 569.448 803.722 580.125 799.673 595.633C798.695 599.38 797.053 603.033 795.385 606.62C787.095 624.473 780.196 642.645 776.516 661.646C772.66 681.562 772.312 701.589 773.367 721.672C773.85 730.866 774.242 740.084 775.424 749.225C776.319 756.136 777.885 763.061 780.125 769.747C781.691 774.422 784.899 778.698 787.411 783.219C784.093 781.445 782.075 778.556 780.162 775.633C775.149 767.984 771.813 759.73 770.374 751.167C768.045 737.335 765.95 723.425 764.997 709.486C762.584 674.146 770.924 640.287 786.219 607.527C787.339 605.131 788.521 602.753 789.555 600.331C790.443 598.257 791.369 596.172 791.922 594.026C795.47 580.301 786.873 571.956 770.372 573.294C763.193 573.876 756.373 575.593 750.934 579.694Z" fill="black"/>
<path d="M565.385 685.598C564.046 679.871 562.756 674.134 561.362 668.415C553.198 634.921 538.001 604.165 512.163 577.525C495.92 560.775 477.206 546.233 456.378 533.757C441.32 524.738 425.561 516.56 410.103 508.023C408.127 506.931 406.076 505.938 404.353 504.158C407.439 504.899 410.527 505.641 414.271 506.541C415.605 505.237 417.053 503.681 418.669 502.267C424.859 496.857 430.897 491.303 437.417 486.195C440.548 483.744 444.431 481.807 448.32 480.264C457.871 476.48 465.242 478.973 469.509 487.207C472.742 493.439 473.293 500.052 472.283 506.705C471.344 512.901 470.415 519.148 468.599 525.18C467.33 529.392 468.199 531.76 472.489 534.357C488.8 544.228 503.907 555.375 516.666 568.501C524.652 576.713 531.575 585.666 538.944 594.306C540.075 595.63 541.039 597.053 542.365 598.813C546.226 598.109 549.987 597.361 553.774 596.744C563.585 595.147 573.383 593.437 583.477 594.86C595.812 596.6 600.79 602.923 596.815 613.052C595.071 617.496 592.412 622.019 588.84 625.539C582.072 632.211 574.578 638.397 566.913 644.35C563.592 646.929 562.825 649.265 563.361 652.93C564.938 663.677 565.909 674.487 567.117 685.272C566.539 685.381 565.963 685.49 565.385 685.598ZM417.257 506.974C432.397 513.745 446.995 520.274 462.172 527.063C462.675 519.743 463.292 512.83 463.573 505.909C463.735 501.891 463.79 497.801 463.125 493.838C461.837 486.167 457.24 483.998 448.993 487.239C436.881 492.001 427.289 499.704 417.257 506.974ZM562.279 641.974C570.813 632.744 580.24 624.382 587.204 614.383C588.182 612.978 588.931 611.403 589.435 609.826C590.515 606.443 589.374 603.978 585.594 602.57C582.873 601.56 579.805 600.744 576.877 600.704C567.148 600.572 557.41 600.807 547.677 600.978C546.705 600.995 545.745 601.527 545.118 601.717C550.795 615.034 556.35 628.067 562.279 641.974Z" fill="black"/>
<path d="M687.822 873.779C701.693 886.212 719.892 889.111 738.801 890.072C762.016 891.249 784.785 889.047 806.809 882.404C816.281 879.546 825.259 875.862 832.956 870.279C841.075 864.392 846.597 857.272 845.731 847.8C844.407 833.315 835.362 825.646 819.135 826.196C812.479 826.423 805.675 827.278 799.295 828.869C784.639 832.528 770.658 837.548 759.203 846.545C758.82 846.847 758.212 846.943 757.285 846.705C760.196 844.052 763.105 841.394 766.351 838.433C764.265 836.183 762.116 833.866 759.969 831.548C760.231 831.341 760.492 831.131 760.752 830.922C762.194 831.876 763.636 832.831 765.079 833.783C769.469 836.675 769.509 836.726 774.149 834.205C784.267 828.704 794.963 824.283 806.614 821.653C816.876 819.337 827.137 818.86 837.561 822.411C842.671 815.272 844.695 807.636 845.692 799.753C847.209 787.755 845.615 775.857 843.752 763.987C841.117 747.21 838.363 730.446 835.729 713.669C835.477 712.065 835.696 710.407 836.343 708.658C837.996 714.499 839.642 720.341 841.304 726.179C845.833 742.092 850.99 757.908 853.035 774.242C854.641 787.1 855.11 799.989 851.204 812.65C849.728 817.432 847.521 822.053 845.373 827.432C845.79 828.044 846.607 829.297 847.49 830.517C858.768 846.105 855.9 862.951 839.348 874.657C833.908 878.504 827.74 881.953 821.272 884.361C788.62 896.508 754.735 899.045 719.958 892.388C712.295 890.922 705.036 888.421 698.562 884.534C693.885 881.727 689.836 878.45 687.931 873.677L687.822 873.779Z" fill="black"/>
<path d="M687.931 873.676C683.287 872.927 678.672 871.989 673.992 871.454C617.281 864.984 561.278 855.973 507.182 839.582C432.137 816.845 369.677 778.874 317.662 728.097C316.82 727.276 316.089 726.371 314.615 724.741C318.062 725.2 319.314 726.925 320.803 728.15C344.105 747.282 368.948 764.824 395.599 780.521C448.752 811.825 507.053 833.795 568.999 849.133C605.523 858.175 642.628 865.049 680.151 870.341C682.078 870.614 684.093 870.754 685.863 871.375C686.755 871.687 687.184 872.942 687.822 873.774L687.931 873.676Z" fill="black"/>
<path d="M417.256 506.974C427.288 499.704 436.88 492.002 448.992 487.24C457.239 483.998 461.836 486.168 463.124 493.839C463.789 497.802 463.734 501.891 463.572 505.91C463.291 512.831 462.674 519.744 462.171 527.063C446.994 520.275 432.396 513.746 417.256 506.974Z" fill="white"/>
<path d="M562.28 641.975C556.351 628.068 550.796 615.035 545.119 601.717C545.746 601.528 546.706 600.996 547.677 600.979C557.411 600.808 567.149 600.573 576.878 600.704C579.806 600.745 582.874 601.561 585.595 602.571C589.375 603.979 590.516 606.444 589.436 609.827C588.932 611.404 588.183 612.979 587.204 614.384C580.241 624.383 570.814 632.745 562.28 641.975Z" fill="white"/>
<path d="M691.797 295.663C697.438 293.374 704.202 295.395 706.904 300.175C709.605 304.953 707.22 310.684 701.578 312.973C694.299 315.928 683.112 315.47 672.955 312.407C663.919 309.68 655.039 304.825 649.95 298.469C646.415 294.086 647.744 288.105 652.917 285.11C658.09 282.115 665.15 283.24 668.685 287.623C670.946 290.449 675.583 292.814 680.545 294.312C685.476 295.8 689.955 296.411 691.797 295.663Z" fill="#231F20"/>
<path fill-rule="evenodd" clip-rule="evenodd" d="M816.13 958.871C804.537 982.718 791.418 1006.04 777.151 1028.95C768.353 1043.09 758.977 1056.96 750.051 1071.03H14.809C14.4782 1069.58 14.1785 1068.18 13.9322 1066.77C7.56313 1030.3 10.0789 994.078 18.4828 958.055C31.2459 903.348 55.8889 852.428 87.6309 803.847C123.713 748.619 167.521 698.204 219.664 653.038C242.625 633.149 264.516 612.476 284.322 590.227C312.504 558.575 330.827 523.123 342.614 484.956C353.003 451.315 363.168 417.613 376.319 384.634C383.206 367.363 390.181 350.134 400.054 333.868C414.739 309.673 433.403 288.156 459.142 271.513C475.867 260.699 493.666 253.009 512.437 248.313C479.739 282.921 461.009 334.473 462.971 399.215C463.798 426.478 454.829 455.075 439.791 484.517C438.963 485.048 438.168 485.607 437.417 486.195C430.896 491.303 424.859 496.856 418.669 502.266C417.052 503.681 415.605 505.236 414.271 506.54C410.526 505.641 407.439 504.899 404.352 504.157C406.075 505.937 408.126 506.931 410.103 508.022C414.224 510.296 418.365 512.547 422.51 514.795C313.336 689.28 40.3921 886.83 334.004 1011.27C448.501 1059.79 698.587 1020.72 816.13 958.871Z" fill="#F26F05"/>
<path fill-rule="evenodd" clip-rule="evenodd" d="M290.581 52.2757C359.235 40.5916 636.029 -17.4464 615.029 5.19017C607.727 13.061 564.545 28.8898 514.411 45.3361C521.317 46.2394 524.213 48.9917 521.181 54.315C511.803 70.776 449.919 98.0722 403.64 117.002C574.14 98.5641 452.266 152.655 446.145 169.435C445.346 171.625 445.097 173.323 445.272 174.652C425.338 156.226 495.48 134.432 486.678 124.517C468.863 104.447 345.82 151.749 352.16 126.433C352.886 123.546 446.957 80.731 488.23 60.402C447.004 69.0052 376.154 94.7615 347.176 95.8256L344.504 96.5443L344.389 95.8503C338.5 95.7054 334.861 94.2309 334.315 90.9387C334.094 89.6119 337.114 87.6474 342.621 85.1885L342.285 83.1698C343.26 82.938 354.24 79.5934 370.323 74.978C429.638 55.2642 545.571 23.8369 588.346 4.60229C554.337 7.41208 365.804 61.7821 303.183 76.6839C271.422 84.2416 239.47 60.973 290.581 52.2757ZM445.272 174.652C445.697 177.847 448.611 178.88 452.484 179.304C449.346 177.784 446.98 176.23 445.272 174.652ZM452.484 179.304C460.503 180.183 472.609 178.46 475.128 187.949C473.653 186.795 471.415 185.739 468.13 184.85C461.557 183.069 456.426 181.212 452.484 179.304ZM475.128 187.949C475.902 190.871 475.766 194.861 474.321 200.318C476.489 196.643 479.986 191.752 475.128 187.949ZM474.321 200.318C474.058 201.305 473.762 202.332 473.411 203.42C472.628 205.845 477.562 205.615 478.983 205.605C471.483 205.993 472.352 203.655 474.321 200.318Z" fill="#231F20"/>
<path d="M138.034 872.679V871.784L141.395 868.105C141.79 867.674 142.114 867.299 142.37 866.981C142.625 866.66 142.814 866.358 142.936 866.076C143.062 865.791 143.125 865.493 143.125 865.182C143.125 864.824 143.039 864.514 142.867 864.252C142.698 863.99 142.466 863.788 142.171 863.645C141.876 863.503 141.544 863.432 141.176 863.432C140.785 863.432 140.444 863.513 140.152 863.675C139.864 863.834 139.64 864.058 139.481 864.346C139.325 864.635 139.248 864.973 139.248 865.361H138.074C138.074 864.764 138.212 864.24 138.487 863.79C138.762 863.339 139.136 862.987 139.61 862.736C140.088 862.484 140.623 862.358 141.216 862.358C141.813 862.358 142.342 862.484 142.802 862.736C143.263 862.987 143.624 863.327 143.886 863.755C144.148 864.182 144.279 864.658 144.279 865.182C144.279 865.556 144.211 865.922 144.075 866.28C143.942 866.635 143.71 867.031 143.379 867.468C143.051 867.903 142.595 868.433 142.012 869.059L139.725 871.505V871.585H144.458V872.679H138.034ZM146.054 870.591V869.576L150.528 862.497H151.264V864.068H150.767L147.386 869.417V869.497H153.412V870.591H146.054ZM150.846 872.679V870.282V869.81V862.497H152.02V872.679H150.846Z" fill="black"/>
<path d="M138.031 872.679V871.784L141.392 868.105C141.786 867.674 142.111 867.299 142.366 866.981C142.621 866.66 142.81 866.358 142.933 866.076C143.059 865.791 143.122 865.493 143.122 865.182C143.122 864.824 143.036 864.514 142.863 864.252C142.694 863.99 142.462 863.788 142.167 863.645C141.872 863.503 141.541 863.432 141.173 863.432C140.782 863.432 140.44 863.513 140.149 863.675C139.86 863.834 139.637 864.058 139.478 864.346C139.322 864.635 139.244 864.973 139.244 865.361H138.071C138.071 864.764 138.208 864.24 138.483 863.79C138.758 863.339 139.133 862.987 139.607 862.736C140.084 862.484 140.619 862.358 141.213 862.358C141.809 862.358 142.338 862.484 142.799 862.736C143.259 862.987 143.621 863.327 143.882 863.755C144.144 864.182 144.275 864.658 144.275 865.182C144.275 865.556 144.207 865.922 144.071 866.28C143.939 866.635 143.707 867.031 143.375 867.468C143.047 867.903 142.591 868.433 142.008 869.059L139.721 871.505V871.585H144.454V872.679H138.031ZM146.05 870.591V869.576L150.524 862.497H151.26V864.068H150.763L147.382 869.417V869.497H153.408V870.591H146.05ZM150.843 872.679V870.282V869.81V862.497H152.016V872.679H150.843Z" fill="#F26F05"/>
</svg>
