<svg width="1259" height="2157" viewBox="0 0 1259 2157" fill="none" xmlns="http://www.w3.org/2000/svg">
<path d="M435.038 1580.82C415.328 1630.72 410.302 1681.19 412.466 1732.49C415.328 1799.9 429.827 1865.16 452.671 1927.91C477.182 1927.91 499.265 1927.91 523.847 1927.91C461.368 1820.39 431.479 1710.24 476.16 1589.53C462.099 1586.55 449.888 1583.97 435.038 1580.82Z" fill="black"/>
<path d="M81 2094.77C102.498 2104.51 210.73 2113.66 232.936 2107.78C210.517 2072.43 160.64 2052.12 120.076 2062.57C101.949 2067.24 86.4583 2075.79 81 2094.77Z" fill="black"/>
<path d="M43.7631 2084.23C55.2929 2057.22 65.3722 2046.31 89.88 2038.94C134.211 2025.62 173.805 2033.68 207.343 2065.01C211.449 2068.85 215.341 2072.89 221.047 2078.54C221.047 2072.94 221.496 2070.09 220.984 2067.41C212.137 2021.55 231.858 1987.98 271.213 1963C291.11 1950.37 313.244 1942.48 336.242 1936.54C341.672 1935.14 346.998 1933.4 352.372 1931.8C346.285 1926.95 340.232 1924.59 333.992 1922.82C272.803 1905.52 210.807 1903.69 148.254 1914.74C116.905 1920.27 87.0769 1929.84 60.501 1946.97C13.5196 1977.26 0.0283523 2023.36 22.8384 2072.7C27.2131 2082.15 33.3649 2086.07 43.7631 2084.23Z" fill="black"/>
<path d="M1065.61 687.64L1103.96 798.593C1103.96 803.045 1103.28 806.964 1104.06 810.591C1120.43 886.408 1127.2 963.069 1128.29 1040.35C1128.6 1061.57 1132.05 1082.73 1133.57 1103.95C1136.47 1144.47 1132.39 1184.39 1121.27 1223.63C1120.49 1226.39 1119.48 1229.08 1117.89 1231.74L1117.69 1232.47C1115.71 1239.65 1112.84 1250.03 1110.32 1256.06C1121.3 1253.5 1138.14 1253.4 1152.11 1255.84C1205.39 1265.17 1244.47 1302.83 1255.58 1355.13C1261.5 1382.95 1259.75 1410.12 1248.48 1436.47C1230.17 1479.26 1188.05 1502.95 1139.46 1498.45C1088.06 1493.69 1047.04 1471.99 1017.03 1432C1014.96 1429.26 1012.5 1426.77 1009.83 1423.7C1007.08 1426.03 1004.66 1427.74 1002.66 1429.83C928.475 1506.98 835.542 1552.79 729.279 1576.3C725.724 1577.09 722.216 1578.04 718.653 1578.75C693.26 1583.8 692.895 1583.69 684.987 1607.64C656.049 1695.24 652.769 1782.94 686.388 1870.12C693.636 1888.91 704.543 1906.46 713.9 1924.51C731.027 1957.54 749.725 1989.94 764.901 2023.75C773.795 2043.58 777.347 2065.6 782.883 2086.74C784.022 2091.09 783.645 2095.91 783.302 2100.47C781.179 2128.89 779.698 2130.02 749.94 2135.45C656.409 2152.52 562.127 2160.32 466.923 2155.67C401.057 2152.46 336.535 2141.98 273.984 2121.54C266.715 2119.17 258.618 2118.52 250.845 2118.14C189.866 2115.13 130.137 2105.64 71.5521 2089.14C58.6937 2085.53 49.9354 2079.63 45.8395 2067.72C40.2081 2051.4 32.7537 2035.39 29.5215 2018.65C22.8565 1984.12 35.8748 1955.27 63.3002 1932.19C87.0511 1912.2 115.425 1900.32 145.891 1893.56C233.143 1874.19 318.392 1878 400.196 1915.77C401.798 1916.51 403.568 1916.95 405.296 1917.37C405.737 1917.47 406.342 1916.99 407.936 1916.36C353.826 1803.84 332.846 1688.89 384.452 1568.32C376.439 1565.86 369.674 1563.76 362.898 1561.71C271.117 1533.9 188.718 1491.03 120.966 1425.24C65.4979 1371.37 24.8353 1308.83 9.52662 1234.53C-6.64025 1156.06 -1.91733 1077.59 21.3131 1000.48C24.5421 989.766 25.2708 979.499 24.27 968.327C19.9138 919.415 19.1734 870.449 33.6207 822.709C38.5943 806.274 45.3048 789.801 54.3656 775.083C85.8412 723.931 152.512 706.509 208.425 733.534C211.055 734.807 213.791 735.903 217.875 737.699C225.553 729.319 233.449 721.442 240.473 712.921C271.136 675.686 292.952 633.759 306.915 588.883C325.61 528.8 341.832 468.002 357.972 407.242C372.783 351.448 385.712 295.076 409.299 241.891C422.658 211.779 437.775 181.969 455.871 154.226C497.318 90.6794 556.731 47.1462 631.926 24.2954C723.568 -3.55365 816.887 -6.80225 911.075 11.176C921.753 13.2114 932.272 16.3578 942.558 19.8174C1012.5 43.3154 1053.02 90.3485 1066.24 159.04C1074.38 201.37 1073.83 244.003 1067.76 286.277C1058.09 353.499 1046.11 420.417 1035.66 487.546C1031.93 511.424 1029.29 535.484 1027.06 559.539C1024.96 582.283 1029.85 604.26 1038.69 625.358C1047.43 646.211 1057.23 666.671 1065.61 687.64ZM461.888 1586.46C460.477 1590.3 458.998 1593.45 458.15 1596.75C441.091 1663.22 439.297 1729.75 455.76 1796.71C466.568 1840.66 490.764 1878.62 513.38 1917.33C515.535 1921.01 521.629 1923.9 526.374 1924.75C560.013 1930.78 592.467 1939.96 622.881 1955.1C623.557 1955.44 624.974 1954.43 626.35 1953.95C570.034 1836.36 549.702 1716.97 608.467 1594.6C559.152 1591.87 511.383 1589.21 461.888 1586.46Z" fill="black"/>
<path d="M1114.18 1232.81C1114.03 1231.59 1113.97 1230.37 1114.2 1229.21C1124.71 1174.51 1118.93 1120.39 1108.5 1066.3C1095.22 997.39 1069.01 932.324 1042.94 867.278C1024.64 821.597 1004.12 776.7 984.619 731.441C983.768 729.448 983.231 727.327 982.189 724.187C998.909 735.79 1030.87 783.223 1055.45 835.985C1074.26 876.363 1090.72 917.729 1108.97 960.369C1109.27 956.369 1109.85 953.454 1109.66 950.588C1104.6 871.076 1093.2 792.589 1066.09 716.799C1059.08 697.212 1050.63 678.066 1042.54 658.838C1027.96 624.141 1019.68 588.21 1022.89 550.91C1027.27 499.919 1032.66 448.981 1038.98 398.165C1045.95 342.189 1056.51 286.443 1054.44 229.886C1053.5 204.193 1050.2 178.124 1043.81 153.17C1029.98 99.1523 994.146 62.0928 939.376 41.5557C913.157 31.7199 885.908 25.9653 857.955 23.6279C787.116 17.7094 717.027 20.8176 648.622 41.1816C575.032 63.1008 517.239 104.805 474.65 165.588C443.434 210.146 421.77 258.93 406.155 309.912C386.707 373.406 369.515 437.529 351.233 501.35C338.505 545.807 323.845 589.646 303.31 631.544C284.478 669.956 260.813 705.237 228.498 734.92C226.361 736.886 224.589 739.212 223.028 740.944C223.176 742.29 223.031 742.982 223.327 743.38C249.317 778.494 242.405 813.225 220.478 846.727C193.157 888.483 151.55 912.231 102.852 925.975C93.5533 928.602 84.0327 931.313 74.4469 932.031C63.1579 932.888 57.3663 938.519 52.4733 947.272C33.1275 981.842 23.1933 1018.98 17.4878 1057.4C9.45607 1111.4 9.47138 1165.43 20.5481 1218.9C35.6313 1291.68 75.0001 1352.58 128.604 1405.53C194 1470.13 273.788 1512.9 362.905 1540.83C442.845 1565.88 525.012 1575.77 609.107 1572.69C619.371 1572.31 625.969 1569.12 631.349 1561C635.974 1554.02 642.221 1548.02 647.76 1541.59C648.908 1542.18 650.057 1542.77 651.202 1543.35C650.705 1546.14 650.995 1549.38 649.578 1551.66C601.553 1629.01 592.26 1712.94 601.797 1800.2C607.325 1850.77 619.418 1899.95 635.344 1948.39C639.209 1960.14 645.016 1970.18 654.891 1978.78C670.335 1992.24 680.865 2008.73 682.044 2029.54C672.576 2013 662.414 1996.65 645.42 1986.54C628.033 1976.21 610.163 1965.47 590.943 1959.26C513.908 1934.37 435.88 1933.72 357.925 1956.05C335.687 1962.41 315.031 1972.2 296.749 1986.09C250.801 2020.97 251.734 2067.68 269.96 2107.53C273.794 2115.9 280.545 2117.79 290.325 2116.98C297.227 2088.73 318.448 2074.19 347.062 2068.23C381.581 2061.03 413.526 2066.92 441.798 2087.59C455.51 2097.63 466.121 2110.29 473.005 2125.28C476.731 2133.38 482.054 2136.06 491.138 2136.11C556.282 2136.49 621.208 2133.22 685.938 2126.45C710.094 2123.93 734.188 2120.8 758.292 2117.79C764.176 2117.06 769.971 2115.7 775.672 2114.65C779.676 2100.45 776.317 2087.92 771.939 2076.23C764.457 2056.23 756.116 2036.38 746.246 2017.35C735.827 1997.24 723.399 1978.04 711.517 1958.63C678.309 1904.35 653.906 1847 644.642 1784.58C632.398 1702.07 648.556 1625.43 699.342 1556.35C702.746 1551.71 706.609 1547.38 712.49 1543.78C710.604 1549.23 708.729 1554.68 705.845 1563.04C820.753 1540.96 916.8 1492.92 994.153 1407.66C983.153 1405.99 975.463 1405.14 967.915 1403.63C944.166 1398.85 933.455 1386.71 933.599 1363.76C933.646 1355.22 934.655 1346.42 937.026 1338.19C940.86 1324.92 944.645 1311.29 951.158 1299.1C974.188 1255.97 982.369 1209.6 984.873 1162.27C990.54 1054.97 977.553 949.726 941.552 847.524C926.28 804.187 905.738 763.239 876.122 725.803C879.647 728.163 883.512 730.182 886.649 732.936C908.786 752.386 925.079 775.888 938.659 801.184C965.893 851.927 981.656 906.202 992.383 961.837C1003.97 1022 1009.46 1082.73 1007.25 1143.91C1006.03 1177.85 1003.48 1211.82 993.714 1244.68C989.482 1258.92 982.857 1272.62 976.288 1286.11C969.681 1299.68 961.096 1312.39 954.722 1326.03C950.35 1335.39 946.889 1345.52 945.414 1355.62C940.838 1386.99 962.025 1404.02 997.424 1396.23C985.098 1359.22 986.453 1323.33 1012.52 1290.86C1010.34 1299.68 1007.65 1308.41 1006.09 1317.33C996.433 1372.33 1013.71 1417.49 1062.41 1450.12C1088.12 1467.34 1116.65 1478.64 1148.82 1478.91C1180.68 1479.18 1205.15 1466.02 1221.4 1440.2C1259.26 1380.01 1230.58 1277.8 1134.68 1261.48C1125.18 1259.87 1115.56 1258.91 1105.3 1257.56C1106.02 1257.28 1106.8 1257.02 1107.62 1256.77L1106.62 1256.35C1109.04 1251.24 1112.05 1240.51 1114.18 1232.81Z" fill="#FF8300"/>
<path d="M59.0315 924.208C51.113 936.696 42.4487 950.363 33.3628 964.688C32.0483 963.012 30.4079 961.884 30.2968 960.63C26.2097 914.944 28.9235 869.676 45.6371 826.395C52.8237 807.779 62.61 789.194 75.2385 773.501C108.659 731.981 176.71 727.441 218.188 762.099C231.416 773.15 236.439 787.015 230.008 802.407C225.411 813.409 218.953 824.382 210.772 833.262C173.769 873.442 126.515 900.265 76.0933 922.49C71.7317 924.413 66.0177 923.588 59.0315 924.208Z" fill="#FF8300"/>
<path d="M467.586 2135.25C412.698 2135.31 362.626 2130.5 310.947 2122.03C314.379 2107.81 322.786 2099.63 334.102 2093.72C353.659 2083.52 374.556 2082.42 395.791 2087.21C424.606 2093.71 447.012 2109.32 467.586 2135.25Z" fill="#FFBC00"/>
<path d="M93.1831 2081.84C98.6468 2062.86 114.129 2054.31 132.256 2049.64C172.823 2039.18 222.7 2059.5 245.116 2094.85C222.914 2100.73 114.679 2091.58 93.1831 2081.84Z" fill="#FFBC00"/>
<path d="M1114.18 1232.81C1114.03 1231.58 1113.97 1230.37 1114.2 1229.21C1124.71 1174.51 1118.93 1120.39 1108.51 1066.3C1095.22 997.387 1069.01 932.321 1042.94 867.276C1024.64 821.595 1004.12 776.701 984.616 731.438C983.768 729.445 983.233 727.328 982.187 724.184C998.913 735.788 1030.87 783.218 1055.45 835.983C1074.26 876.363 1090.72 917.723 1108.97 960.368C1109.27 956.366 1109.85 953.448 1109.66 950.585C1104.6 871.073 1093.19 792.586 1066.09 716.796C1059.08 697.209 1050.63 678.064 1042.54 658.838C1027.96 624.139 1019.68 588.207 1022.89 550.908C1027.27 499.916 1032.66 448.978 1038.99 398.162C1045.95 342.187 1056.51 286.44 1054.44 229.884C1053.5 204.19 1050.2 178.121 1043.81 153.17C1038.51 132.476 1029.98 114.279 1018.39 98.5364C1026.79 145.707 1013.74 203.122 968.711 270.043C777.216 554.656 932.124 1163.64 860.655 1284.52C702.672 1551.73 374.284 1520.09 145.375 1421.33C207.468 1477.2 281.267 1515.25 362.906 1540.83C442.841 1565.88 525.012 1575.77 609.107 1572.68C619.368 1572.31 625.969 1569.12 631.346 1561C635.97 1554.02 642.221 1548.02 647.757 1541.59C648.905 1542.18 650.059 1542.76 651.202 1543.35C650.702 1546.14 650.995 1549.38 649.578 1551.66C601.557 1629 592.261 1712.93 601.797 1800.2C607.325 1850.77 619.418 1899.95 635.341 1948.39C639.209 1960.14 645.016 1970.18 654.891 1978.78C670.335 1992.24 680.865 2008.73 682.045 2029.54C672.576 2013 662.414 1996.65 645.42 1986.54C628.033 1976.21 610.163 1965.47 590.943 1959.26C513.908 1934.37 435.88 1933.72 357.922 1956.04C335.689 1962.4 315.028 1972.2 296.749 1986.09C250.805 2020.97 251.737 2067.68 269.96 2107.52C273.794 2115.9 280.545 2117.79 290.325 2116.97C297.225 2088.73 318.448 2074.19 347.062 2068.22C381.585 2061.02 413.526 2066.92 441.798 2087.59C455.513 2097.62 466.121 2110.29 473.008 2125.27C476.731 2133.37 482.056 2136.06 491.138 2136.11C556.282 2136.49 621.208 2133.22 685.941 2126.45C710.094 2123.93 734.188 2120.8 758.292 2117.79C764.176 2117.05 769.971 2115.7 775.672 2114.65C779.673 2100.45 776.317 2087.91 771.94 2076.22C764.457 2056.23 756.113 2036.38 746.246 2017.35C735.827 1997.24 723.396 1978.04 711.517 1958.63C678.309 1904.35 653.906 1847 644.643 1784.58C632.398 1702.07 648.556 1625.42 699.342 1556.34C702.746 1551.71 706.609 1547.38 712.49 1543.78C710.604 1549.22 708.729 1554.67 705.843 1563.04C820.753 1540.96 916.8 1492.92 994.153 1407.65C983.15 1405.99 975.46 1405.13 967.912 1403.62C944.166 1398.84 933.455 1386.71 933.596 1363.76C933.646 1355.22 934.653 1346.41 937.026 1338.19C940.86 1324.91 944.642 1311.29 951.156 1299.1C974.188 1255.96 982.369 1209.59 984.873 1162.27C990.54 1054.97 977.557 949.723 941.552 847.522C926.28 804.187 905.739 763.237 876.125 725.8C879.647 728.157 883.509 730.179 886.649 732.934C908.786 752.384 925.079 775.886 938.656 801.181C965.89 851.924 981.659 906.199 992.386 961.834C1003.97 1022 1009.46 1082.72 1007.25 1143.91C1006.03 1177.85 1003.48 1211.82 993.714 1244.68C989.482 1258.92 982.857 1272.61 976.29 1286.11C969.681 1299.67 961.096 1312.38 954.722 1326.03C950.35 1335.38 946.889 1345.52 945.414 1355.62C940.838 1386.99 962.025 1404.02 997.424 1396.23C985.098 1359.22 986.453 1323.33 1012.52 1290.86C1010.35 1299.67 1007.65 1308.41 1006.09 1317.33C996.433 1372.33 1013.71 1417.49 1062.41 1450.12C1088.12 1467.34 1116.65 1478.64 1148.82 1478.91C1180.68 1479.17 1205.15 1466.02 1221.41 1440.19C1259.27 1380.01 1230.58 1277.79 1134.68 1261.48C1125.18 1259.87 1115.56 1258.91 1105.3 1257.56C1106.02 1257.28 1106.8 1257.02 1107.62 1256.77L1106.62 1256.35C1109.04 1251.24 1112.05 1240.51 1114.18 1232.81Z" fill="#F06105"/>
<path d="M60.7598 2084.23C50.3616 2086.08 44.2066 2082.15 39.8384 2072.7C17.0316 2023.36 30.513 1977.26 77.4977 1946.98C104.071 1929.85 133.901 1920.27 165.247 1914.73C227.803 1903.69 289.797 1905.52 350.992 1922.83C357.23 1924.59 363.281 1926.95 369.366 1931.81C363.995 1933.4 358.669 1935.14 353.242 1936.54C330.244 1942.48 308.11 1950.37 288.214 1963C248.857 1987.98 229.131 2021.55 237.978 2067.41C238.493 2070.09 238.046 2072.94 238.046 2078.55C232.335 2072.9 228.446 2068.85 224.334 2065.01C190.802 2033.68 151.211 2025.62 106.877 2038.94C82.3689 2046.32 72.2928 2057.21 60.7598 2084.23Z" fill="#F06105"/>
<path d="M412.032 1560.82C426.887 1563.97 439.096 1566.55 453.16 1569.53C408.476 1690.24 438.368 1800.39 500.843 1907.91C476.268 1907.91 454.177 1907.91 429.669 1907.91C406.827 1845.16 392.324 1779.9 389.469 1712.49C387.295 1661.19 392.328 1610.72 412.032 1560.82Z" fill="#F06105"/>
<path d="M363.006 814.969C281.29 764.754 368.312 632.267 420.672 690.482C473.032 748.696 590.731 860.836 740.135 796.582C857.029 746.309 862.578 896.519 794.138 905.994L363.006 814.969Z" fill="#5F2E0D"/>
<path d="M458.394 752.922C358.772 754.277 351.548 807.197 351.548 807.197C351.548 807.197 422.424 894.481 666.903 936.701C911.382 978.922 849.408 720.106 694.92 846.846L586.347 848.222L458.394 752.922Z" fill="#5F2E0D"/>
<path d="M692.157 937.971C690.643 923.227 672.905 902.117 653.371 887.825C633.837 873.532 623.727 869.558 594.129 861.538C564.531 853.518 532.277 838.389 496.381 844.425C472.446 854.848 467.404 865.563 461.071 878.649L499.035 893.703L542.035 907.848L586.502 920.162L636.005 931.567L676.311 938.15L691.572 940.089L692.157 937.971Z" fill="#C34608"/>
<path d="M415.82 857.976L387.389 839.704C386.028 838.829 385.616 837.122 386.42 835.694C386.545 835.472 386.696 835.264 386.869 835.073L394.175 827.033C402.138 818.27 406.119 813.889 410.773 810.315C415.081 807.008 419.807 804.22 424.83 802.023C430.258 799.648 436.139 798.211 447.901 795.336L465.026 791.151C465.158 791.119 465.293 791.104 465.427 791.106L471.938 791.213C472.355 791.219 472.579 790.859 472.513 790.564L472.404 790.357C472.46 790.417 472.496 790.488 472.513 790.564L481.956 808.447C483.164 810.736 483.094 813.483 481.766 815.84L465.686 844.391C464.206 847.019 463.34 849.885 463.147 852.79L461.571 876.54C461.497 877.653 460.317 878.457 459.18 878.169C459.069 878.14 458.962 878.102 458.86 878.055L415.82 857.976Z" fill="#D9D9D9"/>
<path d="M451.036 814.888C449.524 805.342 455.204 796.53 464.787 793.555L467.804 792.618C474.298 790.602 481.739 792.459 486.714 797.339C492.524 803.037 493.589 811.446 489.675 817.832C482.594 829.383 471.716 848.996 464.788 870.423C463.802 873.47 462.964 875.627 462.246 877.046C461.827 877.876 460.735 878.104 459.807 877.655C459.247 877.384 458.824 876.904 458.696 876.34C457.934 872.977 457.518 867.205 456.964 861.7C456.676 858.834 452.842 834.147 453.487 831.391C453.552 831.116 453.562 830.829 453.516 830.544L451.036 814.888Z" fill="#D9D9D9"/>
<path d="M714.84 942.993L746.518 941.818C748.105 941.759 749.31 940.526 749.354 938.916C749.361 938.675 749.34 938.431 749.294 938.19L747.326 927.935C745.147 916.582 744.058 910.906 742.016 905.55C740.098 900.521 737.561 895.71 734.468 891.238C731.175 886.476 727.04 882.246 718.77 873.785L707.547 862.302C707.453 862.206 707.347 862.123 707.232 862.055L701.918 858.891C701.59 858.695 701.57 858.317 701.743 858.099L701.989 857.943C701.886 857.966 701.803 858.023 701.743 858.099L685.525 868.377C683.422 869.71 682.145 872.021 682.075 874.624L681.202 906.789C681.123 909.686 680.441 912.481 679.201 914.993L668.908 935.845C668.44 936.792 669.009 938.013 670.07 938.339C670.179 938.372 670.29 938.395 670.402 938.406L714.84 942.993Z" fill="#D9D9D9"/>
<path d="M707.795 889.6C713.509 882.27 713.087 871.896 706.776 864.492L704.754 862.12C700.521 857.154 693.737 854.955 687.496 856.527C680.151 858.376 675.34 864.958 675.497 872.353C675.781 885.701 675.345 907.746 670.903 929.309C670.27 932.381 669.935 934.626 669.849 936.188C669.798 937.102 670.564 937.847 671.516 937.941C672.096 937.998 672.663 937.807 673.033 937.393C675.215 934.944 678.245 930.29 681.259 925.933C682.834 923.657 697.424 904.827 698.195 902.169C698.273 901.903 698.4 901.654 698.571 901.435L707.795 889.6Z" fill="#D9D9D9"/>
<path d="M760.563 621.254C690.123 572.798 610.997 552.137 520.845 562.097C516.511 548.995 511.406 536.717 508.353 523.746C498.887 483.557 503.277 442.82 517.286 402.214C536.991 345.1 569.293 296.303 617.3 258.721C659.577 225.627 705.256 211.896 754.914 222.979C791.741 231.2 819.154 251.892 837.918 284.302C852.344 309.219 859.649 337.074 861.581 366.761C866.265 438.807 848.661 506.837 807.572 570.102C795.294 589.01 780.551 606.012 760.563 621.254Z" fill="white"/>
<path d="M471.011 570.951C485.301 568.117 499.586 565.284 514.188 562.384C514.018 560.645 514.263 559.091 513.711 558.023C486.667 505.621 487.126 449.242 506.663 390.628C525.976 332.69 559.46 283.93 608.132 246.445C665.675 202.141 726.146 192.948 787.962 217.927C819.371 230.618 841.488 254.306 856.721 284.845C869.82 311.088 876.192 339.742 877.426 370.008C880.002 433.157 865.018 493.402 832.301 550.382C817.67 575.866 799.194 598.259 776.577 617.001C773.876 619.235 771.294 621.62 767.549 624.903C783.758 639.285 799.482 653.236 815.207 667.188C814.678 667.95 814.139 668.713 813.604 669.476C809.943 667.486 806.052 665.815 802.646 663.452C772.448 642.492 741.216 623.404 707.407 608.242C654.749 584.623 598.927 572.624 539.807 572.024C520.661 571.833 501.363 573.179 482.13 573.82C478.428 573.94 474.73 574.04 471.028 574.151C471.026 573.081 471.016 572.017 471.011 570.951ZM760.569 621.258C780.557 606.016 795.299 589.015 807.577 570.107C848.666 506.841 866.27 438.811 861.586 366.766C859.654 337.078 852.35 309.223 837.924 284.306C819.159 251.896 791.746 231.205 754.919 222.983C705.262 211.9 659.582 225.632 617.306 258.725C569.299 296.307 536.997 345.105 517.291 402.218C503.283 442.824 498.892 483.562 508.358 523.75C511.412 536.721 516.517 548.999 520.851 562.101C611.002 552.141 690.129 572.802 760.569 621.258Z" fill="black"/>
<path d="M691.641 377.921C646.774 380.219 608.993 416.734 607.252 459.478C605.51 502.221 640.468 535.01 685.334 532.71C730.2 530.412 767.982 493.897 769.722 451.152C771.464 408.407 736.507 375.621 691.641 377.921Z" fill="black"/>
<path d="M730.815 405.365C713.609 406.247 699.118 420.251 698.451 436.645C697.783 453.038 711.19 465.61 728.396 464.728C745.603 463.846 760.094 449.846 760.762 433.451C761.429 417.058 748.022 404.483 730.815 405.365Z" fill="white"/>
<path d="M760.567 621.255C690.127 572.799 611 552.137 520.849 562.098C516.515 548.996 511.41 536.718 508.356 523.747C498.89 483.558 503.281 442.821 517.289 402.215C518.555 398.543 519.872 394.909 521.243 391.31C528.627 446.725 558.744 495.67 608.308 522.611C688.055 565.959 791.389 537.816 854.446 460.672C845.898 498.525 830.341 535.046 807.575 570.103C795.297 589.011 780.555 606.013 760.567 621.255Z" fill="#E9E9CF"/>
</svg>
