<svg width="1062" height="712" viewBox="0 0 1062 712" fill="none" xmlns="http://www.w3.org/2000/svg">
<path d="M1020.44 301.41C1002.32 335.878 980.06 366.536 939.38 380.364C934.035 382.179 928.858 384.444 923.145 386.679C924.253 393.86 925.457 400.495 926.274 407.171C928.588 426.169 928.983 445.171 924.31 463.913C914.881 501.768 890.524 525.991 850.216 535.371C847.113 536.092 844.015 536.857 839.62 537.917C840.845 541.638 841.904 545.062 843.09 548.447C852.284 574.665 859.809 601.184 858.664 629.156C858.359 636.566 857.416 643.957 856.62 653.074C875.474 638.269 894.328 636.99 913.31 650.531C926.864 660.201 926.484 673.569 923.861 688.5C892.118 699.395 860.469 703.101 828.27 687.431C831.046 681.767 833.46 676.909 835.815 672.028C850.555 641.423 851.737 609.723 844.497 577.302C841.688 564.723 839.192 552.082 836.483 539.126C821.877 539.126 807.969 539.126 793.066 539.126C790.588 550.79 787.954 562.341 785.709 573.957C781.567 595.39 778.233 616.854 782.716 638.689C786.171 655.48 792.733 671.18 800.741 686.333C781.03 701.606 736.264 700.969 705.95 688.185C703.331 674.739 701.94 661.226 715.245 651.26C734.235 637.031 753.461 637.89 773.864 653.856C764.986 612.461 776.712 575.8 789.813 538.366C782.549 537.052 776.226 536.317 770.152 534.729C752.874 530.204 735.363 526.19 718.607 520.289C708.007 516.554 697.917 510.665 688.799 504.226C665.557 487.825 656.089 464.954 658.744 438.118C660.036 425.044 664.009 412.194 666.937 399.281C667.682 395.995 669.067 392.839 670.461 388.74C656.616 383.909 643.012 379.163 628.691 374.162C628.691 376.504 628.358 378.678 628.741 380.732C633.075 403.821 637.418 426.913 636.398 450.501C636.059 458.276 635.371 466.103 633.941 473.757C630.21 493.73 619.93 509.966 601.676 521.193C593.273 526.361 584.682 531.27 575.061 536.952C575.979 540.07 576.871 543.576 578.041 546.995C585.703 569.341 592.323 591.964 593.556 615.519C594.278 629.306 593.312 643.173 593.113 656.562C599.919 653.609 607.503 649.275 615.725 647.038C624.646 644.606 633.479 647.295 641.592 651.603C649.693 655.906 656.976 661.447 658.843 670.203C660.576 678.344 660.068 686.914 660.505 694.638C636.783 707.996 586.999 711.627 564.329 694.591C567.881 686.247 571.69 677.893 575.017 669.376C585.229 643.21 586.396 616.311 581.59 589.047C578.816 573.312 575.703 557.628 572.678 541.932C572.503 541.014 571.738 540.196 571.128 539.124C557.153 542.002 543.266 544.865 527.99 548.018C526.34 555.69 524.361 564.221 522.691 572.8C518.998 591.832 514.964 610.856 516.189 630.377C517.615 653.131 525.255 674.208 536.201 694.276C518.224 710.175 469.445 709.331 441.048 696.133C438.13 681.767 437.891 667.837 452.207 657.776C470.96 644.599 489.527 645.805 509.065 661.597C501.071 620.795 511.17 584.533 524.138 547.8C521.062 546.898 518.551 545.788 515.926 545.443C489.974 542.013 469.685 529.401 453.171 510.835C438.104 493.901 428.573 474.248 422.351 453.06C421.333 449.594 420.396 446.109 418.711 442.66C418.397 477.804 408.093 509.19 382.293 535.068C357.153 560.285 325.234 573.004 288.763 578.647C301.431 609.401 313.043 639.394 305.171 673.558C309.652 671.518 312.491 670.224 315.328 668.932C332.18 661.236 348.191 663.487 363.326 672.971C371.884 678.331 375.397 686.166 373.939 695.852C373.585 698.184 373.126 700.499 372.509 703.992C341.303 713.136 309.968 716.164 277.631 703.336C278.671 701.166 279.313 699.379 280.316 697.799C296.276 672.826 301.533 646.152 294.72 617.545C291.741 605.033 288.714 592.533 285.618 579.662C270.81 579.662 256.911 579.662 241.674 579.662C238.755 591.541 235.771 603.667 232.807 615.792C225.559 645.42 230.594 673.097 247.62 698.868C248.183 699.72 248.667 700.619 249.111 701.532C249.247 701.814 249.131 702.204 249.131 703.357C217.962 716.43 186.544 712.934 155.324 704.335C148.261 685.633 157.027 673.28 176.265 666.996C188.371 663.039 200.266 663.371 211.828 668.905C214.648 670.255 217.491 671.559 222.009 673.669C214.255 639.197 225.715 608.904 238.629 578.459C229.473 576.446 220.849 575.327 212.831 572.614C198.334 567.708 183.435 563.138 170.037 556.144C126.337 533.333 104.715 497.242 103.026 450.486C101.764 415.392 112.153 382.719 127.904 351.337C129.73 347.697 131.516 344.039 133.638 339.748C129.943 338.036 126.84 336.434 123.604 335.12C100.149 325.568 81.419 310.702 67.526 290.483C60.287 279.946 53.0919 269.369 46.3395 258.553C43.2313 253.577 39.7388 250.442 33.3981 249.146C23.7384 247.175 15.5846 241.951 8.89257 235.043C0.414962 226.298 -2.3215 216.08 2.07524 204.852C6.57509 193.362 14.9686 185.194 27.8581 182.262C37.6202 180.038 46.1924 184.339 50.4559 193.795C53.0972 199.652 54.3146 206.084 56.4739 213.275C59.0003 210.173 61.1598 207.359 63.4905 204.681C70.4714 196.666 77.2546 194.646 83.8336 198.535C92.3822 203.586 96.9037 214.531 92.5811 222.351C90.014 227 86.2293 231.764 81.6776 234.567C73.6656 239.489 64.6463 242.949 56.2002 246.951C64.0565 257.606 122.798 288.637 149.504 295.293C149.765 291.23 150.193 287.356 150.234 283.477C150.549 255.61 151.239 227.765 156.858 200.292C160.784 181.123 167.675 163.127 179.329 146.715C207.963 106.407 290.546 91.9239 330.078 144.627C338.319 155.614 345.101 167.796 350.956 180.103C360.569 200.303 365.817 221.897 370.622 243.515C373.2 255.12 375.56 266.768 378.172 279.129C381.048 279.369 383.824 280.018 386.499 279.756C397.935 278.63 409.363 277.419 420.74 275.893C432.779 274.277 432.381 274.02 435.117 263.3C442.947 232.622 450.405 201.834 459.341 171.437C468.87 139.019 481.342 107.516 497.439 77.3987C506.375 60.6827 516.155 44.383 529.544 30.4703C536.501 23.2376 544.216 16.3968 552.577 10.666C589.045 -14.3311 639.446 7.98065 649.917 42.7602C653.703 55.344 654.826 68.0805 654.198 81.0527C652.728 111.454 644.695 140.739 637.232 170.115C632.636 188.206 627.935 206.271 623.102 225.057C645.438 213.822 720.999 122.878 728.143 98.8383C724.936 98.6553 721.89 98.4587 718.843 98.3092C709.027 97.829 699.552 96.0404 691.083 91.085C680.424 84.8461 677.578 75.25 683.038 64.7393C687.156 56.8124 693.006 54.5649 701.609 57.9973C704.546 59.1704 707.209 61.0184 709.846 62.7696C712.132 64.2908 714.204 66.1059 717.177 68.413C716.641 62.0314 715.732 56.7206 715.842 51.4296C716.185 34.4319 728.428 26.0969 745.601 30.8482C771.118 37.9121 780.033 62.4848 763.849 82.356C759.558 87.6278 753.472 91.5931 748.28 96.2303C745.3 98.8947 742.457 101.694 739.551 104.439C739.146 99.9903 741.139 96.8352 744.805 93.9952C751.575 88.7569 756.795 82.3208 759.491 74.2754C763.43 62.5358 759.4 49.9823 749.498 43.319C739.616 36.6651 729.638 38.9157 724.616 49.252C722.998 52.5846 722.264 56.3533 721.513 59.9929C720.638 64.2206 720.191 68.5235 719.519 73.0607C712.547 70.6637 706.259 68.2952 699.822 66.3659C696.119 65.258 691.938 65.9507 690.716 69.6331C689.922 72.0265 690.778 75.9831 692.547 77.8311C695.838 81.2778 699.95 84.5347 704.412 86.3654C713.759 90.1985 723.553 93.0559 733.387 96.3921C732.861 104.805 731.438 110.464 724.309 122.433C695.955 170.044 659.209 211.029 613.642 244.699C605.863 250.449 596.283 254.063 587.389 258.403C585.737 259.21 583.399 258.772 581.686 258.89C590.564 252.778 599.094 246.626 607.944 240.915C614.426 236.73 617.06 231.009 618.179 223.928C619.767 213.869 622.131 203.922 624.061 193.907C630.549 160.206 637.755 126.605 643.059 92.7364C645.075 79.8889 643.911 66.2621 642.057 53.2614C636.281 12.7182 585.739 -2.99718 555.328 20.134C549.472 24.5881 543.284 29.0775 538.857 34.6867C529.222 46.8922 519.763 59.3726 511.786 72.5768C497.675 95.9276 487.575 121.051 478.589 146.523C452.597 220.231 436.171 295.902 427.258 373.059C424.358 398.153 424.159 423.192 431.19 447.888C438.211 472.558 449.191 495.183 469.056 513.114C486.097 528.499 506.131 536.908 530.188 536.861C556.204 536.807 578.227 527.016 599.202 513.879C612.352 505.646 620.949 494.332 625.471 480.155C630.618 464.015 632.358 447.438 630.484 430.783C628.056 409.209 624.683 387.721 621.492 366.226C618.203 344.073 614.692 321.947 611.165 299.827C610.606 296.335 609.437 292.933 608.377 288.81C609.256 287.82 610.619 286.261 612.002 284.722C660.312 230.899 702.489 173.219 735.467 109.739C736.523 107.71 738.325 106.034 739.779 104.191C738.587 109.108 737.885 114.19 736.133 118.922C712.38 183.01 674.519 238.265 620.08 282.962C615.574 286.662 613.047 290.319 613.866 295.976C615.755 309.074 617.495 322.19 619.316 335.296C619.839 339.052 621.831 341.524 626.027 342.133C646.571 345.122 666.963 349.309 688.581 349.448C690.525 346.184 692.524 343.045 694.3 339.8C703.551 322.916 712.519 305.896 722.017 289.149C730.195 274.739 739.942 261.303 752.223 249.642C776.021 227.049 805.276 216.336 838.524 215.566C864.937 214.952 884.704 226.276 897.496 248.247C905.216 261.505 909.671 275.824 912.13 290.632C914.243 303.353 915.361 316.222 916.94 329.024C917.43 332.996 917.979 336.956 918.72 342.566C951.747 329.708 982.475 315.691 1011.42 295.268C1007.97 293.845 1005.96 292.804 1003.81 292.16C995.111 289.558 986.794 285.997 980.934 279.346C977.687 275.657 975.177 270.676 974.359 265.963C973.159 259.095 979.794 250.288 986.395 248.325C993.983 246.067 998.501 250.819 1002.83 255.447C1005.09 257.868 1006.96 260.613 1009.6 263.966C1011.18 257.673 1011.95 252.329 1013.88 247.395C1019.07 234.122 1031.37 230.077 1044.31 237.261C1063.29 247.799 1070.53 272.888 1048.07 288.86C1040.1 294.531 1031.02 297.395 1021.52 299.5C1023.93 297.649 1026.27 295.731 1028.75 293.963C1033.58 290.499 1039.01 287.615 1043.25 283.6C1050.7 276.54 1052.43 267.531 1049.78 258.078C1047.73 250.773 1043.03 244.964 1034.62 243.876C1026.79 242.863 1022.01 247.855 1018.36 253.616C1016.53 256.507 1015.29 259.737 1013.82 262.826C1012.71 265.152 1011.64 267.494 1010.55 269.824C1005.17 265.931 1000.46 262.306 995.506 259.006C992.405 256.94 988.729 256.118 985.561 258.797C982.249 261.589 983.236 265.094 985.261 268.073C987.578 271.473 989.901 275.16 993.138 277.658C1000.5 283.335 1008.43 288.364 1016.29 293.761C1003.89 318.986 927.36 355.891 898.968 348.884C903.674 347.147 907.491 345.738 911.931 344.104C910.575 323.695 908.908 303.379 903.3 283.713C899.966 272.021 895.718 260.203 889.551 249.66C877.523 229.1 857.672 220.761 833.268 223.51C798.109 227.471 768.97 242.202 747.565 269.304C741.778 276.633 736.089 284.198 731.664 292.292C716.172 320.636 700.901 349.106 686.251 377.846C678.13 393.771 672.514 410.644 669.394 428.186C663.398 461.863 675.949 487.409 707.162 504.664C709.022 505.693 710.861 506.787 712.819 507.622C753.556 525 796.024 533.84 840.716 528.154C874.014 523.921 899.266 507.94 912.13 477.627C924.84 447.684 923.15 416.874 916.697 385.058C955.948 365.523 987.957 337.021 1016.24 304.435C1017.32 303.183 1019.02 302.409 1020.44 301.41ZM405.357 388.056C403.894 384.973 402.22 381.971 401.001 378.809C385.367 338.248 372.669 296.931 363.92 254.508C358.626 228.845 351.859 203.489 340.498 179.468C333.848 165.414 325.287 152.625 313.775 141.54C282.949 111.842 215.793 110.763 187.49 154.146C180.226 165.283 174.632 177.678 170.189 190.112C161.982 213.064 159.667 237.188 157.241 261.192C156.016 273.283 155.059 285.395 153.948 297.877C161.463 300.313 168.15 302.479 174.835 304.646C171.476 306.332 168.623 306.471 165.791 306.297C162.932 306.121 160.061 305.791 157.25 305.275C130.047 300.297 105.274 289.644 82.1026 275.673C73.3755 270.411 65.4041 263.944 57.5241 257.548C53.2705 254.097 49.4989 249.881 48.4193 243.7C60.344 240.961 68.9523 233.861 76.7187 225.746C79.098 223.259 81.1417 220.354 82.7093 217.349C84.3399 214.227 85.1609 210.201 81.3894 208.248C79.0455 207.036 75.2351 207.287 72.5005 208.112C69.544 209 66.9698 211.198 64.4178 213.052C61.389 215.246 58.5631 217.685 55.2676 220.321C52.2448 214.003 49.9607 208.318 46.8873 203.048C43.2885 196.875 38.2342 191.755 29.934 192.493C20.9034 193.295 16.3688 199.443 13.5107 206.816C12.6655 209 12.3325 211.446 12.2229 213.795C11.5189 229.096 20.7564 238.502 33.99 244.945C39.5806 247.669 44.0332 251.04 47.9407 255.638C77.2251 290.094 110.78 319.985 151.905 341.707C153.976 342.801 155.745 344.408 157.652 345.777C157.463 346.184 157.269 346.591 157.077 346.999C151.068 345.214 145.057 343.428 139.078 341.653C138.145 342.715 137.24 343.39 136.823 344.271C120.069 379.766 109.399 416.42 113.414 455.803C117.878 499.505 140.557 531.771 182.153 551.452C219.313 569.035 258.659 574.427 299.564 566.924C371.34 553.767 416.902 497.659 411.855 428.737C411.042 417.607 408.73 406.578 407.11 395.503C409.571 401.666 412.026 407.832 414.05 412.907C416.941 382.795 419.897 352.039 422.864 321.137C411.29 322.044 400.36 322.901 388.304 323.843C389.44 328.316 390.373 332.176 391.397 336.01C396.036 353.363 400.699 370.706 405.357 388.056ZM572.513 692.72C602.309 694.547 629.635 693.102 658.504 687.747C654.755 680.84 652.393 675.158 648.846 670.24C642.147 660.93 632.202 657.043 620.751 659.727C601.138 664.326 584.393 673.357 572.513 692.72ZM527.917 693.17C515.076 674.005 497.878 664.453 477.031 661.396C459.778 658.869 445.185 671.993 444.75 689.117C471.532 693.698 498.53 694.649 527.917 693.17ZM921.075 680.94C917.449 662.937 905.211 651.81 889.823 653.381C871.743 655.224 856.381 663.07 844.049 675.811C841.774 678.158 840.076 681.005 837.162 684.886C866.285 686.604 893.323 685.317 921.075 680.94ZM708.48 679.999C725.982 685.319 775.896 687.58 791.308 683.613C782.585 668.603 767.931 661.059 751.99 655.757C729.867 648.405 713.539 657.846 708.48 679.999ZM369.793 697.507C365.847 682.883 356.178 675.036 341.698 674.812C324.065 674.537 309.032 681.591 295.254 691.084C292.285 693.137 288.415 695.812 287.975 701.041C315.824 702.642 342.784 701.194 369.793 697.507ZM239.088 699.78C224.44 683.015 205.82 674.353 183.081 675.046C169.794 675.452 160.389 684.304 157.757 697.594C184.675 701.115 211.58 702.733 239.088 699.78ZM683.185 360.493C662.294 356.457 642.915 352.716 622.404 348.755C623.508 354.585 624.045 359.271 625.4 363.736C625.995 365.7 627.909 368.183 629.811 368.79C644.291 373.409 658.96 377.438 674.616 378.94C677.589 372.539 680.288 366.73 683.185 360.493ZM381.05 293.986C382.78 301.523 384.226 307.827 385.645 314.006C399.286 315.441 411.567 317.356 425.098 315.181C425.848 309.473 426.566 304.034 427.306 298.41C411.573 296.905 397.143 295.523 381.05 293.986ZM407.956 286.486C407.989 287.137 408.024 287.786 408.058 288.435C414.879 289.224 421.697 290.017 429.427 290.915C429.851 287.045 430.155 284.328 430.547 280.734C422.176 282.865 415.066 284.676 407.956 286.486Z" fill="black"/>
<path d="M1020.44 301.41C1019.02 302.409 1017.32 303.183 1016.24 304.435C987.96 337.021 955.951 365.523 916.7 385.058C923.153 416.874 924.844 447.684 912.133 477.628C899.27 507.941 874.017 523.922 840.72 528.154C796.027 533.84 753.559 525 712.822 507.622C710.864 506.787 709.025 505.693 707.165 504.664C675.952 487.409 663.401 461.863 669.397 428.186C672.517 410.644 678.133 393.771 686.254 377.846C700.905 349.106 716.175 320.636 731.667 292.293C736.092 284.198 741.781 276.633 747.568 269.304C768.973 242.202 798.112 227.471 833.271 223.51C857.675 220.761 877.526 229.1 889.554 249.66C895.721 260.204 899.97 272.021 903.304 283.713C908.911 303.38 910.578 323.696 911.934 344.105C907.494 345.738 903.678 347.147 898.972 348.884C927.363 355.891 1003.9 318.986 1016.29 293.761C1008.43 288.364 1000.51 283.335 993.141 277.659C989.904 275.16 987.581 271.474 985.265 268.073C983.239 265.094 982.253 261.589 985.565 258.797C988.733 256.119 992.408 256.94 995.51 259.006C1000.47 262.307 1005.18 265.931 1010.55 269.825C1011.64 267.495 1012.71 265.152 1013.82 262.826C1015.3 259.738 1016.53 256.507 1018.36 253.617C1022.01 247.855 1026.79 242.863 1034.62 243.876C1043.03 244.965 1047.73 250.773 1049.78 258.078C1052.44 267.531 1050.7 276.54 1043.25 283.6C1039.01 287.615 1033.59 290.499 1028.75 293.963C1026.28 295.731 1023.93 297.649 1021.52 299.5C1021.16 300.141 1020.8 300.772 1020.44 301.41ZM822.076 337.218C825.961 336.417 828.744 335.82 831.542 335.27C843.702 332.894 852.451 326.163 857.483 315.692C865.834 298.324 864.507 281.163 853.544 265.198C845.36 253.277 833.135 248.293 818.193 250.646C800.446 253.437 785.786 261.827 774.589 274.928C764.22 287.056 762.524 300.716 769.583 315.063C770.736 317.405 771.89 319.745 773.32 322.639C765.134 325.586 756.816 327.158 749.858 335.328C781.704 326.04 807.747 334.03 832.495 350.901C829.28 346.679 826.064 342.455 822.076 337.218ZM880.041 355.988C873.774 368.79 866.344 380.387 853.08 388.205C849.987 386.034 847.226 383.92 844.279 382.068C840.414 379.635 836.632 376.867 832.376 375.28C829.383 374.162 824.528 373.468 822.588 374.977C820.572 376.542 820.412 381.027 820.638 384.159C820.899 387.801 822.474 391.357 823.457 394.956C824.133 397.448 824.777 399.951 825.775 403.721C814.892 405.775 804.883 407.66 794.231 409.67C796.483 410.442 798.37 411.525 800.35 411.697C826.676 414.002 850.21 408.01 869.023 389.707C878.459 380.526 882 369.045 880.041 355.988Z" fill="#FF6600"/>
<path d="M407.11 395.502C408.73 406.577 411.042 417.606 411.855 428.736C416.902 497.658 371.34 553.766 299.564 566.923C258.659 574.426 219.313 569.035 182.153 551.451C140.557 531.771 117.878 499.504 113.414 455.802C109.399 416.419 120.069 379.765 136.823 344.27C137.24 343.389 138.145 342.714 139.078 341.652C145.057 343.427 151.068 345.213 157.077 346.998C157.269 346.59 157.463 346.184 157.652 345.776C155.745 344.408 153.976 342.8 151.905 341.706C110.78 319.984 77.2252 290.094 47.9407 255.637C44.0332 251.039 39.5807 247.668 33.99 244.944C20.7564 238.501 11.5189 229.095 12.2229 213.794C12.3326 211.445 12.6656 208.999 13.5108 206.815C16.3688 199.442 20.9034 193.294 29.934 192.492C38.2343 191.754 43.2885 196.874 46.8873 203.047C49.9608 208.317 52.2448 214.002 55.2677 220.32C58.5631 217.684 61.389 215.245 64.4178 213.051C66.9699 211.197 69.544 208.999 72.5006 208.111C75.2352 207.286 79.0456 207.035 81.3894 208.247C85.1609 210.2 84.34 214.226 82.7093 217.349C81.1417 220.354 79.098 223.259 76.7187 225.745C68.9523 233.86 60.344 240.96 48.4193 243.699C49.4989 249.881 53.2706 254.096 57.5242 257.548C65.4041 263.943 73.3755 270.41 82.1027 275.672C105.274 289.643 130.047 300.296 157.25 305.274C160.061 305.79 162.932 306.12 165.791 306.296C168.623 306.47 171.476 306.331 174.835 304.645C168.15 302.478 161.463 300.312 153.948 297.877C155.059 285.394 156.016 273.282 157.241 261.191C159.667 237.187 161.982 213.063 170.189 190.111C174.632 177.677 180.226 165.282 187.49 154.145C215.793 110.762 282.949 111.841 313.775 141.539C325.287 152.624 333.848 165.413 340.498 179.467C351.859 203.488 358.626 228.844 363.92 254.507C372.669 296.931 385.367 338.247 401.001 378.809C402.22 381.971 403.894 384.973 405.353 388.055C405.939 390.535 406.526 393.017 407.11 395.502ZM278.513 256.049C281.367 255.337 283.1 254.925 284.818 254.472C302.561 249.769 310.567 240 310.578 222.74C310.591 207.695 305.979 193.862 296.954 181.56C279.46 157.71 245.893 153.37 222.154 171.874C203.56 186.367 199.091 205.475 203.116 227.029C203.849 230.955 205.063 234.805 206.009 238.516C203.627 240.676 201.789 242.344 198.99 244.875C231.417 237.492 258.767 243.261 281.735 265.274C280.741 262.423 279.749 259.577 278.513 256.049ZM241.873 317.827C244.277 313.354 246.214 310.101 247.812 306.706C249.684 302.719 252.401 298.267 248.689 294.373C245.193 290.702 240.37 293.012 236.557 294.401C228.91 297.192 221.554 300.696 212.976 304.377C207.075 299.046 200.973 293.542 194.355 287.566C197.741 284.695 200.243 282.826 202.421 280.661C205.98 277.131 212.412 274.146 209.75 268.402C207.33 263.187 200.675 263.89 195.355 263.677C190.818 263.5 186.266 263.64 182.227 263.64C180.736 259.315 179.71 256.327 177.975 251.292C173.733 264.819 174.857 275.586 180.423 285.975C192.002 307.576 224.196 324.201 251.684 322.029C247.949 320.431 245.241 319.272 241.873 317.827Z" fill="#FF6600"/>
<path d="M739.776 104.19C738.322 106.033 736.52 107.709 735.464 109.739C702.487 173.218 660.309 230.898 611.999 284.722C610.616 286.26 609.253 287.82 608.375 288.81C609.434 292.932 610.603 296.335 611.162 299.827C614.689 321.947 618.201 344.072 621.489 366.226C624.68 387.721 628.053 409.208 630.481 430.783C632.355 447.437 630.615 464.014 625.468 480.154C620.946 494.331 612.349 505.645 599.199 513.879C578.225 527.016 556.201 536.807 530.185 536.86C506.128 536.907 486.094 528.498 469.053 513.113C449.188 495.182 438.209 472.557 431.187 447.888C424.156 423.192 424.355 398.153 427.255 373.059C436.169 295.902 452.595 220.231 478.586 146.522C487.572 121.051 497.673 95.927 511.783 72.5762C519.76 59.372 529.219 46.8916 538.854 34.6862C543.281 29.0769 549.47 24.5875 555.325 20.1334C585.736 -2.99777 636.278 12.7176 642.055 53.2608C643.908 66.2615 645.072 79.8883 643.056 92.7358C637.752 126.604 630.546 160.205 624.058 193.906C622.128 203.921 619.764 213.869 618.176 223.927C617.057 231.008 614.423 236.729 607.941 240.914C599.091 246.626 590.562 252.777 581.683 258.889C583.396 258.772 585.734 259.21 587.386 258.403C596.281 254.063 605.86 250.448 613.639 244.698C659.207 211.029 695.952 170.044 724.306 122.433C731.436 110.463 732.858 104.804 733.385 96.3916C723.55 93.0553 713.757 90.1979 704.41 86.3648C699.947 84.5341 695.835 81.2772 692.544 77.8305C690.775 75.9825 689.919 72.0259 690.714 69.6325C691.935 65.9501 696.116 65.2574 699.819 66.3653C706.256 68.2946 712.544 70.6631 719.516 73.0601C720.188 68.5229 720.635 64.22 721.51 59.9923C722.262 56.3527 722.995 52.584 724.613 49.2514C729.635 38.9151 739.614 36.6645 749.495 43.3184C759.397 49.9817 763.427 62.5352 759.488 74.2748C756.792 82.3202 751.573 88.7563 744.802 93.9946C741.137 96.8346 739.143 99.9897 739.549 104.438L739.776 104.19ZM581.678 120.912C595.93 122.013 605.646 115.141 612.727 104.468C624.33 86.9746 622.693 59.1958 609.253 42.9301C600.285 32.0764 588.555 27.4411 574.089 30.6136C556.234 34.528 541.723 43.625 531.281 57.7665C521.73 70.7071 520.833 84.8437 527.469 99.3581C528.668 101.982 529.807 104.625 530.984 107.284C515.256 112.798 512.939 114.199 507.796 121.206C539.29 110.31 565.814 119.464 590.223 138.929C588.02 134.385 585.424 130.469 582.341 126.935C580.419 124.727 580.09 122.925 581.927 120.734L581.678 120.912ZM573.256 192.744C563.764 188.867 555.691 185.142 547.267 182.36C544.305 181.383 539.195 181.549 537.426 183.313C535.718 185.017 536.246 189.674 537.212 192.616C538.756 197.325 541.477 201.689 543.62 206.035C541.213 207.67 539.558 208.801 537.901 209.928C566.81 209.297 589.737 198.802 604.993 175.665C611.164 166.305 611.755 155.768 609.862 145.11C609.587 143.564 608.269 142.186 606.962 139.907C605.894 144.713 605.102 148.269 604.279 151.95C596.868 152.323 590.044 152.176 583.4 153.119C574.716 154.346 573.245 158.596 579.111 164.892C582.6 168.634 586.749 171.832 591.649 176.211C585.091 182.107 579.001 187.579 573.256 192.744Z" fill="#FF6600"/>
<path d="M572.514 692.721C584.395 673.358 601.139 664.327 620.753 659.728C632.203 657.043 642.148 660.931 648.848 670.241C652.394 675.159 654.756 680.841 658.506 687.748C629.636 693.103 602.31 694.548 572.514 692.721Z" fill="#FF6600"/>
<path d="M527.916 693.17C498.529 694.649 471.531 693.698 444.749 689.117C445.184 671.993 459.777 658.87 477.03 661.396C497.877 664.453 515.075 674.005 527.916 693.17Z" fill="#FF6600"/>
<path d="M921.077 680.94C893.325 685.317 866.288 686.605 837.165 684.886C840.079 681.005 841.776 678.159 844.051 675.811C856.384 663.071 871.746 655.225 889.825 653.382C905.213 651.811 917.451 662.937 921.077 680.94Z" fill="#FF6600"/>
<path d="M708.482 680C713.542 657.846 729.87 648.405 751.993 655.757C767.933 661.059 782.587 668.603 791.31 683.613C775.898 687.581 725.984 685.319 708.482 680Z" fill="#FF6600"/>
<path d="M239.086 699.78C211.577 702.733 184.672 701.115 157.754 697.594C160.386 684.304 169.791 675.451 183.078 675.046C205.817 674.353 224.437 683.015 239.086 699.78Z" fill="#FF6600"/>
<path d="M290.657 698.161C317.311 701.641 343.38 699.734 369.463 695.583C366.913 679.914 357.8 669.478 344.925 668.999C322.892 668.183 304.85 678.395 290.657 698.161Z" fill="#FF6600"/>
<path d="M683.183 360.494C680.287 366.731 677.588 372.539 674.615 378.94C658.959 377.438 644.29 373.409 629.81 368.79C627.908 368.184 625.994 365.7 625.398 363.736C624.044 359.272 623.507 354.585 622.403 348.755C642.914 352.716 662.293 356.458 683.183 360.494Z" fill="#FF6600"/>
<path d="M407.956 286.486C415.067 284.676 422.176 282.865 430.547 280.734C430.151 284.328 429.851 287.045 429.427 290.912C421.697 290.017 414.879 289.224 408.058 288.435C408.025 287.786 407.989 287.137 407.956 286.486Z" fill="#FF6600"/>
<path d="M241.871 317.827C245.238 319.272 247.947 320.431 251.681 322.03C224.193 324.201 191.999 307.577 180.42 285.976C174.854 275.586 173.73 264.819 177.973 251.293C179.708 256.328 180.733 259.315 182.224 263.641C186.264 263.641 190.815 263.5 195.352 263.678C200.673 263.89 207.327 263.187 209.747 268.403C212.41 274.146 205.978 277.132 202.418 280.662C200.24 282.826 197.739 284.695 194.352 287.567C200.97 293.542 207.072 299.046 212.974 304.378C221.552 300.696 228.907 297.193 236.554 294.402C240.367 293.013 245.19 290.702 248.686 294.374C252.398 298.267 249.682 302.72 247.809 306.706C246.212 310.102 244.274 313.355 241.871 317.827ZM239.65 302.217C232.626 305.043 227.973 306.921 221.215 309.643C227.28 312.414 231.183 314.197 235.824 316.321C237.102 311.618 238.038 308.159 239.65 302.217ZM184.992 272.591C187.418 276.278 188.823 278.412 190.847 281.497C193.193 278.279 194.905 275.931 197.156 272.843C194.702 272.463 193.397 272.106 192.091 272.092C190.344 272.075 188.598 272.319 184.992 272.591Z" fill="black"/>
<path d="M581.929 120.737C580.095 122.926 580.421 124.728 582.343 126.935C585.427 130.469 588.022 134.386 590.225 138.93C565.816 119.465 539.292 110.31 507.798 121.206C512.945 114.2 515.257 112.797 530.986 107.284C529.809 104.625 528.67 101.98 527.471 99.3587C520.834 84.8442 521.732 70.7076 531.283 57.767C541.725 43.6255 556.238 34.5285 574.09 30.6141C588.557 27.4416 600.286 32.0769 609.255 42.9307C622.694 59.1963 624.332 86.9752 612.729 104.469C605.648 115.141 595.934 122.013 581.682 120.912C582.538 120.314 583.298 119.428 584.252 119.161C610.921 111.667 619.713 73.6339 603.246 51.2044C596.774 42.3873 587.529 38.005 576.242 40.3313C557.74 44.144 543.613 54.0723 535.066 70.1959C530.092 79.5862 529.184 89.5849 532.488 99.8456C534.007 104.569 536.468 107.326 542.14 107.645C553.149 108.26 562.826 112.495 572.022 118.122C574.769 119.802 578.596 119.909 581.929 120.737Z" fill="black"/>
<path d="M573.26 192.743C579.005 187.579 585.095 182.107 591.657 176.209C586.753 171.83 582.604 168.634 579.115 164.89C573.249 158.598 574.724 154.346 583.404 153.115C590.048 152.174 596.872 152.323 604.283 151.954C605.106 148.267 605.898 144.717 606.966 139.907C608.273 142.186 609.591 143.565 609.866 145.11C611.759 155.768 611.168 166.307 604.995 175.665C589.741 198.802 566.813 209.299 537.909 209.928C539.562 208.801 541.217 207.67 543.624 206.035C541.481 201.689 538.76 197.325 537.216 192.616C536.25 189.674 535.722 185.017 537.434 183.313C539.201 181.553 544.309 181.383 547.271 182.36C555.695 185.142 563.766 188.867 573.26 192.743ZM562.236 199.192C562.094 198.349 561.957 197.506 561.815 196.666C557.441 195.13 553.064 193.594 546.619 191.337C548.252 197.077 549.224 200.49 550.489 204.936C555.046 202.706 558.641 200.949 562.236 199.192ZM595.687 170.095C597.45 166.829 598.624 164.658 600.305 161.549C596.286 161.549 593.414 161.549 588.905 161.549C591.532 164.855 593.261 167.033 595.687 170.095Z" fill="black"/>
<path d="M828.667 401.961C828.667 394.89 828.667 389.681 828.667 382.788C834.533 386.21 839.636 389.188 846.676 393.293C839.955 396.528 834.963 398.931 828.667 401.961Z" fill="white"/>
<path d="M276.64 252.53C255.096 233.834 248.333 232.197 209.512 236.484C208.646 231.757 207.108 226.923 206.987 222.063C206.494 201.637 222.053 179.963 242.195 172.57C256.552 167.299 269.922 169.167 281.337 178.96C294.066 189.877 301.179 203.923 303.078 219.929C304.954 235.795 295.282 247.311 276.64 252.53ZM853.697 295.329C853.633 313.952 843.432 328.095 826.226 333.941C821.771 335.455 818.012 335.344 814.046 332.846C804.614 326.919 794.244 323.203 782.872 322.76C777.786 322.563 776.066 319.627 774.833 315.949C771.008 304.546 772.744 293.707 779.711 283.885C788.711 271.199 801.653 263.496 817.24 260.121C829.226 257.527 840.256 262.295 846.911 272.135C851.679 279.182 853.702 287.007 853.697 295.329ZM581.93 120.737C578.596 119.909 574.77 119.803 572.022 118.122C562.826 112.495 553.15 108.26 542.141 107.645C536.469 107.327 534.007 104.569 532.488 99.8459C529.184 89.5853 530.093 79.5865 535.067 70.1962C543.613 54.0726 557.741 44.1444 576.243 40.3317C587.529 38.0054 596.774 42.3876 603.247 51.2047C619.714 73.6342 610.922 111.667 584.253 119.161C583.298 119.429 582.538 120.315 581.682 120.913L581.93 120.737Z" fill="white"/>
<path d="M239.655 302.217C238.043 308.159 237.107 311.618 235.829 316.321C231.188 314.197 227.285 312.414 221.22 309.643C227.978 306.92 232.631 305.043 239.655 302.217Z" fill="white"/>
<path d="M184.998 272.592C188.604 272.32 190.35 272.076 192.096 272.093C193.403 272.107 194.708 272.464 197.161 272.844C194.911 275.932 193.198 278.28 190.852 281.498C188.829 278.413 187.424 276.279 184.998 272.592Z" fill="white"/>
<path d="M562.234 199.193C558.639 200.95 555.044 202.707 550.487 204.937C549.222 200.491 548.25 197.078 546.617 191.338C553.062 193.595 557.439 195.131 561.813 196.667C561.955 197.507 562.092 198.35 562.234 199.193Z" fill="white"/>
<path d="M595.689 170.094C593.263 167.033 591.533 164.854 588.906 161.548C593.416 161.548 596.287 161.548 600.307 161.548C598.626 164.657 597.451 166.829 595.689 170.094Z" fill="white"/>
<path d="M276.64 252.53C255.096 233.834 248.333 232.197 209.512 236.484C208.646 231.757 207.108 226.923 206.987 222.063C206.765 212.853 209.807 203.387 215.063 195.093C218.311 217.759 237.681 235.176 261.096 235.176C278.423 235.176 293.535 225.634 301.542 211.489C302.222 214.234 302.735 217.051 303.078 219.929C304.954 235.795 295.282 247.311 276.64 252.53ZM851.753 308.534C848.025 320.576 839.082 329.574 826.226 333.941C821.771 335.455 818.012 335.344 814.045 332.846C804.614 326.919 794.244 323.203 782.872 322.76C777.786 322.563 776.065 319.627 774.833 315.949C772.264 308.299 772.207 300.9 774.546 293.894C781.771 308.631 799.08 319.009 819.291 319.009C831.786 319.009 843.173 315.042 851.753 308.534ZM581.93 120.737C578.596 119.909 574.77 119.803 572.022 118.122C562.826 112.495 553.15 108.26 542.141 107.645C536.469 107.327 534.007 104.569 532.488 99.846C529.184 89.5853 530.093 79.5866 535.067 70.1963C535.88 68.6628 536.744 67.1838 537.66 65.7594C542.204 87.2994 559.839 103.358 580.897 103.358C591.869 103.358 601.906 98.9985 609.65 91.7801C606 104.599 597.252 115.509 584.253 119.161C583.298 119.429 582.538 120.315 581.682 120.913L581.93 120.737Z" fill="#E9E9CF"/>
<path d="M250.64 213.073C260.654 213.073 268.768 220.181 268.768 228.947C268.768 237.717 260.654 244.826 250.64 244.826C240.631 244.826 232.514 237.717 232.514 228.947C232.514 220.181 240.631 213.073 250.64 213.073Z" fill="black"/>
<path d="M246.809 227.086C250.067 227.086 252.711 229.4 252.711 232.254C252.711 235.106 250.067 237.422 246.809 237.422C243.55 237.422 240.909 235.106 240.909 232.254C240.909 229.4 243.55 227.086 246.809 227.086Z" fill="white"/>
<path d="M561.703 89.6163C571.717 89.6163 579.832 96.7243 579.832 105.49C579.832 114.26 571.717 121.367 561.703 121.367C551.694 121.367 543.577 114.26 543.577 105.49C543.577 96.7243 551.694 89.6163 561.703 89.6163Z" fill="black"/>
<path d="M557.88 103.629C561.139 103.629 563.781 105.944 563.781 108.798C563.781 111.65 561.139 113.966 557.88 113.966C554.621 113.966 551.979 111.65 551.979 108.798C551.979 105.944 554.621 103.629 557.88 103.629Z" fill="white"/>
<path d="M794.29 298.911C804.301 298.911 812.416 306.019 812.416 314.785C812.416 323.555 804.301 330.663 794.29 330.663C784.28 330.663 776.162 323.555 776.162 314.785C776.162 306.019 784.28 298.911 794.29 298.911Z" fill="black"/>
<path d="M790.458 312.923C793.717 312.923 796.361 315.238 796.361 318.093C796.361 320.945 793.717 323.261 790.458 323.261C787.2 323.261 784.557 320.945 784.557 318.093C784.557 315.238 787.2 312.923 790.458 312.923Z" fill="white"/>
<path d="M407.11 395.503C408.73 406.577 411.042 417.607 411.855 428.736C416.902 497.658 371.34 553.766 299.564 566.923C282.461 570.061 265.631 570.943 249.118 569.622C301.717 524.951 337.407 438.049 337.407 338.161C337.407 247.799 308.199 168.074 263.689 120.617C283.005 122.245 301.345 129.562 313.774 141.539C325.287 152.624 333.848 165.414 340.498 179.468C351.859 203.488 358.626 228.844 363.92 254.508C372.669 296.931 385.367 338.248 401.001 378.809C402.219 381.971 403.894 384.973 405.353 388.056C405.939 390.535 406.526 393.018 407.11 395.503ZM14.7486 227.536C12.9058 223.567 11.9824 219.025 12.2227 213.795C12.3324 211.446 12.6654 209 13.5106 206.815C16.0593 200.239 19.9372 194.64 27.1559 192.936C22.4853 203.923 18.3362 215.48 14.7486 227.536Z" fill="#E75409"/>
<path d="M739.775 104.19C738.321 106.033 736.519 107.709 735.464 109.739C702.486 173.218 660.308 230.898 611.999 284.722C610.616 286.26 609.253 287.82 608.374 288.81C609.433 292.932 610.602 296.335 611.161 299.827C614.689 321.947 618.2 344.072 621.489 366.226C624.68 387.721 628.053 409.208 630.481 430.783C632.355 447.437 630.615 464.015 625.467 480.154C620.946 494.331 612.349 505.645 599.199 513.879C578.224 527.016 556.2 536.807 530.184 536.86C526.458 536.867 522.833 536.672 519.297 536.278C567.775 477.936 600.293 372.61 600.837 252.125C605.351 249.946 609.722 247.593 613.639 244.698C659.206 211.029 695.952 170.044 724.306 122.433C731.435 110.463 732.857 104.804 733.384 96.3916C723.55 93.0553 713.756 90.1979 704.409 86.3648C699.947 84.5341 695.835 81.2772 692.544 77.8305C690.775 75.9825 689.919 72.0259 690.713 69.6325C691.935 65.9501 696.116 65.2574 699.819 66.3653C706.256 68.2946 712.544 70.6631 719.516 73.0601C720.187 68.5229 720.635 64.22 721.509 59.9923C722.261 56.3527 722.995 52.584 724.612 49.2514C729.635 38.9151 739.613 36.6645 749.494 43.3184C759.396 49.9817 763.427 62.5352 759.488 74.2748C756.792 82.3202 751.572 88.7563 744.801 93.9946C741.136 96.8346 739.142 99.9897 739.548 104.438L739.775 104.19ZM555.381 20.0925C585.799 -2.97663 636.28 12.7405 642.054 53.2608C643.908 66.2615 645.072 79.8883 643.056 92.7358C637.752 126.604 630.546 160.205 624.058 193.906C622.128 203.921 619.764 213.869 618.176 223.927C617.057 231.008 614.423 236.729 607.941 240.914C605.554 242.456 603.188 244.027 600.835 245.623C600.729 224.933 599.683 204.689 597.773 185.056C600.34 182.193 602.749 179.067 604.992 175.665C611.163 166.306 611.755 155.768 609.862 145.11C609.586 143.564 608.269 142.186 606.962 139.907C605.893 144.713 605.102 148.269 604.279 151.95C600.632 152.133 597.125 152.192 593.714 152.315C592.089 141.593 590.205 131.094 588.07 120.854C598.919 119.755 606.759 113.463 612.727 104.468C624.33 86.9746 622.692 59.1958 609.253 42.9301C600.284 32.0764 588.554 27.4411 574.088 30.6136C569.769 31.5596 565.646 32.8102 561.727 34.363C559.678 29.4864 557.563 24.7315 555.381 20.0925Z" fill="#E75409"/>
<path d="M1020.44 301.41C1019.02 302.409 1017.32 303.183 1016.24 304.435C987.957 337.021 955.947 365.523 916.697 385.058C923.15 416.874 924.84 447.684 912.13 477.628C899.266 507.94 874.014 523.921 840.716 528.154C824.118 530.266 807.828 530.374 791.816 528.784C841.56 497.365 876.28 437.691 880.191 368.194C880.529 365.737 880.634 363.205 880.504 360.601C880.549 358.76 880.572 356.913 880.572 355.06C880.572 304.354 864.185 258.117 837.263 223.158C859.835 221.721 878.186 230.235 889.551 249.66C895.718 260.204 899.966 272.021 903.3 283.713C908.908 303.379 910.575 323.696 911.931 344.105C907.491 345.738 903.674 347.147 898.968 348.884C927.36 355.891 1003.89 318.986 1016.29 293.761C1008.43 288.364 1000.5 283.335 993.138 277.658C989.901 275.16 987.578 271.474 985.261 268.073C983.236 265.094 982.249 261.589 985.561 258.797C988.729 256.118 992.405 256.94 995.506 259.006C1000.46 262.306 1005.17 265.931 1010.55 269.824C1011.64 267.494 1012.71 265.152 1013.82 262.826C1015.29 259.738 1016.53 256.507 1018.36 253.617C1022.01 247.855 1026.79 242.863 1034.62 243.876C1043.03 244.964 1047.73 250.773 1049.78 258.078C1052.43 267.531 1050.7 276.54 1043.25 283.6C1039.01 287.615 1033.58 290.499 1028.75 293.963C1026.27 295.731 1023.93 297.649 1021.52 299.5C1021.16 300.141 1020.8 300.772 1020.44 301.41Z" fill="#E75409"/>
<path d="M239.261 153.002C237.014 156.373 232.304 157.386 228.734 155.267C225.165 153.148 224.093 148.696 226.336 145.327C229.231 140.974 235.799 137.462 242.89 135.959C249.198 134.622 256.319 134.691 261.919 136.998C265.794 138.583 267.576 142.835 265.899 146.496C264.221 150.157 259.72 151.84 255.844 150.259C253.355 149.23 249.71 149.301 246.246 150.036C242.803 150.765 239.991 151.899 239.261 153.002Z" fill="#231F20"/>
<path d="M593.769 28.5442C589.877 30.0789 585.405 28.34 583.783 24.6632C582.158 20.9931 584 16.7674 587.888 15.2376C592.911 13.2537 600.418 13.9589 607.129 16.593C613.103 18.9335 618.879 22.8642 622.046 27.8003C624.249 31.203 623.109 35.6496 619.507 37.7266C615.903 39.8073 611.195 38.7328 608.995 35.3283C607.588 33.1354 604.564 31.208 601.286 29.9245C598.026 28.6441 595.036 28.041 593.769 28.5442Z" fill="#231F20"/>
<path d="M836.139 245.244C832.246 246.778 827.775 245.04 826.153 241.363C824.531 237.693 826.37 233.467 830.259 231.935C835.281 229.954 842.791 230.659 849.5 233.292C855.473 235.634 861.25 239.564 864.417 244.5C866.619 247.903 865.479 252.35 861.877 254.426C858.273 256.507 853.565 255.431 851.365 252.028C849.957 249.835 846.935 247.908 843.656 246.624C840.396 245.344 837.407 244.741 836.139 245.244Z" fill="#231F20"/>
</svg>
