<svg width="71" height="72" viewBox="0 0 71 72" fill="none" xmlns="http://www.w3.org/2000/svg">
<path fill-rule="evenodd" clip-rule="evenodd" d="M69.8815 8.98156L69.885 9.01387C65.9828 10.5108 58.1991 16.2553 52.2447 20.9078C57.7881 28.133 56.4024 41.5324 53.5324 49.1748C49.7359 59.2863 37.5913 69.9587 26.901 71.4829C19.9295 72.4768 12.642 70.2598 6.394 63.3827C-1.051 55.1883 -2.14968 41.1959 3.91622 31.9742C12.553 18.8439 31.2757 10.205 43.9137 14.9301C47.8175 8.43387 54.0416 2.76768 60.9676 0.652176C61.312 0.462875 61.6257 0.243752 61.9088 -4.57764e-05C65.8209 2.10435 69.4687 5.02888 70.4082 8.85088C70.2302 8.88718 70.0544 8.93106 69.8815 8.98156Z" fill="#373435"></path>
<path fill-rule="evenodd" clip-rule="evenodd" d="M51.6457 21.3763C49.8717 22.769 48.2857 24.0433 47.0484 25.0491C48.3327 25.3093 49.8586 25.4612 51.6986 25.5664L51.6714 25.575L52.5198 25.3882C52.4458 25.4353 51.8327 25.8431 51.761 25.8652C43.2087 28.4852 38.4797 24.2651 39.3225 15.4902C39.9001 17.6941 40.4606 19.4071 41.1344 20.7436C41.7121 19.1304 42.4491 17.5195 43.3236 15.9483C31.1763 12.1459 12.7134 20.8304 4.80447 33.7008C-0.10203 41.6851 -0.903843 51.2433 6.30606 60.4976L6.33694 60.4584C30.7213 82.6563 64.1569 36.9674 51.6457 21.3763Z" fill="#63F4D5"></path>
<path fill-rule="evenodd" clip-rule="evenodd" d="M46.2507 24.8652C51.9571 17.9345 60.471 10.1486 68.8752 8.33673C67.0503 5.97233 64.0877 3.59863 61.1947 1.53152C54.8989 4.82792 48.8963 10.3524 44.553 16.3828C43.3876 18.0008 42.3412 19.6554 41.4414 21.3128C42.5521 23.233 43.9881 24.2722 46.2507 24.8652Z" fill="#E6E6E6"></path>
<path fill-rule="evenodd" clip-rule="evenodd" d="M54.8026 31.7929C54.4588 36.0684 53.4039 41.1381 51.4393 44.9606C45.1434 58.3203 28.3901 72.7314 12.7148 66.5902C17.2281 69.6042 22.1192 70.5628 26.9071 69.9585C37.5209 68.6188 48.7585 58.5056 52.4949 48.5549C54.3062 43.7298 55.1541 38.858 55.0492 32.8854C54.6985 33.0433 54.8318 32.2076 54.8026 31.7929Z" fill="#63C0A9"></path>
<path fill-rule="evenodd" clip-rule="evenodd" d="M47.1217 33.4426C47.1721 33.442 47.2171 33.4394 47.2534 33.4349L47.2504 33.497L47.4178 33.5676C47.3325 33.7393 47.2667 33.9185 47.2201 34.1019C47.2037 34.4191 47.1834 34.7312 47.159 35.0379C47.1755 35.1765 47.2033 35.3146 47.2428 35.4518L47.1273 35.4166C44.9908 58.7931 19.7358 50.2608 15.6772 38.8582C12.3629 29.5452 20.4782 22.316 28.3027 19.5919C28.3434 19.6325 28.3747 19.6741 28.3983 19.7158L28.4348 19.6682C34.7161 26.155 39.4227 30.1751 47.1217 33.4426Z" fill="#373435"></path>
<path fill-rule="evenodd" clip-rule="evenodd" d="M13.153 44.2497C15.3048 44.2497 17.2546 45.1361 18.6665 46.5688C20.0752 47.9974 20.9464 49.9692 20.9464 52.1445C20.9464 54.3201 20.0752 56.2919 18.6665 57.7205C17.2546 59.1532 15.3048 60.0396 13.153 60.0396C11.0009 60.0396 9.05092 59.1532 7.63892 57.7205C6.23042 56.2919 5.35938 54.3201 5.35938 52.1445C5.35938 49.9692 6.23042 47.9974 7.63892 46.5688C9.05092 45.1361 11.0009 44.2497 13.153 44.2497Z" fill="#373435"></path>
<path fill-rule="evenodd" clip-rule="evenodd" d="M27.9267 20.49C21.3071 23.5503 15.3959 29.2814 17.1188 37.4401C19.0832 46.7411 42.1381 57.6494 46.1927 35.1162C38.7949 32.5883 32.7778 26.9397 27.9267 20.49Z" fill="white"></path>
<path fill-rule="evenodd" clip-rule="evenodd" d="M27.9267 20.4898C21.3071 23.5501 15.3959 29.2812 17.1188 37.4399C18.5364 44.152 30.9372 51.699 39.2548 46.9124C31.3317 48.4233 21.8423 41.9736 20.6129 36.1527C19.1723 29.3311 23.0691 24.2069 28.2545 20.9215C28.1445 20.7781 28.0354 20.6341 27.9267 20.4898Z" fill="#DDEAE3"></path>
<path fill-rule="evenodd" clip-rule="evenodd" d="M17.5153 47.701C16.3997 46.5694 14.8574 45.8695 13.1527 45.8695C11.4479 45.8695 9.90556 46.5694 8.79016 47.701C7.67066 48.8363 6.97852 50.4075 6.97852 52.1446C6.97852 53.882 7.67066 55.4532 8.79016 56.5885C9.90556 57.7201 11.4479 58.4199 13.1527 58.4199C14.8574 58.4199 16.3997 57.7201 17.5153 56.5885C18.6343 55.4532 19.3265 53.882 19.3265 52.1446C19.3265 50.4075 18.6343 48.8363 17.5153 47.701Z" fill="#B4D5D5"></path>
<path d="M20.9091 31.0575L22.9034 32.555C22.5213 33.0653 22.3384 33.5605 22.3546 34.0407C22.3707 34.5214 22.555 34.9299 22.9062 35.2666C23.2842 35.63 23.7412 35.7899 24.2785 35.7502C24.8134 35.7088 25.3171 35.4441 25.7893 34.9517C26.2341 34.4885 26.4654 34.001 26.477 33.4919C26.4889 32.9825 26.3173 32.5556 25.9594 32.212C25.7243 31.9864 25.3998 31.765 24.9851 31.5428L26.6236 30.2434C27.1077 30.7335 27.591 30.9877 28.0739 31.0084C28.5553 31.0314 28.9793 30.8494 29.3471 30.4667C29.6582 30.1422 29.8088 29.7924 29.8037 29.4128C29.7958 29.0358 29.6337 28.6945 29.3136 28.3872C28.9979 28.0839 28.6242 27.9362 28.1917 27.9425C27.7573 27.9473 27.3158 28.1381 26.8625 28.512L25.448 26.5989C26.1295 26.1266 26.7557 25.8281 27.3319 25.7068C27.9045 25.5855 28.5026 25.6303 29.1212 25.8372C29.7372 26.0458 30.3127 26.4053 30.8411 26.9121C31.7454 27.7801 32.1931 28.7648 32.1831 29.8689C32.1768 30.7754 31.8877 31.5292 31.3134 32.127C30.5015 32.9726 29.3895 33.2081 27.9815 32.8249C28.4186 33.4717 28.6036 34.1572 28.5398 34.8868C28.4733 35.6147 28.1618 36.2707 27.6035 36.8521C26.7931 37.6959 25.7922 38.12 24.6059 38.124C23.4191 38.1291 22.3673 37.6914 21.4498 36.8107C20.5818 35.977 20.1016 35.0345 20.0142 33.9831C19.9224 32.9317 20.2208 31.958 20.9091 31.0575ZM28.3774 38.2274L30.3718 39.725C29.9894 40.2352 29.8066 40.7307 29.8227 41.2106C29.8388 41.6914 30.0231 42.0998 30.3746 42.4369C30.7522 42.8 31.21 42.9599 31.7465 42.9202C32.2814 42.8788 32.7852 42.614 33.2575 42.1217C33.703 41.6585 33.9335 41.1709 33.9452 40.6618C33.9571 40.1524 33.7859 39.7255 33.4276 39.382C33.1926 39.1563 32.8679 38.935 32.4533 38.7127L34.092 37.4133C34.5759 37.9034 35.0596 38.1577 35.5422 38.1784C36.0235 38.2013 36.4475 38.0188 36.8151 37.6367C37.1264 37.3121 37.2775 36.9623 37.2719 36.583C37.2642 36.2058 37.1018 35.8645 36.7818 35.5572C36.4663 35.2539 36.0924 35.1062 35.6604 35.1124C35.2256 35.1173 34.7842 35.3083 34.3307 35.6813L32.9162 33.7688C33.5976 33.2966 34.2238 32.9981 34.8004 32.8767C35.3727 32.7554 35.9711 32.8002 36.5893 33.0071C37.2053 33.2158 37.7814 33.5752 38.3094 34.082C39.2136 34.95 39.6614 35.935 39.6513 37.0389C39.645 37.9454 39.3559 38.6994 38.7816 39.2969C37.9698 40.1425 36.8577 40.3781 35.45 39.9948C35.8868 40.6417 36.0718 41.3271 36.0079 42.0567C35.9413 42.7847 35.63 43.4406 35.0717 44.022C34.2614 44.8659 33.2607 45.2899 32.0739 45.2939C30.887 45.299 29.8357 44.8613 28.9179 43.9806C28.0498 43.147 27.5697 42.2044 27.4826 41.1531C27.3907 40.1017 27.6891 39.128 28.3774 38.2274Z" fill="#373435"></path>
</svg>