<svg width="139" height="238" viewBox="0 0 139 238" fill="none" xmlns="http://www.w3.org/2000/svg">
<path d="M77.0173 87.7768C77.0896 87.9846 77.1551 88.2088 77.2449 88.4231C78.1027 90.4686 77.8269 92.3968 76.6202 94.2118C75.6459 95.6767 74.3139 96.738 72.7115 97.4373C69.5126 98.8331 66.3035 98.8453 63.1136 97.3942C62.0489 96.9101 61.1283 96.2187 60.3688 95.3252C59.0374 93.7588 58.6134 91.973 59.095 89.9726C59.1593 89.7047 59.2146 89.4351 59.2945 89.0714C58.1451 88.9756 57.0452 88.8894 55.946 88.7911C43.9395 87.7148 32.8141 84.1326 22.9374 77.0775C17.2224 72.995 12.4214 68.0282 9.16241 61.7625C2.68241 49.305 3.40128 37.0718 10.7903 25.2386C15.2322 18.1248 21.4577 12.845 28.6999 8.73133C36.1253 4.51343 44.1107 1.93243 52.5571 0.762337C64.2645 -0.859665 75.7496 0.0613403 86.9442 3.93714C95.3353 6.84155 102.855 11.2077 109.134 17.561C114.183 22.6693 117.899 28.5872 119.657 35.6018C121.917 44.6214 120.675 53.2262 116.248 61.3659C112.414 68.4142 106.878 73.8848 100.231 78.2785C93.545 82.6977 86.2254 85.6106 78.4204 87.3485C78.0318 87.4347 77.644 87.5226 77.2585 87.6198C77.1877 87.6374 77.129 87.702 77.0173 87.7768ZM41.3336 12.2834C41.1168 12.4433 40.9147 12.6318 40.6797 12.7585C34.2045 16.2621 29.243 21.3095 25.5523 27.6367C24.4431 29.5382 23.6557 31.5766 23.2489 33.7533C22.4614 37.9693 24.0426 41.4145 27.7786 43.526C29.4936 44.4949 31.3259 45.1058 33.3003 45.3209C36.2576 45.6432 39.0866 45.0843 41.8697 44.1777C45.7149 42.9254 49.295 41.0857 52.7082 38.9591C54.2749 37.9826 55.7657 37.7048 57.5447 38.0665C60.5114 38.67 63.3078 39.6128 65.717 41.5001C66.2386 41.9086 66.7026 42.3916 67.2225 42.8673C66.9957 43.1958 66.8284 43.4098 66.6918 43.642C65.9871 44.8362 65.1432 45.9749 64.6211 47.2454C63.4532 50.088 63.1272 53.0615 63.4776 56.1422C64.1072 61.6817 67.6156 65.9115 73.0627 66.9825C81.1505 68.5727 88.3091 66.7237 94.098 60.5838C96.692 57.8325 98.6366 54.643 100.246 51.2456C100.961 49.7379 101.641 48.2055 102.205 46.6368C102.82 44.9266 102.466 43.3132 101.218 41.9812C100.323 41.025 99.4022 40.0661 98.3678 39.2718C95.4637 37.0421 92.5409 34.8308 89.5427 32.7309C81.3807 27.0154 72.9218 21.7886 63.9003 17.519C59.3603 15.3704 54.7254 13.4649 49.7812 12.4461C47.5597 11.9883 45.318 11.6094 43.0341 12.0119C43.4029 11.5359 43.9429 11.5878 44.454 11.5558C48.0906 11.3279 51.5831 12.0836 55.0247 13.1401C61.2586 15.0534 67.0909 17.8813 72.7976 20.992C73.2089 21.2163 73.6276 21.4277 73.9343 21.5882C74.7501 21.1896 75.4098 20.8115 76.1105 20.5385C77.4952 19.9988 78.9162 19.9577 80.3109 20.4994C81.0374 20.7817 81.7103 21.388 82.4346 21.4354C83.1761 21.4836 83.9381 20.9733 84.7119 20.8018C89.0339 19.8423 92.7864 20.8288 95.7129 24.2519C98.4957 27.5075 98.8186 32.232 96.4408 35.6854C96.3079 35.8782 96.2002 36.0882 96.0641 36.3184C96.2892 36.527 96.4837 36.7232 96.6948 36.8998C98.1005 38.0739 99.5159 39.2369 100.916 40.4181C102.492 41.7479 103.293 43.4382 103.414 45.5128C103.537 47.6179 103.7 49.7294 104.017 51.8117C104.351 54.0043 103.942 55.9996 102.933 57.9249C102.674 58.4176 102.46 58.9338 102.234 59.4429C100.587 63.1401 98.5561 66.5935 95.794 69.5815C92.7759 72.8465 89.1997 75.2114 84.827 76.2251C81.4155 77.016 77.9567 77.1574 74.5075 76.542C70.5812 75.8419 67.3259 74.0104 65.1177 70.568C65.0185 70.4132 64.8632 70.2942 64.7112 70.1346C62.2601 71.3498 60.2705 73.029 58.6012 75.0995C57.2865 76.7297 56.2923 78.5311 55.7773 80.5771C55.1729 82.9792 55.3697 85.2914 56.4868 87.5472C57.3315 87.6249 58.1241 87.681 58.9118 87.776C59.6729 87.8676 60.2118 87.6598 60.7688 87.0469C64.4601 82.9906 71.3245 82.5642 75.5095 86.122C76.0768 86.6036 76.5847 86.681 77.2438 86.5489C84.3233 85.1316 91.0584 82.7782 97.3216 79.155C103.393 75.6426 108.664 71.216 112.76 65.4724C121.462 53.2724 121.818 38.272 113.708 25.6655C110.699 20.9883 106.891 17.0556 102.441 13.7481C92.7204 6.52261 81.686 2.77293 69.7271 1.56763C63.6414 0.954834 57.5608 1.1016 51.5021 2.003C43.7524 3.1556 36.3838 5.46472 29.4939 9.21803C23.0105 12.75 17.3174 17.2528 13.0237 23.3147C5.42628 34.0416 3.80831 45.5727 8.87921 57.8146C11.6226 64.4358 16.1362 69.7652 21.6904 74.2196C30.151 81.004 39.8891 84.9003 50.4924 86.7946C50.6656 86.8253 50.8541 86.7683 51.0295 86.7521C50.2976 77.0395 54.0397 70.2378 63.4597 67.0669C63.2982 66.0714 63.11 65.1363 63.0003 64.192C62.7655 62.1755 62.5938 60.1518 62.3557 58.1358C62.0135 55.2354 61.8585 52.3443 62.5456 49.468C62.5804 49.3218 62.5501 49.1596 62.5501 48.8495C61.0018 48.2772 59.4286 47.7363 57.89 47.1099C57.1067 46.7913 56.5064 46.8868 55.8017 47.3591C52.4542 49.6018 48.9645 51.5917 45.1902 53.0428C41.8484 54.3275 38.4171 55.118 34.8057 54.8575C31.7939 54.6398 29.0426 53.6727 26.6207 51.8633C24.3241 50.1478 23.0731 47.8319 22.837 44.9663C22.7389 43.7763 22.606 42.5886 22.4762 41.4015C22.312 39.898 22.0972 38.3993 21.9722 36.893C21.7553 34.2848 22.4163 31.8334 23.4524 29.4736C24.9585 26.0428 27.1295 23.0557 29.69 20.3446C32.5556 17.3101 35.7553 14.7068 39.5475 12.9008C40.113 12.6318 40.7369 12.4861 41.3336 12.2834ZM64.0604 62.0728C64.1469 63.0088 64.184 63.6421 64.2671 64.2694C65.1075 70.6054 68.9502 74.367 74.408 75.4422C76.7352 75.9005 79.0608 75.8966 81.415 75.6636C85.7046 75.2389 89.4937 73.677 92.7927 70.909C94.4796 69.4931 95.9261 67.8586 97.2272 66.0881C99.625 62.8249 101.313 59.1795 102.911 55.4891C103.312 54.565 103.441 53.5958 103.273 52.5708C103.099 51.5132 103.049 50.4358 102.933 49.368C102.907 49.1296 102.828 48.8971 102.711 48.3957C102.235 49.3986 101.861 50.1379 101.528 50.895C99.8679 54.6713 97.8145 58.1987 95.004 61.248C92.0222 64.4831 88.4885 66.8438 84.1702 67.8731C80.6482 68.7127 77.0757 68.8632 73.5097 68.1914C69.8122 67.4947 66.7128 65.7712 64.5355 62.5998C64.453 62.4796 64.3396 62.3804 64.0604 62.0728ZM23.635 41.6963C23.7243 42.7734 23.8113 43.7483 23.8847 44.7243C24.0777 47.293 25.1776 49.3762 27.2276 50.9389C28.8357 52.1652 30.6467 52.9731 32.6191 53.3937C35.405 53.9884 38.1645 53.7404 40.8934 53.0204C45.9187 51.6935 50.3838 49.1565 54.8226 46.5603C55.2852 46.2893 55.3524 45.9414 55.3059 45.4632C55.2089 44.4734 55.1591 43.4784 55.0814 42.4863C55.0017 41.4687 54.9113 40.4519 54.8115 39.2627C54.3129 39.5527 53.9529 39.7741 53.5821 39.9754C51.1358 41.3048 48.7349 42.7304 46.2268 43.9311C43.0846 45.4346 39.7655 46.4296 36.2466 46.5591C31.5331 46.7332 27.3594 45.4511 24.0358 41.9355C23.9624 41.8581 23.8467 41.8204 23.635 41.6963ZM68.4623 84.9603C66.2658 84.9501 64.5644 85.3059 63.0062 86.1931C59.5941 88.136 59.1018 91.9594 61.8913 94.7152C64.9973 97.7831 71.0166 98.1488 74.4789 95.4769C75.4903 94.6968 76.1955 93.7143 76.4373 92.4367C76.7746 90.6554 76.2409 89.1233 75.0325 87.8259C73.1511 85.8068 70.73 85.0598 68.4623 84.9603ZM65.7637 42.7499C62.7006 41.0752 59.5644 39.4334 55.8915 38.5062C56.078 41.1568 56.2518 43.625 56.4174 45.9851C58.7517 46.5393 60.8969 47.0489 62.9266 47.5306C63.8623 45.9548 64.7682 44.4277 65.7637 42.7499ZM54.9745 87.4035C54.9073 87.058 54.8977 86.863 54.8314 86.6892C53.704 83.748 54.0822 80.8972 55.4414 78.1538C57.2096 74.5836 59.9283 71.9306 63.4853 70.1366C63.824 69.9656 64.1627 69.795 64.5202 69.615C64.3311 69.1626 64.1999 68.8318 64.0547 68.5069C63.9167 68.1963 63.7645 67.8915 63.6233 67.5953C54.5147 70.7982 50.6647 80.6996 52.4642 87.1093C53.2479 87.2011 54.0603 87.2961 54.9745 87.4035ZM84.6181 28.1104C87.3045 29.9815 89.8863 31.7801 92.5418 33.6294C93.0971 32.1546 93.4183 30.8104 93.3392 29.401C93.2465 27.7561 92.5767 26.3968 91.1454 25.5184C89.0762 24.2473 86.7733 24.033 84.3301 24.0444C84.6569 25.4319 85.4779 26.6752 84.6181 28.1104ZM95.669 36.0811C95.9091 35.5638 96.1092 35.2205 96.2317 34.8512C96.4695 34.1351 96.7189 33.4157 96.8663 32.6784C97.6099 28.9585 96.154 25.445 93.0075 23.3281C91.2506 22.146 89.2953 21.515 87.1883 21.3937C85.6907 21.3081 84.1884 21.299 82.5993 21.837C82.9494 22.2886 83.2711 22.6293 83.5038 23.0228C83.8338 23.5809 84.2312 23.7119 84.8857 23.6231C86.4275 23.4137 87.98 23.4332 89.5147 23.7785C93.3094 24.6323 95.2628 27.6509 94.426 31.4556C94.2137 32.4185 93.8517 33.3485 93.5246 34.403C94.1553 34.8968 94.833 35.4272 95.669 36.0811ZM84.2008 27.8085C84.6737 26.3923 83.6453 24.4276 81.7027 22.8836C79.4327 21.0799 76.6253 20.6737 74.5906 21.9144C77.79 23.8763 80.9549 25.8177 84.2008 27.8085Z" fill="black"></path>
<path d="M120.108 162.067C120.37 162.08 120.489 162.098 120.607 162.091C122.688 161.976 123.719 162.511 124.314 164.485C124.85 166.263 125.094 168.132 125.413 169.97C125.678 171.498 125.863 173.04 126.088 174.575C126.398 176.693 127.461 178.336 129.144 179.652C131.346 181.374 133.358 183.303 135.055 185.538C137.513 188.776 138.916 192.372 138.848 196.495C138.824 197.956 138.56 199.351 137.981 200.675C136.116 204.942 133.16 208.232 129.066 210.471C127.693 211.221 126.231 211.727 124.67 211.929C124.321 211.974 123.976 212.067 123.517 212.161C122.689 220.761 121.206 229.25 119.14 237.808H117.359C117.41 237.679 117.455 237.564 117.48 237.445C118.451 232.769 119.477 228.105 120.369 223.414C121.731 216.25 122.629 209.019 122.898 201.729C123.035 197.991 122.938 194.245 122.915 190.503C122.913 190.047 122.856 189.458 122.578 189.161C121.345 187.845 119.989 186.736 118.066 186.484C114.3 185.992 110.641 185.066 107.212 183.375C105.524 182.541 103.96 181.521 102.67 180.126C101.088 178.416 100.149 176.412 100.332 174.061C100.612 170.464 102.08 167.376 104.787 164.966C106.256 163.657 108.038 163.192 110.013 163.497C112.092 163.818 113.819 164.841 115.436 166.106C115.765 166.364 116.094 166.622 116.475 166.92C116.905 164.836 117.165 164.114 118.124 163.274C118.707 162.763 118.767 162.291 118.562 161.606C117.627 158.481 116.82 155.314 115.8 152.217C112.797 143.098 108.826 134.434 103.346 126.512C98.8649 120.035 93.5647 114.348 86.9911 109.948C78.0955 103.992 68.3806 102.329 58.141 105.332C45.9469 108.909 38.0543 116.94 35.0017 129.404C33.4928 135.565 33.8893 141.752 35.4702 147.847C36.4485 151.619 37.6563 155.333 38.7644 159.071C39.9731 163.147 40.7207 167.279 40.2926 171.555C40.2821 171.661 40.3513 171.774 40.383 171.882C41.7621 172.328 43.1388 172.724 44.4793 173.22C45.8147 173.715 47.1671 174.213 48.3344 175.223C46.3045 174.581 44.4121 173.852 42.4568 173.386C35.189 171.654 27.8198 171.234 20.393 171.991C17.3767 172.299 14.4191 172.939 11.6018 174.11C9.67327 174.911 7.89316 175.946 6.41916 177.454C4.71156 179.203 3.74913 181.296 3.54843 183.729C3.38523 185.702 3.62273 187.624 4.36203 189.472C6.49733 194.814 9.48963 199.623 13.3753 203.867C13.7979 204.328 14.317 204.725 14.8513 205.056C16.3877 206.007 17.7634 207.139 18.9477 208.503C19.1368 208.72 19.2858 208.972 19.4536 209.208C19.0364 209.036 18.7716 208.744 18.4657 208.505C17.4019 207.673 16.3883 206.752 15.2389 206.059C11.8586 204.022 8.21172 203.584 4.43112 204.679C1.90752 205.409 0.909772 207.336 1.57327 209.87C1.95427 211.326 2.70173 212.588 3.64743 213.733C6.13933 216.747 9.30285 218.717 13.0952 219.648C15.0112 220.119 16.964 220.168 18.9054 219.822C22.9 219.11 26.0042 216.919 28.544 213.857C28.8505 213.488 28.9985 212.951 29.1156 212.467C29.3121 211.658 29.3245 210.792 29.5984 210.014C29.9294 209.074 29.7513 208.293 29.2 207.556C28.7005 206.888 28.1788 206.231 27.6073 205.625C26.8431 204.814 26.0074 204.072 25.2262 203.276C21.1109 199.085 18.176 194.167 16.2981 188.617C15.6166 186.602 15.3006 184.519 15.4724 182.383C15.535 181.603 15.655 180.835 16.1363 180.177C16.0604 181.107 15.9837 182.037 15.9038 183.015C16.1779 182.984 16.3047 182.998 16.4059 182.954C19.8032 181.481 23.385 180.766 27.044 180.405C30.8183 180.032 34.5916 179.872 38.3293 180.777C40.6563 181.34 42.9457 182.007 45.057 183.168C45.7983 183.576 46.5633 183.972 47.213 184.795C46.9369 184.727 46.8207 184.723 46.7303 184.673C43.7774 183.04 40.5054 182.542 37.2478 181.982C36.6103 181.873 36.2197 182.064 35.875 182.623C35.2273 183.672 34.5053 184.675 33.8023 185.69C30.7624 190.076 27.7646 194.489 25.1996 199.177C24.9762 199.586 24.7754 200.006 24.56 200.429C26.6757 202.616 28.7153 204.724 30.7534 206.831C33.7547 203.707 33.863 203.625 35.3214 203.401C32.7651 205.427 31.4703 208.116 30.8438 211.155C30.2165 214.2 30.4869 217.143 32.1089 219.915C30.1618 219.164 29.6995 217.4 29.1714 215.531C26.2111 218.677 22.707 220.587 18.6612 221.444C18.1815 226.977 18.4261 232.37 18.7274 237.808H16.2567C16.293 232.432 15.5835 227.141 16.1768 221.711C15.6291 221.634 15.1363 221.552 14.6405 221.499C10.022 221.001 6.25246 218.882 3.20206 215.443C1.67616 213.723 0.522229 211.786 0.112029 209.473C-0.417471 206.49 0.945749 204.276 3.86795 203.495C6.38535 202.822 8.91167 202.892 11.4209 203.59C11.7579 203.684 12.0936 203.783 12.5426 203.719C12.2512 203.418 11.9602 203.116 11.6674 202.816C8.56065 199.631 5.89693 196.125 3.91153 192.127C2.72693 189.742 1.99532 187.256 2.04782 184.553C2.12232 180.712 3.66612 177.631 6.67502 175.275C9.17122 173.32 12.0644 172.211 15.1076 171.487C19.791 170.373 24.5529 170.029 29.3443 170.398C32.1571 170.614 34.9529 171.054 37.7569 171.387C37.988 171.414 38.2247 171.39 38.5711 171.39C38.6145 170.993 38.6667 170.608 38.6961 170.223C38.9476 166.961 38.403 163.786 37.5569 160.662C36.5067 156.782 35.3388 152.935 34.2735 149.059C33.1601 145.006 32.6203 140.876 32.6645 136.664C32.8317 120.754 43.305 107.412 58.766 103.624C69.1836 101.072 78.9228 102.784 87.8454 108.778C95.1656 113.696 100.955 120.108 105.757 127.448C111.23 135.812 115.106 144.906 117.991 154.443C118.624 156.537 119.154 158.663 119.734 160.773C119.849 161.19 119.974 161.604 120.108 162.067ZM123.565 211.673C124.634 211.284 125.522 211.055 126.325 210.652C131.103 208.259 134.527 204.566 136.666 199.68C137.183 198.5 137.383 197.255 137.393 195.959C137.421 192.495 136.311 189.392 134.482 186.511C132.696 183.698 130.445 181.286 127.936 179.114C127.007 178.31 126.304 177.369 125.89 176.225C125.607 175.442 125.331 174.645 125.164 173.831C124.731 171.727 124.406 169.6 123.944 167.504C123.723 166.505 123.36 165.52 122.926 164.592C122.529 163.746 121.77 163.242 120.788 163.368C119.28 163.56 118.072 164.25 117.422 165.702C116.998 166.648 116.95 167.546 117.791 168.325C117.937 168.462 118.025 168.663 118.139 168.834C117.582 168.584 117.156 168.231 116.724 167.885C115.286 166.734 113.756 165.743 111.983 165.176C108.943 164.202 106.364 164.925 104.449 167.463C103.668 168.498 103.033 169.682 102.528 170.88C101.182 174.075 101.817 176.953 104.174 179.466C105.329 180.699 106.699 181.651 108.166 182.469C111.003 184.048 114.043 185.099 117.179 185.888C117.519 185.973 117.889 185.995 118.239 185.969C120.224 185.822 121.962 186.469 123.388 187.78C124.403 188.715 125.352 189.771 126.124 190.912C128.183 193.96 129.357 197.373 129.909 201C129.994 201.555 129.981 202.124 130.013 202.687C129.922 202.703 129.831 202.72 129.741 202.736C128.309 198.713 126.803 194.726 124.155 191.264C124.373 198.002 124.097 204.691 123.565 211.673ZM16.054 184.198C15.7754 188.128 19.1699 194.573 22.8424 198.336C22.9918 198.15 23.146 197.978 23.2787 197.79C25.365 194.834 27.4454 191.875 29.5329 188.92C30.9318 186.939 32.344 184.967 33.7384 182.982C33.9779 182.641 34.1581 182.259 34.4832 181.688C28.0528 181.56 21.966 182.037 16.054 184.198Z" fill="black"></path>
<path d="M43.3013 85.1529C35.4672 82.9484 28.2012 79.4388 21.6914 74.2188C16.1372 69.7644 11.6233 64.4354 8.88019 57.8142C3.80929 45.5723 5.42696 34.0409 13.0247 23.3141C17.3184 17.2524 23.0115 12.7499 29.4952 9.21756C36.3851 5.46426 43.7537 3.15514 51.5028 2.00253C57.5618 1.10114 63.6424 0.954071 69.7281 1.56717C81.687 2.77247 92.7214 6.52185 102.442 13.7477C106.892 17.0554 110.7 20.9879 113.709 25.6651C121.819 38.2713 121.463 53.272 112.761 65.472C108.665 71.2156 103.394 75.6422 97.3226 79.1546C91.0591 82.7778 84.324 85.1311 77.2448 86.5484C76.5857 86.6802 76.0778 86.6032 75.5103 86.1216C71.3255 82.5641 64.1521 83.609 60.4606 87.6653C59.0636 89.2017 44.3768 85.6217 43.3013 85.1529Z" fill="#FFF600"></path>
<path d="M32.1085 219.915C30.4865 217.143 30.2162 214.2 30.8435 211.155C31.47 208.116 32.7648 205.427 35.3211 203.401C33.8627 203.625 33.7544 203.707 30.7531 206.831C28.715 204.724 26.6753 202.616 24.5596 200.429C24.775 200.006 24.9758 199.586 25.1992 199.177C27.7642 194.489 30.7621 190.076 33.802 185.69C34.505 184.675 35.2269 183.672 35.8746 182.623C36.2193 182.064 36.6099 181.873 37.2474 181.982C40.505 182.542 43.777 183.04 46.7299 184.673C46.8203 184.723 46.9366 184.727 47.2127 184.795C46.563 183.972 45.798 183.576 45.0567 183.168C42.9454 182.007 40.6559 181.34 38.3289 180.777C34.5912 179.872 30.818 180.032 27.0437 180.405C23.3847 180.766 19.8028 181.481 16.4055 182.954C16.3043 182.998 16.1776 182.984 15.9035 183.015C15.9834 182.037 16.06 181.107 16.1359 180.177C15.6546 180.835 15.5347 181.603 15.4721 182.383C15.3003 184.519 15.6162 186.602 16.2977 188.617C18.1756 194.167 21.1105 199.085 25.2258 203.276C26.007 204.072 26.8427 204.814 27.6069 205.625C28.1784 206.231 28.7002 206.888 29.1997 207.556C29.751 208.293 29.929 209.074 29.598 210.014C29.3241 210.792 29.3117 211.658 29.1152 212.467C28.9981 212.951 28.8502 213.488 28.5437 213.857C26.0039 216.919 22.8996 219.11 18.905 219.822C16.9636 220.168 15.0109 220.119 13.0949 219.648C9.30246 218.717 6.13895 216.747 3.64705 213.733C2.70135 212.588 1.95389 211.326 1.57289 209.87C0.909389 207.336 1.90714 205.409 4.43074 204.679C8.21134 203.584 11.8582 204.022 15.2385 206.059C16.3879 206.752 17.4015 207.673 18.4653 208.505C18.7712 208.744 19.0361 209.036 19.4533 209.208C19.2855 208.972 19.1364 208.72 18.9473 208.503C17.763 207.139 16.3874 206.007 14.851 205.056C14.3167 204.725 13.7976 204.328 13.375 203.867C9.48925 199.623 6.49695 194.814 4.36165 189.472C3.62235 187.624 3.38485 185.702 3.54805 183.729C3.74875 181.296 4.71118 179.203 6.41878 177.454C7.89278 175.946 9.67289 174.911 11.6014 174.11C14.4187 172.939 17.3764 172.299 20.3927 171.991C27.8195 171.234 35.1886 171.654 42.4564 173.386C44.4117 173.852 46.3042 174.581 48.3341 175.223C47.1668 174.213 45.8144 173.715 44.479 173.22C43.1385 172.724 41.7617 172.328 40.3826 171.882C40.3509 171.774 40.2817 171.661 40.2922 171.555C40.7203 167.279 39.9727 163.147 38.764 159.071C37.6559 155.333 36.4482 151.619 35.4699 147.847C33.889 141.752 33.4925 135.565 35.0014 129.404C38.054 116.94 45.9465 108.909 58.1406 105.332C68.3802 102.329 78.0951 103.992 86.9907 109.948C93.5643 114.348 98.8645 120.035 103.345 126.512C108.826 134.434 112.796 143.098 115.799 152.217C116.819 155.314 117.626 158.481 118.562 161.606C118.767 162.291 118.706 162.763 118.124 163.274C117.164 164.114 116.904 164.836 116.474 166.92C116.093 166.622 115.765 166.364 115.436 166.106C113.819 164.841 112.091 163.818 110.013 163.497C108.038 163.192 106.256 163.657 104.786 164.966C102.079 167.376 100.612 170.464 100.332 174.061C100.149 176.412 101.088 178.416 102.67 180.126C103.959 181.521 105.524 182.541 107.212 183.375C110.64 185.066 114.3 185.992 118.066 186.484C119.989 186.736 121.345 187.845 122.577 189.161C122.855 189.458 122.912 190.047 122.915 190.503C122.938 194.245 123.035 197.991 122.897 201.729C122.628 209.019 121.731 216.25 120.368 223.414C119.477 228.105 118.451 232.769 117.48 237.445C117.455 237.564 117.41 237.679 117.359 237.808H18.7271C18.4258 232.37 18.1811 226.977 18.6608 221.444C22.7066 220.587 26.2107 218.677 29.171 215.531C29.6991 217.4 30.1614 219.164 32.1085 219.915ZM57.1986 148.491C57.2445 148.564 57.2905 148.637 57.3364 148.71C57.606 148.564 57.8757 148.42 58.145 148.274C59.5433 147.514 60.9163 146.703 62.3438 146.003C66.7514 143.844 71.401 142.587 76.3118 142.244C79.4648 142.024 82.5942 142.169 85.7268 142.48C86.0803 142.515 86.4397 142.485 86.796 142.485C86.8031 142.412 86.8105 142.34 86.8173 142.268C85.0564 141.898 83.2958 141.528 81.4808 141.147C81.618 140.782 81.7077 140.523 81.8126 140.269C82.6893 138.144 83.1036 135.922 83.1008 133.632C83.0948 128.511 81.635 123.827 78.7499 119.598C77.3668 117.571 75.672 115.846 73.5814 114.536C71.1496 113.012 68.4995 112.213 65.63 112.513C59.982 113.103 55.8921 115.984 53.5173 121.161C51.5086 125.54 51.1071 130.126 52.1475 134.813C53.2 139.555 55.5717 143.434 59.8121 146.016C59.8982 146.068 59.9468 146.184 60.0335 146.297C59.0749 147.039 58.1369 147.765 57.1986 148.491ZM85.7695 156.375C81.4706 156.303 77.3133 156.657 73.1826 157.351C69.0429 158.045 64.9687 159.007 60.8737 160.448C60.8737 159.819 60.916 159.379 60.8666 158.95C60.6263 156.88 59.7767 155.193 57.721 154.395C55.5534 153.553 53.6535 154.73 53.3975 157.028C53.3581 157.381 53.3636 157.744 53.3886 158.099C53.4889 159.515 53.9897 160.81 54.6239 162.062C54.7994 162.408 54.9764 162.753 55.1771 163.147C54.4843 163.587 53.8443 163.982 53.2167 164.396C52.6189 164.79 52.0239 165.191 51.4459 165.614C50.8753 166.032 50.3273 166.482 49.7698 166.918C50.1445 166.949 50.3841 166.82 50.6134 166.674C54.8807 163.972 59.4676 161.98 64.2996 160.545C69.7741 158.92 75.3765 157.932 81.0557 157.425C84.4324 157.124 87.8202 157.18 91.1713 157.821C92.3655 158.05 93.5565 158.295 94.7493 158.532C94.7819 158.452 94.8146 158.372 94.8475 158.292C94.0212 157.878 93.1954 157.464 92.3881 157.059C92.6883 156.379 93.0138 155.78 93.2213 155.142C93.7284 153.584 93.6359 152.069 92.6626 150.697C91.237 148.687 88.746 148.654 87.3961 150.703C86.8411 151.546 86.5057 152.562 86.22 153.544C85.9686 154.408 85.9257 155.333 85.7695 156.375Z" fill="#FF6600"></path>
<path d="M123.565 211.674C124.097 204.692 124.373 198.002 124.155 191.265C126.803 194.727 128.31 198.713 129.741 202.736C129.832 202.72 129.923 202.704 130.013 202.687C129.981 202.125 129.994 201.555 129.909 201.001C129.357 197.373 128.183 193.96 126.124 190.913C125.353 189.771 124.403 188.715 123.388 187.781C121.962 186.47 120.224 185.822 118.24 185.97C117.889 185.996 117.519 185.974 117.18 185.889C114.043 185.1 111.004 184.049 108.167 182.469C106.699 181.652 105.329 180.699 104.174 179.467C101.817 176.953 101.183 174.075 102.528 170.881C103.034 169.682 103.668 168.499 104.449 167.463C106.364 164.925 108.943 164.203 111.984 165.176C113.756 165.744 115.286 166.735 116.725 167.886C117.156 168.232 117.582 168.585 118.139 168.834C118.025 168.664 117.938 168.462 117.791 168.326C116.951 167.546 116.998 166.648 117.422 165.702C118.073 164.25 119.281 163.561 120.789 163.368C121.771 163.242 122.529 163.747 122.926 164.592C123.361 165.52 123.724 166.506 123.944 167.504C124.407 169.601 124.732 171.728 125.164 173.831C125.332 174.645 125.607 175.442 125.891 176.226C126.305 177.369 127.007 178.31 127.936 179.114C130.445 181.286 132.697 183.698 134.482 186.512C136.311 189.392 137.421 192.495 137.393 195.96C137.383 197.256 137.183 198.501 136.667 199.681C134.527 204.567 131.104 208.26 126.325 210.653C125.523 211.055 124.634 211.284 123.565 211.674Z" fill="#FF6600"></path>
<path d="M16.0531 184.198C21.9651 182.036 28.0519 181.559 34.4823 181.688C34.1572 182.258 33.977 182.641 33.7375 182.982C32.3431 184.967 30.9309 186.939 29.532 188.92C27.4445 191.875 25.3641 194.834 23.2778 197.79C23.1451 197.978 22.9909 198.15 22.8415 198.336C19.169 194.573 15.7745 188.128 16.0531 184.198Z" fill="#4D2E60"></path>
<path d="M68.4641 84.9596C70.7318 85.0591 73.1529 85.8061 75.034 87.8252C76.2427 89.1226 76.7764 90.6544 76.4391 92.4363C76.1976 93.7136 75.4921 94.6961 74.4809 95.4765C71.0187 98.1481 64.9991 97.7824 61.8931 94.7145C59.1036 91.9587 59.5957 88.1353 63.0083 86.1927C64.5662 85.3052 66.2676 84.9494 68.4641 84.9596Z" fill="#FFF600"></path>
<path d="M57.1983 148.491C58.1366 147.765 59.0746 147.039 60.0332 146.297C59.9465 146.184 59.898 146.069 59.8119 146.016C55.5715 143.434 53.1998 139.555 52.1473 134.814C51.1069 130.127 51.5084 125.54 53.5171 121.161C55.8919 115.985 59.9817 113.104 65.6297 112.513C68.4992 112.213 71.1493 113.012 73.5811 114.537C75.6717 115.846 77.3666 117.572 78.7497 119.598C81.6348 123.828 83.0946 128.512 83.1006 133.632C83.1034 135.922 82.6891 138.144 81.8124 140.27C81.7075 140.523 81.6178 140.783 81.4806 141.147C83.2956 141.528 85.0561 141.899 86.817 142.269C86.8102 142.341 86.8028 142.413 86.7957 142.485C86.4394 142.485 86.08 142.515 85.7265 142.481C82.5939 142.169 79.4646 142.024 76.3116 142.245C71.4007 142.587 66.7511 143.844 62.3435 146.003C60.916 146.703 59.5431 147.514 58.1448 148.274C57.8755 148.42 57.6057 148.565 57.3361 148.71C57.2902 148.637 57.2442 148.564 57.1983 148.491ZM80.8075 141.157C81.6386 139.369 82.006 137.656 82.1095 135.904C82.4559 130.041 80.8584 124.726 77.4372 119.966C76.0273 118.005 74.2972 116.369 72.165 115.199C69.3913 113.678 66.4767 113.282 63.396 114.09C59.2424 115.179 56.4424 117.82 54.7209 121.661C52.7659 126.022 52.4534 130.567 53.4297 135.212C54.1236 138.515 55.5364 141.468 57.9526 143.868C58.7324 144.643 59.6347 145.294 60.5149 146.03C66.7723 141.991 73.5188 140.461 80.8075 141.157Z" fill="black"></path>
<path d="M85.7692 156.375C85.9254 155.333 85.9683 154.408 86.2197 153.544C86.5054 152.563 86.8408 151.546 87.3958 150.703C88.7457 148.654 91.2366 148.688 92.6622 150.697C93.6356 152.07 93.728 153.585 93.2209 155.142C93.0134 155.78 92.688 156.379 92.3878 157.06C93.1951 157.464 94.0209 157.878 94.8472 158.293C94.8143 158.373 94.7816 158.453 94.749 158.533C93.5562 158.295 92.3652 158.05 91.171 157.821C87.8199 157.181 84.4321 157.124 81.0554 157.426C75.3762 157.932 69.7738 158.92 64.2993 160.546C59.4673 161.98 54.8803 163.972 50.613 166.675C50.3837 166.82 50.1442 166.949 49.7695 166.918C50.327 166.482 50.875 166.033 51.4456 165.614C52.0236 165.191 52.6186 164.791 53.2164 164.396C53.844 163.982 54.484 163.588 55.1768 163.147C54.9761 162.753 54.799 162.408 54.6235 162.062C53.9894 160.81 53.4885 159.516 53.3882 158.099C53.3632 157.744 53.3578 157.382 53.3972 157.029C53.6532 154.73 55.553 153.553 57.7206 154.395C59.7763 155.193 60.626 156.88 60.8663 158.951C60.9157 159.379 60.8734 159.819 60.8734 160.448C64.9684 159.007 69.0426 158.045 73.1823 157.351C77.313 156.658 81.4702 156.304 85.7692 156.375ZM60.6234 160.522C60.3357 158.624 59.6672 157.058 58.2283 155.9C57.4851 155.302 56.6314 154.911 55.694 155.296C54.7058 155.701 54.5302 156.675 54.5223 157.595C54.5062 159.399 55.0122 161.096 55.7518 162.792C57.3987 162.025 58.9686 161.293 60.6234 160.522ZM86.5482 156.294C88.4083 156.518 90.1612 156.729 91.8787 156.936C92.7787 155.443 92.6565 152.908 92.0278 151.694C91.1054 149.914 89.5866 149.722 88.3909 151.31C87.2931 152.769 86.8694 154.488 86.5482 156.294Z" fill="black"></path>
<path d="M80.8072 141.156C73.5185 140.46 66.772 141.991 60.5146 146.029C59.6344 145.293 58.7321 144.642 57.9523 143.868C55.5361 141.468 54.1233 138.514 53.4294 135.211C52.4531 130.566 52.7656 126.021 54.7206 121.66C56.4421 117.82 59.2421 115.179 63.3957 114.089C66.4764 113.281 69.391 113.678 72.1647 115.199C74.2969 116.368 76.027 118.004 77.4369 119.966C80.8581 124.726 82.4556 130.04 82.1092 135.903C82.0057 137.655 81.6383 139.368 80.8072 141.156Z" fill="white"></path>
<path d="M60.6248 160.522C58.97 161.293 57.4001 162.025 55.7532 162.792C55.0136 161.096 54.5077 159.399 54.5238 157.595C54.5317 156.675 54.7072 155.701 55.6954 155.296C56.6328 154.911 57.4866 155.302 58.2298 155.9C59.6687 157.058 60.3371 158.624 60.6248 160.522Z" fill="white"></path>
<path d="M86.5488 156.293C86.87 154.488 87.2938 152.768 88.3916 151.309C89.5873 149.721 91.1061 149.914 92.0285 151.694C92.6572 152.907 92.7794 155.442 91.8794 156.936C90.1619 156.729 88.4089 156.517 86.5488 156.293Z" fill="white"></path>
<path d="M76.4163 92.5486C76.1553 93.7714 75.4622 94.719 74.4808 95.4765C71.0186 98.1481 64.999 97.7824 61.893 94.7145C59.4997 92.3504 59.5224 89.2003 61.7315 87.1262C61.3513 88.791 61.8945 90.6193 63.4215 92.1276C66.5274 95.1958 72.5468 95.5615 76.009 92.8896C76.1513 92.7801 76.2868 92.6665 76.4163 92.5486Z" fill="#FFDA00"></path>
<path d="M64.049 113.521C60.8215 115.349 59.5789 119.256 61.2735 122.249C62.968 125.241 66.9581 126.185 70.1856 124.357C73.4131 122.53 74.6556 118.622 72.961 115.63C71.2665 112.637 67.2765 111.693 64.049 113.521Z" fill="black"></path>
<path d="M67.5465 113.939C66.3086 114.64 65.8321 116.139 66.4821 117.286C67.1321 118.434 68.6623 118.796 69.8999 118.095C71.1378 117.394 71.6145 115.895 70.9646 114.748C70.3146 113.6 68.7844 113.238 67.5465 113.939Z" fill="white"></path>
<path d="M80.808 141.156C73.5193 140.46 66.7728 141.991 60.5154 146.029C59.6352 145.293 58.7329 144.642 57.9531 143.868C55.5369 141.468 54.1241 138.514 53.4302 135.211C53.3672 134.913 53.31 134.615 53.2578 134.317C56.1696 137.838 60.4901 140.069 65.3136 140.069C73.074 140.069 79.5327 134.294 80.9152 126.663C81.8965 129.574 82.3016 132.655 82.11 135.903C82.0065 137.655 81.6391 139.368 80.808 141.156Z" fill="#E9E9CF"></path>
<path d="M55.8714 112.86C55.5208 114.001 54.3104 114.642 53.1686 114.292C52.0268 113.941 51.3859 112.73 51.7365 111.589C52.1886 110.115 53.7128 108.614 55.5349 107.656C57.1563 106.804 59.1103 106.299 60.8224 106.555C62.0061 106.728 62.8256 107.828 62.6524 109.013C62.4792 110.197 61.3791 111.016 60.1951 110.843C59.4343 110.729 58.4419 111.018 57.5515 111.486C56.6668 111.951 55.9859 112.487 55.8714 112.86Z" fill="#373435"></path>
<path d="M32.1085 219.915C30.4865 217.143 30.2162 214.2 30.8435 211.155C31.47 208.116 32.7648 205.427 35.3211 203.401C33.8627 203.625 33.7544 203.707 30.7531 206.831C28.715 204.724 26.6753 202.616 24.5596 200.429C24.775 200.006 24.9758 199.586 25.1992 199.177C27.7642 194.489 30.7621 190.076 33.802 185.69C34.505 184.675 35.2269 183.672 35.8746 182.623C36.2193 182.064 36.6099 181.873 37.2474 181.982C40.1158 182.475 42.9956 182.92 45.6591 184.135C39.9915 204.596 27.4706 220.005 40.2922 237.808H18.7271C18.4258 232.37 18.1811 226.977 18.6608 221.444C22.7066 220.587 26.2107 218.677 29.171 215.531C29.6991 217.4 30.1614 219.164 32.1085 219.915ZM45.8062 183.591C45.5573 183.441 45.3053 183.305 45.0567 183.168C42.9454 182.007 40.6559 181.34 38.3289 180.777C34.5912 179.872 30.818 180.032 27.0437 180.405C23.3847 180.766 19.8028 181.481 16.4055 182.954C16.3043 182.998 16.1776 182.984 15.9035 183.015C15.9834 182.037 16.06 181.107 16.1359 180.177C15.6546 180.835 15.5347 181.603 15.4721 182.383C15.3003 184.519 15.6162 186.602 16.2977 188.617C18.1756 194.167 21.1105 199.085 25.2258 203.276C26.007 204.072 26.8427 204.814 27.6069 205.625C28.1784 206.231 28.7002 206.888 29.1997 207.556C29.751 208.293 29.929 209.074 29.598 210.014C29.3241 210.792 29.3117 211.658 29.1152 212.467C28.9981 212.951 28.8502 213.488 28.5437 213.857C26.0039 216.919 22.8996 219.11 18.905 219.822C16.9636 220.168 15.0109 220.119 13.0949 219.648C9.30246 218.717 6.13895 216.747 3.64705 213.733C2.70135 212.588 1.95389 211.326 1.57289 209.87C0.909389 207.336 1.90714 205.409 4.43074 204.679C8.21134 203.584 11.8582 204.022 15.2385 206.059C16.3879 206.752 17.4015 207.673 18.4653 208.505C18.7712 208.744 19.0361 209.036 19.4533 209.208C19.2855 208.972 19.1364 208.72 18.9473 208.503C17.763 207.139 16.3874 206.007 14.851 205.056C14.3167 204.725 13.7976 204.328 13.375 203.867C9.48925 199.623 6.49695 194.814 4.36165 189.472C3.62235 187.624 3.38485 185.702 3.54805 183.729C3.74875 181.296 4.71118 179.203 6.41878 177.454C7.89278 175.946 9.67289 174.911 11.6014 174.11C14.4187 172.939 17.3764 172.299 20.3927 171.991C27.8195 171.234 35.1886 171.654 42.4564 173.386C44.1665 173.794 45.8289 174.402 47.577 174.978C47.1682 177.954 46.554 180.82 45.8062 183.591ZM47.6166 174.677C46.6287 174.015 45.5485 173.617 44.479 173.22C43.1385 172.724 41.7617 172.328 40.3826 171.882C40.3509 171.774 40.2817 171.661 40.2922 171.555C40.7203 167.279 39.9727 163.147 38.764 159.071C37.6559 155.333 36.4482 151.619 35.4699 147.847C33.889 141.752 33.4925 135.565 35.0014 129.404C36.0403 125.162 37.6404 121.433 39.78 118.219C38.2283 126.237 39.7816 135.898 43.1979 144.019C48.0704 155.602 48.8099 165.651 47.6166 174.677Z" fill="#E75409"></path>
<path d="M43.3013 85.1529C35.4672 82.9484 28.2013 79.4388 21.6915 74.2188C16.1373 69.7644 11.6233 64.4354 8.88023 57.8142C4.99673 48.4389 5.0361 39.4806 8.6801 30.9809C8.6257 31.7009 8.59624 32.4252 8.59624 33.1548C8.59624 55.2772 34.0703 73.2112 65.4946 73.2112C90.6904 73.2112 112.058 61.6804 119.54 45.7066C119.38 52.5625 117.115 59.3676 112.762 65.472C108.665 71.2156 103.394 75.6422 97.3226 79.1546C91.0591 82.7778 84.324 85.1311 77.2448 86.5484C76.5857 86.6802 76.0778 86.6032 75.5103 86.1216C71.3255 82.5641 64.1521 83.609 60.4606 87.6653C59.0636 89.2017 44.3768 85.6217 43.3013 85.1529Z" fill="#FFDA00"></path>
<path d="M69.0054 30.8534V77.9102H59.0563V40.2969H58.7806L48.0044 47.0522V38.229L59.6537 30.8534H69.0054Z" fill="#373435"></path>
<path d="M42.6614 10.217V7.10984H57.3006V10.217H51.8435V24.9346H48.1184V10.217H42.6614ZM59.6419 24.9346V11.566H63.3495V24.9346H59.6419ZM61.5044 9.84273C60.9532 9.84273 60.4803 9.65996 60.0857 9.29441C59.697 8.92307 59.5026 8.47919 59.5026 7.96278C59.5026 7.45218 59.697 7.0141 60.0857 6.64856C60.4803 6.27721 60.9532 6.09153 61.5044 6.09153C62.0556 6.09153 62.5256 6.27721 62.9144 6.64856C63.3089 7.0141 63.5062 7.45218 63.5062 7.96278C63.5062 8.47919 63.3089 8.92307 62.9144 9.29441C62.5256 9.65996 62.0556 9.84273 61.5044 9.84273ZM66.3196 29.9478V11.566H69.9751V13.8115H70.1404C70.3029 13.4518 70.5379 13.0862 70.8454 12.7149C71.1587 12.3377 71.5649 12.0244 72.0639 11.7749C72.5687 11.5196 73.1953 11.392 73.9438 11.392C74.9186 11.392 75.818 11.6473 76.6419 12.1579C77.4659 12.6627 78.1244 13.4257 78.6176 14.4469C79.1108 15.4623 79.3574 16.7359 79.3574 18.2677C79.3574 19.7589 79.1166 21.018 78.635 22.045C78.1592 23.0662 77.5094 23.8408 76.6854 24.3688C75.8673 24.8911 74.9506 25.1522 73.9351 25.1522C73.2157 25.1522 72.6035 25.0332 72.0987 24.7953C71.5997 24.5574 71.1906 24.2586 70.8715 23.8989C70.5524 23.5333 70.3087 23.1649 70.1404 22.7935H70.0273V29.9478H66.3196ZM69.949 18.2503C69.949 19.0452 70.0592 19.7386 70.2797 20.3304C70.5002 20.9223 70.8193 21.3836 71.2371 21.7143C71.6548 22.0392 72.1625 22.2017 72.7602 22.2017C73.3636 22.2017 73.8742 22.0363 74.292 21.7056C74.7098 21.369 75.026 20.9049 75.2407 20.313C75.4612 19.7154 75.5714 19.0278 75.5714 18.2503C75.5714 17.4786 75.4641 16.7997 75.2494 16.2137C75.0347 15.6276 74.7185 15.1693 74.3007 14.8385C73.8829 14.5078 73.3694 14.3424 72.7602 14.3424C72.1567 14.3424 71.6461 14.502 71.2284 14.8211C70.8164 15.1403 70.5002 15.5928 70.2797 16.1789C70.0592 16.7649 69.949 17.4554 69.949 18.2503ZM87.8694 25.1957C86.5175 25.1957 85.3483 24.9085 84.3619 24.334C83.3813 23.7538 82.6241 22.9473 82.0903 21.9145C81.5565 20.8758 81.2896 19.6719 81.2896 18.3025C81.2896 16.9216 81.5565 15.7147 82.0903 14.6819C82.6241 13.6433 83.3813 12.8367 84.3619 12.2623C85.3483 11.6821 86.5175 11.392 87.8694 11.392C89.2214 11.392 90.3876 11.6821 91.3682 12.2623C92.3546 12.8367 93.1147 13.6433 93.6485 14.6819C94.1823 15.7147 94.4492 16.9216 94.4492 18.3025C94.4492 19.6719 94.1823 20.8758 93.6485 21.9145C93.1147 22.9473 92.3546 23.7538 91.3682 24.334C90.3876 24.9085 89.2214 25.1957 87.8694 25.1957ZM87.8868 22.3235C88.5019 22.3235 89.0154 22.1495 89.4273 21.8013C89.8393 21.4474 90.1497 20.9658 90.3586 20.3565C90.5733 19.7473 90.6806 19.0539 90.6806 18.2764C90.6806 17.4989 90.5733 16.8055 90.3586 16.1963C90.1497 15.587 89.8393 15.1054 89.4273 14.7515C89.0154 14.3976 88.5019 14.2206 87.8868 14.2206C87.266 14.2206 86.7438 14.3976 86.3202 14.7515C85.9024 15.1054 85.5862 15.587 85.3715 16.1963C85.1626 16.8055 85.0582 17.4989 85.0582 18.2764C85.0582 19.0539 85.1626 19.7473 85.3715 20.3565C85.5862 20.9658 85.9024 21.4474 86.3202 21.8013C86.7438 22.1495 87.266 22.3235 87.8868 22.3235Z" fill="#373435"></path>
</svg>