<svg width="153" height="124" viewBox="0 0 153 124" fill="none" xmlns="http://www.w3.org/2000/svg">
<path fill-rule="evenodd" clip-rule="evenodd" d="M57.3373 10.0278C95.9824 -4.11785 136.677 8.53451 148.232 38.2884C159.786 68.0419 137.824 103.63 99.1792 117.775C60.5338 131.921 19.8393 119.268 8.2849 89.5147C-3.2695 59.7611 18.692 24.1735 57.3373 10.0278Z" fill="#F0F3C6"></path>
<path d="M91.4015 95.5931C91.1192 95.8014 90.8346 96.0072 90.5545 96.219C85.6157 99.948 80.4113 103.234 74.6935 105.65C71.2443 107.107 67.7079 108.281 63.9757 108.788C55.5783 109.93 47.9546 107.98 41.1336 102.987C35.4793 98.8483 31.5118 93.38 28.8966 86.9181C26.9543 82.1179 25.8828 77.1267 25.8502 71.9316C25.8057 64.7855 28.1305 58.4886 32.7376 53.052C33.9609 51.6089 35.3376 50.2895 36.7016 48.9737C38.5583 47.1827 40.4989 45.479 42.3501 43.6833C43.9072 42.173 45.2999 40.5142 46.3899 38.6224C47.5872 36.5432 48.2297 34.3207 48.0809 31.9081C47.9707 30.1132 47.5274 28.387 46.7309 26.7798C46.2734 25.8571 46.3612 25.0647 46.9675 24.3028C47.3541 23.8172 47.7645 23.3405 48.2244 22.9272C50.0511 21.2863 52.1232 20.0339 54.406 19.1302C55.5894 18.6619 56.8162 18.5165 58.0742 18.6866C59.1196 18.8278 59.9619 19.2606 60.5305 20.2295C61.2339 21.4297 62.0866 22.543 62.7832 23.7463C63.8608 25.6093 64.5771 27.6115 64.8546 29.761C65.1781 32.2654 64.7707 34.6657 63.858 36.9941C62.7406 39.8437 61.0557 42.3477 59.0725 44.6534C58.1646 45.7084 57.1682 46.6875 56.2124 47.7009C56.0162 47.909 55.8201 48.1161 55.5737 48.3763C56.2728 48.6229 56.8807 48.8376 57.5547 49.0748C57.6193 48.8957 57.6992 48.7185 57.7473 48.5334C59.0216 43.6587 63.4892 39.977 68.5122 39.7278C71.4407 39.5827 73.9173 40.591 75.8562 42.8315C76.0061 43.0056 76.1659 43.1711 76.3396 43.3602C76.4138 43.2446 76.4866 43.177 76.5034 43.0983C76.8381 41.476 77.7985 40.248 79.0216 39.2165C81.5467 37.0871 84.4589 35.8551 87.7714 35.706C88.6459 35.6669 89.5555 35.7877 90.4071 36.0014C92.014 36.4047 93.197 37.3964 93.9053 38.9186C94.0026 39.1281 94.111 39.333 94.2655 39.6426C94.3795 39.3994 94.4577 39.2572 94.5144 39.107C95.5706 36.3242 97.3947 34.153 99.8342 32.4888C101.889 31.0865 104.196 30.5286 106.66 30.5992C108.245 30.6446 109.533 31.259 110.336 32.699C110.377 32.7713 110.448 32.8257 110.572 32.964C110.637 32.6383 110.695 32.389 110.737 32.1373C111.363 28.4199 113.078 25.3179 116.025 22.949C118.131 21.2564 120.556 20.6847 123.213 21.1556C125.133 21.4957 126.61 22.5308 127.624 24.1792C128.999 26.4146 129.297 28.8386 128.692 31.3716C128.446 32.4032 127.927 33.2966 127.029 33.9679C127.068 34.0855 127.086 34.2012 127.14 34.2942C128.296 36.2518 128.315 38.3004 127.572 40.3801C126.785 42.5804 125.354 44.278 123.371 45.5107C123.145 45.6511 122.918 45.7894 122.693 45.9314C122.67 45.9453 122.66 45.9797 122.6 46.0752C122.749 46.5242 122.926 47.0213 123.078 47.5259C124.23 51.3416 123.409 54.7319 120.807 57.6969C119.866 58.7695 118.672 59.4776 117.222 59.6775C117.108 59.6933 116.999 59.7433 116.863 59.7853C116.836 59.9052 116.795 60.0152 116.79 60.1266C116.587 64.2399 114.437 67.108 110.984 69.1042C109.821 69.7766 108.533 69.9604 107.113 69.5865C106.876 71.7037 106.056 73.5511 104.885 75.2879C105.534 76.6693 105.962 78.1092 106.216 79.6042C106.448 80.969 106.491 82.3206 106.012 83.6427C105.507 85.0345 104.989 86.4222 104.46 87.8049C104.014 88.9665 103.499 90.1029 103.093 91.2779C102.348 93.4376 102.321 95.6421 102.865 97.8523C103.249 99.4111 103.759 100.925 104.602 102.307C105.013 102.982 104.87 103.617 104.44 104.215C103.993 104.837 103.357 105.219 102.677 105.53C101.357 106.133 99.9528 106.341 98.5187 106.343C96.2573 106.347 94.104 105.836 92.0965 104.797C91.4989 104.487 90.9394 104.072 90.4369 103.621C89.8061 103.056 89.57 102.329 89.7271 101.451C90.0318 99.7464 90.5746 98.1221 91.2337 96.5298C91.3437 96.2634 91.4431 95.9924 91.5477 95.7237C91.4986 95.68 91.4505 95.6367 91.4015 95.5931ZM42.429 85.8985C42.4747 85.9147 42.5196 85.9312 42.5653 85.9474C42.5729 86.0352 42.5897 86.1231 42.588 86.2104C42.5356 89.0964 43.8649 91.2214 46.2744 92.6767C48.9469 94.2907 51.8582 94.7285 54.9253 94.2007C55.9835 94.0187 56.941 93.5838 57.9119 93.0976C57.7106 93.3599 57.5093 93.6219 57.3183 93.8708C60.9112 99.0698 68.6508 98.1865 72.0006 94.8663C71.7556 94.4558 71.5073 94.04 71.259 93.6241C71.3019 93.5847 71.3454 93.5452 71.3883 93.5058C72.5513 94.8123 74.0585 95.4269 75.7164 95.7322C77.3767 96.0377 79.0308 95.9606 80.6576 95.5456C83.984 94.6975 86.4573 92.7901 87.861 89.6031C87.984 89.3239 88.0622 89.0251 88.1583 88.7436C87.5179 88.5738 86.9889 88.4333 86.4603 88.293C86.7379 88.1453 86.9885 88.1417 87.239 88.1465C88.5566 88.1703 89.7499 87.78 90.8479 87.0685C91.8053 86.448 92.5918 85.6462 93.2777 84.7428C94.4364 83.2164 95.242 81.5054 95.9022 79.7159C96.1123 79.1472 96.3137 78.6158 95.643 78.183C96.3703 78.3604 97.0121 78.5889 97.6714 78.6612C98.7402 78.7788 99.7248 78.4065 100.637 77.8852C102.646 76.7358 104.2 75.1334 105.194 73.0354C105.65 72.0731 105.974 71.0495 106.396 70.0707C106.577 69.6506 106.558 69.2944 106.124 68.8459C108.009 69.4715 109.521 68.9982 110.93 68.0381C112.403 67.0349 113.547 65.7181 114.439 64.1905C115.598 62.2074 116.425 60.1389 115.901 57.7096C116.172 58.1723 116.444 58.6353 116.775 59.1988C117.322 58.9397 117.877 58.7349 118.371 58.4311C119.591 57.681 120.436 56.5775 121.114 55.3382C122.648 52.5367 122.92 49.549 122.407 46.449C122.389 46.3416 122.308 46.245 122.253 46.1387C121.466 46.317 120.747 46.7095 119.716 46.6106C120.174 46.4161 120.442 46.311 120.702 46.1905C123.692 44.8072 125.747 42.5726 126.668 39.399C127.399 36.8827 126.899 34.5877 125.124 32.6117C125 32.4742 124.891 32.324 124.776 32.18C124.819 32.1397 124.861 32.0999 124.904 32.0602C125.506 32.5534 126.109 33.0466 126.732 33.5569C127.347 33.0055 127.697 32.3564 127.844 31.6197C128.447 28.6002 127.784 25.903 125.655 23.6418C124.683 22.6095 123.438 22.0685 122.009 22.0127C119.863 21.9282 117.986 22.6344 116.37 24.0251C114.041 26.0292 112.469 28.5455 111.492 31.4394C111.093 32.6228 110.803 33.8343 110.961 35.1059C110.978 35.2337 110.939 35.3687 110.925 35.4999C110.74 35.1728 110.68 34.8325 110.603 34.4957C110.254 32.9647 109.291 32.0894 107.745 31.8476C106.467 31.648 105.195 31.735 103.939 31.9607C101.009 32.4862 98.7862 34.1218 97.0531 36.4814C95.8093 38.1748 94.9794 40.0671 94.3974 42.0763C94.3397 42.2767 94.2418 42.4652 94.104 42.8028C94.0074 42.0925 93.9994 41.549 93.8526 41.0467C93.1774 38.7359 91.2898 37.1784 88.8427 37.0353C84.5215 36.7833 80.9787 38.4375 78.1599 41.6661C77.7019 42.1908 77.4257 42.8754 77.0759 43.4916C76.8378 43.9106 76.8392 44.3108 77.1185 44.7375C77.3402 45.0768 77.4749 45.4734 77.6481 45.8445C77.2671 45.5695 77.0375 45.2257 76.7923 44.894C75.4288 43.0456 73.6914 41.7116 71.4469 41.1271C68.3064 40.3093 65.4489 41.0327 62.8543 42.8732C60.3355 44.6602 58.7968 47.1469 57.9308 50.0785C57.8436 50.373 57.7503 50.6661 57.6596 50.9598C57.6292 50.9524 57.5985 50.9449 57.5676 50.9369C57.5438 50.531 57.5194 50.1251 57.4901 49.6285C53.3726 48.4816 49.6415 49.3147 46.2178 51.636C43.3078 53.6089 41.7801 56.45 41.3413 59.9454C41.883 60.0787 42.323 60.1869 42.7632 60.2952C41.4653 60.4112 40.2883 60.7624 39.2001 61.4007C36.7328 62.8481 34.9575 64.9057 33.95 67.5796C33.662 68.3438 33.4935 69.1867 33.45 70.0033C33.3454 71.9808 34.147 73.5488 35.8036 74.6991C36.4062 74.2651 36.8519 73.6548 37.6359 73.576C37.1883 74.1384 36.7322 74.6136 36.3904 75.1598C35.4583 76.6491 34.9869 78.294 34.958 80.0495C34.9073 83.1001 36.3836 85.3565 39.2023 86.5068C39.911 86.7962 40.6689 86.97 41.4121 87.167C41.6267 87.2237 41.869 87.1755 42.1203 87.1755C42.2272 86.7342 42.328 86.3163 42.429 85.8985ZM47.9653 27.5564C48.1149 27.8858 48.1825 28.0473 48.2604 28.2035C48.9153 29.5182 49.3339 30.8916 49.3986 32.3733C49.5037 34.7785 48.7273 36.9224 47.5164 38.943C46.4432 40.7345 45.1391 42.3565 43.6334 43.7914C41.6383 45.6931 39.5472 47.4939 37.5343 49.3775C36.1074 50.7132 34.6422 52.0276 33.3668 53.5008C29.6512 57.7936 27.5419 62.811 26.9359 68.4593C26.5424 72.1242 26.8387 75.7457 27.6497 79.3265C29.1402 85.9074 31.7973 91.955 36.2684 97.0636C43.9965 105.894 53.7264 109.382 65.3142 107.537C70.3292 106.738 75.0505 104.991 79.5702 102.697C83.9245 100.487 87.8783 97.6542 91.8029 94.7801C92.0724 94.5825 92.2572 94.2457 92.4321 93.9452C93.2972 92.4604 94.1426 90.9633 95.0038 89.4756C95.1439 89.2324 95.3265 89.0138 95.4895 88.7842C94.0991 92.3915 92.3555 95.844 91.2645 99.728C95.352 98.1426 99.0165 99.4943 102.69 100.725C102.703 100.615 102.716 100.584 102.708 100.561C102.646 100.395 102.589 100.227 102.513 100.068C101.703 98.3726 101.38 96.5874 101.469 94.7134C101.563 92.7311 102.135 90.8648 102.811 89.0245C103.465 87.2444 104.145 85.4731 104.825 83.7026C105.378 82.2615 105.552 80.7733 105.401 79.2457C105.284 78.0707 105.157 76.8943 104.634 75.7046C104.391 75.9754 104.197 76.1891 104.006 76.4065C103.101 77.4417 102.089 78.3507 100.843 78.9587C99.6267 79.5514 98.3757 79.7961 97.0674 79.2408C96.9738 79.2011 96.8598 79.2113 96.7467 79.1974C96.6622 79.6742 96.6213 80.089 96.5141 80.4864C95.3988 84.6273 93.3407 87.8871 88.7102 88.7695C88.6691 88.9439 88.609 89.1416 88.5762 89.3437C88.2309 91.4714 87.139 93.1457 85.4621 94.4587C84.108 95.5188 82.567 96.1991 80.8974 96.5671C78.6873 97.0538 76.4829 97.0871 74.3275 96.2818C73.8053 96.0862 73.313 95.8101 72.797 95.5666C72.6908 95.6406 72.5882 95.7002 72.5 95.7756C69.9819 97.9339 67.0383 98.8288 63.765 98.6006C60.9024 98.4008 58.5966 97.1759 57.0903 94.6437C57.0019 94.4951 56.8964 94.3569 56.7882 94.1976C56.6464 94.2548 56.5388 94.2936 56.435 94.3406C52.2778 96.2129 48.389 95.5704 44.7805 92.9747C43.2532 91.876 42.3635 90.3101 42.1935 88.3885C42.176 88.1937 42.0953 88.0041 42.0261 87.745C41.4912 87.745 40.987 87.774 40.487 87.7403C37.0024 87.5061 34.5395 85.2876 34.0841 81.9206C33.8071 79.8763 34.0975 77.8994 35.0241 76.0356C35.138 75.8063 35.2435 75.5737 35.3455 75.358C35.2537 75.2707 35.218 75.2168 35.1681 75.1921C33.4018 74.325 32.6262 72.819 32.5956 70.9419C32.529 66.9272 34.1781 63.7126 37.3447 61.2776C38.1512 60.6577 39.0889 60.2779 40.1057 60.1147C40.3287 60.0792 40.5439 59.9916 40.6709 59.9548C40.8115 58.7827 40.8336 57.6723 41.0924 56.6207C41.7129 54.1024 43.3209 52.2717 45.4496 50.8796C47.9676 49.2326 50.7475 48.394 53.7545 48.3342C54.2001 48.3257 54.5371 48.2415 54.8275 47.865C56.3479 45.893 57.9628 43.9886 59.4011 41.959C60.4074 40.54 61.2515 38.9922 62.0448 37.4391C62.8579 35.8457 63.2911 34.1156 63.4331 32.3204C63.7347 28.5098 62.5771 25.0653 60.8018 21.7751C60.7568 21.6915 60.6523 21.6399 60.5593 21.5597C59.3861 23.9048 57.4448 25.3391 55.2564 26.4679C53.0181 27.6222 50.6457 28.1389 47.9653 27.5564ZM95.6687 99.8016C94.4693 99.7769 93.2925 99.8904 92.2099 100.456C90.9363 101.121 90.8095 102.103 91.8546 103.069C91.9414 103.15 92.0306 103.23 92.1283 103.296C95.1271 105.318 98.3537 105.778 101.785 104.648C102.247 104.496 102.692 104.193 103.054 103.861C103.671 103.295 103.664 102.546 103.036 101.997C102.619 101.633 102.125 101.328 101.619 101.099C99.7322 100.243 97.7371 99.843 95.6687 99.8016ZM56.7803 19.5088C56.2496 19.5879 55.7741 19.6202 55.3181 19.7333C52.7623 20.3652 50.5604 21.6457 48.6583 23.4502C48.3822 23.7119 48.1367 24.02 47.9345 24.3426C47.3556 25.2678 47.6266 26.1176 48.6752 26.4291C49.313 26.6188 50.0224 26.7183 50.6814 26.6576C53.7683 26.3719 56.3348 25.0401 58.3025 22.6235C58.5774 22.2856 58.8032 21.8844 58.9584 21.477C59.2779 20.6405 58.9802 20.0267 58.1165 19.7464C57.6746 19.6029 57.1941 19.5786 56.7803 19.5088Z" fill="black"></path>
<path d="M42.4295 85.8987C42.3285 86.3165 42.2277 86.7343 42.1208 87.1756C41.8695 87.1756 41.6272 87.2239 41.4126 87.1672C40.6694 86.9702 39.9115 86.7963 39.2028 86.5069C36.3841 85.3566 34.9078 83.1003 34.9585 80.0497C34.9874 78.2942 35.4588 76.6492 36.3909 75.1599C36.7327 74.6137 37.1888 74.1386 37.6364 73.5762C36.8524 73.655 36.4067 74.2653 35.8041 74.6993C34.1475 73.549 33.3459 71.9809 33.4505 70.0034C33.494 69.1868 33.6625 68.344 33.9505 67.5798C34.958 64.9059 36.7333 62.8482 39.2006 61.4008C40.2888 60.7625 41.4658 60.4113 42.7637 60.2953C42.3235 60.187 41.8835 60.0788 41.3418 59.9455C41.7806 56.4501 43.3083 53.609 46.2183 51.6361C49.642 49.3148 53.3731 48.4817 57.4906 49.6286C57.5199 50.1252 57.5443 50.5311 57.5681 50.937C57.599 50.945 57.6297 50.9525 57.6601 50.9599C57.7508 50.6662 57.8441 50.3732 57.9313 50.0787C58.7973 47.1471 60.336 44.6603 62.8548 42.8733C65.4494 41.0328 68.3069 40.3094 71.4474 41.1272C73.6919 41.7117 75.4293 43.0457 76.7928 44.8941C77.038 45.2258 77.2676 45.5696 77.6486 45.8446C77.4754 45.4735 77.3407 45.077 77.119 44.7377C76.8397 44.311 76.8383 43.9107 77.0764 43.4917C77.4262 42.8755 77.7024 42.1909 78.1604 41.6662C80.9792 38.4376 84.522 36.7834 88.8432 37.0354C91.2903 37.1785 93.1779 38.7361 93.8531 41.0469C93.9999 41.5492 94.0079 42.0927 94.1045 42.803C94.2423 42.4654 94.3402 42.2769 94.3979 42.0765C94.9799 40.0673 95.8098 38.1749 97.0536 36.4815C98.7867 34.1219 101.009 32.4863 103.939 31.9608C105.196 31.7351 106.467 31.6481 107.745 31.8477C109.292 32.0895 110.254 32.9648 110.603 34.4958C110.68 34.8326 110.74 35.1729 110.926 35.5C110.939 35.3688 110.978 35.2339 110.962 35.1061C110.804 33.8345 111.093 32.6229 111.492 31.4395C112.469 28.5456 114.041 26.0293 116.37 24.0252C117.986 22.6345 119.864 21.9284 122.01 22.0129C123.438 22.0687 124.683 22.6096 125.655 23.6419C127.784 25.9031 128.447 28.6003 127.845 31.6198C127.698 32.3565 127.347 33.0056 126.732 33.557C126.109 33.0467 125.507 32.5535 124.905 32.0603C124.862 32.1 124.819 32.1399 124.776 32.1802C124.892 32.3242 125.001 32.4744 125.124 32.6119C126.9 34.5879 127.4 36.8829 126.669 39.3992C125.747 42.5728 123.693 44.8074 120.703 46.1907C120.442 46.3112 120.175 46.4163 119.716 46.6108C120.748 46.7097 121.466 46.3171 122.254 46.1388C122.308 46.2451 122.39 46.3417 122.407 46.4491C122.921 49.5491 122.649 52.5369 121.115 55.3384C120.436 56.5777 119.591 57.6812 118.372 58.4313C117.878 58.7351 117.323 58.9398 116.776 59.1989C116.445 58.6354 116.173 58.1725 115.901 57.7098C116.425 60.1391 115.598 62.2076 114.44 64.1907C113.548 65.7183 112.404 67.035 110.931 68.0382C109.521 68.9983 108.01 69.4716 106.125 68.846C106.559 69.2945 106.578 69.6507 106.397 70.0708C105.974 71.0496 105.65 72.0733 105.195 73.0356C104.201 75.1336 102.647 76.736 100.637 77.8854C99.7253 78.4067 98.7407 78.7789 97.6719 78.6613C97.0126 78.589 96.3708 78.3605 95.6435 78.1831C96.3142 78.6159 96.1128 79.1473 95.9027 79.716C95.2425 81.5055 94.4369 83.2166 93.2782 84.743C92.5923 85.6464 91.8058 86.4481 90.8484 87.0686C89.7504 87.7801 88.5571 88.1704 87.2395 88.1466C86.989 88.1418 86.7384 88.1454 86.4608 88.2931C86.9894 88.4334 87.5184 88.574 88.1588 88.7438C88.0627 89.0253 87.9845 89.3241 87.8615 89.6033C86.4578 92.7903 83.9845 94.6977 80.6581 95.5458C79.0313 95.9608 77.3773 96.0378 75.7169 95.7323C74.059 95.427 72.5518 94.8125 71.3888 93.506C71.3459 93.5454 71.3025 93.5848 71.2596 93.6242C71.5079 94.0401 71.7561 94.4559 72.0011 94.8664C68.6513 98.1866 60.9117 99.0699 57.3188 93.8709C57.5098 93.622 57.7111 93.3601 57.9124 93.0978C56.9415 93.584 55.984 94.0188 54.9258 94.2008C51.8587 94.7286 48.9474 94.2909 46.2749 92.6769C43.8654 91.2216 42.5361 89.0965 42.5885 86.2105C42.5902 86.1232 42.5734 86.0353 42.5658 85.9475C42.5201 85.9313 42.4752 85.9149 42.4295 85.8987ZM70.878 80.6225C70.3289 80.1239 69.8314 80.0857 69.2766 80.5497C67.8823 81.7159 66.4355 82.8174 64.7151 83.4402C62.9353 84.0845 61.1331 84.6909 59.3013 85.1614C57.4275 85.6427 55.5004 85.7777 53.566 85.4415C50.3741 84.8862 48.1735 83.1312 47.0409 80.0761C46.5813 78.8365 46.3922 77.5458 46.4235 76.2337C46.4647 74.5238 46.7505 72.8681 47.7808 71.4298C47.8842 71.2858 47.9788 71.1355 48.078 70.9884C47.161 71.5303 46.6965 72.3882 46.3487 73.3095C45.6426 75.1815 45.496 77.1102 45.8033 79.0865C46.3858 82.8342 48.8679 85.5067 52.5668 86.3508C54.659 86.8279 56.7439 86.706 58.838 86.3573C61.9068 85.8465 64.7276 84.781 67.1461 82.7718C67.2796 82.6612 67.435 82.5759 67.6803 82.4118C67.5733 82.7976 67.4908 83.074 67.4209 83.354C67.0628 84.7872 67.7368 85.7011 69.2107 85.7289C70.0837 85.7451 70.9164 85.5486 71.6626 85.0596C71.8667 84.9258 72.0869 84.8166 72.3418 84.672C72.3723 85.0726 72.3792 85.3669 72.4201 85.6566C72.5833 86.8049 73.1443 87.7225 74.1006 88.3714C75.0057 88.9862 75.9988 89.0996 76.9643 88.5706C78.4134 87.7772 79.4934 86.2967 78.6398 84.2333C78.5469 84.0083 78.4799 83.7724 78.3728 83.4606C78.7599 83.4983 79.0208 83.5321 79.283 83.5476C80.7899 83.6406 82.2984 83.8183 83.8036 83.7959C85.7738 83.7664 87.6911 83.369 89.4579 82.4281C90.974 81.6211 92.1478 80.4755 92.8025 78.8727C93.791 76.4548 93.759 74.0164 92.808 71.5925C92.4766 70.7484 91.9614 70.0201 91.1814 69.5303C90.8673 69.3333 90.4986 69.2229 90.1547 69.0733C90.2565 69.3389 90.42 69.4634 90.583 69.5887C91.9331 70.6253 92.6345 72.0166 92.7935 73.6913C92.9216 75.0386 92.7 76.3386 92.3111 77.6349C91.6673 79.7795 90.2576 81.1198 88.1745 81.8086C87.6688 81.9753 87.1533 82.1215 86.6333 82.2338C83.9944 82.8041 81.3319 82.7672 78.6656 82.4942C76.1204 82.234 73.639 81.6824 71.2338 80.8006C71.1151 80.7411 70.9965 80.682 70.878 80.6225ZM71.909 53.7167C70.939 53.2266 70.0979 52.7186 69.1964 52.366C67.7102 51.7845 66.1354 51.699 64.5528 51.7823C61.363 51.9504 58.9651 53.4253 57.4137 56.2098C56.3093 58.192 55.9451 60.3438 56.3139 62.5786C56.8774 65.9949 58.7248 68.4585 62.0733 69.5008C65.9523 70.7078 69.5778 70.1304 72.7505 67.4406C72.9249 67.2932 73.1135 67.1625 73.2865 67.031C73.4425 67.1132 73.5482 67.1654 73.6505 67.2238C76.9432 69.1023 80.3286 69.0955 83.7362 67.6243C86.2885 66.5225 87.9967 64.6022 88.5874 61.8634C89.3969 58.1117 88.3499 54.8709 85.5436 52.2549C84.0296 50.8441 82.1694 50.1521 80.0985 50.2051C76.8982 50.2873 74.0273 51.2066 71.909 53.7167ZM89.6737 72.2326C89.6512 73.562 89.5222 74.8487 89.1275 76.109C88.8157 77.1048 88.217 77.8477 87.2747 78.2624C86.5743 78.5711 85.8438 78.8461 85.0994 79.0165C82.2342 79.6698 79.3375 79.6319 76.4317 79.3305C75.864 79.2719 75.5745 79.0176 75.3389 78.4881C74.5373 76.6869 73.2276 76.037 71.2987 76.5259C70.3899 76.7567 69.4901 77.1138 68.6649 77.5586C67.3894 78.2469 66.1815 79.06 64.9447 79.8194C64.0609 80.3623 63.1873 80.9213 62.2885 81.4367C61.899 81.6603 61.4817 81.8905 60.9519 81.8211C61.0488 81.5603 61.1236 81.3598 61.2495 81.021C60.953 81.239 60.7954 81.3718 60.6222 81.4795C59.8166 81.9787 58.9347 82.2088 57.9933 82.1198C57.129 82.0379 56.5927 81.3086 56.8297 80.4942C56.93 80.1478 57.1771 79.8017 57.4489 79.5559C58.0838 78.9805 58.874 78.7201 59.7254 78.6734C61.0489 78.6008 61.6507 78.9873 62.1985 80.2271C62.208 80.2484 62.275 80.2447 62.3168 80.2529C62.3653 79.1151 61.9775 78.3736 60.9599 78.0184C60.3347 77.8001 59.6266 77.6949 58.9668 77.7315C58.2785 77.7689 57.6028 78.0377 56.9236 78.2052C56.4086 77.7922 55.8989 77.3377 55.3427 76.9505C54.7769 76.5562 54.1287 76.252 53.4285 76.3634C52.786 76.4657 52.1671 76.7193 51.512 76.9137C51.1721 75.1038 51.5341 73.3571 52.0633 71.5392C50.032 72.7377 49.6699 74.8362 50.8841 77.763C50.8532 77.8353 50.8231 77.9186 50.7826 77.9963C49.9517 79.6058 50.5194 81.0044 52.2408 81.5631C53.1122 81.8457 53.9945 81.791 54.8744 81.5937C55.1805 81.5251 55.4832 81.4411 55.7953 81.362C55.8985 81.6044 55.9632 81.7686 56.0375 81.9276C56.4755 82.8702 57.0328 83.2027 58.0793 83.1584C58.8464 83.1261 59.5079 82.8143 60.1432 82.4132C60.3606 82.2757 60.6179 82.0792 60.8424 82.0968C62.1139 82.1963 63.2468 81.7437 64.339 81.2207C66.0746 80.3896 67.7718 79.4774 69.4822 78.5938C70.0611 78.2945 70.6152 77.9429 71.2083 77.6767C72.6804 77.0157 74.2811 77.5745 75.003 79.0116C74.1999 79.0686 73.5179 78.6436 72.6565 78.5036C73.2648 79.1255 73.9398 79.3495 74.6044 79.5607C77.6727 80.5358 80.8115 80.8136 84.0019 80.4066C85.2698 80.2447 86.5054 79.9247 87.6359 79.2943C88.6221 78.7443 89.4284 78.0155 89.797 76.9151C90.3239 75.3411 90.0526 73.7763 89.6737 72.2326ZM47.0148 65.8575C49.6701 66.4644 52.286 67.1458 54.6888 68.4656C57.1274 69.805 59.1327 71.6566 60.9436 73.7452C59.378 68.8582 52.2581 64.7993 47.0148 65.8575Z" fill="#FFD425"></path>
<path d="M47.9658 27.5564C50.6462 28.1389 53.0185 27.6222 55.2568 26.4679C57.4452 25.3391 59.3866 23.9048 60.5598 21.5597C60.6528 21.6399 60.7572 21.6915 60.8022 21.7751C62.5775 25.0653 63.7351 28.5097 63.4335 32.3203C63.2915 34.1155 62.8583 35.8457 62.0452 37.4391C61.2519 38.9922 60.4079 40.5399 59.4016 41.9589C57.9633 43.9885 56.3483 45.8929 54.8279 47.8649C54.5375 48.2414 54.2005 48.3256 53.7549 48.3341C50.7479 48.3939 47.968 49.2325 45.45 50.8795C43.3213 52.2716 41.7133 54.1023 41.0928 56.6206C40.834 57.6722 40.8119 58.7826 40.6713 59.9547C40.5443 59.9915 40.3291 60.0791 40.1061 60.1146C39.0893 60.2778 38.1517 60.6577 37.3452 61.2776C34.1786 63.7126 32.5294 66.9271 32.596 70.9418C32.6266 72.8189 33.4022 74.3249 35.1685 75.192C35.2184 75.2167 35.2541 75.2706 35.3459 75.3579C35.2439 75.5736 35.1384 75.8062 35.0245 76.0355C34.0979 77.8993 33.8075 79.8763 34.0845 81.9206C34.5399 85.2876 37.0028 87.506 40.4874 87.7402C40.9874 87.7739 41.4917 87.745 42.0266 87.745C42.0957 88.0041 42.1764 88.1937 42.1939 88.3885C42.3639 90.3101 43.2536 91.8759 44.7809 92.9746C48.3894 95.5703 52.2782 96.2128 56.4354 94.3405C56.5392 94.2935 56.6468 94.2547 56.7886 94.1975C56.8968 94.3568 57.0023 94.495 57.0908 94.6436C58.5971 97.1758 60.9028 98.4007 63.7654 98.6005C67.0387 98.8287 69.9823 97.9338 72.5004 95.7755C72.5886 95.7001 72.6912 95.6406 72.7974 95.5666C73.3134 95.8101 73.8057 96.0862 74.3279 96.2818C76.4833 97.0871 78.6877 97.0537 80.8978 96.567C82.5674 96.199 84.1084 95.5187 85.4625 94.4586C87.1394 93.1456 88.2313 91.4714 88.5766 89.3437C88.6094 89.1416 88.6695 88.9438 88.7106 88.7694C93.3411 87.887 95.3993 84.6272 96.5145 80.4863C96.6217 80.0889 96.6626 79.6742 96.7471 79.1974C96.8602 79.2113 96.9742 79.201 97.0678 79.2407C98.3761 79.796 99.6272 79.5513 100.843 78.9586C102.09 78.3506 103.101 77.4416 104.007 76.4064C104.197 76.189 104.392 75.9753 104.634 75.7045C105.157 76.8942 105.285 78.0706 105.401 79.2456C105.552 80.7732 105.378 82.2614 104.825 83.7025C104.145 85.473 103.465 87.2443 102.811 89.0244C102.135 90.8647 101.563 92.731 101.469 94.7133C101.38 96.5873 101.704 98.3726 102.514 100.068C102.59 100.227 102.646 100.395 102.708 100.561C102.717 100.584 102.703 100.615 102.69 100.725C99.0169 99.4943 95.3525 98.1425 91.265 99.7279C92.356 95.8439 94.0995 92.3914 95.4899 88.7841C95.3269 89.0137 95.1443 89.2323 95.0042 89.4755C94.143 90.9632 93.2977 92.4604 92.4326 93.9452C92.2577 94.2457 92.0728 94.5824 91.8033 94.78C87.8787 97.6541 83.9249 100.487 79.5706 102.697C75.0509 104.991 70.3296 106.738 65.3146 107.537C53.7268 109.382 43.997 105.893 36.2689 97.0636C31.7978 91.955 29.1406 85.9073 27.6501 79.3264C26.8391 75.7456 26.5428 72.1241 26.9363 68.4592C27.5423 62.8109 29.6516 57.7936 33.3672 53.5008C34.6426 52.0276 36.1078 50.7132 37.5347 49.3775C39.5476 47.4939 41.6388 45.693 43.6339 43.7913C45.1395 42.3564 46.4436 40.7344 47.5168 38.9429C48.7277 36.9223 49.5041 34.7785 49.399 32.3733C49.3343 30.8916 48.9157 29.5182 48.2608 28.2035C48.1829 28.0473 48.1154 27.8858 47.9658 27.5564Z" fill="#D45E57"></path>
<path d="M95.6697 99.8021C97.738 99.8432 99.7334 100.243 101.62 101.099C102.126 101.328 102.62 101.632 103.037 101.997C103.665 102.547 103.672 103.296 103.055 103.86C102.693 104.193 102.248 104.496 101.786 104.648C98.3545 105.778 95.128 105.319 92.1292 103.297C92.0315 103.231 91.9424 103.15 91.8556 103.07C90.8105 102.104 90.9372 101.121 92.2112 100.456C93.2934 99.8906 94.4703 99.7771 95.6697 99.8021ZM93.3753 101.086C93.4924 101.957 93.9023 102.475 94.4428 102.886C95.8882 103.985 97.5079 104.243 99.228 103.722C100.13 103.449 100.912 102.951 101.5 101.979C98.5981 103.151 95.9203 103.281 93.3753 101.086Z" fill="#E08A85"></path>
<path d="M56.7812 19.5088C57.195 19.5786 57.6755 19.6029 58.1174 19.7464C58.9811 20.0267 59.2788 20.6404 58.9593 21.4769C58.8041 21.8843 58.5783 22.2856 58.3034 22.6235C56.3357 25.0401 53.7692 26.3718 50.6823 26.6575C50.0233 26.7182 49.3139 26.6187 48.6761 26.429C47.6275 26.1175 47.3565 25.2677 47.9354 24.3425C48.1376 24.0199 48.3831 23.7118 48.6592 23.4501C50.5613 21.6456 52.7632 20.3652 55.319 19.7333C55.775 19.6202 56.2505 19.5879 56.7812 19.5088ZM49.5026 24.1239C50.3087 24.8215 51.2474 25.0131 52.2401 24.9355C54.0443 24.7943 55.4524 23.9601 56.3801 22.3951C56.6715 21.9033 56.9089 21.3553 56.6165 20.6761C54.9805 23.4538 52.4446 24.1758 49.5026 24.1239Z" fill="#E08A85"></path>
<path d="M71.2331 80.8004C73.6383 81.6822 76.1197 82.2339 78.6649 82.4941C81.3312 82.7671 83.9937 82.8039 86.6326 82.2336C87.1526 82.1213 87.6681 81.9751 88.1738 81.8084C90.2569 81.1196 91.6666 79.7793 92.3104 77.6347C92.6993 76.3384 92.9209 75.0384 92.7928 73.6911C92.6338 72.0164 91.9324 70.6251 90.5823 69.5885C90.4193 69.4632 90.2558 69.3388 90.154 69.0732C90.4979 69.2228 90.8666 69.3331 91.1807 69.5301C91.9607 70.0199 92.4759 70.7482 92.8073 71.5923C93.7583 74.0162 93.7903 76.4546 92.8018 78.8725C92.1471 80.4753 90.9733 81.621 89.4572 82.428C87.6904 83.3689 85.7731 83.7663 83.8029 83.7958C82.2977 83.8182 80.7892 83.6404 79.2823 83.5474C79.0201 83.5319 78.7592 83.4981 78.3721 83.4604C78.4792 83.7722 78.5462 84.0081 78.6391 84.2331C79.4927 86.2965 78.4127 87.777 76.9636 88.5704C75.9981 89.0994 75.005 88.986 74.0999 88.3712C73.1436 87.7223 72.5826 86.8047 72.4194 85.6564C72.3785 85.3667 72.3716 85.0725 72.3411 84.6719C72.0862 84.8165 71.866 84.9256 71.6619 85.0594C70.9157 85.5484 70.083 85.7449 69.21 85.7287C67.7361 85.7009 67.0621 84.787 67.4202 83.3538C67.4901 83.0738 67.5726 82.7974 67.6796 82.4116C67.4343 82.5757 67.2789 82.661 67.1454 82.7716C64.7269 84.7808 61.9061 85.8463 58.8373 86.3571C56.7432 86.7058 54.6583 86.8277 52.5661 86.3506C48.8672 85.5065 46.3851 82.834 45.8026 79.0863C45.4953 77.11 45.6419 75.1813 46.348 73.3093C46.6958 72.388 47.1603 71.5302 48.0773 70.9883C47.9781 71.1354 47.8835 71.2856 47.7801 71.4296C46.7498 72.8679 46.464 74.5236 46.4228 76.2335C46.3915 77.5456 46.5806 78.8363 47.0402 80.0759C48.1728 83.131 50.3734 84.886 53.5652 85.4413C55.4996 85.7775 57.4268 85.6425 59.3006 85.1612C61.1324 84.6907 62.9346 84.0843 64.7144 83.44C66.4348 82.8172 67.8816 81.7157 69.2759 80.5495C69.8307 80.0855 70.3282 80.1238 70.8773 80.6224C69.661 81.0827 68.9202 82.0176 68.4655 83.1738C68.0791 84.1569 68.5558 84.8171 69.5778 84.6697C70.9457 84.4715 72.3005 84.1702 73.3051 83.0664C73.5361 82.8127 73.8704 82.6525 74.1569 82.4493C74.0072 82.7342 73.8621 83.0216 73.7079 83.3037C73.0128 84.5776 73.263 86.2647 74.2908 87.2192C75.0851 87.957 76.0993 87.9961 76.9398 87.3167C78.047 86.4212 78.17 85.2437 77.924 83.9457C77.8364 83.482 77.6234 83.2328 77.1436 83.1333C76.4232 82.9833 75.7206 82.7492 75.0048 82.574C74.7245 82.5054 74.4291 82.4986 74.1408 82.4638C73.9115 82.3135 73.6902 82.1497 73.4515 82.0162C72.7156 81.6043 71.9732 81.2046 71.2331 80.8004Z" fill="black"></path>
<path d="M71.908 53.7168C74.0263 51.2067 76.8972 50.2874 80.0975 50.2052C82.1684 50.1522 84.0286 50.8442 85.5426 52.255C88.3489 54.871 89.3959 58.1118 88.5864 61.8635C87.9957 64.6023 86.2875 66.5225 83.7352 67.6243C80.3276 69.0955 76.9422 69.1024 73.6495 67.2239C73.5472 67.1655 73.4415 67.1133 73.2855 67.0311C73.1125 67.1626 72.9239 67.2933 72.7495 67.4407C69.5768 70.1305 65.9513 70.7079 62.0723 69.5009C58.7238 68.4586 56.8764 65.995 56.3129 62.5787C55.9441 60.3439 56.3083 58.1921 57.4127 56.2099C58.9641 53.4254 61.362 51.9505 64.5518 51.7824C66.1344 51.6991 67.7092 51.7846 69.1954 52.366C70.0969 52.7186 70.938 53.2267 71.908 53.7168ZM73.4216 56.0727C73.3646 56.1166 73.3076 56.1602 73.2507 56.2042C72.311 54.3781 70.7736 53.3451 68.825 52.9224C66.8853 52.502 64.9288 52.5245 63.0083 53.0362C60.0144 53.8344 58.1654 55.7821 57.4526 58.7919C57.1974 59.8694 57.2037 60.961 57.3619 62.0614C57.8478 65.4417 60.2813 68.1681 63.5781 68.9774C65.0123 69.3294 66.4588 69.3235 67.9028 69.0528C70.4033 68.5839 72.5649 67.5201 74.1386 65.4443C74.1905 65.3762 74.268 65.3275 74.3342 65.2699C74.3644 65.3008 74.3951 65.3323 74.4257 65.3635C74.157 65.7997 73.8885 66.2362 73.5925 66.7175C73.9583 66.8799 74.2507 67.0178 74.5499 67.1414C76.2949 67.8631 78.1238 68.0156 79.9677 67.7871C83.3818 67.3648 85.9066 65.6868 87.1744 62.3845C87.7283 60.9425 87.8668 59.4345 87.5991 57.9197C87.0375 54.739 85.3587 52.3902 82.1569 51.5435C79.174 50.7549 76.2724 51.2569 73.5902 52.8219C73.0311 53.1479 72.5336 53.5663 72.1869 54.0759C72.6241 54.7829 73.0228 55.4281 73.4216 56.0727Z" fill="black"></path>
<path d="M89.6734 72.2325C90.0523 73.7762 90.3236 75.341 89.7967 76.915C89.4281 78.0154 88.6218 78.7442 87.6356 79.2942C86.5051 79.9246 85.2694 80.2446 84.0015 80.4065C80.8111 80.8135 77.6724 80.5356 74.6041 79.5605C73.9395 79.3493 73.2645 79.1254 72.6562 78.5035C73.5176 78.6435 74.1995 79.0685 75.0026 79.0115C74.2807 77.5744 72.6801 77.0156 71.208 77.6766C70.6149 77.9428 70.0608 78.2944 69.4819 78.5937C67.7715 79.4773 66.0743 80.3895 64.3387 81.2206C63.2465 81.7436 62.1136 82.1962 60.8421 82.0967C60.6176 82.0791 60.3603 82.2756 60.1429 82.4131C59.5076 82.8142 58.846 83.1259 58.0789 83.1582C57.0324 83.2025 56.4752 82.8701 56.0372 81.9275C55.9629 81.7685 55.8982 81.6043 55.795 81.3619C55.4829 81.441 55.1802 81.525 54.8741 81.5936C53.9942 81.7909 53.1118 81.8456 52.2404 81.563C50.519 81.0043 49.9514 79.6056 50.7823 77.9961C50.8228 77.9184 50.8528 77.8352 50.8837 77.7629C49.6695 74.8361 50.0316 72.7375 52.0629 71.539C51.5337 73.3569 51.1718 75.1037 51.5117 76.9136C52.1668 76.7192 52.7857 76.4656 53.4282 76.3633C54.1284 76.2519 54.7766 76.5561 55.3424 76.9504C55.8986 77.3376 56.4083 77.7921 56.9233 78.2051C57.6025 78.0376 58.2782 77.7688 58.9665 77.7314C59.6263 77.6948 60.3343 77.7999 60.9595 78.0182C61.9771 78.3734 62.365 79.1149 62.3165 80.2527C62.2747 80.2445 62.2077 80.2483 62.1982 80.227C61.6504 78.9872 61.0485 78.6007 59.725 78.6733C58.8736 78.72 58.0835 78.9804 57.4486 79.5558C57.1768 79.8016 56.9297 80.1477 56.8294 80.4941C56.5924 81.3085 57.1287 82.0378 57.993 82.1197C58.9344 82.2087 59.8163 81.9786 60.6219 81.4794C60.7951 81.3717 60.9527 81.2389 61.2492 81.0209C61.1233 81.3597 61.0485 81.5602 60.9516 81.821C61.4814 81.8904 61.8987 81.6602 62.2882 81.4366C63.187 80.9212 64.0606 80.3622 64.9444 79.8193C66.1812 79.0599 67.3891 78.2468 68.6646 77.5585C69.4898 77.1137 70.3896 76.7565 71.2984 76.5257C73.2273 76.0368 74.537 76.6868 75.3386 78.488C75.5742 79.0175 75.8636 79.2718 76.4313 79.3304C79.3371 79.6318 82.2339 79.6696 85.0991 79.0163C85.8435 78.8459 86.574 78.571 87.2744 78.2623C88.2167 77.8476 88.8153 77.1047 89.1271 76.1089C89.5218 74.8486 89.6509 73.5619 89.6734 72.2325ZM56.6229 78.4836C55.7798 77.9263 54.8321 77.5548 54.0489 77.4604C52.9306 77.3249 51.9847 77.8216 51.5728 78.7604C51.3052 79.3704 51.4195 79.8645 51.9178 80.2551C52.6457 80.8246 54.7746 81.2182 55.7049 80.9549C55.8146 79.6212 55.8147 79.6212 56.6229 78.4836Z" fill="black"></path>
<path d="M47.0156 65.8574C52.2589 64.7992 59.3789 68.8581 60.9445 73.7451C59.1336 71.6565 57.1282 69.8049 54.6896 68.4655C52.2868 67.1457 49.6709 66.4643 47.0156 65.8574Z" fill="black"></path>
<path d="M74.157 82.4495C73.8705 82.6527 73.5362 82.8129 73.3052 83.0666C72.3006 84.1704 70.9458 84.4717 69.5779 84.6699C68.5559 84.8173 68.0792 84.1571 68.4656 83.174C68.9203 82.0178 69.661 81.0829 70.8773 80.6226C70.9958 80.6821 71.1145 80.7411 71.2332 80.8006C71.9733 81.2048 72.7156 81.6045 73.4515 82.0164C73.6902 82.1499 73.9115 82.3137 74.1411 82.464L74.157 82.4495Z" fill="#FFD425"></path>
<path d="M93.375 101.085C95.92 103.281 98.5978 103.151 101.499 101.979C100.912 102.951 100.13 103.448 99.228 103.722C97.5075 104.243 95.8878 103.985 94.4427 102.885C93.9019 102.474 93.4921 101.956 93.375 101.085Z" fill="black"></path>
<path d="M49.502 24.1239C52.444 24.1758 54.9798 23.4538 56.6158 20.6761C56.9082 21.3553 56.6708 21.9033 56.3794 22.3951C55.4517 23.9601 54.0436 24.7943 52.2394 24.9355C51.2467 25.0131 50.3081 24.8215 49.502 24.1239Z" fill="black"></path>
<path d="M74.1575 82.4494L74.1416 82.464C74.4296 82.4988 74.7251 82.5055 75.0054 82.5741C75.7212 82.7493 76.4238 82.9835 77.1442 83.1335C77.624 83.233 77.837 83.4821 77.9246 83.9458C78.1706 85.2438 78.0475 86.4214 76.9403 87.3169C76.0998 87.9963 75.0857 87.9571 74.2914 87.2193C73.2636 86.2648 73.0134 84.5778 73.7085 83.3039C73.8627 83.0218 74.0078 82.7343 74.1575 82.4494Z" fill="#FFD425"></path>
<path d="M73.423 56.0724C73.0242 55.4278 72.6254 54.7826 72.1882 54.0756C72.5349 53.566 73.0324 53.1476 73.5915 52.8216C76.2737 51.2566 79.1753 50.7546 82.1582 51.5432C85.36 52.3899 87.0388 54.7387 87.6004 57.9194C87.8681 59.4342 87.7297 60.9423 87.1758 62.3843C85.908 65.6866 83.3831 67.3645 79.969 67.7868C78.1251 68.0153 76.2962 67.8628 74.5512 67.1411C74.252 67.0175 73.9597 66.8797 73.5938 66.7173C73.8898 66.236 74.1583 65.7994 74.427 65.3632C74.3964 65.332 74.3657 65.3005 74.3355 65.2696C74.2693 65.3272 74.1918 65.3759 74.1399 65.444C72.5662 67.5198 70.4047 68.5836 67.9042 69.0525C66.4602 69.3232 65.0136 69.3291 63.5794 68.9771C60.2826 68.1678 57.8492 65.4414 57.3633 62.0611C57.2051 60.9607 57.1988 59.8691 57.454 58.7916C58.1668 55.7818 60.0157 53.8341 63.0096 53.0359C64.9301 52.5242 66.8866 52.5018 68.8263 52.9222C70.7749 53.3449 72.3124 54.3778 73.2521 56.2039C73.309 56.1599 73.366 56.1163 73.423 56.0724ZM72.8915 59.4975C71.9583 60.741 70.7496 61.6473 69.514 62.5169C66.7151 64.4864 62.2079 64.2152 60.0456 61.3026C59.9776 61.2107 59.9445 61.0922 59.8949 60.9862C60.1704 62.7352 61.5107 64.0638 63.3115 64.599C66.316 65.4919 70.1371 64.2072 71.9864 61.6793C72.4609 61.031 72.8186 60.3291 72.8915 59.4975ZM86.0658 58.0886C85.2681 59.2562 84.2207 60.1664 83.1373 61.0409C80.6947 63.0133 76.7217 62.8341 74.7147 59.9638C74.6467 59.8665 74.556 59.7849 74.4761 59.6962C74.9236 61.4497 75.9505 62.6779 77.6784 63.1913C81.4719 64.3192 85.6276 61.4661 86.0658 58.0886Z" fill="white"></path>
<path d="M56.6222 78.4837C55.814 79.6213 55.814 79.6214 55.7043 80.9551C54.774 81.2184 52.6451 80.8247 51.9172 80.2552C51.4189 79.8646 51.3046 79.3705 51.5722 78.7605C51.9841 77.8217 52.93 77.325 54.0483 77.4605C54.8315 77.5549 55.7791 77.9264 56.6222 78.4837Z" fill="#FFD425"></path>
<path d="M72.8911 59.4976C72.8182 60.3292 72.4606 61.0311 71.9861 61.6794C70.1368 64.2073 66.3157 65.492 63.3112 64.5991C61.5104 64.0639 60.17 62.7353 59.8945 60.9863C59.9441 61.0923 59.9773 61.2108 60.0453 61.3027C62.2076 64.2153 66.7148 64.4865 69.5137 62.517C70.7493 61.6474 71.9579 60.7411 72.8911 59.4976Z" fill="black"></path>
<path d="M86.0663 58.0887C85.6281 61.4662 81.4725 64.3193 77.679 63.1914C75.9511 62.678 74.9241 61.4498 74.4766 59.6963C74.5565 59.785 74.6472 59.8666 74.7152 59.9639C76.7222 62.8342 80.6952 63.0134 83.1378 61.041C84.2212 60.1665 85.2686 59.2563 86.0663 58.0887Z" fill="black"></path>
<path d="M55.7189 26.2224C59.7072 30.617 60.1066 37.5363 54.3654 45.0113C49.3727 45.041 43.322 46.5139 38.8 50.3177C37.7736 53.7726 37.525 56.7099 39.3304 58.2771C30.8673 61.5957 23.7883 76.0444 32.4323 77.5573C31.1136 80.9869 31.0906 96.2673 39.8613 90.1159C40.8187 98.7346 49.2085 104.238 56.1345 97.368C59.3404 103.334 70.4112 106.884 71.6998 97.5449C80.3483 104.275 87.0661 96.6673 91.3337 89.2315C95.4626 88.8049 98.6441 86.8892 99.4701 81.2718C101.488 82.0754 103.459 81.951 105.387 81.4314C105.471 80.7125 105.474 79.9834 105.402 79.2456C105.285 78.0706 105.157 76.8942 104.634 75.7045C104.392 75.9753 104.197 76.189 104.007 76.4064C103.101 77.4416 102.09 78.3507 100.843 78.9587C99.6273 79.5513 98.3762 79.7961 97.0679 79.2408C96.9743 79.2011 96.8603 79.2113 96.7472 79.1974C96.6627 79.6742 96.6218 80.0889 96.5146 80.4863C95.3994 84.6272 93.3412 87.887 88.7107 88.7694C88.6696 88.9438 88.6095 89.1416 88.5767 89.3437C88.2314 91.4714 87.1395 93.1456 85.4626 94.4586C84.1085 95.5187 82.5675 96.199 80.8979 96.567C78.6878 97.0537 76.4835 97.0871 74.3281 96.2818C73.8059 96.0862 73.3135 95.8101 72.7975 95.5666C72.6913 95.6406 72.5887 95.7001 72.5005 95.7755C69.9824 97.9338 67.0389 98.8287 63.7656 98.6005C60.903 98.4007 58.5972 97.1758 57.0909 94.6436C57.0024 94.495 56.8969 94.3568 56.7887 94.1975C56.6469 94.2547 56.5393 94.2935 56.4355 94.3405C52.2783 96.2128 48.3896 95.5703 44.7811 92.9746C43.2538 91.8759 42.364 90.3101 42.194 88.3885C42.1765 88.1937 42.0959 88.0041 42.0267 87.745C41.4918 87.745 40.9875 87.7739 40.4875 87.7402C37.0029 87.506 34.54 85.2876 34.0846 81.9206C33.8076 79.8763 34.098 77.8994 35.0246 76.0356C35.1385 75.8063 35.244 75.5736 35.346 75.3579C35.2542 75.2706 35.2185 75.2167 35.1686 75.192C33.4023 74.3249 32.6267 72.8189 32.5961 70.9418C32.5295 66.9271 34.1787 63.7126 37.3453 61.2776C38.1518 60.6577 39.0895 60.2778 40.1063 60.1146C40.3293 60.0791 40.5444 59.9915 40.6714 59.9547C40.812 58.7826 40.8342 57.6722 41.0929 56.6206C41.7134 54.1023 43.3214 52.2717 45.4501 50.8796C47.9681 49.2326 50.7481 48.3939 53.7551 48.3341C54.2007 48.3256 54.5377 48.2414 54.8281 47.8649C56.3485 45.8929 57.9634 43.9885 59.4017 41.9589C60.408 40.5399 61.252 38.9922 62.0453 37.4391C62.6478 36.2587 63.0413 35.003 63.2627 33.7016C63.3401 33.2461 63.3967 32.7857 63.4336 32.3203C63.7352 28.5097 62.5776 25.0653 60.8023 21.7751C60.7573 21.6915 60.6529 21.6399 60.5599 21.5597C59.47 23.7384 57.7169 25.1308 55.7189 26.2224Z" fill="#C23B38"></path>
<path d="M42.4295 85.8987C42.3285 86.3165 42.2277 86.7343 42.1208 87.1756C41.8695 87.1756 41.6272 87.2239 41.4126 87.1672C40.6694 86.9702 39.9115 86.7963 39.2028 86.5069C36.3841 85.3566 34.9078 83.1003 34.9585 80.0497C34.9874 78.2942 35.4588 76.6492 36.3909 75.1599C36.7327 74.6137 37.1888 74.1386 37.6364 73.5762C36.8524 73.655 36.4067 74.2653 35.8041 74.6993C34.1475 73.549 33.3459 71.9809 33.4505 70.0034C33.494 69.1868 33.6625 68.344 33.9505 67.5798C34.958 64.9059 36.7333 62.8482 39.2006 61.4008C40.2888 60.7625 41.4658 60.4113 42.7637 60.2953C42.3235 60.187 41.8835 60.0788 41.3418 59.9455C41.7806 56.4501 43.3083 53.609 46.2183 51.6361C49.642 49.3148 53.3731 48.4817 57.4906 49.6286C57.5199 50.1252 57.5443 50.5311 57.5681 50.937C57.599 50.945 57.6297 50.9525 57.6601 50.9599C57.7508 50.6662 57.8441 50.3732 57.9313 50.0787C58.7973 47.1471 60.336 44.6603 62.8548 42.8733C65.4494 41.0328 68.3069 40.3094 71.4474 41.1272C73.6919 41.7117 75.4293 43.0457 76.7928 44.8941C77.038 45.2258 77.2676 45.5696 77.6486 45.8446C77.4754 45.4735 77.3407 45.077 77.119 44.7377C76.8397 44.311 76.8383 43.9107 77.0764 43.4917C77.4262 42.8755 77.7024 42.1909 78.1604 41.6662C80.9792 38.4376 84.522 36.7834 88.8432 37.0354C91.2903 37.1785 93.1779 38.7361 93.8531 41.0469C93.9999 41.5492 94.0079 42.0927 94.1045 42.803C94.2423 42.4654 94.3402 42.2769 94.3979 42.0765C94.9799 40.0673 95.8098 38.1749 97.0536 36.4815C98.7867 34.1219 101.009 32.4863 103.939 31.9608C105.196 31.7351 106.467 31.6481 107.745 31.8477C109.292 32.0895 110.254 32.9648 110.603 34.4958C110.68 34.8326 110.74 35.1729 110.926 35.5C110.939 35.3688 110.978 35.2339 110.962 35.1061C110.804 33.8345 111.093 32.6229 111.492 31.4395C112.469 28.5456 114.041 26.0293 116.37 24.0252C117.986 22.6345 119.864 21.9284 122.01 22.0129C123.438 22.0687 124.683 22.6096 125.655 23.6419C127.784 25.9031 128.447 28.6003 127.845 31.6198C127.698 32.3565 127.347 33.0056 126.732 33.557C126.109 33.0467 125.507 32.5535 124.905 32.0603C124.862 32.1 124.819 32.1399 124.776 32.1802C124.892 32.3242 125.001 32.4744 125.124 32.6119C126.9 34.5879 127.4 36.8829 126.669 39.3992C125.747 42.5728 123.693 44.8074 120.703 46.1907C120.442 46.3112 120.175 46.4163 119.716 46.6108C120.748 46.7097 121.466 46.3171 122.254 46.1388C122.308 46.2451 122.39 46.3417 122.407 46.4491C122.921 49.5491 122.649 52.5369 121.115 55.3384C120.436 56.5777 119.591 57.6812 118.372 58.4313C117.878 58.7351 117.323 58.9398 116.776 59.1989C116.445 58.6354 116.173 58.1725 115.901 57.7098C116.425 60.1391 115.598 62.2076 114.44 64.1907C113.548 65.7183 112.404 67.035 110.931 68.0382C109.521 68.9983 108.01 69.4716 106.125 68.846C106.559 69.2945 106.578 69.6507 106.397 70.0708C105.974 71.0496 105.65 72.0733 105.195 73.0356C104.201 75.1336 102.647 76.736 100.637 77.8854C99.7253 78.4067 98.7407 78.7789 97.6719 78.6613C97.0126 78.589 96.3708 78.3605 95.6435 78.1831C96.3142 78.6159 96.1128 79.1473 95.9027 79.716C95.2425 81.5055 94.4369 83.2166 93.2782 84.743C92.5923 85.6464 91.8058 86.4481 90.8484 87.0686C89.7504 87.7801 88.5571 88.1704 87.2395 88.1466C86.989 88.1418 86.7384 88.1454 86.4608 88.2931C86.9894 88.4334 87.5184 88.574 88.1588 88.7438C88.0627 89.0253 87.9845 89.3241 87.8615 89.6033C86.4578 92.7903 83.9845 94.6977 80.6581 95.5458C79.0313 95.9608 77.3773 96.0378 75.7169 95.7323C74.059 95.427 72.5518 94.8125 71.3888 93.506C71.3459 93.5454 71.3025 93.5848 71.2596 93.6242C71.5079 94.0401 71.7561 94.4559 72.0011 94.8664C68.6513 98.1866 60.9117 99.0699 57.3188 93.8709C57.5098 93.622 57.7111 93.3601 57.9124 93.0978C56.9415 93.584 55.984 94.0188 54.9258 94.2008C51.8587 94.7286 48.9474 94.2909 46.2749 92.6769C43.8654 91.2216 42.5361 89.0965 42.5885 86.2105C42.5902 86.1232 42.5734 86.0353 42.5658 85.9475C42.5201 85.9313 42.4752 85.9149 42.4295 85.8987ZM93.4452 76.5183C93.4546 76.4522 93.4628 76.3859 93.4704 76.3196C99.208 76.3995 103.337 74.2863 103.892 67.2983C110.409 67.7485 113.118 64.136 112.559 57.0395C118.977 55.3849 122.181 52.5624 118.22 47.1338C122.735 43.0128 126.173 38.7016 122.642 33.1604C125.896 12.5633 113.429 33.1167 111.852 40.0588C108.658 32.5648 101.838 35.1713 92.0412 46.0728C89.9682 39.0511 84.2674 40.0647 75.5912 47.6647C68.3613 43.3852 63.0697 45.7533 59.1411 52.7943C52.0221 51.553 47.3935 53.7995 44.9909 59.1618C38.7944 65.5437 36.9781 70.1735 40.2151 72.7817C36.9016 78.0456 38.5742 81.3151 42.3377 83.7483C45.5522 91.2582 49.9717 94.6351 56.4882 90.8236C61.6921 94.9937 66.7342 97.4669 70.9922 91.708C78.0321 94.4551 82.5256 93.383 83.9046 87.6397C88.5759 86.7494 92.957 85.3108 93.4452 76.5183Z" fill="#F0BA23"></path>
<path d="M64.8098 46.4017C62.8902 46.2957 61.0554 47.0871 59.4121 48.5889C60.0483 49.6156 60.2849 50.6253 60.2767 51.5698C62.018 50.525 63.8741 49.7593 65.7832 49.7171C65.7362 48.755 65.3858 47.5605 64.8098 46.4017Z" fill="black"></path>
<path d="M80.4825 45.3065C82.3707 44.9439 84.2951 45.4822 86.1246 46.7499C85.6319 47.8528 85.5327 48.8849 85.6677 49.8198C83.8022 49.0182 81.8601 48.5082 79.9623 48.7225C79.8801 47.7627 80.0672 46.5322 80.4825 45.3065Z" fill="black"></path>
<path fill-rule="evenodd" clip-rule="evenodd" d="M18.8021 98.5795C14.8781 101.578 13.8255 102.481 11.3245 103.835C10.1224 104.486 8.92157 103.855 10.6262 102.702C12.9404 101.135 15.2995 99.8491 18.8021 98.5795Z" fill="#373435"></path>
<path fill-rule="evenodd" clip-rule="evenodd" d="M10.3436 75.0469C5.40521 75.0299 4.0205 75.1029 1.2125 74.6511C-0.137099 74.4334 -0.703859 73.2009 1.35044 73.3265C4.14004 73.4963 6.7936 73.9168 10.3436 75.0469Z" fill="#373435"></path>
<path fill-rule="evenodd" clip-rule="evenodd" d="M20.0032 48.2339C15.3687 46.5286 14.0426 46.1235 11.5583 44.7385C10.3647 44.0721 10.2537 42.7202 12.141 43.5412C14.7044 44.6549 17.054 45.9577 20.0032 48.2339Z" fill="#373435"></path>
<path fill-rule="evenodd" clip-rule="evenodd" d="M42.5738 112.451C42.2594 117.38 42.2493 118.766 41.6291 121.542C41.3306 122.876 40.0663 123.367 40.3155 121.324C40.6528 118.55 41.2321 115.927 42.5738 112.451Z" fill="#373435"></path>
<path fill-rule="evenodd" clip-rule="evenodd" d="M74.9636 113.412C76.3311 118.157 76.789 119.466 77.1419 122.288C77.3109 123.645 76.2867 124.534 75.8318 122.527C75.2132 119.801 74.8735 117.136 74.9636 113.412Z" fill="#373435"></path>
<path fill-rule="evenodd" clip-rule="evenodd" d="M103.943 103.747C106.997 107.629 107.914 108.669 109.303 111.15C109.97 112.343 109.356 113.553 108.179 111.864C106.58 109.572 105.262 107.231 103.943 103.747Z" fill="#373435"></path>
<path fill-rule="evenodd" clip-rule="evenodd" d="M125.428 86.8519C129.72 89.2945 130.961 89.9116 133.185 91.6855C134.253 92.5388 134.141 93.8903 132.413 92.7712C130.068 91.2518 127.964 89.5814 125.428 86.8519Z" fill="#373435"></path>
<path fill-rule="evenodd" clip-rule="evenodd" d="M141.613 63.6926C146.522 64.2308 147.907 64.3046 150.652 65.0503C151.971 65.4095 152.404 66.6947 150.374 66.3529C147.618 65.8894 145.024 65.1912 141.613 63.6926Z" fill="#373435"></path>
<path fill-rule="evenodd" clip-rule="evenodd" d="M143.326 35.1089C147.907 32.6221 149.187 31.8434 151.817 30.8927C153.081 30.4363 153.676 31.4398 151.764 32.35C149.167 33.587 146.682 34.4921 143.326 35.1089Z" fill="#373435"></path>
<path fill-rule="evenodd" clip-rule="evenodd" d="M124.291 13.6987C126.547 8.99973 127.128 7.6189 128.702 5.3078C129.459 4.1975 130.529 4.6621 129.512 6.5202C128.132 9.0439 126.65 11.2331 124.291 13.6987Z" fill="#373435"></path>
<path fill-rule="evenodd" clip-rule="evenodd" d="M88.3713 10.3735C87.2009 5.29414 86.793 3.85241 86.5807 1.06451C86.4789 -0.275386 87.6051 -0.58008 87.9705 1.50592C88.4677 4.33882 88.6751 6.97484 88.3713 10.3735Z" fill="#373435"></path>
<path fill-rule="evenodd" clip-rule="evenodd" d="M50.1428 21.2695C47.4 16.837 46.5497 15.6033 45.4513 13.032C44.9241 11.7961 45.892 11.1453 46.9094 13.0025C48.2918 15.5248 49.3367 17.9538 50.1428 21.2695Z" fill="#373435"></path>
</svg>