<svg width="208" height="172" viewBox="0 0 208 172" fill="none" xmlns="http://www.w3.org/2000/svg">
<path fill-rule="evenodd" clip-rule="evenodd" d="M175.544 171.559H27.0218C12.1606 171.559 0 159.399 0 144.537V27.0216C0 12.1596 12.1598 -0.000183105 27.0218 -0.000183105H175.544C177.122 -0.000183105 205.969 0.138382 207.475 0.401184V171.158C205.969 171.42 177.121 171.559 175.544 171.559Z" fill="white"></path>
<path fill-rule="evenodd" clip-rule="evenodd" d="M72.044 121.303C72.1883 109.676 70.8552 93.5769 71.1339 85.8817C71.8893 65.0096 78.9566 39.4899 103.735 37.1128C128.01 34.7838 136.022 68.8883 140.666 98.9299C147.599 108.649 148.972 117.725 146.27 128.266H158.233V128.705H68.8204C67.0442 131.661 63.0852 134.868 57.3683 133.924C42.5218 131.472 52.7852 112.927 64.6859 115.001C68.5966 115.683 70.8568 118.169 72.044 121.303Z" fill="#373435"></path>
<path fill-rule="evenodd" clip-rule="evenodd" d="M139.524 97.4032C134.417 68.5332 125.649 36.4775 103.877 38.5697C79.7997 40.8831 73.5626 65.8882 72.3318 85.9388C71.8488 93.8069 72.8347 110.457 72.3227 122.113C72.8854 123.915 73.13 125.889 73.1564 127.832L73.0558 127.836C72.4115 121.749 69.5238 115.916 62.478 116.364C50.4104 117.131 46.5096 133.782 60.3024 132.607C69.4181 131.83 71.0041 124.35 68.7519 124.338C70.1684 124.218 70.2166 126.114 69.0691 128.265H145.936C147.808 118.001 145.985 108.883 139.436 99.7276C129.36 85.64 120.984 90.8991 127.862 108.287C130.172 114.129 133.175 119.68 135.591 125.592C132.847 119.967 129.201 114.259 126.721 108.799C118.949 91.693 128.412 83.2467 139.524 97.4032Z" fill="#FF8300"></path>
<path fill-rule="evenodd" clip-rule="evenodd" d="M101.842 38.8277C79.4462 42.322 73.5272 66.4656 72.3318 85.9388C71.8488 93.8069 72.8347 110.457 72.3227 122.113C72.8854 123.915 73.13 125.889 73.1564 127.832L73.0558 127.836C72.4115 121.749 69.5238 115.916 62.478 116.364C50.4104 117.131 46.5096 133.782 60.3024 132.607C69.4181 131.83 71.0041 124.35 68.7519 124.338C70.1684 124.218 70.2166 126.114 69.0691 128.265H104.938C81.219 104.908 88.4961 70.6999 101.842 38.8277Z" fill="#E27400"></path>
<path fill-rule="evenodd" clip-rule="evenodd" d="M91.4905 83.5132C92.5175 82.5502 93.6797 81.7129 94.9323 81.013C79.7803 68.6188 99.4281 41.1511 113.084 56.1753C120.534 64.3705 115.855 76.4027 112.057 80.4166C113.192 81.0323 114.254 81.8059 115.211 82.7501C115.458 82.9944 115.848 83.4344 115.738 83.8335C115.755 83.607 115.663 83.4681 115.506 83.3122C110.662 78.5143 97.3962 79.9506 91.4905 83.5132Z" fill="#373435"></path>
<path fill-rule="evenodd" clip-rule="evenodd" d="M95.5019 80.707C100.349 78.2139 106.41 77.7394 111.306 80.0371C115.451 76.3249 117.631 63.3187 111.98 57.1017C99.8316 43.7358 82.6961 68.359 95.5019 80.707Z" fill="white"></path>
<path fill-rule="evenodd" clip-rule="evenodd" d="M75.6855 93.8381C77.5354 93.2371 79.9024 92.9577 82.4609 92.9716C84.2666 86.0919 91.0473 84.5339 89.3947 93.035C89.3429 93.3026 89.3023 93.4957 89.2711 93.6392C94.2057 94.5664 98.8437 96.4306 101.094 99.0555C100.994 99.1476 102.3 100.02 102.228 100.116C94.9434 97.0897 83.7575 92.9667 75.6855 93.8381Z" fill="#373435"></path>
<path fill-rule="evenodd" clip-rule="evenodd" d="M98.043 45.6353C100.265 44.6605 102.624 44.2509 105.161 44.5794C106.192 44.7129 107.156 45.1435 107.308 46.1719C107.461 47.2003 106.747 48.4521 105.716 48.3192C103.376 48.0173 101 48.4396 98.5975 49.3751C97.6289 49.7521 96.603 48.8109 96.4505 47.7825C96.298 46.7541 97.0909 46.0531 98.043 45.6353Z" fill="black"></path>
<path fill-rule="evenodd" clip-rule="evenodd" d="M104.006 64.2216C106.261 64.2216 108.089 66.0499 108.089 68.3049C108.089 70.5602 106.261 72.3882 104.006 72.3882C101.751 72.3882 99.9229 70.5602 99.9229 68.3049C99.9229 66.0499 101.751 64.2216 104.006 64.2216Z" fill="black"></path>
<path fill-rule="evenodd" clip-rule="evenodd" d="M104.138 69.3586C104.829 69.3586 105.389 69.9189 105.389 70.6099C105.389 71.3013 104.829 71.8613 104.138 71.8613C103.447 71.8613 102.887 71.3013 102.887 70.6099C102.887 69.9189 103.447 69.3586 104.138 69.3586Z" fill="white"></path>
<path fill-rule="evenodd" clip-rule="evenodd" d="M83.2207 92.9841C85.0144 93.0337 86.885 93.2224 88.7253 93.541C88.5118 92.3507 88.4078 91.1971 88.1725 89.9456C87.5801 86.7946 84.8171 90.4539 83.2207 92.9841Z" fill="white"></path>
<path fill-rule="evenodd" clip-rule="evenodd" d="M95.5018 80.707C100.349 78.2139 106.41 77.7394 111.306 80.0371C114.098 77.5364 115.998 70.8186 115.214 64.7992C114.327 71.9513 108.908 77.4542 102.355 77.4542C97.4477 77.4542 93.177 74.369 90.968 69.8171C90.9462 73.6901 92.2689 77.5897 95.5018 80.707Z" fill="#E9E3CF"></path>
</svg>