<svg width="1259" height="2157" viewBox="0 0 1259 2157" fill="none" xmlns="http://www.w3.org/2000/svg">
<path d="M1075.5 710.322L1101.5 799.322C1101.5 803.774 1103.28 806.964 1104.06 810.591C1120.43 886.408 1127.2 963.069 1128.29 1040.35C1128.6 1061.57 1132.05 1082.73 1133.57 1103.95C1136.47 1144.47 1132.39 1184.39 1121.27 1223.63C1120.49 1226.39 1119.48 1229.08 1117.89 1231.74L1117.69 1232.47C1115.71 1239.65 1112.84 1250.03 1110.32 1256.06C1121.3 1253.5 1138.14 1253.4 1152.11 1255.84C1205.39 1265.17 1244.47 1302.83 1255.58 1355.13C1261.5 1382.95 1259.75 1410.12 1248.48 1436.47C1230.17 1479.26 1188.05 1502.95 1139.46 1498.45C1088.06 1493.69 1047.04 1471.99 1017.03 1432C1014.96 1429.26 1012.5 1426.77 1009.83 1423.7C1007.08 1426.03 1004.66 1427.74 1002.66 1429.83C928.475 1506.98 835.542 1552.79 729.279 1576.3C725.724 1577.09 722.216 1578.04 718.653 1578.75C693.26 1583.8 692.895 1583.69 684.987 1607.64C656.049 1695.24 652.769 1782.94 686.388 1870.12C693.636 1888.91 704.543 1906.46 713.9 1924.51C731.027 1957.54 749.725 1989.94 764.901 2023.75C773.795 2043.58 777.347 2065.6 782.883 2086.74C784.022 2091.09 783.645 2095.91 783.302 2100.47C781.179 2128.89 779.698 2130.02 749.94 2135.45C656.409 2152.52 562.127 2160.32 466.923 2155.67C401.057 2152.46 336.535 2141.98 273.984 2121.54C266.715 2119.17 258.618 2118.52 250.845 2118.14C189.866 2115.13 130.137 2105.64 71.5521 2089.14C58.6937 2085.53 49.9354 2079.63 45.8395 2067.72C40.2081 2051.4 32.7537 2035.39 29.5215 2018.65C22.8565 1984.12 35.8748 1955.27 63.3002 1932.19C87.0511 1912.2 115.425 1900.32 145.891 1893.56C233.143 1874.19 318.392 1878 400.196 1915.77C401.798 1916.51 403.568 1916.95 405.296 1917.37C405.737 1917.47 406.342 1916.99 407.936 1916.36C353.826 1803.84 332.846 1688.89 384.452 1568.32C376.439 1565.86 369.674 1563.76 362.898 1561.71C271.117 1533.9 188.718 1491.03 120.966 1425.24C65.4979 1371.37 24.8353 1308.83 9.52662 1234.53C-6.64025 1156.06 -1.91733 1077.59 21.3131 1000.48C24.5421 989.766 33.0008 979.994 32 968.823C54.23 923.318 49.0527 958.563 63.5 910.823C68.4737 894.388 199.364 757.04 208.425 742.323C239.901 691.17 143.5 833.323 208.425 733.534C211.055 734.807 213.791 735.903 217.875 737.699C225.553 729.319 233.449 721.442 240.473 712.921C271.136 675.686 292.952 633.759 306.915 588.883C325.61 528.8 341.832 468.002 357.972 407.242C372.783 351.448 385.712 295.076 409.299 241.891C422.658 211.779 437.775 181.969 455.871 154.226C497.318 90.6794 556.731 47.1462 631.926 24.2954C723.568 -3.55365 816.887 -6.80225 911.075 11.176C921.753 13.2114 932.272 16.3578 942.558 19.8174C1012.5 43.3154 1053.02 90.3485 1066.24 159.04C1074.38 201.37 1073.83 244.003 1067.76 286.277C1058.09 353.499 1046.11 420.417 1035.66 487.546C1031.93 511.424 1029.29 535.484 1027.06 559.539C1024.96 582.283 1029.85 604.26 1038.69 625.358C1047.43 646.211 1057.23 666.671 1065.61 687.64C1069.09 696.322 1070 697.322 1075.5 710.322ZM461.888 1586.46C460.477 1590.3 458.998 1593.45 458.15 1596.75C441.091 1663.22 439.297 1729.75 455.76 1796.71C466.568 1840.66 490.764 1878.62 513.38 1917.33C515.535 1921.01 521.629 1923.9 526.374 1924.75C560.013 1930.78 592.467 1939.96 622.881 1955.1C623.557 1955.44 624.974 1954.43 626.35 1953.95C570.034 1836.36 549.702 1716.97 608.467 1594.6C559.152 1591.87 511.383 1589.21 461.888 1586.46Z" fill="black"></path>
<path d="M1114.18 1232.81C1114.03 1231.59 1113.97 1230.37 1114.2 1229.21C1124.71 1174.51 1118.93 1120.39 1108.5 1066.3C1095.22 997.39 1069.01 932.324 1042.94 867.278C1024.64 821.597 1004.12 776.7 984.619 731.441C983.768 729.448 983.231 727.327 982.189 724.187C998.909 735.79 1030.87 783.223 1055.45 835.985C1074.26 876.363 1090.72 917.729 1108.97 960.369C1109.27 956.369 1109.85 953.454 1109.66 950.588C1104.6 871.076 1093.2 792.589 1066.09 716.799C1059.08 697.212 1050.63 678.066 1042.54 658.838C1027.96 624.141 1019.68 588.21 1022.89 550.91C1027.27 499.919 1032.66 448.981 1038.98 398.165C1045.95 342.189 1056.51 286.443 1054.44 229.886C1053.5 204.193 1050.2 178.124 1043.81 153.17C1029.98 99.1523 994.146 62.0928 939.376 41.5557C913.157 31.7199 885.908 25.9653 857.955 23.6279C787.116 17.7094 717.027 20.8176 648.622 41.1816C575.032 63.1008 517.239 104.805 474.65 165.588C443.434 210.146 421.77 258.93 406.155 309.912C386.707 373.406 369.515 437.529 351.233 501.35C338.505 545.807 323.845 589.646 303.31 631.544C284.478 669.956 260.813 705.237 228.498 734.92C226.361 736.886 224.589 739.212 223.028 740.944C223.176 742.29 223.031 742.982 223.327 743.38C249.317 778.494 242.405 813.225 220.478 846.727C193.157 888.483 288.699 754.078 240 767.822C230.702 770.449 232.913 742.662 223.327 743.38C212.038 744.237 57.3663 938.519 52.4733 947.272C33.1275 981.842 23.1933 1018.98 17.4878 1057.4C9.45607 1111.4 9.47138 1165.43 20.5481 1218.9C35.6313 1291.68 75.0001 1352.58 128.604 1405.53C194 1470.13 273.788 1512.9 362.905 1540.83C442.845 1565.88 525.012 1575.77 609.107 1572.69C619.371 1572.31 625.969 1569.12 631.349 1561C635.974 1554.02 642.221 1548.02 647.76 1541.59C648.908 1542.18 650.057 1542.77 651.202 1543.35C650.705 1546.14 650.995 1549.38 649.578 1551.66C601.553 1629.01 592.26 1712.94 601.797 1800.2C607.325 1850.77 619.418 1899.95 635.344 1948.39C639.209 1960.14 645.016 1970.18 654.891 1978.78C670.335 1992.24 680.865 2008.73 682.044 2029.54C672.576 2013 662.414 1996.65 645.42 1986.54C628.033 1976.21 610.163 1965.47 590.943 1959.26C513.908 1934.37 435.88 1933.72 357.925 1956.05C335.687 1962.41 315.031 1972.2 296.749 1986.09C250.801 2020.97 251.734 2067.68 269.96 2107.53C273.794 2115.9 280.545 2117.79 290.325 2116.98C297.227 2088.73 318.448 2074.19 347.062 2068.23C381.581 2061.03 413.526 2066.92 441.798 2087.59C455.51 2097.63 466.121 2110.29 473.005 2125.28C476.731 2133.38 482.054 2136.06 491.138 2136.11C556.282 2136.49 621.208 2133.22 685.938 2126.45C710.094 2123.93 734.188 2120.8 758.292 2117.79C764.176 2117.06 769.971 2115.7 775.672 2114.65C779.676 2100.45 776.317 2087.92 771.939 2076.23C764.457 2056.23 756.116 2036.38 746.246 2017.35C735.827 1997.24 723.399 1978.04 711.517 1958.63C678.309 1904.35 653.906 1847 644.642 1784.58C632.398 1702.07 648.556 1625.43 699.342 1556.35C702.746 1551.71 706.609 1547.38 712.49 1543.78C710.604 1549.23 708.729 1554.68 705.845 1563.04C820.753 1540.96 916.8 1492.92 994.153 1407.66C983.153 1405.99 975.463 1405.14 967.915 1403.63C944.166 1398.85 933.455 1386.71 933.599 1363.76C933.646 1355.22 934.655 1346.42 937.026 1338.19C940.86 1324.92 944.645 1311.29 951.158 1299.1C974.188 1255.97 982.369 1209.6 984.873 1162.27C990.54 1054.97 977.553 949.726 941.552 847.524C926.28 804.187 905.738 763.239 876.122 725.803C879.647 728.163 883.512 730.182 886.649 732.936C908.786 752.386 925.079 775.888 938.659 801.184C965.893 851.927 981.656 906.202 992.383 961.837C1003.97 1022 1009.46 1082.73 1007.25 1143.91C1006.03 1177.85 1003.48 1211.82 993.714 1244.68C989.482 1258.92 982.857 1272.62 976.288 1286.11C969.681 1299.68 961.096 1312.39 954.722 1326.03C950.35 1335.39 946.889 1345.52 945.414 1355.62C940.838 1386.99 962.025 1404.02 997.424 1396.23C985.098 1359.22 986.453 1323.33 1012.52 1290.86C1010.34 1299.68 1007.65 1308.41 1006.09 1317.33C996.433 1372.33 1013.71 1417.49 1062.41 1450.12C1088.12 1467.34 1116.65 1478.64 1148.82 1478.91C1180.68 1479.18 1205.15 1466.02 1221.4 1440.2C1259.26 1380.01 1230.58 1277.8 1134.68 1261.48C1125.18 1259.87 1115.56 1258.91 1105.3 1257.56C1106.02 1257.28 1106.8 1257.02 1107.62 1256.77L1106.62 1256.35C1109.04 1251.24 1112.05 1240.51 1114.18 1232.81Z" fill="#FF8300"></path>
<path d="M71.1231 2078.96C60.7249 2080.81 54.5698 2076.88 50.2017 2067.43C27.3949 2018.09 40.8763 1971.99 87.8609 1941.71C114.435 1924.57 144.265 1915 175.611 1909.46C238.166 1898.42 300.16 1900.25 361.356 1917.56C367.594 1919.32 373.645 1921.68 379.729 1926.54C374.358 1928.13 369.032 1929.87 363.606 1931.27C340.607 1937.21 318.474 1945.1 298.577 1957.73C259.22 1982.71 239.494 2016.28 248.341 2062.14C248.857 2064.82 248.409 2067.67 248.409 2073.27C242.698 2067.62 238.809 2063.58 234.697 2059.74C201.165 2028.41 161.574 2020.35 117.24 2033.67C92.7321 2041.04 82.6561 2051.94 71.1231 2078.96Z" fill="#F06105"></path>
<path d="M402.881 1572.66C417.737 1575.81 429.946 1578.39 444.01 1581.37C399.325 1702.09 429.218 1812.23 491.693 1919.75C467.117 1919.75 445.026 1919.75 420.518 1919.75C397.677 1857 383.174 1791.74 380.318 1724.34C378.145 1673.03 383.177 1622.56 402.881 1572.66Z" fill="#F06105"></path>
<path d="M1114.18 1232.81C1114.03 1231.58 1113.97 1230.37 1114.2 1229.21C1124.71 1174.51 1118.93 1120.39 1108.51 1066.3C1095.22 997.387 1069.01 932.321 1042.94 867.276C1024.64 821.595 1004.12 776.701 984.615 731.438C983.767 729.445 983.232 727.328 982.187 724.184C998.912 735.788 1030.87 783.218 1055.45 835.983C1074.26 876.363 1090.72 917.723 1108.97 960.368C1109.27 956.366 1109.85 953.448 1109.66 950.585C1104.6 871.073 1093.19 792.586 1066.09 716.796C1059.08 697.209 1050.63 678.064 1042.54 658.838C1027.96 624.139 1019.68 588.207 1022.89 550.908C1027.27 499.916 1032.66 448.978 1038.98 398.162C1045.95 342.187 1056.51 286.44 1054.44 229.884C1053.5 204.19 1050.2 178.121 1043.81 153.17C1038.51 132.476 1029.98 114.279 1018.39 98.5364C1026.79 145.707 1013.74 203.122 968.711 270.043C777.215 554.656 932.123 1163.64 860.655 1284.52C702.672 1551.73 374.283 1520.09 145.375 1421.33C207.468 1477.2 281.267 1515.25 362.905 1540.83C442.841 1565.88 525.012 1575.77 609.107 1572.68C619.368 1572.31 625.968 1569.12 631.346 1561C635.97 1554.02 642.221 1548.02 647.757 1541.59C648.904 1542.18 650.059 1542.76 651.201 1543.35C650.701 1546.14 650.994 1549.38 649.577 1551.66C601.556 1629 592.26 1712.93 601.797 1800.2C607.325 1850.77 619.417 1899.95 635.34 1948.39C639.209 1960.14 645.015 1970.18 654.891 1978.78C670.334 1992.24 680.865 2008.73 682.044 2029.54C672.576 2013 662.414 1996.65 645.419 1986.54C628.033 1976.21 610.163 1965.47 590.942 1959.26C513.908 1934.37 435.88 1933.72 357.921 1956.04C335.689 1962.4 315.027 1972.2 296.749 1986.09C250.804 2020.97 251.736 2067.68 269.959 2107.52C273.794 2115.9 280.545 2117.79 290.324 2116.97C297.225 2088.73 318.448 2074.19 347.062 2068.22C381.584 2061.02 413.526 2066.92 441.798 2087.59C455.513 2097.62 466.12 2110.29 473.008 2125.27C476.731 2133.37 482.055 2136.06 491.138 2136.11C556.281 2136.49 621.208 2133.22 685.94 2126.45C710.093 2123.93 734.188 2120.8 758.291 2117.79C764.176 2117.05 769.97 2115.7 775.671 2114.65C779.672 2100.45 776.317 2087.91 771.939 2076.22C764.456 2056.23 756.112 2036.38 746.245 2017.35C735.827 1997.24 723.395 1978.04 711.517 1958.63C678.309 1904.35 653.905 1847 644.642 1784.58C632.398 1702.07 648.556 1625.42 699.341 1556.34C702.746 1551.71 706.608 1547.38 712.489 1543.78C710.603 1549.22 708.729 1554.67 705.843 1563.04C820.752 1540.96 916.8 1492.92 994.152 1407.65C983.15 1405.99 975.46 1405.13 967.911 1403.62C944.166 1398.84 933.454 1386.71 933.596 1363.76C933.646 1355.22 934.652 1346.41 937.025 1338.19C940.86 1324.91 944.642 1311.29 951.155 1299.1C974.188 1255.96 982.369 1209.59 984.872 1162.27C990.54 1054.97 977.556 949.723 941.551 847.522C926.28 804.187 905.738 763.237 876.125 725.8C879.647 728.157 883.509 730.179 886.648 732.934C908.785 752.384 925.078 775.886 938.655 801.181C965.889 851.924 981.659 906.199 992.386 961.834C1003.97 1022 1009.46 1082.72 1007.25 1143.91C1006.03 1177.85 1003.48 1211.82 993.713 1244.68C989.481 1258.92 982.857 1272.61 976.29 1286.11C969.68 1299.67 961.095 1312.38 954.721 1326.03C950.35 1335.38 946.889 1345.52 945.413 1355.62C940.838 1386.99 962.024 1404.02 997.424 1396.23C985.098 1359.22 986.452 1323.33 1012.52 1290.86C1010.35 1299.67 1007.65 1308.41 1006.09 1317.33C996.433 1372.33 1013.71 1417.49 1062.41 1450.12C1088.12 1467.34 1116.65 1478.64 1148.82 1478.91C1180.68 1479.17 1205.15 1466.02 1221.41 1440.19C1259.26 1380.01 1230.58 1277.79 1134.68 1261.48C1125.18 1259.87 1115.56 1258.91 1105.3 1257.56C1106.02 1257.28 1106.8 1257.02 1107.62 1256.77L1106.62 1256.35C1109.04 1251.24 1112.05 1240.51 1114.18 1232.81Z" fill="#F06105"></path>
<path d="M458.64 2146.77C403.752 2146.83 353.68 2142.02 302 2133.56C305.433 2119.33 313.839 2111.15 325.155 2105.25C344.712 2095.04 365.609 2093.95 386.844 2098.74C415.659 2105.23 438.065 2120.84 458.64 2146.77Z" fill="#FFBC00"></path>
<path d="M242.64 2094.77C187.752 2094.83 137.68 2090.02 86 2081.56C89.4327 2067.33 97.8389 2059.15 109.155 2053.25C128.712 2043.04 149.609 2041.95 170.844 2046.74C199.659 2053.23 222.065 2068.84 242.64 2094.77Z" fill="#FFBC00"></path>
</svg>