<svg width="207" height="174" viewBox="0 0 207 174" fill="none" xmlns="http://www.w3.org/2000/svg">
<path d="M203.755 173.164H27.4484C19.9003 173.164 13.0374 170.074 8.06261 165.095C3.08811 160.117 0 153.248 0 145.694V27.47C0 19.916 3.08811 13.0476 8.06261 8.06909C13.0374 3.09039 19.9003 0 27.4484 0H203.755V173.164Z" fill="#E7E5DA"></path>
<path fill-rule="evenodd" clip-rule="evenodd" d="M175.008 172.559H30.0218C15.1603 172.559 3 160.4 3 145.538V28.0219C3 13.1599 15.1598 1.00006 30.0218 1.00006H175.008C176.586 1.00006 205.433 1.13863 206.939 1.40143V172.158C205.433 172.421 176.585 172.559 175.008 172.559Z" fill="white"></path>
</svg>