<svg width="1997" height="2747" viewBox="0 0 1997 2747" fill="none" xmlns="http://www.w3.org/2000/svg">
<path fill-rule="evenodd" clip-rule="evenodd" d="M924.967 2005.38C335.63 1951.54 49.527 2096.59 13.8675 2144.12C-126.334 2331.01 860.07 2803.29 1085.08 2739.59C1376.68 2657.04 2609.03 2445.38 1616.48 2132.95C1494.77 2094.65 1404.09 2076.63 924.967 2005.38Z" fill="#93C61A"></path>
<path d="M1847.69 554.285C1846.68 559.911 1845.04 565.508 1844.78 571.168C1841.96 633.941 1839.97 696.757 1836.55 759.499C1831.29 856.173 1825.06 952.792 1819.31 1049.44C1816.46 1097.45 1813.39 1145.45 1811.1 1193.48C1804.82 1324.78 1797.12 1456.06 1793.39 1587.44C1790.11 1702.8 1790.79 1818.28 1791.01 1933.72C1791.12 1986.27 1793.33 2038.88 1796.39 2091.36C1799.93 2152.15 1806.05 2212.79 1809.81 2273.57C1811.22 2296.42 1811.38 2319.8 1808.11 2342.37C1804.13 2369.86 1787.82 2390.98 1761.75 2402.36C1750.29 2407.36 1747.57 2414.55 1746.84 2425.9C1744.24 2465.99 1726.61 2498.56 1693.24 2521.59C1645.32 2554.67 1590.55 2540.37 1564.79 2488.43C1559.71 2478.19 1556.03 2467.28 1550.78 2454.43C1445.35 2480.27 1340.34 2506 1233.12 2532.27C1232.6 2538.5 1232.15 2545.28 1231.44 2552.03C1227.23 2591.9 1209.63 2624.29 1175.78 2646.72C1128.46 2678.08 1075.89 2664.35 1049.99 2614.12C1044.47 2603.42 1040.56 2591.91 1035.46 2579.67C1029.33 2580.94 1023.78 2582.03 1018.26 2583.23C994.945 2588.27 971.74 2593.86 948.314 2598.3C914.807 2604.65 884.391 2596.78 856.759 2577.06C845.253 2568.85 833.551 2560.8 821.331 2553.7C658.545 2459.21 493.819 2368.25 323.563 2287.58C288.068 2270.76 251.73 2255.62 215.369 2240.71C185.086 2228.29 161.284 2208.51 142.746 2182.17C120.044 2149.92 108.288 2113.76 103.458 2074.85C99.5215 2043.1 94.5883 2011.44 89.0258 1979.92C74.6469 1898.39 64.835 1816.35 58.0098 1733.87C48.0002 1612.93 43.99 1491.75 47.5869 1370.56C50.9693 1256.51 57.2146 1142.5 64.8011 1028.65C70.6361 941.044 79.1599 853.562 88.9181 766.291C100.954 658.633 115.303 551.229 129.057 443.762C135.32 394.8 142.346 345.93 149.474 297.084C151.502 283.163 154.335 269.259 158.165 255.727C164.833 232.168 178.815 214.131 198.763 198.955C273.151 142.36 354.437 141.364 439.608 166.585C444.453 168.019 449.273 169.511 455.127 171.289C457.931 166.406 460.684 162.25 462.811 157.8C477.39 127.276 501.471 108.506 534.524 101.579C603.32 87.1651 672.125 72.7814 741.08 59.141C835.974 40.3719 931.011 22.3107 1025.97 3.87827C1028.45 3.39643 1030.77 2.1211 1033.16 1.2166C1038.33 1.20888 1043.5 1.20116 1048.66 1.19343C1067.57 5.61206 1085.81 11.1963 1101.59 23.4135C1113.76 32.8296 1126.48 41.7666 1139.86 49.3543C1214.41 91.6391 1288.82 134.195 1364.06 175.247C1482.88 240.076 1602.59 303.401 1727.9 355.147C1794.04 382.459 1828.23 432.646 1843.25 499.036C1845.63 509.55 1846.23 520.459 1847.65 531.189C1847.66 538.888 1847.67 546.586 1847.69 554.285ZM1031.48 761.16C1030.09 746.407 1030.03 731.504 1027.09 717.187C1016.39 665.092 988.063 622.88 950.424 586.144C937.811 573.832 923.891 564.191 906.594 558.989C891.819 554.548 877.51 548.417 863.257 542.423C670.578 461.407 488.856 360.551 315.806 243.971C306.785 237.891 297.354 231.93 287.296 227.936C265.043 219.096 242.715 219.576 222.814 234.098C211.521 242.333 200.008 251.304 191.624 262.236C170.961 289.184 158.216 320.119 154.157 353.848C149.485 392.67 146.045 431.64 142.317 470.568C132.598 572.037 122.166 673.454 113.629 775.023C105.684 869.572 98.5464 964.227 93.3529 1058.96C87.2195 1170.99 81.5554 1283.12 79.2512 1395.27C75.1711 1594.19 80.6903 1792.76 106.603 1990.48C117.054 2070.23 147.339 2139.48 201.83 2198.65C214.256 2212.15 227.969 2222.71 246.118 2228.18C263.97 2233.57 281.25 2241 298.445 2248.31C488.975 2329.31 669.062 2429.15 840.288 2544.96C848.26 2550.36 856.404 2555.79 865.136 2559.73C887.802 2569.97 911.045 2572.14 934.478 2561.75C971.582 2545.3 1000.53 2490.13 994.699 2449.96C984.667 2380.81 973.792 2311.71 966.778 2242.25C959.959 2174.68 956.912 2106.7 953.311 2038.84C946.541 1911.25 949.789 1783.62 955.164 1656.09C958.43 1578.59 963.959 1501.17 969.194 1423.77C972.655 1372.59 977.074 1321.48 981.644 1270.4C987.249 1207.82 993.316 1145.28 999.445 1082.75C1004.95 1026.61 1010.88 970.501 1016.48 914.362C1021.57 863.349 1026.48 812.316 1031.48 761.16ZM1184.53 582.81C1186.38 587.584 1187.45 591.147 1189.09 594.436C1208.68 633.93 1216.43 675.5 1213.02 719.47C1210.14 756.542 1208.56 793.713 1206.39 830.839C1200.09 938.377 1193.86 1045.92 1187.46 1153.46C1181.29 1257.15 1174.16 1360.8 1168.87 1464.54C1162.96 1580.46 1157.01 1696.42 1154.07 1812.43C1150.24 1963.12 1149.81 2113.9 1158.14 2264.52C1160.73 2311.24 1165.65 2357.82 1169.03 2404.5C1170.6 2426.14 1171.16 2447.86 1171.96 2469.55C1172.14 2474.48 1171.4 2479.45 1171.04 2485.15C1199.04 2497.6 1226 2511.12 1256.97 2505.15C1381.77 2481.1 1506.08 2454.73 1627.87 2418.15C1666.09 2406.67 1703.48 2392.34 1740.75 2378.02C1751.18 2374.02 1762.84 2367.42 1768.75 2358.59C1789.79 2327.11 1803.57 2292.94 1796.28 2253.66C1793.11 2236.64 1790.5 2219.52 1787.87 2202.4C1771.76 2097.72 1762.39 1992.35 1757.24 1886.65C1751.07 1760.36 1750.86 1633.93 1757.07 1507.7C1763.27 1381.57 1772.3 1255.55 1781.7 1129.6C1788.33 1040.74 1797.49 952.069 1805.83 863.341C1814.64 769.525 1823.4 675.7 1833.07 581.967C1836.83 545.484 1827.77 512.284 1813.29 479.484C1807.21 465.706 1799.08 460.862 1783.64 461.518C1714.57 464.476 1645.98 471.512 1577.62 481.48C1449.5 500.162 1324.67 531.574 1202.92 575.255C1197 577.38 1191.27 580.025 1184.53 582.81ZM1177.99 574.998C1273.9 525.782 1372.06 489.455 1475.56 467.805C1578.84 446.198 1683.26 440.33 1789.62 444.468C1783.66 433.577 1777.05 424.464 1769.69 415.979C1751.35 394.821 1730.62 377.509 1702.53 369.51C1684.02 364.24 1666.3 356.024 1648.57 348.353C1463.48 268.263 1287.89 171.085 1120.76 58.6503C1111.4 52.3555 1100.26 47.4372 1089.26 45.0971C1074.25 41.9045 1058.59 40.9107 1043.16 40.5463C982.303 39.1122 922.153 46.8932 862.218 56.1322C772.287 69.9936 683.289 88.3349 596.255 115.04C573.512 122.021 551.25 130.862 529.401 140.305C507.66 149.701 491.451 165.552 479.846 187.525C488.158 192.618 494.579 196.83 501.259 200.595C576.458 242.973 651.251 286.079 727.02 327.421C844.655 391.597 963.488 453.512 1086.84 506.392C1096.31 510.45 1105.82 514.456 1115.08 518.949C1140.56 531.316 1160.44 550.287 1177.99 574.998ZM998.652 2560.21C1004.56 2559.09 1007.1 2558.99 1009.35 2558.13C1037.07 2547.64 1065.05 2537.72 1092.28 2526.09C1102.67 2521.66 1113.26 2514.82 1120.33 2506.28C1132.49 2491.58 1142.47 2474.98 1152.44 2458.63C1161.15 2444.32 1161.16 2428.86 1158.68 2412.23C1149.13 2348.22 1139.38 2284.17 1132.69 2219.83C1126.39 2159.3 1121.56 2098.44 1120.18 2037.63C1117.78 1931.25 1116.59 1824.76 1118.55 1718.38C1120.14 1632.55 1126.64 1546.78 1131.88 1461.04C1135.16 1407.3 1139.64 1353.62 1144.45 1299.99C1151.15 1225.3 1158.46 1150.66 1165.87 1076.03C1172.78 1006.51 1180.37 937.058 1187.23 867.531C1191.89 820.344 1196.85 773.147 1199.78 725.839C1202.71 678.395 1185.3 636.656 1157.95 598.602C1156.94 597.199 1154.86 596.547 1152.68 595.162C1110.48 607.934 1068.18 620.937 1026.05 638.572C1028.79 646.898 1030.98 653.497 1033.15 660.101C1041.22 684.701 1045.72 709.959 1044.4 735.796C1040.56 811.347 1036.14 886.866 1031.96 962.404C1027.71 1039.22 1023.58 1116.04 1019.22 1192.85C1012.27 1315.09 1004.37 1437.29 998.404 1559.59C993.531 1659.49 989.735 1759.47 987.55 1859.45C984.6 1994.75 985.067 2130.08 991.714 2265.29C993.975 2311.38 998.037 2357.38 1001.78 2403.38C1004.01 2430.84 1007.14 2458.23 1010.02 2485.63C1012.61 2510.3 1008.29 2534.03 998.652 2560.21ZM1140.09 574.907C1122.8 556.213 1108.83 538.207 1086.79 530.288C997.428 498.187 911.912 457.665 827.916 413.875C712.473 353.694 599.225 289.729 492.201 215.518C469.73 199.935 445.438 190.687 418.823 188.481C397.707 186.726 376.174 186.839 355.084 188.834C334.221 190.804 313.113 193.847 289.908 203.923C302.669 213.267 312.608 222.153 323.956 228.596C405.707 275.009 487.255 321.81 569.803 366.79C689.694 432.121 810.981 494.764 937.154 547.6C968.341 560.663 992.301 582.743 1010.31 611.189C1013.99 616.998 1017.81 622.718 1022.05 629.221C1061.39 611.116 1099.19 593.723 1140.09 574.907ZM1053.84 2573.4C1061.33 2592.32 1070.83 2605.7 1083.51 2616.85C1104.91 2635.67 1129.83 2639.9 1155.54 2629.23C1198.08 2611.57 1217.5 2576.36 1225.79 2533.46C1204.29 2524.79 1184.35 2516.75 1163.93 2508.51C1161.84 2512.18 1159.82 2515.42 1158.09 2518.8C1143.52 2547.25 1121.05 2563.71 1088.3 2566.13C1077.61 2566.92 1067.12 2570.5 1053.84 2573.4ZM1741.24 2412.59C1718.64 2411.65 1586.01 2443.79 1569.36 2454.31C1578.12 2466.07 1585.65 2478.78 1595.68 2489.11C1618.91 2513.02 1651.32 2517.45 1680.62 2501.12C1714.84 2482.04 1732.64 2451.49 1741.24 2412.59Z" fill="black"></path>
<path d="M1031.48 761.164C1026.48 812.32 1021.58 863.353 1016.49 914.366C1010.88 970.505 1004.95 1026.61 999.448 1082.76C993.319 1145.29 987.252 1207.83 981.647 1270.4C977.077 1321.49 972.658 1372.6 969.197 1423.77C963.962 1501.18 958.433 1578.59 955.167 1656.09C949.792 1783.63 946.544 1911.25 953.314 2038.85C956.915 2106.7 959.962 2174.68 966.781 2242.25C973.795 2311.72 984.67 2380.82 994.702 2449.96C1000.53 2490.14 971.585 2545.31 934.481 2561.76C911.048 2572.15 887.804 2569.97 865.139 2559.74C856.407 2555.79 848.263 2550.36 840.291 2544.97C669.065 2429.16 488.978 2329.31 298.448 2248.31C281.252 2241 263.972 2233.57 246.12 2228.19C227.972 2222.72 214.259 2212.15 201.832 2198.66C147.342 2139.49 117.057 2070.23 106.606 1990.48C80.6931 1792.77 75.1738 1594.19 79.254 1395.28C81.5582 1283.12 87.2222 1171 93.3556 1058.96C98.5491 964.231 105.687 869.576 113.632 775.027C122.169 673.458 132.601 572.041 142.319 470.573C146.048 431.644 149.487 392.674 154.16 353.852C158.219 320.123 170.964 289.188 191.626 262.24C200.011 251.308 211.524 242.337 222.816 234.102C242.717 219.58 265.046 219.101 287.299 227.94C297.357 231.934 306.788 237.895 315.809 243.975C488.858 360.555 670.58 461.411 863.259 542.427C877.513 548.421 891.822 554.552 906.597 558.993C923.894 564.195 937.814 573.836 950.427 586.148C988.066 622.884 1016.4 665.096 1027.1 717.191C1030.03 731.509 1030.09 746.411 1031.48 761.164ZM828.342 1240.95C809.505 1240.19 793.283 1237.38 777.688 1239.38C750.243 1242.91 740.346 1255.97 739.756 1283.61C739.536 1293.87 739.538 1304.14 739.443 1314.4C738.797 1383.18 732.594 1451.3 718.314 1518.77C708.364 1565.79 698.902 1613.07 692.815 1660.68C689.028 1690.28 688.662 1721.15 692.608 1750.68C698.593 1795.49 725.126 1805.78 764.245 1782.1C801.753 1759.38 819.827 1724.38 827.19 1682.83C835.963 1633.36 830.307 1584.28 821.184 1535.61C811.731 1485.21 800.294 1435.18 790.245 1384.88C786.374 1365.52 787.231 1345.86 787.134 1325.63C804.854 1326.27 817.356 1329.44 821.533 1346.97C822.929 1352.84 827.662 1358.22 831.719 1363.12C851.49 1387.05 876.924 1390.44 901.652 1371.97C918.405 1359.45 931.837 1343.91 939.249 1324.04C955.599 1280.18 926.052 1218.77 881.46 1203.66C858.921 1196.03 841.895 1203.94 833.471 1226.06C831.449 1231.38 829.761 1236.81 828.342 1240.95Z" fill="#FFE200"></path>
<path d="M1184.53 582.809C1191.27 580.024 1197 577.379 1202.92 575.254C1324.67 531.573 1449.51 500.161 1577.62 481.479C1645.99 471.511 1714.57 464.475 1783.64 461.517C1799.08 460.861 1807.21 465.705 1813.29 479.483C1827.77 512.283 1836.83 545.483 1833.07 581.966C1823.4 675.699 1814.65 769.524 1805.83 863.34C1797.49 952.068 1788.33 1040.74 1781.7 1129.6C1772.3 1255.55 1763.27 1381.57 1757.07 1507.7C1750.87 1633.93 1751.07 1760.36 1757.24 1886.65C1762.4 1992.35 1771.76 2097.72 1787.87 2202.4C1790.5 2219.52 1793.12 2236.64 1796.28 2253.66C1803.58 2292.94 1789.79 2327.11 1768.75 2358.59C1762.84 2367.42 1751.19 2374.02 1740.76 2378.02C1703.48 2392.34 1666.09 2406.67 1627.88 2418.15C1506.08 2454.73 1381.77 2481.1 1256.97 2505.15C1226 2511.12 1199.04 2497.59 1171.04 2485.14C1171.41 2479.45 1172.14 2474.48 1171.96 2469.55C1171.16 2447.86 1170.6 2426.14 1169.04 2404.5C1165.65 2357.82 1160.73 2311.24 1158.15 2264.52C1149.81 2113.9 1150.25 1963.12 1154.07 1812.43C1157.01 1696.42 1162.97 1580.46 1168.87 1464.54C1174.16 1360.8 1181.29 1257.15 1187.47 1153.45C1193.87 1045.92 1200.1 938.376 1206.39 830.838C1208.57 793.712 1210.14 756.541 1213.02 719.468C1216.43 675.498 1208.69 633.928 1189.09 594.435C1187.46 591.146 1186.38 587.583 1184.53 582.809Z" fill="#FFC100"></path>
<path d="M1177.99 574.999C1160.43 550.288 1140.56 531.317 1115.08 518.95C1105.82 514.456 1096.31 510.451 1086.84 506.393C963.486 453.513 844.653 391.597 727.019 327.422C651.249 286.08 576.457 242.974 501.257 200.596C494.577 196.831 488.156 192.618 479.844 187.526C491.449 165.553 507.659 149.702 529.399 140.306C551.248 130.862 573.51 122.022 596.253 115.041C683.287 88.3358 772.286 69.9945 862.216 56.1331C922.151 46.8941 982.301 39.1131 1043.16 40.5472C1058.58 40.9116 1074.25 41.9054 1089.26 45.098C1100.26 47.4381 1111.4 52.3564 1120.76 58.6512C1287.89 171.086 1463.47 268.264 1648.57 348.354C1666.3 356.024 1684.02 364.241 1702.52 369.511C1730.62 377.51 1751.35 394.822 1769.69 415.98C1777.04 424.464 1783.66 433.578 1789.62 444.468C1683.26 440.331 1578.83 446.199 1475.56 467.806C1372.06 489.456 1273.9 525.783 1177.99 574.999Z" fill="#FFEA2E"></path>
<path d="M998.655 2560.21C1008.29 2534.03 1012.61 2510.3 1010.02 2485.64C1007.15 2458.23 1004.01 2430.84 1001.78 2403.38C998.04 2357.38 993.978 2311.38 991.717 2265.3C985.07 2130.08 984.603 1994.75 987.553 1859.45C989.738 1759.47 993.534 1659.49 998.407 1559.59C1004.37 1437.29 1012.28 1315.09 1019.22 1192.85C1023.58 1116.04 1027.71 1039.22 1031.96 962.406C1036.14 886.867 1040.56 811.348 1044.41 735.797C1045.72 709.96 1041.23 684.702 1033.16 660.102C1030.98 653.499 1028.8 646.899 1026.05 638.573C1068.18 620.938 1110.48 607.936 1152.68 595.163C1154.87 596.549 1156.94 597.2 1157.95 598.604C1185.31 636.657 1202.71 678.396 1199.78 725.841C1196.86 773.149 1191.89 820.345 1187.23 867.532C1180.37 937.059 1172.78 1006.51 1165.88 1076.03C1158.47 1150.66 1151.15 1225.3 1144.45 1299.99C1139.64 1353.62 1135.16 1407.3 1131.88 1461.04C1126.65 1546.78 1120.14 1632.55 1118.56 1718.38C1116.59 1824.76 1117.79 1931.25 1120.19 2037.64C1121.56 2098.44 1126.4 2159.3 1132.69 2219.83C1139.38 2284.17 1149.13 2348.22 1158.68 2412.23C1161.16 2428.86 1161.16 2444.32 1152.44 2458.63C1142.47 2474.98 1132.5 2491.58 1120.33 2506.28C1113.26 2514.82 1102.67 2521.66 1092.29 2526.09C1065.05 2537.72 1037.07 2547.64 1009.36 2558.13C1007.11 2558.99 1004.57 2559.09 998.655 2560.21Z" fill="#FFC100"></path>
<path d="M1140.08 574.912C1099.19 593.727 1061.39 611.12 1022.04 629.226C1017.8 622.722 1013.99 617.003 1010.31 611.193C992.296 582.747 968.336 560.667 937.149 547.604C810.976 494.768 689.69 432.125 569.799 366.794C487.25 321.814 405.703 275.014 323.951 228.6C312.603 222.158 302.664 213.272 289.904 203.927C313.108 193.852 334.217 190.809 355.079 188.838C376.169 186.843 397.702 186.731 418.818 188.486C445.433 190.692 469.726 199.939 492.196 215.523C599.22 289.733 712.468 353.698 827.912 413.879C911.907 457.669 997.423 498.191 1086.79 530.293C1108.83 538.211 1122.8 556.217 1140.08 574.912Z" fill="#FFEA2E"></path>
<path d="M1053.84 2573.39C1067.12 2570.5 1077.61 2566.92 1088.31 2566.13C1121.05 2563.7 1143.53 2547.24 1158.09 2518.8C1159.82 2515.42 1161.84 2512.18 1163.94 2508.51C1184.35 2516.74 1204.29 2524.78 1225.79 2533.46C1217.5 2576.35 1198.08 2611.56 1155.54 2629.22C1129.83 2639.9 1104.91 2635.66 1083.51 2616.85C1070.83 2605.69 1061.33 2592.31 1053.84 2573.39Z" fill="#9BA0B3"></path>
<path d="M1741.24 2412.59C1732.64 2451.49 1714.84 2482.03 1680.62 2501.11C1651.32 2517.44 1618.92 2513.02 1595.68 2489.1C1585.65 2478.78 1578.12 2466.06 1569.36 2454.3C1586.01 2443.79 1718.65 2411.65 1741.24 2412.59Z" fill="#9BA0B3"></path>
<path d="M828.338 1240.94C829.757 1236.81 831.445 1231.37 833.466 1226.06C841.891 1203.94 858.917 1196.03 881.456 1203.66C926.048 1218.76 955.595 1280.17 939.245 1324.03C931.833 1343.91 918.401 1359.45 901.648 1371.96C876.92 1390.43 851.486 1387.05 831.715 1363.12C827.658 1358.21 822.925 1352.84 821.529 1346.96C817.352 1329.43 804.85 1326.27 787.13 1325.62C787.227 1345.85 786.37 1365.52 790.241 1384.88C800.29 1435.17 811.727 1485.21 821.179 1535.61C830.303 1584.27 835.959 1633.35 827.185 1682.83C819.823 1724.37 801.749 1759.38 764.241 1782.09C725.122 1805.78 698.589 1795.49 692.604 1750.68C688.658 1721.15 689.024 1690.27 692.811 1660.68C698.898 1613.07 708.36 1565.79 718.31 1518.77C732.59 1451.3 738.793 1383.17 739.439 1314.4C739.534 1304.13 739.532 1293.87 739.752 1283.61C740.342 1255.96 750.238 1242.91 777.684 1239.38C793.279 1237.37 809.501 1240.18 828.338 1240.94ZM855.959 1304.91C848.641 1287.36 835.895 1280.83 823.177 1274.86C803.696 1265.74 783.481 1259.55 761.431 1264.32C752.578 1266.24 747.797 1270.91 748.551 1280.36C749.366 1290.58 749.459 1300.89 750.741 1311.05C760.133 1385.43 758.499 1459.23 743.524 1533.01C732.31 1588.25 719.49 1643.41 716.837 1700C716.094 1715.87 716.902 1732.11 719.556 1747.75C722.557 1765.45 734.046 1769.18 749.35 1759.11C753.624 1756.3 757.513 1752.82 761.248 1749.3C777.633 1733.88 788.896 1714.96 793.816 1693.43C798.503 1672.93 801.754 1651.82 802.764 1630.84C805.781 1568.28 793.251 1507.06 784.888 1445.45C779.985 1409.32 777.473 1372.84 774.921 1336.44C774.241 1326.71 777.367 1316.72 778.588 1308C805.893 1318.37 829.553 1308.73 855.959 1304.91ZM825.191 1333.82C834.758 1353.33 849.377 1361.13 866.204 1357.54C889.729 1352.53 912.817 1326.92 913.278 1302.88C913.789 1276.23 904.495 1252.49 884.943 1233.89C865.751 1215.65 847.969 1220.93 838.5 1247.82C843.273 1251.29 848.414 1254.91 853.423 1258.71C868.037 1269.79 879.926 1283.03 885.263 1300.92C889.519 1315.19 884.94 1324.88 870.981 1329.71C863.834 1332.18 855.976 1332.95 848.358 1333.65C841.41 1334.3 834.355 1333.81 825.191 1333.82Z" fill="black"></path>
<path d="M855.958 1304.91C829.552 1308.73 805.892 1318.37 778.587 1308C777.366 1316.72 774.24 1326.71 774.92 1336.44C777.472 1372.84 779.984 1409.32 784.887 1445.45C793.251 1507.06 805.78 1568.28 802.763 1630.85C801.753 1651.82 798.502 1672.94 793.815 1693.43C788.895 1714.97 777.632 1733.88 761.247 1749.3C757.512 1752.82 753.623 1756.3 749.349 1759.11C734.045 1769.18 722.556 1765.45 719.555 1747.75C716.901 1732.11 716.093 1715.87 716.836 1700C719.489 1643.41 732.309 1588.25 743.523 1533.01C758.498 1459.24 760.132 1385.43 750.74 1311.05C749.458 1300.89 749.365 1290.59 748.55 1280.36C747.796 1270.91 752.577 1266.24 761.43 1264.33C783.48 1259.55 803.696 1265.74 823.176 1274.86C835.894 1280.83 848.64 1287.37 855.958 1304.91Z" fill="#9BA0B3"></path>
<path d="M825.195 1333.83C834.359 1333.81 841.414 1334.3 848.362 1333.65C855.98 1332.95 863.838 1332.19 870.985 1329.71C884.944 1324.89 889.523 1315.19 885.267 1300.92C879.93 1283.03 868.041 1269.79 853.428 1258.72C848.418 1254.92 843.277 1251.3 838.504 1247.82C847.973 1220.94 865.755 1215.65 884.947 1233.9C904.499 1252.49 913.793 1276.23 913.283 1302.88C912.821 1326.93 889.734 1352.53 866.208 1357.54C849.381 1361.13 834.762 1353.33 825.195 1333.83Z" fill="#8D8F9C"></path>
<path d="M954.47 2060.83C957.62 2121.37 960.696 2181.97 966.786 2242.24C973.796 2311.71 984.671 2380.82 994.699 2449.96C1000.53 2490.13 971.586 2545.3 934.479 2561.75C911.046 2572.14 887.809 2569.96 865.144 2559.73C856.405 2555.79 848.261 2550.36 840.289 2544.96C669.066 2429.15 488.976 2329.31 298.449 2248.31C281.254 2241 263.973 2233.57 246.124 2228.18C227.973 2222.71 214.264 2212.14 201.831 2198.65C147.343 2139.48 117.058 2070.23 106.607 1990.48C80.6945 1792.76 75.1716 1594.19 79.2554 1395.27C81.5596 1283.12 87.2236 1170.99 93.3606 1058.96C98.547 964.227 105.688 869.571 113.631 775.026C122.174 673.45 132.602 572.037 142.321 470.566C146.049 431.639 149.485 392.67 154.161 353.844C158.22 320.116 170.962 289.18 191.628 262.239C200.013 251.304 211.526 242.333 222.818 234.098C242.715 219.58 265.045 219.099 287.3 227.932C297.358 231.933 306.789 237.889 315.808 243.974C368.129 279.218 421.237 313.023 475.207 345.28C47.6125 970.061 269.083 2448.19 954.47 2060.83Z" fill="#FFCF00"></path>
</svg>