<svg width="2814" height="2466" viewBox="0 0 2814 2466" fill="none" xmlns="http://www.w3.org/2000/svg">
<path d="M949.317 5.8803e-05C953.899 0.853108 958.493 1.67969 963.068 2.5672C986.451 7.11177 1006.35 17.2686 1024.15 30.8104C1070.25 65.8709 1100.15 109.472 1115.88 160.52C1129.09 203.398 1131 247.02 1126.94 290.985C1126.01 301.169 1124.25 311.299 1123.27 321.484C1123.05 323.866 1123.61 326.898 1125.2 328.732C1160.31 369.264 1177.65 415.983 1189.57 464.705C1201.51 513.531 1206.94 562.844 1205.27 612.712C1203 680.384 1187.97 746.074 1163.62 810.295C1136.56 881.655 1099.23 949.038 1057.52 1014.73C1012.58 1085.48 962.653 1153.65 913.899 1222.43C891.465 1254.08 869.7 1286.09 847.162 1317.68C842.988 1323.54 842.743 1328.13 846.999 1333.65C851.277 1339.19 854.998 1345.05 859.679 1351.81C863.098 1348.94 865.676 1346.83 868.181 1344.67C909.391 1309.12 957.759 1284.55 1015.05 1274C1044.28 1268.62 1073.5 1268.38 1102.35 1276.28C1103.62 1276.63 1104.99 1276.72 1107.52 1277.13C1121.72 1257.94 1138.6 1240.24 1159.18 1225.29C1179.91 1210.22 1203.44 1199.62 1229.82 1192.2C1256.15 1201.54 1281.04 1223.68 1284.82 1242.09C1241.28 1260.46 1203.61 1286.6 1164.03 1312.44C1180.28 1331.01 1187.27 1351.97 1187.84 1374.09C1189.17 1374.8 1189.79 1375.41 1190.29 1375.35C1208 1373.17 1222.06 1379.34 1233.96 1389.9C1250.21 1404.32 1261.35 1421 1263.15 1441.56C1264.27 1454.39 1261.21 1466.56 1255.41 1478.27C1248.97 1491.31 1239.65 1502.75 1228.73 1513.26C1226.26 1515.65 1223.73 1517.99 1220.77 1520.78C1221.8 1523.37 1222.83 1526.08 1223.97 1528.74C1231.32 1545.97 1228.82 1562.19 1216.49 1576.99C1202.51 1593.77 1183.16 1603.37 1159.5 1605.85C1131.75 1608.76 1111.23 1594.59 1107.58 1570.67C1106.87 1566.06 1106.29 1561.43 1105.62 1556.81C1105.59 1556.64 1105.16 1556.5 1104.23 1555.93C1101.68 1557.84 1098.9 1559.83 1096.23 1561.93C1071.09 1581.76 1042.73 1596.8 1009.46 1603.94C960.797 1614.38 916.856 1605.34 877.847 1578.48C854.237 1562.22 835.626 1542.32 822.16 1518.92C821.259 1517.35 820.392 1515.76 819.401 1514.24C819.118 1513.81 818.451 1513.56 817.204 1512.72C804.57 1529.78 785.603 1539.26 761.699 1544.81C765.554 1547.07 767.832 1548.51 770.224 1549.8C781.658 1555.94 791.164 1563.73 797.319 1574.16C807.12 1590.74 806.511 1607.22 793.35 1622.04C776.897 1640.57 754.668 1651.87 728.101 1656.43C717.98 1658.16 708.675 1655.49 699.473 1650.19C698.598 1652.34 697.567 1654.07 697.207 1655.89C689.861 1692.73 681.798 1729.47 675.525 1766.44C668.024 1810.65 661.517 1854.99 655.612 1899.38C650.481 1937.97 646.206 1976.66 642.595 2015.37C637.572 2069.24 632.759 2123.14 629.215 2177.09C622.914 2273.1 619.812 2369.19 622.369 2465.37L622.38 2465.67H600.735C599.008 2194.36 627.067 1925.25 683.145 1656.88C657.146 1670.88 633.788 1671.4 612.325 1652.64C610.283 1653.05 609.267 1653.16 608.331 1653.45C554.205 1670.28 498.471 1680.61 441.096 1684.2C405.129 1686.46 369.355 1685.58 334.147 1678.09C310.518 1673.06 288.405 1665.13 270.256 1650.66C240.484 1626.93 231.879 1596.44 237.558 1563.43C244.349 1523.93 263.281 1487.93 287.771 1454.22C293.114 1446.87 300.172 1440.39 306.863 1433.83C309.53 1431.22 313.329 1429.47 316.614 1427.32C311.176 1435.19 304.472 1441.72 298.793 1448.85C278.105 1474.87 263.332 1503.25 254.265 1533.84C249.625 1549.51 247.231 1565.38 247.998 1581.56C249.933 1622.43 273.503 1650.21 318.045 1664.13C341.241 1671.37 365.388 1674.43 389.836 1674.21C415.533 1673.98 441.264 1672.82 466.879 1671.01C514.156 1667.67 560.961 1661.52 606.687 1650.23C611.471 1649.05 615.502 1648.96 620.114 1651.29C624.689 1653.61 630.019 1655.25 635.254 1656.12C652.221 1658.94 667.588 1656.15 679.968 1644.97C686.552 1639.03 689.308 1631.67 690.964 1623.71C692.184 1617.86 690.57 1612.98 686.731 1608.33C686.505 1608.05 687.05 1607.3 687.406 1606.27C705.779 1607.47 722.125 1597.97 740.536 1597.81C729.525 1607.79 715.397 1612.18 701.406 1614.97C701.406 1621.35 701.88 1626.61 701.296 1631.77C700.397 1639.7 701.496 1642.49 710.046 1644.76C715.06 1646.1 720.949 1646.98 725.936 1646.05C750.589 1641.44 771.424 1630.95 786.007 1612.89C794.952 1601.81 794.477 1589.79 786.445 1578.17C781.321 1570.75 774.105 1565.05 765.835 1560.3C751.509 1552.08 735.633 1547.32 718.793 1544.74C715.095 1544.17 711.424 1543.48 707.743 1542.84C721.653 1538.02 735.277 1538.79 748.966 1541.67C752.15 1542.34 755.966 1543.37 758.727 1542.48C775.756 1536.99 791.206 1529.34 802.074 1516.17C810.629 1505.8 815.041 1494.45 813.48 1481.58C810.652 1458.3 785.473 1443.87 759.805 1451.21C753.452 1453.03 747.158 1455.6 741.654 1458.86C733.596 1463.63 725.568 1468.73 718.746 1474.73C678.659 1509.95 649.816 1551.02 633.959 1598.65C633.32 1600.57 632.396 1602.42 632.077 1603.17C625.547 1604.61 619.939 1605.36 614.749 1607.05C575.396 1619.88 535.316 1630.31 493.467 1635.13C463.021 1638.64 432.703 1638.81 402.702 1632.32C338.606 1618.46 304.007 1572.99 314.756 1516.84C322.571 1476.01 346.895 1443.61 383.167 1417.34C384.091 1416.67 385.25 1416.24 386.405 1415.64C386.705 1416.38 386.962 1416.73 386.869 1416.83C384.908 1418.81 382.938 1420.8 380.908 1422.73C350.766 1451.5 331.303 1484.69 326.676 1523.53C321.509 1566.88 342.53 1606.51 401.059 1620.6C421.505 1625.52 442.358 1626.71 463.428 1626.06C517.752 1624.39 569.333 1610.71 621.407 1599.19C625.628 1598.26 627.333 1596.27 628.203 1592.64C639.711 1544.5 668.024 1504.28 707.252 1469.42C720.06 1458.04 734.596 1448.43 752.014 1442.68C756.208 1441.29 758.433 1438.82 760.253 1435.52C765.349 1426.3 770.577 1417.12 775.918 1407.99C815.18 1340.9 860.217 1276.66 905.829 1212.71C952.854 1146.78 1000.73 1081.29 1044.16 1013.5C1085.16 949.49 1122.04 883.855 1149.23 814.399C1173.07 753.47 1188.55 691.082 1192.39 626.779C1196.07 565.091 1188.88 504.254 1171.51 444.296C1162.01 411.51 1148.89 380.038 1127.88 351.306C1125.8 348.456 1123.46 345.747 1120.03 341.446C1116.17 356.488 1112.81 369.608 1109.45 382.731C1108.13 381.112 1107.86 379.655 1108.17 378.291C1114.09 351.892 1116.85 325.163 1118.67 298.384C1121.7 253.735 1117.35 209.611 1103.29 166.447C1087.46 117.815 1059.36 75.5208 1015 41.8792C1001.1 31.3274 985.72 22.9254 967.812 18.551C942.223 12.3061 917.467 13.3423 894.866 26.7189C880.155 35.4268 871.433 47.5396 869.499 63.0453C867.636 77.9815 872.734 91.438 881.901 103.764C891.588 116.791 901.802 129.531 911.959 142.297C947.935 187.522 984.032 232.681 1016.42 279.931C1032.29 303.076 1047.5 326.524 1058.9 351.643C1060.57 355.333 1061.82 359.164 1063.41 363.31C1055.79 363.343 1054.99 358.817 1053.33 355.213C1040.22 326.567 1023.04 299.774 1003.88 273.855C1000.54 269.349 996.627 266.679 990.522 265.545C970.6 261.848 950.55 259.393 930.145 259.465C927.985 259.475 925.832 259.898 922.964 260.205C929.791 276.776 938.148 291.995 943.36 308.781C941.677 308.254 940.781 308.213 940.573 307.863C939.172 305.553 937.83 303.206 936.639 300.808C919.047 265.286 898.731 231.003 874.137 198.684C850.426 167.527 823.674 138.603 790.466 114.471C770.655 100.072 749.134 88.0709 724.894 79.9231C690.292 68.2949 655.11 66.7318 619.381 75.5207C600.782 80.0919 585.585 88.8895 575.301 103.247C562.291 121.409 566.293 139.922 585.845 152.896C589.319 155.2 593.111 157.174 596.855 159.161C635.568 179.728 676.223 196.985 718.149 212.053C751.148 223.914 782.139 238.856 810.074 258.097C832.289 273.4 853.711 289.561 875.427 305.396C877.385 306.825 878.906 308.7 880.521 310.267C876.936 315.101 874.15 312.463 871.039 310.588C853.022 299.711 834.845 289.023 816.902 278.052C811.475 274.736 806.261 273.796 799.927 275.854C792.971 278.111 785.688 279.599 778.666 281.716C628.002 327.112 500.235 401.786 395.696 505.813C327.665 573.506 275.933 649.986 234.322 731.795C197.232 804.722 168.87 880.239 144.835 957.019C127.276 1013.13 110.302 1069.37 98.1952 1126.6C83.664 1195.31 73.0612 1264.5 65.4184 1334.02C59.0533 1391.89 53.066 1449.79 47.9322 1507.75C43.756 1554.93 40.464 1602.19 37.8959 1649.47C33.9268 1722.43 30.1416 1795.42 27.7082 1868.43C25.1118 1946.13 24.0794 2023.86 22.5511 2101.58C20.1735 2222.27 22.0087 2342.95 25.3431 2463.62C25.3622 2464.3 25.3971 2464.99 25.4512 2465.67H4.37614C4.37614 2464.27 4.35537 2462.92 4.2963 2461.58C-0.478928 2354.67 -0.79255 2247.7 1.02769 2140.76C2.65493 2045.22 5.96347 1949.71 9.30946 1854.2C11.0332 1804.85 13.8609 1755.51 17.2518 1706.22C21.7941 1640.32 26.9162 1574.43 32.6515 1508.6C36.8444 1460.54 41.796 1412.52 47.5362 1364.59C58.575 1272.47 71.1037 1180.46 94.1887 1089.92C123.234 976.008 158.242 863.507 209.446 755.237C245.153 679.73 289.181 608.173 345.726 542.601C404.872 474.011 474.979 415.256 556.808 366.986C559.815 365.211 562.735 363.331 565.44 360.068C562.654 360.068 559.867 359.991 557.082 360.078C536.042 360.744 515.04 360.319 494.547 355.803C486.444 354.018 478.297 351.433 471.055 347.873C454.161 339.563 449.553 326.174 458.53 311.252C462.36 304.883 467.626 298.85 473.505 293.751C493.7 276.229 518.563 266.001 546.557 261.692C574.278 257.427 602.173 255.16 630.429 257.454C661.343 259.963 690.226 267.531 715.862 282.769C722.682 286.818 727.953 286.782 735.2 284.297C750.9 278.909 767.021 274.427 782.96 269.56C785.764 268.706 788.537 267.777 793.324 266.245C788.978 263.918 786.12 262.192 783.062 260.788C738.867 240.46 694.657 220.146 650.41 199.9C630.977 191.009 611.335 182.45 592.004 173.392C584.909 170.064 577.947 166.234 571.793 161.752C550.939 146.564 545.196 124.611 556.447 103.139C567.109 82.7876 585.633 69.6751 609.917 62.8687C655.004 50.2345 699.279 52.3678 742.402 69.6219C775.216 82.7508 802.389 102.289 826.471 125.23C860.637 157.778 886.732 194.905 908.829 234.26C911.468 238.964 914.118 243.661 916.401 247.716C940.137 249.396 962.935 251.008 986.683 252.689C984.855 250.228 983.278 247.797 981.372 245.585C961.983 223.071 942.219 200.798 923.205 178.053C905.386 156.736 888.187 135.029 871.037 113.306C863.547 103.819 858.408 93.2798 855.93 81.9402C848.414 47.5784 868.989 16.8858 907.586 5.19658C915.17 2.8988 923.205 1.704 931.031 5.8803e-05C937.13 5.8803e-05 943.223 5.8803e-05 949.317 5.8803e-05ZM1068.88 1486.66C1064.61 1486.84 1061.65 1486.94 1058.7 1487.11C1011.38 1489.77 972.46 1474.55 941.764 1444.23C914.413 1417.22 913.812 1381.77 938.665 1353.1C956.016 1333.07 979.403 1320.1 1005.99 1310.93C1010.21 1309.47 1012.92 1310.34 1015.82 1312.95C1021.44 1318.01 1027.26 1322.91 1033.04 1327.83C1062.95 1353.28 1096.18 1374.59 1135.13 1388.76C1136.35 1389.2 1137.44 1389.9 1138.9 1390.64C1138.16 1414.51 1132.39 1437.15 1118.1 1457.03C1131.15 1457.98 1143.39 1458.86 1155.94 1459.77C1154.58 1454.44 1152.73 1448.89 1151.79 1443.21C1147.74 1418.62 1152.66 1396.66 1176.95 1380.42C1178.72 1379.23 1180.26 1376.51 1180.09 1374.61C1178.71 1358.88 1177.12 1343.1 1168.85 1328.63C1166.39 1324.33 1163.15 1320.36 1159.73 1315.47C1149.35 1322.61 1140.25 1328.86 1131.15 1335.12C1131.36 1335.77 1131.57 1336.41 1131.78 1337.05C1141.15 1338.08 1150.52 1339.12 1162.02 1340.38C1150.04 1345.03 1139.36 1346.14 1128.68 1346.11C1092.96 1346 1066.87 1315.56 1077.58 1285.89C1081.62 1293.75 1082.7 1302.2 1088.92 1309.81C1093.75 1300.63 1098 1292.57 1102.47 1284.08C1098.81 1283.16 1096.28 1282.37 1093.67 1281.89C1073.9 1278.21 1053.99 1278.25 1034.12 1281C982.685 1288.11 937.759 1307.5 897.783 1335.85C871.588 1354.42 849.907 1376.26 834.932 1402.71C825.632 1419.16 819.538 1436.4 819.031 1454.83C818.942 1458.22 819.425 1461.92 820.972 1464.98C825.299 1473.54 826.632 1482.33 825.74 1491.52C825.495 1494.1 825.252 1496.93 826.172 1499.31C832.242 1514.97 840.18 1530.38 853.918 1541.7C887.088 1569.02 927.145 1580.9 973.067 1575.45C1009.33 1571.15 1040.41 1556.86 1068.35 1536.95C1070.41 1535.48 1072.83 1534.37 1075.35 1532.94C1061.72 1517.87 1059.03 1503.1 1068.88 1486.66ZM1007.96 1314.32C997.368 1320 987.058 1324.95 977.486 1330.79C962.653 1339.86 950.515 1351.2 942.528 1365.48C929.282 1389.16 929.298 1420.54 957.233 1443.71C975.229 1458.63 996.08 1468.94 1020.21 1474.22C1033.81 1477.19 1047.71 1477.87 1061.49 1475.5C1098.86 1469.1 1130.44 1434.14 1130.08 1399.47C1078.85 1383.3 1041.42 1351.73 1007.96 1314.32ZM1212.06 1520.2C1214.89 1516.66 1217.04 1514.38 1218.66 1511.86C1226.18 1500.13 1234.38 1488.65 1240.78 1476.48C1247.7 1463.28 1250.29 1449.05 1248.06 1434.5C1244.68 1412.47 1230.37 1396.92 1208.25 1386.65C1195.49 1380.73 1183.72 1383.25 1175.16 1393.47C1170.87 1398.59 1167.42 1404.52 1165.12 1410.53C1159.52 1425.12 1157.89 1440.14 1160.35 1455.5C1161.23 1461 1163.39 1465.15 1168.48 1468.89C1180.64 1477.79 1188.21 1493.03 1187.63 1505.53C1184.54 1500.41 1181.98 1495.3 1178.56 1490.66C1155.03 1458.83 1108.17 1463.57 1086.43 1483.93C1076.2 1493.51 1072.42 1504.8 1078.87 1517.08C1086.97 1532.51 1100.62 1543.01 1119.82 1547.37C1126.97 1549 1134.44 1549.22 1141.94 1547.51C1143.09 1538.93 1142.7 1529.87 1153.43 1525.01C1155.66 1539.78 1157.79 1553.83 1160.04 1568.66C1149.45 1565.7 1147.17 1557.52 1143.23 1551.15C1133.28 1551.72 1123.93 1552.26 1113.67 1552.85C1115.56 1568.14 1121.01 1581.45 1136.31 1590.31C1143.56 1594.52 1151.9 1595.91 1160.59 1595.13C1193.68 1592.15 1222.66 1562.37 1220.37 1533.75C1219.95 1528.52 1219.9 1523.08 1212.06 1520.2ZM710.24 292.644C710.292 291.936 710.346 291.225 710.396 290.515C699.633 287.201 689.031 283.418 678.077 280.662C651.538 273.985 624.128 272.732 596.705 272.245C579.395 271.938 562.252 273.656 545.395 277.156C528.168 280.731 511.557 285.833 497.158 294.885C490.142 299.294 483.336 304.486 478.186 310.45C467.079 323.314 471.371 335.181 488.338 341.411C490.816 342.323 493.408 343.217 496.045 343.551C503.718 344.534 511.423 345.704 519.153 345.944C540.115 346.597 561.105 346.668 582.075 347.287C588.43 347.477 593.806 346.26 599.237 343.359C632.646 325.515 667.255 309.603 703.158 295.809C705.582 294.877 707.884 293.707 710.24 292.644ZM1274.57 1238.86C1271.03 1235.39 1268.48 1232.27 1265.24 1229.83C1254.32 1221.57 1242.9 1213.79 1232.17 1205.36C1225.99 1200.48 1220.96 1201.17 1214.23 1204.64C1178.4 1223.17 1147.78 1246.76 1122.14 1275.05C1111.97 1286.28 1103.4 1298.59 1094 1310.34C1091.28 1313.74 1091.63 1316.6 1094.57 1319.83C1099.7 1325.47 1105.86 1329.82 1113.49 1332.65C1122.05 1335.82 1122.38 1335.47 1128.99 1329.6C1145.71 1314.76 1162.13 1299.61 1179.77 1285.63C1199.77 1269.79 1222.28 1256.77 1247.38 1247.5C1255.73 1244.42 1264.44 1242.06 1274.57 1238.86ZM1078.56 1537.28C1055.77 1555.58 1030.28 1570.68 1000.34 1579.41C970.378 1588.16 939.99 1589.58 907.86 1581.66C909.649 1583.36 910.02 1583.9 910.562 1584.19C911.703 1584.81 912.915 1585.33 914.126 1585.85C940.467 1597.11 968.321 1600.23 997.12 1596.44C1035.83 1591.35 1068.41 1575.33 1097.23 1553.06C1098.55 1552.05 1099.37 1550.55 1100.29 1549.43C1092.9 1545.29 1086.14 1541.51 1078.56 1537.28ZM819.977 1402.68C830.589 1387.97 840.522 1374.21 850.516 1360.35C845.269 1353.31 839.884 1346.09 833.772 1337.88C824 1353.06 814.692 1367.51 805.163 1382.31C810.178 1389.2 814.938 1395.75 819.977 1402.68ZM806.448 1446.71C809.016 1437.7 811.899 1428.11 814.362 1418.45C814.794 1416.76 814.048 1414.38 812.853 1412.93C808.174 1407.26 803.092 1401.83 797.223 1395.27C788.804 1409.46 780.724 1423.06 772.827 1436.37C784.337 1439.91 795.006 1443.19 806.448 1446.71Z" fill="black"/>
<path d="M612.326 1652.64C633.789 1671.4 657.146 1670.88 683.146 1656.88C627.067 1925.25 599.009 2194.36 600.735 2465.67H25.4521C25.398 2464.99 25.3631 2464.3 25.3439 2463.62C22.0096 2342.95 20.1744 2222.27 22.552 2101.58C24.0802 2023.86 25.1127 1946.13 27.7091 1868.43C30.1425 1795.42 33.9277 1722.43 37.8968 1649.47C40.4649 1602.19 43.7569 1554.93 47.9331 1507.75C53.0669 1449.79 59.0542 1391.89 65.4192 1334.02C73.0621 1264.5 83.6649 1195.31 98.196 1126.6C110.303 1069.37 127.277 1013.13 144.836 957.019C168.871 880.238 197.233 804.722 234.323 731.795C275.934 649.986 327.666 573.506 395.697 505.813C500.236 401.786 628.003 327.112 778.667 281.716C785.689 279.599 792.972 278.111 799.928 275.854C806.262 273.796 811.476 274.736 816.903 278.052C834.846 289.023 853.023 299.711 871.04 310.588C874.15 312.463 876.937 315.101 880.522 310.267C878.906 308.7 877.386 306.825 875.428 305.396C853.712 289.561 832.29 273.399 810.075 258.097C782.14 238.856 751.148 223.914 718.15 212.053C676.224 196.985 635.569 179.728 596.856 159.16C593.112 157.174 589.32 155.2 585.846 152.895C566.294 139.922 562.292 121.409 575.302 103.247C585.586 88.8893 600.783 80.0917 619.382 75.5206C655.111 66.7316 690.292 68.2948 724.895 79.923C749.135 88.0707 770.656 100.072 790.467 114.471C823.675 138.603 850.427 167.526 874.138 198.684C898.732 231.003 919.048 265.286 936.64 300.808C937.831 303.206 939.172 305.553 940.573 307.863C940.781 308.213 941.677 308.254 943.361 308.781C938.149 291.995 929.792 276.776 922.965 260.205C925.833 259.898 927.986 259.475 930.145 259.465C950.551 259.393 970.601 261.848 990.523 265.545C996.628 266.678 1000.54 269.349 1003.88 273.855C1023.04 299.774 1040.22 326.566 1053.34 355.213C1054.99 358.816 1055.8 363.343 1063.41 363.31C1061.82 359.164 1060.57 355.333 1058.9 351.643C1047.5 326.524 1032.29 303.076 1016.42 279.931C984.033 232.681 947.936 187.522 911.96 142.297C901.803 129.531 891.589 116.791 881.901 103.764C872.735 91.4379 867.637 77.9814 869.5 63.0451C871.433 47.5394 880.156 35.4266 894.867 26.7188C917.468 13.3421 942.224 12.3059 967.813 18.5508C985.721 22.9252 1001.1 31.3272 1015 41.8791C1059.36 75.5207 1087.46 117.815 1103.29 166.447C1117.35 209.611 1121.7 253.735 1118.67 298.384C1116.85 325.163 1114.09 351.891 1108.17 378.291C1107.86 379.655 1108.13 381.112 1109.45 382.73C1112.81 369.608 1116.17 356.488 1120.03 341.446C1123.46 345.746 1125.8 348.455 1127.88 351.305C1148.89 380.038 1162.01 411.509 1171.51 444.296C1188.88 504.253 1196.07 565.091 1192.39 626.779C1188.55 691.082 1173.08 753.47 1149.23 814.398C1122.04 883.855 1085.16 949.49 1044.16 1013.5C1000.73 1081.29 952.855 1146.78 905.83 1212.71C860.218 1276.66 815.18 1340.9 775.919 1407.99C770.578 1417.12 765.35 1426.3 760.254 1435.52C758.434 1438.82 756.209 1441.29 752.014 1442.68C734.596 1448.43 720.06 1458.04 707.253 1469.42C668.025 1504.28 639.712 1544.5 628.204 1592.64C627.334 1596.27 625.629 1598.26 621.408 1599.19C569.334 1610.71 517.753 1624.39 463.429 1626.06C442.358 1626.71 421.506 1625.52 401.059 1620.6C342.531 1606.51 321.51 1566.88 326.677 1523.53C331.304 1484.69 350.766 1451.5 380.909 1422.73C382.939 1420.8 384.908 1418.81 386.87 1416.83C386.962 1416.73 386.705 1416.38 386.406 1415.64C385.25 1416.24 384.092 1416.67 383.168 1417.34C346.896 1443.61 322.572 1476.01 314.757 1516.84C304.008 1572.99 338.607 1618.46 402.703 1632.32C432.704 1638.81 463.022 1638.64 493.468 1635.13C535.316 1630.31 575.397 1619.88 614.75 1607.05C619.94 1605.36 625.548 1604.61 632.078 1603.17C632.397 1602.42 633.321 1600.57 633.96 1598.65C649.817 1551.02 678.66 1509.95 718.747 1474.73C725.569 1468.73 733.596 1463.63 741.654 1458.86C747.158 1455.6 753.453 1453.03 759.805 1451.21C785.474 1443.87 810.653 1458.3 813.481 1481.58C815.042 1494.45 810.63 1505.8 802.074 1516.17C791.207 1529.34 775.757 1536.99 758.728 1542.48C755.967 1543.37 752.151 1542.34 748.967 1541.67C735.278 1538.79 721.654 1538.02 707.744 1542.84C711.425 1543.48 715.096 1544.17 718.794 1544.74C735.634 1547.32 751.509 1552.08 765.836 1560.3C774.106 1565.05 781.322 1570.75 786.446 1578.17C794.478 1589.79 794.952 1601.81 786.008 1612.89C771.425 1630.95 750.59 1641.44 725.937 1646.05C720.95 1646.98 715.061 1646.1 710.047 1644.76C701.497 1642.49 700.398 1639.7 701.296 1631.77C701.881 1626.61 701.407 1621.35 701.407 1614.97C715.398 1612.18 729.526 1607.79 740.536 1597.81C722.126 1597.97 705.78 1607.47 687.407 1606.27C687.051 1607.3 686.506 1608.05 686.732 1608.33C690.571 1612.98 692.184 1617.86 690.965 1623.71C689.309 1631.67 686.553 1639.03 679.968 1644.97C667.589 1656.15 652.222 1658.94 635.255 1656.12C630.02 1655.25 624.69 1653.61 620.115 1651.29C615.503 1648.96 611.472 1649.05 606.688 1650.23C560.962 1661.52 514.157 1667.67 466.879 1671.01C441.265 1672.82 415.534 1673.98 389.837 1674.21C365.389 1674.43 341.242 1671.37 318.046 1664.13C273.504 1650.21 249.934 1622.43 247.998 1581.56C247.231 1565.38 249.626 1549.51 254.266 1533.84C263.333 1503.25 278.106 1474.87 298.794 1448.85C304.473 1441.72 311.177 1435.19 316.614 1427.32C313.33 1429.47 309.531 1431.22 306.864 1433.83C300.173 1440.39 293.115 1446.87 287.772 1454.22C263.282 1487.93 244.35 1523.93 237.559 1563.43C231.88 1596.44 240.485 1626.93 270.257 1650.66C288.406 1665.13 310.519 1673.06 334.148 1678.09C369.356 1685.58 405.13 1686.46 441.097 1684.2C498.472 1680.6 554.206 1670.28 608.332 1653.45C609.268 1653.16 610.284 1653.05 612.326 1652.64ZM456.171 1301.72C481.54 1301.84 505.997 1298.11 529.023 1288.62C539.802 1284.18 549.558 1278.45 557.253 1270.41C570.953 1256.1 572.487 1239.86 560.837 1224.26C556.479 1218.42 551.178 1212.92 545.325 1208.16C536.482 1200.97 527.311 1193.91 517.333 1187.97C491.898 1172.82 472.662 1153.45 459.663 1129.26C454.55 1119.73 448.813 1110.53 446.155 1100.12C444.111 1092.11 440.984 1084.11 433.78 1078.4C417.853 1065.77 399.208 1057.74 377.253 1057.45C348.981 1057.09 327.392 1068.65 310.757 1087.59C295.115 1105.4 287.448 1125.95 287.283 1148.04C286.897 1200.28 312.655 1242.49 358.339 1275.27C386.151 1295.23 420.416 1301.54 456.171 1301.72ZM1113.29 582.934C1112.48 582.703 1111.67 582.473 1110.86 582.244C1109.3 584.759 1107.83 587.324 1106.16 589.78C1102.56 595.054 1099.19 600.483 1095.11 605.47C1087.63 614.596 1077.18 618.513 1064.26 617.098C1060.58 616.691 1056.95 615.95 1053.3 615.305C1043.02 613.479 1035.6 609.642 1030.37 600.585C1018.76 580.464 997.109 570.482 972.794 573.843C928.648 579.943 895.775 599.676 878.036 636.042C869.346 653.851 866.5 672.618 867.464 691.788C867.991 702.226 869.464 712.631 870.561 723.537C856.952 724.754 842.965 724.754 827.859 730.36C838.647 732.091 846.948 733.358 855.213 734.768C874.511 738.06 893.443 742.356 911.077 750.158C933.843 760.233 949.806 775.296 957.133 796.747C957.645 798.257 958.531 799.674 960.206 803.09C963.25 791.372 960.67 781.756 959.529 772.165C992.595 765.721 1012.6 747.266 1026.63 722.963C1035.46 707.668 1040.82 691.436 1043.11 674.463C1044.02 667.654 1044.74 660.819 1045.65 653.139C1049.26 655.317 1051.87 657.053 1054.67 658.55C1063.2 663.125 1072.3 664.499 1081.83 661.301C1097.62 656.001 1106.2 644.937 1112.67 632.079C1109.23 632.749 1106.47 634.2 1103.6 635.446C1097.27 638.193 1091.11 641.405 1084.47 643.412C1068.27 648.301 1047.92 639.94 1041.66 626.243C1041.09 624.994 1041.29 623.485 1041.13 622.03C1049.07 625.465 1056.24 629.425 1064.07 631.768C1080.29 636.63 1095.39 632.15 1104.16 620.426C1112.78 608.901 1113.97 596.035 1113.29 582.934ZM910.101 1096.43C938.98 1092.9 959.649 1079.52 974.735 1059.66C998.215 1028.73 1007.53 994.671 1002.72 957.86C1001.96 952.055 1000.55 946.315 999.302 939.84C1004.18 942.301 1007.8 944.477 1011.74 946.048C1022.22 950.221 1032.91 950.579 1042.76 944.998C1058.61 936.03 1063.45 921.861 1066.09 906.758C1062.78 908.627 1060.49 911.124 1057.81 913.257C1051.61 918.186 1045.74 923.591 1038.8 927.605C1028.35 933.65 1017.44 932.431 1005.6 926.677C1010.35 925.651 1013.64 925.046 1016.86 924.23C1024.59 922.274 1030.86 918.491 1035.49 912.761C1045.31 900.603 1045.13 877.788 1034.72 864.672C1032.91 871.865 1031.56 878.749 1029.44 885.449C1023.39 904.581 1012.61 911.9 989.667 913.282C984.667 913.579 980.522 912.761 976.569 909.891C965.434 901.794 952.261 898.197 937.901 899.27C889.597 902.877 854.455 922.985 835.483 962.12C825.515 982.675 822.711 1004.37 824.392 1026.53C824.781 1031.66 825.095 1036.79 825.486 1042.61C810.774 1042.71 797.105 1042.32 781.452 1046.35C791.54 1048.64 799.307 1050.36 807.045 1052.17C826.679 1056.77 845.925 1062.22 863.5 1071.34C886.054 1083.06 901.156 1099.47 906.611 1122.03C906.894 1123.19 907.708 1124.25 908.273 1125.36C911.947 1115.95 911.417 1106.74 910.101 1096.43ZM703.874 728.998C687.956 736.075 675.377 745.552 671.762 760.887C667.357 779.589 680.266 791.248 696.641 800.852C688.666 806.556 681.584 805.146 675.717 800.389C671.42 796.906 667.517 792.499 665.261 787.846C662.699 782.572 661.931 776.599 660.813 770.869C659.884 766.069 659.575 761.186 658.884 755.477C642.49 775.444 644.504 797.932 663.327 814.832C663.238 815.113 663.249 815.501 663.037 815.657C660.719 817.342 658.389 819.017 656.022 820.645C641.461 830.652 630.227 842.917 622.683 857.609C612.881 876.69 609.327 896.801 611.149 917.471C612.248 929.907 614.871 942.236 616.871 955.02C603.883 957.298 589.994 958.127 575.106 964.355C582.063 965.143 586.657 965.755 591.276 966.172C613.856 968.212 636.239 970.968 657.5 978.366C682.318 987.001 700.285 1001.43 709.335 1023.55C709.88 1024.88 711.158 1025.99 712.095 1027.2C712.798 1027.01 713.502 1026.81 714.205 1026.62C712.863 1017.2 711.519 1007.79 710.146 998.185C715.797 996.097 721.541 994.359 726.875 991.935C747.217 982.702 760.706 967.921 770.104 950.294C785.364 921.668 789.866 891.602 784.232 860.509C781.706 846.56 776.745 833.24 767.472 821.386C756.818 807.761 742.412 799.188 723.027 798.647C715.887 798.447 710.72 796.304 706.265 791.992C702.893 788.732 699.249 785.615 696.368 782.052C690.493 774.789 687.902 766.659 690.967 757.966C693.516 750.739 696.849 743.714 699.952 736.641C701.093 734.037 702.556 731.544 703.874 728.998Z" fill="#FF0000"/>
<path d="M1068.88 1486.65C1059.03 1503.1 1061.72 1517.87 1075.35 1532.93C1072.83 1534.37 1070.41 1535.48 1068.35 1536.95C1040.42 1556.85 1009.33 1571.14 973.068 1575.45C927.147 1580.9 887.09 1569.01 853.919 1541.69C840.181 1530.38 832.243 1514.97 826.173 1499.3C825.253 1496.93 825.496 1494.1 825.741 1491.52C826.633 1482.32 825.3 1473.54 820.973 1464.98C819.426 1461.92 818.943 1458.21 819.032 1454.83C819.539 1436.39 825.633 1419.15 834.933 1402.71C849.908 1376.26 871.589 1354.42 897.784 1335.84C937.76 1307.5 982.686 1288.11 1034.13 1280.99C1053.99 1278.25 1073.9 1278.21 1093.68 1281.89C1096.28 1282.37 1098.81 1283.16 1102.47 1284.08C1098 1292.56 1093.75 1300.63 1088.92 1309.81C1082.7 1302.2 1081.62 1293.75 1077.58 1285.89C1066.87 1315.55 1092.96 1346 1128.69 1346.11C1139.36 1346.14 1150.04 1345.02 1162.02 1340.38C1150.52 1339.11 1141.15 1338.08 1131.78 1337.05C1131.57 1336.41 1131.36 1335.76 1131.15 1335.12C1140.25 1328.86 1149.35 1322.61 1159.74 1315.47C1163.16 1320.36 1166.4 1324.33 1168.85 1328.63C1177.12 1343.1 1178.71 1358.87 1180.09 1374.61C1180.26 1376.5 1178.73 1379.22 1176.95 1380.41C1152.66 1396.66 1147.74 1418.62 1151.8 1443.21C1152.73 1448.88 1154.58 1454.44 1155.94 1459.77C1143.39 1458.86 1131.15 1457.98 1118.1 1457.03C1132.39 1437.15 1138.16 1414.51 1138.91 1390.64C1137.44 1389.9 1136.35 1389.2 1135.14 1388.76C1096.18 1374.59 1062.95 1353.28 1033.04 1327.83C1027.26 1322.91 1021.44 1318.01 1015.82 1312.95C1012.92 1310.33 1010.21 1309.47 1005.99 1310.93C979.404 1320.09 956.018 1333.07 938.666 1353.09C913.813 1381.77 914.414 1417.22 941.765 1444.23C972.461 1474.54 1011.38 1489.76 1058.7 1487.1C1061.65 1486.94 1064.61 1486.84 1068.88 1486.65ZM961.708 1498.72C961.755 1473.28 938.329 1452.72 909.254 1452.69C880.299 1452.66 856.525 1473.32 856.433 1498.59C856.343 1523.7 880.272 1544.65 909.09 1544.7C938.003 1544.75 961.661 1524.08 961.708 1498.72Z" fill="#63F4D5"/>
<path d="M1007.96 1314.32C1041.42 1351.73 1078.85 1383.29 1130.08 1399.47C1130.44 1434.14 1098.86 1469.1 1061.49 1475.5C1047.71 1477.86 1033.81 1477.19 1020.21 1474.21C996.082 1468.94 975.23 1458.63 957.235 1443.71C929.3 1420.54 929.283 1389.16 942.529 1365.48C950.516 1351.2 962.654 1339.85 977.487 1330.79C987.059 1324.94 997.369 1319.99 1007.96 1314.32Z" fill="white"/>
<path d="M1212.06 1520.2C1219.9 1523.08 1219.95 1528.52 1220.37 1533.75C1222.66 1562.37 1193.68 1592.14 1160.59 1595.13C1151.9 1595.91 1143.57 1594.51 1136.31 1590.31C1121.01 1581.45 1115.56 1568.13 1113.67 1552.84C1123.93 1552.25 1133.28 1551.71 1143.24 1551.14C1147.18 1557.51 1149.45 1565.7 1160.04 1568.66C1157.79 1553.83 1155.66 1539.77 1153.43 1525.01C1142.7 1529.87 1143.09 1538.93 1141.94 1547.51C1134.44 1549.22 1126.98 1549 1119.82 1547.37C1100.62 1543 1086.97 1532.5 1078.87 1517.08C1072.42 1504.8 1076.2 1493.5 1086.43 1483.92C1108.17 1463.56 1155.03 1458.82 1178.56 1490.65C1181.99 1495.29 1184.54 1500.41 1187.63 1505.53C1188.21 1493.03 1180.64 1477.79 1168.48 1468.89C1163.39 1465.15 1161.24 1461 1160.35 1455.5C1157.89 1440.14 1159.52 1425.11 1165.12 1410.53C1167.42 1404.52 1170.87 1398.59 1175.16 1393.46C1183.72 1383.25 1195.49 1380.73 1208.25 1386.65C1230.38 1396.91 1244.68 1412.47 1248.06 1434.49C1250.29 1449.05 1247.71 1463.28 1240.78 1476.47C1234.38 1488.65 1226.18 1500.13 1218.66 1511.85C1217.04 1514.38 1214.89 1516.65 1212.06 1520.2Z" fill="#FF0000"/>
<path d="M710.241 292.646C707.885 293.709 705.583 294.879 703.159 295.811C667.256 309.605 632.647 325.517 599.238 343.361C593.807 346.262 588.43 347.479 582.075 347.29C561.106 346.671 540.116 346.6 519.154 345.946C511.424 345.706 503.719 344.536 496.046 343.553C493.409 343.219 490.817 342.325 488.339 341.413C471.372 335.183 467.08 323.317 478.187 310.453C483.337 304.488 490.143 299.296 497.159 294.887C511.558 285.836 528.168 280.733 545.396 277.159C562.252 273.658 579.396 271.94 596.705 272.247C624.129 272.734 651.538 273.988 678.077 280.664C689.031 283.42 699.634 287.203 710.397 290.517C710.347 291.227 710.293 291.938 710.241 292.646Z" fill="#DE0F0C"/>
<path d="M1274.57 1238.86C1264.44 1242.05 1255.73 1244.42 1247.38 1247.5C1222.28 1256.77 1199.77 1269.79 1179.77 1285.63C1162.13 1299.61 1145.71 1314.76 1128.99 1329.59C1122.38 1335.46 1122.05 1335.82 1113.49 1332.65C1105.86 1329.82 1099.7 1325.47 1094.57 1319.83C1091.63 1316.6 1091.28 1313.74 1094 1310.34C1103.4 1298.58 1111.97 1286.28 1122.14 1275.05C1147.78 1246.76 1178.4 1223.16 1214.23 1204.64C1220.96 1201.16 1225.99 1200.48 1232.17 1205.35C1242.9 1213.79 1254.32 1221.57 1265.24 1229.83C1268.48 1232.27 1271.03 1235.39 1274.57 1238.86Z" fill="#E6E6E6"/>
<path d="M1078.56 1537.28C1086.14 1541.51 1092.9 1545.29 1100.29 1549.43C1099.37 1550.55 1098.55 1552.05 1097.23 1553.07C1068.41 1575.33 1035.83 1591.35 997.12 1596.44C968.322 1600.23 940.467 1597.11 914.126 1585.85C912.916 1585.34 911.704 1584.81 910.562 1584.19C910.02 1583.9 909.65 1583.36 907.86 1581.66C939.991 1589.58 970.378 1588.16 1000.34 1579.41C1030.28 1570.68 1055.77 1555.58 1078.56 1537.28Z" fill="#63C0A9"/>
<path d="M819.978 1402.67C814.939 1395.75 810.179 1389.2 805.164 1382.31C814.693 1367.51 824.001 1353.06 833.774 1337.88C839.886 1346.08 845.27 1353.31 850.517 1360.35C840.523 1374.2 830.59 1387.97 819.978 1402.67Z" fill="#FF0000"/>
<path d="M456.171 1301.72C420.415 1301.54 386.151 1295.22 358.338 1275.27C312.655 1242.49 286.896 1200.27 287.283 1148.04C287.448 1125.95 295.115 1105.4 310.757 1087.59C327.392 1068.65 348.981 1057.09 377.253 1057.45C399.208 1057.74 417.852 1065.77 433.779 1078.4C440.984 1084.11 444.11 1092.11 446.155 1100.11C448.813 1110.53 454.55 1119.73 459.663 1129.26C472.662 1153.45 491.897 1172.82 517.333 1187.96C527.311 1193.9 536.482 1200.97 545.324 1208.16C551.178 1212.92 556.479 1218.42 560.837 1224.26C572.486 1239.86 570.953 1256.1 557.252 1270.41C549.558 1278.45 539.802 1284.18 529.023 1288.62C505.997 1298.11 481.54 1301.84 456.171 1301.72ZM299.958 1140.62C303.333 1140.62 305.97 1140.6 308.604 1140.62C354.576 1140.98 390.771 1172.57 390.822 1212.33C390.846 1229.44 384.7 1245.05 375.483 1259.92C373.744 1262.72 371.952 1265.49 369.686 1269.06C375.088 1271.6 379.932 1274.2 385.078 1276.23C416.777 1288.81 450.155 1291.33 484.351 1287.87C500.222 1286.26 515.557 1282.68 529.89 1276.35C539.66 1272.03 548.248 1266.45 554.72 1258.69C562.608 1249.22 563.417 1239.29 556.875 1229.06C551.225 1220.23 542.995 1213.43 533.576 1206.98C530.548 1209.46 527.925 1211.67 525.218 1213.8C512.447 1223.87 497.524 1228.45 480.375 1225.68C463.655 1222.98 450.935 1215.14 444.938 1201.04C439.363 1187.93 444.052 1176.4 454.39 1166.26C455.645 1165.02 456.809 1163.72 458.993 1161.42C452.322 1163.01 447.268 1164.56 442.061 1165.39C429.219 1167.44 417.909 1164.68 408.643 1156.5C388.811 1138.99 390.351 1098.34 422.899 1086.1C424.603 1085.46 426.191 1084.58 428.959 1083.27C409.6 1071.21 389.658 1065.22 367.066 1068.84C330.941 1074.64 302.09 1105.34 299.958 1140.62ZM300.322 1146.07C292.226 1181.75 329.302 1248.63 365.231 1265.14C366 1263.91 367.118 1262.76 367.485 1261.45C371.023 1249.01 375.843 1236.69 377.611 1224.05C382.328 1190.31 358.095 1159.29 320.442 1149.48C314.091 1147.82 307.366 1147.23 300.322 1146.07ZM433.065 1086.46C412.581 1093.65 402.22 1120.55 406.33 1134.87C412.072 1154.86 440.625 1164.62 460.675 1152.93C458.012 1146.64 455.135 1140.43 452.746 1134.08C448.799 1123.57 445.422 1112.9 441.297 1102.45C439.168 1097.05 435.947 1091.97 433.065 1086.46ZM467.094 1160.85C459.833 1167.99 456.609 1173.6 454.821 1181.61C451.949 1194.44 458.788 1206.2 472.487 1211.96C489.03 1218.92 514.404 1215.1 528.098 1203.34C508.098 1189.08 484.244 1179.04 467.094 1160.85Z" fill="black"/>
<path d="M1113.29 582.934C1113.97 596.036 1112.78 608.902 1104.16 620.427C1095.39 632.151 1080.29 636.631 1064.07 631.769C1056.24 629.426 1049.07 625.466 1041.13 622.031C1041.29 623.486 1041.09 624.994 1041.66 626.244C1047.92 639.941 1068.27 648.302 1084.47 643.413C1091.11 641.406 1097.27 638.194 1103.6 635.447C1106.47 634.201 1109.23 632.749 1112.67 632.08C1106.2 644.938 1097.62 656.002 1081.83 661.302C1072.3 664.5 1063.2 663.126 1054.67 658.551C1051.87 657.054 1049.26 655.318 1045.65 653.14C1044.74 660.82 1044.02 667.655 1043.11 674.463C1040.82 691.437 1035.46 707.669 1026.63 722.964C1012.6 747.267 992.595 765.722 959.529 772.166C960.67 781.757 963.25 791.373 960.206 803.091C958.531 799.675 957.644 798.258 957.133 796.748C949.806 775.297 933.843 760.234 911.077 750.159C893.443 742.357 874.511 738.061 855.213 734.769C846.948 733.359 838.647 732.092 827.859 730.36C842.965 724.755 856.952 724.755 870.561 723.537C869.464 712.632 867.991 702.227 867.464 691.789C866.5 672.619 869.346 653.852 878.036 636.042C895.774 599.677 928.648 579.944 972.794 573.844C997.109 570.483 1018.76 580.465 1030.37 600.586C1035.6 609.643 1043.02 613.48 1053.3 615.306C1056.95 615.95 1060.58 616.692 1064.26 617.099C1077.18 618.513 1087.63 614.597 1095.11 605.471C1099.19 600.484 1102.56 595.055 1106.16 589.781C1107.83 587.325 1109.3 584.76 1110.86 582.244C1111.67 582.474 1112.48 582.704 1113.29 582.934ZM957.097 767.784C966.327 765.61 973.322 761.647 979.804 756.929C989.223 750.067 996.717 741.795 1002.78 732.584C1021.12 704.688 1029.25 674.561 1027.92 642.631C1027.38 629.44 1024.51 616.482 1016.64 604.797C1006.61 589.871 990.749 583.433 971.178 586.818C939.043 592.378 915.244 608.107 898.857 632.316C886.518 650.549 880.373 670.505 878.319 691.415C877.262 702.145 876.634 712.927 878.96 724.044C912.497 728.309 941.293 738.812 957.097 767.784Z" fill="black"/>
<path d="M910.1 1096.43C911.416 1106.74 911.946 1115.94 908.273 1125.36C907.707 1124.25 906.893 1123.19 906.61 1122.03C901.155 1099.47 886.054 1083.06 863.499 1071.34C845.924 1062.22 826.679 1056.77 807.044 1052.17C799.307 1050.36 791.539 1048.64 781.451 1046.35C797.105 1042.32 810.773 1042.71 825.486 1042.6C825.094 1036.79 824.78 1031.66 824.392 1026.53C822.71 1004.37 825.514 982.674 835.482 962.118C854.454 922.984 889.596 902.875 937.901 899.269C952.26 898.196 965.433 901.792 976.568 909.889C980.521 912.759 984.666 913.578 989.666 913.281C1012.61 911.898 1023.39 904.579 1029.43 885.448C1031.56 878.747 1032.91 871.863 1034.72 864.67C1045.13 877.786 1045.31 900.602 1035.49 912.759C1030.85 918.489 1024.59 922.273 1016.86 924.229C1013.64 925.045 1010.35 925.65 1005.6 926.676C1017.44 932.43 1028.35 933.649 1038.8 927.604C1045.74 923.59 1051.61 918.184 1057.81 913.256C1060.48 911.123 1062.78 908.625 1066.09 906.757C1063.45 921.86 1058.61 936.029 1042.76 944.996C1032.91 950.578 1022.22 950.219 1011.74 946.047C1007.8 944.476 1004.18 942.299 999.301 939.839C1000.55 946.313 1001.96 952.053 1002.72 957.858C1007.53 994.669 998.214 1028.73 974.734 1059.66C959.649 1079.52 938.979 1092.9 910.1 1096.43ZM908.44 1091.84C920.986 1089.46 930.67 1084.52 938.411 1077.51C946.537 1070.16 954.425 1062.32 960.613 1053.73C978.662 1028.66 987.59 1000.93 989.357 971.553C990.187 957.73 988.387 944.067 981.608 931.282C973.463 915.937 959.794 908.794 940.349 909.645C935.979 909.838 931.581 910.392 927.322 911.264C898.123 917.217 876.102 931.878 860.094 953.427C843.653 975.563 835.519 1000.09 833.454 1026.17C833.008 1031.86 833.392 1037.6 833.392 1043.49C867.534 1049.81 894.951 1062.57 908.44 1091.84Z" fill="black"/>
<path d="M703.873 728.995C702.555 731.542 701.093 734.035 699.951 736.638C696.848 743.711 693.516 750.736 690.967 757.963C687.901 766.657 690.493 774.786 696.368 782.049C699.249 785.613 702.892 788.729 706.265 791.99C710.719 796.301 715.886 798.444 723.027 798.644C742.411 799.185 756.818 807.758 767.472 821.383C776.745 833.237 781.706 846.557 784.232 860.506C789.865 891.6 785.363 921.665 770.103 950.291C760.706 967.918 747.217 982.699 726.875 991.932C721.541 994.356 715.796 996.095 710.146 998.183C711.519 1007.78 712.863 1017.2 714.205 1026.61C713.502 1026.81 712.797 1027.01 712.094 1027.2C711.158 1025.99 709.88 1024.88 709.335 1023.54C700.284 1001.43 682.317 986.998 657.499 978.364C636.238 970.966 613.856 968.209 591.276 966.17C586.656 965.752 582.062 965.14 575.106 964.352C589.993 958.124 603.883 957.295 616.87 955.018C614.87 942.233 612.248 929.904 611.149 917.468C609.326 896.798 612.88 876.688 622.683 857.606C630.227 842.914 641.461 830.649 656.021 820.642C658.389 819.014 660.718 817.339 663.037 815.654C663.249 815.499 663.237 815.11 663.326 814.829C644.503 797.929 642.489 775.441 658.884 755.474C659.574 761.184 659.884 766.066 660.813 770.866C661.93 776.596 662.699 782.569 665.26 787.843C667.517 792.496 671.42 796.903 675.717 800.386C681.583 805.143 688.666 806.553 696.64 800.85C680.266 791.245 667.357 779.586 671.762 760.884C675.377 745.549 687.955 736.072 703.873 728.995ZM706.908 993.787C722.482 988.474 733.379 979.372 741.437 968.044C768.503 929.982 776.756 888.817 765.769 845.204C763.675 836.9 758.416 828.913 753.184 821.536C747.904 814.101 739.365 809.501 729.052 808.394C726.34 808.106 722.76 808.564 720.701 809.934C711.467 816.091 700.9 818.69 689.611 818.993C683.831 819.151 679.23 820.734 674.757 823.618C657.766 834.571 645.586 848.756 637.231 865.398C624.999 889.746 621.023 915.318 623.02 941.665C623.364 946.2 624.395 950.698 625.098 955.142C659.723 957.214 688.791 966.05 706.908 993.787Z" fill="black"/>
<path d="M961.707 1498.73C961.659 1524.08 938.002 1544.75 909.088 1544.7C880.271 1544.65 856.342 1523.7 856.432 1498.59C856.523 1473.32 880.297 1452.66 909.253 1452.69C938.328 1452.72 961.754 1473.28 961.707 1498.73ZM909.402 1534.8C932.409 1534.7 951.052 1518.18 950.684 1498.22C950.308 1478.12 931.463 1462.14 908.444 1462.41C885.834 1462.67 867.945 1478.65 867.931 1498.61C867.914 1518.98 886.157 1534.9 909.402 1534.8Z" fill="black"/>
<path d="M299.959 1140.62C302.091 1105.34 330.941 1074.64 367.067 1068.84C389.658 1065.22 409.601 1071.21 428.96 1083.27C426.191 1084.58 424.604 1085.46 422.899 1086.1C390.351 1098.34 388.811 1138.99 408.643 1156.51C417.909 1164.69 429.219 1167.44 442.062 1165.39C447.269 1164.56 452.323 1163.01 458.994 1161.42C456.81 1163.72 455.645 1165.03 454.391 1166.26C444.052 1176.4 439.364 1187.93 444.938 1201.04C450.936 1215.15 463.656 1222.98 480.376 1225.68C497.524 1228.45 512.447 1223.87 525.219 1213.8C527.926 1211.67 530.549 1209.46 533.576 1206.98C542.995 1213.43 551.226 1220.23 556.876 1229.06C563.417 1239.29 562.609 1249.22 554.72 1258.69C548.249 1266.45 539.661 1272.03 529.891 1276.35C515.558 1282.69 500.222 1286.27 484.351 1287.87C450.155 1291.33 416.777 1288.81 385.078 1276.24C379.933 1274.2 375.089 1271.6 369.686 1269.06C371.952 1265.49 373.744 1262.72 375.483 1259.92C384.701 1245.05 390.846 1229.44 390.823 1212.33C390.771 1172.57 354.577 1140.98 308.604 1140.62C305.97 1140.6 303.334 1140.62 299.959 1140.62Z" fill="#C61914"/>
<path d="M300.321 1146.07C307.365 1147.24 314.09 1147.82 320.441 1149.48C358.095 1159.29 382.328 1190.31 377.611 1224.05C375.842 1236.69 371.022 1249.01 367.485 1261.45C367.117 1262.76 366 1263.91 365.23 1265.14C329.301 1248.63 292.225 1181.75 300.321 1146.07Z" fill="#E496CF"/>
<path d="M433.065 1086.46C435.947 1091.98 439.168 1097.05 441.297 1102.45C445.422 1112.9 448.799 1123.57 452.746 1134.08C455.135 1140.43 458.012 1146.65 460.675 1152.94C440.625 1164.62 412.072 1154.86 406.33 1134.87C402.22 1120.55 412.581 1093.66 433.065 1086.46Z" fill="white"/>
<path d="M467.094 1160.85C484.245 1179.04 508.098 1189.07 528.098 1203.34C514.404 1215.1 489.03 1218.92 472.487 1211.96C458.788 1206.2 451.95 1194.44 454.821 1181.61C456.609 1173.6 459.833 1167.99 467.094 1160.85Z" fill="white"/>
<path d="M957.096 767.779C941.294 738.812 912.493 728.31 878.959 724.045C876.63 712.926 877.264 702.144 878.316 691.411C880.372 670.505 886.516 650.546 898.858 632.315C915.245 608.105 939.04 592.377 971.18 586.819C990.748 583.431 1006.61 589.87 1016.65 604.796C1024.51 616.481 1027.38 629.439 1027.92 642.628C1029.25 674.558 1021.12 704.685 1002.78 732.584C996.719 741.799 989.222 750.066 979.803 756.928C973.323 761.646 966.326 765.609 957.096 767.779ZM706.906 993.787C688.792 966.052 659.723 957.217 625.1 955.144C624.397 950.699 623.363 946.202 623.02 941.666C621.022 915.323 625.001 889.748 637.232 865.402C645.585 848.757 657.763 834.576 674.756 823.619C679.232 820.737 683.832 819.153 689.61 818.998C700.897 818.693 711.471 816.094 720.703 809.936C722.757 808.567 726.34 808.109 729.049 808.396C739.364 809.503 747.903 814.105 753.181 821.541C758.418 828.915 763.677 836.902 765.771 845.206C776.756 888.82 768.504 929.984 741.439 968.047C733.381 979.376 722.481 988.474 706.906 993.787ZM908.437 1091.84C894.948 1062.57 867.536 1049.81 833.39 1043.49C833.39 1037.6 833.007 1031.86 833.453 1026.17C835.519 1000.09 843.655 975.564 860.097 953.427C876.102 931.881 898.124 917.216 927.319 911.262C931.581 910.391 935.981 909.839 940.346 909.644C959.794 908.797 973.46 915.938 981.61 931.281C988.387 944.065 990.186 957.727 989.356 971.554C987.59 1000.93 978.662 1028.66 960.61 1053.73C954.425 1062.32 946.537 1070.16 938.41 1077.51C930.67 1084.52 920.987 1089.46 908.437 1091.84Z" fill="white"/>
<path d="M909.403 1534.8C886.158 1534.9 867.915 1518.98 867.932 1498.61C867.946 1478.66 885.835 1462.67 908.445 1462.41C931.464 1462.14 950.308 1478.12 950.685 1498.22C951.053 1518.18 932.41 1534.7 909.403 1534.8Z" fill="#B4D5D5"/>
<path d="M957.097 767.779C941.294 738.812 912.494 728.31 878.96 724.045C876.631 712.926 877.265 702.144 878.316 691.411C879.316 681.267 881.276 671.346 884.438 661.735C888.766 687.64 904.571 709.486 929.958 719.985C956.305 730.881 987.228 727.18 1014.03 712.557C1010.83 719.352 1007.09 726.03 1002.78 732.584C996.719 741.799 989.223 750.066 979.804 756.928C973.324 761.646 966.327 765.609 957.097 767.779ZM706.906 993.787C688.793 966.052 659.723 957.217 625.1 955.144C624.397 950.699 623.364 946.202 623.02 941.666C621.506 921.718 623.423 902.211 629.751 883.342C633.443 910.356 649.444 933.302 675.66 944.145C701.768 954.945 732.367 951.403 758.999 937.108C754.475 947.631 748.62 957.949 741.439 968.047C733.381 979.376 722.481 988.474 706.906 993.787ZM908.437 1091.84C894.949 1062.57 867.537 1049.81 833.391 1043.49C833.391 1037.6 833.008 1031.86 833.454 1026.17C834.793 1009.26 838.689 992.999 845.741 977.622C848.403 1006.27 864.646 1030.87 892.084 1042.22C916.703 1052.4 945.32 1049.83 970.836 1037.52C967.824 1043.03 964.419 1048.44 960.61 1053.73C954.425 1062.32 946.537 1070.16 938.411 1077.51C930.671 1084.52 920.988 1089.46 908.437 1091.84Z" fill="#E9E9CF"/>
<path d="M946.864 1073.99C956.867 1058.63 949.65 1037.42 930.743 1026.61C911.841 1015.8 888.407 1019.49 878.403 1034.85C868.403 1050.21 875.62 1071.43 894.524 1082.23C913.427 1093.04 936.86 1089.36 946.864 1073.99Z" fill="black"/>
<path d="M924.774 1080.53C928.498 1074.81 925.812 1066.92 918.775 1062.89C911.741 1058.87 903.018 1060.24 899.296 1065.96C895.573 1071.68 898.259 1079.57 905.296 1083.59C912.33 1087.62 921.053 1086.24 924.774 1080.53Z" fill="white"/>
<path d="M741.264 975.927C751.267 960.566 744.049 939.352 725.146 928.544C706.242 917.738 682.806 921.426 672.805 936.785C662.801 952.147 670.02 973.36 688.924 984.169C707.827 994.977 731.263 991.289 741.264 975.927Z" fill="black"/>
<path d="M719.174 982.463C722.895 976.745 720.21 968.85 713.175 964.825C706.138 960.803 697.418 962.178 693.694 967.893C689.97 973.611 692.659 981.506 699.693 985.528C706.73 989.552 715.45 988.178 719.174 982.463Z" fill="white"/>
<path d="M991.956 748.653C1001.96 733.292 994.738 712.078 975.835 701.27C956.932 690.462 933.498 694.15 923.495 709.511C913.494 724.873 920.712 746.086 939.615 756.894C958.519 767.702 981.953 764.014 991.956 748.653Z" fill="black"/>
<path d="M969.864 755.187C973.588 749.47 970.902 741.575 963.865 737.553C956.831 733.53 948.108 734.902 944.384 740.62C940.663 746.337 943.349 754.232 950.386 758.255C957.42 762.277 966.143 760.905 969.864 755.187Z" fill="white"/>
<path d="M209.631 2465.67H25.4524C25.3984 2464.98 25.3651 2464.3 25.3443 2463.62C22.0124 2342.95 20.1772 2222.28 22.5523 2101.58C24.0806 2023.86 25.113 1946.13 27.7069 1868.43C30.1428 1795.42 33.9255 1722.43 37.8971 1649.47C40.4627 1602.19 43.7597 1554.93 47.9334 1507.74C53.0672 1449.79 59.0545 1391.89 65.417 1334.02C73.0624 1264.5 83.6628 1195.31 98.1981 1126.6C110.301 1069.37 127.277 1013.13 144.836 957.022C168.871 880.236 197.231 804.72 234.325 731.793C275.931 649.985 327.668 573.506 395.695 505.813C500.236 401.786 628.006 327.114 778.667 281.716C785.692 279.599 792.972 278.113 799.928 275.854C806.265 273.794 811.476 274.737 816.9 278.05C823.777 282.255 830.689 286.413 837.61 290.562C202.372 425.715 39.6275 1269.5 209.631 2465.67Z" fill="#DE0F0C"/>
<path d="M1007.96 1314.32C1011.92 1318.74 1015.93 1323.08 1020.01 1327.32C1015.83 1329.54 1011.74 1331.81 1007.78 1334.23C992.947 1343.29 980.81 1354.64 972.82 1368.91C959.577 1392.6 959.591 1423.97 987.528 1447.14C1004.69 1461.38 1024.46 1471.42 1047.19 1476.89C1038.14 1477.12 1029.11 1476.16 1020.21 1474.22C996.081 1468.94 975.227 1458.63 957.235 1443.71C929.297 1420.54 929.285 1389.16 942.529 1365.48C950.519 1351.2 962.654 1339.85 977.487 1330.79C987.061 1324.94 997.372 1320 1007.96 1314.32Z" fill="#B4E1D7"/>
<path d="M966.464 1377.99L978.611 1385.86C976.283 1388.54 975.168 1391.15 975.267 1393.67C975.366 1396.2 976.489 1398.35 978.628 1400.12C980.929 1402.03 983.711 1402.87 986.985 1402.66C990.244 1402.44 993.309 1401.05 996.187 1398.46C998.897 1396.03 1000.3 1393.46 1000.37 1390.79C1000.45 1388.11 999.403 1385.87 997.224 1384.06C995.793 1382.87 993.814 1381.71 991.289 1380.54L1001.27 1373.71C1004.22 1376.29 1007.16 1377.62 1010.1 1377.73C1013.03 1377.85 1015.62 1376.9 1017.86 1374.88C1019.75 1373.18 1020.67 1371.34 1020.64 1369.34C1020.59 1367.36 1019.6 1365.57 1017.65 1363.95C1015.73 1362.36 1013.45 1361.58 1010.82 1361.61C1008.17 1361.64 1005.49 1362.64 1002.72 1364.61L994.109 1354.55C998.259 1352.07 1002.07 1350.5 1005.58 1349.86C1009.07 1349.22 1012.71 1349.46 1016.48 1350.55C1020.23 1351.64 1023.74 1353.53 1026.96 1356.2C1032.47 1360.76 1035.19 1365.94 1035.13 1371.74C1035.09 1376.51 1033.33 1380.47 1029.83 1383.61C1024.89 1388.06 1018.12 1389.3 1009.54 1387.28C1012.2 1390.68 1013.33 1394.28 1012.94 1398.12C1012.53 1401.95 1010.64 1405.4 1007.24 1408.45C1002.3 1412.89 996.203 1415.12 988.978 1415.14C981.75 1415.16 975.345 1412.86 969.756 1408.23C964.471 1403.85 961.545 1398.9 961.014 1393.37C960.455 1387.84 962.271 1382.72 966.464 1377.99ZM1011.95 1415.68L1024.1 1423.55C1021.77 1426.24 1020.66 1428.84 1020.75 1431.37C1020.85 1433.89 1021.97 1436.04 1024.11 1437.81C1026.41 1439.72 1029.2 1440.56 1032.47 1440.35C1035.73 1440.13 1038.8 1438.74 1041.67 1436.15C1044.39 1433.72 1045.79 1431.16 1045.86 1428.48C1045.93 1425.8 1044.89 1423.56 1042.71 1421.75C1041.28 1420.57 1039.3 1419.4 1036.78 1418.23L1046.76 1411.4C1049.7 1413.98 1052.65 1415.31 1055.59 1415.42C1058.52 1415.54 1061.1 1414.59 1063.34 1412.58C1065.24 1410.87 1066.16 1409.03 1066.12 1407.04C1066.08 1405.05 1065.09 1403.26 1063.14 1401.64C1061.22 1400.05 1058.94 1399.27 1056.31 1399.31C1053.66 1399.33 1050.97 1400.34 1048.21 1402.3L1039.59 1392.24C1043.74 1389.76 1047.56 1388.19 1051.07 1387.55C1054.56 1386.92 1058.2 1387.15 1061.97 1388.24C1065.72 1389.34 1069.22 1391.23 1072.44 1393.89C1077.95 1398.45 1080.68 1403.63 1080.62 1409.43C1080.58 1414.2 1078.82 1418.16 1075.32 1421.3C1070.37 1425.75 1063.6 1426.99 1055.03 1424.97C1057.69 1428.37 1058.81 1431.98 1058.42 1435.81C1058.02 1439.64 1056.13 1443.09 1052.72 1446.15C1047.79 1450.58 1041.69 1452.81 1034.47 1452.83C1027.24 1452.86 1020.83 1450.56 1015.24 1445.93C1009.96 1441.54 1007.03 1436.59 1006.5 1431.06C1005.94 1425.53 1007.76 1420.42 1011.95 1415.68Z" fill="#231F20"/>
<path d="M2813.11 1060.84C2811.95 1068 2811.06 1075.21 2809.58 1082.32C2800.36 1126.64 2784.12 1168.93 2759.07 1208.47C2742.84 1234.1 2725.5 1259.2 2708.83 1284.63C2687.64 1316.96 2668.3 1350.03 2655.05 1385.55C2631.84 1447.76 2632.23 1510.18 2651.77 1572.96C2663.29 1609.98 2679.17 1645.7 2694.53 1681.58C2710.37 1718.58 2725.34 1755.81 2734.97 1794.48C2745.5 1836.77 2749.8 1879.4 2743.66 1922.48C2735.23 1981.55 2709.45 2034.55 2667.61 2081.78C2627.34 2127.24 2577 2162.72 2520.57 2192.13C2485.74 2210.28 2449.3 2225.68 2411.61 2238.89C2408.2 2240.09 2404.83 2241.35 2400.9 2242.78C2407.2 2293.42 2415.5 2343.36 2428.14 2392.71C2434.44 2417.34 2441.74 2441.72 2450.93 2465.67H2439C2429.93 2434.73 2420.89 2404.23 2413.14 2373.48C2402.68 2331.98 2394.57 2290.03 2385.4 2248.13C2361.01 2254.37 2337.09 2260.5 2311.62 2267.03C2321.76 2334.56 2334.34 2401.33 2358.63 2465.67H2345.51C2324.87 2401.46 2309.22 2336.15 2296.8 2269.65C2279.68 2272.19 2263.53 2274.59 2246.2 2277.16C2255.22 2341.58 2268.08 2404.76 2291.57 2465.67H2278.69C2258.78 2403.9 2243.81 2341.76 2231.69 2279.19C2204.49 2280.21 2178.59 2281.18 2151.46 2282.2C2158.97 2345.15 2173.01 2406.39 2196.53 2465.67H2185.23C2181.52 2453.98 2177.9 2442.32 2174.51 2430.6C2167.39 2405.96 2160.86 2381.18 2154.82 2356.32C2148.85 2331.77 2143.82 2307.04 2138.24 2281.77C2131.55 2281.21 2124.9 2280.58 2118.23 2280.11C1946.68 2268.03 1804.47 2204.44 1689.17 2095.59C1596.34 2007.96 1539.36 1904.69 1516.49 1787.54C1499.88 1702.43 1505.19 1618.17 1530.13 1534.72C1531.05 1531.63 1531.93 1528.53 1533.14 1524.32C1526.08 1523.55 1519.56 1522.83 1513.03 1522.13C1488.36 1519.51 1464.48 1514.41 1441.86 1505.33C1404.28 1490.23 1377.23 1466.34 1361.9 1433.01C1359.22 1427.17 1355.79 1424.27 1348.27 1423.56C1337.45 1422.55 1327.26 1419.14 1318.11 1413.82C1300.13 1403.36 1294.32 1387.62 1302.15 1370.18C1303.86 1366.37 1305.58 1363.13 1303.03 1358.72C1288.34 1333.32 1287.41 1306.86 1297.81 1280.36C1314.22 1238.6 1345.74 1207.64 1391.05 1187.34C1405.63 1180.8 1421.25 1177.2 1437.97 1177.9C1463.89 1179 1480.22 1191.08 1485.1 1212.99C1488.43 1227.9 1486.62 1242.75 1483.43 1257.4C1478.5 1280.07 1472.44 1302.56 1467.63 1325.24C1465.08 1337.27 1462.8 1349.54 1462.75 1361.71C1462.63 1390.48 1478.74 1411.22 1508.56 1423.7C1526.95 1431.41 1546.85 1432.9 1567.02 1432.51C1570.49 1432.45 1572.85 1431.4 1574.12 1428.59C1574.36 1428.05 1574.74 1427.56 1575.04 1427.03C1609.26 1366.19 1653.66 1311.09 1703.58 1259.28C1829.25 1128.86 1976.02 1019.74 2146.73 935.206C2214.16 901.814 2284.75 874.454 2359.88 856.459C2410.01 844.45 2460.97 836.943 2513.18 838.225C2584.97 839.986 2651.83 857.242 2714.06 887.884C2735.07 898.226 2753.56 911.48 2769.43 927.331C2790.73 948.599 2804.16 973.15 2810.35 1000.69C2811.44 1005.51 2812.2 1010.39 2813.11 1015.25C2813.11 1030.45 2813.11 1045.64 2813.11 1060.84ZM1519.54 1677.65C1519.46 1759.35 1534.44 1832.45 1564.47 1899.9C1620.95 2026.79 1714.67 2127.58 1849.44 2198.84C1931.02 2241.99 2019.83 2266.88 2115.24 2273.72C2170.89 2277.71 2226.21 2274.86 2280.93 2265.27C2382.94 2247.39 2476.41 2212.44 2559.46 2158.08C2634.19 2109.17 2687.21 2046.6 2712.62 1967.98C2734.67 1899.78 2734.07 1831.23 2714.51 1762.64C2703.63 1724.52 2687.03 1688.11 2670.02 1651.82C2655.81 1621.5 2641.49 1591.22 2631.32 1559.62C2617.51 1516.74 2613.64 1473.49 2624.19 1429.61C2632.02 1397.03 2645.91 1366.38 2664.15 1337.19C2686.8 1300.93 2709.78 1264.83 2732.63 1228.68C2751.97 1198.06 2767.74 1166.16 2779.45 1132.76C2792.96 1094.24 2802.66 1055.27 2798.93 1014.64C2795.57 978.005 2779.69 946.27 2749.09 920.33C2735.48 908.786 2720.31 898.958 2703.54 891.193C2645.07 864.118 2582.67 848.899 2516.25 847.177C2461.28 845.753 2407.77 854.102 2355.18 867.347C2276.71 887.108 2203.51 917.137 2133.39 952.969C2008.8 1016.64 1897.57 1094.88 1796.89 1184.47C1732.85 1241.45 1674.64 1302.49 1625.63 1369.86C1554.82 1467.19 1521.28 1573.73 1519.54 1677.65ZM1362.56 1426C1364.65 1429.48 1366.17 1432.3 1367.98 1434.97C1385.32 1460.37 1409.57 1479.27 1440.25 1492.1C1464.53 1502.25 1490.31 1508.02 1516.87 1511.45C1523.42 1512.3 1530.03 1512.78 1535.98 1513.37C1546.86 1487.63 1557.24 1463.07 1567.99 1437.65C1563.42 1437.65 1559.76 1437.58 1556.1 1437.66C1540.44 1437.97 1525 1436.67 1510.02 1432.55C1474.38 1422.74 1451.64 1396.46 1451.74 1364.2C1451.78 1352.88 1452.94 1341.41 1455.23 1330.26C1459.95 1307.28 1465.9 1284.49 1471.08 1261.58C1474.39 1246.93 1476.55 1232.15 1474.34 1217.18C1471.7 1199.35 1459.21 1189.51 1438.56 1188.67C1428.21 1188.25 1418.22 1189.77 1408.79 1193.15C1361.56 1210.07 1327.17 1238.45 1308.07 1279.62C1297.48 1302.43 1297.26 1325.76 1307.64 1348.9C1308.54 1350.91 1309.88 1352.78 1311.86 1356.16C1314.17 1353.5 1315.41 1351.74 1317.01 1350.28C1337.5 1331.54 1358.74 1329.86 1382.81 1345.09C1394.69 1352.61 1404.12 1362.14 1412.5 1372.48C1413.67 1373.92 1414.23 1375.72 1415.07 1377.36C1411.13 1375.87 1408.52 1373.62 1405.82 1371.45C1395.14 1362.85 1383.9 1354.9 1370.22 1350.03C1348.77 1342.41 1331.93 1347.15 1319.79 1364.17C1304.61 1385.46 1310.15 1402.54 1336.81 1412.34C1348.81 1416.76 1362.01 1418.74 1374.67 1421.82C1376.67 1422.3 1378.69 1422.72 1380.7 1423.17C1380.62 1423.69 1380.53 1424.22 1380.44 1424.75C1374.92 1425.14 1369.4 1425.52 1362.56 1426Z" fill="black"/>
<path d="M1519.54 1677.65C1521.28 1573.73 1554.82 1467.19 1625.63 1369.86C1674.64 1302.49 1732.86 1241.46 1796.89 1184.47C1897.57 1094.89 2008.8 1016.64 2133.39 952.971C2203.51 917.139 2276.71 887.11 2355.18 867.348C2407.77 854.104 2461.28 845.754 2516.25 847.179C2582.67 848.901 2645.07 864.12 2703.54 891.195C2720.31 898.96 2735.48 908.787 2749.09 920.332C2779.69 946.272 2795.57 978.007 2798.93 1014.64C2802.66 1055.27 2792.96 1094.24 2779.45 1132.76C2767.74 1166.16 2751.97 1198.06 2732.63 1228.68C2709.78 1264.84 2686.8 1300.93 2664.15 1337.19C2645.91 1366.38 2632.02 1397.03 2624.19 1429.62C2613.64 1473.49 2617.51 1516.74 2631.32 1559.62C2641.49 1591.22 2655.81 1621.5 2670.02 1651.82C2687.03 1688.11 2703.63 1724.52 2714.51 1762.65C2734.07 1831.23 2734.67 1899.78 2712.62 1967.98C2687.21 2046.6 2634.19 2109.17 2559.46 2158.08C2476.41 2212.45 2382.94 2247.39 2280.93 2265.27C2226.21 2274.87 2170.89 2277.71 2115.24 2273.72C2019.83 2266.88 1931.02 2241.99 1849.44 2198.85C1714.67 2127.58 1620.95 2026.79 1564.47 1899.91C1534.44 1832.45 1519.46 1759.35 1519.54 1677.65ZM2240.16 1823.56C2247.74 1827.23 2254.89 1831.88 2262.95 1834.39C2309.21 1848.84 2356.98 1856.23 2406.26 1854.9C2423.24 1854.44 2439.89 1851.69 2455.55 1845.56C2478.46 1836.59 2492.8 1821.55 2497.39 1800.19C2498.98 1792.8 2499.28 1785.08 2499.03 1777.53C2498.4 1758.92 2492.78 1741.15 2484.77 1723.99C2457.31 1665.13 2414.91 1615.45 2359.53 1573.98C2349.6 1566.55 2338.35 1560.42 2327.59 1553.84C2324.97 1552.24 2321.86 1551.26 2318.98 1549.99C2319.34 1552.25 2320.46 1553.52 2321.82 1554.52C2343.64 1570.38 2363.25 1588.15 2381.81 1606.78C2414.8 1639.89 2444.66 1674.88 2466.55 1714.51C2475.33 1730.41 2482.02 1746.88 2485.1 1764.39C2490.98 1797.73 2474.24 1822.37 2437.36 1833.6C2428.8 1836.2 2419.8 1838.05 2410.83 1839.29C2371.92 1844.65 2333.2 1841.47 2294.55 1836.75C2275.71 1834.45 2257.69 1829.56 2239.99 1823.71C2230.21 1810.74 2217.37 1800.51 2201.74 1793.08C2180.02 1782.75 2158.09 1783.03 2137.23 1794.59C2112.48 1808.3 2096.12 1828.11 2085.54 1851.52C2083.95 1855.02 2081.89 1857.4 2078.39 1859.5C2070.07 1864.51 2061.73 1869.56 2054.01 1875.21C2039.95 1885.49 2028.06 1897.42 2019.93 1911.86C2004.07 1940.02 2012.2 1965.24 2043.38 1981.02C2054.65 1986.73 2067.08 1991.15 2079.57 1994.53C2160.61 2016.49 2225.81 1978.66 2255.58 1933.03C2260.01 1926.25 2262.98 1918.76 2266.92 1911.03C2269.31 1911.54 2271.9 1911.94 2274.38 1912.63C2337.97 1930.16 2402.88 1934.69 2468.93 1926.99C2497.65 1923.65 2525.22 1916.8 2550.14 1903.54C2584.17 1885.43 2604.09 1859.15 2610.31 1825.12C2615.36 1797.46 2611.6 1770.33 2602.73 1743.68C2581.71 1680.54 2542.55 1626.56 2489.95 1579.58C2472.49 1563.98 2453.27 1550.15 2431.63 1538.98C2429.36 1537.81 2426.84 1537 2422.92 1535.41C2424.08 1537.4 2424.17 1537.72 2424.4 1537.91C2425.38 1538.71 2426.37 1539.5 2427.41 1540.24C2496.96 1589.87 2547.79 1651.27 2581.3 1723.4C2591.42 1745.19 2597.62 1767.91 2598.49 1791.55C2600.19 1837.79 2578.08 1872.36 2530.25 1893.72C2517.43 1899.45 2503.62 1903.84 2489.8 1907.55C2462.19 1914.96 2433.58 1917.67 2404.78 1919.03C2372.29 1920.57 2339.79 1920.58 2307.52 1916.62C2293.27 1914.87 2279.29 1911.42 2265.14 1908.73C2260.2 1915.69 2255.66 1923.58 2249.55 1930.41C2228.37 1954.07 2201.38 1971.19 2168.79 1981.54C2145.72 1988.87 2122.05 1990.76 2097.9 1986.56C2077.99 1983.09 2059.96 1975.84 2044.02 1965.06C2027.21 1953.69 2022.87 1939.02 2031.41 1922.18C2034.37 1916.36 2038.23 1910.66 2042.86 1905.75C2049.46 1898.76 2056.67 1892.07 2064.49 1886.1C2088.8 1867.54 2116.5 1853.59 2146.48 1843.03C2163.14 1837.15 2180.2 1832.5 2198.43 1832.01C2201.46 1831.92 2204.46 1831.28 2207.47 1830.92C2210.06 1830.6 2212.64 1830.31 2215.22 1830.01C2175.84 1826.35 2138.65 1833.27 2102.48 1846.78C2116.02 1829.05 2130.33 1812.23 2153.51 1803.32C2163.91 1799.32 2174.89 1798.31 2186.29 1800.27C2203.3 1803.19 2217.94 1810.21 2231.81 1818.78C2234.53 1820.46 2237.37 1821.97 2240.16 1823.56ZM2247.52 1203.09C2251.93 1201.81 2255.01 1200.74 2258.19 1200.02C2318.46 1186.27 2367.71 1157.46 2407.65 1116.82C2457.16 1066.43 2482.24 1008.31 2477.93 941.682C2477.48 934.742 2476.19 927.705 2474.05 921.004C2466.9 898.59 2448.66 886.451 2421.67 885.225C2403.83 884.415 2386.54 886.951 2369.74 891.763C2295.53 913.033 2233.43 949.413 2185.24 1002.87C2152.79 1038.87 2128.54 1078.22 2119.51 1123.73C2119.19 1125.33 2118.04 1126.81 2117.37 1128.17C2106.03 1129.27 2094.81 1127.25 2084.7 1132.09C2104.98 1131.75 2124.48 1134.94 2143.44 1140.74C2175.67 1150.6 2200.97 1168.68 2222.6 1191C2240.26 1209.21 2254.77 1229.27 2268.8 1249.62C2270.74 1252.44 2272.83 1255.18 2274.85 1257.96C2275.43 1257.68 2276 1257.39 2276.57 1257.11C2268.81 1238.84 2259.15 1221.29 2247.52 1203.09ZM2549.3 1315.5C2546.96 1311.38 2545.72 1308.7 2543.99 1306.27C2540.46 1301.32 2537.3 1296.01 2532.87 1291.71C2518.95 1278.2 2497.85 1277.82 2483.92 1291.26C2477.95 1297.01 2473.22 1304.07 2469.47 1311.14C2460.09 1328.83 2455.74 1347.8 2453.6 1367.04C2452.89 1373.46 2449.97 1376.78 2443.32 1379.35C2408.46 1392.82 2372.02 1401.28 2334.29 1405.83C2331.77 1406.13 2329.16 1405.86 2326.47 1405.86C2325.39 1401.33 2324.82 1397.55 2323.56 1393.95C2320.55 1385.31 2318.07 1376.43 2313.82 1368.25C2307.42 1355.95 2296.41 1348.38 2279.96 1348C2262.45 1347.59 2247.44 1352.05 2239.06 1366.1C2234.18 1374.3 2231.23 1383.42 2228.01 1392.29C2226.22 1397.2 2225.65 1402.44 2224.34 1408.4C2206.64 1407.03 2189.57 1405.71 2172.5 1404.39C2175.86 1406.67 2179.38 1407.6 2182.97 1408.09C2206.69 1411.29 2230.32 1415.21 2254.16 1417.35C2298.92 1421.37 2343.46 1419.44 2387.07 1409.14C2437.77 1397.15 2483.6 1377.32 2521.92 1345.57C2539.27 1331.2 2556.87 1317.06 2571.47 1300.48C2575.01 1296.46 2577.95 1292.04 2581.17 1287.81C2580.65 1287.5 2580.13 1287.19 2579.6 1286.88C2569.9 1296.05 2560.19 1305.22 2549.3 1315.5Z" fill="#FF8300"/>
<path d="M1362.56 1426C1369.4 1425.52 1374.93 1425.13 1380.44 1424.74C1380.53 1424.22 1380.62 1423.69 1380.7 1423.17C1378.69 1422.72 1376.67 1422.3 1374.67 1421.81C1362.01 1418.74 1348.81 1416.75 1336.81 1412.34C1310.15 1402.54 1304.61 1385.46 1319.79 1364.17C1331.93 1347.15 1348.77 1342.4 1370.22 1350.03C1383.91 1354.9 1395.14 1362.85 1405.82 1371.45C1408.52 1373.62 1411.13 1375.86 1415.07 1377.36C1414.23 1375.72 1413.67 1373.91 1412.5 1372.47C1404.12 1362.13 1394.69 1352.6 1382.81 1345.09C1358.74 1329.86 1337.5 1331.54 1317.01 1350.28C1315.41 1351.74 1314.17 1353.5 1311.86 1356.15C1309.88 1352.77 1308.54 1350.9 1307.64 1348.89C1297.26 1325.76 1297.48 1302.42 1308.07 1279.62C1327.17 1238.45 1361.56 1210.07 1408.79 1193.15C1418.22 1189.77 1428.21 1188.24 1438.56 1188.66C1459.21 1189.5 1471.7 1199.34 1474.34 1217.18C1476.55 1232.15 1474.39 1246.92 1471.08 1261.57C1465.9 1284.49 1459.95 1307.28 1455.23 1330.26C1452.94 1341.41 1451.78 1352.88 1451.74 1364.2C1451.64 1396.46 1474.38 1422.74 1510.02 1432.55C1525 1436.67 1540.44 1437.97 1556.1 1437.66C1559.76 1437.58 1563.42 1437.64 1567.99 1437.64C1557.25 1463.06 1546.86 1487.63 1535.98 1513.37C1530.03 1512.78 1523.42 1512.29 1516.87 1511.45C1490.31 1508.01 1464.53 1502.25 1440.25 1492.1C1409.57 1479.27 1385.32 1460.37 1367.98 1434.96C1366.17 1432.3 1364.65 1429.47 1362.56 1426Z" fill="#FF8300"/>
<path d="M2311.63 2267.03C2337.09 2260.5 2361.01 2254.37 2385.4 2248.13C2394.57 2290.03 2402.68 2331.98 2413.14 2373.48C2420.89 2404.23 2429.93 2434.73 2439 2465.67H2358.63C2334.34 2401.33 2321.76 2334.56 2311.63 2267.03Z" fill="#F06105"/>
<path d="M2151.46 2282.2C2178.59 2281.18 2204.49 2280.21 2231.69 2279.19C2243.81 2341.76 2258.78 2403.9 2278.69 2465.67H2196.53C2173.01 2406.39 2158.97 2345.15 2151.46 2282.2Z" fill="#F06105"/>
<path d="M2240.15 1823.56C2237.37 1821.97 2234.53 1820.45 2231.81 1818.78C2217.94 1810.2 2203.3 1803.19 2186.29 1800.27C2174.89 1798.31 2163.91 1799.32 2153.51 1803.31C2130.33 1812.22 2116.02 1829.05 2102.48 1846.78C2138.65 1833.27 2175.84 1826.34 2215.22 1830.01C2212.64 1830.31 2210.06 1830.6 2207.47 1830.91C2204.46 1831.28 2201.46 1831.92 2198.43 1832C2180.2 1832.5 2163.14 1837.15 2146.48 1843.02C2116.5 1853.59 2088.8 1867.53 2064.49 1886.09C2056.67 1892.06 2049.46 1898.76 2042.87 1905.74C2038.23 1910.66 2034.37 1916.35 2031.41 1922.18C2022.87 1939.01 2027.21 1953.69 2044.02 1965.06C2059.96 1975.84 2077.99 1983.09 2097.9 1986.55C2122.05 1990.76 2145.72 1988.86 2168.79 1981.54C2201.38 1971.18 2228.37 1954.07 2249.55 1930.4C2255.66 1923.57 2260.2 1915.68 2265.14 1908.73C2279.29 1911.41 2293.27 1914.87 2307.52 1916.62C2339.79 1920.58 2372.29 1920.57 2404.78 1919.03C2433.58 1917.67 2462.19 1914.96 2489.8 1907.54C2503.62 1903.83 2517.43 1899.45 2530.25 1893.72C2578.08 1872.36 2600.19 1837.79 2598.49 1791.55C2597.62 1767.9 2591.42 1745.19 2581.3 1723.4C2547.79 1651.27 2496.96 1589.86 2427.41 1540.24C2426.37 1539.49 2425.38 1538.7 2424.4 1537.9C2424.17 1537.71 2424.08 1537.39 2422.92 1535.4C2426.84 1536.99 2429.36 1537.8 2431.63 1538.97C2453.27 1550.15 2472.49 1563.98 2489.95 1579.57C2542.55 1626.56 2581.71 1680.53 2602.73 1743.68C2611.6 1770.32 2615.36 1797.46 2610.31 1825.12C2604.09 1859.15 2584.17 1885.42 2550.14 1903.53C2525.22 1916.8 2497.65 1923.64 2468.93 1926.99C2402.88 1934.69 2337.97 1930.16 2274.38 1912.63C2271.9 1911.94 2269.31 1911.53 2266.92 1911.03C2262.98 1918.75 2260.01 1926.24 2255.58 1933.03C2225.81 1978.65 2160.61 2016.49 2079.58 1994.53C2067.08 1991.14 2054.65 1986.72 2043.38 1981.02C2012.2 1965.24 2004.07 1940.02 2019.93 1911.85C2028.06 1897.42 2039.95 1885.49 2054.01 1875.2C2061.73 1869.55 2070.07 1864.5 2078.39 1859.5C2081.89 1857.4 2083.95 1855.02 2085.54 1851.51C2096.12 1828.11 2112.48 1808.3 2137.23 1794.58C2158.09 1783.02 2180.02 1782.75 2201.74 1793.08C2217.37 1800.51 2230.21 1810.74 2239.99 1823.71L2240.15 1823.56Z" fill="black"/>
<path d="M2247.52 1203.08C2259.16 1221.28 2268.81 1238.83 2276.57 1257.1C2276 1257.38 2275.43 1257.67 2274.86 1257.96C2272.83 1255.18 2270.75 1252.43 2268.8 1249.61C2254.77 1229.27 2240.26 1209.21 2222.6 1190.99C2200.97 1168.67 2175.67 1150.6 2143.44 1140.74C2124.49 1134.94 2104.99 1131.75 2084.7 1132.09C2094.81 1127.25 2106.03 1129.26 2117.37 1128.17C2118.04 1126.8 2119.19 1125.33 2119.51 1123.73C2128.54 1078.22 2152.79 1038.86 2185.24 1002.87C2233.43 949.408 2295.53 913.029 2369.74 891.758C2386.54 886.947 2403.83 884.411 2421.67 885.221C2448.66 886.446 2466.9 898.586 2474.05 921C2476.19 927.7 2477.48 934.737 2477.93 941.678C2482.24 1008.31 2457.16 1066.42 2407.65 1116.81C2367.72 1157.45 2318.46 1186.26 2258.19 1200.01C2255.01 1200.74 2251.93 1201.8 2247.52 1203.08ZM2121.81 1128.8C2178.45 1133.46 2216.7 1159.56 2244.31 1198.81C2247.25 1198.21 2249.22 1197.92 2251.12 1197.41C2275.11 1190.97 2298.19 1182.81 2319.52 1171.14C2358.99 1149.54 2391.97 1122.23 2417.73 1088.6C2451.76 1044.17 2469.54 995.649 2465.5 942.007C2464.92 934.257 2462.96 926.326 2459.86 919.04C2454.13 905.518 2441.79 898.243 2425.5 896.184C2419.85 895.469 2414.01 895.473 2408.29 895.642C2390.8 896.149 2374.28 900.484 2358.16 905.921C2287.7 929.677 2229.84 967.967 2183.34 1019.27C2158.73 1046.43 2138.96 1075.84 2127.61 1109.12C2125.53 1115.22 2123.96 1121.47 2121.81 1128.8Z" fill="black"/>
<path d="M2549.3 1315.5C2560.19 1305.22 2569.9 1296.05 2579.6 1286.88C2580.13 1287.19 2580.65 1287.5 2581.17 1287.81C2577.95 1292.04 2575.01 1296.45 2571.47 1300.48C2556.87 1317.06 2539.27 1331.19 2521.92 1345.57C2483.6 1377.32 2437.77 1397.15 2387.07 1409.13C2343.46 1419.44 2298.92 1421.36 2254.16 1417.35C2230.32 1415.21 2206.69 1411.29 2182.97 1408.09C2179.38 1407.6 2175.86 1406.67 2172.5 1404.39C2189.57 1405.71 2206.64 1407.03 2224.34 1408.4C2225.65 1402.44 2226.22 1397.2 2228.01 1392.28C2231.23 1383.42 2234.18 1374.3 2239.06 1366.1C2247.44 1352.05 2262.45 1347.59 2279.96 1348C2296.41 1348.38 2307.42 1355.95 2313.82 1368.24C2318.07 1376.43 2320.55 1385.31 2323.56 1393.95C2324.82 1397.55 2325.39 1401.33 2326.47 1405.86C2329.16 1405.86 2331.77 1406.12 2334.29 1405.82C2372.02 1401.28 2408.46 1392.82 2443.32 1379.35C2449.97 1376.77 2452.89 1373.46 2453.6 1367.04C2455.74 1347.8 2460.09 1328.83 2469.47 1311.14C2473.22 1304.07 2477.95 1297.01 2483.92 1291.25C2497.85 1277.82 2518.95 1278.2 2532.87 1291.71C2537.3 1296.01 2540.46 1301.31 2543.99 1306.27C2545.72 1308.7 2546.96 1311.38 2549.3 1315.5ZM2234.74 1408.9C2263.32 1410.1 2290.12 1410.05 2318.54 1407.02C2313.42 1392.34 2308.63 1378.49 2297.56 1367.13C2284.75 1353.98 2264.23 1354.73 2252.49 1368.8C2242.88 1380.32 2238.49 1393.71 2234.74 1408.9ZM2464.66 1368.76C2493.16 1356.47 2518.32 1340.73 2541.05 1321.75C2537.38 1312.98 2532.02 1305.66 2524.9 1299.41C2512.57 1288.59 2498.72 1289.62 2489.57 1302.54C2475.31 1322.69 2469.62 1345.44 2464.66 1368.76Z" fill="black"/>
<path d="M2239.99 1823.71C2257.7 1829.56 2275.71 1834.45 2294.56 1836.75C2333.2 1841.47 2371.92 1844.65 2410.83 1839.29C2419.8 1838.05 2428.8 1836.2 2437.36 1833.59C2474.24 1822.37 2490.98 1797.72 2485.11 1764.38C2482.02 1746.88 2475.33 1730.4 2466.55 1714.51C2444.67 1674.88 2414.81 1639.89 2381.81 1606.77C2363.26 1588.14 2343.64 1570.38 2321.82 1554.52C2320.46 1553.52 2319.35 1552.25 2318.98 1549.98C2321.86 1551.25 2324.97 1552.24 2327.59 1553.84C2338.35 1560.42 2349.6 1566.54 2359.53 1573.97C2414.91 1615.45 2457.31 1665.13 2484.78 1723.99C2492.78 1741.15 2498.4 1758.92 2499.03 1777.53C2499.28 1785.08 2498.98 1792.8 2497.39 1800.19C2492.8 1821.55 2478.46 1836.58 2455.55 1845.56C2439.89 1851.69 2423.24 1854.44 2406.26 1854.9C2356.98 1856.23 2309.21 1848.84 2262.95 1834.39C2254.9 1831.87 2247.74 1827.22 2240.15 1823.56L2239.99 1823.71Z" fill="black"/>
<path d="M2121.81 1128.81C2123.96 1121.47 2125.53 1115.23 2127.61 1109.12C2138.96 1075.85 2158.73 1046.43 2183.34 1019.28C2229.84 967.971 2287.7 929.681 2358.16 905.925C2374.28 900.488 2390.8 896.153 2408.29 895.646C2414.01 895.477 2419.85 895.473 2425.5 896.188C2441.79 898.247 2454.13 905.522 2459.86 919.044C2462.96 926.33 2464.92 934.26 2465.5 942.011C2469.54 995.653 2451.76 1044.18 2417.73 1088.6C2391.97 1122.23 2358.99 1149.55 2319.52 1171.14C2298.19 1182.82 2275.11 1190.98 2251.12 1197.42C2249.22 1197.93 2247.25 1198.22 2244.31 1198.81C2216.7 1159.56 2178.45 1133.46 2121.81 1128.81Z" fill="white"/>
<path d="M2234.74 1408.9C2238.49 1393.71 2242.88 1380.32 2252.49 1368.8C2264.23 1354.73 2284.75 1353.98 2297.56 1367.13C2308.63 1378.49 2313.42 1392.34 2318.54 1407.02C2290.12 1410.05 2263.32 1410.1 2234.74 1408.9Z" fill="white"/>
<path d="M2464.66 1368.76C2469.62 1345.44 2475.31 1322.69 2489.57 1302.54C2498.72 1289.61 2512.57 1288.59 2524.9 1299.4C2532.02 1305.66 2537.38 1312.98 2541.05 1321.75C2518.32 1340.73 2493.16 1356.47 2464.66 1368.76Z" fill="white"/>
<path d="M2531.64 911.797C2523.42 912.582 2517.72 909.214 2515.69 900.799C2512.87 889.189 2506.73 880.677 2493.23 876.188C2483.41 872.924 2480.52 866.598 2483.66 859.475C2486.79 852.359 2495.58 848.932 2505.2 851.507C2520.63 855.641 2532.17 864.111 2538.96 876.685C2544.91 887.735 2559.62 909.124 2531.64 911.797Z" fill="black"/>
<path d="M2121.81 1128.81C2123.96 1121.47 2125.52 1115.23 2127.61 1109.12C2138.97 1075.84 2158.73 1046.43 2183.34 1019.28L2183.9 1018.67C2177.07 1062.28 2189.22 1100.88 2221.68 1123.21C2266.49 1154.03 2337.69 1145.36 2402.59 1106.75C2379.45 1132.21 2351.63 1153.57 2319.52 1171.14C2298.19 1182.81 2275.12 1190.97 2251.12 1197.42C2249.22 1197.93 2247.25 1198.22 2244.3 1198.81C2216.71 1159.56 2178.45 1133.46 2121.81 1128.81Z" fill="#E9E9CF"/>
<path d="M2191.04 1147.8C2223.15 1146.77 2248.23 1123.83 2247.05 1096.56C2245.88 1069.3 2218.9 1048.03 2186.79 1049.06C2154.68 1050.09 2129.61 1073.03 2130.78 1100.29C2131.95 1127.56 2158.93 1148.83 2191.04 1147.8Z" fill="black"/>
<path d="M2161.04 1130C2172.99 1129.61 2182.33 1121.07 2181.89 1110.93C2181.45 1100.78 2171.41 1092.86 2159.46 1093.25C2147.51 1093.63 2138.18 1102.17 2138.61 1112.31C2139.05 1122.46 2149.09 1130.38 2161.04 1130Z" fill="white"/>
<path d="M2766.62 937.636C2785.87 959.97 2796.29 985.786 2798.93 1014.64C2802.67 1055.27 2792.96 1094.24 2779.45 1132.77C2767.74 1166.17 2751.97 1198.06 2732.63 1228.68C2709.78 1264.83 2686.8 1300.93 2664.16 1337.19C2645.92 1366.38 2632.02 1397.03 2624.19 1429.61C2613.64 1473.49 2617.51 1516.74 2631.32 1559.62C2641.49 1591.22 2655.81 1621.5 2670.02 1651.82C2687.03 1688.11 2703.63 1724.52 2714.51 1762.64C2734.07 1831.23 2734.67 1899.78 2712.63 1967.98C2687.21 2046.6 2634.19 2109.17 2559.46 2158.09C2476.41 2212.45 2382.94 2247.39 2280.93 2265.27C2226.22 2274.87 2170.89 2277.71 2115.24 2273.72C2019.84 2266.88 1931.02 2241.99 1849.44 2198.85C1715.4 2127.96 1621.96 2027.87 1565.39 1901.95C1785.91 2160.26 2332.91 2203.54 2450.01 1928.86C2456.31 1928.35 2462.61 1927.73 2468.93 1926.99C2497.65 1923.65 2525.22 1916.8 2550.15 1903.53C2584.18 1885.43 2604.09 1859.15 2610.31 1825.12C2615.36 1797.46 2611.6 1770.32 2602.73 1743.68C2581.71 1680.54 2542.55 1626.56 2489.95 1579.58C2486.62 1576.61 2483.23 1573.7 2479.78 1570.86C2552.17 1389.63 2752.98 1113.53 2766.62 937.636ZM2471.5 1837.43C2485.18 1828.44 2493.97 1816.06 2497.38 1800.2C2498.98 1792.8 2499.28 1785.08 2499.02 1777.53C2498.4 1758.92 2492.78 1741.15 2484.78 1723.99C2476.05 1705.3 2465.82 1687.52 2454.14 1670.65C2455.03 1644.99 2463.19 1614.25 2476.31 1579.87C2521.41 1621.4 2556.21 1669.4 2581.3 1723.4C2591.42 1745.19 2597.62 1767.91 2598.49 1791.55C2600.19 1837.79 2578.09 1872.36 2530.25 1893.72C2517.43 1899.45 2503.62 1903.84 2489.8 1907.55C2478.58 1910.56 2467.19 1912.8 2455.69 1914.48C2464.11 1890.99 2469.51 1865.32 2471.5 1837.43ZM2456.33 1697.22C2459.9 1702.89 2463.32 1708.65 2466.55 1714.51C2475.33 1730.4 2482.02 1746.88 2485.11 1764.39C2488.58 1784.08 2484.15 1800.75 2472.34 1813.4C2472.41 1778.75 2467.54 1740.98 2456.85 1699.87C2456.63 1699.02 2456.52 1698.09 2456.33 1697.22Z" fill="#F06105"/>
</svg>
