<svg width="551" height="520" viewBox="0 0 551 520" fill="none" xmlns="http://www.w3.org/2000/svg">
<path d="M6.68213 424.89C20.4007 422.475 34.1075 420.066 49.4979 417.352C46.383 411.298 43.9752 406.095 41.1335 401.196C16.34 358.482 0.625884 312.662 0.0192039 261.282C-0.283607 235.413 2.93067 209.426 14.2236 187.603C74.9636 70.2873 165.77 4.54976 290.223 0.102697C315.98 -0.817906 341.329 4.51944 365.894 13.3542C450.241 43.6701 501.608 119.668 503.739 217.119C503.895 224.375 503.757 231.639 503.757 241.1C520.648 238.606 535.441 236.419 550.246 234.229C550.496 235.153 550.745 236.076 551 237.007C539.124 241.715 527.415 247.025 515.323 250.935C506.172 253.887 501.143 258.239 499.96 269.823C498.282 286.381 494.084 302.639 490.398 321.998C504.837 320.767 518.367 319.626 534.967 318.22C521.669 328.609 508.589 330.381 496.344 334.244C488.958 336.584 483.363 339.549 480.019 348.252C454.732 414.056 411.936 462.002 354.681 494.917C352.595 496.118 350.714 497.77 347.388 500.205C354.645 507.262 361.203 513.629 367.755 520C252.389 464.358 132.213 433.082 6.68213 424.89Z" fill="black"></path>
<path d="M478.678 245.63C327.646 262.119 179.491 252.832 33 198.401C37.1721 189.846 39.5424 183.709 42.8909 178.32C90.3681 101.897 153.013 49.1749 236.061 29.383C283.803 18.0036 330.773 21.4034 375.946 43.1042C449.932 78.6585 483.572 153.028 480.847 234.46C480.739 237.679 479.638 240.847 478.678 245.63Z" fill="#D6580E"></path>
<path d="M18.1259 267C158.418 341.644 302.804 367.469 456 345.594C454.67 351.665 454.39 356.08 452.79 359.823C429.404 414.247 393.639 456.264 346.802 487.279C338.994 492.452 332.852 492.099 324.977 487.042C248.061 437.634 164.551 416.156 75.8622 418.007C65.588 418.221 58.9976 415.523 53.6201 405.309C34.3863 368.775 20.7917 330.374 18.1734 287.898C17.8133 282.036 18.1259 276.121 18.1259 267Z" fill="#D6580E"></path>
<path d="M477 264.111C476.948 284.486 472.078 302.373 466.252 319.786C465.103 323.235 458.763 326.081 454.589 326.498C440.62 327.923 426.554 328.463 412.518 328.744C287.084 331.233 163.959 315.824 44.7678 270.403C36.7443 267.338 28.8647 263.816 19 259.714C19.8623 249.902 20.7035 240.331 21.5404 230.753C22.5828 230.497 23.6251 230.252 24.6611 230C26.6665 233.492 28.7599 236.931 30.6604 240.492C40.3271 258.544 55.7354 268.2 73.218 273.003C104.145 281.505 134.567 283.608 162.497 260.675C166.686 257.237 175.32 258.764 181.496 260.158C234.905 272.162 288.807 280.196 343.302 277.969C381.606 276.402 419.792 270.746 458.015 266.838C463.931 266.224 469.805 265.155 477 264.111Z" fill="white"></path>
</svg>