<svg width="1085" height="946" viewBox="0 0 1085 946" fill="none" xmlns="http://www.w3.org/2000/svg">
<path d="M689.584 804.743C686.614 806.923 683.619 809.073 680.674 811.285C628.718 850.272 573.97 884.627 513.822 909.884C477.537 925.121 440.338 937.388 401.073 942.692C312.736 954.625 232.538 934.238 160.783 882.048C101.301 838.777 59.5654 781.608 32.0549 714.05C11.6204 663.868 0.350199 611.686 0.00658832 557.374C-0.461285 482.665 23.9934 416.834 72.4601 359.996C85.3276 344.907 99.8111 331.114 114.159 317.356C133.69 298.632 154.105 280.823 173.581 262.05C189.962 246.259 204.612 228.918 216.077 209.138C228.673 187.402 235.429 164.166 233.865 138.945C232.707 120.181 228.043 102.132 219.666 85.3308C214.852 75.6818 215.774 67.3996 222.156 59.436C226.22 54.3592 230.535 49.3733 235.376 45.0535C254.591 27.8973 276.388 14.805 300.402 5.35741C312.852 0.460625 325.758 -1.06135 338.993 0.717568C349.988 2.194 358.85 6.71774 364.83 16.8483C372.232 29.3967 381.201 41.0358 388.53 53.6182C399.866 73.0924 407.401 94.024 410.32 116.496C413.723 142.677 409.439 167.774 399.837 192.117C388.082 221.908 370.359 248.086 349.494 272.191C339.945 283.22 329.463 293.455 319.406 304.051C317.344 306.224 315.279 308.392 312.688 311.111C320.042 313.691 326.434 315.933 333.526 318.415C334.206 316.541 335.047 314.69 335.554 312.755C348.957 261.791 395.958 223.301 448.798 220.697C479.602 219.178 505.657 229.719 526.053 253.143C527.631 254.962 529.313 256.693 531.138 258.67C531.918 257.461 532.687 256.757 532.86 255.932C536.381 238.972 546.487 226.134 559.352 215.35C585.915 193.088 616.549 180.209 651.396 178.652C660.595 178.241 670.164 179.503 679.124 181.738C696.027 185.955 708.473 196.322 715.922 212.235C716.947 214.426 718.087 216.566 719.715 219.804C720.912 217.261 721.734 215.777 722.33 214.208C733.442 185.113 752.633 162.412 778.292 145.013C799.907 130.355 824.179 124.521 850.098 125.259C866.772 125.735 880.318 132.158 888.771 147.214C889.194 147.968 889.94 148.539 891.249 149.983C891.938 146.578 892.541 143.971 892.988 141.338C899.575 102.475 917.618 70.047 948.617 45.2786C970.766 27.5859 996.275 21.6091 1024.23 26.5314C1044.42 30.0857 1059.97 40.9107 1070.63 58.1419C1085.1 81.5124 1088.23 106.853 1081.87 133.336C1079.28 144.12 1073.82 153.46 1064.37 160.478C1064.78 161.708 1064.97 162.916 1065.55 163.888C1077.71 184.354 1077.9 205.773 1070.08 227.514C1061.8 250.519 1046.75 268.266 1025.89 281.155C1023.51 282.622 1021.12 284.066 1018.76 285.552C1018.52 285.698 1018.42 286.056 1017.79 287.055C1019.35 291.749 1021.21 296.947 1022.81 302.224C1034.93 342.114 1026.3 377.557 998.914 408.555C989.014 419.769 976.459 427.171 961.206 429.262C960.008 429.427 958.857 429.95 957.432 430.388C957.15 431.641 956.718 432.79 956.659 433.957C954.527 476.961 931.912 506.943 895.585 527.812C883.35 534.843 869.798 536.765 854.863 532.858C852.368 554.992 843.736 574.304 831.425 592.463C838.247 606.902 842.751 621.959 845.425 637.586C847.866 651.855 848.323 665.988 843.278 679.808C837.969 694.36 832.523 708.866 826.952 723.32C822.267 735.465 816.842 747.346 812.575 759.629C804.73 782.208 804.451 805.257 810.177 828.363C814.215 844.657 819.583 860.484 828.444 874.939C832.767 881.99 831.261 888.627 826.745 894.878C822.044 901.381 815.35 905.375 808.198 908.627C794.317 914.94 779.541 917.109 764.453 917.134C740.664 917.169 718.015 911.826 696.894 900.962C690.609 897.729 684.721 893.383 679.435 888.676C672.8 882.768 670.316 875.168 671.968 865.983C675.175 848.164 680.884 831.184 687.819 814.538C688.975 811.752 690.023 808.92 691.121 806.108C690.608 805.653 690.098 805.199 689.584 804.743ZM174.411 703.391C174.89 703.562 175.365 703.732 175.844 703.902C175.925 704.819 176.099 705.739 176.082 706.65C175.532 736.824 189.516 759.04 214.861 774.254C242.978 791.129 273.602 795.704 305.867 790.187C316.999 788.283 327.073 783.736 337.284 778.656C335.167 781.397 333.05 784.135 331.04 786.737C368.837 841.092 450.255 831.858 485.493 797.144C482.916 792.853 480.303 788.506 477.693 784.159C478.143 783.746 478.6 783.335 479.052 782.923C491.288 796.582 507.142 803.007 524.584 806.197C542.047 809.392 559.449 808.588 576.561 804.249C611.555 795.382 637.572 775.44 652.341 742.12C653.633 739.202 654.455 736.08 655.468 733.136C648.733 731.36 643.168 729.892 637.606 728.425C640.526 726.882 643.161 726.84 645.798 726.891C659.655 727.141 672.212 723.061 683.759 715.623C693.831 709.135 702.105 700.753 709.323 691.309C721.511 675.35 729.985 657.465 736.931 638.755C739.142 632.81 741.257 627.254 734.202 622.728C741.853 624.584 748.607 626.97 755.541 627.729C766.782 628.958 777.143 625.067 786.736 619.616C807.875 607.598 824.225 590.846 834.678 568.912C839.473 558.854 842.879 548.151 847.323 537.917C849.227 533.528 849.023 529.802 844.46 525.115C864.289 531.653 880.193 526.704 895.02 516.668C910.513 506.18 922.549 492.413 931.934 476.445C944.123 455.712 952.822 434.086 947.305 408.69C950.163 413.527 953.023 418.366 956.505 424.256C962.261 421.547 968.101 419.407 973.295 416.231C986.126 408.389 995.011 396.853 1002.15 383.896C1018.29 354.607 1021.15 323.371 1015.75 290.965C1015.56 289.841 1014.7 288.831 1014.13 287.719C1005.85 289.582 998.29 293.686 987.438 292.655C992.263 290.621 995.076 289.522 997.816 288.262C1029.27 273.798 1050.88 250.437 1060.58 217.258C1068.27 190.952 1063.01 166.958 1044.33 146.3C1043.03 144.864 1041.88 143.292 1040.67 141.787C1041.12 141.368 1041.57 140.949 1042.02 140.534C1048.35 145.69 1054.69 150.845 1061.25 156.181C1067.71 150.418 1071.4 143.631 1072.95 135.928C1079.29 104.362 1072.31 76.1637 1049.92 52.5222C1039.69 41.7302 1026.59 36.0749 1011.57 35.491C988.993 34.611 969.243 41.9906 952.243 56.529C927.741 77.4816 911.206 103.787 900.93 134.045C896.73 146.415 893.687 159.084 895.348 172.377C895.516 173.714 895.108 175.122 894.965 176.496C893.015 173.076 892.382 169.516 891.576 165.995C887.899 149.989 877.778 140.839 861.507 138.312C848.064 136.223 834.688 137.136 821.47 139.492C790.651 144.989 767.27 162.088 749.036 186.757C735.953 204.46 727.223 224.242 721.101 245.249C720.492 247.343 719.463 249.315 718.015 252.845C716.995 245.417 716.912 239.739 715.369 234.486C708.264 210.326 688.408 194.042 662.666 192.546C617.207 189.91 579.94 207.206 550.287 240.961C545.47 246.446 542.563 253.603 538.883 260.046C536.379 264.425 536.393 268.609 539.331 273.071C541.664 276.618 543.079 280.764 544.902 284.643C540.892 281.77 538.481 278.174 535.901 274.706C521.557 255.382 503.281 241.435 479.671 235.324C446.631 226.775 416.571 234.337 389.279 253.579C362.779 272.26 346.593 298.258 337.483 328.908C336.566 331.988 335.584 335.05 334.631 338.123C334.31 338.044 333.989 337.964 333.665 337.882C333.414 333.639 333.158 329.394 332.847 324.201C289.534 312.213 250.284 320.923 214.268 345.189C183.653 365.816 167.584 395.518 162.968 432.064C168.665 433.455 173.295 434.587 177.924 435.718C164.27 436.93 151.89 440.602 140.443 447.278C114.488 462.408 95.8121 483.921 85.2135 511.875C82.1834 519.866 80.4104 528.677 79.9541 537.214C78.8534 557.886 87.2872 574.28 104.714 586.307C111.053 581.768 115.739 575.388 123.989 574.565C119.28 580.446 114.482 585.411 110.887 591.121C101.081 606.691 96.1204 623.888 95.8166 642.243C95.2833 674.136 110.815 697.724 140.467 709.751C147.923 712.776 155.895 714.593 163.715 716.652C165.969 717.244 168.518 716.744 171.163 716.744C172.286 712.128 173.348 707.76 174.411 703.391ZM232.652 93.45C234.226 96.8928 234.937 98.5817 235.755 100.215C242.643 113.959 247.048 128.317 247.727 143.808C248.832 168.952 240.665 191.367 227.927 212.489C216.637 231.219 202.921 248.177 187.082 263.179C166.094 283.061 144.095 301.888 122.921 321.581C107.91 335.542 92.4952 349.285 79.0798 364.688C39.9912 409.565 17.8039 462.019 11.4282 521.07C7.29084 559.387 10.407 597.249 18.9364 634.682C34.6162 703.483 62.5704 766.71 109.604 820.119C190.899 912.431 293.256 948.904 415.153 929.614C467.911 921.263 517.576 902.996 565.124 879.013C610.928 855.909 652.522 826.291 693.805 796.244C696.64 794.18 698.584 790.659 700.425 787.516C709.528 771.993 718.42 756.341 727.477 740.788C728.953 738.247 730.875 735.96 732.589 733.559C717.963 771.273 699.621 807.366 688.144 847.973C731.143 831.396 769.69 845.529 808.33 858.401C808.467 857.248 808.612 856.92 808.522 856.68C807.87 854.95 807.274 853.191 806.477 851.53C797.957 833.804 794.551 815.14 795.488 795.548C796.476 774.822 802.494 755.312 809.608 736.074C816.487 717.461 823.641 698.943 830.792 680.434C836.612 665.368 838.44 649.808 836.851 633.84C835.628 621.553 834.287 609.258 828.782 596.817C826.234 599.649 824.185 601.881 822.183 604.154C812.655 614.979 802.017 624.482 788.899 630.84C776.111 637.036 762.948 639.593 749.186 633.789C748.203 633.374 747.003 633.48 745.814 633.333C744.926 638.318 744.493 642.655 743.366 646.809C731.635 690.1 709.984 724.179 661.274 733.405C660.841 735.227 660.208 737.296 659.863 739.41C656.231 761.653 644.743 779.158 627.102 792.884C612.858 803.968 596.648 811.08 579.083 814.926C555.835 820.016 532.645 820.363 509.972 811.943C504.479 809.901 499.301 807.013 493.871 804.467C492.754 805.242 491.675 805.864 490.746 806.651C464.254 829.215 433.29 838.57 398.859 836.185C368.743 834.098 344.488 821.293 328.642 794.818C327.711 793.265 326.604 791.818 325.464 790.155C323.971 790.752 322.838 791.157 321.746 791.651C278.014 811.223 237.11 804.505 199.149 777.369C183.081 765.885 173.721 749.512 171.931 729.423C171.747 727.386 170.9 725.403 170.172 722.695C164.545 722.695 159.24 722.999 153.979 722.646C117.323 720.198 91.4155 697.004 86.6251 661.807C83.7117 640.433 86.765 619.765 96.5123 600.281C97.7117 597.883 98.821 595.449 99.8936 593.194C98.9267 592.28 98.5529 591.716 98.0266 591.46C79.4465 582.395 71.2894 566.649 70.9654 547.026C70.2651 505.054 87.6152 471.448 120.927 445.991C129.408 439.508 139.274 435.538 149.971 433.832C152.318 433.459 154.581 432.545 155.916 432.158C157.395 419.906 157.626 408.299 160.351 397.304C166.877 370.977 183.791 351.838 206.186 337.283C232.676 320.064 261.918 311.296 293.55 310.672C298.239 310.581 301.784 309.703 304.839 305.766C320.831 285.149 337.819 265.239 352.952 244.023C363.537 229.187 372.418 213.007 380.76 196.77C389.317 180.111 393.872 162.02 395.366 143.254C398.539 103.416 386.361 67.4067 367.685 33.0097C367.211 32.1337 366.112 31.5952 365.133 30.7562C352.793 55.2731 332.368 70.2694 309.348 82.0694C285.803 94.1374 260.847 99.5402 232.652 93.45ZM734.473 848.742C721.856 848.484 709.477 849.669 698.086 855.579C684.69 862.532 683.358 872.807 694.352 882.907C695.264 883.749 696.201 884.589 697.229 885.28C728.776 906.419 762.718 911.223 798.816 899.408C803.675 897.816 808.358 894.646 812.169 891.178C818.653 885.267 818.586 877.437 811.971 871.693C807.59 867.884 802.39 864.703 797.069 862.304C777.22 853.355 756.233 849.175 734.473 848.742ZM325.382 9.31567C319.798 10.1436 314.795 10.4821 310 11.6625C283.115 18.2672 259.949 31.6532 239.941 50.5184C237.037 53.2553 234.45 56.4766 232.326 59.8484C226.237 69.521 229.087 78.4056 240.116 81.6625C246.826 83.6454 254.291 84.6873 261.222 84.0508C293.698 81.066 320.691 67.1432 341.393 41.8788C344.284 38.3454 346.659 34.149 348.294 29.8917C351.653 21.1456 348.522 14.7299 339.437 11.7991C334.788 10.2996 329.734 10.0441 325.382 9.31567Z" fill="black"/>
<path d="M174.413 703.391C173.35 707.761 172.288 712.129 171.165 716.744C168.52 716.744 165.971 717.245 163.717 716.652C155.896 714.593 147.924 712.776 140.469 709.752C110.817 697.725 95.2852 674.136 95.8185 642.244C96.1223 623.888 101.083 606.691 110.889 591.121C114.484 585.411 119.282 580.447 123.99 574.565C115.741 575.389 111.055 581.769 104.716 586.307C87.2891 574.28 78.8553 557.887 79.956 537.214C80.4123 528.677 82.1852 519.866 85.2154 511.875C95.8139 483.921 114.49 462.409 140.445 447.278C151.892 440.603 164.272 436.931 177.926 435.719C173.297 434.588 168.667 433.455 162.97 432.064C167.586 395.518 183.655 365.817 214.27 345.19C250.286 320.924 289.536 312.213 332.849 324.202C333.16 329.394 333.416 333.639 333.667 337.882C333.991 337.964 334.312 338.044 334.633 338.124C335.586 335.051 336.568 331.988 337.485 328.908C346.595 298.259 362.781 272.26 389.28 253.58C416.573 234.338 446.633 226.775 479.673 235.324C503.283 241.435 521.559 255.382 535.903 274.707C538.483 278.175 540.894 281.771 544.904 284.643C543.081 280.764 541.666 276.619 539.332 273.071C536.395 268.61 536.381 264.426 538.885 260.046C542.565 253.604 545.472 246.447 550.289 240.962C579.942 207.207 617.209 189.911 662.668 192.546C688.41 194.042 708.266 210.326 715.371 234.486C716.914 239.739 716.997 245.418 718.016 252.845C719.465 249.315 720.494 247.343 721.102 245.249C727.225 224.242 735.955 204.46 749.038 186.757C767.272 162.088 790.653 144.989 821.471 139.493C834.69 137.136 848.066 136.223 861.509 138.312C877.78 140.839 887.901 149.989 891.577 165.996C892.383 169.516 893.017 173.076 894.967 176.496C895.11 175.123 895.518 173.714 895.35 172.378C893.688 159.084 896.732 146.415 900.931 134.045C911.208 103.788 927.743 77.4819 952.245 56.5293C969.245 41.991 988.995 34.6113 1011.57 35.4913C1026.59 36.0753 1039.69 41.7305 1049.92 52.5225C1072.31 76.164 1079.29 104.362 1072.95 135.928C1071.4 143.632 1067.71 150.419 1061.25 156.181C1054.69 150.845 1048.36 145.69 1042.02 140.535C1041.57 140.95 1041.12 141.368 1040.67 141.788C1041.89 143.293 1043.03 144.865 1044.33 146.3C1063.01 166.958 1068.27 190.953 1060.58 217.258C1050.88 250.437 1029.27 273.798 997.818 288.263C995.078 289.523 992.265 290.621 987.44 292.655C998.291 293.686 1005.86 289.582 1014.13 287.72C1014.71 288.831 1015.57 289.842 1015.75 290.966C1021.15 323.371 1018.29 354.608 1002.15 383.896C995.013 396.853 986.128 408.39 973.296 416.231C968.102 419.407 962.263 421.548 956.507 424.256C953.025 418.366 950.165 413.527 947.307 408.69C952.824 434.086 944.125 455.712 931.936 476.445C922.551 492.413 910.515 506.181 895.022 516.669C880.194 526.704 864.291 531.653 844.462 525.115C849.025 529.802 849.229 533.528 847.325 537.917C842.881 548.151 839.474 558.855 834.68 568.913C824.227 590.846 807.877 607.599 786.738 619.617C777.145 625.067 766.784 628.958 755.542 627.729C748.609 626.971 741.855 624.584 734.204 622.729C741.259 627.254 739.144 632.81 736.933 638.755C729.987 657.465 721.513 675.351 709.325 691.309C702.107 700.753 693.833 709.135 683.761 715.623C672.214 723.061 659.657 727.141 645.799 726.892C643.163 726.841 640.528 726.882 637.608 728.426C643.17 729.892 648.734 731.361 655.47 733.137C654.457 736.08 653.635 739.202 652.343 742.121C637.574 775.44 611.557 795.383 576.563 804.249C559.451 808.589 542.049 809.392 524.585 806.198C507.144 803.007 491.289 796.583 479.054 782.923C478.601 783.336 478.145 783.747 477.694 784.159C480.304 788.506 482.918 792.853 485.495 797.144C450.257 831.859 368.839 841.092 331.042 786.737C333.052 784.135 335.169 781.397 337.286 778.656C327.075 783.737 317.001 788.284 305.869 790.187C273.604 795.704 242.98 791.129 214.863 774.254C189.517 759.04 175.534 736.824 176.084 706.651C176.101 705.739 175.927 704.82 175.846 703.903C175.367 703.732 174.892 703.562 174.413 703.391ZM473.68 648.234C467.903 643.02 462.669 642.619 456.835 647.47C442.168 659.663 426.946 671.18 408.849 677.689C390.125 684.425 371.166 690.764 351.898 695.683C332.187 700.715 311.913 702.127 291.565 698.611C257.988 692.807 234.838 674.461 222.922 642.518C218.088 629.56 216.096 616.067 216.426 602.35C216.858 584.473 219.87 567.164 230.704 552.127C231.794 550.619 232.791 549.05 233.832 547.511C224.186 553.177 219.3 562.144 215.64 571.777C208.212 591.347 206.672 611.511 209.904 632.173C216.03 671.354 242.142 699.295 281.052 708.118C303.061 713.108 324.994 711.831 347.025 708.187C379.308 702.847 408.98 691.707 434.423 670.702C435.829 669.544 437.46 668.654 440.04 666.937C438.918 670.97 438.048 673.86 437.311 676.788C433.546 691.772 440.636 701.327 456.139 701.615C465.324 701.787 474.087 699.732 481.935 694.62C484.082 693.222 486.398 692.08 489.079 690.57C489.4 694.756 489.473 697.833 489.902 700.861C491.62 712.867 497.52 722.459 507.581 729.243C517.104 735.669 527.549 736.855 537.707 731.325C552.949 723.03 564.309 707.551 555.332 685.982C554.354 683.629 553.649 681.164 552.524 677.901C556.596 678.295 559.339 678.649 562.097 678.814C577.95 679.784 593.819 681.643 609.655 681.409C630.379 681.099 650.547 676.947 669.135 667.108C685.081 658.672 697.429 646.692 704.317 629.937C714.716 604.66 714.381 579.167 704.376 553.826C700.891 545.001 695.472 537.389 687.265 532.267C683.96 530.207 680.082 529.057 676.465 527.491C677.534 530.268 679.255 531.566 680.971 532.877C695.173 543.717 702.549 558.261 704.223 575.768C705.571 589.854 703.241 603.444 699.149 616.998C692.377 639.417 677.545 653.43 655.631 660.631C650.313 662.376 644.891 663.905 639.419 665.078C611.662 671.039 583.652 670.654 555.603 667.8C528.829 665.08 502.724 659.313 477.421 650.094C476.173 649.473 474.926 648.855 473.68 648.234ZM484.527 366.942C474.32 361.82 465.474 356.508 455.993 352.822C440.357 346.742 423.789 345.848 407.142 346.721C373.587 348.478 348.36 363.896 332.042 393.008C320.424 413.73 316.593 436.228 320.47 459.591C326.4 495.308 345.832 521.063 381.059 531.958C421.865 544.578 460.001 538.541 493.38 510.421C495.214 508.88 497.196 507.515 499.017 506.14C500.658 506.999 501.77 507.543 502.848 508.154C537.485 527.791 573.098 527.722 608.946 512.341C635.794 500.823 653.763 480.748 659.979 452.113C668.494 412.892 657.479 379.01 627.956 351.659C612.032 336.912 592.463 329.676 570.678 330.232C537.011 331.091 506.808 340.701 484.527 366.942ZM671.405 560.517C671.168 574.416 669.808 587.868 665.659 601.043C662.379 611.456 656.08 619.223 646.169 623.558C638.797 626.785 631.115 629.661 623.283 631.44C593.143 638.274 562.669 637.874 532.104 634.726C526.128 634.111 523.085 631.454 520.608 625.916C512.174 607.088 498.399 600.292 478.105 605.403C468.546 607.815 459.081 611.55 450.399 616.201C436.98 623.394 424.275 631.898 411.265 639.838C401.968 645.511 392.777 651.356 383.322 656.745C379.224 659.082 374.836 661.487 369.261 660.763C370.282 658.036 371.068 655.941 372.393 652.398C369.273 654.679 367.617 656.066 365.793 657.191C357.319 662.41 348.042 664.816 338.138 663.885C329.047 663.029 323.405 655.402 325.898 646.889C326.954 643.268 329.552 639.651 332.41 637.08C339.089 631.066 347.402 628.343 356.356 627.857C370.282 627.096 376.613 631.135 382.377 644.098C382.474 644.321 383.179 644.28 383.619 644.366C384.128 632.471 380.049 624.719 369.345 621.005C362.767 618.725 355.321 617.624 348.377 618.005C341.137 618.399 334.03 621.208 326.885 622.96C321.466 618.642 316.105 613.892 310.256 609.844C304.301 605.719 297.485 602.542 290.118 603.705C283.358 604.777 276.847 607.426 269.957 609.46C266.382 590.536 270.188 572.273 275.756 553.269C254.387 565.801 250.575 587.737 263.351 618.337C263.025 619.091 262.708 619.963 262.283 620.776C253.544 637.6 259.514 652.225 277.623 658.064C286.79 661.019 296.073 660.448 305.328 658.386C308.549 657.669 311.733 656.79 315.016 655.964C316.102 658.499 316.783 660.213 317.562 661.877C322.172 671.729 328.033 675.206 339.041 674.744C347.112 674.405 354.07 671.145 360.753 666.952C363.039 665.514 365.75 663.46 368.111 663.646C381.484 664.687 393.402 659.953 404.893 654.486C423.151 645.795 441.004 636.26 458.996 627.023C465.088 623.894 470.918 620.219 477.156 617.434C492.638 610.525 509.479 616.367 517.073 631.392C508.626 631.986 501.452 627.544 492.39 626.079C498.787 632.582 505.888 634.922 512.882 637.13C545.158 647.324 578.176 650.231 611.739 645.975C625.079 644.283 638.076 640.937 649.968 634.343C660.341 628.595 668.825 620.978 672.701 609.474C678.244 593.015 675.392 576.658 671.405 560.517ZM222.647 493.869C250.581 500.213 278.098 507.34 303.375 521.135C329.03 535.138 350.124 554.495 369.174 576.332C352.706 525.24 277.806 482.807 222.647 493.869Z" fill="#FFD425"/>
<path d="M232.654 93.4505C260.848 99.5407 285.805 94.1379 309.35 82.0699C332.37 70.27 352.795 55.2737 365.135 30.7567C366.113 31.5957 367.213 32.1342 367.686 33.0102C386.362 67.4072 398.541 103.417 395.368 143.255C393.873 162.02 389.318 180.112 380.762 196.77C372.42 213.008 363.539 229.188 352.953 244.023C337.821 265.239 320.832 285.149 304.841 305.766C301.786 309.703 298.24 310.582 293.552 310.673C261.919 311.296 232.678 320.065 206.188 337.283C183.793 351.839 166.878 370.977 160.353 397.304C157.627 408.299 157.396 419.907 155.917 432.159C154.583 432.545 152.319 433.46 149.972 433.833C139.275 435.539 129.409 439.509 120.928 445.991C87.6168 471.448 70.2668 505.054 70.9671 547.027C71.2911 566.65 79.4482 582.395 98.0283 591.46C98.5545 591.717 98.9283 592.281 99.8952 593.195C98.8227 595.45 97.7133 597.883 96.514 600.281C86.7666 619.766 83.7133 640.434 86.6267 661.807C91.4171 697.005 117.325 720.198 153.981 722.646C159.242 722.999 164.547 722.696 170.174 722.696C170.901 725.404 171.749 727.387 171.932 729.423C173.722 749.513 183.083 765.885 199.15 777.369C237.111 804.506 278.016 811.223 321.748 791.651C322.84 791.158 323.972 790.753 325.466 790.156C326.605 791.818 327.713 793.266 328.643 794.819C344.49 821.293 368.744 834.098 398.86 836.186C433.292 838.571 464.256 829.216 490.747 806.652C491.677 805.865 492.755 805.243 493.873 804.468C499.302 807.014 504.48 809.901 509.973 811.943C532.647 820.363 555.837 820.016 579.084 814.927C596.649 811.08 612.86 803.969 627.103 792.884C644.744 779.158 656.233 761.653 659.864 739.411C660.21 737.297 660.843 735.227 661.275 733.406C709.986 724.18 731.637 690.1 743.367 646.81C744.494 642.656 744.927 638.319 745.816 633.333C747.004 633.481 748.205 633.374 749.188 633.79C762.949 639.593 776.113 637.037 788.901 630.84C802.018 624.483 812.656 614.979 822.184 604.154C824.186 601.882 826.236 599.649 828.784 596.817C834.289 609.258 835.629 621.553 836.853 633.841C838.441 649.809 836.613 665.369 830.793 680.435C823.643 698.944 816.488 717.462 809.609 736.075C802.495 755.313 796.478 774.822 795.489 795.548C794.552 815.141 797.958 833.805 806.479 851.531C807.276 853.191 807.872 854.95 808.523 856.681C808.614 856.92 808.468 857.249 808.331 858.401C769.691 845.53 731.145 831.397 688.145 847.973C699.623 807.367 717.965 771.274 732.591 733.559C730.877 735.96 728.954 738.248 727.478 740.788C718.421 756.342 709.529 771.994 700.427 787.517C698.586 790.659 696.642 794.181 693.807 796.244C652.523 826.292 610.93 855.91 565.126 879.014C517.578 902.997 467.913 921.264 415.155 929.614C293.258 948.905 190.901 912.431 109.605 820.119C62.572 766.71 34.6178 703.484 18.938 634.683C10.4086 597.25 7.29247 559.388 11.4299 521.071C17.8055 462.019 39.9928 409.566 79.0814 364.689C92.4968 349.286 107.911 335.543 122.922 321.581C144.097 301.888 166.095 283.062 187.083 263.179C202.922 248.177 216.639 231.219 227.929 212.489C240.667 191.368 248.834 168.952 247.729 143.809C247.05 128.318 242.645 113.96 235.757 100.215C234.938 98.5823 234.228 96.8934 232.654 93.4505Z" fill="#D45E57"/>
<path d="M734.472 848.745C756.232 849.175 777.222 853.355 797.068 862.304C802.389 864.702 807.589 867.882 811.972 871.693C818.585 877.439 818.651 885.267 812.168 891.175C808.357 894.648 803.674 897.816 798.815 899.408C762.714 911.223 728.775 906.419 697.228 885.28C696.2 884.589 695.263 883.749 694.351 882.91C683.357 872.807 684.689 862.533 698.088 855.58C709.476 849.669 721.855 848.486 734.472 848.745ZM710.338 862.166C711.569 871.271 715.88 876.685 721.569 880.985C736.771 892.473 753.809 895.179 771.907 889.725C781.394 886.866 789.621 881.665 795.8 871.501C765.279 883.757 737.109 885.117 710.338 862.166Z" fill="#E08A85"/>
<path d="M325.383 9.31624C329.735 10.0447 334.789 10.3002 339.438 11.7996C348.524 14.7305 351.655 21.1461 348.296 29.8923C346.66 34.1496 344.286 38.346 341.395 41.8793C320.693 67.1437 293.7 81.0665 261.224 84.0514C254.293 84.6879 246.827 83.646 240.117 81.663C229.088 78.4062 226.239 69.5216 232.327 59.849C234.452 56.4771 237.039 53.2558 239.942 50.5189C259.95 31.6538 283.117 18.2678 310.001 11.6631C314.797 10.4826 319.8 10.1442 325.383 9.31624ZM248.815 57.5641C257.295 64.8573 267.168 66.8612 277.611 66.0477C296.59 64.5738 311.402 55.8522 321.162 39.4899C324.229 34.3496 326.726 28.6208 323.649 21.5201C306.442 50.5599 279.764 58.1086 248.815 57.5641Z" fill="#E08A85"/>
<path d="M477.418 650.094C502.721 659.313 528.827 665.08 555.601 667.8C583.65 670.654 611.66 671.039 639.417 665.078C644.889 663.905 650.311 662.376 655.629 660.631C677.543 653.43 692.375 639.417 699.147 616.998C703.238 603.444 705.569 589.855 704.221 575.768C702.547 558.261 695.171 543.717 680.969 532.877C679.253 531.567 677.532 530.269 676.462 527.491C680.08 529.057 683.958 530.208 687.262 532.267C695.469 537.389 700.889 545.001 704.373 553.826C714.379 579.167 714.714 604.66 704.315 629.937C697.427 646.692 685.079 658.673 669.132 667.108C650.545 676.947 630.377 681.099 609.653 681.409C593.817 681.643 577.947 679.784 562.095 678.815C559.337 678.649 556.593 678.296 552.522 677.902C553.647 681.164 554.352 683.629 555.33 685.982C564.307 707.551 552.946 723.03 537.705 731.325C527.547 736.856 517.102 735.669 507.579 729.243C497.517 722.459 491.618 712.867 489.9 700.862C489.471 697.833 489.398 694.756 489.077 690.571C486.396 692.08 484.08 693.222 481.933 694.62C474.084 699.732 465.322 701.787 456.137 701.616C440.634 701.328 433.544 691.773 437.309 676.788C438.046 673.86 438.916 670.97 440.038 666.938C437.458 668.654 435.827 669.544 434.421 670.702C408.978 691.707 379.305 702.847 347.023 708.187C324.992 711.831 303.059 713.108 281.05 708.118C242.139 699.295 216.028 671.354 209.901 632.173C206.67 611.512 208.21 591.347 215.638 571.777C219.298 562.144 224.184 553.177 233.829 547.511C232.788 549.05 231.791 550.619 230.702 552.127C219.868 567.164 216.856 584.473 216.424 602.35C216.093 616.067 218.086 629.56 222.92 642.518C234.836 674.461 257.986 692.807 291.563 698.611C311.91 702.127 332.185 700.716 351.896 695.683C371.164 690.764 390.122 684.425 408.847 677.689C426.943 671.18 442.165 659.663 456.833 647.47C462.667 642.619 467.901 643.02 473.678 648.234C460.883 653.043 453.09 662.819 448.308 674.907C444.242 685.184 449.256 692.087 460.009 690.544C474.398 688.475 488.652 685.324 499.217 673.783C501.649 671.131 505.164 669.456 508.18 667.332C506.606 670.311 505.077 673.315 503.456 676.265C496.143 689.582 498.773 707.221 509.585 717.199C517.942 724.912 528.612 725.322 537.454 718.217C549.099 708.858 550.394 696.547 547.807 682.975C546.884 678.127 544.645 675.524 539.595 674.482C532.019 672.914 524.627 670.468 517.096 668.637C514.15 667.92 511.043 667.848 508.009 667.484C505.597 665.913 503.268 664.2 500.756 662.802C493.015 658.499 485.205 654.32 477.418 650.094Z" fill="black"/>
<path d="M484.523 366.942C506.804 340.701 537.007 331.091 570.675 330.232C592.459 329.677 612.028 336.912 627.953 351.66C657.476 379.01 668.491 412.892 659.976 452.114C653.759 480.748 635.79 500.823 608.942 512.341C573.094 527.722 537.481 527.791 502.844 508.154C501.766 507.543 500.655 506.999 499.014 506.14C497.193 507.515 495.211 508.881 493.376 510.421C459.998 538.541 421.862 544.578 381.055 531.958C345.829 521.064 326.397 495.308 320.467 459.591C316.589 436.228 320.42 413.73 332.038 393.008C348.357 363.896 373.583 348.478 407.139 346.721C423.785 345.848 440.353 346.742 455.989 352.822C465.471 356.508 474.317 361.82 484.523 366.942ZM500.446 391.573C499.847 392.03 499.248 392.49 498.649 392.947C488.762 373.857 472.587 363.056 452.09 358.64C431.685 354.243 411.104 354.479 390.901 359.828C359.406 368.174 339.957 388.534 332.456 420C329.773 431.265 329.84 442.679 331.502 454.183C336.614 489.521 362.216 518.025 396.896 526.486C411.983 530.165 427.201 530.106 442.391 527.272C468.694 522.371 491.43 511.249 507.988 489.549C508.531 488.836 509.35 488.328 510.043 487.725C510.363 488.05 510.686 488.378 511.007 488.704C508.181 493.265 505.355 497.831 502.242 502.86C506.09 504.558 509.169 505.998 512.314 507.292C530.671 514.837 549.909 516.432 569.307 514.044C605.223 509.626 631.783 492.083 645.123 457.56C650.947 442.485 652.401 426.721 649.588 410.881C643.68 377.63 626.019 353.074 592.338 344.222C560.958 335.978 530.435 341.227 502.221 357.587C496.337 360.994 491.105 365.37 487.455 370.698C492.053 378.089 496.25 384.832 500.446 391.573Z" fill="black"/>
<path d="M671.404 560.517C675.392 576.657 678.244 593.014 672.701 609.473C668.825 620.977 660.341 628.595 649.968 634.343C638.076 640.936 625.078 644.282 611.739 645.974C578.176 650.231 545.158 647.324 512.881 637.129C505.888 634.921 498.787 632.581 492.39 626.079C501.452 627.543 508.626 631.986 517.073 631.391C509.479 616.367 492.638 610.524 477.155 617.434C470.918 620.218 465.088 623.893 458.995 627.023C441.004 636.259 423.151 645.794 404.893 654.485C393.401 659.953 381.484 664.687 368.111 663.645C365.75 663.459 363.039 665.514 360.753 666.951C354.07 671.145 347.112 674.405 339.041 674.744C328.032 675.206 322.171 671.729 317.562 661.876C316.782 660.212 316.102 658.499 315.016 655.963C311.732 656.789 308.548 657.668 305.328 658.385C296.073 660.448 286.79 661.019 277.622 658.064C259.514 652.225 253.544 637.6 262.283 620.775C262.708 619.962 263.025 619.091 263.351 618.337C250.575 587.736 254.387 565.8 275.755 553.268C270.188 572.273 266.382 590.535 269.957 609.459C276.847 607.425 283.358 604.776 290.118 603.705C297.484 602.541 304.301 605.719 310.255 609.843C316.105 613.892 321.466 618.641 326.885 622.959C334.029 621.208 341.137 618.399 348.377 618.005C355.321 617.624 362.766 618.725 369.345 621.005C380.049 624.718 384.128 632.471 383.618 644.366C383.179 644.279 382.473 644.32 382.376 644.098C376.612 631.134 370.282 627.095 356.356 627.856C347.402 628.342 339.089 631.065 332.409 637.08C329.551 639.651 326.953 643.267 325.898 646.889C323.405 655.402 329.047 663.028 338.138 663.884C348.042 664.815 357.319 662.409 365.792 657.191C367.617 656.065 369.272 654.678 372.392 652.398C371.068 655.94 370.282 658.035 369.261 660.762C374.835 661.486 379.223 659.081 383.322 656.744C392.777 651.356 401.968 645.511 411.265 639.838C424.275 631.898 436.98 623.393 450.399 616.201C459.081 611.549 468.546 607.814 478.105 605.403C498.398 600.292 512.174 607.088 520.608 625.916C523.085 631.453 526.128 634.11 532.103 634.726C562.669 637.873 593.143 638.273 623.283 631.439C631.115 629.661 638.797 626.785 646.169 623.558C656.08 619.222 662.379 611.456 665.659 601.043C669.808 587.867 671.168 574.415 671.404 560.517ZM323.724 625.871C314.856 620.045 304.886 616.16 296.649 615.173C284.884 613.757 274.934 618.948 270.602 628.763C267.785 635.142 268.986 640.308 274.23 644.39C281.888 650.345 304.283 654.461 314.069 651.709C315.222 637.766 315.222 637.766 323.724 625.871Z" fill="black"/>
<path d="M222.647 493.869C277.806 482.807 352.706 525.24 369.174 576.333C350.124 554.495 329.03 535.138 303.375 521.136C278.098 507.34 250.581 500.213 222.647 493.869Z" fill="black"/>
<path d="M508.183 667.331C505.167 669.456 501.651 671.131 499.22 673.783C488.654 685.323 474.401 688.474 460.012 690.543C449.259 692.087 444.245 685.183 448.31 674.907C453.092 662.819 460.886 653.043 473.681 648.234C474.927 648.855 476.173 649.473 477.421 650.094C485.207 654.32 493.018 658.499 500.759 662.802C503.27 664.199 505.599 665.913 508.013 667.483L508.183 667.331Z" fill="#FFD425"/>
<path d="M710.339 862.165C737.11 885.118 765.28 883.757 795.801 871.501C789.622 881.665 781.395 886.865 771.909 889.725C753.81 895.179 736.772 892.473 721.571 880.982C715.881 876.685 711.57 871.271 710.339 862.165Z" fill="black"/>
<path d="M248.813 57.5643C279.762 58.1088 306.44 50.5601 323.647 21.5203C326.724 28.621 324.227 34.3499 321.16 39.4901C311.4 55.8524 296.588 64.574 277.609 66.0479C267.166 66.8614 257.293 64.8575 248.813 57.5643Z" fill="black"/>
<path d="M508.182 667.331L508.013 667.483C511.044 667.847 514.152 667.92 517.098 668.637C524.629 670.468 532.021 672.914 539.597 674.481C544.647 675.523 546.886 678.127 547.809 682.975C550.395 696.547 549.101 708.857 537.455 718.217C528.614 725.322 517.944 724.912 509.587 717.199C498.774 707.22 496.145 689.581 503.458 676.264C505.079 673.315 506.608 670.311 508.182 667.331Z" fill="#FFD425"/>
<path d="M500.447 391.573C496.252 384.832 492.055 378.089 487.457 370.698C491.107 365.371 496.339 360.994 502.223 357.587C530.437 341.228 560.96 335.978 592.34 344.222C626.021 353.074 643.682 377.63 649.59 410.882C652.403 426.721 650.949 442.485 645.125 457.561C631.785 492.084 605.225 509.626 569.308 514.044C549.911 516.432 530.673 514.838 512.315 507.292C509.171 505.998 506.092 504.558 502.244 502.86C505.357 497.831 508.183 493.265 511.009 488.705C510.688 488.379 510.364 488.05 510.045 487.725C509.352 488.328 508.533 488.837 507.99 489.55C491.432 511.249 468.695 522.372 442.393 527.272C427.203 530.106 411.985 530.165 396.898 526.486C362.217 518.025 336.616 489.521 331.504 454.183C329.842 442.679 329.775 431.265 332.458 420C339.959 388.534 359.408 368.174 390.903 359.828C411.106 354.479 431.687 354.244 452.092 358.64C472.589 363.056 488.764 373.857 498.65 392.947C499.25 392.49 499.848 392.03 500.447 391.573ZM494.857 427.381C485.038 440.382 472.324 449.856 459.325 458.948C429.884 479.538 382.47 476.702 359.725 446.253C359.007 445.291 358.659 444.053 358.137 442.943C361.036 461.23 375.135 475.12 394.079 480.714C425.684 490.048 465.881 476.62 485.334 450.192C490.326 443.413 494.088 436.076 494.857 427.381ZM633.445 412.653C625.054 424.858 614.035 434.374 602.638 443.517C576.944 464.137 535.148 462.264 514.038 432.255C513.321 431.241 512.367 430.386 511.525 429.456C516.232 447.79 527.038 460.63 545.213 465.999C585.121 477.789 628.836 447.961 633.445 412.653Z" fill="white"/>
<path d="M323.722 625.871C315.219 637.766 315.219 637.766 314.066 651.709C304.28 654.461 281.885 650.345 274.227 644.39C268.983 640.308 267.782 635.142 270.599 628.763C274.931 618.948 284.881 613.757 296.646 615.173C304.883 616.16 314.853 620.045 323.722 625.871Z" fill="#FFD425"/>
<path d="M494.857 427.381C494.088 436.075 490.326 443.413 485.333 450.192C465.88 476.619 425.684 490.047 394.078 480.713C375.135 475.12 361.036 461.229 358.137 442.942C358.659 444.052 359.007 445.29 359.724 446.253C382.47 476.702 429.883 479.537 459.325 458.947C472.323 449.856 485.038 440.381 494.857 427.381Z" fill="black"/>
<path d="M633.446 412.652C628.837 447.961 585.122 477.788 545.214 465.998C527.039 460.63 516.233 447.789 511.526 429.456C512.367 430.385 513.321 431.24 514.038 432.254C535.149 462.264 576.944 464.136 602.638 443.516C614.035 434.373 625.055 424.858 633.446 412.652Z" fill="black"/>
<path d="M314.207 79.5023C356.164 125.447 360.364 197.786 299.971 275.932C247.447 276.244 183.794 291.644 136.227 331.409C125.431 367.53 122.813 398.237 141.807 414.622C52.7768 449.316 -21.6916 600.371 69.2409 616.188C55.3692 652.042 55.1267 811.793 147.391 747.481C157.463 837.586 245.72 895.127 318.578 823.3C352.305 885.674 468.763 922.788 482.323 825.149C573.299 895.51 643.97 815.975 688.862 738.237C732.297 733.775 765.768 713.751 774.455 655.021C795.681 663.424 816.415 662.12 836.695 656.689C837.588 649.175 837.618 641.554 836.849 633.84C835.626 621.552 834.285 609.257 828.78 596.817C826.232 599.648 824.183 601.881 822.181 604.154C812.653 614.979 802.015 624.482 788.897 630.84C776.109 637.036 762.946 639.593 749.184 633.789C748.201 633.373 747.001 633.48 745.812 633.332C744.924 638.318 744.491 642.655 743.364 646.809C731.633 690.099 709.982 724.179 661.272 733.405C660.839 735.226 660.206 737.296 659.861 739.41C656.229 761.653 644.741 779.157 627.1 792.883C612.856 803.968 596.646 811.08 579.081 814.926C555.833 820.016 532.643 820.363 509.97 811.942C504.477 809.901 499.299 807.013 493.869 804.467C492.752 805.242 491.673 805.864 490.744 806.651C464.253 829.215 433.288 838.57 398.857 836.185C368.741 834.097 344.486 821.293 328.64 794.818C327.709 793.265 326.602 791.817 325.462 790.155C323.969 790.752 322.836 791.157 321.744 791.65C278.012 811.222 237.108 804.505 199.147 777.369C183.079 765.885 173.719 749.512 171.929 729.423C171.745 727.386 170.898 725.403 170.17 722.695C164.543 722.695 159.238 722.998 153.977 722.645C117.321 720.198 91.4135 697.004 86.6231 661.807C83.7097 640.433 86.763 619.765 96.5104 600.28C97.7097 597.883 98.8191 595.449 99.8916 593.194C98.9247 592.28 98.5509 591.716 98.0247 591.46C79.4446 582.395 71.2875 566.649 70.9635 547.026C70.2632 505.054 87.6132 471.448 120.925 445.991C129.406 439.508 139.272 435.538 149.969 433.832C152.316 433.459 154.579 432.545 155.914 432.158C157.393 419.906 157.624 408.298 160.349 397.303C166.875 370.977 183.789 351.838 206.184 337.283C232.674 320.064 261.916 311.296 293.548 310.672C298.237 310.581 301.782 309.703 304.837 305.765C320.829 285.148 337.817 265.239 352.95 244.023C363.535 229.187 372.416 213.007 380.758 196.77C387.097 184.428 391.237 171.3 393.567 157.696C394.382 152.934 394.978 148.119 395.364 143.254C398.537 103.416 386.359 67.4064 367.683 33.0095C367.209 32.1335 366.11 31.5949 365.131 30.756C353.667 53.5325 335.227 68.0893 314.207 79.5023Z" fill="#C23B38"/>
<path d="M174.413 703.391C173.35 707.761 172.288 712.129 171.165 716.744C168.52 716.744 165.971 717.245 163.717 716.652C155.896 714.593 147.924 712.776 140.469 709.752C110.817 697.725 95.2852 674.136 95.8185 642.244C96.1223 623.888 101.083 606.691 110.889 591.121C114.484 585.411 119.282 580.447 123.99 574.565C115.741 575.389 111.055 581.769 104.716 586.307C87.2891 574.28 78.8553 557.887 79.956 537.214C80.4123 528.677 82.1852 519.866 85.2154 511.875C95.8139 483.921 114.49 462.409 140.445 447.278C151.892 440.603 164.272 436.931 177.926 435.719C173.297 434.588 168.667 433.455 162.97 432.064C167.586 395.518 183.655 365.817 214.27 345.19C250.286 320.924 289.536 312.213 332.849 324.202C333.16 329.394 333.416 333.639 333.667 337.882C333.991 337.964 334.312 338.044 334.633 338.124C335.586 335.051 336.568 331.988 337.485 328.908C346.595 298.259 362.781 272.26 389.28 253.58C416.573 234.338 446.633 226.775 479.673 235.324C503.283 241.435 521.559 255.382 535.903 274.707C538.483 278.175 540.894 281.771 544.904 284.643C543.081 280.764 541.666 276.619 539.332 273.071C536.395 268.61 536.381 264.426 538.885 260.046C542.565 253.604 545.472 246.447 550.289 240.962C579.942 207.207 617.209 189.911 662.668 192.546C688.41 194.042 708.266 210.326 715.371 234.486C716.914 239.739 716.997 245.418 718.016 252.845C719.465 249.315 720.494 247.343 721.102 245.249C727.225 224.242 735.955 204.46 749.038 186.757C767.272 162.088 790.653 144.989 821.471 139.493C834.69 137.136 848.066 136.223 861.509 138.312C877.78 140.839 887.901 149.989 891.577 165.996C892.383 169.516 893.017 173.076 894.967 176.496C895.11 175.123 895.518 173.714 895.35 172.378C893.688 159.084 896.732 146.415 900.931 134.045C911.208 103.788 927.743 77.4819 952.245 56.5293C969.245 41.991 988.995 34.6113 1011.57 35.4913C1026.59 36.0753 1039.69 41.7305 1049.92 52.5225C1072.31 76.164 1079.29 104.362 1072.95 135.928C1071.4 143.632 1067.71 150.419 1061.25 156.181C1054.69 150.845 1048.36 145.69 1042.02 140.535C1041.57 140.95 1041.12 141.368 1040.67 141.788C1041.89 143.293 1043.03 144.865 1044.33 146.3C1063.01 166.958 1068.27 190.953 1060.58 217.258C1050.88 250.437 1029.27 273.798 997.818 288.263C995.078 289.523 992.265 290.621 987.44 292.655C998.291 293.686 1005.86 289.582 1014.13 287.72C1014.71 288.831 1015.57 289.842 1015.75 290.966C1021.15 323.371 1018.29 354.608 1002.15 383.896C995.013 396.853 986.128 408.39 973.296 416.231C968.102 419.407 962.263 421.548 956.507 424.256C953.025 418.366 950.165 413.527 947.307 408.69C952.824 434.086 944.125 455.712 931.936 476.445C922.551 492.413 910.515 506.181 895.022 516.669C880.194 526.704 864.291 531.653 844.462 525.115C849.025 529.802 849.229 533.528 847.325 537.917C842.881 548.151 839.474 558.855 834.68 568.913C824.227 590.846 807.877 607.599 786.738 619.617C777.145 625.067 766.784 628.958 755.542 627.729C748.609 626.971 741.855 624.584 734.204 622.729C741.259 627.254 739.144 632.81 736.933 638.755C729.987 657.465 721.513 675.351 709.325 691.309C702.107 700.753 693.833 709.135 683.761 715.623C672.214 723.061 659.657 727.141 645.799 726.892C643.163 726.841 640.528 726.882 637.608 728.426C643.17 729.892 648.734 731.361 655.47 733.137C654.457 736.08 653.635 739.202 652.343 742.121C637.574 775.44 611.557 795.383 576.563 804.249C559.451 808.589 542.049 809.392 524.585 806.198C507.144 803.007 491.289 796.583 479.054 782.923C478.601 783.336 478.145 783.747 477.694 784.159C480.304 788.506 482.918 792.853 485.495 797.144C450.257 831.859 368.839 841.092 331.042 786.737C333.052 784.135 335.169 781.397 337.286 778.656C327.075 783.737 317.001 788.284 305.869 790.187C273.604 795.704 242.98 791.129 214.863 774.254C189.517 759.04 175.534 736.824 176.084 706.651C176.101 705.739 175.927 704.82 175.846 703.903C175.367 703.732 174.892 703.562 174.413 703.391ZM711.08 605.324C711.177 604.632 711.264 603.939 711.345 603.247C771.701 604.082 815.144 581.989 820.979 508.933C889.537 513.64 918.03 475.872 912.153 401.679C979.668 384.384 1013.37 354.874 971.697 298.123C1019.2 255.037 1055.37 209.966 1018.22 152.034C1052.46 -63.2989 921.307 151.581 904.711 224.155C871.112 145.809 799.373 173.059 696.309 287.028C674.504 213.62 614.531 224.217 523.262 303.671C447.206 258.932 391.541 283.689 350.213 357.298C275.323 344.323 226.633 367.808 201.356 423.869C136.169 490.588 117.067 538.993 151.118 566.258C116.26 621.292 133.854 655.472 173.444 680.912C207.261 759.424 253.754 794.728 322.305 754.88C377.047 798.477 430.091 824.332 474.882 764.125C548.937 792.846 596.208 781.636 610.715 721.595C659.855 712.287 705.945 697.244 711.08 605.324Z" fill="#F0BA23"/>
<path d="M409.839 290.47C389.646 289.361 370.343 297.635 353.057 313.334C359.75 324.069 362.239 334.625 362.152 344.501C380.469 333.576 399.995 325.572 420.079 325.131C419.584 315.071 415.899 302.584 409.839 290.47Z" fill="black"/>
<path d="M574.723 279.02C594.584 275.23 614.83 280.855 634.076 294.109C628.893 305.64 627.85 316.431 629.27 326.204C609.644 317.822 589.214 312.492 569.252 314.732C568.385 304.696 570.353 291.832 574.723 279.02Z" fill="black"/>
</svg>
