<svg width="1337" height="1772" viewBox="0 0 1337 1772" fill="none" xmlns="http://www.w3.org/2000/svg">
<path fill-rule="evenodd" clip-rule="evenodd" d="M988.888 1140.75L241.333 1552.23L0 1743.94L688.688 1772L1336.17 1140.75H988.888Z" fill="#C0C6A9"/>
<path d="M99.6631 1435.41C101.789 1433.85 104.036 1432.38 106.026 1430.72C187.708 1362.31 269.372 1293.9 351.026 1225.47C352.21 1224.48 353.277 1223.39 354.954 1221.83C342.691 1221.31 331.204 1221.07 319.782 1220.25C310.462 1219.58 301.204 1218.3 291.965 1217.06C290.359 1216.84 288.209 1215.75 287.634 1214.63C274.376 1188.88 261.189 1163.11 248.207 1137.27C200.985 1043.29 164.273 946.836 140.425 847.388C120.174 762.936 109.716 677.759 111.386 591.713C111.763 572.416 111.071 553.105 111.649 533.815C114.016 454.749 145.353 383.125 200.752 317.871C250.618 259.134 314.233 211.119 386.335 170.06C530.255 88.1055 689.91 35.4419 863.955 10.344C894.894 5.88379 926.398 3.93079 957.54 0.282104C964.901 -0.579834 970.852 0.600708 977.282 2.91821C1009.53 14.5436 1037.96 30.7371 1064.84 48.7853C1066.51 49.9055 1067.73 52.416 1067.54 54.1708C1063.58 90.9484 1058.92 127.682 1055.32 164.483C1048.95 229.646 1044.4 294.916 1047.52 360.283C1049.59 403.54 1052.49 446.843 1057.78 489.911C1063.23 534.201 1071.7 578.27 1079.5 622.363C1083.69 646.069 1089.15 669.633 1094.27 693.232C1095.06 696.861 1093.59 697.711 1089.37 698.287C942.952 718.231 806.744 759.47 680.824 822.103C678.776 823.122 676.817 824.256 675.087 825.192C677.398 831.732 680.222 837.752 681.602 843.976C686.845 867.588 676.497 887.366 656.102 904.038C649.012 909.833 640.385 914.494 632.101 919.279C629.046 921.043 627.374 922.457 627.977 925.638C631.773 945.611 635.365 965.606 639.024 985.596C639.848 986.163 640.671 986.734 641.495 987.302C642.632 985.57 643.323 983.487 644.974 982.155C678.824 954.808 712.856 927.602 746.639 900.205C751.028 896.647 755.466 895.405 761.743 895.29C815.367 894.31 868.969 892.546 922.597 891.848C998.656 890.854 1074.5 893.757 1149.98 901.695C1155.33 902.256 1156.57 903.762 1156.8 908.004C1157.99 929.992 1159.53 951.977 1161.54 973.928C1162.14 980.511 1161.04 985.898 1155.05 990.855C1149.19 995.705 1143.94 1001.09 1139.14 1006.64C1136.97 1009.15 1135.27 1012.69 1135.51 1015.65C1138.72 1055.5 1142.11 1095.35 1145.91 1135.17C1147.13 1148.05 1149.72 1160.84 1151.44 1173.69C1151.7 1175.63 1151.37 1178.17 1149.98 1179.62C1133.55 1196.67 1116.89 1213.57 1100.24 1230.49C962.56 1370.38 821.691 1508.19 674.163 1641.63C648.659 1664.7 621.252 1686.44 595.837 1709.57C589.888 1714.98 584.733 1715.18 577.361 1714.88C517.992 1712.49 458.563 1710.88 399.245 1707.9C338.605 1704.84 278.068 1700.49 217.486 1696.72C210.939 1696.32 204.384 1696 197.302 1695.61C196.499 1685.75 195.607 1676.58 195.026 1667.4C191.597 1613.15 188.117 1558.9 185.044 1504.63C184.712 1498.77 182.137 1497.42 175.28 1497.07C154.335 1495.98 133.445 1494.2 112.528 1492.76C109.455 1492.55 106.338 1492.73 102.424 1492.73C102.106 1487.45 101.692 1482.39 101.521 1477.32C101.184 1467.2 101.029 1457.08 100.68 1446.97C100.608 1444.88 100.016 1442.81 99.6631 1440.73C99.6631 1438.96 99.6631 1437.18 99.6631 1435.41ZM347.485 1203.08C348.06 1203.02 348.634 1202.95 349.208 1202.88C349.208 1201.48 349.196 1200.09 349.21 1198.69C349.923 1133.86 370.188 1073.09 409.652 1016.38C451.492 956.258 508.821 906.667 576.211 864.3C715.182 776.93 872.977 722.218 1046.35 694.969C1059 692.982 1071.73 691.33 1084.86 689.461C1084.22 687.135 1083.75 685.256 1083.2 683.388C1059.77 604.028 1041.11 524.057 1032.75 442.686C1025.95 376.529 1026.12 310.391 1032.17 244.243C1037.5 185.985 1046.8 128.09 1058.33 70.4144C1059.57 64.2245 1060.63 58.0132 1061.83 51.4606C1054.69 51.4606 1048.66 51.259 1042.67 51.4941C994.627 53.3644 946.971 57.83 899.754 65.1479C737.786 90.2546 589.214 140.13 455.6 217.363C388.111 256.372 327.985 301.404 280.204 356.161C220.767 424.277 188.435 499.459 189.692 582.715C190.267 620.843 192.87 658.992 196.196 697.041C201.264 754.977 212.332 812.332 226.251 869.324C249.679 965.255 282.857 1059.08 323.761 1151.2C331.468 1168.55 339.569 1185.79 347.485 1203.08ZM111.471 1433.02C114.667 1433.13 116.808 1433.27 118.952 1433.28C166.103 1433.62 213.258 1433.72 260.405 1434.32C361.903 1435.62 463.106 1440.28 563.603 1452.29C568.06 1452.82 571.089 1451.94 573.924 1449.04C580.635 1442.17 587.757 1435.55 594.756 1428.87C776.305 1255.36 956.633 1081.04 1142.76 910.597C1144.07 909.394 1145.16 908.032 1147.14 905.9C1141.49 905.9 1137.48 905.932 1133.47 905.893C1075.14 905.332 1016.8 905.336 958.502 904.042C891.736 902.563 825.012 899.902 758.261 897.927C755.871 897.856 752.729 899.147 751.057 900.61C715.757 931.497 680.674 962.54 645.353 993.409C641.96 996.374 640.996 999.221 641.639 1002.98C643.203 1012.12 644.461 1021.3 645.871 1030.45C646.575 1035.03 647.344 1039.6 648.084 1044.17C648.666 1044.57 649.247 1044.98 649.828 1045.38C655.517 1032.97 668.162 1034.8 679.774 1034.64C731.38 1033.89 782.988 1033.19 834.597 1032.5C836.649 1032.47 838.708 1032.67 840.818 1032.77C835.303 1038.8 830.135 1044.32 825.141 1049.93C819.981 1055.73 815.003 1061.62 809.923 1067.46C757.181 1128.09 703.188 1187.95 641.023 1242.85C637.802 1245.7 635.861 1249.44 633.004 1252.58C631.887 1253.8 629.93 1255.24 628.262 1255.32C622.1 1255.61 615.893 1255.48 609.713 1255.32C557.008 1253.97 504.306 1252.56 451.602 1251.2C448.453 1251.11 445.298 1251.19 440.946 1251.19C443.049 1248.87 444.036 1247.71 445.127 1246.61C493.223 1198.07 541.346 1149.56 589.36 1100.97C591.148 1099.16 592.98 1096.63 592.869 1094.5C592.03 1078.19 590.716 1061.9 589.522 1045.6C589.478 1045 589.144 1044.41 588.717 1043.12C433.004 1175.99 277.46 1307.92 111.471 1433.02ZM577.968 1704.96C577.251 1695.74 576.505 1687.44 575.978 1679.13C572.622 1626.3 569.237 1573.47 566.128 1520.63C565.857 1516.03 563.984 1514.61 558.357 1514.41C500.761 1512.33 443.165 1510.22 385.593 1507.81C334.049 1505.65 282.531 1503.11 231.005 1500.69C219.502 1500.15 208.013 1499.45 197.032 1498.85C202.234 1564.21 207.386 1628.94 212.586 1694.27C333.614 1694.16 455.523 1695.15 577.968 1704.96ZM1095.12 1176.74C1094.17 1176.69 1092.47 1176.55 1090.76 1176.54C1049.41 1176.2 1008.06 1175.94 966.725 1175.44C961.305 1175.37 957.751 1176.61 954.156 1179.88C884.629 1242.89 815.1 1305.91 745.231 1368.69C705.855 1404.07 665.828 1438.99 626.243 1474.22C624.097 1476.13 621.935 1479.09 622.129 1481.43C625.677 1524.11 629.581 1566.76 633.435 1609.42C633.504 1610.2 633.847 1610.96 634.041 1611.65C787.835 1466.58 941.396 1321.74 1095.12 1176.74ZM182.564 584.613C182.564 581.383 182.638 579.273 182.554 577.167C179.74 507.607 199.704 442.373 241.716 381.379C283.237 321.097 339.928 270.885 407.768 229.003C590.883 115.945 797.775 53.0759 1030.47 46.0619C1031.19 46.0399 1031.91 45.8268 1032.99 45.6418C1010.1 33.2471 987.82 21.1348 965.427 9.15161C963.971 8.37073 961.618 8.16748 959.798 8.3689C932.154 11.4003 904.349 13.7747 876.93 17.7965C736.293 38.4146 604.508 77.9878 481.73 136.208C398.966 175.454 323.049 221.604 258.944 279.232C200.577 331.702 156.776 390.643 133.881 458.735C121.874 494.445 116.39 530.796 117.035 567.745C117.075 570.109 116.902 572.108 120.952 572.853C141.15 576.571 161.282 580.526 182.564 584.613ZM1151.12 907.838C1141.55 917.83 1133.36 926.637 1124.84 935.233C948.241 1113.32 767.366 1288.55 574.012 1455.45C572.042 1457.15 570.558 1460.11 570.783 1462.36C572.229 1476.86 574.198 1491.32 576.059 1505.8C576.198 1506.89 576.837 1507.94 577.454 1509.56C579.477 1507.76 580.967 1506.47 582.405 1505.15C675.423 1419.58 768.725 1334.2 861.287 1248.32C891.03 1220.72 924.969 1195.82 948.813 1164.32C949.372 1163.58 950.907 1163.32 951.979 1162.82C954.515 1161.64 957.624 1160.86 959.489 1159.2C973.627 1146.63 987.56 1133.9 1001.49 1121.18C1050.75 1076.18 1100.01 1031.17 1149.15 986.088C1151.19 984.22 1153.31 981.53 1153.27 979.246C1152.82 956.009 1151.94 932.776 1151.12 907.838ZM356.318 1218.82C357.01 1219.25 357.702 1219.69 358.395 1220.12C359.718 1218.74 360.883 1217.23 362.384 1215.98C436.631 1154.3 510.933 1092.65 585.06 1030.87C587.353 1028.96 588.956 1025.71 589.032 1023.06C589.859 994.501 590.319 965.939 590.854 937.376C590.882 935.851 590.666 934.323 590.526 932.229C566.749 934.344 544.906 932.231 528.031 916.919C421.756 1000.47 356.668 1098.05 356.318 1218.82ZM456.352 1243.71C456.68 1244.08 457.009 1244.45 457.339 1244.83C459.113 1244.83 460.889 1244.85 462.664 1244.82C510.033 1244.1 557.412 1242.59 604.762 1243.06C621.164 1243.22 630.687 1239.19 640.383 1229.01C698.936 1167.61 756.957 1105.84 821.459 1048.18C821.958 1047.74 822.16 1047.08 822.74 1046.13C820.825 1045.99 819.541 1045.84 818.254 1045.81C801.275 1045.44 784.283 1045.3 767.322 1044.7C733.167 1043.48 699.032 1041.98 664.879 1040.75C662.829 1040.67 660.082 1041.54 658.709 1042.73C651.314 1049.15 649.171 1056.37 649.737 1065.46C651.204 1088.99 651.407 1112.62 650.401 1136.16C650.044 1144.51 646.342 1153.4 641.322 1160.83C633.743 1172.04 619.098 1171.59 611.259 1160.54C607.469 1155.21 604.681 1149.25 602.709 1143.3C599.618 1133.99 597.602 1124.45 594.913 1114.17C552.229 1160.27 507.194 1203.95 456.352 1243.71ZM124.158 588.246C124.158 590.388 124.043 592.633 124.176 594.868C125.744 620.747 126.886 646.651 129.042 672.5C133.346 724.068 142.273 775.198 153.815 826.031C172.821 909.745 199.12 992.042 232.594 1072.82C250.524 1116.08 270.541 1158.8 289.744 1201.73C290.532 1203.5 292.583 1206.23 294.122 1206.26C309.45 1206.6 324.794 1206.46 340.21 1206.46C340.188 1206.71 340.362 1206.33 340.222 1206.03C339.522 1204.54 338.776 1203.06 337.977 1201.59C263.453 1065.46 212.061 924.232 189.168 776.686C180.328 719.704 176.169 662.525 176.688 605.124C176.757 597.646 176.795 597.859 167.678 596.288C153.348 593.819 139.106 591.028 124.158 588.246ZM590.71 1705.61C591.622 1705.88 592.532 1706.14 593.444 1706.42C595.095 1705.21 596.959 1704.15 598.362 1702.78C643.907 1658.54 689.157 1614.11 734.966 1570.04C868.119 1441.93 1001.51 1313.98 1134.64 1185.86C1136.72 1183.86 1137.81 1180.42 1137.5 1177.79C1136.18 1166.32 1133.49 1154.93 1132.53 1143.44C1129.8 1110.69 1127.67 1077.9 1125.33 1045.13C1124.8 1037.76 1124.37 1030.39 1123.88 1022.76C1109.75 1030.75 1104.54 1039.62 1106.26 1051.9C1106.82 1055.95 1107.21 1060.03 1107.51 1064.1C1109.92 1097.41 1112.31 1130.72 1114.63 1164.03C1114.72 1165.34 1114.59 1167.04 1113.64 1167.96C1107.18 1174.22 1100.09 1180.08 1093.91 1186.5C986.718 1297.73 875.218 1406.19 760.585 1512.6C718.326 1551.83 674.001 1589.65 630.589 1628.1C628.898 1629.6 626.907 1630.88 623.451 1633.47C617.255 1583.58 616.359 1535.07 613.249 1485.49C601.257 1495.85 590.402 1505.04 579.938 1514.5C578.35 1515.93 577.908 1518.67 578.069 1520.75C582.191 1573.69 586.557 1626.64 590.617 1679.59C591.281 1688.23 590.71 1696.93 590.71 1705.61ZM111.302 1435.01C113.27 1454.06 115.141 1472.18 117.066 1490.84C266.886 1490.99 416.204 1492.1 563.976 1509.27C563.976 1491.56 563.976 1474.66 563.976 1457.37C412.585 1450.51 262.048 1448.02 111.302 1435.01ZM1095.14 1049.14C1054.16 1087.34 1014.17 1124.62 973.669 1162.37C1017.2 1164.26 1059.74 1166.1 1102.38 1167.95C1099.99 1128.63 1097.6 1089.57 1095.14 1049.14ZM627.564 1153.21C628.416 1153 629.266 1152.78 630.118 1152.56C630.805 1150.56 631.957 1148.57 632.107 1146.54C633.2 1131.86 635.572 1117.12 634.781 1102.49C631.631 1044.14 627.478 985.838 623.651 927.52C623.577 926.375 622.939 925.252 622.571 924.147C613.135 926.788 604.125 929.307 594.775 931.925C594.775 933.285 594.712 934.692 594.784 936.094C597.441 988.776 599.986 1041.48 608.355 1093.83C610.989 1110.3 616.066 1126.55 620.627 1142.79C621.665 1146.49 625.186 1149.75 627.564 1153.21ZM533.971 912.486C558.148 927.057 601.11 924.036 631.084 906.368C659.119 889.844 673.047 860.075 663.017 831.257C617.06 855.526 573.738 882.115 533.971 912.486Z" fill="black"/>
<path d="M347.485 1203.08C339.569 1185.79 331.468 1168.55 323.761 1151.2C282.857 1059.08 249.679 965.254 226.251 869.323C212.332 812.331 201.264 754.976 196.197 697.04C192.87 658.991 190.267 620.842 189.692 582.715C188.435 499.459 220.767 424.277 280.204 356.161C327.985 301.404 388.111 256.371 455.6 217.362C589.214 140.13 737.786 90.254 899.754 65.1473C946.971 57.8293 994.627 53.3638 1042.67 51.4935C1048.66 51.2583 1054.69 51.4598 1061.83 51.4598C1060.63 58.0125 1059.57 64.2238 1058.33 70.4138C1046.8 128.089 1037.5 185.985 1032.17 244.242C1026.12 310.39 1025.95 376.529 1032.75 442.685C1041.11 524.056 1059.77 604.027 1083.2 683.388C1083.75 685.255 1084.22 687.134 1084.86 689.46C1071.73 691.329 1059 692.981 1046.35 694.968C872.977 722.217 715.182 776.929 576.211 864.299C508.821 906.667 451.493 956.257 409.652 1016.38C370.189 1073.09 349.923 1133.86 349.21 1198.69C349.196 1200.08 349.209 1201.48 349.209 1202.88C348.634 1202.95 348.06 1203.02 347.485 1203.08Z" fill="#5C616B"/>
<path d="M111.472 1433.02C277.46 1307.92 433.004 1175.99 588.717 1043.12C589.144 1044.41 589.478 1045 589.523 1045.6C590.717 1061.9 592.03 1078.19 592.869 1094.5C592.981 1096.64 591.149 1099.16 589.36 1100.97C541.347 1149.56 493.224 1198.07 445.128 1246.61C444.037 1247.71 443.049 1248.87 440.946 1251.19C445.299 1251.19 448.453 1251.11 451.602 1251.2C504.307 1252.56 557.009 1253.97 609.713 1255.32C615.894 1255.48 622.101 1255.61 628.263 1255.32C629.93 1255.24 631.888 1253.8 633.004 1252.58C635.862 1249.44 637.802 1245.7 641.024 1242.86C703.188 1187.95 757.181 1128.09 809.924 1067.46C815.003 1061.62 819.982 1055.73 825.142 1049.93C830.135 1044.32 835.303 1038.8 840.819 1032.78C838.709 1032.67 836.65 1032.47 834.598 1032.5C782.989 1033.19 731.381 1033.9 679.774 1034.64C668.162 1034.8 655.517 1032.97 649.829 1045.38C649.247 1044.98 648.666 1044.58 648.085 1044.17C647.345 1039.6 646.575 1035.03 645.871 1030.45C644.461 1021.3 643.204 1012.12 641.639 1002.98C640.996 999.222 641.961 996.374 645.354 993.41C680.675 962.54 715.758 931.497 751.057 900.611C752.729 899.148 755.871 897.857 758.262 897.928C825.013 899.902 891.736 902.564 958.503 904.043C1016.8 905.336 1075.14 905.333 1133.47 905.894C1137.48 905.932 1141.49 905.9 1147.14 905.9C1145.16 908.033 1144.07 909.395 1142.76 910.598C956.634 1081.04 776.306 1255.37 594.757 1428.87C587.758 1435.55 580.636 1442.17 573.924 1449.04C571.09 1451.94 568.06 1452.82 563.604 1452.29C463.106 1440.28 361.903 1435.63 260.405 1434.32C213.259 1433.72 166.103 1433.62 118.953 1433.28C116.809 1433.27 114.668 1433.14 111.472 1433.02Z" fill="#E9CD6B"/>
<path d="M577.968 1704.96C455.523 1695.15 333.613 1694.16 212.585 1694.27C207.385 1628.94 202.234 1564.21 197.031 1498.85C208.013 1499.45 219.502 1500.15 231.005 1500.69C282.531 1503.11 334.049 1505.65 385.593 1507.81C443.165 1510.22 500.761 1512.33 558.357 1514.41C563.984 1514.61 565.857 1516.03 566.128 1520.63C569.237 1573.47 572.621 1626.3 575.978 1679.13C576.505 1687.44 577.251 1695.74 577.968 1704.96Z" fill="#E9CD6B"/>
<path d="M1095.12 1176.74C941.397 1321.74 787.835 1466.58 634.041 1611.65C633.847 1610.96 633.504 1610.2 633.435 1609.42C629.581 1566.76 625.677 1524.11 622.129 1481.43C621.935 1479.09 624.097 1476.13 626.243 1474.22C665.828 1438.99 705.855 1404.07 745.231 1368.69C815.101 1305.91 884.629 1242.89 954.156 1179.87C957.751 1176.61 961.305 1175.37 966.725 1175.44C1008.07 1175.94 1049.41 1176.2 1090.76 1176.54C1092.47 1176.55 1094.17 1176.69 1095.12 1176.74Z" fill="#E9CD6B"/>
<path d="M182.564 584.612C161.281 580.525 141.15 576.57 120.952 572.852C116.902 572.107 117.075 570.109 117.035 567.744C116.39 530.795 121.873 494.445 133.881 458.735C156.776 390.643 200.577 331.701 258.944 279.231C323.048 221.604 398.966 175.453 481.73 136.207C604.508 77.9875 736.293 38.4142 876.93 17.7961C904.349 13.7743 932.154 11.4 959.797 8.36859C961.618 8.16718 963.971 8.37048 965.427 9.15125C987.819 21.1344 1010.1 33.2467 1032.99 45.6416C1031.91 45.8264 1031.19 46.0396 1030.47 46.0615C797.774 53.0756 590.883 115.945 407.768 229.003C339.928 270.885 283.237 321.097 241.716 381.378C199.703 442.372 179.74 507.607 182.554 577.166C182.638 579.272 182.564 581.383 182.564 584.612Z" fill="#C6C6C2"/>
<path d="M1151.12 907.837C1151.94 932.776 1152.82 956.008 1153.27 979.246C1153.31 981.53 1151.19 984.22 1149.15 986.087C1100.01 1031.17 1050.75 1076.18 1001.49 1121.18C987.56 1133.9 973.627 1146.63 959.489 1159.2C957.625 1160.86 954.515 1161.64 951.979 1162.82C950.907 1163.32 949.372 1163.58 948.814 1164.32C924.969 1195.82 891.03 1220.72 861.288 1248.32C768.725 1334.2 675.423 1419.58 582.405 1505.15C580.968 1506.47 579.478 1507.76 577.454 1509.56C576.837 1507.94 576.199 1506.89 576.059 1505.8C574.199 1491.32 572.229 1476.86 570.783 1462.36C570.559 1460.11 572.043 1457.15 574.013 1455.45C767.367 1288.55 948.241 1113.32 1124.84 935.233C1133.36 926.636 1141.55 917.829 1151.12 907.837Z" fill="#CE9921"/>
<path d="M456.352 1243.71C507.194 1203.95 552.228 1160.27 594.912 1114.17C597.602 1124.44 599.618 1133.99 602.708 1143.3C604.681 1149.25 607.469 1155.21 611.259 1160.54C619.098 1171.59 633.743 1172.04 641.321 1160.83C646.342 1153.4 650.044 1144.5 650.401 1136.16C651.407 1112.62 651.204 1088.99 649.737 1065.46C649.17 1056.37 651.314 1049.15 658.708 1042.73C660.082 1041.54 662.829 1040.67 664.879 1040.75C699.031 1041.97 733.167 1043.48 767.321 1044.7C784.283 1045.3 801.275 1045.44 818.254 1045.81C819.541 1045.84 820.825 1045.99 822.74 1046.13C822.16 1047.08 821.957 1047.74 821.458 1048.18C756.957 1105.84 698.936 1167.61 640.383 1229.01C630.686 1239.18 621.163 1243.21 604.761 1243.06C557.412 1242.59 510.033 1244.1 462.664 1244.82C460.888 1244.85 459.113 1244.83 457.339 1244.83C457.009 1244.45 456.679 1244.08 456.352 1243.71Z" fill="#9BA0B3"/>
<path d="M124.159 588.247C139.106 591.029 153.348 593.819 167.678 596.289C176.795 597.86 176.757 597.646 176.688 605.124C176.17 662.526 180.328 719.705 189.168 776.687C212.062 924.233 263.454 1065.47 337.977 1201.59C338.777 1203.06 339.522 1204.54 340.223 1206.03C340.362 1206.33 340.188 1206.71 340.21 1206.47C324.795 1206.47 309.45 1206.6 294.122 1206.26C292.583 1206.23 290.532 1203.5 289.744 1201.73C270.541 1158.8 250.525 1116.08 232.594 1072.82C199.121 992.043 172.821 909.746 153.815 826.032C142.274 775.199 133.346 724.069 129.042 672.501C126.886 646.652 125.744 620.748 124.176 594.868C124.043 592.633 124.159 590.389 124.159 588.247Z" fill="#C6C6C2"/>
<path d="M590.711 1705.61C590.711 1696.93 591.281 1688.23 590.618 1679.59C586.557 1626.64 582.191 1573.7 578.07 1520.75C577.909 1518.67 578.351 1515.93 579.938 1514.5C590.402 1505.04 601.257 1495.85 613.249 1485.49C616.359 1535.07 617.255 1583.58 623.451 1633.47C626.908 1630.88 628.899 1629.6 630.589 1628.1C674.001 1589.66 718.326 1551.83 760.585 1512.6C875.218 1406.19 986.718 1297.73 1093.91 1186.5C1100.09 1180.08 1107.18 1174.22 1113.64 1167.96C1114.59 1167.04 1114.72 1165.34 1114.63 1164.03C1112.31 1130.72 1109.92 1097.41 1107.51 1064.1C1107.21 1060.03 1106.82 1055.95 1106.26 1051.9C1104.54 1039.62 1109.75 1030.75 1123.88 1022.76C1124.37 1030.39 1124.8 1037.76 1125.33 1045.13C1127.67 1077.9 1129.8 1110.69 1132.53 1143.44C1133.49 1154.93 1136.18 1166.32 1137.5 1177.79C1137.81 1180.42 1136.72 1183.86 1134.64 1185.86C1001.51 1313.98 868.119 1441.93 734.966 1570.04C689.158 1614.11 643.907 1658.54 598.363 1702.78C596.959 1704.15 595.095 1705.21 593.444 1706.42C592.533 1706.14 591.622 1705.88 590.711 1705.61Z" fill="#CE9921"/>
<path d="M111.302 1435.01C262.048 1448.02 412.585 1450.51 563.975 1457.37C563.975 1474.66 563.975 1491.56 563.975 1509.26C416.204 1492.1 266.886 1490.99 117.066 1490.84C115.141 1472.18 113.27 1454.06 111.302 1435.01Z" fill="#CE9921"/>
<path d="M1095.14 1049.14C1097.6 1089.57 1099.99 1128.63 1102.38 1167.95C1059.74 1166.1 1017.2 1164.26 973.669 1162.37C1014.17 1124.62 1054.16 1087.33 1095.14 1049.14Z" fill="#CE9921"/>
<path d="M627.565 1153.21C625.187 1149.75 621.665 1146.49 620.627 1142.79C616.067 1126.55 610.99 1110.3 608.356 1093.83C599.986 1041.48 597.441 988.776 594.784 936.094C594.713 934.692 594.776 933.285 594.776 931.925C604.126 929.307 613.135 926.788 622.572 924.147C622.94 925.252 623.578 926.375 623.652 927.52C627.478 985.838 631.632 1044.14 634.782 1102.49C635.572 1117.12 633.2 1131.86 632.108 1146.54C631.958 1148.57 630.806 1150.56 630.118 1152.56C629.266 1152.78 628.416 1153 627.565 1153.21Z" fill="#9BA0B3"/>
<path d="M533.971 912.485C573.738 882.114 617.061 855.525 663.017 831.256C673.047 860.074 659.119 889.844 631.084 906.368C601.111 924.036 558.148 927.056 533.971 912.485Z" fill="#9BA0B3"/>
<path d="M200.636 1544.13L197.031 1498.85C208.013 1499.45 219.502 1500.15 231.005 1500.69C282.531 1503.11 334.049 1505.65 385.591 1507.81C443.165 1510.22 500.761 1512.32 558.357 1514.41C563.982 1514.61 565.855 1516.03 566.125 1520.63C566.681 1530.08 567.248 1539.53 567.82 1548.99C513.381 1533.29 446.934 1524.06 375.205 1524.06C311.219 1524.06 251.442 1531.4 200.636 1544.13Z" fill="#DCB440"/>
<path d="M681.334 1034.61L679.773 1034.63C668.164 1034.8 655.518 1032.97 649.826 1045.38C649.244 1044.97 648.666 1044.57 648.082 1044.17C647.342 1039.6 646.577 1035.03 645.87 1030.45C644.46 1021.3 643.203 1012.12 641.641 1002.98C641.25 1000.69 641.45 998.746 642.433 996.9C736.564 958.027 834.77 927.821 939.223 917.742C963.744 923.421 1003.59 931.539 1028.11 937.218C886.432 960.971 770.522 994.198 681.334 1034.61Z" fill="#DCB440"/>
<path d="M400.758 1202.16C463.84 1149.55 526.266 1096.41 588.717 1043.12C589.144 1044.41 589.476 1045 589.523 1045.6C590.438 1058.08 591.423 1070.57 592.21 1083.06C530.551 1123.72 490.564 1169.45 472.872 1218.61L445.125 1246.61C444.037 1247.71 443.051 1248.87 440.946 1251.19C445.298 1251.19 448.453 1251.11 451.602 1251.2L464.419 1251.53C460.386 1277.51 462.297 1304.31 470.228 1331.7C430.381 1340.62 399.727 1349.55 359.88 1358.48C358.305 1311.12 371.885 1258.22 400.758 1202.16Z" fill="#DCB440"/>
<path fill-rule="evenodd" clip-rule="evenodd" d="M466.706 317.17C513.347 350.668 537.224 349.189 520.211 284.845C553.939 310.095 578.437 314.425 573.714 252.517C598.084 303.301 617.847 308.838 629.345 233.043C646.57 270.9 664.558 283.004 684.978 213.567C684.689 276.67 698.406 288.682 737.289 208.855C736.319 255.609 746.037 274.301 789.609 204.133C764.69 273.379 771.015 290.683 833.483 214.642C814.409 265.721 814.904 289.169 877.357 225.145C830.251 293.752 828.562 314.658 908.5 249.844C873.195 300.24 864.426 326.152 939.637 274.537C876.478 334.353 865.923 357.167 948.869 314.211L948.723 316.92C910.47 353.338 896.53 374.846 947.529 356.512C947.516 358.448 947.512 360.386 947.512 362.322C897.23 396.171 889.165 411.509 948.264 397.392C948.374 399.889 948.495 402.388 948.624 404.885C911.22 430.023 900.169 445.714 951.165 439.153L951.505 442.596C884.361 469.125 870.459 485.715 947.486 485.339C888.766 506.73 860.467 525.087 928.465 533.845C852.715 542.748 827.788 557.146 894.203 581.431C838.658 587.328 808.742 599.015 859.95 629.023C795.608 616.095 769.951 624.441 813.811 671.039C771.406 661.845 743.963 664.118 760.749 700.278C748.472 698.095 733.806 685.139 716.002 692.126C700.07 698.383 709.889 731.752 711.255 735.896C669.995 706.706 660.446 761.089 653.661 764.596C623.793 726.279 607.772 787.858 607.655 787.926C594.509 768.733 567.95 760.469 552.893 805.513L549.346 808.026C548.331 752.619 534.13 745.327 497.089 821.369C498.06 774.613 488.342 755.923 444.772 826.087C469.689 756.844 463.364 739.539 400.896 815.582C419.97 764.503 419.475 741.055 357.021 805.077C404.13 736.471 405.817 715.562 325.881 780.38C361.184 729.98 369.955 704.068 294.741 755.685C359.376 694.474 368.937 672.003 279.565 719.118L279.553 719.054C325.526 676.204 343.07 650.785 273.45 678.844L273.205 676.886C340.231 633.68 352.295 614.574 269.309 637.149L269.22 636.029C322.991 602.374 344.467 580.3 267.869 593.395C347.611 563.524 369.36 544.48 286.895 544.883C345.613 523.493 373.914 505.136 305.913 496.379C381.663 487.474 406.586 473.072 340.176 448.792C395.721 442.895 425.639 431.207 374.43 401.197C438.771 414.128 464.427 405.778 420.57 359.184C467.501 369.362 496.115 365.494 466.706 317.17Z" fill="#FFE200"/>
<path fill-rule="evenodd" clip-rule="evenodd" d="M489.462 347.099C529.045 375.534 549.313 374.278 534.875 319.662C563.502 341.095 584.295 344.77 580.284 292.222C600.967 335.331 617.752 340.027 627.507 275.697C642.127 307.826 657.396 318.098 674.73 259.163C674.48 312.725 686.124 322.919 719.132 255.16C718.306 294.849 726.555 310.713 763.533 251.156C742.384 309.934 747.755 324.62 800.778 260.075C784.59 303.431 785.009 323.334 838.015 268.992C798.035 327.223 796.604 344.97 864.45 289.954C834.484 332.731 827.04 354.726 890.882 310.914C835.983 362.904 827.891 381.974 903.923 341.87C863.111 379.888 848.527 401.819 916.959 372.825C852.508 413.488 838.549 432.012 915.325 410.746C867.667 440.279 847.367 460.003 913.691 448.665C846.005 474.016 827.547 490.182 897.545 489.844C847.703 507.998 823.681 523.579 881.399 531.011C817.1 538.571 795.948 550.791 852.322 571.404C805.169 576.41 779.779 586.329 823.243 611.802C768.63 600.824 746.852 607.911 784.078 647.461C744.244 638.824 719.962 642.107 744.916 683.123C705.333 654.692 685.065 655.948 699.505 710.562C670.876 689.127 650.084 685.455 654.094 738.001C633.411 694.895 616.627 690.198 606.871 754.529C592.251 722.396 576.985 712.124 559.65 771.061C559.898 717.501 548.254 707.306 515.25 775.064C516.072 735.375 507.823 719.513 470.845 779.066C491.995 720.292 486.623 705.603 433.6 770.15C449.788 726.794 449.37 706.892 396.365 761.234C436.346 702.999 437.777 685.254 369.929 740.272C399.894 697.491 407.339 675.496 343.496 719.31C398.395 667.318 406.487 648.25 330.455 688.354C371.267 650.334 385.85 628.404 317.421 657.397C381.87 616.737 395.831 598.213 319.055 619.478C366.712 589.944 387.012 570.22 320.689 581.558C388.373 556.206 406.833 540.04 336.837 540.381C386.677 522.225 410.7 506.643 352.98 499.212C417.278 491.653 438.432 479.431 382.058 458.82C429.209 453.812 454.6 443.895 411.136 418.425C465.748 429.397 487.526 422.311 450.3 382.761C490.134 391.399 514.417 388.116 489.462 347.099Z" fill="#FFFF00"/>
<path d="M378.307 634.519C381.251 664.018 410.878 652.643 448.568 618.395C474.794 594.568 496.347 556.49 496.347 533.65C496.347 487.818 437.105 545.543 423.033 585.452C429.332 583.909 435.678 582.416 442.026 580.923C444.043 576.793 448.58 564.16 460.821 553.256C467.964 546.895 471.24 549.573 470.812 554.997C469.374 573.108 456.596 590.853 442.813 602.67C424.908 618.023 405.289 623.968 405.861 601.923C406.91 561.518 447.537 523.298 476.124 506.23C479.519 496.627 482.916 486.973 486.359 477.27C455.213 494.586 426.918 523.377 407.337 553.256C387.46 583.59 376.235 613.762 378.307 634.519ZM570.645 510.461C576.943 516.579 591.26 508.966 603.908 496.427C603.073 489.362 602.235 482.344 601.447 475.328C582.061 502.299 583.566 454.781 585.555 432.733C585.631 431.888 585.751 431.04 585.751 430.343C577.779 435.171 569.81 440.046 561.838 445.023C561.691 447.759 561.542 450.497 561.445 453.233C531.627 464.927 495.42 512.103 496.69 540.665C498.075 571.718 540.384 552.758 570.645 510.461ZM522.82 520.86C521.298 503.723 548.553 472.84 560.803 476.422C561.346 483.639 561.888 490.904 562.477 498.118C555.098 513.745 524.344 538.059 522.82 520.86ZM605.679 414.419C605.679 442.435 605.679 470.451 605.679 498.467C613.649 493.79 621.62 489.161 629.592 484.732C629.592 471.646 629.592 458.508 629.592 445.372C629.592 420.39 669.2 391.478 669.004 421.535C669.2 418.548 668.166 461.246 667.972 462.887C677.22 458.907 686.473 454.976 695.772 451.491C692.475 413.473 697.888 395.064 711.075 391.676C728.111 387.298 729.081 408.399 720.866 445.122C729.918 442.833 738.972 440.644 748.075 438.603C765.199 387.099 740.891 338.083 685.733 391.977C676.138 375.057 639.187 393.818 629.395 419.445C629.788 412.926 630.183 406.357 630.623 399.789C622.309 404.415 613.993 409.393 605.679 414.419ZM757.374 400.436C760.033 440.524 824.981 447.611 853.766 417.802C846.68 413.324 839.595 408.845 832.557 404.815C815.189 419.146 788.423 418.151 784.536 401.082C805.694 398.494 826.85 397.898 848.059 398.894C866.067 341.864 753.296 338.911 757.374 400.436ZM809.877 369.782C821.565 370.365 824.981 377.546 825.179 383.616C811.353 383.515 797.525 384.412 783.701 385.806C784.929 373.366 798.677 369.223 809.877 369.782ZM548.06 598.191C547.202 570.385 525.6 556.749 487.786 589.234C455.327 617.118 426.723 668.208 426.723 697.567C426.723 725.634 449.966 724.515 483.061 700.702C530.475 666.584 548.625 616.474 548.06 598.191ZM454.672 671.442C455.602 629.441 519.423 570.922 519.423 616.952C519.423 641.285 502.442 665.867 485.915 678.955C469.771 691.743 454.177 693.781 454.672 671.442ZM581.272 628.099C588.408 623.271 595.543 618.395 602.677 613.617C612.96 582.615 623.246 551.612 633.53 520.86C624.18 525.538 614.881 530.464 605.582 535.391C600.314 552.41 595.05 569.427 589.835 586.645C583.98 576.344 578.124 566.044 572.268 555.743C562.724 562.512 553.178 569.579 543.683 576.546C556.18 593.463 568.728 610.482 581.272 628.099ZM628.755 561.167C631.427 601.355 696.362 581.77 725.193 537.133C718.109 535.938 711.024 534.942 703.938 534.047C686.57 556.638 659.804 566.94 655.916 551.066C677.073 539.722 698.23 529.32 719.439 520.214C737.446 452.237 624.687 499.94 628.755 561.167ZM681.256 508.121C692.759 503.543 696.362 508.966 696.558 515.187C682.734 521.605 668.906 528.474 655.128 535.74C656.358 522.403 669.873 512.652 681.256 508.121ZM732.231 553.852C740.94 550.965 749.649 548.18 758.409 545.841C757.621 529.916 756.884 513.943 756.145 497.97C766.379 477.666 786.358 491.401 777.597 506.279C785.469 505.982 793.342 505.883 801.265 505.833C816.616 476.125 780.648 451.79 754.078 481.1C753.881 476.523 753.685 471.944 753.488 467.317C745.172 469.656 736.858 472.343 728.591 475.078C729.772 501.304 731.003 527.629 732.231 553.852Z" fill="black"/>
</svg>
