<svg width="231" height="415" viewBox="0 0 231 415" fill="none" xmlns="http://www.w3.org/2000/svg">
<path fill-rule="evenodd" clip-rule="evenodd" d="M88.4765 415C102.264 414.193 116.07 413.695 129.838 412.493C142.471 411.386 155.059 409.445 167.269 405.066C170.316 403.971 173.241 402.348 176.177 400.835C177.213 400.303 178.18 399.485 179.06 398.619C181.582 396.142 181.566 393.778 178.723 391.753C176.587 390.228 174.221 388.89 171.817 388.252C164.467 386.309 157.093 384.36 149.649 383.105C132.688 380.243 115.613 378.82 98.5088 377.783C77.5295 376.508 56.7634 378.407 36.2979 384.063C29.9989 385.805 23.9201 388.825 17.8258 391.54C15.8345 392.427 13.9588 393.971 12.2915 395.608C9.44591 398.403 9.6346 401.228 12.8341 403.507C14.7806 404.894 16.9222 406.113 19.1051 406.734C24.7629 408.34 30.4519 409.937 36.201 410.891C53.4254 413.746 68.9667 414.556 88.4765 415Z" fill="#C0C6A9"/>
<path d="M151.808 394.319C153.309 393.876 154.778 393.302 156.255 392.769C157.456 392.337 158.048 391.483 157.867 390.07C157.443 386.754 157.019 383.436 156.646 380.114C156.546 379.235 156.529 378.319 156.647 377.446C156.819 376.191 156.469 375.174 155.536 374.524C154.455 373.772 153.322 372.952 152.102 372.615C148.397 371.588 144.674 370.553 140.898 369.934C132.799 368.606 124.629 368 116.439 367.717C110.855 367.524 105.272 367.262 99.6868 367.113C97.9392 367.068 96.1826 367.262 94.4342 367.387C86.7224 367.939 78.9893 368.268 71.3756 369.866C67.6026 370.657 63.8412 371.544 60.3633 373.326C58.5109 374.278 56.7999 375.589 55.1267 376.887C54.0737 377.704 53.7302 378.951 53.8467 380.42C53.9558 381.796 53.8141 383.203 53.7246 384.592C53.3985 389.689 53.2626 394.772 54.2955 399.811C54.8231 402.376 54.9684 402.504 57.3318 402.74C79.9825 404.995 130.41 400.636 151.808 394.319Z" fill="black"/>
<path d="M101.063 386.98C108.91 386.574 116.767 386.324 124.602 385.718C131.792 385.161 138.956 384.183 145.905 381.978C147.639 381.426 149.304 380.609 150.974 379.847C151.564 379.579 152.114 379.168 152.615 378.731C154.051 377.484 154.041 376.294 152.423 375.274C151.208 374.506 149.861 373.832 148.493 373.511C144.31 372.532 140.114 371.551 135.877 370.919C126.224 369.478 116.507 368.761 106.773 368.239C94.8332 367.597 83.0151 368.553 71.3673 371.402C67.7825 372.279 64.3233 373.8 60.8553 375.166C59.7214 375.613 58.6545 376.391 57.7055 377.215C56.0858 378.622 56.1934 380.046 58.014 381.193C59.1221 381.891 60.3407 382.505 61.5832 382.818C64.8031 383.627 68.0406 384.431 71.3125 384.911C81.1147 386.349 89.9596 386.758 101.063 386.98Z" fill="#A7B3AB"/>
<path d="M154.546 380.587C153.005 381.365 151.806 382.044 150.555 382.587C146.552 384.325 142.336 385.205 138.102 385.956C129.434 387.495 120.696 388.29 111.918 388.526C106.656 388.669 101.391 388.881 96.1293 388.819C86.3768 388.702 76.6417 388.166 67.0063 386.392C63.2869 385.707 59.5986 384.866 56.1999 382.978C56.0419 382.89 55.8366 382.901 55.447 382.825C56.0758 388.779 56.6936 394.624 57.3341 400.687C58.4833 400.722 59.5032 400.796 60.5201 400.775C63.1849 400.722 65.8484 400.644 68.5112 400.545C77.2142 400.227 85.9242 400.031 94.6201 399.539C106.883 398.844 119.138 397.893 131.313 396.157C138.134 395.183 144.915 393.84 151.668 392.409C155.605 391.576 155.005 391.858 154.92 387.979C154.867 385.621 154.687 383.268 154.546 380.587Z" fill="#92A098"/>
<path d="M115.243 376.178C115.24 375.94 115.232 375.686 115.221 375.414C114.74 363.31 114.218 351.211 113.641 339.11C113.261 331.151 112.766 323.195 112.311 315.238C112.184 313.002 112.024 310.768 111.861 308.266C113.462 308.018 114.793 307.903 116.084 307.59C117.482 307.25 118.938 306.933 120.198 306.247C123.685 304.347 125.207 300.572 124.007 296.576C123.429 294.653 122.334 292.908 121.299 290.712C122.332 290.53 123.485 290.281 124.649 290.131C138.916 288.285 153.13 286.101 167.022 281.999C169.249 281.342 171.429 280.49 173.62 279.699C175.4 279.059 176.28 277.792 176.012 275.697C175.384 270.775 174.754 265.854 174.2 260.925C174.052 259.621 174.028 258.262 174.202 256.968C174.456 255.105 173.938 253.597 172.554 252.633C170.951 251.518 169.27 250.301 167.46 249.802C161.964 248.278 156.439 246.742 150.839 245.823C138.823 243.853 126.703 242.954 114.553 242.534C106.269 242.249 97.9862 241.861 89.7001 241.638C87.1077 241.57 84.502 241.861 81.9086 242.044C70.4669 242.862 58.9951 243.352 47.6995 245.722C42.1024 246.895 36.5232 248.211 31.364 250.856C28.6137 252.267 26.0777 254.212 23.595 256.138C22.0322 257.35 21.5227 259.2 21.6954 261.38C21.8588 263.422 21.6469 265.508 21.5148 267.568C21.0311 275.13 20.8294 282.672 22.3618 290.146C23.1439 293.952 23.3599 294.141 26.8661 294.49C41.2133 295.919 55.5649 295.275 69.917 294.633C73.6733 294.462 77.4258 294.193 81.1829 294.11C81.952 294.093 82.896 294.514 83.4814 295.07C87.4321 298.831 91.9886 301.512 96.7712 303.761C98.3432 304.499 98.9648 305.438 98.8817 307.281C98.5138 315.45 98.1083 323.624 97.9787 331.8C97.8408 340.494 97.7975 349.2 98.0953 357.885C98.3064 363.992 98.9191 370.082 99.4222 376.178H103.278C103.215 375.774 103.185 375.261 103.161 374.614C102.726 362.919 102.374 351.221 101.851 339.531C101.466 330.947 100.85 322.374 100.361 313.795C100.204 311.04 100.126 308.28 100.002 305.299C103.773 306.253 107.209 307.121 110.792 308.026C110.456 319.503 109.859 330.86 109.861 342.216C109.866 353.436 110.44 364.658 110.791 376.178H115.243ZM91.742 271.113C75.27 270.781 62.1493 270.176 47.607 268.042C42.7529 267.33 37.95 266.137 33.173 264.937C31.33 264.474 29.5224 263.562 27.8781 262.527C25.1771 260.823 25.0172 258.713 27.4204 256.625C28.8279 255.403 30.4113 254.248 32.0927 253.585C37.2387 251.558 42.3704 249.302 47.6888 248C64.9675 243.774 82.4999 242.356 100.212 243.308C114.654 244.083 129.07 245.146 143.389 247.285C149.674 248.222 155.9 249.678 162.106 251.13C164.135 251.606 166.133 252.606 167.936 253.746C170.336 255.259 170.35 257.024 168.221 258.875C167.478 259.522 166.662 260.133 165.786 260.53C163.309 261.66 160.839 262.873 158.266 263.691C147.958 266.962 137.329 268.413 126.663 269.239C115.039 270.138 103.383 270.51 91.742 271.113ZM171.085 261.629C171.293 265.605 171.562 269.096 171.64 272.594C171.765 278.347 172.656 277.93 166.816 279.166C156.798 281.289 146.738 283.28 136.619 284.725C118.557 287.301 100.376 288.712 82.1833 289.743C69.2831 290.473 56.3619 290.764 43.4502 291.235C39.5003 291.382 35.5489 291.497 31.5959 291.576C30.0867 291.608 28.5742 291.497 26.8697 291.446C25.9186 282.452 25.0021 273.78 24.0689 264.949C24.648 265.06 24.9522 265.045 25.187 265.174C30.2285 267.975 35.7006 269.223 41.2184 270.239C55.5128 272.872 69.9546 273.666 84.4225 273.839C92.2285 273.931 100.04 273.617 107.846 273.405C120.869 273.054 133.831 271.875 146.691 269.593C152.972 268.479 159.226 267.174 165.165 264.595C167.02 263.789 168.8 262.781 171.085 261.629ZM85.472 294.424C86.236 294.005 86.3892 293.851 86.5532 293.839C96.0425 292.987 105.528 292.116 115.022 291.321C118.259 291.05 119.716 292.165 120.906 295.471C122.11 298.811 121.014 301.56 117.8 302.497C116.074 303.002 114.178 303.127 112.38 303.013C102.981 302.415 94.5343 298.386 85.472 294.424Z" fill="black"/>
<path d="M91.7418 271.112C103.383 270.509 115.039 270.137 126.663 269.239C137.329 268.412 147.958 266.961 158.266 263.69C160.839 262.872 163.309 261.66 165.786 260.529C166.661 260.133 167.478 259.521 168.221 258.875C170.35 257.024 170.336 255.258 167.936 253.745C166.133 252.606 164.135 251.606 162.106 251.129C155.9 249.677 149.674 248.222 143.389 247.284C129.07 245.146 114.654 244.083 100.212 243.308C82.4998 242.356 64.9674 243.774 47.6886 248C42.3702 249.302 37.2386 251.557 32.0925 253.585C30.4112 254.248 28.8278 255.402 27.4203 256.625C25.0171 258.712 25.1769 260.823 27.8779 262.526C29.5223 263.562 31.3298 264.473 33.1728 264.936C37.9499 266.136 42.7528 267.33 47.6068 268.042C62.1491 270.175 75.2698 270.781 91.7418 271.112Z" fill="#A7B3AB"/>
<path d="M171.084 261.628C168.8 262.781 167.02 263.789 165.165 264.595C159.226 267.174 152.972 268.478 146.691 269.593C133.831 271.875 120.869 273.054 107.845 273.405C100.039 273.617 92.2284 273.931 84.4224 273.839C69.9546 273.665 55.5128 272.871 41.2183 270.239C35.7005 269.223 30.2284 267.975 25.187 265.174C24.9521 265.045 24.6479 265.06 24.0688 264.949C25.0021 273.78 25.9185 282.452 26.8696 291.446C28.5741 291.497 30.0866 291.608 31.5959 291.576C35.5488 291.497 39.5003 291.382 43.4502 291.235C56.3619 290.764 69.283 290.472 82.1832 289.743C100.376 288.712 118.556 287.301 136.619 284.725C146.738 283.28 156.798 281.289 166.816 279.166C172.656 277.93 171.765 278.347 171.64 272.593C171.562 269.096 171.293 265.605 171.084 261.628Z" fill="#92A098"/>
<path d="M110.792 308.026C107.209 307.121 103.773 306.253 100.002 305.299C100.126 308.28 100.204 311.04 100.361 313.795C100.85 322.374 101.466 330.947 101.851 339.531C102.374 351.221 102.726 362.919 103.161 374.614C103.185 375.261 103.215 375.774 103.278 376.178H110.791C110.44 364.658 109.866 353.436 109.861 342.216C109.858 330.86 110.455 319.503 110.792 308.026Z" fill="#A7B3AB"/>
<path d="M85.4719 294.424C94.5342 298.385 102.98 302.415 112.38 303.012C114.178 303.127 116.074 303.002 117.8 302.497C121.014 301.559 122.11 298.811 120.906 295.47C119.716 292.165 118.259 291.05 115.022 291.321C105.528 292.116 96.0424 292.986 86.5531 293.838C86.3891 293.851 86.2358 294.004 85.4719 294.424Z" fill="#5E6E65"/>
<path d="M91.7767 247.609C70.8356 247.609 53.8599 250.711 53.8599 254.539C53.8599 258.368 70.8356 261.469 91.7767 261.469C112.718 261.469 129.695 258.368 129.695 254.539C129.695 250.711 112.718 247.609 91.7767 247.609Z" fill="#839093"/>
<path d="M95.8018 103.533C94.9353 104.165 94.0095 104.503 93.8504 105.022C93.4312 106.383 94.8594 107.677 96.7531 107.9C98.6489 108.125 100.441 107.231 100.756 105.886C100.823 105.595 100.821 105.279 100.783 104.989C100.502 102.886 97.747 100.727 95.5965 100.96C95.3762 100.983 95.16 101.327 94.8456 101.611C95.1954 102.316 95.5264 102.981 95.8018 103.533Z" fill="black"/>
<path d="M70.0161 162.521C75.9429 163.867 90.0977 161.111 93.2592 158.427C91.3004 157.56 89.5839 156.368 87.6519 156.043C84.3293 155.481 80.7261 154.778 78.1597 159.17C77.418 157.683 76.3815 157.813 75.2121 158.686C73.4862 159.973 71.7484 161.243 70.0161 162.521Z" fill="black"/>
<path d="M76.6042 153.972C75.4841 150.529 73.6093 148.022 71.3614 145.814C70.9567 145.417 70.0834 145.134 69.5479 145.315C64.6171 146.956 59.7738 148.904 55.8665 152.761C53.4574 155.142 53.513 157.86 55.9378 159.773C58.6159 161.887 61.8098 162.924 65.303 163.093C65.9846 163.126 67.0427 162.782 67.4229 162.255C69.8557 158.883 72.958 156.326 76.6042 153.972Z" fill="black"/>
<path d="M47.3157 108.597C47.4299 108.895 47.5376 109.165 47.636 109.402L47.0237 109.715C46.8328 109.26 46.6161 108.698 46.3868 108.075C44.7006 107.294 42.8865 107.194 40.9647 107.733C38.677 108.374 36.9033 109.744 36.1942 112.178C35.4976 114.573 36.0484 116.699 37.7744 118.125C41.2256 120.973 45.4256 122.022 50.0356 121.376C53.1622 120.936 54.766 118.102 53.6038 115.215C53.038 113.815 52.0759 112.535 51.0343 111.465C49.9494 110.351 48.5763 109.533 47.3157 108.597Z" fill="black"/>
<path d="M51.4543 108.587C52.4719 107.905 53.4319 107.067 54.5145 106.568C59.9634 104.056 65.6156 102.378 71.3942 101.955C74.2094 101.75 77.0282 102.294 79.8009 102.698C80.922 102.861 81.8015 102.909 82.8735 102.185C87.4863 99.0727 88.5588 98.9588 93.4297 100.665C98.3128 97.7405 104.537 101.06 104.513 106.692C104.509 107.636 103.87 108.954 103.123 109.587C100.484 111.821 93.8504 110.669 92.6217 107.753C92.1714 106.691 92.4317 105.264 92.3577 103.834C90.0282 102.476 86.9983 102.945 83.7828 105.403C83.9947 105.894 84.1803 106.433 84.4426 106.923C86.9522 111.578 86.1159 116.158 82.7723 120.564C76.8731 128.338 62.8945 134.365 52.7417 125.777C52.154 125.281 51.4089 124.971 50.4084 124.382C50.1144 126.615 51.1406 127.573 52.1157 128.335C54.362 130.087 56.7155 131.713 59.1128 133.259C60.7896 134.344 62.6553 135.146 64.3552 136.2C65.7689 137.076 67.182 137.045 68.8437 136.558C82.322 132.603 95.4506 132.695 108.187 136.68C112.62 138.07 116.76 140.036 120.245 143.111C120.601 143.426 120.961 143.74 121.295 144.078C126.62 149.46 126.023 155.501 119.526 160.527C117.933 161.761 116.014 162.524 114.246 163.501C115.487 162.581 116.72 161.644 117.972 160.739C124.641 155.92 125.191 150.55 119.435 145.624C118.214 144.58 116.818 143.7 115.381 142.967C101.815 136.061 87.1299 135.74 71.7882 139.403C71.4384 139.484 71.1168 139.762 70.3383 140.195C74.7472 143.487 77.7193 147.612 79.3015 152.761C80.4594 152.598 81.3391 152.454 82.2195 152.354C85.9756 151.93 89.2138 152.907 91.8577 155.385C92.6208 156.1 93.22 157.005 94.0281 157.657C94.4819 158.023 95.2989 158.368 95.7997 158.181C99.4526 156.814 102.988 155.131 105.709 152.034C107.287 150.239 107.436 148.233 106.044 146.513C105.219 145.493 104.151 144.627 103.035 143.93C98.2232 140.923 92.7559 140.352 86.9686 141.105C85.5433 141.291 84.118 141.479 82.6929 141.666C82.7059 141.415 82.7182 141.165 82.7304 140.913C89.2498 139.363 95.7678 138.184 101.944 140.932C103.672 141.701 105.358 142.712 106.754 143.965C110.776 147.574 110.507 151.94 106.01 155.84C104.213 157.396 102.195 158.788 100.109 159.846C89.1827 165.385 77.8705 167.495 66.2798 166.527C62.6206 166.224 59.2661 165.074 56.2275 163.169C50.3469 159.483 50.3838 154.275 56.6258 150.152C59.6998 148.123 63.2132 146.853 66.5402 145.269C67.3951 144.862 68.2937 144.572 69.2216 144.208C67.3939 141.262 65.2074 141.218 62.3906 142.527C56.3807 145.318 50.7314 148.694 45.7891 153.329C44.7302 154.32 43.7018 155.408 42.88 156.599C39.7698 161.104 40.2058 164.752 44.4173 167.351C46.8299 168.842 49.4703 170.117 52.2111 170.928C60.2707 173.313 68.6969 173.561 77.3032 172.37C77.9108 172.285 78.5217 172.288 79.1303 172.252C79.1295 172.435 79.1304 172.62 79.1309 172.804C76.6469 173.327 74.1626 173.85 71.4261 174.427C72.3945 175.806 73.1867 176.878 73.9241 177.993C76.018 181.15 77.6089 184.565 78.1277 188.494C78.948 194.699 77.1239 198.391 71.7999 202.148C67.3908 205.261 63.0579 208.51 58.8209 211.878C56.1227 214.023 53.8027 216.62 52.1346 219.715C50.0861 223.516 49.8532 227.313 51.9849 230.655C53.5186 233.061 55.4159 235.279 57.4902 237.201C62.2244 241.588 67.9005 244.62 73.9191 246.938C84.4008 250.974 95.4656 252.301 107.089 250.379C111.467 249.653 115.712 248.306 119.602 245.719C125.309 241.926 127.735 236.458 126.364 230.068C125.953 228.149 125.426 226.182 124.501 224.526C122.677 221.249 120.751 217.993 118.47 215.061C115.891 211.745 112.822 208.845 110.069 205.667C107.382 202.567 104.622 199.502 102.249 196.144C96.2593 187.659 96.993 178.4 102.245 168.799C102.617 168.119 103.248 167.315 103.897 167.074C107.317 165.797 110.783 164.68 114.23 163.511C111.878 164.702 109.595 166.192 107.153 167.011C104.483 167.906 102.85 169.443 101.674 172.027C98.2599 179.54 98.4538 186.525 102.301 193.091C105.25 198.121 109.23 202.236 113.205 206.362C116.314 209.588 119.491 212.757 122.405 216.167C125.535 219.826 127.883 224.037 129.012 228.95C130.658 236.127 128.281 242.67 122.226 247.56C117.983 250.986 113.185 252.936 108.125 254.117C98.2882 256.413 88.7604 255.838 79.5321 253.21C69.3235 250.304 60.5418 245.075 53.5461 237.172C52.0397 235.472 50.6911 233.551 49.6385 231.507C46.7693 225.934 47.4449 220.509 51.9711 215.448C54.5961 212.512 57.6709 209.921 60.7883 207.527C64.0819 205 67.6027 202.77 71.1401 200.631C75.3941 198.062 77.1976 194.423 76.8888 189.777C76.516 184.189 74.1243 179.593 70.8855 175.446C70.0015 174.314 68.7019 174.51 67.4285 174.412C62.5591 174.038 57.6543 173.783 52.863 173.057C49.0156 172.473 45.4212 171.066 42.2865 168.758C37.2654 165.063 36.6866 159.734 40.969 154.413C45.795 148.417 51.8814 144.119 58.5223 140.641C59.4339 140.166 60.3538 139.706 61.2567 139.21C61.4148 139.124 61.5089 138.894 61.798 138.512C57.8652 135.496 53.9256 132.475 49.7745 129.289C49.3698 130.633 48.97 131.965 48.5681 133.294C48.5964 130.626 48.6245 127.96 48.6544 125.225C47.6974 125.179 47.0273 125.115 46.3516 125.116C42.1291 125.132 38.1826 124.511 35.2577 121.3C34.917 120.926 34.2413 120.871 33.7201 120.67C33.9595 119.385 32.9866 119.342 32.1959 118.99C27.2108 116.779 22.1218 114.718 17.8399 111.312C16.14 109.958 14.6236 108.333 13.2026 106.67C8.71853 101.419 10.6462 91.7041 18.3765 88.3111C19.021 88.0278 19.6434 87.6788 20.2419 87.3796C19.9976 83.0713 17.0745 79.9827 12.6215 79.454C12.2523 81.9597 10.8014 83.5924 8.27179 83.7457C5.17989 83.9317 2.40882 83.1794 0.592339 80.603C-0.387805 79.2077 -0.148379 77.5235 1.28691 76.1941C3.87164 73.8007 6.85002 72.6274 10.1785 73.0874C11.6141 73.2866 12.5624 74.129 13.2373 75.432C13.5379 76.0087 14.2631 76.6381 14.8745 76.668C19.6845 76.9059 21.707 80.0119 22.6825 84.2752C22.8562 85.0343 23.0186 85.7983 23.2233 86.7283C34.1936 86.6213 42.1414 90.7292 45.0122 101.744L44.9673 101.79C45.3605 103.009 45.8541 104.5 46.3442 105.912L46.7973 107.2C48.3211 107.731 49.93 108.092 51.481 108.568C52.0606 109.319 52.6976 110.031 53.2086 110.831C54.0296 112.117 54.9858 113.366 55.496 114.806C56.5462 117.778 56.2788 120.691 53.5375 123.157C53.2397 123.425 53.0227 123.789 52.5798 124.346C53.5033 125.092 54.286 125.927 55.246 126.465C65.6411 132.29 77.139 124.596 80.8028 116.593C81.4734 115.125 81.7366 113.436 81.9036 111.845C82.0497 110.453 81.7712 109.07 80.3048 108.039C78.703 109.616 77.1424 111.154 75.5812 112.692C75.3956 112.541 75.2097 112.387 75.0248 112.236C76.1646 110.359 77.3045 108.483 78.4552 106.588C76.873 104.852 74.9497 104.582 73.0197 104.39C67.1682 103.809 61.4243 104.911 55.7504 107.203C54.3506 107.769 52.8875 108.131 51.4543 108.587Z" fill="black"/>
<path d="M33.7202 120.67C34.2406 120.872 34.9167 120.925 35.2578 121.3C38.1835 124.511 42.1298 125.132 46.3517 125.118C47.0274 125.116 47.698 125.179 48.6537 125.225C48.6246 127.96 48.5973 130.626 48.569 133.293C48.3232 134.412 48.0782 135.528 47.8311 136.648C47.3245 137.678 46.8265 138.707 46.3124 139.731C45.0521 142.244 43.9215 144.829 42.4827 147.242C41.016 149.7 39.0269 151.734 36.2897 152.728C34.2494 153.469 33.6843 153.191 32.9188 151.278C32.3729 149.914 32.1728 148.344 30.7923 147.389C30.8726 148.992 30.9514 150.595 31.0519 152.616C28.1087 151.216 26.5568 149.206 25.3383 146.879C21.2257 139.03 23.1266 129.435 29.9343 123.592C30.9622 122.71 32.0045 121.848 33.0394 120.977C33.2664 120.875 33.4933 120.772 33.7202 120.67Z" fill="#C53BFF"/>
<path d="M33.0394 120.977C32.0045 121.848 30.9622 122.71 29.9343 123.592C23.1266 129.435 21.2257 139.03 25.3383 146.879C26.5568 149.206 28.1087 151.216 31.0519 152.616C30.9514 150.595 30.8726 148.992 30.7923 147.389C32.1728 148.344 32.3729 149.914 32.9188 151.278C33.6843 153.191 34.2494 153.469 36.2897 152.728C39.0269 151.734 41.016 149.7 42.4827 147.242C43.9215 144.829 45.0521 142.244 46.3124 139.731C46.8265 138.707 47.3245 137.678 47.8311 136.648C47.0216 142.093 45.1408 147.174 41.7518 151.748C40.338 153.657 38.6143 155.156 36.4134 155.862C34.7343 156.401 33.8684 157.211 33.8722 159.14C33.8786 162.775 32.2725 165.679 28.9159 167.506C28.0191 167.994 27.5 168.557 27.4704 169.655C27.4243 171.346 26.3465 172.534 24.9711 173.378C22.1587 175.105 19.2244 175.39 16.3512 174.471C14.2066 173.785 13.5396 171.871 14.6498 169.647C16.0152 166.914 18.1856 165.006 21.0036 163.981C23.2941 163.147 24.7607 164.289 25.9599 166.178C29.2795 163.919 30.7765 160.996 31.0945 157.272C30.5177 157.021 30.1107 156.782 29.664 156.659C25.6381 155.544 23.253 152.717 21.7945 148.896C18.4892 140.235 21.6137 128.909 29.025 123.095C30.2068 122.168 31.6936 121.672 33.0394 120.977ZM23.8428 168.644C24.5547 166.769 24.5669 166.393 23.9649 165.977C22.9618 165.284 21.3448 165.712 19.9289 167.043C18.5433 168.346 17.9448 170.052 18.531 171.101C18.6669 171.343 18.8702 171.566 19.0956 171.724C20.8707 172.966 24.7796 171.838 26.1239 169.686C26.1976 169.568 26.0604 169.324 25.9915 168.992C25.3005 168.88 24.5779 168.763 23.8428 168.644Z" fill="black"/>
<path d="M51.4543 108.586C52.8876 108.131 54.3507 107.769 55.7505 107.204C61.4243 104.91 67.1683 103.81 73.0198 104.39C74.949 104.581 76.8739 104.851 78.4545 106.587C77.3045 108.483 76.1647 110.359 75.0249 112.236C75.2106 112.388 75.3957 112.541 75.5813 112.692C77.1425 111.154 78.7039 109.616 80.3041 108.038C81.7721 109.069 82.0498 110.453 81.9037 111.844C81.7367 113.435 81.4735 115.126 80.8021 116.592C77.1383 124.595 65.6417 132.29 55.2454 126.464C54.2862 125.927 53.5041 125.091 52.5798 124.346C53.0235 123.789 53.2398 123.425 53.5376 123.157C56.2784 120.69 56.5463 117.777 55.4961 114.805C54.9874 113.366 54.0297 112.118 53.2087 110.831C52.6977 110.031 52.0622 109.319 51.4819 108.569L51.4543 108.586Z" fill="#C53BFF"/>
<path d="M76.6047 153.972C72.9582 156.327 69.8562 158.882 67.4234 162.256C67.0432 162.783 65.9851 163.126 65.3027 163.093C61.8103 162.924 58.6164 161.887 55.9383 159.773C53.5127 157.86 53.4563 155.142 55.8662 152.762C59.7735 148.904 64.6168 146.957 69.5484 145.314C70.0839 145.135 70.9557 145.417 71.3611 145.815C73.6098 148.022 75.4838 150.529 76.6047 153.972Z" fill="#697693"/>
<path d="M47.2083 108.516C48.4962 109.486 49.9179 110.32 51.0337 111.465C52.076 112.534 53.0381 113.814 53.6034 115.216C54.7661 118.102 53.1618 120.936 50.0365 121.375C45.4257 122.021 41.2257 120.973 37.7745 118.125C36.0478 116.699 35.4978 114.572 36.1944 112.179C36.9042 109.744 38.6771 108.374 40.9648 107.733C43.2033 107.105 45.2936 107.341 47.2083 108.516Z" fill="#E3A2FF"/>
<path d="M70.0161 162.521C71.7484 161.243 73.4862 159.974 75.2121 158.686C76.3815 157.813 77.4172 157.682 78.1597 159.17C80.7261 154.778 84.3293 155.482 87.6527 156.043C89.5831 156.368 91.2991 157.56 93.2584 158.426C90.0984 161.111 75.9429 163.867 70.0161 162.521Z" fill="#BF9D8D"/>
<path d="M95.8013 103.532C95.5264 102.98 95.1962 102.316 94.8448 101.611C95.1607 101.327 95.377 100.983 95.5965 100.959C97.747 100.728 100.502 102.887 100.782 104.989C100.821 105.278 100.823 105.595 100.755 105.885C100.441 107.232 98.6481 108.125 96.7531 107.901C94.8594 107.677 93.4312 106.383 93.8504 105.022C94.01 104.503 94.9354 104.164 95.8013 103.532Z" fill="#E3A2FF"/>
<path d="M12.3071 76.2508C11.2706 77.0148 10.561 77.5387 10.1423 77.8476C10.2935 78.8689 10.8108 80.0409 10.4503 80.4754C9.92555 81.1075 8.74888 81.4532 7.88602 81.4642C7.08437 81.4747 6.20825 81.0387 5.57667 80.5345C3.7278 79.0584 3.99297 77.1869 6.3036 76.1275C7.63435 75.5167 9.15504 75.328 10.5926 75.1767C11.0819 75.1255 11.5779 75.7693 12.3071 76.2508Z" fill="#E3A2FF"/>
<path d="M23.8429 168.644C24.578 168.763 25.3006 168.88 25.9916 168.992C26.0604 169.323 26.1976 169.568 26.1239 169.686C24.7797 171.838 20.8708 172.966 19.0956 171.724C18.8702 171.566 18.667 171.343 18.5311 171.1C17.9449 170.052 18.5434 168.346 19.929 167.043C21.3449 165.712 22.9619 165.284 23.965 165.977C24.567 166.392 24.5548 166.768 23.8429 168.644Z" fill="#E3A2FF"/>
<path d="M44.1932 101.614C43.3816 99.922 42.6855 98.1297 41.5682 96.6959C40.2374 94.9912 38.5903 93.3924 36.7225 92.3569C34.8507 91.3217 32.5761 90.8791 30.4013 90.4752C28.2105 90.0679 25.9264 90.1712 23.5477 91.1122C23.3172 92.2828 23.0938 93.4264 22.8676 94.5679C22.7333 94.5933 22.5981 94.6156 22.463 94.6386C22.1616 93.7649 21.8602 92.8927 21.5667 92.0413C16.4674 92.586 12.4662 98.5805 14.2197 103.108C14.7437 104.463 15.306 105.843 16.1168 107.005C19.9267 112.468 25.3843 115.687 31.5734 117.846C32.0056 117.996 32.5189 117.947 33.1962 118.011C33.1962 116.772 33.1334 115.694 33.2064 114.613C33.6536 107.921 39.6854 104.078 45.4617 106.671C45.6252 106.746 45.7899 106.816 45.9576 106.884L45.7154 106.192C45.1705 104.622 44.6119 102.922 44.1932 101.614Z" fill="#C53BFF"/>
<path d="M82.6949 141.622L82.6929 141.667L84.0429 141.49L86.9686 141.105C92.7559 140.352 98.2232 140.923 103.035 143.93C104.151 144.627 105.219 145.494 106.044 146.513C107.436 148.233 107.287 150.239 105.709 152.034C102.988 155.131 99.4525 156.814 95.7997 158.182C95.2989 158.368 94.4819 158.023 94.028 157.657C93.22 157.005 92.6208 156.1 91.8576 155.385C89.2137 152.907 85.9756 151.93 82.2194 152.354C81.339 152.455 80.4593 152.598 79.3014 152.761C78.2188 149.236 76.484 146.192 74.0821 143.565L74.0222 143.499L82.6949 141.622Z" fill="#697693"/>
<path d="M114.23 163.51C110.783 164.68 107.317 165.797 103.897 167.074C103.248 167.315 102.617 168.119 102.246 168.799C96.9932 178.399 96.2595 187.659 102.249 196.144C104.622 199.502 107.382 202.567 110.07 205.667C112.822 208.844 115.891 211.745 118.47 215.06C120.751 217.993 122.677 221.249 124.502 224.526C125.426 226.182 125.954 228.149 126.365 230.068C127.735 236.458 125.309 241.925 119.603 245.719C115.712 248.306 111.468 249.653 107.089 250.378C95.4658 252.301 84.401 250.974 73.9193 246.938C67.9007 244.62 62.2246 241.588 57.4904 237.201C55.4161 235.279 53.5188 233.061 51.9851 230.655C49.8534 227.313 50.0863 223.516 52.1348 219.714C53.8029 216.62 56.1229 214.023 58.8211 211.878C63.0581 208.51 67.391 205.261 71.8001 202.148C77.1241 198.391 78.9482 194.699 78.1279 188.494C77.609 184.565 76.0182 181.15 73.9243 177.993C73.1869 176.878 72.3947 175.806 71.4263 174.427C74.1627 173.849 76.6471 173.327 79.1311 172.804C79.1306 172.62 79.1297 172.435 79.1305 172.252C78.5218 172.288 77.911 172.285 77.3034 172.369C68.6971 173.561 60.2709 173.313 52.2113 170.927C49.4705 170.116 46.8301 168.841 44.4175 167.351C40.206 164.752 39.77 161.104 42.8802 156.599C43.702 155.408 44.7304 154.32 45.7893 153.329C50.7316 148.694 56.3809 145.318 62.3908 142.527C65.2076 141.218 67.3941 141.262 69.2218 144.207C68.2939 144.572 67.3953 144.862 66.5404 145.269C63.2134 146.853 59.7 148.122 56.626 150.152C50.384 154.275 50.3471 159.483 56.2277 163.169C59.2663 165.074 62.6208 166.223 66.28 166.527C77.8706 167.495 89.1829 165.385 100.109 159.846C102.195 158.788 104.214 157.396 106.01 155.84C110.507 151.94 110.776 147.574 106.754 143.964C105.359 142.712 103.672 141.701 101.944 140.931C95.768 138.184 89.25 139.363 82.7306 140.913L82.6951 141.621L74.0225 143.499C72.9312 142.314 71.704 141.214 70.3385 140.195C71.117 139.762 71.4386 139.484 71.7884 139.403C87.1301 135.74 101.815 136.061 115.381 142.967C116.818 143.7 118.214 144.58 119.436 145.624C125.191 150.55 124.641 155.92 117.972 160.739C116.721 161.644 115.488 162.581 114.247 163.501L114.23 163.51Z" fill="#A4AEC2"/>
<path d="M122.759 221.48C105.08 248.477 35.4912 237.212 75.5743 206.672C93.7154 192.851 83.329 176.798 75.3032 173.61L75.278 173.615L71.4262 174.427C72.3946 175.806 73.1868 176.878 73.9242 177.993C76.0181 181.15 77.609 184.565 78.1279 188.494C78.9481 194.699 77.124 198.391 71.8 202.148C67.3909 205.261 63.058 208.51 58.821 211.878C56.1228 214.023 53.8028 216.62 52.1347 219.714C50.0862 223.516 49.8534 227.313 51.985 230.655C53.5187 233.061 55.4161 235.279 57.4903 237.201C62.2245 241.588 67.9007 244.62 73.9192 246.938C84.401 250.974 95.4657 252.301 107.089 250.378C111.468 249.653 115.712 248.306 119.602 245.719C125.309 241.925 127.735 236.458 126.365 230.068C125.953 228.149 125.426 226.182 124.501 224.526C123.934 223.505 123.355 222.488 122.759 221.48Z" fill="#8591A9"/>
<path d="M231 1.07673C230.269 0.594491 229.774 -0.0480456 229.285 0.00262642C227.848 0.153908 226.327 0.342624 224.997 0.952649C222.685 2.01285 222.42 3.88377 224.268 5.35889C224.9 5.86464 225.776 6.30112 226.579 6.29084C227.441 6.27909 228.617 5.93348 229.143 5.29995C229.503 4.86618 228.986 3.69556 228.835 2.67355C229.252 2.36462 229.962 1.84 231 1.07673Z" fill="black"/>
</svg>
