<svg version="1.1" id="Layer_1" xmlns="http://www.w3.org/2000/svg" xmlns:xlink="http://www.w3.org/1999/xlink" x="0px" y="0px" width="287" height="101" viewBox="0 0 287 101" enable-background="new 0 0 287 101" xml:space="preserve">

<path fill="#38203E" opacity="1.000000" stroke="none" d="&#xA;M1.000000,37.468658 &#xA;&#x9;C3.003894,34.821972 5.007789,32.643944 7.206172,30.717476 &#xA;&#x9;C1.355063,42.683865 1.427457,54.696327 6.385746,66.603157 &#xA;&#x9;C11.067916,77.846916 19.206545,81.978607 31.004707,79.931137 &#xA;&#x9;C23.637732,86.770958 13.357719,86.342529 6.691088,78.765358 &#xA;&#x9;C4.727296,76.533356 3.172247,73.941727 1.214939,71.257462 &#xA;&#x9;C1.000000,59.979107 1.000000,48.958210 1.000000,37.468658 &#xA;z"></path>
<path fill="#FA8002" opacity="1.000000" stroke="none" d="&#xA;M31.236729,79.692078 &#xA;&#x9;C19.206545,81.978607 11.067916,77.846916 6.385746,66.603157 &#xA;&#x9;C1.427457,54.696327 1.355063,42.683865 7.548162,30.607620 &#xA;&#x9;C7.695664,30.246206 7.409584,29.862516 7.567286,29.995703 &#xA;&#x9;C8.004397,29.745617 8.283808,29.362347 8.563218,28.979074 &#xA;&#x9;C12.750288,24.275349 17.592508,20.413906 23.977558,19.576412 &#xA;&#x9;C26.975904,19.183138 30.476357,19.375479 33.130756,20.620794 &#xA;&#x9;C35.282597,21.630335 37.563789,24.495573 37.809353,26.752945 &#xA;&#x9;C38.000881,28.513618 35.152260,30.605005 32.982456,32.622978 &#xA;&#x9;C22.846468,29.378557 18.322130,31.930052 15.566883,42.305916 &#xA;&#x9;C15.109000,46.040298 14.872426,49.482914 14.583783,53.351101 &#xA;&#x9;C15.208578,56.483532 15.501129,59.367989 16.651016,61.856251 &#xA;&#x9;C18.443960,65.736023 20.505426,69.763542 26.322683,68.994026 &#xA;&#x9;C26.818073,68.683929 26.999514,68.378555 27.163074,68.313705 &#xA;&#x9;C27.145197,68.554222 27.626198,68.590370 27.926693,68.425934 &#xA;&#x9;C33.941143,62.569061 33.198181,55.608173 32.878677,48.384079 &#xA;&#x9;C29.950924,48.708855 27.821997,48.990074 25.684677,49.173523 &#xA;&#x9;C19.676897,49.689171 18.115015,48.286266 17.858852,41.743759 &#xA;&#x9;C19.474415,40.251793 20.767885,38.632984 22.424557,38.054729 &#xA;&#x9;C25.152164,37.102669 28.114857,36.824097 30.978445,36.261608 &#xA;&#x9;C41.048904,37.371376 42.859249,39.313705 44.933743,52.028629 &#xA;&#x9;C43.893806,58.118740 42.834049,63.393291 41.774292,68.667847 &#xA;&#x9;C38.339115,72.262901 34.903931,75.857956 31.236729,79.692078 &#xA;z"></path>
<path fill="#F98002" opacity="1.000000" stroke="none" d="&#xA;M97.954941,66.886124 &#xA;&#x9;C98.160744,70.850273 99.517891,75.308250 93.078705,76.657608 &#xA;&#x9;C90.882675,74.665237 88.521797,72.933876 87.962471,70.742661 &#xA;&#x9;C85.591454,61.453911 85.489899,52.109310 89.111458,42.996990 &#xA;&#x9;C96.011604,35.342083 100.648720,35.258148 108.137459,42.668720 &#xA;&#x9;C108.395660,42.528637 108.774155,42.453884 108.906616,42.232155 &#xA;&#x9;C111.596329,37.729885 114.841469,33.838337 120.763611,35.054909 &#xA;&#x9;C127.744644,36.489010 130.523956,41.895210 132.131073,48.987404 &#xA;&#x9;C131.958084,56.075901 131.687119,62.388786 131.416153,68.701675 &#xA;&#x9;C130.581436,72.157494 130.476898,76.115150 125.072998,76.886581 &#xA;&#x9;C120.482231,75.448265 119.971352,72.530724 120.430649,68.839371 &#xA;&#x9;C121.144173,63.104725 121.742950,57.333763 121.891434,51.565357 &#xA;&#x9;C121.931793,49.997314 120.182106,48.383190 119.253983,46.790218 &#xA;&#x9;C118.069382,48.129272 116.884773,49.468327 115.700172,50.807377 &#xA;&#x9;C115.113960,53.866508 114.347610,56.904797 113.990555,59.990444 &#xA;&#x9;C113.608696,63.290607 112.508720,65.744759 108.135803,66.217651 &#xA;&#x9;C103.875000,65.157936 103.450531,62.324867 102.952461,59.242706 &#xA;&#x9;C102.393768,55.785374 101.265259,52.420128 100.384682,49.014812 &#xA;&#x9;C99.773796,49.135090 99.162910,49.255363 98.552032,49.375641 &#xA;&#x9;C95.814903,55.051281 96.742203,60.959637 97.954941,66.886124 &#xA;z"></path>
<path fill="#FA8002" opacity="1.000000" stroke="none" d="&#xA;M82.764053,73.752823 &#xA;&#x9;C81.439415,74.352066 80.114769,74.951317 78.185547,75.525543 &#xA;&#x9;C75.567543,73.776581 73.554115,72.052635 71.180031,70.019875 &#xA;&#x9;C70.035057,71.063126 68.491508,72.469543 66.947960,73.875954 &#xA;&#x9;C65.799179,74.327255 64.650398,74.778557 62.838673,75.478119 &#xA;&#x9;C55.487759,76.133202 51.528759,73.738274 48.716793,67.835045 &#xA;&#x9;C45.266697,60.592178 47.568253,53.934486 50.575420,47.310432 &#xA;&#x9;C50.575420,47.310432 50.384827,46.955563 50.568054,47.059605 &#xA;&#x9;C51.022701,46.769730 51.294121,46.375813 51.565536,45.981895 &#xA;&#x9;C57.168510,39.418896 63.466457,34.494370 72.908676,36.717773 &#xA;&#x9;C73.620247,36.885330 74.497627,36.571781 75.246063,36.324753 &#xA;&#x9;C81.767700,34.172180 84.482552,36.284363 84.031998,43.212368 &#xA;&#x9;C83.967850,44.198788 83.827675,45.180260 83.543884,46.945442 &#xA;&#x9;C83.489044,54.520065 83.689087,61.313282 83.687660,68.106461 &#xA;&#x9;C83.687263,69.988647 83.088364,71.870697 82.764053,73.752823 &#xA;M61.937553,62.105919 &#xA;&#x9;C61.937553,62.105919 62.018318,62.274315 62.705704,62.120953 &#xA;&#x9;C64.613777,59.662617 66.937370,57.411549 68.299469,54.680878 &#xA;&#x9;C69.404709,52.465145 69.355324,49.673470 69.818024,47.137230 &#xA;&#x9;C67.285728,48.259655 64.751678,49.378185 62.226982,50.517456 &#xA;&#x9;C62.115570,50.567730 62.089626,50.807404 61.427311,51.350163 &#xA;&#x9;C60.249985,54.228260 58.798100,57.032227 57.993774,60.011044 &#xA;&#x9;C57.474701,61.933434 58.208790,63.796314 61.565262,62.912014 &#xA;&#x9;C61.743694,62.612926 61.922123,62.313835 61.937553,62.105919 &#xA;z"></path>
<path fill="#F97F02" opacity="1.000000" stroke="none" d="&#xA;M234.920975,53.931847 &#xA;&#x9;C235.547272,58.456680 235.922256,63.036049 236.888275,67.487152 &#xA;&#x9;C237.531418,70.450600 239.359650,71.486633 242.353729,69.326965 &#xA;&#x9;C243.664108,68.381783 245.701538,68.444557 248.012360,68.338165 &#xA;&#x9;C249.465149,70.077209 250.314392,71.527718 251.163635,72.978226 &#xA;&#x9;C248.926712,75.555122 246.689789,78.132011 243.908569,80.943527 &#xA;&#x9;C243.203278,81.449989 243.042252,81.721832 242.881241,81.993675 &#xA;&#x9;C242.881241,81.993675 243.139664,81.860703 242.644318,81.721649 &#xA;&#x9;C237.639465,82.605705 233.433350,81.368866 231.046600,77.731194 &#xA;&#x9;C228.397125,73.693100 226.362900,69.026161 225.125305,64.351227 &#xA;&#x9;C223.926605,59.823318 224.080246,54.937412 223.630325,50.105618 &#xA;&#x9;C218.799149,50.522427 215.806396,48.963558 215.652924,43.958038 &#xA;&#x9;C216.903595,42.623100 218.154266,41.288162 220.120331,39.817505 &#xA;&#x9;C223.872070,39.857491 225.103378,38.610321 225.154312,35.395988 &#xA;&#x9;C225.231735,30.512651 225.881958,25.638393 226.288879,20.760281 &#xA;&#x9;C227.666443,17.889290 229.423019,15.415728 233.119675,16.537931 &#xA;&#x9;C236.955719,17.702444 237.244843,20.778406 236.858032,24.199697 &#xA;&#x9;C236.322968,28.932386 235.961761,33.684731 235.476608,38.967686 &#xA;&#x9;C238.399200,38.967686 240.843689,38.460438 242.931686,39.106056 &#xA;&#x9;C245.153503,39.793053 248.058960,41.135223 248.843506,42.970417 &#xA;&#x9;C250.212479,46.172699 248.235107,48.667751 243.912201,49.556099 &#xA;&#x9;C241.521561,49.688416 239.878021,49.834404 238.250381,49.730785 &#xA;&#x9;C235.029205,49.525707 234.177063,51.063046 234.920975,53.931847 &#xA;z"></path>
<path fill="#F98002" opacity="1.000000" stroke="none" d="&#xA;M193.270081,10.082340 &#xA;&#x9;C194.977280,7.102736 197.295441,4.951188 200.910599,6.369664 &#xA;&#x9;C204.875656,7.925429 204.476547,11.357291 203.936966,14.806697 &#xA;&#x9;C201.717453,28.995529 199.587173,43.198322 197.436554,58.201904 &#xA;&#x9;C198.677933,65.689568 199.906860,72.371300 201.135773,79.053024 &#xA;&#x9;C203.221939,81.034927 205.410294,82.922035 207.363083,85.027618 &#xA;&#x9;C209.035706,86.831116 211.644516,88.907791 211.608078,90.821175 &#xA;&#x9;C211.574326,92.594460 208.585434,94.311478 206.177673,96.042038 &#xA;&#x9;C203.943436,95.428650 202.429337,94.826492 200.899796,93.847519 &#xA;&#x9;C199.318008,88.844246 197.050278,85.026794 191.230408,84.857895 &#xA;&#x9;C186.793365,74.530632 185.416351,63.986893 186.726593,53.324066 &#xA;&#x9;C188.503876,38.860523 191.052368,24.491756 193.270081,10.082340 &#xA;z"></path>
<path fill="#F98002" opacity="1.000000" stroke="none" d="&#xA;M139.572723,40.979843 &#xA;&#x9;C148.606827,32.090027 155.378952,31.455732 163.793365,39.275955 &#xA;&#x9;C167.590714,45.141197 165.734344,49.997208 162.516235,54.917618 &#xA;&#x9;C157.718109,57.749676 153.222809,60.420376 148.727493,63.091080 &#xA;&#x9;C148.771606,63.657803 148.815720,64.224525 148.859818,64.791245 &#xA;&#x9;C150.752518,64.791245 152.645737,64.819168 154.537796,64.784279 &#xA;&#x9;C156.988586,64.739075 159.438446,64.643791 162.032898,64.891052 &#xA;&#x9;C162.241745,67.433563 162.306427,69.655106 162.371124,71.876640 &#xA;&#x9;C160.467438,73.098068 158.563766,74.319496 156.018021,75.792580 &#xA;&#x9;C148.017563,77.417793 141.921692,74.259720 138.386490,67.078773 &#xA;&#x9;C134.472931,59.129272 134.667358,51.082859 138.112595,43.024227 &#xA;&#x9;C138.112595,43.024227 138.029190,42.997162 138.309616,42.873016 &#xA;&#x9;C138.917603,42.159191 139.245163,41.569515 139.572723,40.979843 &#xA;M156.386948,44.023869 &#xA;&#x9;C153.812698,41.427246 151.459183,42.725105 149.496750,44.725204 &#xA;&#x9;C148.826599,45.408230 148.527695,47.656471 148.981735,48.012280 &#xA;&#x9;C150.251724,49.007492 152.690979,50.340801 153.423035,49.812962 &#xA;&#x9;C154.968506,48.698589 155.720444,46.483704 156.386948,44.023869 &#xA;z"></path>
<path fill="#F98002" opacity="1.000000" stroke="none" d="&#xA;M185.076157,12.022204 &#xA;&#x9;C184.944489,13.186686 184.812820,14.351168 184.161972,15.896675 &#xA;&#x9;C180.724686,17.541506 181.079803,19.189716 183.084488,21.031652 &#xA;&#x9;C182.855835,22.479164 182.627197,23.926678 182.032593,25.785645 &#xA;&#x9;C181.712036,26.797924 181.757446,27.398745 181.802856,27.999565 &#xA;&#x9;C181.336090,30.781717 180.869324,33.563873 179.938507,36.787884 &#xA;&#x9;C176.967422,38.649715 176.705658,39.928581 179.711548,41.002094 &#xA;&#x9;C179.546829,42.440731 179.382095,43.879368 178.808990,45.770321 &#xA;&#x9;C175.956741,47.684414 175.781570,48.966148 178.700592,50.002323 &#xA;&#x9;C178.713531,55.713726 178.726486,61.425125 178.391388,67.674606 &#xA;&#x9;C177.535141,69.450645 176.358734,70.871262 176.638275,71.893883 &#xA;&#x9;C177.666367,75.654823 178.976471,79.373650 180.569809,82.934097 &#xA;&#x9;C181.858749,85.814346 184.227173,86.571800 187.389709,84.827003 &#xA;&#x9;C188.513077,85.391266 189.330215,85.916306 190.087250,86.837196 &#xA;&#x9;C188.684799,90.088829 187.342499,92.944618 185.677795,95.814194 &#xA;&#x9;C184.209106,95.293251 183.062805,94.758530 181.900909,93.847519 &#xA;&#x9;C180.550797,88.840530 178.055283,85.452827 172.710419,84.980347 &#xA;&#x9;C172.603607,84.959312 172.552124,84.747780 172.706360,84.412094 &#xA;&#x9;C173.366959,82.178474 174.848755,79.748230 170.568695,80.044121 &#xA;&#x9;C169.667206,76.841423 169.012009,73.922401 168.631683,70.922226 &#xA;&#x9;C172.020233,68.792198 169.887909,67.928246 167.923004,66.601486 &#xA;&#x9;C168.214005,57.801792 168.621063,49.400875 169.353516,40.907623 &#xA;&#x9;C172.725922,39.102097 172.052917,37.511208 169.525116,35.541679 &#xA;&#x9;C170.577118,29.695784 171.623978,24.289671 173.013580,18.777824 &#xA;&#x9;C176.621063,16.829229 176.656418,14.573453 174.191315,11.680421 &#xA;&#x9;C174.205200,10.935030 174.237152,10.509489 174.269104,10.083948 &#xA;&#x9;C175.891022,7.270624 177.967484,5.309812 181.846481,6.804057 &#xA;&#x9;C183.112869,8.949010 184.094513,10.485607 185.076157,12.022204 &#xA;z"></path>
<path fill="#FA8002" opacity="1.000000" stroke="none" d="&#xA;M256.538635,48.007229 &#xA;&#x9;C260.447235,45.682629 264.095306,42.364994 268.322784,41.255840 &#xA;&#x9;C275.456909,39.384090 281.889404,43.125725 284.807373,49.342175 &#xA;&#x9;C288.168213,56.501945 286.670959,64.768448 280.900269,69.851906 &#xA;&#x9;C279.307892,71.254608 277.315918,72.203621 274.803223,73.634949 &#xA;&#x9;C261.302490,75.740555 252.656113,69.375893 253.216812,58.214367 &#xA;&#x9;C253.369232,55.180470 254.728683,52.207207 255.534149,49.206116 &#xA;&#x9;C255.534149,49.206116 255.310013,48.901814 255.510803,49.023285 &#xA;&#x9;C255.987274,48.765583 256.262939,48.386410 256.538635,48.007229 &#xA;M271.661499,63.578579 &#xA;&#x9;C275.250916,61.881721 276.984253,58.900490 275.980377,55.191353 &#xA;&#x9;C275.532776,53.537628 273.477325,51.676270 271.767212,51.143890 &#xA;&#x9;C268.438934,50.107765 265.713898,51.641945 263.784912,55.565811 &#xA;&#x9;C262.457947,61.866924 264.629700,64.323334 271.661499,63.578579 &#xA;z"></path>
<path fill="#39203E" opacity="1.000000" stroke="none" d="&#xA;M181.916504,94.223808 &#xA;&#x9;C183.062805,94.758530 184.209106,95.293251 185.974060,95.918938 &#xA;&#x9;C186.792648,96.072517 186.992569,96.135132 187.192474,96.197739 &#xA;&#x9;C185.393616,100.458664 182.087677,100.547218 178.477524,99.126625 &#xA;&#x9;C171.412186,96.346390 167.533707,90.649025 165.285385,83.759872 &#xA;&#x9;C164.102707,80.136009 163.470184,76.332611 162.480194,72.243462 &#xA;&#x9;C162.306427,69.655106 162.241745,67.433563 162.060486,64.424171 &#xA;&#x9;C162.235611,60.676296 162.527313,57.716278 162.819031,54.756260 &#xA;&#x9;C165.734344,49.997208 167.590714,45.141197 164.093979,39.445908 &#xA;&#x9;C165.610535,31.635582 166.967224,24.113520 168.976501,16.770010 &#xA;&#x9;C169.635864,14.360162 171.987869,12.413434 173.917465,10.169436 &#xA;&#x9;C174.237152,10.509489 174.205200,10.935030 174.062561,12.049229 &#xA;&#x9;C173.524857,14.786445 173.097855,16.835001 172.670853,18.883560 &#xA;&#x9;C171.623978,24.289671 170.577118,29.695784 169.388229,35.876968 &#xA;&#x9;C169.173523,38.101345 169.100830,39.550655 169.028137,40.999962 &#xA;&#x9;C168.621063,49.400875 168.214005,57.801792 167.868637,67.003494 &#xA;&#x9;C168.072479,68.870651 168.214630,69.937012 168.356796,71.003380 &#xA;&#x9;C169.012009,73.922401 169.667206,76.841423 170.594208,80.387810 &#xA;&#x9;C171.428040,82.259377 171.990082,83.503578 172.552124,84.747780 &#xA;&#x9;C172.552124,84.747780 172.603607,84.959312 172.788391,85.325333 &#xA;&#x9;C175.954285,88.535500 178.935394,91.379654 181.916504,94.223808 &#xA;z"></path>
<path fill="#39213E" opacity="1.000000" stroke="none" d="&#xA;M190.147369,86.441353 &#xA;&#x9;C189.330215,85.916306 188.513077,85.391266 187.192627,84.580765 &#xA;&#x9;C185.428116,82.955177 184.166916,81.615044 182.824860,79.963074 &#xA;&#x9;C182.442413,79.088951 182.140793,78.526680 181.891663,78.032532 &#xA;&#x9;C181.944168,78.100670 181.814194,78.213356 181.814194,78.213356 &#xA;&#x9;C180.216797,60.059765 182.454910,42.203770 186.023926,24.456871 &#xA;&#x9;C186.611679,21.534286 187.020081,18.490070 188.191437,15.797966 &#xA;&#x9;C189.099716,13.710485 191.068878,12.084604 192.918274,10.167938 &#xA;&#x9;C191.052368,24.491756 188.503876,38.860523 186.726593,53.324066 &#xA;&#x9;C185.416351,63.986893 186.793365,74.530632 190.957245,85.089508 &#xA;&#x9;C190.557373,86.038017 190.328857,86.423843 190.084167,86.835464 &#xA;&#x9;C190.067963,86.861259 190.085175,86.919701 190.220093,86.815628 &#xA;&#x9;C190.354996,86.711563 190.147369,86.441353 190.147369,86.441353 &#xA;z"></path>
<path fill="#FA8002" opacity="1.000000" stroke="none" d="&#xA;M203.895416,45.931080 &#xA;&#x9;C206.909103,40.940586 208.768661,40.498726 213.813416,44.205467 &#xA;&#x9;C214.189224,47.829216 214.210129,50.906231 214.231049,53.983250 &#xA;&#x9;C213.821701,58.859528 213.313538,63.730198 213.036392,68.613976 &#xA;&#x9;C212.838684,72.097878 211.757324,74.670212 207.159729,75.122696 &#xA;&#x9;C202.403931,73.734016 202.213974,70.449936 202.430618,67.043617 &#xA;&#x9;C202.878372,60.003525 203.402618,52.968304 203.895416,45.931080 &#xA;z"></path>
<path fill="#371F3F" opacity="1.000000" stroke="none" d="&#xA;M214.620346,54.003716 &#xA;&#x9;C214.210129,50.906231 214.189224,47.829216 214.145935,44.392078 &#xA;&#x9;C214.463821,44.026409 214.804047,44.020859 215.398605,43.986671 &#xA;&#x9;C215.806396,48.963558 218.799149,50.522427 223.630325,50.105618 &#xA;&#x9;C224.080246,54.937412 223.926605,59.823318 225.125305,64.351227 &#xA;&#x9;C226.362900,69.026161 228.397125,73.693100 231.046600,77.731194 &#xA;&#x9;C233.433350,81.368866 237.639465,82.605705 242.577911,81.592400 &#xA;&#x9;C235.748917,88.456512 227.477798,87.122101 222.985107,77.332062 &#xA;&#x9;C220.507034,71.932098 220.084152,65.536667 219.091019,59.531097 &#xA;&#x9;C218.637650,56.789543 218.861465,54.038994 214.620346,54.003716 &#xA;z"></path>
<path fill="#3B213D" opacity="1.000000" stroke="none" d="&#xA;M137.780945,43.103485 &#xA;&#x9;C134.667358,51.082859 134.472931,59.129272 138.386490,67.078773 &#xA;&#x9;C141.921692,74.259720 148.017563,77.417793 155.777588,76.023239 &#xA;&#x9;C149.375595,82.859909 141.165955,82.135857 135.149490,74.102013 &#xA;&#x9;C133.971481,72.528992 132.969131,70.824425 131.650955,68.941101 &#xA;&#x9;C131.687119,62.388786 131.958084,56.075901 132.248199,49.348114 &#xA;&#x9;C133.994675,47.016388 135.721985,45.099564 137.780945,43.103485 &#xA;z"></path>
<path fill="#38203E" opacity="1.000000" stroke="none" d="&#xA;M255.194916,49.338997 &#xA;&#x9;C254.728683,52.207207 253.369232,55.180470 253.216812,58.214367 &#xA;&#x9;C252.656113,69.375893 261.302490,75.740555 274.564453,73.867004 &#xA;&#x9;C268.473999,80.390572 260.282928,80.234383 251.429871,73.179123 &#xA;&#x9;C250.314392,71.527718 249.465149,70.077209 248.440430,68.377510 &#xA;&#x9;C247.774643,60.960194 248.049911,54.062531 255.194916,49.338997 &#xA;z"></path>
<path fill="#39203E" opacity="1.000000" stroke="none" d="&#xA;M50.239517,47.408642 &#xA;&#x9;C47.568253,53.934486 45.266697,60.592178 48.716793,67.835045 &#xA;&#x9;C51.528759,73.738274 55.487759,76.133202 62.597176,75.670639 &#xA;&#x9;C57.801453,81.457298 50.960754,81.469475 46.178604,75.495850 &#xA;&#x9;C44.647579,73.583374 43.531563,71.338669 41.999981,68.956909 &#xA;&#x9;C42.834049,63.393291 43.893806,58.118740 45.024586,52.420288 &#xA;&#x9;C46.698277,50.499878 48.300945,49.003365 50.239517,47.408642 &#xA;z"></path>
<path fill="#371F3F" opacity="1.000000" stroke="none" d="&#xA;M115.845459,51.210125 &#xA;&#x9;C116.884773,49.468327 118.069382,48.129272 119.253983,46.790218 &#xA;&#x9;C120.182106,48.383190 121.931793,49.997314 121.891434,51.565357 &#xA;&#x9;C121.742950,57.333763 121.144173,63.104725 120.430649,68.839371 &#xA;&#x9;C119.971352,72.530724 120.482231,75.448265 124.719559,76.980682 &#xA;&#x9;C122.958618,78.203308 120.850784,79.306435 118.742950,80.409554 &#xA;&#x9;C117.644798,78.042435 115.695457,75.706268 115.608047,73.302391 &#xA;&#x9;C115.345673,66.086739 115.809990,58.844646 115.845459,51.210125 &#xA;z"></path>
<path fill="#3E233D" opacity="1.000000" stroke="none" d="&#xA;M82.821320,74.140320 &#xA;&#x9;C83.088364,71.870697 83.687263,69.988647 83.687660,68.106461 &#xA;&#x9;C83.689087,61.313282 83.489044,54.520065 83.545670,47.395302 &#xA;&#x9;C85.303581,45.775059 86.880898,44.486382 88.784836,43.097343 &#xA;&#x9;C85.489899,52.109310 85.591454,61.453911 87.962471,70.742661 &#xA;&#x9;C88.521797,72.933876 90.882675,74.665237 92.730339,76.771225 &#xA;&#x9;C91.301590,78.118820 88.782799,80.679443 87.964394,80.218834 &#xA;&#x9;C85.866119,79.037895 84.523392,76.514488 82.821320,74.140320 &#xA;z"></path>
<path fill="#39213D" opacity="1.000000" stroke="none" d="&#xA;M203.535889,46.000481 &#xA;&#x9;C203.402618,52.968304 202.878372,60.003525 202.430618,67.043617 &#xA;&#x9;C202.213974,70.449936 202.403931,73.734016 206.787872,75.200920 &#xA;&#x9;C205.389038,76.557823 203.627762,77.781479 201.501129,79.029083 &#xA;&#x9;C199.906860,72.371300 198.677933,65.689568 197.552292,58.611519 &#xA;&#x9;C198.114304,56.163666 198.246231,53.958977 199.117126,52.100586 &#xA;&#x9;C200.133194,49.932415 201.794846,48.066784 203.535889,46.000481 &#xA;z"></path>
<path fill="#3B223F" opacity="1.000000" stroke="none" d="&#xA;M98.209991,67.148346 &#xA;&#x9;C96.742203,60.959637 95.814903,55.051281 98.552032,49.375641 &#xA;&#x9;C99.162910,49.255363 99.773796,49.135090 100.384682,49.014812 &#xA;&#x9;C101.265259,52.420128 102.393768,55.785374 102.952461,59.242706 &#xA;&#x9;C103.450531,62.324867 103.875000,65.157936 107.766998,66.316574 &#xA;&#x9;C105.510742,70.985733 103.000031,71.230865 98.209991,67.148346 &#xA;z"></path>
<path fill="#F98002" opacity="1.000000" stroke="none" d="&#xA;M206.662949,30.037350 &#xA;&#x9;C208.874207,28.748262 210.982788,26.861794 213.345795,26.455732 &#xA;&#x9;C214.330261,26.286560 217.130783,29.564598 216.855957,30.756495 &#xA;&#x9;C216.370239,32.863190 214.162155,34.572762 212.054535,36.456329 &#xA;&#x9;C207.925751,35.745712 206.562881,33.434559 206.662949,30.037350 &#xA;z"></path>
<path fill="#462848" opacity="1.000000" stroke="none" d="&#xA;M31.110556,36.013950 &#xA;&#x9;C28.114857,36.824097 25.152164,37.102669 22.424557,38.054729 &#xA;&#x9;C20.767885,38.632984 19.474415,40.251793 17.540642,41.730858 &#xA;&#x9;C16.638397,42.043755 16.213295,42.028946 15.788193,42.014137 &#xA;&#x9;C18.322130,31.930052 22.846468,29.378557 32.681816,32.797371 &#xA;&#x9;C32.449791,33.854240 31.846228,34.810265 31.110556,36.013950 &#xA;z"></path>
<path fill="#371F3F" opacity="1.000000" stroke="none" d="&#xA;M225.903656,20.850870 &#xA;&#x9;C225.881958,25.638393 225.231735,30.512651 225.154312,35.395988 &#xA;&#x9;C225.103378,38.610321 223.872070,39.857491 220.446960,39.672142 &#xA;&#x9;C220.435974,35.398457 220.404755,31.040089 221.357498,26.908630 &#xA;&#x9;C221.863052,24.716314 224.076157,22.917765 225.903656,20.850870 &#xA;z"></path>
<path fill="#38203E" opacity="1.000000" stroke="none" d="&#xA;M200.915253,94.224335 &#xA;&#x9;C202.429337,94.826492 203.943436,95.428650 205.817841,96.113327 &#xA;&#x9;C204.030762,101.003433 200.365631,100.432190 196.582001,98.727158 &#xA;&#x9;C194.791473,97.920280 193.223358,96.619858 191.479034,95.019714 &#xA;&#x9;C192.158829,92.770195 192.914062,91.044006 193.636429,89.392967 &#xA;&#x9;C196.055176,90.998428 198.485214,92.611382 200.915253,94.224335 &#xA;z"></path>
<path fill="#F98002" opacity="1.000000" stroke="none" d="&#xA;M200.899796,93.847519 &#xA;&#x9;C198.485214,92.611382 196.055176,90.998428 193.636429,89.392967 &#xA;&#x9;C192.914062,91.044006 192.158829,92.770195 191.227020,94.801125 &#xA;&#x9;C189.978958,95.423492 188.907486,95.741104 187.514236,96.128227 &#xA;&#x9;C186.992569,96.135132 186.792648,96.072517 186.296463,95.905151 &#xA;&#x9;C187.342499,92.944618 188.684799,90.088829 190.087250,86.837196 &#xA;&#x9;C190.147369,86.441353 190.354996,86.711563 190.370560,86.796402 &#xA;&#x9;C190.529495,86.874420 190.672867,86.867592 190.816238,86.860779 &#xA;&#x9;C190.577606,86.843742 190.338989,86.826706 190.100357,86.809677 &#xA;&#x9;C190.328857,86.423843 190.557373,86.038017 191.059036,85.420578 &#xA;&#x9;C197.050278,85.026794 199.318008,88.844246 200.899796,93.847519 &#xA;z"></path>
<path fill="#F98002" opacity="1.000000" stroke="none" d="&#xA;M182.905701,80.274910 &#xA;&#x9;C184.166916,81.615044 185.428116,82.955177 186.886414,84.541550 &#xA;&#x9;C184.227173,86.571800 181.858749,85.814346 180.569809,82.934097 &#xA;&#x9;C178.976471,79.373650 177.666367,75.654823 176.638275,71.893883 &#xA;&#x9;C176.358734,70.871262 177.535141,69.450645 178.351227,68.104744 &#xA;&#x9;C179.524948,71.236542 180.390808,74.476295 181.535431,77.964706 &#xA;&#x9;C181.814194,78.213356 181.944168,78.100670 181.890640,78.367828 &#xA;&#x9;C182.193314,79.181625 182.549500,79.728264 182.905701,80.274910 &#xA;z"></path>
<path fill="#37203F" opacity="1.000000" stroke="none" d="&#xA;M67.162140,74.145386 &#xA;&#x9;C68.491508,72.469543 70.035057,71.063126 71.180031,70.019875 &#xA;&#x9;C73.554115,72.052635 75.567543,73.776581 77.900635,75.659843 &#xA;&#x9;C74.524071,81.314743 71.778587,80.959183 67.162140,74.145386 &#xA;z"></path>
<path fill="#351E3F" opacity="1.000000" stroke="none" d="&#xA;M206.334213,30.137501 &#xA;&#x9;C206.562881,33.434559 207.925751,35.745712 211.748413,36.620464 &#xA;&#x9;C209.838364,37.751244 207.669037,39.197037 205.362289,39.466553 &#xA;&#x9;C204.448090,39.573372 202.124588,36.779514 202.377365,35.811581 &#xA;&#x9;C202.908829,33.776562 204.719727,32.075684 206.334213,30.137501 &#xA;z"></path>
<path fill="#341E42" opacity="1.000000" stroke="none" d="&#xA;M235.322327,53.926247 &#xA;&#x9;C234.177063,51.063046 235.029205,49.525707 238.250381,49.730785 &#xA;&#x9;C239.878021,49.834404 241.521561,49.688416 243.612488,49.739895 &#xA;&#x9;C241.285919,51.189884 238.504807,52.555264 235.322327,53.926247 &#xA;z"></path>
<path fill="#F98002" opacity="1.000000" stroke="none" d="&#xA;M185.175354,11.744793 &#xA;&#x9;C184.094513,10.485607 183.112869,8.949010 182.129959,7.024822 &#xA;&#x9;C183.177307,8.247281 184.225937,9.857330 185.175354,11.744793 &#xA;z"></path>
<path fill="#F98002" opacity="1.000000" stroke="none" d="&#xA;M183.285126,20.725567 &#xA;&#x9;C181.079803,19.189716 180.724686,17.541506 183.958450,16.187435 &#xA;&#x9;C184.011337,17.537941 183.748550,18.978712 183.285126,20.725567 &#xA;z"></path>
<path fill="#F98002" opacity="1.000000" stroke="none" d="&#xA;M179.814911,40.613495 &#xA;&#x9;C176.705658,39.928581 176.967422,38.649715 179.766357,37.124786 &#xA;&#x9;C180.011566,38.088184 179.964905,39.156540 179.814911,40.613495 &#xA;z"></path>
<path fill="#F98002" opacity="1.000000" stroke="none" d="&#xA;M178.805878,49.612095 &#xA;&#x9;C175.781570,48.966148 175.956741,47.684414 178.686020,46.111519 &#xA;&#x9;C178.951340,47.074223 178.931259,48.148045 178.805878,49.612095 &#xA;z"></path>
<path fill="#F98002" opacity="1.000000" stroke="none" d="&#xA;M181.902435,27.677101 &#xA;&#x9;C181.757446,27.398745 181.712036,26.797924 181.850739,26.104435 &#xA;&#x9;C182.023926,26.459393 182.012985,26.907015 181.902435,27.677101 &#xA;z"></path>
<path fill="#3B213D" opacity="1.000000" stroke="none" d="&#xA;M139.338470,41.214577 &#xA;&#x9;C139.245163,41.569515 138.917603,42.159191 138.296097,42.914719 &#xA;&#x9;C138.369507,42.536819 138.736862,41.993069 139.338470,41.214577 &#xA;z"></path>
<path fill="#38203E" opacity="1.000000" stroke="none" d="&#xA;M8.299730,29.164791 &#xA;&#x9;C8.283808,29.362347 8.004397,29.745617 7.367882,30.128002 &#xA;&#x9;C7.352598,29.868246 7.694420,29.609375 8.299730,29.164791 &#xA;z"></path>
<path fill="#371F3F" opacity="1.000000" stroke="none" d="&#xA;M243.046082,81.843933 &#xA;&#x9;C243.042252,81.721832 243.203278,81.449989 243.638306,81.161743 &#xA;&#x9;C243.674149,81.322678 243.440338,81.505638 243.046082,81.843933 &#xA;z"></path>
<path fill="#38203E" opacity="1.000000" stroke="none" d="&#xA;M256.282379,48.193642 &#xA;&#x9;C256.262939,48.386410 255.987274,48.765583 255.358582,49.135277 &#xA;&#x9;C255.345764,48.877209 255.685944,48.628628 256.282379,48.193642 &#xA;z"></path>
<path fill="#39203E" opacity="1.000000" stroke="none" d="&#xA;M51.299469,46.163033 &#xA;&#x9;C51.294121,46.375813 51.022701,46.769730 50.390564,47.154800 &#xA;&#x9;C50.364365,46.878689 50.698883,46.611431 51.299469,46.163033 &#xA;z"></path>
<path fill="#51305C" opacity="1.000000" stroke="none" d="&#xA;M26.008734,68.998756 &#xA;&#x9;C20.505426,69.763542 18.443960,65.736023 16.651016,61.856251 &#xA;&#x9;C15.501129,59.367989 15.208578,56.483532 15.062712,53.386589 &#xA;&#x9;C18.222591,52.972054 20.886921,53.209866 23.471888,52.860477 &#xA;&#x9;C27.167667,52.360962 28.168558,54.069710 28.005175,57.324829 &#xA;&#x9;C27.816853,61.076897 27.747320,64.834930 27.626198,68.590370 &#xA;&#x9;C27.626198,68.590370 27.145197,68.554222 26.953472,68.449722 &#xA;&#x9;C26.496740,68.546944 26.245735,68.764786 26.008734,68.998756 &#xA;z"></path>
<path fill="#39213D" opacity="1.000000" stroke="none" d="&#xA;M27.926693,68.425934 &#xA;&#x9;C27.747320,64.834930 27.816853,61.076897 28.005175,57.324829 &#xA;&#x9;C28.168558,54.069710 27.167667,52.360962 23.471888,52.860477 &#xA;&#x9;C20.886921,53.209866 18.222591,52.972054 15.114780,52.961014 &#xA;&#x9;C14.872426,49.482914 15.109000,46.040298 15.566883,42.305912 &#xA;&#x9;C16.213295,42.028946 16.638397,42.043755 17.381710,42.071465 &#xA;&#x9;C18.115015,48.286266 19.676897,49.689171 25.684677,49.173523 &#xA;&#x9;C27.821997,48.990074 29.950924,48.708855 32.878677,48.384079 &#xA;&#x9;C33.198181,55.608173 33.941143,62.569061 27.926693,68.425934 &#xA;z"></path>
<path fill="#39213D" opacity="1.000000" stroke="none" d="&#xA;M26.322683,68.994026 &#xA;&#x9;C26.245735,68.764786 26.496740,68.546944 26.971352,68.209213 &#xA;&#x9;C26.999514,68.378555 26.818073,68.683929 26.322683,68.994026 &#xA;z"></path>
<path fill="#42253C" opacity="1.000000" stroke="none" d="&#xA;M62.023876,50.958855 &#xA;&#x9;C62.089626,50.807404 62.115570,50.567730 62.226982,50.517456 &#xA;&#x9;C64.751678,49.378185 67.285728,48.259655 69.818024,47.137230 &#xA;&#x9;C69.355324,49.673470 69.404709,52.465145 68.299469,54.680878 &#xA;&#x9;C66.937370,57.411549 64.613777,59.662617 62.456253,61.841194 &#xA;&#x9;C63.087818,59.619442 64.038025,57.705273 64.833069,55.728691 &#xA;&#x9;C65.932640,52.995041 65.192894,51.233475 62.023876,50.958855 &#xA;z"></path>
<path fill="#4F2F5D" opacity="1.000000" stroke="none" d="&#xA;M61.725594,51.154510 &#xA;&#x9;C65.192894,51.233475 65.932640,52.995041 64.833069,55.728691 &#xA;&#x9;C64.038025,57.705273 63.087818,59.619442 62.112564,61.917877 &#xA;&#x9;C62.018318,62.274315 61.937553,62.105919 61.831612,62.214111 &#xA;&#x9;C61.473557,62.527237 61.230423,62.742321 60.996273,62.967560 &#xA;&#x9;C58.208790,63.796314 57.474701,61.933434 57.993774,60.011044 &#xA;&#x9;C58.798100,57.032227 60.249985,54.228260 61.725594,51.154510 &#xA;z"></path>
<path fill="#42253C" opacity="1.000000" stroke="none" d="&#xA;M61.280769,62.939789 &#xA;&#x9;C61.230423,62.742321 61.473557,62.527237 61.913113,62.168526 &#xA;&#x9;C61.922123,62.313835 61.743694,62.612926 61.280769,62.939789 &#xA;z"></path>
<path fill="#54315A" opacity="1.000000" stroke="none" d="&#xA;M162.516220,54.917618 &#xA;&#x9;C162.527313,57.716278 162.235611,60.676296 161.916306,64.103195 &#xA;&#x9;C159.438446,64.643791 156.988586,64.739075 154.537796,64.784279 &#xA;&#x9;C152.645737,64.819168 150.752518,64.791245 148.859818,64.791245 &#xA;&#x9;C148.815720,64.224525 148.771606,63.657803 148.727493,63.091080 &#xA;&#x9;C153.222809,60.420376 157.718109,57.749676 162.516220,54.917618 &#xA;z"></path>
<path fill="#39213E" opacity="1.000000" stroke="none" d="&#xA;M156.592438,44.372089 &#xA;&#x9;C155.720444,46.483704 154.968506,48.698589 153.423035,49.812962 &#xA;&#x9;C152.690979,50.340801 150.251724,49.007492 148.981735,48.012280 &#xA;&#x9;C148.527695,47.656471 148.826599,45.408230 149.496750,44.725204 &#xA;&#x9;C151.459183,42.725105 153.812698,41.427246 156.592438,44.372089 &#xA;z"></path>
<path fill="#F98002" opacity="1.000000" stroke="none" d="&#xA;M181.900909,93.847519 &#xA;&#x9;C178.935394,91.379654 175.954285,88.535500 172.895203,85.346359 &#xA;&#x9;C178.055283,85.452827 180.550797,88.840530 181.900909,93.847519 &#xA;z"></path>
<path fill="#F98002" opacity="1.000000" stroke="none" d="&#xA;M173.013580,18.777824 &#xA;&#x9;C173.097855,16.835001 173.524857,14.786445 174.080627,12.369080 &#xA;&#x9;C176.656418,14.573453 176.621063,16.829229 173.013580,18.777824 &#xA;z"></path>
<path fill="#F98002" opacity="1.000000" stroke="none" d="&#xA;M169.353516,40.907623 &#xA;&#x9;C169.100830,39.550655 169.173523,38.101345 169.383102,36.316753 &#xA;&#x9;C172.052917,37.511208 172.725922,39.102097 169.353516,40.907623 &#xA;z"></path>
<path fill="#F98002" opacity="1.000000" stroke="none" d="&#xA;M172.706360,84.412094 &#xA;&#x9;C171.990082,83.503578 171.428040,82.259377 170.840515,80.671478 &#xA;&#x9;C174.848755,79.748230 173.366959,82.178474 172.706360,84.412094 &#xA;z"></path>
<path fill="#F98002" opacity="1.000000" stroke="none" d="&#xA;M168.631683,70.922226 &#xA;&#x9;C168.214630,69.937012 168.072479,68.870651 167.984680,67.402267 &#xA;&#x9;C169.887909,67.928246 172.020233,68.792198 168.631683,70.922226 &#xA;z"></path>
<path fill="#39213E" opacity="1.000000" stroke="none" d="&#xA;M264.183655,54.919701 &#xA;&#x9;C265.713898,51.641945 268.438934,50.107765 271.767212,51.143890 &#xA;&#x9;C273.477325,51.676270 275.532776,53.537628 275.980377,55.191353 &#xA;&#x9;C276.984253,58.900490 275.250916,61.881721 271.333862,63.241028 &#xA;&#x9;C271.514496,57.864460 269.512695,54.970428 264.183655,54.919701 &#xA;z"></path>
<path fill="#52305C" opacity="1.000000" stroke="none" d="&#xA;M263.984283,55.242756 &#xA;&#x9;C269.512695,54.970428 271.514496,57.864460 270.996887,63.308014 &#xA;&#x9;C264.629700,64.323334 262.457947,61.866924 263.984283,55.242756 &#xA;z"></path>
<path fill="#4E2E5F" opacity="1.000000" stroke="none" d="&#xA;M182.824860,79.963074 &#xA;&#x9;C182.549500,79.728264 182.193314,79.181625 181.838135,78.299690 &#xA;&#x9;C182.140793,78.526680 182.442413,79.088951 182.824860,79.963074 &#xA;z"></path>
<path fill="#F98002" opacity="1.000000" stroke="none" d="&#xA;M190.084167,86.835464 &#xA;&#x9;C190.338989,86.826706 190.577606,86.843742 190.816238,86.860779 &#xA;&#x9;C190.672867,86.867592 190.529495,86.874420 190.235657,86.900475 &#xA;&#x9;C190.085175,86.919701 190.067963,86.861259 190.084167,86.835464 &#xA;z"></path>
</svg>