<svg width="347" height="77" viewBox="0 0 347 77" fill="none" xmlns="http://www.w3.org/2000/svg">
<path d="M289.517 51V33.5455H293.207V47.9574H300.69V51H289.517ZM309.49 37.9091V40.6364H301.607V37.9091H309.49ZM303.396 34.7727H307.027V46.9773C307.027 47.3125 307.078 47.5739 307.18 47.7614C307.283 47.9432 307.425 48.071 307.607 48.1449C307.794 48.2187 308.01 48.2557 308.254 48.2557C308.425 48.2557 308.595 48.2415 308.766 48.2131C308.936 48.179 309.067 48.1534 309.158 48.1364L309.729 50.8381C309.547 50.8949 309.291 50.9602 308.962 51.0341C308.632 51.1136 308.232 51.1619 307.76 51.179C306.885 51.2131 306.118 51.0966 305.459 50.8295C304.805 50.5625 304.297 50.1477 303.933 49.5852C303.57 49.0227 303.391 48.3125 303.396 47.4545V34.7727ZM316.538 51.2131C315.544 51.2131 314.643 50.9574 313.837 50.446C313.036 49.929 312.399 49.1705 311.928 48.1705C311.462 47.1648 311.229 45.9318 311.229 44.4716C311.229 42.9716 311.47 41.7244 311.953 40.7301C312.436 39.7301 313.078 38.983 313.879 38.4886C314.686 37.9886 315.57 37.7386 316.53 37.7386C317.263 37.7386 317.874 37.8636 318.362 38.1136C318.857 38.358 319.254 38.6648 319.555 39.0341C319.862 39.3977 320.095 39.7557 320.254 40.108H320.365V33.5455H323.987V51H320.408V48.9034H320.254C320.084 49.267 319.842 49.6278 319.53 49.9858C319.223 50.3381 318.822 50.6307 318.328 50.8636C317.839 51.0966 317.243 51.2131 316.538 51.2131ZM317.689 48.3239C318.274 48.3239 318.768 48.1648 319.172 47.8466C319.581 47.5227 319.893 47.071 320.109 46.4915C320.331 45.9119 320.442 45.233 320.442 44.4545C320.442 43.6761 320.334 43 320.118 42.4261C319.902 41.8523 319.589 41.4091 319.18 41.0966C318.771 40.7841 318.274 40.6278 317.689 40.6278C317.092 40.6278 316.589 40.7898 316.18 41.1136C315.771 41.4375 315.462 41.8864 315.251 42.4602C315.041 43.0341 314.936 43.6989 314.936 44.4545C314.936 45.2159 315.041 45.8892 315.251 46.4744C315.467 47.054 315.777 47.5085 316.18 47.8381C316.589 48.1619 317.092 48.3239 317.689 48.3239ZM330.705 51.2472C329.87 51.2472 329.126 51.1023 328.472 50.8125C327.819 50.517 327.302 50.0824 326.921 49.5085C326.546 48.929 326.359 48.2074 326.359 47.3438C326.359 46.6165 326.492 46.0057 326.759 45.5114C327.026 45.017 327.39 44.6193 327.85 44.3182C328.31 44.017 328.833 43.7898 329.418 43.6364C330.009 43.483 330.629 43.375 331.276 43.3125C332.038 43.233 332.651 43.1591 333.117 43.0909C333.583 43.017 333.921 42.9091 334.131 42.767C334.342 42.625 334.447 42.4148 334.447 42.1364V42.0852C334.447 41.5455 334.276 41.1278 333.935 40.8324C333.6 40.5369 333.123 40.3892 332.504 40.3892C331.85 40.3892 331.33 40.5341 330.944 40.8239C330.558 41.108 330.302 41.4659 330.177 41.8977L326.819 41.625C326.989 40.8295 327.325 40.142 327.825 39.5625C328.325 38.9773 328.969 38.5284 329.759 38.2159C330.555 37.8977 331.475 37.7386 332.521 37.7386C333.248 37.7386 333.944 37.8239 334.609 37.9943C335.279 38.1648 335.873 38.429 336.39 38.7869C336.913 39.1449 337.325 39.6051 337.626 40.1676C337.927 40.7244 338.077 41.392 338.077 42.1705V51H334.634V49.1847H334.532C334.322 49.5938 334.04 49.9545 333.688 50.267C333.336 50.5739 332.913 50.8153 332.418 50.9915C331.924 51.1619 331.353 51.2472 330.705 51.2472ZM331.745 48.7415C332.279 48.7415 332.751 48.6364 333.16 48.4261C333.569 48.2102 333.89 47.9205 334.123 47.5568C334.356 47.1932 334.472 46.7812 334.472 46.321V44.9318C334.359 45.0057 334.202 45.0739 334.004 45.1364C333.81 45.1932 333.592 45.2472 333.347 45.2983C333.103 45.3437 332.859 45.3864 332.614 45.4261C332.37 45.4602 332.148 45.4915 331.95 45.5199C331.523 45.5824 331.151 45.6818 330.833 45.8182C330.515 45.9545 330.268 46.1392 330.092 46.3722C329.915 46.5994 329.827 46.8835 329.827 47.2244C329.827 47.7188 330.006 48.0966 330.364 48.358C330.728 48.6136 331.188 48.7415 331.745 48.7415ZM343.016 51.2216C342.454 51.2216 341.971 51.0227 341.567 50.625C341.17 50.2216 340.971 49.7386 340.971 49.1761C340.971 48.6193 341.17 48.142 341.567 47.7443C341.971 47.3466 342.454 47.1477 343.016 47.1477C343.562 47.1477 344.039 47.3466 344.448 47.7443C344.857 48.142 345.062 48.6193 345.062 49.1761C345.062 49.5511 344.965 49.8949 344.772 50.2074C344.585 50.5142 344.337 50.7614 344.031 50.9489C343.724 51.1307 343.386 51.2216 343.016 51.2216Z" fill="white"/>
<path d="M19.4346 58.1125C15.6523 58.1125 12.554 57.2474 10.1398 55.5172C7.72557 53.7869 5.93501 51.4733 4.76812 48.5762C3.60124 45.6389 3.0178 42.44 3.0178 38.9796C3.0178 36.2032 3.48053 33.4269 4.40599 30.6505C5.33145 27.8339 6.65928 25.2587 8.38948 22.9249C10.1599 20.5509 12.2724 18.6598 14.7269 17.2514C17.2216 15.8029 19.998 15.0786 23.056 15.0786C24.1022 15.0786 25.3093 15.2999 26.6774 15.7425C28.0857 16.1449 29.4336 16.7485 30.7212 17.5532C32.049 18.3177 33.1354 19.2432 33.9804 20.3296C34.8657 21.3758 35.3083 22.5427 35.3083 23.8302C35.3083 24.5948 34.9864 25.2386 34.3426 25.7616C33.739 26.2847 33.0349 26.5463 32.2301 26.5463C31.3449 26.5463 30.6206 26.3048 30.0573 25.822C29.494 25.3392 28.9306 24.7959 28.3673 24.1924C27.8442 23.5888 27.1803 23.0456 26.3756 22.5628C25.5708 22.0799 24.4643 21.8385 23.056 21.8385C21.0039 21.8385 19.1329 22.3817 17.4429 23.4681C15.7529 24.5545 14.3044 25.9829 13.0973 27.7534C11.9304 29.4836 11.025 31.3546 10.3812 33.3665C9.73743 35.3381 9.41554 37.2092 9.41554 38.9796C9.41554 41.1524 9.75755 43.1643 10.4416 45.0152C11.1256 46.8259 12.212 48.2946 13.7008 49.4212C15.1896 50.5076 17.1009 51.0508 19.4346 51.0508C21.8086 51.0508 23.7803 50.407 25.3495 49.1194C26.959 47.8318 28.3472 46.2223 29.5141 44.2909C29.6348 44.0495 29.7354 43.7679 29.8159 43.446C29.8963 43.1241 29.9567 42.6814 29.9969 42.1181C29.836 42.0376 29.6549 41.9169 29.4537 41.756H20.34C19.2938 41.756 18.4689 41.414 17.8654 40.7299C17.3021 40.0459 17.0204 39.1607 17.0204 38.0743C17.0204 37.1488 17.3423 36.4044 17.9861 35.8411C18.6701 35.2375 19.5553 34.8553 20.6418 34.6943H24.2028C25.4904 34.6943 26.8584 34.7547 28.307 34.8754C29.7555 34.9559 31.1236 35.2174 32.4112 35.66C33.6988 36.1026 34.7449 36.847 35.5497 37.8932C36.3544 38.8991 36.7568 40.3477 36.7568 42.2388C36.7568 44.4921 36.2337 46.5845 35.1875 48.5159C34.1816 50.4472 32.8337 52.1372 31.1437 53.5858C29.4537 54.9941 27.5827 56.1006 25.5306 56.9053C23.4785 57.7101 21.4465 58.1125 19.4346 58.1125ZM54.3859 56.6036C52.535 56.6036 50.8048 56.1811 49.1953 55.3361C47.5858 54.4911 46.2379 53.3645 45.1515 51.9561C44.0651 50.5076 43.3609 48.878 43.039 47.0673V43.9892C43.039 41.7359 43.4414 39.4625 44.2461 37.1689C45.0509 34.8754 46.1976 32.7629 47.6864 30.8315C49.1752 28.8599 50.9456 27.2907 52.9978 26.1238C55.0499 24.9167 57.3031 24.3131 59.7576 24.3131C60.7636 24.3131 61.6287 24.4942 62.3529 24.8563C63.1174 25.2184 63.8015 25.6007 64.405 26.0031C65.0488 26.3652 65.6725 26.5865 66.2761 26.667C66.598 25.0173 67.0406 23.9308 67.6039 23.4078C68.1672 22.8444 68.9317 22.5628 69.8974 22.5628C71.0643 22.5628 71.8489 22.945 72.2513 23.7095C72.6939 24.4338 72.9152 25.3593 72.9152 26.4859C72.9152 28.699 72.8549 30.8718 72.7342 33.0044C72.6537 35.1369 72.6135 37.3299 72.6135 39.5832C72.6135 41.3536 72.714 43.1844 72.9152 45.0756C73.1164 46.9667 73.217 48.7975 73.217 50.568V51.8354C73.217 52.7207 73.0359 53.5455 72.6738 54.31C72.3519 55.0343 71.6075 55.3964 70.4406 55.3964C69.3542 55.3964 68.5696 55.0745 68.0868 54.4307C67.6441 53.7467 67.3424 52.942 67.1814 52.0165C67.0607 51.0508 66.94 50.1857 66.8193 49.4212L66.5779 49.1798C65.2098 50.5478 63.9825 51.7952 62.8961 52.9218C61.85 54.0485 60.6831 54.9538 59.3955 55.6379C58.1079 56.2817 56.438 56.6036 54.3859 56.6036ZM53.7824 50.5076C55.1907 50.5076 56.5185 50.0851 57.7659 49.2401C59.0535 48.3549 60.2002 47.2283 61.2062 45.8602C62.2121 44.4519 62.9967 42.9832 63.5601 41.4542C64.1234 39.9252 64.405 38.4968 64.405 37.1689C64.405 36.163 64.2642 35.1571 63.9825 34.1511C63.7009 33.105 63.218 32.2197 62.534 31.4955C61.8902 30.7712 60.9647 30.4091 59.7576 30.4091C58.4298 30.4091 57.1221 30.8718 55.8345 31.7972C54.5871 32.7227 53.4605 33.9097 52.4546 35.3582C51.4486 36.7666 50.6439 38.2553 50.0403 39.8246C49.4367 41.3536 49.135 42.7418 49.135 43.9892C49.135 44.9951 49.2758 46.001 49.5575 47.007C49.8794 48.0129 50.3823 48.8579 51.0664 49.5419C51.7504 50.1857 52.6557 50.5076 53.7824 50.5076ZM84.8884 55.3964C84.0031 55.3964 83.2185 55.1148 82.5345 54.5515C81.8907 53.9479 81.5688 53.2035 81.5688 52.3183C81.5688 50.9905 81.609 49.7029 81.6895 48.4555C81.8102 47.2081 81.8706 45.9407 81.8706 44.6531V40.6696C81.8706 39.0198 81.8102 37.3902 81.6895 35.7807C81.609 34.131 81.3475 32.5014 80.9049 30.8919C80.7439 30.4091 80.6031 29.9061 80.4824 29.383C80.4019 28.8197 80.3617 28.2564 80.3617 27.693C80.3617 26.8883 80.5628 26.0835 80.9652 25.2788C81.3676 24.4338 82.0919 24.0113 83.138 24.0113C83.983 24.0113 84.6671 24.3332 85.1901 24.977C85.7132 25.5806 86.1156 26.3451 86.3973 27.2705C86.6789 28.1558 86.8801 29.0611 87.0008 29.9866C87.1618 30.8718 87.3026 31.6162 87.4233 32.2197C87.5038 32.7428 87.6245 33.3061 87.7854 33.9097C87.9464 34.5133 88.0269 35.0967 88.0269 35.66C88.0269 35.7003 88.0671 35.821 88.1476 36.0222C88.2281 36.2234 88.3085 36.4245 88.389 36.6257C88.9121 35.7003 89.4955 34.6943 90.1393 33.6079C90.8234 32.4813 91.5678 31.4351 92.3725 30.4694C93.2175 29.4635 94.1429 28.6386 95.1489 27.9948C96.195 27.351 97.3418 27.0291 98.5892 27.0291C99.8768 27.0291 100.842 27.351 101.486 27.9948C102.17 28.5984 102.713 29.3629 103.116 30.2883C103.518 31.1736 103.921 32.0588 104.323 32.944C104.484 33.3464 104.585 33.7689 104.625 34.2115C104.665 34.6139 104.766 35.0363 104.927 35.479L105.59 34.5133C106.395 33.3866 107.301 32.1594 108.306 30.8315C109.353 29.4635 110.52 28.2966 111.807 27.3309C113.095 26.325 114.543 25.822 116.153 25.822C117.44 25.822 118.527 26.2043 119.412 26.9688C120.337 27.693 121.082 28.6386 121.645 29.8055C122.249 30.9724 122.691 32.1795 122.973 33.4269C123.255 34.6742 123.395 35.821 123.395 36.8671V49.6626C123.395 50.2662 123.295 50.9301 123.094 51.6544C122.933 52.3384 122.631 52.942 122.188 53.465C121.746 53.9479 121.122 54.1893 120.317 54.1893C119.392 54.1893 118.647 53.8674 118.084 53.2236C117.521 52.5798 117.239 51.8958 117.239 51.1715V40.1867C117.239 40.066 117.219 39.8045 117.179 39.4021C117.139 38.9997 117.078 38.5772 116.998 38.1346C116.958 37.692 116.937 37.3701 116.937 37.1689C116.937 36.847 116.897 36.3441 116.817 35.66C116.736 34.976 116.575 34.3322 116.334 33.7286C116.092 33.1251 115.73 32.8233 115.247 32.8233H114.704C113.497 33.8695 112.592 34.8754 111.988 35.8411C111.385 36.7666 110.922 37.692 110.6 38.6175C110.278 39.5429 109.976 40.5287 109.695 41.5749C109.413 42.5808 109.011 43.6874 108.488 44.8945C108.206 45.9407 107.743 46.9265 107.099 47.8519C106.496 48.7372 105.651 49.1798 104.564 49.1798C103.518 49.1798 102.713 48.8981 102.15 48.3348C101.627 47.7312 101.225 47.007 100.943 46.162C100.702 45.317 100.5 44.5122 100.339 43.7477C100.259 43.3856 100.118 42.782 99.917 41.9371C99.7158 41.0921 99.4945 40.1666 99.2531 39.1607C99.0519 38.1547 98.8507 37.2092 98.6495 36.3239C98.4483 35.3985 98.3075 34.7145 98.227 34.2718C97.9856 33.9097 97.7442 33.7286 97.5028 33.7286C97.1406 33.7286 96.7584 33.9902 96.356 34.5133C95.9536 35.0363 95.6518 35.5393 95.4507 36.0222C95.2092 36.3843 94.8672 37.0281 94.4246 37.9536C93.982 38.8388 93.5595 39.7039 93.1571 40.5489C92.795 41.3938 92.5536 41.9572 92.4329 42.2388C92.3524 42.4803 92.111 43.0637 91.7086 43.9892C91.3464 44.9146 90.924 45.9809 90.4411 47.188C89.9583 48.3549 89.5156 49.4212 89.1133 50.3869C88.7109 51.3526 88.4494 51.9964 88.3286 52.3183C87.9263 53.0828 87.5038 53.7869 87.0612 54.4307C86.6588 55.0745 85.9345 55.3964 84.8884 55.3964ZM146.152 56.9053C143.254 56.9053 140.579 56.4627 138.124 55.5775C135.71 54.652 133.758 53.2035 132.27 51.2319C130.781 49.22 130.037 46.6247 130.037 43.446C130.037 41.0317 130.419 38.6778 131.183 36.3843C131.988 34.0908 133.135 32.0185 134.624 30.1676C136.112 28.2765 137.903 26.7877 139.995 25.7013C142.088 24.5746 144.441 24.0113 147.057 24.0113C148.827 24.0113 150.477 24.3735 152.006 25.0977C153.575 25.7818 154.823 26.8078 155.748 28.1759C156.714 29.5037 157.197 31.1333 157.197 33.0647C157.197 34.9156 156.814 36.6861 156.05 38.376C155.285 40.066 154.239 41.5749 152.911 42.9027C151.584 44.2306 150.075 45.2768 148.385 46.0413C146.735 46.7655 145.005 47.1277 143.194 47.1277C142.912 47.1277 142.289 47.0673 141.323 46.9466C140.357 46.7857 139.593 46.6247 139.03 46.4638C138.627 46.3833 138.305 46.2223 138.064 45.9809C137.983 45.9407 137.843 45.8803 137.641 45.7998C137.44 45.6791 137.299 45.6188 137.219 45.6188C137.501 46.7857 138.084 47.7715 138.969 48.5762C139.895 49.3407 140.941 49.904 142.108 50.2662C143.315 50.6283 144.462 50.8094 145.548 50.8094C146.313 50.8094 147.077 50.7691 147.842 50.6887C148.646 50.568 149.491 50.5076 150.377 50.5076C151.262 50.5076 152.026 50.749 152.67 51.2319C153.314 51.7147 153.636 52.4994 153.636 53.5858C153.636 54.471 153.354 55.155 152.791 55.6379C152.268 56.1207 151.584 56.4426 150.739 56.6036C149.934 56.7645 149.109 56.845 148.264 56.845C147.459 56.8852 146.755 56.9053 146.152 56.9053ZM143.194 40.1264C144.401 40.1264 145.588 39.9051 146.755 39.4625C147.962 38.9796 148.948 38.2755 149.713 37.35C150.517 36.4245 150.92 35.2778 150.92 33.9097C150.92 32.7428 150.558 31.8174 149.833 31.1333C149.149 30.4493 148.224 30.1073 147.057 30.1073C146.011 30.1073 144.904 30.3889 143.737 30.9523C142.57 31.5156 141.464 32.2399 140.418 33.1251C139.412 34.0103 138.587 34.976 137.943 36.0222C137.299 37.0281 136.977 38.0139 136.977 38.9796V39.221C138.024 39.382 139.07 39.5832 140.116 39.8246C141.162 40.0258 142.188 40.1264 143.194 40.1264ZM169.19 56.3018C168.265 56.3018 167.561 56 167.078 55.3964C166.635 54.7526 166.333 53.968 166.172 53.0426C166.052 52.1171 165.991 51.1715 165.991 50.2058C165.991 49.723 165.991 49.2602 165.991 48.8176C166.031 48.3348 166.052 47.8922 166.052 47.4898C166.052 46.5241 166.072 45.0353 166.112 43.0235C166.152 41.0116 166.213 38.7181 166.293 36.1429C166.374 33.5274 166.474 30.8114 166.595 27.9948C166.716 25.1782 166.876 22.4622 167.078 19.8468C167.319 17.2313 167.581 14.9378 167.862 12.9662C168.144 11.1555 168.647 9.70695 169.371 8.62054C170.136 7.53413 170.9 6.99093 171.665 6.99093C172.349 6.99093 172.932 7.53413 173.415 8.62054C173.898 9.70695 174.079 11.4975 173.958 13.9922C173.194 18.6195 172.63 23.0859 172.268 27.3913C171.906 31.6966 171.725 36.1429 171.725 40.7299C171.725 42.6613 171.826 44.5927 172.027 46.5241C172.228 48.4555 172.329 50.3869 172.329 52.3183C172.329 53.5656 172.067 54.5515 171.544 55.2757C171.021 55.9598 170.236 56.3018 169.19 56.3018ZM184.927 56.3018C184.002 56.3018 183.298 56 182.815 55.3964C182.372 54.7526 182.071 53.968 181.91 53.0426C181.789 52.1171 181.729 51.1715 181.729 50.2058C181.729 49.723 181.729 49.2602 181.729 48.8176C181.769 48.3348 181.789 47.8922 181.789 47.4898C181.789 46.5241 181.809 45.0353 181.849 43.0235C181.89 41.0116 181.95 38.7181 182.03 36.1429C182.111 33.5274 182.211 30.8114 182.332 27.9948C182.453 25.1782 182.614 22.4622 182.815 19.8468C183.056 17.2313 183.318 14.9378 183.6 12.9662C183.881 11.1555 184.384 9.70695 185.109 8.62054C185.873 7.53413 186.638 6.99093 187.402 6.99093C188.086 6.99093 188.67 7.53413 189.152 8.62054C189.635 9.70695 189.816 11.4975 189.696 13.9922C188.931 18.6195 188.368 23.0859 188.006 27.3913C187.643 31.6966 187.462 36.1429 187.462 40.7299C187.462 42.6613 187.563 44.5927 187.764 46.5241C187.965 48.4555 188.066 50.3869 188.066 52.3183C188.066 53.5656 187.804 54.5515 187.281 55.2757C186.758 55.9598 185.974 56.3018 184.927 56.3018ZM201.872 18.8207C200.665 18.8207 199.619 18.4384 198.733 17.6739C197.848 16.9094 197.406 15.7828 197.406 14.294C197.406 12.8052 197.929 11.7591 198.975 11.1555C200.021 10.5519 201.087 10.2502 202.174 10.2502C203.421 10.2502 204.467 10.6324 205.312 11.3969C206.197 12.1614 206.64 13.3082 206.64 14.8372C206.64 16.2858 206.117 17.3118 205.071 17.9154C204.065 18.5189 202.999 18.8207 201.872 18.8207ZM199.458 55.0947C198.693 55.0947 198.11 54.6923 197.707 53.8875C197.305 53.0828 197.003 52.278 196.802 51.4733V43.6874C196.802 43.4862 196.842 42.9631 196.923 42.1181C197.043 41.2329 197.164 40.2068 197.285 39.04C197.446 37.8328 197.587 36.6861 197.707 35.5997C197.868 34.473 197.989 33.5878 198.07 32.944C198.19 32.1393 198.331 31.254 198.492 30.2883C198.693 29.3226 199.035 28.4777 199.518 27.7534C200.001 27.0291 200.685 26.667 201.57 26.667C202.536 26.667 203.22 26.9084 203.622 27.3913C204.065 27.8339 204.326 28.3972 204.407 29.0812C204.487 29.7653 204.528 30.4694 204.528 31.1937V33.3061C204.528 33.3866 204.508 33.5677 204.467 33.8493C204.427 34.0908 204.367 34.3724 204.286 34.6943C204.005 36.1026 203.783 37.1488 203.622 37.8328C203.502 38.4766 203.401 39.04 203.321 39.5228C203.28 39.9654 203.26 40.5891 203.26 41.3938C203.26 41.8767 203.26 42.4803 203.26 43.2045C203.3 43.9288 203.321 44.8744 203.321 46.0413C203.321 46.5643 203.341 47.0874 203.381 47.6105C203.421 48.0934 203.441 48.6164 203.441 49.1798C203.441 49.7833 203.381 50.4271 203.26 51.1112C203.099 52.1171 202.737 53.0426 202.174 53.8875C201.61 54.6923 200.705 55.0947 199.458 55.0947ZM221.169 57.2071C219.922 57.2071 218.996 56.8249 218.393 56.0604C217.789 55.2958 217.387 54.3704 217.185 53.284C217.024 52.1573 216.944 51.1313 216.944 50.2058V47.9123C216.944 45.3773 216.984 42.8223 217.065 40.2471C217.185 37.6719 217.266 34.8955 217.306 31.918C216.3 31.9582 215.435 32.0185 214.711 32.099C214.027 32.1795 213.323 32.2197 212.598 32.2197C210.747 32.2197 209.822 31.3144 209.822 29.5037C209.822 28.8197 209.943 28.1759 210.184 27.5723C210.426 26.9285 210.929 26.5262 211.693 26.3652L217.004 25.1581C217.688 24.9971 218.131 24.5746 218.332 23.8906C218.574 23.1663 218.694 22.3415 218.694 21.416C218.735 20.4503 218.795 19.5047 218.875 18.5793C218.996 17.6538 219.298 16.8893 219.781 16.2857C220.304 15.6822 221.169 15.3804 222.376 15.3804C223.221 15.3804 223.845 15.6218 224.247 16.1047C224.69 16.5473 224.991 17.0905 225.152 17.7343C225.313 18.3781 225.394 19.0018 225.394 19.6053C225.394 19.6858 225.374 19.9675 225.333 20.4503C225.293 20.8929 225.233 21.3355 225.152 21.7781C225.112 22.2208 225.092 22.5024 225.092 22.6231V24.5545H232.455C233.341 24.5545 234.025 24.977 234.508 25.822C234.99 26.6267 235.232 27.4516 235.232 28.2966C235.232 28.4575 235.171 28.7593 235.051 29.2019C234.93 29.6445 234.709 30.067 234.387 30.4694C234.065 30.8315 233.622 31.0126 233.059 31.0126H225.333C225.293 31.0126 225.213 31.0529 225.092 31.1333C224.971 31.1736 224.831 31.2943 224.67 31.4955L224.549 31.6765C224.348 32.7629 224.207 33.6482 224.126 34.3322C224.046 34.976 223.986 35.5796 223.945 36.1429C223.945 36.666 223.945 37.3098 223.945 38.0743C223.945 40.2873 223.986 42.5004 224.066 44.7134C224.187 46.9265 224.247 49.2602 224.247 51.7147C224.247 52.5195 224.187 53.3443 224.066 54.1893C223.945 55.0343 223.664 55.7385 223.221 56.3018C222.778 56.9053 222.094 57.2071 221.169 57.2071ZM256.438 56C253.541 56 250.845 55.3763 248.35 54.129C245.856 52.8816 243.844 51.1112 242.315 48.8176C240.786 46.5241 240.021 43.8483 240.021 40.7903C240.021 38.6979 240.444 36.7666 241.289 34.9961C242.174 33.1854 243.28 31.4955 244.608 29.9262C245.976 28.357 247.344 26.8883 248.712 25.5202C249.437 24.7959 250.302 24.2729 251.308 23.951C252.314 23.5888 253.34 23.4078 254.386 23.4078C257.001 23.4078 259.516 23.6894 261.93 24.2527C264.345 24.8161 266.497 25.7415 268.389 27.0291C270.32 28.2765 271.849 29.9463 272.976 32.0387C274.102 34.0908 274.666 36.6056 274.666 39.5832C274.666 42.0376 274.142 44.2708 273.096 46.2827C272.05 48.2946 270.642 50.0248 268.871 51.4733C267.141 52.9218 265.19 54.0485 263.017 54.8532C260.884 55.6177 258.691 56 256.438 56ZM255.231 49.3005C257.444 49.3005 259.536 48.9182 261.508 48.1537C263.48 47.349 265.089 46.162 266.336 44.5927C267.624 42.9832 268.268 41.0116 268.268 38.6778C268.268 36.6257 267.664 34.9156 266.457 33.5476C265.29 32.1795 263.801 31.1736 261.991 30.5298C260.18 29.8457 258.329 29.5037 256.438 29.5037C255.472 29.5037 254.688 29.6445 254.084 29.9262C253.481 30.2079 252.937 30.5901 252.455 31.073C251.972 31.5558 251.408 32.1191 250.765 32.7629C249.638 33.9298 248.632 35.2174 247.747 36.6257C246.862 37.9938 246.419 39.563 246.419 41.3335C246.419 44.1501 247.264 46.1821 248.954 47.4294C250.644 48.6768 252.736 49.3005 255.231 49.3005Z" fill="#321E3F"/>
<path d="M22.4346 56.1125C18.6523 56.1125 15.554 55.2474 13.1398 53.5172C10.7256 51.7869 8.93501 49.4733 7.76812 46.5762C6.60124 43.6389 6.0178 40.44 6.0178 36.9796C6.0178 34.2032 6.48053 31.4269 7.40599 28.6505C8.33145 25.8339 9.65928 23.2587 11.3895 20.9249C13.1599 18.5509 15.2724 16.6598 17.7269 15.2514C20.2216 13.8029 22.998 13.0786 26.056 13.0786C27.1022 13.0786 28.3093 13.2999 29.6774 13.7425C31.0857 14.1449 32.4336 14.7485 33.7212 15.5532C35.049 16.3177 36.1354 17.2432 36.9804 18.3296C37.8657 19.3758 38.3083 20.5427 38.3083 21.8302C38.3083 22.5948 37.9864 23.2386 37.3426 23.7616C36.739 24.2847 36.0349 24.5463 35.2301 24.5463C34.3449 24.5463 33.6206 24.3048 33.0573 23.822C32.494 23.3392 31.9306 22.7959 31.3673 22.1924C30.8442 21.5888 30.1803 21.0456 29.3756 20.5628C28.5708 20.0799 27.4643 19.8385 26.056 19.8385C24.0039 19.8385 22.1329 20.3817 20.4429 21.4681C18.7529 22.5545 17.3044 23.9829 16.0973 25.7534C14.9304 27.4836 14.025 29.3546 13.3812 31.3665C12.7374 33.3381 12.4155 35.2092 12.4155 36.9796C12.4155 39.1524 12.7576 41.1643 13.4416 43.0152C14.1256 44.8259 15.212 46.2946 16.7008 47.4212C18.1896 48.5076 20.1009 49.0508 22.4346 49.0508C24.8086 49.0508 26.7803 48.407 28.3495 47.1194C29.959 45.8318 31.3472 44.2223 32.5141 42.2909C32.6348 42.0495 32.7354 41.7679 32.8159 41.446C32.8963 41.1241 32.9567 40.6814 32.9969 40.1181C32.836 40.0376 32.6549 39.9169 32.4537 39.756H23.34C22.2938 39.756 21.4689 39.414 20.8654 38.7299C20.3021 38.0459 20.0204 37.1607 20.0204 36.0743C20.0204 35.1488 20.3423 34.4044 20.9861 33.8411C21.6701 33.2375 22.5553 32.8553 23.6418 32.6943H27.2028C28.4904 32.6943 29.8584 32.7547 31.307 32.8754C32.7555 32.9559 34.1236 33.2174 35.4112 33.66C36.6988 34.1026 37.7449 34.847 38.5497 35.8932C39.3544 36.8991 39.7568 38.3477 39.7568 40.2388C39.7568 42.4921 39.2337 44.5845 38.1875 46.5159C37.1816 48.4472 35.8337 50.1372 34.1437 51.5858C32.4537 52.9941 30.5827 54.1006 28.5306 54.9053C26.4785 55.7101 24.4465 56.1125 22.4346 56.1125ZM57.3859 54.6036C55.535 54.6036 53.8048 54.1811 52.1953 53.3361C50.5858 52.4911 49.2379 51.3645 48.1515 49.9561C47.0651 48.5076 46.3609 46.878 46.039 45.0673V41.9892C46.039 39.7359 46.4414 37.4625 47.2461 35.1689C48.0509 32.8754 49.1976 30.7629 50.6864 28.8315C52.1752 26.8599 53.9456 25.2907 55.9978 24.1238C58.0499 22.9167 60.3031 22.3131 62.7576 22.3131C63.7636 22.3131 64.6287 22.4942 65.3529 22.8563C66.1174 23.2184 66.8015 23.6007 67.405 24.0031C68.0488 24.3652 68.6725 24.5865 69.2761 24.667C69.598 23.0173 70.0406 21.9308 70.6039 21.4078C71.1672 20.8444 71.9317 20.5628 72.8974 20.5628C74.0643 20.5628 74.8489 20.945 75.2513 21.7095C75.6939 22.4338 75.9152 23.3593 75.9152 24.4859C75.9152 26.699 75.8549 28.8718 75.7342 31.0044C75.6537 33.1369 75.6135 35.3299 75.6135 37.5832C75.6135 39.3536 75.714 41.1844 75.9152 43.0756C76.1164 44.9667 76.217 46.7975 76.217 48.568V49.8354C76.217 50.7207 76.0359 51.5455 75.6738 52.31C75.3519 53.0343 74.6075 53.3964 73.4406 53.3964C72.3542 53.3964 71.5696 53.0745 71.0868 52.4307C70.6441 51.7467 70.3424 50.942 70.1814 50.0165C70.0607 49.0508 69.94 48.1857 69.8193 47.4212L69.5779 47.1798C68.2098 48.5478 66.9825 49.7952 65.8961 50.9218C64.85 52.0485 63.6831 52.9538 62.3955 53.6379C61.1079 54.2817 59.438 54.6036 57.3859 54.6036ZM56.7824 48.5076C58.1907 48.5076 59.5185 48.0851 60.7659 47.2401C62.0535 46.3549 63.2002 45.2283 64.2062 43.8602C65.2121 42.4519 65.9967 40.9832 66.5601 39.4542C67.1234 37.9252 67.405 36.4968 67.405 35.1689C67.405 34.163 67.2642 33.1571 66.9825 32.1511C66.7009 31.105 66.218 30.2197 65.534 29.4955C64.8902 28.7712 63.9647 28.4091 62.7576 28.4091C61.4298 28.4091 60.1221 28.8718 58.8345 29.7972C57.5871 30.7227 56.4605 31.9097 55.4546 33.3582C54.4486 34.7666 53.6439 36.2553 53.0403 37.8246C52.4367 39.3536 52.135 40.7418 52.135 41.9892C52.135 42.9951 52.2758 44.001 52.5575 45.007C52.8794 46.0129 53.3823 46.8579 54.0664 47.5419C54.7504 48.1857 55.6557 48.5076 56.7824 48.5076ZM87.8884 53.3964C87.0031 53.3964 86.2185 53.1148 85.5345 52.5515C84.8907 51.9479 84.5688 51.2035 84.5688 50.3183C84.5688 48.9905 84.609 47.7029 84.6895 46.4555C84.8102 45.2081 84.8706 43.9407 84.8706 42.6531V38.6696C84.8706 37.0198 84.8102 35.3902 84.6895 33.7807C84.609 32.131 84.3475 30.5014 83.9049 28.8919C83.7439 28.4091 83.6031 27.9061 83.4824 27.383C83.4019 26.8197 83.3617 26.2564 83.3617 25.693C83.3617 24.8883 83.5628 24.0835 83.9652 23.2788C84.3676 22.4338 85.0919 22.0113 86.138 22.0113C86.983 22.0113 87.6671 22.3332 88.1901 22.977C88.7132 23.5806 89.1156 24.3451 89.3973 25.2705C89.6789 26.1558 89.8801 27.0611 90.0008 27.9866C90.1618 28.8718 90.3026 29.6162 90.4233 30.2197C90.5038 30.7428 90.6245 31.3061 90.7854 31.9097C90.9464 32.5133 91.0269 33.0967 91.0269 33.66C91.0269 33.7003 91.0671 33.821 91.1476 34.0222C91.2281 34.2234 91.3085 34.4245 91.389 34.6257C91.9121 33.7003 92.4955 32.6943 93.1393 31.6079C93.8234 30.4813 94.5678 29.4351 95.3725 28.4694C96.2175 27.4635 97.1429 26.6386 98.1489 25.9948C99.195 25.351 100.342 25.0291 101.589 25.0291C102.877 25.0291 103.842 25.351 104.486 25.9948C105.17 26.5984 105.713 27.3629 106.116 28.2883C106.518 29.1736 106.921 30.0588 107.323 30.944C107.484 31.3464 107.585 31.7689 107.625 32.2115C107.665 32.6139 107.766 33.0363 107.927 33.479L108.59 32.5133C109.395 31.3866 110.301 30.1594 111.306 28.8315C112.353 27.4635 113.52 26.2966 114.807 25.3309C116.095 24.325 117.543 23.822 119.153 23.822C120.44 23.822 121.527 24.2043 122.412 24.9688C123.337 25.693 124.082 26.6386 124.645 27.8055C125.249 28.9724 125.691 30.1795 125.973 31.4269C126.255 32.6742 126.395 33.821 126.395 34.8671V47.6626C126.395 48.2662 126.295 48.9301 126.094 49.6544C125.933 50.3384 125.631 50.942 125.188 51.465C124.746 51.9479 124.122 52.1893 123.317 52.1893C122.392 52.1893 121.647 51.8674 121.084 51.2236C120.521 50.5798 120.239 49.8958 120.239 49.1715V38.1867C120.239 38.066 120.219 37.8045 120.179 37.4021C120.139 36.9997 120.078 36.5772 119.998 36.1346C119.958 35.692 119.937 35.3701 119.937 35.1689C119.937 34.847 119.897 34.3441 119.817 33.66C119.736 32.976 119.575 32.3322 119.334 31.7286C119.092 31.1251 118.73 30.8233 118.247 30.8233H117.704C116.497 31.8695 115.592 32.8754 114.988 33.8411C114.385 34.7666 113.922 35.692 113.6 36.6175C113.278 37.5429 112.976 38.5287 112.695 39.5749C112.413 40.5808 112.011 41.6874 111.488 42.8945C111.206 43.9407 110.743 44.9265 110.099 45.8519C109.496 46.7372 108.651 47.1798 107.564 47.1798C106.518 47.1798 105.713 46.8981 105.15 46.3348C104.627 45.7312 104.225 45.007 103.943 44.162C103.702 43.317 103.5 42.5122 103.339 41.7477C103.259 41.3856 103.118 40.782 102.917 39.9371C102.716 39.0921 102.495 38.1666 102.253 37.1607C102.052 36.1547 101.851 35.2092 101.65 34.3239C101.448 33.3985 101.308 32.7145 101.227 32.2718C100.986 31.9097 100.744 31.7286 100.503 31.7286C100.141 31.7286 99.7584 31.9902 99.356 32.5133C98.9536 33.0363 98.6518 33.5393 98.4507 34.0222C98.2092 34.3843 97.8672 35.0281 97.4246 35.9536C96.982 36.8388 96.5595 37.7039 96.1571 38.5489C95.795 39.3938 95.5536 39.9572 95.4329 40.2388C95.3524 40.4803 95.111 41.0637 94.7086 41.9892C94.3464 42.9146 93.924 43.9809 93.4411 45.188C92.9583 46.3549 92.5156 47.4212 92.1133 48.3869C91.7109 49.3526 91.4494 49.9964 91.3286 50.3183C90.9263 51.0828 90.5038 51.7869 90.0612 52.4307C89.6588 53.0745 88.9345 53.3964 87.8884 53.3964ZM149.152 54.9053C146.254 54.9053 143.579 54.4627 141.124 53.5775C138.71 52.652 136.758 51.2035 135.27 49.2319C133.781 47.22 133.037 44.6247 133.037 41.446C133.037 39.0317 133.419 36.6778 134.183 34.3843C134.988 32.0908 136.135 30.0185 137.624 28.1676C139.112 26.2765 140.903 24.7877 142.995 23.7013C145.088 22.5746 147.441 22.0113 150.057 22.0113C151.827 22.0113 153.477 22.3735 155.006 23.0977C156.575 23.7818 157.823 24.8078 158.748 26.1759C159.714 27.5037 160.197 29.1333 160.197 31.0647C160.197 32.9156 159.814 34.6861 159.05 36.376C158.285 38.066 157.239 39.5749 155.911 40.9027C154.584 42.2306 153.075 43.2768 151.385 44.0413C149.735 44.7655 148.005 45.1277 146.194 45.1277C145.912 45.1277 145.289 45.0673 144.323 44.9466C143.357 44.7857 142.593 44.6247 142.03 44.4638C141.627 44.3833 141.305 44.2223 141.064 43.9809C140.983 43.9407 140.843 43.8803 140.641 43.7998C140.44 43.6791 140.299 43.6188 140.219 43.6188C140.501 44.7857 141.084 45.7715 141.969 46.5762C142.895 47.3407 143.941 47.904 145.108 48.2662C146.315 48.6283 147.462 48.8094 148.548 48.8094C149.313 48.8094 150.077 48.7691 150.842 48.6887C151.646 48.568 152.491 48.5076 153.377 48.5076C154.262 48.5076 155.026 48.749 155.67 49.2319C156.314 49.7147 156.636 50.4994 156.636 51.5858C156.636 52.471 156.354 53.155 155.791 53.6379C155.268 54.1207 154.584 54.4426 153.739 54.6036C152.934 54.7645 152.109 54.845 151.264 54.845C150.459 54.8852 149.755 54.9053 149.152 54.9053ZM146.194 38.1264C147.401 38.1264 148.588 37.9051 149.755 37.4625C150.962 36.9796 151.948 36.2755 152.713 35.35C153.517 34.4245 153.92 33.2778 153.92 31.9097C153.92 30.7428 153.558 29.8174 152.833 29.1333C152.149 28.4493 151.224 28.1073 150.057 28.1073C149.011 28.1073 147.904 28.3889 146.737 28.9523C145.57 29.5156 144.464 30.2399 143.418 31.1251C142.412 32.0103 141.587 32.976 140.943 34.0222C140.299 35.0281 139.977 36.0139 139.977 36.9796V37.221C141.024 37.382 142.07 37.5832 143.116 37.8246C144.162 38.0258 145.188 38.1264 146.194 38.1264ZM172.19 54.3018C171.265 54.3018 170.561 54 170.078 53.3964C169.635 52.7526 169.333 51.968 169.172 51.0426C169.052 50.1171 168.991 49.1715 168.991 48.2058C168.991 47.723 168.991 47.2602 168.991 46.8176C169.031 46.3348 169.052 45.8922 169.052 45.4898C169.052 44.5241 169.072 43.0353 169.112 41.0235C169.152 39.0116 169.213 36.7181 169.293 34.1429C169.374 31.5274 169.474 28.8114 169.595 25.9948C169.716 23.1782 169.876 20.4622 170.078 17.8468C170.319 15.2313 170.581 12.9378 170.862 10.9662C171.144 9.15549 171.647 7.70695 172.371 6.62054C173.136 5.53413 173.9 4.99093 174.665 4.99093C175.349 4.99093 175.932 5.53413 176.415 6.62054C176.898 7.70695 177.079 9.49751 176.958 11.9922C176.194 16.6195 175.63 21.0859 175.268 25.3913C174.906 29.6966 174.725 34.1429 174.725 38.7299C174.725 40.6613 174.826 42.5927 175.027 44.5241C175.228 46.4555 175.329 48.3869 175.329 50.3183C175.329 51.5656 175.067 52.5515 174.544 53.2757C174.021 53.9598 173.236 54.3018 172.19 54.3018ZM187.927 54.3018C187.002 54.3018 186.298 54 185.815 53.3964C185.372 52.7526 185.071 51.968 184.91 51.0426C184.789 50.1171 184.729 49.1715 184.729 48.2058C184.729 47.723 184.729 47.2602 184.729 46.8176C184.769 46.3348 184.789 45.8922 184.789 45.4898C184.789 44.5241 184.809 43.0353 184.849 41.0235C184.89 39.0116 184.95 36.7181 185.03 34.1429C185.111 31.5274 185.211 28.8114 185.332 25.9948C185.453 23.1782 185.614 20.4622 185.815 17.8468C186.056 15.2313 186.318 12.9378 186.6 10.9662C186.881 9.15549 187.384 7.70695 188.109 6.62054C188.873 5.53413 189.638 4.99093 190.402 4.99093C191.086 4.99093 191.67 5.53413 192.152 6.62054C192.635 7.70695 192.816 9.49751 192.696 11.9922C191.931 16.6195 191.368 21.0859 191.006 25.3913C190.643 29.6966 190.462 34.1429 190.462 38.7299C190.462 40.6613 190.563 42.5927 190.764 44.5241C190.965 46.4555 191.066 48.3869 191.066 50.3183C191.066 51.5656 190.804 52.5515 190.281 53.2757C189.758 53.9598 188.974 54.3018 187.927 54.3018ZM204.872 16.8207C203.665 16.8207 202.619 16.4384 201.733 15.6739C200.848 14.9094 200.406 13.7828 200.406 12.294C200.406 10.8052 200.929 9.75905 201.975 9.15549C203.021 8.55193 204.087 8.25015 205.174 8.25015C206.421 8.25015 207.467 8.63241 208.312 9.39692C209.197 10.1614 209.64 11.3082 209.64 12.8372C209.64 14.2858 209.117 15.3118 208.071 15.9154C207.065 16.5189 205.999 16.8207 204.872 16.8207ZM202.458 53.0947C201.693 53.0947 201.11 52.6923 200.707 51.8875C200.305 51.0828 200.003 50.278 199.802 49.4733V41.6874C199.802 41.4862 199.842 40.9631 199.923 40.1181C200.043 39.2329 200.164 38.2068 200.285 37.04C200.446 35.8328 200.587 34.6861 200.707 33.5997C200.868 32.473 200.989 31.5878 201.07 30.944C201.19 30.1393 201.331 29.254 201.492 28.2883C201.693 27.3226 202.035 26.4777 202.518 25.7534C203.001 25.0291 203.685 24.667 204.57 24.667C205.536 24.667 206.22 24.9084 206.622 25.3913C207.065 25.8339 207.326 26.3972 207.407 27.0812C207.487 27.7653 207.528 28.4694 207.528 29.1937V31.3061C207.528 31.3866 207.508 31.5677 207.467 31.8493C207.427 32.0908 207.367 32.3724 207.286 32.6943C207.005 34.1026 206.783 35.1488 206.622 35.8328C206.502 36.4766 206.401 37.04 206.321 37.5228C206.28 37.9654 206.26 38.5891 206.26 39.3938C206.26 39.8767 206.26 40.4803 206.26 41.2045C206.3 41.9288 206.321 42.8744 206.321 44.0413C206.321 44.5643 206.341 45.0874 206.381 45.6105C206.421 46.0934 206.441 46.6164 206.441 47.1798C206.441 47.7833 206.381 48.4271 206.26 49.1112C206.099 50.1171 205.737 51.0426 205.174 51.8875C204.61 52.6923 203.705 53.0947 202.458 53.0947ZM224.169 55.2071C222.922 55.2071 221.996 54.8249 221.393 54.0604C220.789 53.2958 220.387 52.3704 220.185 51.284C220.024 50.1573 219.944 49.1313 219.944 48.2058V45.9123C219.944 43.3773 219.984 40.8223 220.065 38.2471C220.185 35.6719 220.266 32.8955 220.306 29.918C219.3 29.9582 218.435 30.0185 217.711 30.099C217.027 30.1795 216.323 30.2197 215.598 30.2197C213.747 30.2197 212.822 29.3144 212.822 27.5037C212.822 26.8197 212.943 26.1759 213.184 25.5723C213.426 24.9285 213.929 24.5262 214.693 24.3652L220.004 23.1581C220.688 22.9971 221.131 22.5746 221.332 21.8906C221.574 21.1663 221.694 20.3415 221.694 19.416C221.735 18.4503 221.795 17.5047 221.875 16.5793C221.996 15.6538 222.298 14.8893 222.781 14.2857C223.304 13.6822 224.169 13.3804 225.376 13.3804C226.221 13.3804 226.845 13.6218 227.247 14.1047C227.69 14.5473 227.991 15.0905 228.152 15.7343C228.313 16.3781 228.394 17.0018 228.394 17.6053C228.394 17.6858 228.374 17.9675 228.333 18.4503C228.293 18.8929 228.233 19.3355 228.152 19.7781C228.112 20.2208 228.092 20.5024 228.092 20.6231V22.5545H235.455C236.341 22.5545 237.025 22.977 237.508 23.822C237.99 24.6267 238.232 25.4516 238.232 26.2966C238.232 26.4575 238.171 26.7593 238.051 27.2019C237.93 27.6445 237.709 28.067 237.387 28.4694C237.065 28.8315 236.622 29.0126 236.059 29.0126H228.333C228.293 29.0126 228.213 29.0529 228.092 29.1333C227.971 29.1736 227.831 29.2943 227.67 29.4955L227.549 29.6765C227.348 30.7629 227.207 31.6482 227.126 32.3322C227.046 32.976 226.986 33.5796 226.945 34.1429C226.945 34.666 226.945 35.3098 226.945 36.0743C226.945 38.2873 226.986 40.5004 227.066 42.7134C227.187 44.9265 227.247 47.2602 227.247 49.7147C227.247 50.5195 227.187 51.3443 227.066 52.1893C226.945 53.0343 226.664 53.7385 226.221 54.3018C225.778 54.9053 225.094 55.2071 224.169 55.2071ZM259.438 54C256.541 54 253.845 53.3763 251.35 52.129C248.856 50.8816 246.844 49.1112 245.315 46.8176C243.786 44.5241 243.021 41.8483 243.021 38.7903C243.021 36.6979 243.444 34.7666 244.289 32.9961C245.174 31.1854 246.28 29.4955 247.608 27.9262C248.976 26.357 250.344 24.8883 251.712 23.5202C252.437 22.7959 253.302 22.2729 254.308 21.951C255.314 21.5888 256.34 21.4078 257.386 21.4078C260.001 21.4078 262.516 21.6894 264.93 22.2527C267.345 22.8161 269.497 23.7415 271.389 25.0291C273.32 26.2765 274.849 27.9463 275.976 30.0387C277.102 32.0908 277.666 34.6056 277.666 37.5832C277.666 40.0376 277.142 42.2708 276.096 44.2827C275.05 46.2946 273.642 48.0248 271.871 49.4733C270.141 50.9218 268.19 52.0485 266.017 52.8532C263.884 53.6177 261.691 54 259.438 54ZM258.231 47.3005C260.444 47.3005 262.536 46.9182 264.508 46.1537C266.48 45.349 268.089 44.162 269.336 42.5927C270.624 40.9832 271.268 39.0116 271.268 36.6778C271.268 34.6257 270.664 32.9156 269.457 31.5476C268.29 30.1795 266.801 29.1736 264.991 28.5298C263.18 27.8457 261.329 27.5037 259.438 27.5037C258.472 27.5037 257.688 27.6445 257.084 27.9262C256.481 28.2079 255.937 28.5901 255.455 29.073C254.972 29.5558 254.408 30.1191 253.765 30.7629C252.638 31.9298 251.632 33.2174 250.747 34.6257C249.862 35.9938 249.419 37.563 249.419 39.3335C249.419 42.1501 250.264 44.1821 251.954 45.4294C253.644 46.6768 255.736 47.3005 258.231 47.3005Z" fill="#FF8300"/>
</svg>