<svg width="99" height="80" viewBox="0 0 99 80" fill="none" xmlns="http://www.w3.org/2000/svg">
<path d="M12.2109 52.0784C14.1912 42.2564 16.6763 34.1678 19.4339 27.5402C24.0064 16.5519 29.3359 9.56166 34.3625 5.33296C37.8565 2.39336 41.4871 0.74984 45.0262 0.205643C48.3203 -0.301254 51.5328 0.143272 54.4809 1.37947C57.4176 2.61107 60.0921 4.63195 62.3209 7.28145C65.4291 10.9758 67.6705 15.8949 68.5487 21.6024C68.7054 22.6209 68.9016 24.0157 69.13 25.6431C70.1074 32.6002 71.6982 43.9223 74.3393 54.2189C75.0672 53.2922 75.7294 52.3079 76.3499 51.2885C77.1271 50.0118 77.8418 48.6757 78.5405 47.3273C81.9426 40.7611 86.5725 38.0136 90.5132 37.8143C93.1681 37.6802 95.5161 38.6998 96.9929 40.4915C98.4703 42.2845 99.0713 44.8391 98.2305 47.7705C96.7704 52.8626 90.9012 59.1441 77.5481 64.4885L77.5438 64.4899C79.0465 68.3842 80.779 71.7203 82.7791 74.0441C82.9365 74.2281 82.9152 74.5054 82.7312 74.6627C82.6238 74.7546 82.4849 74.7854 82.3562 74.7587H24.752C24.6941 74.7587 24.6391 74.7475 24.5884 74.7274C17.3164 79.7254 11.0935 80.3864 6.73152 78.6082C4.84792 77.8406 3.31042 76.6189 2.18172 75.0936C1.05492 73.5705 0.337718 71.747 0.0937181 69.7744C-0.513182 64.873 1.79442 59.0325 7.98452 54.5824C8.63272 54.1164 9.31872 53.6681 10.0407 53.2418C10.7239 52.8387 11.4475 52.4498 12.2109 52.0784Z" fill="#373435"/>
<path d="M80.6369 73C77.3683 68.7776 74.8344 61.9458 72.8652 54.513C72.8269 54.4459 72.8077 54.3705 72.8077 54.2945C70.0315 43.742 68.385 32.0275 67.3818 24.8839C67.1624 23.3212 66.9743 21.9818 66.8004 20.8539C65.9473 15.3082 63.7779 10.5389 60.7717 6.96558C58.6355 4.42628 56.074 2.49017 53.262 1.31097C50.4605 0.136276 47.4078 -0.28598 44.2775 0.195618C40.8909 0.716621 37.4083 2.2958 34.047 5.1239C29.1161 9.2718 23.8785 16.1524 19.3655 26.9977C15.7102 35.7837 12.5348 47.1639 10.3896 61.7879C11.5912 61.3148 12.8795 60.9695 14.2115 60.7569C17.1479 60.2889 20.3043 60.4675 23.2169 61.3562C26.144 62.2494 28.8278 63.8589 30.801 66.2476C32.2892 68.0485 33.3729 70.2913 33.8517 73H80.6369Z" fill="#FF8300"/>
<path d="M73.7354 54.3956C74.5167 57.3371 75.3866 60.1773 76.3546 62.79C89.4022 57.5655 95.1104 51.5204 96.5067 46.6505C97.2613 44.0194 96.7386 41.7474 95.4375 40.1685C94.1355 38.589 92.0478 37.691 89.6758 37.8109C86.0109 37.996 81.6767 40.6056 78.4415 46.8497C77.7351 48.2132 77.011 49.5658 76.2199 50.8655C75.4659 52.1039 74.6516 53.2935 73.7354 54.3956Z" fill="#FF8300"/>
<path d="M9.4525 62.1907C9.4511 62.1623 9.4517 62.1334 9.4559 62.1042C9.9546 58.657 10.5102 55.3881 11.1156 52.2878C10.5941 52.556 10.0918 52.833 9.6085 53.1182C8.8972 53.5377 8.2334 53.971 7.6174 54.4138C1.7199 58.6533 -0.483999 64.1743 0.0872013 68.7877C0.312801 70.6118 0.972402 72.2928 2.0074 73.6917C3.0409 75.0886 4.4522 76.2091 6.1825 76.9144C10.598 78.7144 17.0914 77.8246 24.7503 72.0161C24.9428 71.8701 25.2177 71.9078 25.3637 72.1003C25.5094 72.2928 25.4717 72.5677 25.2792 72.7134C25.1519 72.8104 25.0244 72.9057 24.8977 72.9995H32.9611C32.4974 70.5195 31.4928 68.4629 30.1245 66.8069C28.2652 64.5564 25.7305 63.0382 22.9625 62.1935C20.1788 61.3442 17.1597 61.174 14.3494 61.6221C11.5717 62.0649 9.0027 63.1122 7.0748 64.7047C6.8688 64.8748 6.672 65.0497 6.4861 65.2271C6.3033 65.4015 6.1252 65.5846 5.954 65.7745C5.7922 65.9545 5.5141 65.9692 5.3341 65.8071C5.1541 65.6452 5.1394 65.3673 5.3015 65.1873C5.4843 64.9843 5.6782 64.7853 5.8815 64.5914C6.0867 64.395 6.2987 64.2067 6.5147 64.0281C7.3852 63.3089 8.3759 62.6949 9.4525 62.1907Z" fill="#FF8300"/>
<path d="M47.7143 32.5816C45.3765 32.3543 43.4733 31.3749 42.058 29.9627C40.8054 28.7126 39.938 27.1241 39.4927 25.4207C39.0485 23.7208 39.023 21.9032 39.4527 20.1919C40.0644 17.7564 41.5934 15.5312 44.1409 14.1513C46.5271 12.8587 49.2127 12.6555 51.6235 13.3721C54.0367 14.0892 56.176 15.7271 57.4697 18.115C58.5191 20.0522 58.8505 22.1861 58.5548 24.2098C58.3173 25.8368 57.6744 27.3931 56.6732 28.7211C58.1642 28.4294 59.7082 28.2984 61.3123 28.3532C61.5541 28.3608 61.7441 28.5632 61.7367 28.805C61.7293 29.0468 61.5269 29.2367 61.2848 29.2293C59.2929 29.161 57.3963 29.3929 55.5796 29.8722L55.5762 29.8731L55.5727 29.8739L55.5693 29.8751L55.5186 29.8884L55.4679 29.902L55.4571 29.9051L55.4171 29.9159L55.3667 29.9298L55.3389 29.9374L55.3159 29.9437L55.2658 29.9578L55.2207 29.9706L55.215 29.9723L55.1646 29.9868L55.1144 30.0012L55.103 30.0043L55.0639 30.0157L55.0135 30.0304L54.9854 30.0389L54.9633 30.0454L54.9131 30.0605L54.8683 30.0741L54.863 30.0758L54.8128 30.0908L54.7629 30.1064L54.751 30.1098L54.7127 30.1217L54.6625 30.1376L54.6342 30.1463L54.6127 30.1532L54.5625 30.169L54.5174 30.1835L54.5129 30.1852L54.4131 30.2175L54.4012 30.2215L54.3635 30.2337L54.3136 30.2504L54.285 30.26L54.264 30.2668L54.2141 30.2835L54.1687 30.2991L54.1645 30.3006L54.1149 30.3176L54.0656 30.3346L54.0531 30.3388L54.016 30.3519L53.9666 30.3694L53.9374 30.3796L53.917 30.3867L53.8674 30.4043L53.8221 30.4207L53.8181 30.4219L53.7691 30.4397L53.7197 30.4579L53.7067 30.4627L53.6707 30.4757L53.6214 30.4939L53.5919 30.5049L53.5721 30.5123L53.523 30.5307L53.4771 30.548L53.474 30.5494L53.4249 30.5679L53.3759 30.5866L53.3623 30.592L53.3271 30.6053L53.2781 30.6246L53.2475 30.6365L53.2293 30.6435L53.1806 30.6628L53.133 30.6818L53.1316 30.6821L53.0831 30.7017L53.034 30.7212L53.0187 30.7275L52.9856 30.7411L52.9368 30.7606L52.9045 30.7742L52.8883 30.7807C52.5519 30.9194 52.2177 31.0665 51.886 31.221L51.8767 31.2252L51.829 31.2476C51.7358 31.2913 51.6428 31.3358 51.5501 31.3808L51.5427 31.3845L51.4951 31.4078L51.4475 31.431L51.4384 31.4355L51.3522 31.4781L51.327 31.4905L51.3046 31.5016L51.2159 31.5464L51.2097 31.5492L51.1623 31.5733L51.115 31.5974L51.1045 31.6025L51.0676 31.6215L51.0203 31.6456L50.9937 31.6598L50.973 31.6703L50.9259 31.6949L50.8828 31.717L50.8786 31.7196L50.8312 31.7442L50.7839 31.7692L50.7726 31.7751L50.7368 31.7941L50.6898 31.8191L50.662 31.8338L50.6427 31.8443L50.5954 31.8695L50.5517 31.8931L50.5483 31.895L50.5013 31.9206L50.4545 31.9461L50.4072 31.9719L50.3604 31.9974L50.3321 32.013L50.3133 32.0235L50.1727 32.102L50.1257 32.1281L50.1129 32.1354L50.0789 32.1547L50.0324 32.1813L50.0035 32.1975L49.9854 32.208L49.9389 32.2346C49.7521 32.3418 49.5661 32.4515 49.3802 32.5637L49.3728 32.568L49.3694 32.57L49.3657 32.572L49.3623 32.5739C48.3844 33.1655 47.4268 33.8226 46.4854 34.5327C46.2921 34.6784 46.0163 34.6401 45.8706 34.4465C45.7246 34.2532 45.7632 33.9774 45.9565 33.8317C46.5353 33.3943 47.1213 32.977 47.7143 32.5816Z" fill="#373435"/>
<path d="M25.8334 29.1076C25.8816 28.8703 26.1132 28.7172 26.3505 28.7654C26.5874 28.8136 26.7405 29.0455 26.6923 29.2824C26.431 30.5507 26.5163 32.2498 26.9222 34.1424C27.937 33.9174 29.0394 33.7704 29.9556 33.8178C30.8964 33.8663 31.6674 34.126 32.0325 34.7122C32.6423 35.6907 31.7247 37.0431 30.6489 38.0786C30.3278 38.3873 29.9876 38.6735 29.6758 38.9099C29.3583 39.1509 29.0689 39.34 28.8554 39.4508C28.8217 39.4684 28.7885 39.4846 28.7562 39.4988C29.296 40.6533 29.9298 41.8017 30.6537 42.9009C31.8817 44.7656 33.3676 46.4848 35.0863 47.8465C36.793 49.1987 38.7316 50.2007 40.8777 50.6432C41.3956 50.7498 41.9257 50.8243 42.4683 50.8632C42.5301 49.9224 42.6378 48.8734 42.8456 47.9876C43.1137 46.8447 43.5673 45.9417 44.3329 45.7407L44.478 45.7115C45.3344 45.5873 46.1462 46.349 46.7874 47.3499C47.3504 48.2289 47.8022 49.3118 48.0106 50.0666C49.4571 49.5615 50.9654 48.8117 52.5324 47.7799C52.7342 47.6473 53.0063 47.7034 53.139 47.9055C53.2717 48.1073 53.2155 48.3795 53.0134 48.5118C51.237 49.682 49.5277 50.5052 47.8909 51.0318C47.8481 51.0539 47.8008 51.0695 47.7506 51.0766L47.7484 51.0769C45.2173 51.8672 42.8617 51.9474 40.7028 51.5024C38.4133 51.0301 36.3522 49.9671 34.5434 48.5337C32.7466 47.1098 31.198 45.32 29.9218 43.382C28.1425 40.6803 26.8893 37.6781 26.2246 34.969C26.1801 34.9183 26.1469 34.8565 26.1297 34.7868C26.1112 34.7131 26.1126 34.6388 26.1305 34.5702C25.65 32.4482 25.5403 30.5288 25.8334 29.1076Z" fill="#373435"/>
<path d="M42.6755 29.3402C44.1904 30.8517 46.3317 31.8152 49.0232 31.7519L49.128 31.6896L49.1615 31.6697C49.3741 31.5436 49.5881 31.4214 49.8033 31.3015L49.8123 31.2961L49.9059 31.2443L49.9164 31.2386L50.0298 31.1765L50.0465 31.1672L50.1874 31.0909L50.2344 31.0657L50.2571 31.0538L50.2815 31.0407L50.3288 31.0159L50.371 30.9935L50.3759 30.9908L50.4705 30.9412L50.485 30.9336L50.5179 30.9166L50.5652 30.892L50.5995 30.8743L50.6126 30.8675L50.6599 30.8433L50.7075 30.8191L50.714 30.8157L50.7549 30.7947L50.8025 30.7709L50.8286 30.7576L50.8501 30.7471L50.8977 30.723L50.9436 30.7L50.9453 30.6995L50.9932 30.6756L51.0409 30.6521L51.0587 30.6433L51.0888 30.629L51.1364 30.6053L51.1741 30.5869L51.1843 30.5821L51.2322 30.5591L51.3283 30.5132L51.3765 30.4902L51.4054 30.4764L51.4244 30.4676L51.4726 30.4449L51.5208 30.4225L51.5687 30.3998L51.6172 30.3777L51.6656 30.3556L51.7135 30.3335L51.7541 30.3151L51.762 30.3115L51.8108 30.2895L51.8589 30.2674L51.8706 30.2623L51.9074 30.2459L51.9559 30.2244C52.1013 30.16 52.2473 30.0971 52.3933 30.0356L52.4418 30.0152C52.6824 29.9148 52.9239 29.8184 53.1674 29.726C53.5813 29.5693 53.9991 29.4248 54.4212 29.293L54.4711 29.277L54.4949 29.2696L54.5215 29.2617L54.572 29.2461L54.824 29.171L54.8617 29.1597L54.8744 29.1563L54.9252 29.1418L54.9756 29.1273L55.0264 29.1132L55.0768 29.0987L55.1075 29.0902L55.1279 29.0845L55.1783 29.0707L55.2299 29.0565C56.5679 27.6879 57.4143 25.9361 57.685 24.0834C57.954 22.2392 57.6521 20.2949 56.6963 18.53C55.5185 16.3564 53.5714 14.8657 51.3756 14.2129C49.1779 13.56 46.7308 13.7454 44.556 14.9235C42.2461 16.1747 40.8591 18.1935 40.3041 20.404C39.9101 21.9738 39.9333 23.6409 40.3406 25.1999C40.7471 26.7556 41.5369 28.2038 42.6755 29.3402Z" fill="white"/>
<path d="M42.6755 29.3402C44.1904 30.8517 46.3317 31.8152 49.0232 31.7519L49.128 31.6896L49.1615 31.6697C49.3741 31.5436 49.5881 31.4214 49.8033 31.3015L49.8123 31.2961L49.9059 31.2443L49.9164 31.2386L50.0298 31.1765L50.0465 31.1672L50.1874 31.0909L50.2344 31.0657L50.2571 31.0538L50.2815 31.0407L50.3288 31.0159L50.371 30.9935L50.3759 30.9908L50.4705 30.9412L50.485 30.9336L50.5179 30.9166L50.5652 30.892L50.5995 30.8743L50.6126 30.8675L50.6599 30.8433L50.7075 30.8191L50.714 30.8157L50.7549 30.7947L50.8025 30.7709L50.8286 30.7576L50.8501 30.7471L50.8977 30.723L50.9436 30.7L50.9453 30.6995L50.9932 30.6756L51.0409 30.6521L51.0587 30.6433L51.0888 30.629L51.1364 30.6053L51.1741 30.5869L51.1843 30.5821L51.2322 30.5591L51.3283 30.5132L51.3765 30.4902L51.4054 30.4764L51.4244 30.4676L51.4726 30.4449L51.5208 30.4225L51.5687 30.3998L51.6172 30.3777L51.6656 30.3556L51.7135 30.3335L51.7541 30.3151L51.762 30.3115L51.8108 30.2895L51.8589 30.2674L51.8706 30.2623L51.9074 30.2459L51.9559 30.2244C52.1013 30.16 52.2473 30.0971 52.3933 30.0356L52.4418 30.0152C52.6824 29.9148 52.9239 29.8184 53.1674 29.726C53.5813 29.5693 53.9991 29.4248 54.4212 29.293L54.4711 29.277L54.4949 29.2696L54.5215 29.2617L54.572 29.2461L54.824 29.171L54.8617 29.1597L54.8744 29.1563L54.9252 29.1418L54.9756 29.1273L55.0264 29.1132L55.0768 29.0987L55.1075 29.0902L55.1279 29.0845L55.1783 29.0707L55.2299 29.0565C56.5679 27.6879 57.4143 25.9361 57.685 24.0834C57.7389 23.716 57.7695 23.3444 57.7771 22.9711C57.3446 24.3739 56.5965 25.6844 55.5857 26.7559C54.0218 28.4141 51.8255 29.4985 49.1986 29.4625C46.7254 29.4279 44.4994 28.3949 42.9006 26.7519C41.3033 25.1101 40.3321 22.8583 40.3662 20.3862C40.367 20.3066 40.3693 20.2271 40.3724 20.148C40.3483 20.2331 40.3256 20.3184 40.3041 20.404C39.9101 21.9738 39.9333 23.6409 40.3406 25.1999C40.7471 26.7556 41.5369 28.2038 42.6755 29.3402Z" fill="#E9E3CF"/>
<path d="M27.124 34.9966C27.4313 36.1914 27.8588 37.4456 28.3993 38.7041L28.4518 38.6718C28.6287 38.58 28.8733 38.4198 29.1465 38.2126C29.4258 38.0009 29.7367 37.7377 30.0403 37.446C30.8626 36.6546 31.6073 35.6902 31.2867 35.1758C31.0962 34.8699 30.5766 34.728 29.9105 34.694C29.0839 34.6512 28.0694 34.7874 27.124 34.9966Z" fill="white"/>
<path d="M43.3447 50.8945C44.5642 50.8957 45.8415 50.7182 47.174 50.333C46.9912 49.6495 46.5734 48.6435 46.0484 47.8238C45.5761 47.0862 45.0429 46.5161 44.601 46.5799L44.5557 46.589C44.173 46.6893 43.8989 47.3416 43.7005 48.1866C43.506 49.0149 43.4042 50.0027 43.3447 50.8945Z" fill="white"/>
<path fill-rule="evenodd" clip-rule="evenodd" d="M38.0631 14.8975C36.6676 11.3961 37.1217 7.23962 40.1055 5.75342C42.916 4.35332 46.6388 6.05026 48.6701 9.55756C46.6495 8.86336 44.3246 8.95994 42.2159 10.0104C40.0236 11.1026 38.6598 12.9093 38.0631 14.8975Z" fill="black"/>
<path d="M38.0631 14.8975C36.6676 11.3961 37.1217 7.23962 40.1055 5.75342C42.916 4.35332 46.6388 6.05026 48.6701 9.55756C46.6495 8.86336 44.3246 8.95994 42.2159 10.0104C40.0236 11.1026 38.6598 12.9093 38.0631 14.8975Z" stroke="#373435" stroke-width="1.0001" stroke-linecap="round" stroke-linejoin="round"/>
<path fill-rule="evenodd" clip-rule="evenodd" d="M50.3449 23.5333C48.1546 22.4482 45.4991 23.3445 44.414 25.5348C43.3289 27.7255 44.2252 30.3807 46.4155 31.4658C48.6061 32.5509 51.2613 31.6548 52.3464 29.4642C53.4315 27.2739 52.5355 24.6184 50.3449 23.5333Z" fill="black"/>
<path fill-rule="evenodd" clip-rule="evenodd" d="M47.4811 27.6668C46.7389 27.2991 45.8392 27.603 45.4716 28.3451C45.1039 29.0872 45.4078 29.9869 46.1499 30.3546C46.892 30.7222 47.7917 30.4184 48.1594 29.6763C48.527 28.9342 48.2232 28.0344 47.4811 27.6668Z" fill="white"/>
<path d="M33.2176 5.84558C28.533 10.0539 23.6262 16.7584 19.3655 26.9977C15.7102 35.7837 12.5348 47.1639 10.3896 61.7879C11.5912 61.3148 12.8795 60.9695 14.2115 60.7569C17.1479 60.2889 20.3043 60.4675 23.2169 61.3562C26.144 62.2494 28.8278 63.8589 30.801 66.2476C32.2892 68.0485 33.3729 70.2913 33.8517 73H48.3653C39.0413 70.4381 30.5431 61.8687 26.4128 53.9036C19.3574 40.2973 24.16 20.8131 33.2176 5.84558Z" fill="#E27400"/>
<path d="M5.53585 56.0974C2.05805 62.8651 5.01485 73.2107 14.5287 69.3491C20.4974 66.9263 29.8163 65.2383 30.2086 72.9995H26.6298H24.8976C25.0243 72.9057 25.1518 72.8104 25.2791 72.7134C25.4716 72.5677 25.5093 72.2928 25.3636 72.1003C25.2176 71.9078 24.9427 71.8701 24.7502 72.0161C17.0913 77.8246 10.5979 78.7144 6.18245 76.9144C4.45215 76.2091 3.04085 75.0886 2.00735 73.6917C0.972349 72.2928 0.312748 70.6118 0.0871484 68.7877C-0.410952 64.7639 1.20255 60.0495 5.53585 56.0974Z" fill="#E27400"/>
<path d="M75.7803 61.1799C75.9679 61.7253 76.1595 62.2622 76.3551 62.79C89.4027 57.5655 95.1109 51.5204 96.5072 46.6505C97.2618 44.0194 96.7391 41.7474 95.438 40.1685C94.4149 38.9275 92.9066 38.1069 91.1568 37.8707C91.0783 41.3619 90.5343 45.0381 90.1655 46.7568C88.539 54.3329 81.1202 61.3917 75.7803 61.1799Z" fill="#E27400"/>
</svg>
