<svg width="896" height="787" viewBox="0 0 896 787" fill="none" xmlns="http://www.w3.org/2000/svg">
<path fill-rule="evenodd" clip-rule="evenodd" d="M502.48 748.874C503.764 755.759 505.793 763.141 508.737 771.073C516.714 792.567 534.186 785.915 561.656 786.405C580.996 786.75 684.012 776.567 691.719 763.801C726.875 705.563 658.234 721.783 758.043 687.883C800.464 673.475 846.445 624.322 846.445 579.811C846.445 546.112 839.905 539.498 850.651 501.747C857.514 477.638 829.451 410.258 847.584 366.295C857.488 342.286 837.73 295.287 853.104 255.902C865.899 223.122 900.792 146.632 894.37 116.376C877.479 36.7898 876.192 -44.658 766.717 28.5866C725.153 56.3951 787.606 79.5782 628.724 79.5782C592.548 79.5782 515.968 117.253 476.539 89.1721C475.01 88.0836 400.352 78.7579 381.872 94.9106C316.25 152.266 314.902 241.729 343.014 318.633C370.024 392.519 358.972 455.13 384.523 517.785C171.525 518.908 0 571.276 0 635.724C0 700.875 175.281 753.69 391.5 753.69C430.053 753.69 467.292 752.003 502.48 748.874Z" fill="#532391"/>
<path fill-rule="evenodd" clip-rule="evenodd" d="M219.993 554.726C223.741 554.726 227.444 554.777 231.097 554.875C260.97 535.759 332.875 522.285 416.849 522.285C527.605 522.285 617.391 545.722 617.391 574.632C617.391 580.477 613.72 586.097 606.948 591.345C624.485 588.713 645.892 587.166 669.001 587.166C728.451 587.166 776.645 597.399 776.645 610.022C776.645 621.615 735.992 631.191 683.305 632.677C701.313 642.092 711.764 653.294 711.764 665.319C711.764 698.709 631.221 725.776 531.865 725.776C432.51 725.776 351.967 698.709 351.967 665.319C351.967 650.603 367.619 637.116 393.625 626.632C347.035 625.229 305.311 619.657 274.055 611.383C258.046 613.803 239.614 615.183 219.993 615.183C158.507 615.183 108.662 601.649 108.662 584.954C108.662 568.259 158.507 554.726 219.993 554.726Z" fill="#22075D"/>
<path fill-rule="evenodd" clip-rule="evenodd" d="M241.439 539.498C274.544 521.684 314.584 508.827 351.278 503.911C343.272 490.435 336.669 475.377 331.772 458.716C294.549 332.063 440.824 354.353 457.54 238.178C467.242 170.741 463.449 88.2452 558.264 89.0537C697.823 90.2436 723.311 226.668 723.46 337.23C740.165 343.149 759.725 354.364 766.801 365.245C781.028 387.123 751.283 394.535 719.951 396.15C718.505 405.215 716.486 414.239 713.951 423.155C718.415 426.294 720.654 428.948 720.12 431.355C720.656 436.546 720.367 460.069 720.03 461.088C719.798 461.788 719.329 462.495 718.611 463.22C716.257 465.598 706.463 468.609 694.64 471.46C675.026 509.067 646.472 541.69 613.439 562.715C640.71 567.126 669.32 575.03 664.437 589.224C657.723 608.741 595.992 617.435 560.147 619.959C577.54 622.111 594.539 627.143 606.486 634.828C666.508 673.439 633.638 717.871 564.519 711.486C531.344 708.422 452.698 679.857 452.571 639.806C452.414 590.41 562.192 607.817 609.041 586.993C601.048 584.966 587.572 582.87 574.96 581.021C574.017 581.325 573.072 581.617 572.126 581.901C497.438 604.237 414.541 585.672 365.407 524.333C305.999 535.43 218.82 591.097 181.151 578.927C128.108 561.789 175.443 460.386 195.033 439.232C211.612 421.332 248.725 401.835 266.784 435.783C283.552 467.305 265.74 514.637 241.439 539.498ZM723.34 367.297C727.008 367.075 730.654 366.8 734.262 366.486C730.874 364.77 727.231 363.015 723.622 361.363C723.596 363.331 723.5 365.322 723.34 367.297Z" fill="#373435"/>
<path fill-rule="evenodd" clip-rule="evenodd" d="M635.384 476.746C634.427 469.153 636.124 458.911 637.827 451.442C631.805 451.058 625.421 449.426 616.936 445.885C619.879 452.512 618.836 461.851 615.414 470.239C623.643 473.93 629.806 475.934 635.384 476.746Z" fill="#767F90"/>
<path fill-rule="evenodd" clip-rule="evenodd" d="M646.292 450.679C646.116 458.337 645.551 468.947 645.314 476.267C647.12 476.371 648.896 476.353 650.699 476.233C659.583 475.641 718.335 464.28 721.312 459.998C721.557 459.646 721.444 459.059 721.795 458.902C722.671 458.509 722.819 442.673 722.43 434.586C717.053 437.526 706.138 440.279 688.367 443.417C667.674 447.072 657.242 450.851 646.292 450.679Z" fill="#767F90"/>
<path fill-rule="evenodd" clip-rule="evenodd" d="M591.295 707.193C592.53 699.958 585.234 689.166 571.754 678.728C545.057 658.057 492.787 642.682 457.084 643.551C457.128 643.805 457.151 644.048 457.202 644.306C465.063 683.709 545.4 709.521 582.154 707.897C585.376 707.755 588.408 707.511 591.295 707.193Z" fill="#FFAB00"/>
<path fill-rule="evenodd" clip-rule="evenodd" d="M169.252 566.772L171.338 566.056C192.888 550.15 208.577 525.463 217.867 500.471C221.608 490.407 233.067 439.405 221.109 425.747C212.36 429.689 204.192 435.863 198.301 442.229C179.523 462.524 145.518 539.616 169.252 566.772Z" fill="#FFAB00"/>
<path fill-rule="evenodd" clip-rule="evenodd" d="M222.039 425.336C235.949 438.113 226.155 490.015 221.733 501.919C214.223 522.125 191.737 561.281 169.502 567.061C176.467 574.794 188.248 578.35 206.624 575.14C247.422 568.014 313.958 530.908 364.546 523.252C360.234 517.78 356.186 511.973 352.435 505.831C314.34 513.51 269.626 528.446 234.759 545.624C231.482 548.29 228.137 550.519 224.787 552.225C254.884 535.749 279.843 481.079 266.522 443.728C257.817 419.32 238.96 418.055 222.039 425.336Z" fill="#FF8300"/>
<path fill-rule="evenodd" clip-rule="evenodd" d="M719.203 335.817C717.882 226.397 696.206 93.8519 558.178 93.1818C444.511 92.6296 478.893 215.589 452.168 273.91C414.644 355.802 275.642 354.279 350.966 493.796C396.782 578.658 487.267 605.063 567.075 579.875C554.49 578.055 544.37 576.585 544.142 575.834L544.47 575.759L544.423 575.724L544.592 575.731C544.924 575.655 544.895 575.684 545.447 575.766C565.259 576.53 593.532 575.064 611.32 585.923C615.355 583.926 618.864 581.611 621.7 578.887C593.366 617.316 450.812 592.396 456.861 642.13C467.273 641.146 477.387 640.865 481.094 641.201C553.084 647.72 596.313 687.922 594.003 706.875C667.952 697.009 626.584 628.7 559.049 621.815C555.418 621.446 550.898 621.004 545.935 620.697C542.807 620.789 540.221 620.802 538.322 620.745C539.224 620.708 540.481 620.623 542.042 620.492C526.965 619.838 509.081 620.791 499.502 628.509C503.297 625.268 504.524 624.534 509.483 622.963C521.575 619.132 537.504 617.967 553.596 619.284C587.029 615.32 658.566 603.619 660.754 586.983C662.736 571.91 582.864 559.923 570.053 557.62C575.304 558.185 591.015 559.371 608.184 561.902C636.814 545.49 659.589 523.097 677.1 496.656C651.45 517.548 589.672 515.121 573.453 486.068C529.651 485.812 466.473 462.109 440.611 430.282C415.875 399.842 413.993 367.722 430.524 333.311C418.496 363.004 419.037 387.294 435.621 415.788C460.362 458.299 525.132 478.657 572.751 484.766C572.115 483.486 571.563 482.159 571.105 480.782C588.569 519.486 685.821 511.267 686.833 473.259C669.802 477.018 651.133 480.162 644.683 480.66C635.691 481.352 627.326 479.849 613.728 473.925C612.954 475.439 612.105 476.9 611.19 478.283L607.126 483.602C612.481 473.781 623.191 445.543 604.735 441.498C579.202 435.902 576.128 477.89 582 477.32C580.903 477.6 579.768 475.99 578.942 473.274C538.831 473.688 481.685 451.628 458.175 420.688C435.498 390.846 433.773 358.772 448.927 323.961C437.901 353.944 438.397 378.222 453.6 406.315C476.154 447.989 534.987 466.806 578.571 471.892C577.551 467.566 577.266 461.261 578.71 455.201C575.964 453.042 574.568 451.229 574.584 449.715C574.621 446.36 574.178 431.531 577.321 420.259C576.602 413.564 594.202 411.522 618.486 409.705C601.238 404.818 586.892 393.473 587.041 373.764C587.21 351.453 604.571 346.198 620.969 347.477C620.085 341.841 619.43 336.141 618.955 330.16L619.032 330.137C619.04 329.964 619.051 329.79 619.074 329.612C619.141 329.087 619.285 328.538 619.511 327.966C622.934 319.312 653.167 319.312 656.59 327.966C656.816 328.538 656.96 329.087 657.027 329.612C657.18 330.8 656.988 331.88 656.516 332.856C655.988 337.894 655.098 343.347 654.133 348.568C671.959 330.746 690.314 346.457 680.866 366.571C693.257 368.04 706.226 368.148 719.027 367.532C719.234 364.85 719.406 362.15 719.536 359.532C711.243 355.899 703.749 353.139 700.787 353.109C710.671 350.254 729.192 357.894 740.597 365.893C744.066 365.547 747.488 365.173 750.847 364.784L753.48 363.747C753.336 363.838 751.113 365.256 750.98 365.302C728.416 373.011 702.893 374.968 679.712 368.802C678.544 370.87 677.084 372.972 675.292 375.079L675.586 374.431L675.583 374.436C677.741 366.85 677.302 369.267 678.473 362.124C681.84 341.59 667.204 341.643 653.992 349.327C653.49 352.014 652.97 354.631 652.473 357.089C659.546 356.7 665.438 356.17 667.077 356.099C655.925 360.446 632.564 366.497 621.752 357.076C620.478 355.966 619.367 354.413 620.9 353.266L620.482 353.877C620.72 354.568 621.396 355.138 622.416 355.605C621.912 353.079 621.461 350.562 621.057 348.033C606.317 348.283 590.806 353.712 590.656 373.799C590.344 415.281 666.307 419.962 676.063 391.826L676.235 391.738L676.241 391.758C676.457 392.625 676.574 393.47 676.598 394.292C708.459 395.083 787.117 392.632 760.597 363.992C750.272 352.841 724.182 336.949 708.53 333.319C711.703 333.765 715.333 334.625 719.203 335.817Z" fill="#FF8300"/>
<path fill-rule="evenodd" clip-rule="evenodd" d="M526.645 234.063C507.347 192.282 524.065 133.764 576.429 136.215C627.535 138.607 628.466 194.92 596.813 228.482C587.013 238.874 579.902 244.929 568.768 251.583C570.917 253.931 572.881 256.516 574.619 259.344C574.664 259.418 574.715 259.505 574.771 259.604C559.323 245.075 534.711 235.31 513.998 235.495C518.133 234.579 522.383 234.101 526.645 234.063Z" fill="#373435"/>
<path fill-rule="evenodd" clip-rule="evenodd" d="M578.659 115.296C587.829 114.035 595.8 115.453 602.572 119.549C605.147 121.106 607.529 122.931 607.001 125.894C606.474 128.858 603.371 131.624 600.656 130.323C593.368 126.83 585.604 124.782 576.743 126.07C573.765 126.503 571.786 122.688 572.314 119.725C572.841 116.762 575.677 115.706 578.659 115.296Z" fill="#373435"/>
<path fill-rule="evenodd" clip-rule="evenodd" d="M568.575 251.37C579.259 244.139 585.913 237.78 595.078 226.905C617.197 200.657 627.359 151.763 584.997 141.569C534.248 129.357 509.097 189.117 526.831 234.062C542.211 233.975 557.727 239.651 568.575 251.37Z" fill="white"/>
<path fill-rule="evenodd" clip-rule="evenodd" d="M382.87 343.368C340.013 374.956 304.225 407.222 350.965 493.796C396.781 578.658 487.266 605.063 567.075 579.875C554.489 578.055 544.369 576.585 544.141 575.834L544.469 575.759L544.423 575.724L544.591 575.731C544.924 575.655 544.894 575.684 545.446 575.766C565.258 576.53 593.531 575.064 611.32 585.923C615.355 583.926 618.863 581.611 621.699 578.887C593.365 617.316 450.812 592.396 456.86 642.13C467.272 641.146 477.387 640.865 481.093 641.201C553.083 647.72 596.312 687.922 594.002 706.875C667.951 697.009 626.584 628.7 559.048 621.815C555.418 621.446 550.897 621.004 545.935 620.697C542.806 620.789 540.221 620.802 538.321 620.745C539.223 620.708 540.48 620.623 542.042 620.492C526.964 619.838 509.08 620.791 499.501 628.509C503.297 625.268 504.523 624.534 509.482 622.963C521.575 619.132 537.504 617.967 553.595 619.284C587.028 615.32 658.565 603.619 660.753 586.983C662.735 571.91 582.864 559.923 570.052 557.62C575.304 558.185 591.015 559.371 608.183 561.902C636.813 545.49 659.588 523.097 677.099 496.656C654.915 514.725 605.711 515.347 582.326 496.39C467.704 627.216 289.444 464.854 382.87 343.368Z" fill="#E27400"/>
<path fill-rule="evenodd" clip-rule="evenodd" d="M719.201 335.818C718.139 247.788 703.883 144.809 626.484 107.555C649.238 170.586 654.425 252.277 647.478 322.461C651.996 323.489 655.543 325.324 656.589 327.967C656.815 328.539 656.958 329.088 657.025 329.613C657.179 330.8 656.986 331.881 656.514 332.857C655.986 337.895 655.097 343.347 654.131 348.568C671.957 330.746 690.312 346.457 680.864 366.572C693.255 368.04 706.224 368.148 719.026 367.532C719.232 364.85 719.405 362.151 719.534 359.533C711.242 355.899 703.748 353.14 700.786 353.11C710.669 350.254 729.19 357.894 740.595 365.893C744.064 365.547 747.486 365.173 750.845 364.785L753.479 363.748C753.334 363.838 751.111 365.257 750.978 365.302C728.415 373.011 702.891 374.968 679.71 368.802C678.543 370.87 677.083 372.973 675.291 375.079L675.585 374.431L675.581 374.436C677.739 366.85 677.3 369.268 678.471 362.124C681.838 341.59 667.202 341.643 653.991 349.327C653.488 352.015 652.968 354.631 652.471 357.089C659.544 356.7 665.436 356.171 667.075 356.099C661.019 358.46 651.363 361.322 642.071 361.937C639.03 379.058 635.208 394.949 630.712 409.063C650.547 411.53 671.274 405.632 676.061 391.826L676.234 391.738L676.239 391.758C676.455 392.625 676.572 393.47 676.596 394.292C708.458 395.084 787.115 392.633 760.596 363.992C750.27 352.841 724.18 336.95 708.528 333.32C711.702 333.765 715.331 334.625 719.201 335.818Z" fill="#E27400"/>
<path fill-rule="evenodd" clip-rule="evenodd" d="M623.104 329.268C621.65 338.419 654.447 338.419 652.994 329.268C651.93 322.566 624.168 322.566 623.104 329.268Z" fill="#A0A7B4"/>
<path fill-rule="evenodd" clip-rule="evenodd" d="M717.172 420.269C719.447 412.138 721.418 403.853 723.086 395.443C708.219 396.028 693.322 395.38 682.882 394.417C682.677 397.773 680.879 400.716 677.936 403.182C682.525 402.901 687.336 404.26 695.013 408.221C704.176 412.949 711.748 416.882 717.172 420.269Z" fill="#FF8300"/>
<path fill-rule="evenodd" clip-rule="evenodd" d="M585.875 451.396C588.482 443.822 594.184 437.245 605.067 436.32C594.406 430.689 588.106 426.313 585.318 422.87C583.388 434.221 583.877 447.04 584.231 449.216C584.339 449.878 584.902 450.598 585.875 451.396Z" fill="#767F90"/>
<path fill-rule="evenodd" clip-rule="evenodd" d="M638.266 411.36C640.259 422.297 654.912 424.242 658.022 410.864C651.859 411.816 645.065 412.017 638.266 411.36Z" fill="#767F90"/>
<path fill-rule="evenodd" clip-rule="evenodd" d="M659.121 335.617C651.643 339.872 636.288 339.781 629.145 335.343C631.013 342.19 632.252 348.933 632.948 355.903C638.661 356.847 647.404 356.767 655.342 356.412C656.019 349.354 657.249 342.536 659.121 335.617Z" fill="#767F90"/>
<path fill-rule="evenodd" clip-rule="evenodd" d="M653.075 263.699C646.186 257.173 637.269 249.262 637.562 239.051C637.96 225.167 654.155 233.681 662.74 239.149C663.249 237.09 663.687 235.024 664.047 232.956L665.331 220.926L665.21 233.103C661.223 285.395 604.378 337.223 550.896 312.2C559.756 315.348 568.614 316.571 577.26 316.198C576.251 282.897 586.581 290.817 603.512 310.11C624.218 301.326 641.981 283.988 653.075 263.699Z" fill="#373435"/>
<path fill-rule="evenodd" clip-rule="evenodd" d="M662.395 240.501C635.053 230.725 637.225 236.354 653.359 263.171C657.284 255.899 660.354 248.259 662.395 240.501Z" fill="white"/>
<path fill-rule="evenodd" clip-rule="evenodd" d="M601.002 311.131C595.473 307.859 592.085 302.571 586.87 298.391C582.466 294.861 580.214 307.381 578.938 316.101C586.515 315.591 593.918 313.867 601.002 311.131Z" fill="white"/>
<path fill-rule="evenodd" clip-rule="evenodd" d="M542.049 237.691C530.913 237.691 521.885 228.663 521.885 217.527C521.885 206.391 530.913 197.363 542.049 197.363C553.185 197.363 562.213 206.391 562.213 217.527C562.213 228.663 553.185 237.691 542.049 237.691Z" fill="black"/>
<path fill-rule="evenodd" clip-rule="evenodd" d="M533.776 231.229C530.492 231.229 527.83 228.566 527.83 225.283C527.83 221.999 530.492 219.337 533.776 219.337C537.06 219.337 539.722 221.999 539.722 225.283C539.722 228.566 537.06 231.229 533.776 231.229Z" fill="white"/>
<path fill-rule="evenodd" clip-rule="evenodd" d="M655.112 411.179C664.55 410.193 670.38 421.425 662.262 428.192C637.364 448.948 604.303 421.514 629.681 413.643C629.731 413.108 629.818 412.557 629.948 411.988C627.538 411.695 625.136 411.295 622.769 410.779C571.416 417.515 567.39 417.637 608.571 437.524C641.797 453.57 644.433 446.716 681.362 440.195C685.746 439.421 724.91 436.132 713.099 426.408C705.618 420.251 680.3 405.146 669.873 405.355C666.057 407.956 660.856 409.919 654.905 411.14L655.112 411.179Z" fill="#A0A7B4"/>
<path fill-rule="evenodd" clip-rule="evenodd" d="M629.634 414.377C609.266 425.922 648.432 441.046 662.138 422.543C665.191 418.422 661.912 413.298 657.219 411.69C656.464 411.432 655.672 411.263 654.865 411.206C654.948 411.195 655.03 411.187 655.112 411.179L654.905 411.139L654.473 411.227C653.984 411.324 653.489 411.416 652.991 411.502L653.018 411.658C655.806 430.658 629.183 428.495 629.634 414.377Z" fill="#767F90"/>
<path fill-rule="evenodd" clip-rule="evenodd" d="M648.382 361.088C640.564 361.606 633.003 360.532 628.062 356.227C626.788 355.117 625.677 353.564 627.21 352.417L626.792 353.028C627.03 353.719 627.706 354.289 628.726 354.756C628.222 352.23 627.771 349.713 627.367 347.184C612.627 347.434 597.116 352.863 596.966 372.95C596.807 394.078 616.435 405.653 637.023 408.214C641.52 394.099 645.341 378.209 648.382 361.088Z" fill="#E27400"/>
<path fill-rule="evenodd" clip-rule="evenodd" d="M720.133 429.975C756.856 421.459 804.892 453.744 794.193 501.967C784.061 547.641 691.892 566.368 642.719 540.03C647.053 536.023 651.263 531.816 655.336 527.426C694.851 547.465 769.982 532.103 777.608 498.909C785.515 464.487 749.595 438.939 720.418 444.357C720.424 438.812 720.344 433.507 720.121 431.355C720.221 430.904 720.224 430.445 720.133 429.975Z" fill="#373435"/>
<path fill-rule="evenodd" clip-rule="evenodd" d="M720.418 443.319C750.485 436.464 789.672 461.465 780.908 499.619C772.44 536.486 693.997 551.172 654.403 528.423C651.071 531.974 647.648 535.404 644.143 538.702C693.129 561.573 781.057 542.109 790.162 501.07C799.805 457.609 755.796 424.563 720.137 431.277L720.121 431.355C720.329 433.372 720.413 438.16 720.418 443.319Z" fill="#00CCFF"/>
</svg>