<svg width="206" height="174" viewBox="0 0 206 174" fill="none" xmlns="http://www.w3.org/2000/svg">
<path d="M203.755 173.164H27.4484C19.9003 173.164 13.0374 170.074 8.06261 165.095C3.08811 160.117 0 153.248 0 145.694V27.47C0 19.916 3.08811 13.0476 8.06261 8.06911C13.0374 3.09041 19.9003 0 27.4484 0H203.755V173.164Z" fill="#E7E5DA"/>
<path fill-rule="evenodd" clip-rule="evenodd" d="M170.837 172.362H28.2083C13.3468 172.362 1.18652 160.202 1.18652 145.34V27.8243C1.18652 12.9623 13.3463 0.802521 28.2083 0.802521H170.837C172.415 0.802521 204.373 0.941116 205.878 1.20392V171.96C204.372 172.223 172.414 172.362 170.837 172.362Z" fill="white"/>
<path fill-rule="evenodd" clip-rule="evenodd" d="M147.198 80.0476C145.732 73.2447 147.544 67.2075 156.355 65.1612C167.453 62.5836 171.439 72.3232 166.562 81.3926L161.988 88.7514C159.813 100.047 152.707 117.299 143.832 129.688H166.704V130.127H143.516L143.496 130.155L143.422 130.141L143.395 130.127H96.9834C97.4843 138.441 84.6723 146.905 72.9312 131.248C58.7356 135.639 52.287 134.064 50.4694 130.127H45.3574V129.688H50.2883C47.6963 122.52 58.8892 108.548 67.3376 106.914C71.9518 76.5681 79.8423 41.4411 104.467 43.8035C129.245 46.1807 136.313 71.7004 137.068 92.5725C137.239 97.2907 136.804 105.169 136.475 113.238C138.442 111.149 140.017 109.4 140.813 108.524C146.398 102.378 148.709 98.1459 152.159 92.7383C140.317 97.1742 133.483 74.6289 145.905 79.2817C146.077 79.346 146.606 79.6524 147.198 80.0476Z" fill="#373435"/>
<path fill-rule="evenodd" clip-rule="evenodd" d="M161.715 89.1888L161.606 89.3646C161.762 89.0162 161.807 88.6758 161.769 88.3651L165.492 80.8768C168.991 72.7385 166.948 64.2043 156.684 66.5879C148.714 68.439 146.95 74.1343 147.849 80.5038C148.671 81.1078 149.409 81.7763 149.303 82.1158C149.383 81.4698 146.171 80.1299 145.753 80.0508C134.696 77.9617 143.524 96.2196 154.549 91.5033C154.038 91.8404 153.535 92.1202 153.039 92.358C149.739 98.9624 149.175 101.498 141.898 109.508C141.262 110.208 139.13 112.476 136.398 115.172C136.221 119.812 136.099 124.437 136.165 128.485C136.065 128.48 135.965 128.483 135.866 128.494C135.384 116.854 136.349 100.428 135.87 92.6301C134.639 72.5792 128.402 47.5745 104.324 45.2609C81.8732 43.1035 73.2491 77.2573 68.2091 106.786C68.2338 106.783 68.259 106.779 68.2837 106.777C68.2587 106.781 68.2329 106.788 68.208 106.793C67.401 111.521 66.6858 116.13 66.0205 120.453C76.7159 117.692 90.1136 118.258 95.587 126.134C96.3654 127.254 96.8011 128.465 96.9448 129.688H141.957C150.155 117.723 158.408 100.707 161.715 89.1888Z" fill="#FF8300"/>
<path fill-rule="evenodd" clip-rule="evenodd" d="M111.54 92.2335C114.651 90.2217 116.582 87.5342 117.567 84.5904C118.548 84.9153 119.512 85.2778 120.453 85.6806L120.994 86.139L120.943 86.4103C120.979 86.3068 120.998 86.2203 120.999 86.1438L121.002 86.1461L121 86.1367C121 85.9182 120.853 85.781 120.545 85.5559C119.675 84.9207 118.753 84.358 117.79 83.8605C121.284 71.326 108.391 54.8649 96.2678 65.5277C90.7836 70.3511 90.3559 77.4199 91.6541 82.9407C88.9887 83.8126 86.4982 84.9368 84.3203 86.2614C86.7176 85.2608 89.2586 84.4439 91.8812 83.827C92.5629 86.2946 93.5746 88.388 94.588 89.7325C93.3918 90.2178 92.25 90.8683 91.1941 91.7003C90.9208 91.9154 90.484 92.3092 90.5495 92.7182C90.5574 92.4911 90.6643 92.3633 90.838 92.2261C96.1859 87.9974 109.209 90.9032 114.681 95.1016C113.768 94.0304 112.707 93.0686 111.54 92.2335Z" fill="#373435"/>
<path fill-rule="evenodd" clip-rule="evenodd" d="M98.4447 52.2697C100.676 51.317 103.039 50.9305 105.573 51.2843C106.603 51.428 107.562 51.8682 107.704 52.898C107.847 53.9281 107.12 55.1726 106.091 55.0291C103.754 54.7043 101.374 55.1032 98.9623 56.0145C97.9897 56.3819 96.9735 55.4308 96.8309 54.4007C96.6886 53.3708 97.4886 52.6779 98.4447 52.2697Z" fill="black"/>
<path fill-rule="evenodd" clip-rule="evenodd" d="M92.7719 82.5924C100.461 80.3212 109.404 80.1373 116.458 83.2253C118.981 71.4278 107.9 57.2138 97.2614 66.5712C93.133 70.2027 92.0136 77.0974 92.7719 82.5924Z" fill="#C16300"/>
<path fill-rule="evenodd" clip-rule="evenodd" d="M107.979 82.6444C106.864 85.5128 101.1 88.0237 100.945 82.5285C98.2423 82.6739 95.5519 83.0336 92.9336 83.5915C93.3931 86.0653 94.2452 88.1723 95.3762 89.4391C100.498 87.7009 106.468 88.8478 111.007 91.8655C113.749 89.7568 115.414 87.0597 116.223 84.172C113.567 83.3982 110.795 82.8953 107.979 82.6444Z" fill="white"/>
<path fill-rule="evenodd" clip-rule="evenodd" d="M102.206 82.4762C103.198 84.7329 105.541 83.6475 106.559 82.5392C105.114 82.4538 103.659 82.434 102.206 82.4762Z" fill="white"/>
<path fill-rule="evenodd" clip-rule="evenodd" d="M97.2682 45.8542C79.9823 50.7224 72.683 80.5744 68.2091 106.786C68.2338 106.783 68.259 106.779 68.2837 106.777C68.2587 106.781 68.2329 106.788 68.208 106.793C67.401 111.521 66.6858 116.13 66.0205 120.453C76.7159 117.692 90.1136 118.258 95.587 126.134C96.3654 127.254 96.8011 128.465 96.9448 129.688H100.886C98.3749 126.568 96.4045 123.725 95.6751 122.451C83.7087 101.538 87.9456 70.6123 97.2682 45.8542Z" fill="#E27400"/>
<path fill-rule="evenodd" clip-rule="evenodd" d="M54.7605 125.397C57.3769 123.458 61.1365 121.784 65.3624 120.627C65.9698 116.314 66.6065 111.727 67.3205 107.025C57.5164 110.204 38.8701 134.959 60.9976 132.434C64.5094 132.034 68.6148 131.427 72.4932 130.649C72.1607 130.187 71.8285 129.712 71.4982 129.21C87.2858 149.794 103.357 131.576 91.1134 123.892C82.0791 118.223 63.4215 119.9 54.7605 125.397Z" fill="#E27400"/>
<path fill-rule="evenodd" clip-rule="evenodd" d="M73.6263 111.505C72.2124 106.864 76.084 101.604 79.7384 109.878L79.8631 110.144C84.125 109.865 88.5059 110.794 92.0498 112.826C85.6574 111.061 75.8368 111.174 69.6621 113.673C70.8733 112.78 72.2104 112.06 73.6263 111.505Z" fill="#373435"/>
<path fill-rule="evenodd" clip-rule="evenodd" d="M78.8595 110.233C78.5375 109.865 78.222 109.405 77.5439 108.397C75.3301 105.103 74.3532 108.824 74.167 111.302C75.6679 110.765 77.25 110.411 78.8595 110.233Z" fill="white"/>
<path fill-rule="evenodd" clip-rule="evenodd" d="M94.6018 83.2647C94.0431 83.3647 93.4866 83.4736 92.9336 83.5915C93.3931 86.0653 94.2452 88.1723 95.3762 89.4391C100.498 87.7009 106.468 88.8478 111.007 91.8655C113.715 89.7829 115.373 87.1263 116.193 84.2792C113.525 86.8493 109.887 88.4325 105.877 88.4325C101.362 88.4325 97.3202 86.427 94.6018 83.2647Z" fill="#E9E3CF"/>
</svg>