<svg width="210" height="174" viewBox="0 0 210 174" fill="none" xmlns="http://www.w3.org/2000/svg">
<path d="M203.755 173.164H27.4484C19.9003 173.164 13.0374 170.074 8.06261 165.095C3.08811 160.117 0 153.248 0 145.694V27.47C0 19.916 3.08811 13.0477 8.06261 8.0692C13.0374 3.09039 19.9003 0.000106812 27.4484 0.000106812H203.755V173.164Z" fill="#E7E5DA"/>
<path fill-rule="evenodd" clip-rule="evenodd" d="M177.909 172.362H28.2083C13.3468 172.362 1.18652 160.202 1.18652 145.34V27.8244C1.18652 12.9623 13.3463 0.802597 28.2083 0.802597H177.909C179.487 0.802597 208.334 0.941208 209.84 1.2039V171.96C208.334 172.223 179.486 172.362 177.909 172.362Z" fill="white"/>
<path fill-rule="evenodd" clip-rule="evenodd" d="M109.603 38.6001C108.615 44.3255 110.393 47.8365 113.545 49.8369C123.764 45.4724 131.217 45.8571 136.112 49.7156C136.571 49.4673 137.13 49.1507 137.942 48.7181L138.358 48.0726C138.011 48.8204 137.369 49.4851 136.542 50.0685C141.679 54.471 143.819 62.9072 143.215 73.7639C142.507 86.4937 141.84 97.451 142.617 109.075C152.579 103.575 156.138 91.6111 159.331 81.255C151.451 75.9729 156.268 70.0624 161.114 68.361C162.907 60.0989 180.641 56.2928 180.696 72.7579C180.719 79.9936 172.065 85.516 167.097 83.7294C166.471 98.9157 162.39 109.608 152.08 121.874C151.492 122.572 148.246 126.161 145.363 128.898C145.715 130.591 146.086 132.22 146.501 133.795H154.804V134.212H63.5935V133.795H76.1889C75.7513 132.432 75.3558 131.064 75.0035 129.691C71.9446 126.909 68.0801 122.643 67.4341 121.874C57.1242 109.608 53.0429 98.9157 52.4173 83.7294C47.449 85.5158 38.7946 79.9939 38.8184 72.7579C38.8728 56.2931 56.6052 60.0986 58.3987 68.3605C63.2448 70.0613 68.064 75.9724 60.1828 81.255C62.9205 90.1328 65.9284 100.191 73.007 106.347C74.7679 84.9735 86.3412 65.0901 105.966 53.6518C106.87 51.7248 108.173 49.916 109.98 48.4559C108.508 46.1833 108.203 42.9859 109.603 38.6001Z" fill="#373435"/>
<path fill-rule="evenodd" clip-rule="evenodd" d="M82.1613 22.5216L82.1596 22.5222L82.1581 22.5227C82.0981 22.5386 81.1672 22.7796 81.0076 22.8895C80.9943 22.8986 80.9857 22.9068 80.9843 22.9142C80.9872 22.9162 80.9991 22.9159 81.0161 22.9145L81.0158 22.9173L81.0206 22.9142C81.7911 22.8425 95.125 19.7159 95.8325 19.592C96.5919 19.4591 103.318 18.2903 105.421 18.3762C101.028 20.5169 69.6806 29.3134 75.8474 30.5615C77.833 30.9629 101.734 24.2703 106.787 24.8551C103.098 27.6923 80.9262 34.4087 86.1621 35.3472C87.2126 35.5355 94.2876 33.4735 98.035 33.1932C93.8477 35.1743 82.5729 40.5604 93.1552 39.1349C93.1552 39.1349 100.009 37.9752 101.367 38.3653C100.118 39.9051 83.7518 47.8038 94.9912 45.5939C101.406 44.3325 96.3209 48.0278 96.6321 49.4573C96.3351 50.1452 97.4701 50.0089 98.0458 49.9947C97.0993 50.0163 96.7075 49.8034 96.6321 49.4573C96.65 49.4159 96.673 49.3717 96.7016 49.3238C101.798 40.8791 93.5869 47.4098 91.5575 45.4729L101.368 39.4257C105.717 36.4255 94.7533 37.7403 91.0005 38.1337C93.6929 36.6741 99.865 34.5572 100.647 33.2281C101.749 31.3558 97.762 31.6662 93.7107 32.376C99.7091 29.8616 107.487 26.3478 108.248 25.3769C111.664 21.0122 92.0701 25.587 81.867 27.9539C86.0926 26.3787 90.583 24.9413 94.6158 23.5353C109.457 18.3601 111.619 15.8171 95.7381 19.0996C91.8665 19.8998 84.1118 22.4043 81.1062 22.8742C81.3803 22.7617 82.1046 22.5392 82.1581 22.5227L82.1613 22.5216Z" fill="#373435"/>
<path fill-rule="evenodd" clip-rule="evenodd" d="M141.102 132.121L141.027 132.179L140.824 132.089C140.896 132.129 140.99 132.137 141.102 132.121Z" fill="white"/>
<path fill-rule="evenodd" clip-rule="evenodd" d="M57.8595 68.189C55.0926 61.2223 40.2527 58.7733 40.209 72.7759C40.1838 80.8668 54.9722 89.063 55.8155 77.361C55.8951 80.8562 54.5849 82.8311 52.6602 83.637C55.1678 102.596 61.9377 114.394 74.7535 128.687C73.0753 121.739 72.4778 114.698 72.9024 107.795C64.5569 102.218 61.7061 91.0073 60.0728 81.3253C59.6941 81.5756 59.2907 81.8241 58.8534 82.071C72.3789 71.2027 48.4513 64.3605 54.5387 74.0947C55.7985 76.109 57.5262 76.4667 59.689 76.6873C56.235 76.9016 52.7101 75.5803 52.3949 71.711C52.1041 68.1433 54.8987 67.3423 57.8595 68.189Z" fill="#E27400"/>
<path fill-rule="evenodd" clip-rule="evenodd" d="M127.833 53.0772C127.016 53.2008 126.275 53.2751 125.67 53.3009C119.494 53.5636 113.869 52.6779 110.902 49.6111C105.959 54.0791 103.975 62.5948 105.754 66.3493C110.905 66.2753 115.966 68.9138 119.181 72.7485C128.259 69.7313 130.522 59.8228 127.833 53.0772Z" fill="white"/>
<path fill-rule="evenodd" clip-rule="evenodd" d="M135.349 50.7923C133.545 51.7461 131.268 52.4211 129.231 52.8307C132.145 60.2365 129.641 70.7147 119.562 73.2183C120.392 74.2824 121.081 75.4296 121.594 76.6301C117.932 71.5175 107.077 65.3561 100.983 67.4209C100.785 67.4878 100.65 67.5657 100.574 67.7559C100.639 67.3905 101.151 67.1811 101.462 67.0765C102.612 66.689 103.782 66.4639 104.952 66.3823C104.085 64.0153 103.855 59.8308 105.134 55.7878C79.0767 72.0575 68.7705 104.469 77.3858 133.794H145.937C145.517 132.388 145.13 130.937 144.772 129.452C143.191 130.911 141.79 132.021 141.102 132.121C143.063 130.614 142.525 131.163 144.246 129.259C157.395 114.707 164.313 102.849 166.854 83.637C164.929 82.8311 163.619 80.856 163.699 77.3608C164.542 89.0628 179.33 80.8667 179.305 72.7758C179.261 58.7752 164.43 61.2229 161.66 68.1871C164.619 67.3432 167.41 68.1457 167.119 71.7108C166.804 75.5801 163.279 76.9014 159.825 76.6871C161.988 76.4665 163.716 76.1088 164.975 74.0945C171.062 64.3603 147.135 71.2026 160.661 82.0709C160.223 81.824 159.82 81.5751 159.441 81.3251C157.405 93.3939 153.479 107.841 139.375 110.785C138.547 110.958 138.568 110.899 137.729 110.829C138.55 110.784 138.539 110.844 139.31 110.567C140.139 110.27 140.929 109.933 141.684 109.561C140.617 97.4026 140.803 85.5569 141.451 78.1132C142.485 66.2419 141.233 55.6443 135.349 50.7923Z" fill="#FF8300"/>
<path fill-rule="evenodd" clip-rule="evenodd" d="M115.145 50.6785C119.821 52.7027 126.496 52.3028 132.001 51.0782C133.39 50.769 134.151 50.5759 134.771 50.3466C130.605 47.3268 124.303 46.9802 115.145 50.6785Z" fill="#FF8300"/>
<path fill-rule="evenodd" clip-rule="evenodd" d="M98.0459 49.9946L98.1165 49.9935C98.0921 49.9943 98.07 49.994 98.0459 49.9946Z" fill="white"/>
<path fill-rule="evenodd" clip-rule="evenodd" d="M122.948 96.1804C123.508 95.1699 123.972 94.2214 124.273 93.5111C126.525 88.1975 124.418 81.9998 120.361 78.7465C116.901 79.174 113.38 80.2526 110.039 81.7875C109.849 84.4101 109.263 87.1147 108.262 88.4232C105.882 91.5339 103.915 89.2313 102.533 86.2161C98.953 88.8546 95.9426 91.9512 93.959 95.1384C100.384 83.1391 118.279 73.1285 131.812 78.6946C141.352 82.6186 140.717 94.6988 136.828 102.683C134.822 106.803 132.809 111.015 130.302 114.583C130.279 114.561 130.051 114.329 129.884 114.161L129.875 114.212C122.439 106.825 116.924 103.107 104.477 102.164C100.202 101.84 100.594 101.973 96.3372 102.305L94.69 102.797L94.7782 102.974C94.7595 102.947 94.6432 102.797 94.6614 102.779C97.3529 100.076 109.15 101.155 112.783 102.063C115.173 99.3774 118.688 96.7992 122.948 96.1804Z" fill="#373435"/>
<path fill-rule="evenodd" clip-rule="evenodd" d="M128.047 43.4365C125.851 44.8272 123.386 45.6583 120.568 45.7586C119.423 45.7994 118.288 45.5219 117.902 44.4873C117.516 43.4524 118.02 42.037 119.164 41.9956C121.763 41.9018 124.244 41.0545 126.644 39.6735C127.612 39.1165 128.924 39.9102 129.31 40.9448C129.696 41.9797 128.989 42.8403 128.047 43.4365Z" fill="black"/>
<path fill-rule="evenodd" clip-rule="evenodd" d="M103.42 85.5812C105.44 88.7847 107.884 90.6048 108.963 82.3004C107.028 83.2577 105.164 84.364 103.42 85.5812Z" fill="white"/>
<path fill-rule="evenodd" clip-rule="evenodd" d="M134.45 81.8698C130.216 90.3437 129.439 89.9817 137.687 87.1672C137.172 85.1189 136.149 83.3042 134.45 81.8698Z" fill="white"/>
<path fill-rule="evenodd" clip-rule="evenodd" d="M134.997 103.612C133.726 100.689 131.429 98.4593 127.202 97.6537C122.905 96.8345 117.545 99.3902 113.876 102.362C122.346 104.774 125.714 107.834 130.054 113.402C131.576 110.804 133.444 107.345 134.997 103.612Z" fill="#FCADAD"/>
<path fill-rule="evenodd" clip-rule="evenodd" d="M122.331 78.5745C126.637 82.3624 127.873 90.0324 124.571 96.0441C125.504 96.0226 126.468 96.0974 127.459 96.2865C131.958 97.1445 134.381 99.2487 135.595 102.118C137.417 97.3764 138.611 92.329 137.888 88.1196C136.737 88.8557 135.548 89.5077 134.014 89.9626C126.805 92.1017 130.889 85.4692 133.868 81.4139C133.114 80.8629 132.247 80.3767 131.251 79.9677C128.489 78.8324 125.455 78.4177 122.331 78.5745Z" fill="#C16300"/>
<path fill-rule="evenodd" clip-rule="evenodd" d="M101.131 67.207C101.248 67.1523 101.365 67.1092 101.462 67.0766C102.611 66.6891 103.782 66.464 104.952 66.3824C104.472 65.0728 104.187 63.2064 104.246 61.1153C103.152 63.05 102.109 65.0849 101.131 67.207Z" fill="#FF8300"/>
<path fill-rule="evenodd" clip-rule="evenodd" d="M101.039 67.4033C101.02 67.4093 101.001 67.4146 100.983 67.4209C100.785 67.4878 100.65 67.5657 100.574 67.7559C100.619 67.5048 100.875 67.3273 101.131 67.2069C102.109 65.0848 103.152 63.0499 104.246 61.1152C104.293 59.4277 104.562 57.5937 105.134 55.7878C79.0767 72.0575 68.7705 104.469 77.3858 133.794H102.392C88.3925 115.681 91.7334 87.7402 101.039 67.4033Z" fill="#E27400"/>
<path fill-rule="evenodd" clip-rule="evenodd" d="M106.179 57.0675C104.943 60.6227 104.754 64.2383 105.754 66.3493C110.905 66.2753 115.966 68.9138 119.181 72.7485C124.938 70.8351 127.953 66.1501 128.704 61.2578C126.327 64.7212 122.617 66.9494 118.447 66.9494C112.77 66.9494 107.945 62.8204 106.179 57.0675Z" fill="#E9E3CF"/>
<path fill-rule="evenodd" clip-rule="evenodd" d="M121.914 64.0243C119.511 62.9738 116.657 63.9549 115.541 66.2155C114.424 68.4761 115.467 71.1608 117.87 72.2113C120.273 73.2619 123.126 72.2808 124.243 70.0202C125.36 67.7593 124.317 65.0748 121.914 64.0243Z" fill="black"/>
<path fill-rule="evenodd" clip-rule="evenodd" d="M121.056 69.3159C120.32 68.9938 119.445 69.2946 119.103 69.9874C118.761 70.6802 119.08 71.5031 119.817 71.8251C120.553 72.1468 121.428 71.8463 121.77 71.1536C122.112 70.4605 121.793 69.6379 121.056 69.3159Z" fill="white"/>
</svg>
