<svg width="217" height="269" viewBox="0 0 217 269" fill="none" xmlns="http://www.w3.org/2000/svg">
<path fill-rule="evenodd" clip-rule="evenodd" d="M31.6797 26.1902H181.68V218.19H31.6797V26.1902Z" fill="#FFFBE2"/>
<path fill-rule="evenodd" clip-rule="evenodd" d="M44.6448 106.331H172.145C178.745 106.331 184.145 111.731 184.145 118.331V255.497C184.145 262.097 178.745 267.497 172.145 267.497H44.6448C38.0446 267.497 32.6445 262.097 32.6445 255.497V118.331C32.6445 111.731 38.0446 106.331 44.6448 106.331Z" fill="white"/>
<path d="M44.6448 106.331H172.145C178.745 106.331 184.145 111.731 184.145 118.331V255.497C184.145 262.097 178.745 267.497 172.145 267.497H44.6448C38.0446 267.497 32.6445 262.097 32.6445 255.497V118.331C32.6445 111.731 38.0446 106.331 44.6448 106.331Z" stroke="#FFDFA9" stroke-width="1.7008" stroke-miterlimit="22.9256"/>
<path d="M127.106 124.181C126.65 124.518 126.191 124.85 125.74 125.191C117.772 131.207 109.376 136.509 100.152 140.406C94.5872 142.757 88.8825 144.65 82.8609 145.469C69.3139 147.31 57.015 144.164 46.0108 136.11C36.8889 129.433 30.4882 120.611 26.2694 110.187C23.1357 102.443 21.4071 94.3905 21.3545 86.0096C21.2827 74.4811 25.0329 64.3223 32.4657 55.5516C34.4391 53.2235 36.6601 51.095 38.8606 48.9719C41.8557 46.0828 44.9866 43.3346 47.9732 40.4376C50.4857 38.0009 52.7324 35.3247 54.4904 32.2727C56.4222 28.9184 57.4582 25.3329 57.2184 21.4409C57.0407 18.5453 56.3255 15.7603 55.0408 13.1677C54.3027 11.6787 54.4441 10.4006 55.4226 9.17169C56.0459 8.3882 56.7079 7.61922 57.45 6.95251C60.3967 4.30492 63.7398 2.28468 67.4223 0.826782C69.3317 0.0713806 71.3109 -0.16362 73.3405 0.110779C75.0268 0.338684 76.3856 1.03693 77.3026 2.60022C78.4379 4.53651 79.8134 6.33258 80.9373 8.27399C82.6758 11.279 83.8312 14.5091 84.2791 17.977C84.801 22.0169 84.1439 25.8896 82.6713 29.6458C80.8687 34.243 78.1505 38.2827 74.9508 42.0023C73.4864 43.7042 71.8789 45.2837 70.3368 46.9187C70.0205 47.2541 69.7038 47.5886 69.3064 48.0084C70.434 48.4063 71.4146 48.7525 72.502 49.1354C72.6062 48.846 72.7352 48.5606 72.8131 48.2621C74.8685 40.3973 82.0766 34.4582 90.18 34.0562C94.9039 33.8218 98.8996 35.4486 102.027 39.0631C102.27 39.3437 102.527 39.6107 102.808 39.916C102.927 39.7292 103.045 39.6209 103.071 39.4934C103.611 36.8764 105.161 34.8953 107.134 33.2311C111.208 29.796 115.905 27.8084 121.25 27.568C122.66 27.5048 124.128 27.6995 125.502 28.0445C128.094 28.6951 130.003 30.2949 131.145 32.7503C131.303 33.0885 131.477 33.419 131.727 33.9185C131.91 33.5259 132.036 33.2971 132.128 33.0548C133.832 28.5652 136.775 25.0622 140.71 22.3772C144.025 20.1154 147.747 19.2152 151.722 19.3291C154.279 19.4025 156.357 20.3935 157.653 22.7171C157.718 22.8333 157.832 22.9215 158.033 23.1443C158.139 22.6187 158.231 22.2165 158.3 21.8103C159.31 15.8133 162.077 10.809 166.831 6.98743C170.227 4.25673 174.139 3.33459 178.426 4.0943C181.523 4.64279 183.907 6.31326 185.543 8.97217C187.761 12.5784 188.241 16.4888 187.266 20.5755C186.869 22.2394 186.031 23.6806 184.582 24.7637C184.645 24.9536 184.674 25.1399 184.762 25.2901C186.627 28.4482 186.658 31.7534 185.458 35.1082C184.189 38.6583 181.881 41.3968 178.68 43.3856C178.316 43.6118 177.95 43.8349 177.587 44.0642C177.551 44.0866 177.535 44.1419 177.438 44.2961C177.678 45.0204 177.964 45.8226 178.209 46.6367C180.067 52.7924 178.743 58.2616 174.544 63.045C173.026 64.7753 171.1 65.9177 168.761 66.2402C168.577 66.2657 168.401 66.3465 168.183 66.414C168.139 66.6073 168.073 66.7848 168.064 66.9648C167.737 73.6007 164.269 78.2274 158.698 81.4478C156.821 82.5326 154.743 82.8292 152.453 82.2262C152.07 85.642 150.747 88.6217 148.858 91.4241C149.905 93.6524 150.595 95.9757 151.006 98.3871C151.38 100.589 151.45 102.77 150.676 104.902C149.862 107.148 149.027 109.386 148.173 111.617C147.454 113.491 146.622 115.324 145.968 117.22C144.765 120.704 144.722 124.261 145.6 127.826C146.219 130.341 147.042 132.783 148.401 135.013C149.064 136.102 148.833 137.126 148.141 138.09C147.42 139.094 146.393 139.71 145.297 140.212C143.168 141.186 140.902 141.521 138.588 141.525C134.939 141.53 131.466 140.705 128.227 139.029C127.263 138.53 126.36 137.859 125.55 137.133C124.532 136.221 124.151 135.049 124.405 133.631C124.896 130.882 125.772 128.261 126.835 125.693C127.013 125.263 127.173 124.826 127.342 124.392C127.263 124.322 127.185 124.252 127.106 124.181ZM48.1007 108.542C48.1738 108.568 48.2471 108.594 48.3205 108.62C48.3329 108.762 48.3596 108.904 48.357 109.044C48.2726 113.7 50.4171 117.129 54.3041 119.477C58.6159 122.081 63.3122 122.787 68.2605 121.935C69.9674 121.641 71.5124 120.94 73.0783 120.156C72.7537 120.579 72.4291 121.001 72.121 121.403C77.9173 129.79 90.4032 128.365 95.8073 123.009C95.4122 122.347 95.0113 121.676 94.6111 121.005C94.6802 120.941 94.7503 120.878 94.8194 120.814C96.696 122.922 99.1272 123.914 101.802 124.406C104.48 124.899 107.149 124.775 109.773 124.105C115.14 122.737 119.13 119.659 121.394 114.518C121.593 114.067 121.719 113.586 121.874 113.132C120.841 112.858 119.988 112.631 119.135 112.405C119.583 112.167 119.987 112.16 120.391 112.168C122.516 112.207 124.442 111.577 126.213 110.429C127.757 109.428 129.027 108.135 130.133 106.677C132.002 104.215 133.302 101.454 134.367 98.5674C134.706 97.6501 135.031 96.7926 133.949 96.0944C135.122 96.3807 136.158 96.749 137.221 96.866C138.945 97.0557 140.534 96.4553 142.005 95.6143C145.247 93.7598 147.754 91.1743 149.357 87.7901C150.092 86.2378 150.615 84.5863 151.297 83.0069C151.588 82.3297 151.557 81.7548 150.857 81.0314C153.898 82.0403 156.338 81.2766 158.611 79.728C160.987 78.1095 162.833 75.9852 164.272 73.521C166.141 70.3218 167.476 66.9846 166.63 63.0657C167.068 63.8121 167.506 64.5587 168.04 65.4675C168.923 65.05 169.818 64.7194 170.615 64.2296C172.583 63.0195 173.946 61.2391 175.04 59.2398C177.515 54.7202 177.954 49.9002 177.126 44.8993C177.098 44.7261 176.966 44.5702 176.878 44.3987C175.608 44.6862 174.448 45.3194 172.784 45.1601C173.524 44.8463 173.956 44.6768 174.376 44.4823C179.2 42.2503 182.514 38.6455 184.001 33.5256C185.181 29.4664 184.373 25.7638 181.509 22.5759C181.31 22.3543 181.134 22.1119 180.948 21.8794C181.016 21.8148 181.085 21.7502 181.155 21.6861C182.126 22.4818 183.098 23.2775 184.103 24.1007C185.095 23.2114 185.66 22.164 185.897 20.9755C186.87 16.1044 185.8 11.7532 182.366 8.1051C180.798 6.43941 178.789 5.56691 176.484 5.47681C173.023 5.341 169.994 6.47997 167.387 8.72327C163.629 11.9565 161.093 16.0157 159.517 20.6846C158.873 22.5938 158.407 24.5486 158.661 26.6C158.687 26.8063 158.625 27.0238 158.603 27.2355C158.304 26.7077 158.207 26.1583 158.083 25.6152C157.519 23.1451 155.967 21.7332 153.472 21.3431C151.41 21.0211 149.359 21.1617 147.332 21.5254C142.605 22.3735 139.02 25.0123 136.223 28.8189C134.217 31.5507 132.878 34.6033 131.939 37.8447C131.846 38.1682 131.688 38.4723 131.466 39.0172C131.31 37.8708 131.297 36.9943 131.061 36.1842C129.971 32.4558 126.926 29.9429 122.978 29.7121C116.007 29.3057 110.292 31.9745 105.744 37.1834C105.005 38.0296 104.56 39.1342 103.995 40.1283C103.611 40.8041 103.613 41.4496 104.064 42.1381C104.422 42.6857 104.638 43.3252 104.918 43.9239C104.303 43.4806 103.933 42.9256 103.538 42.3904C101.338 39.4086 98.535 37.2563 94.9143 36.3135C89.8476 34.9942 85.2378 36.1612 81.052 39.1305C76.9884 42.0131 74.5062 46.025 73.1089 50.7546C72.9683 51.2297 72.8175 51.7025 72.6715 52.1764C72.6224 52.1642 72.5731 52.152 72.5235 52.1393C72.485 51.4845 72.4456 50.8294 72.3979 50.0283C65.7556 48.1782 59.7364 49.5223 54.2128 53.2669C49.5181 56.4499 47.0537 61.0333 46.3459 66.6725C47.2195 66.8874 47.9296 67.062 48.6396 67.2366C46.5455 67.4237 44.6472 67.9903 42.8913 69.0202C38.9111 71.3551 36.047 74.6747 34.4215 78.9885C33.9569 80.2216 33.6848 81.5811 33.6151 82.8986C33.4461 86.0884 34.7393 88.6181 37.4121 90.4742C38.3844 89.7737 39.1028 88.7893 40.3682 88.6623C39.6459 89.5697 38.9103 90.3359 38.3587 91.2172C36.8552 93.6198 36.0943 96.2733 36.0476 99.1057C35.9657 104.027 38.3476 107.667 42.8952 109.523C44.0385 109.99 45.261 110.27 46.4604 110.588C46.8062 110.68 47.1971 110.602 47.6025 110.602C47.7748 109.89 47.9377 109.216 48.1007 108.542ZM57.0321 14.4206C57.2736 14.9519 57.3825 15.2124 57.5081 15.4644C58.5646 17.5855 59.24 19.8011 59.344 22.1915C59.5135 26.0713 58.261 29.5304 56.3079 32.7897C54.5762 35.6799 52.473 38.2966 50.0436 40.6116C46.8252 43.6796 43.4514 46.5848 40.2043 49.6238C37.902 51.7782 35.5385 53.899 33.4811 56.2756C27.4864 63.2009 24.084 71.295 23.106 80.4075C22.4716 86.32 22.9495 92.1625 24.2574 97.9389C26.6622 108.556 30.9491 118.312 38.1621 126.554C50.6292 140.799 66.3264 146.427 85.0203 143.45C93.111 142.162 100.727 139.343 108.019 135.642C115.044 132.077 121.422 127.507 127.753 122.87C128.188 122.551 128.486 122.008 128.769 121.523C130.165 119.128 131.528 116.712 132.917 114.312C133.144 113.92 133.438 113.567 133.701 113.197C131.458 119.017 128.645 124.586 126.885 130.852C133.48 128.294 139.391 130.475 145.317 132.461C145.338 132.283 145.36 132.233 145.346 132.196C145.246 131.929 145.155 131.657 145.032 131.401C143.726 128.666 143.203 125.786 143.347 122.763C143.499 119.564 144.422 116.553 145.512 113.585C146.568 110.713 147.665 107.855 148.761 104.999C149.654 102.674 149.934 100.273 149.69 97.8088C149.503 95.913 149.297 94.0155 148.453 92.0959C148.063 92.533 147.748 92.8774 147.441 93.2283C145.98 94.8985 144.348 96.3649 142.337 97.3459C140.376 98.3023 138.357 98.6966 136.246 97.8012C136.096 97.7371 135.912 97.7533 135.729 97.7309C135.593 98.5002 135.527 99.1695 135.354 99.8104C133.555 106.491 130.235 111.749 122.764 113.173C122.698 113.454 122.601 113.774 122.548 114.1C121.991 117.532 120.23 120.233 117.524 122.351C115.34 124.062 112.854 125.159 110.16 125.753C106.595 126.538 103.038 126.592 99.5614 125.292C98.7187 124.977 97.9249 124.532 97.0922 124.139C96.9208 124.258 96.7555 124.354 96.6128 124.476C92.5503 127.958 87.8017 129.402 82.5213 129.033C77.9028 128.711 74.1832 126.735 71.7531 122.65C71.6105 122.41 71.4404 122.187 71.2658 121.93C71.0368 122.022 70.863 122.085 70.6957 122.161C63.989 125.181 57.7158 124.145 51.8944 119.957C49.4301 118.185 47.9948 115.659 47.7204 112.559C47.6923 112.244 47.5621 111.938 47.4508 111.521C46.5875 111.521 45.774 111.567 44.9674 111.513C39.3457 111.135 35.3729 107.556 34.6379 102.125C34.1915 98.8265 34.6595 95.6372 36.1545 92.6305C36.3384 92.2603 36.5085 91.885 36.6729 91.5372C36.5247 91.396 36.4674 91.309 36.3866 91.2693C33.5371 89.8704 32.286 87.4408 32.2364 84.4126C32.129 77.936 34.7899 72.75 39.8985 68.8217C41.1993 67.8214 42.7121 67.2088 44.3525 66.9455C44.7125 66.888 45.0594 66.7468 45.2644 66.6873C45.4908 64.7966 45.5266 63.0053 45.9445 61.3088C46.9451 57.2462 49.5394 54.2928 52.9738 52.0469C57.036 49.3897 61.5206 48.0367 66.3715 47.9406C67.0904 47.9264 67.634 47.7909 68.1026 47.1835C70.5554 44.0019 73.1605 40.9297 75.4812 37.6557C77.1046 35.3664 78.4663 32.8697 79.7456 30.3641C81.0581 27.7934 81.7565 25.0018 81.9859 22.1059C82.4724 15.9584 80.6046 10.4017 77.7404 5.09381C77.6678 4.95862 77.4995 4.87578 77.3495 4.74597C75.4568 8.52937 72.3245 10.8436 68.7942 12.6643C65.1835 14.5267 61.3563 15.3603 57.0321 14.4206ZM133.99 130.971C132.055 130.931 130.157 131.114 128.41 132.026C126.356 133.099 126.151 134.684 127.837 136.243C127.977 136.373 128.121 136.503 128.279 136.609C133.116 139.871 138.322 140.613 143.858 138.789C144.603 138.544 145.321 138.055 145.905 137.519C146.9 136.608 146.89 135.399 145.875 134.513C145.203 133.925 144.406 133.434 143.59 133.064C140.546 131.683 137.327 131.038 133.99 130.971ZM71.253 1.43768C70.3967 1.56519 69.6296 1.61768 68.894 1.79968C64.7711 2.81898 61.2187 4.88458 58.1502 7.79578C57.7048 8.21788 57.3082 8.71507 56.9823 9.23547C56.0485 10.728 56.4856 12.0991 58.177 12.6017C59.206 12.9078 60.3507 13.0685 61.4137 12.9702C66.3941 12.5095 70.5339 10.3609 73.7087 6.4624C74.152 5.9173 74.5161 5.26979 74.7669 4.61279C75.2819 3.2632 74.802 2.27312 73.4087 1.82092C72.6955 1.58932 71.9206 1.55019 71.253 1.43768Z" fill="black"/>
<path d="M55.498 76.2109C59.7817 77.19 64.0016 78.2892 67.8781 80.4183C71.8122 82.5792 75.0474 85.5662 77.9691 88.9355C75.4434 81.0518 63.9568 74.5036 55.498 76.2109Z" fill="#FFD425"/>
<path d="M124.317 86.4949C124.28 88.6396 124.072 90.7154 123.435 92.7484C122.932 94.3551 121.966 95.5536 120.446 96.2226C119.316 96.7206 118.138 97.1643 116.937 97.4392C112.315 98.4931 107.641 98.4319 102.953 97.9458C102.038 97.8511 101.571 97.4409 101.191 96.5866C99.8974 93.681 97.7848 92.6325 94.6726 93.4211C93.2065 93.7936 91.7553 94.3696 90.4238 95.0873C88.3661 96.1976 86.4176 97.5095 84.4222 98.7346C82.9965 99.6103 81.587 100.512 80.1368 101.344C79.5084 101.704 78.8355 102.076 77.9808 101.964C78.137 101.543 78.2577 101.219 78.4607 100.673C77.9825 101.025 77.7282 101.239 77.4487 101.412C76.1491 102.218 74.7265 102.589 73.2077 102.446C71.8134 102.313 70.9484 101.137 71.3304 99.8232C71.4926 99.2642 71.8907 98.7057 72.3293 98.3095C73.3537 97.3811 74.6282 96.9613 76.0019 96.8859C78.1369 96.7688 79.1078 97.3919 79.992 99.3923C80.0069 99.4266 80.115 99.4206 80.1825 99.434C80.2607 97.5982 79.635 96.402 77.9936 95.8289C76.9846 95.4768 75.8429 95.3073 74.7782 95.3662C73.6678 95.4266 72.5778 95.86 71.4818 96.1302C70.651 95.464 69.8286 94.731 68.9315 94.1062C68.0187 93.4701 66.973 92.9795 65.8434 93.1592C64.8068 93.3242 63.8084 93.7332 62.7517 94.0467C62.2033 91.127 62.7871 88.3091 63.6409 85.3764C60.364 87.3099 59.7794 90.6953 61.7386 95.417C61.6886 95.5335 61.6402 95.6678 61.5749 95.7931C60.2344 98.39 61.1501 100.646 63.9272 101.547C65.3328 102.004 66.7567 101.915 68.176 101.597C68.6698 101.486 69.1582 101.351 69.662 101.223C69.8284 101.614 69.9326 101.879 70.0522 102.136C70.7589 103.656 71.6581 104.192 73.3464 104.121C74.5838 104.069 75.6514 103.566 76.676 102.919C77.0267 102.697 77.4419 102.38 77.8042 102.409C79.8551 102.569 81.683 101.839 83.4449 100.995C86.2448 99.6542 88.9829 98.1827 91.7422 96.7572C92.6762 96.2745 93.5702 95.7072 94.5268 95.2778C96.9015 94.2114 99.4838 95.1128 100.649 97.4313C99.3531 97.5231 98.253 96.8377 96.8631 96.6118C97.8445 97.6152 98.9334 97.9764 100.006 98.3171C104.956 99.8903 110.019 100.338 115.166 99.6817C117.212 99.4206 119.205 98.9044 121.029 97.8874C122.62 97.0001 123.921 95.8243 124.515 94.049C125.366 91.5097 124.928 88.9855 124.317 86.4949Z" fill="#FFD425"/>
<path d="M95.6589 56.6246C94.0939 55.8337 92.7369 55.0141 91.2828 54.4452C88.8852 53.5075 86.3445 53.3692 83.7913 53.5038C78.6453 53.7748 74.777 56.1542 72.2743 60.6463C70.4924 63.8443 69.9047 67.3158 70.4997 70.9211C71.4089 76.4325 74.3892 80.4069 79.7915 82.0884C86.049 84.0355 91.8979 83.1041 97.0164 78.7648C97.2979 78.527 97.6017 78.3161 97.8813 78.104C98.1327 78.2364 98.3033 78.3206 98.4687 78.415C103.78 81.4455 109.242 81.4345 114.739 79.061C118.857 77.2834 121.613 74.1857 122.566 69.7673C123.872 63.7148 122.182 58.4867 117.655 54.2662C115.213 51.9902 112.212 50.8739 108.871 50.9595C103.708 51.0918 99.0763 52.575 95.6589 56.6246Z" fill="#FFD425"/>
<path d="M93.9946 100.03C93.1088 99.2258 92.3062 99.164 91.4113 99.9126C89.1618 101.794 86.8277 103.571 84.0523 104.576C81.181 105.615 78.2733 106.593 75.3183 107.352C72.2957 108.129 69.1862 108.346 66.0656 107.804C60.9164 106.908 57.3663 104.077 55.5391 99.1484C54.7979 97.1486 54.4923 95.0665 54.543 92.9496C54.6094 90.1912 55.0708 87.5201 56.7326 85.1997C56.8996 84.9675 57.0524 84.7252 57.2125 84.4876C55.7331 85.3621 54.9835 86.746 54.4223 88.2322C53.283 91.2522 53.0466 94.3635 53.5424 97.5519C54.4821 103.598 58.4863 107.909 64.4538 109.271C67.829 110.041 71.1927 109.844 74.571 109.282C79.522 108.458 84.0724 106.739 87.9743 103.497C88.1895 103.319 88.44 103.181 88.8357 102.916C88.6635 103.539 88.5302 103.985 88.4173 104.437C87.8396 106.749 88.9273 108.223 91.3047 108.268C92.7132 108.294 94.0569 107.977 95.2604 107.188C95.5896 106.972 95.945 106.796 96.356 106.563C96.4054 107.209 96.4164 107.684 96.4822 108.151C96.7459 110.004 97.6507 111.484 99.1935 112.531C100.654 113.523 102.256 113.706 103.813 112.852C106.151 111.572 107.893 109.184 106.517 105.855C106.366 105.492 106.259 105.112 106.086 104.608C106.711 104.669 107.131 104.724 107.554 104.749C109.985 104.899 112.419 105.186 114.847 105.15C118.025 105.102 121.119 104.461 123.969 102.943C126.415 101.641 128.308 99.7926 129.365 97.2071C130.959 93.3064 130.908 89.3725 129.373 85.4621C128.839 84.1003 128.008 82.9254 126.749 82.1354C126.243 81.8177 125.648 81.6396 125.093 81.3981C125.257 81.8267 125.521 82.0274 125.784 82.2295C127.962 83.902 129.093 86.1465 129.35 88.8482C129.557 91.0218 129.199 93.1188 128.572 95.2102C127.533 98.6702 125.259 100.832 121.898 101.943C121.082 102.212 120.251 102.448 119.412 102.629C115.155 103.549 110.86 103.49 106.558 103.05C102.452 102.63 98.4486 101.74 94.5685 100.317C94.377 100.221 94.1859 100.126 93.9946 100.03Z" fill="#FFD425"/>
<path d="M48.0998 108.542C47.9371 109.216 47.7741 109.89 47.6018 110.602C47.1961 110.602 46.8058 110.679 46.4594 110.588C45.2603 110.27 44.0375 109.99 42.8943 109.523C38.3469 107.667 35.9652 104.027 36.0472 99.1056C36.0937 96.2735 36.8542 93.6198 38.358 91.2172C38.9093 90.3359 39.6452 89.5696 40.3672 88.6622C39.1024 88.7892 38.3835 89.7739 37.4112 90.4741C34.7387 88.6182 33.4455 86.0883 33.6142 82.8982C33.6842 81.5807 33.9563 80.2213 34.4209 78.9885C36.0464 74.6747 38.9104 71.355 42.8906 69.0201C44.6465 67.9902 46.545 67.4236 48.6389 67.2365C47.9289 67.0619 47.2191 66.8873 46.3452 66.6721C47.053 61.0332 49.5174 56.4498 54.2121 53.2668C59.7355 49.522 65.7549 48.1781 72.3972 50.0282C72.4449 50.8296 72.4841 51.4844 72.5226 52.1392C72.5725 52.1519 72.6218 52.1644 72.6709 52.1763C72.8171 51.7024 72.9676 51.2296 73.1085 50.7545C74.5055 46.0251 76.9878 42.013 81.0511 39.1302C85.2372 36.1611 89.847 34.9938 94.9134 36.3134C98.5344 37.2562 101.337 39.4082 103.537 42.3903C103.932 42.9255 104.303 43.4802 104.917 43.9238C104.638 43.3251 104.421 42.6854 104.063 42.138C103.613 41.4497 103.61 40.804 103.994 40.1282C104.559 39.1338 105.005 38.0295 105.743 37.183C110.291 31.9744 116.006 29.3056 122.977 29.712C126.925 29.9431 129.97 32.456 131.06 36.1838C131.296 36.9942 131.309 37.871 131.465 39.0168C131.688 38.4722 131.845 38.1681 131.938 37.8449C132.878 34.6035 134.216 31.5507 136.223 28.8186C139.019 25.0119 142.605 22.3734 147.331 21.5256C149.358 21.1613 151.41 21.021 153.471 21.343C155.966 21.7331 157.519 23.1453 158.082 25.6151C158.206 26.1585 158.303 26.7076 158.602 27.2354C158.624 27.0237 158.687 26.806 158.661 26.5996C158.406 24.5482 158.873 22.5937 159.517 20.6845C161.092 16.0159 163.629 11.9564 167.386 8.72319C169.993 6.47989 173.022 5.34064 176.484 5.47704C178.788 5.56714 180.797 6.43963 182.365 8.10503C185.799 11.7529 186.869 16.104 185.897 20.9754C185.66 22.1639 185.094 23.2111 184.102 24.1006C183.097 23.2774 182.125 22.4817 181.154 21.686C181.084 21.7501 181.016 21.8144 180.947 21.8793C181.133 22.1118 181.309 22.3542 181.508 22.5758C184.373 25.7637 185.18 29.466 184 33.5255C182.513 38.6454 179.199 42.2505 174.375 44.482C173.955 44.6764 173.524 44.8462 172.783 45.1597C174.448 45.3193 175.607 44.6861 176.877 44.3983C176.965 44.5698 177.097 44.7257 177.125 44.8992C177.954 49.9001 177.515 54.7201 175.04 59.2397C173.945 61.239 172.582 63.0194 170.615 64.2292C169.818 64.7196 168.923 65.0499 168.04 65.4677C167.506 64.5586 167.067 63.812 166.629 63.0656C167.475 66.9845 166.141 70.3215 164.272 73.5209C162.832 75.9854 160.986 78.1095 158.61 79.728C156.337 81.2769 153.898 82.0405 150.857 81.031C151.557 81.7547 151.588 82.3293 151.296 83.0071C150.615 84.5862 150.092 86.2374 149.357 87.79C147.753 91.1745 145.246 93.7597 142.004 95.6142C140.533 96.4549 138.945 97.0557 137.221 96.8657C136.157 96.7491 135.121 96.3806 133.948 96.0943C135.03 96.7925 134.705 97.65 134.366 98.5673C133.301 101.454 132.001 104.215 130.132 106.677C129.025 108.135 127.757 109.428 126.212 110.429C124.441 111.577 122.516 112.206 120.39 112.168C119.986 112.16 119.582 112.166 119.134 112.404C119.987 112.631 120.84 112.858 121.873 113.131C121.718 113.585 121.592 114.068 121.394 114.518C119.129 119.66 115.139 122.737 109.773 124.105C107.148 124.774 104.48 124.899 101.801 124.406C99.1265 123.913 96.6953 122.922 94.8187 120.814C94.7498 120.878 94.6798 120.941 94.6104 121.005C95.011 121.676 95.4115 122.347 95.8066 123.009C90.4025 128.365 77.9164 129.79 72.12 121.403C72.4284 121.001 72.7529 120.579 73.0779 120.156C71.5113 120.94 69.9665 121.642 68.2595 121.935C63.3116 122.787 58.615 122.08 54.3037 119.477C50.4166 117.129 48.2719 113.7 48.3563 109.045C48.3592 108.904 48.3322 108.762 48.3198 108.62C48.2461 108.594 48.1735 108.568 48.0998 108.542Z" fill="#FFD425"/>
<path d="M57.0306 14.4207C61.3548 15.3604 65.182 14.5268 68.7927 12.6644C72.323 10.8438 75.4553 8.52951 77.348 4.74611C77.498 4.87592 77.6663 4.95876 77.7389 5.09395C80.6031 10.4019 82.4709 15.9585 81.9844 22.106C81.755 25.0019 81.0566 27.7935 79.7441 30.3642C78.4648 32.8698 77.1031 35.3665 75.4797 37.6558C73.159 40.9298 70.5539 44.002 68.1011 47.1836C67.6325 47.791 67.0889 47.9265 66.37 47.9407C61.5191 48.0368 57.0345 49.3898 52.9723 52.047C49.5379 54.2929 46.9436 57.2463 45.943 61.3089C45.5251 63.0054 45.4893 64.7967 45.2629 66.6874C45.0579 66.7469 44.7109 66.8881 44.3509 66.9456C42.7105 67.2089 41.1978 67.8215 39.897 68.8218C34.7884 72.7501 32.1275 77.9361 32.2349 84.4127C32.2845 87.4409 33.5356 89.8705 36.3851 91.2694C36.4659 91.3091 36.5232 91.3961 36.6714 91.5373C36.507 91.8851 36.3368 92.2604 36.1529 92.6306C34.6579 95.6373 34.1899 98.8266 34.6363 102.125C35.3713 107.556 39.3442 111.135 44.9659 111.513C45.7725 111.568 46.586 111.521 47.4493 111.521C47.5606 111.939 47.6908 112.244 47.7189 112.559C47.9933 115.659 49.4286 118.185 51.8929 119.957C57.7143 124.145 63.9875 125.181 70.6942 122.161C70.8615 122.085 71.0353 122.023 71.2643 121.93C71.4389 122.187 71.609 122.41 71.7516 122.65C74.1817 126.735 77.9013 128.711 82.5198 129.033C87.8002 129.402 92.5488 127.958 96.6113 124.476C96.754 124.355 96.9193 124.258 97.0907 124.139C97.9234 124.532 98.7172 124.977 99.5599 125.293C103.037 126.592 106.593 126.538 110.158 125.753C112.852 125.159 115.338 124.062 117.523 122.352C120.228 120.233 121.99 117.532 122.547 114.1C122.6 113.774 122.697 113.455 122.763 113.173C130.233 111.749 133.553 106.491 135.353 99.8106C135.525 99.1697 135.592 98.5003 135.728 97.731C135.91 97.7534 136.094 97.7372 136.245 97.8013C138.355 98.6967 140.374 98.3024 142.335 97.346C144.347 96.365 145.978 94.8986 147.439 93.2284C147.746 92.8775 148.061 92.5331 148.452 92.096C149.296 94.0156 149.501 95.9131 149.689 97.8089C149.933 100.273 149.652 102.674 148.76 104.999C147.663 107.856 146.566 110.713 145.511 113.585C144.42 116.554 143.497 119.564 143.346 122.763C143.202 125.786 143.724 128.666 145.031 131.401C145.153 131.657 145.245 131.929 145.345 132.196C145.358 132.233 145.336 132.284 145.315 132.462C139.389 130.475 133.478 128.294 126.884 130.852C128.644 124.586 131.457 119.017 133.7 113.197C133.437 113.567 133.142 113.92 132.916 114.313C131.527 116.713 130.163 119.128 128.767 121.523C128.485 122.008 128.187 122.551 127.752 122.87C121.421 127.507 115.042 132.077 108.018 135.642C100.726 139.343 93.1095 142.162 85.0188 143.45C66.3249 146.427 50.6277 140.799 38.1606 126.554C30.9476 118.313 26.6606 108.556 24.2558 97.939C22.9479 92.1626 22.4701 86.3201 23.1045 80.4076C24.0825 71.2951 27.4849 63.201 33.4796 56.2757C35.537 53.8991 37.9004 51.7783 40.2027 49.6239C43.4499 46.5849 46.8237 43.6797 50.0421 40.6117C52.4715 38.2967 54.5747 35.68 56.3064 32.7898C58.2595 29.5305 59.512 26.0714 59.3425 22.1916C59.2385 19.8012 58.5631 17.5857 57.5066 15.4646C57.381 15.2126 57.2721 14.952 57.0306 14.4207Z" fill="#D45E57"/>
<path d="M133.989 130.971C137.326 131.037 140.545 131.683 143.589 133.063C144.405 133.433 145.203 133.924 145.875 134.512C146.889 135.399 146.899 136.607 145.905 137.519C145.32 138.055 144.602 138.544 143.857 138.789C138.321 140.612 133.116 139.871 128.278 136.609C128.12 136.502 127.976 136.373 127.836 136.243C126.15 134.684 126.355 133.099 128.41 132.026C130.156 131.114 132.055 130.931 133.989 130.971ZM130.288 133.042C130.477 134.447 131.138 135.283 132.011 135.946C134.342 137.719 136.955 138.137 139.73 137.295C141.185 136.854 142.447 136.051 143.395 134.483C138.714 136.374 134.394 136.584 130.288 133.042Z" fill="#E08A85"/>
<path d="M71.2524 1.44013C71.92 1.55263 72.695 1.59177 73.4081 1.82337C74.8014 2.27557 75.2813 3.26564 74.7663 4.61524C74.5155 5.27224 74.1514 5.91974 73.7081 6.46484C70.5333 10.3633 66.3936 12.512 61.4132 12.9727C60.3502 13.071 59.2055 12.9102 58.1765 12.6041C56.4851 12.1015 56.048 10.7304 56.9818 9.23792C57.3077 8.71752 57.7042 8.22032 58.1496 7.79822C61.2181 4.88702 64.7705 2.82142 68.8934 1.80212C69.629 1.62012 70.3961 1.56763 71.2524 1.44013ZM59.5102 8.88532C60.8105 10.0106 62.3246 10.3199 63.926 10.1946C66.8369 9.96704 69.1082 8.62111 70.605 6.09631C71.0755 5.30291 71.4586 4.41903 70.9865 3.32343C68.3479 7.80443 64.2565 8.96922 59.5102 8.88532Z" fill="#E08A85"/>
<path d="M95.6585 56.6243C99.0756 52.575 103.707 51.0922 108.871 50.9596C112.211 50.874 115.213 51.9902 117.655 54.2662C122.182 58.4867 123.872 63.7152 122.566 69.7674C121.612 74.1861 118.857 77.2838 114.739 79.0611C109.242 81.4346 103.78 81.4453 98.4684 78.4148C98.303 78.321 98.1326 78.2368 97.881 78.1041C97.6017 78.3164 97.2976 78.5271 97.0165 78.7649C91.8976 83.1042 86.0488 84.0356 79.7911 82.0882C74.3888 80.4073 71.4087 76.4329 70.4997 70.9212C69.9048 67.3161 70.492 63.8444 72.2739 60.6467C74.7766 56.1543 78.645 53.7752 83.791 53.5039C86.3442 53.3693 88.8849 53.5073 91.2827 54.4456C92.7366 55.0145 94.0933 55.834 95.6585 56.6243ZM98.1003 60.4253C98.0085 60.4959 97.9166 60.5667 97.8248 60.6373C96.3086 57.6916 93.8282 56.0248 90.6849 55.3433C87.5554 54.6647 84.3994 54.701 81.3011 55.5267C76.471 56.8145 73.4885 59.9562 72.3379 64.8119C71.9266 66.5501 71.9368 68.3116 72.1918 70.0866C72.9757 75.5396 76.9017 79.9381 82.2204 81.2438C84.534 81.8116 86.8678 81.8025 89.1976 81.3654C93.2313 80.6091 96.718 78.8927 99.2571 75.5442C99.3407 75.4342 99.4662 75.3557 99.5724 75.2627C99.6211 75.3126 99.6707 75.3633 99.7199 75.4138C99.2869 76.1176 98.8535 76.822 98.3761 77.5981C98.966 77.8601 99.4383 78.0823 99.9205 78.2819C102.736 79.4463 105.686 79.6924 108.661 79.3239C114.169 78.6424 118.242 75.9353 120.288 70.6079C121.181 68.2815 121.404 65.8488 120.973 63.4048C120.067 58.2738 117.358 54.4844 112.193 53.1184C107.38 51.8462 102.699 52.6561 98.3727 55.1806C97.4706 55.7067 96.668 56.3818 96.1081 57.2041C96.8135 58.3445 97.4571 59.3853 98.1003 60.4253Z" fill="black"/>
<path d="M99.2861 102.977C98.8234 103.305 98.2847 103.563 97.9116 103.973C96.2913 105.753 94.1055 106.24 91.8988 106.559C90.2499 106.797 89.4807 105.732 90.1041 104.146C90.8377 102.281 92.0328 100.772 93.995 100.03C94.1861 100.126 94.3774 100.221 94.5687 100.317C95.7629 100.969 96.9606 101.614 98.1478 102.278C98.533 102.494 98.8899 102.758 99.2604 103L99.2861 102.977Z" fill="#FFD425"/>
<path d="M130.289 133.042C134.394 136.584 138.715 136.375 143.395 134.483C142.448 136.052 141.186 136.854 139.731 137.296C136.956 138.137 134.343 137.72 132.012 135.946C131.139 135.283 130.478 134.448 130.289 133.042Z" fill="black"/>
<path d="M59.5098 8.88533C64.2561 8.96923 68.3475 7.80444 70.9861 3.32344C71.4582 4.41904 71.0751 5.30293 70.6046 6.09633C69.1078 8.62113 66.8364 9.96706 63.9255 10.1947C62.3241 10.32 60.8101 10.0106 59.5098 8.88533Z" fill="black"/>
<path d="M118.496 63.6785C117.209 65.5621 115.52 67.0304 113.772 68.4412C109.831 71.6231 103.422 71.334 100.184 66.7033C100.074 66.5465 99.9279 66.4147 99.7988 66.2716C100.521 69.1006 102.178 71.082 104.965 71.9103C111.085 73.7298 117.789 69.1272 118.496 63.6785Z" fill="white"/>
<path d="M97.2424 65.9514C95.737 67.9574 93.787 69.4196 91.7937 70.8224C87.2781 73.9998 80.0069 73.5621 76.5186 68.8634C76.409 68.7151 76.3553 68.5241 76.2754 68.3529C76.7199 71.1745 78.8823 73.318 81.7874 74.1812C86.6344 75.6218 92.7986 73.5494 95.782 69.4711C96.5477 68.4252 97.1248 67.293 97.2424 65.9514Z" fill="white"/>
<path d="M98.0996 60.425C97.4564 59.3853 96.813 58.3445 96.1077 57.2041C96.667 56.3818 97.4695 55.7067 98.3718 55.1809C102.699 52.6561 107.38 51.8462 112.192 53.1184C117.357 54.4844 120.066 58.2735 120.972 63.4048C121.403 65.8488 121.18 68.2815 120.287 70.6079C118.241 75.9356 114.168 78.6421 108.66 79.3236C105.685 79.6921 102.735 79.4463 99.9198 78.2819C99.4373 78.0826 98.9653 77.8603 98.3754 77.5981C98.8528 76.8217 99.2859 76.1176 99.7196 75.4138C99.6701 75.3633 99.6207 75.3126 99.5719 75.2627C99.4655 75.3557 99.3401 75.4342 99.2562 75.5442C96.7175 78.8927 93.2302 80.6091 89.1966 81.3654C86.867 81.8022 84.5333 81.8119 82.2194 81.2439C76.901 79.9382 72.975 75.5399 72.1913 70.0866C71.9361 68.3113 71.9259 66.5504 72.3375 64.8119C73.4878 59.9564 76.4702 56.8142 81.3004 55.5265C84.3985 54.701 87.5547 54.6651 90.6842 55.3432C93.8275 56.0252 96.3081 57.6913 97.8241 60.6373C97.9159 60.5665 98.0078 60.4962 98.0996 60.425Z" fill="white"/>
<path d="M70.9988 96.5794C69.6948 98.4149 69.6948 98.4149 69.5179 100.566C68.017 100.991 64.5825 100.356 63.4082 99.4371C62.6042 98.8072 62.42 98.0101 62.852 97.0256C63.5164 95.5111 65.0423 94.71 66.8462 94.9286C68.1097 95.0808 69.6387 95.6803 70.9988 96.5794Z" fill="#FFD425"/>
<path d="M69.5399 12.2687C75.9741 19.3584 76.6183 30.5213 67.3563 42.5801C59.3017 42.6283 49.5399 45.0046 42.2451 51.141C40.5895 56.7145 40.1883 61.4532 43.1011 63.9817C29.4478 69.3352 18.0272 92.6448 31.9725 95.0857C29.8452 100.618 29.808 125.27 43.9575 115.346C45.5018 129.25 59.0367 138.129 70.2103 127.046C75.3823 136.67 93.2422 142.397 95.3214 127.331C109.273 138.188 120.111 125.915 126.996 113.919C133.657 113.231 138.79 110.141 140.122 101.078C143.377 102.375 146.557 102.174 149.667 101.335C149.804 100.176 149.808 98.9998 149.691 97.8092C149.503 95.9134 149.297 94.0159 148.453 92.0963C148.063 92.5334 147.748 92.8778 147.441 93.2287C145.98 94.8989 144.348 96.3653 142.337 97.3463C140.376 98.3027 138.357 98.697 136.246 97.8016C136.096 97.7375 135.912 97.7537 135.729 97.7313C135.593 98.5006 135.527 99.1699 135.354 99.8108C133.555 106.491 130.235 111.75 122.765 113.174C122.698 113.455 122.601 113.774 122.548 114.1C121.991 117.532 120.23 120.234 117.524 122.352C115.34 124.062 112.854 125.16 110.16 125.753C106.595 126.538 103.039 126.592 99.5615 125.293C98.7188 124.978 97.925 124.532 97.0923 124.139C96.9209 124.259 96.7556 124.355 96.6129 124.476C92.5504 127.958 87.8018 129.402 82.5214 129.034C77.9029 128.711 74.1833 126.735 71.7532 122.65C71.6106 122.411 71.4405 122.187 71.2659 121.931C71.0369 122.023 70.8631 122.085 70.6958 122.161C63.9891 125.182 57.7159 124.145 51.8945 119.958C49.4302 118.185 47.9949 115.659 47.7205 112.559C47.6924 112.245 47.5622 111.939 47.4509 111.521C46.5876 111.521 45.7741 111.568 44.9675 111.513C39.3458 111.135 35.3729 107.556 34.6379 102.125C34.1915 98.8269 34.6595 95.6376 36.1545 92.6309C36.3384 92.2607 36.5086 91.8854 36.673 91.5376C36.5248 91.3964 36.4675 91.3094 36.3867 91.2697C33.5372 89.8708 32.2861 87.4412 32.2365 84.413C32.1291 77.9364 34.79 72.7504 39.8986 68.8221C41.1994 67.8218 42.7121 67.2092 44.3525 66.9459C44.7125 66.8884 45.0595 66.7472 45.2645 66.6877C45.4909 64.797 45.5267 63.0057 45.9446 61.3092C46.9452 57.2466 49.5395 54.2932 52.9739 52.0473C57.0361 49.3901 61.5207 48.0371 66.3716 47.941C67.0905 47.9268 67.6341 47.7913 68.1027 47.1839C70.5555 44.0023 73.1606 40.9301 75.4813 37.6561C77.1047 35.3668 78.4664 32.8701 79.7457 30.3645C80.718 28.4599 81.3531 26.434 81.7103 24.3349C81.8352 23.5999 81.9267 22.857 81.986 22.1063C82.4725 15.9588 80.6047 10.4021 77.7405 5.09421C77.6679 4.95901 77.4996 4.87617 77.3496 4.74637C75.5913 8.26137 72.7631 10.5075 69.5399 12.2687Z" fill="#C23B38"/>
<path d="M48.0999 108.542C47.9369 109.216 47.7739 109.89 47.6016 110.602C47.1962 110.602 46.8053 110.68 46.4595 110.588C45.2601 110.27 44.0376 109.99 42.8943 109.523C38.3467 107.667 35.9649 104.027 36.0468 99.1059C36.0935 96.2735 36.8543 93.6201 38.3578 91.2175C38.9094 90.3362 39.645 89.5699 40.3673 88.6625C39.1019 88.7895 38.3836 89.7739 37.4113 90.4744C34.7385 88.6183 33.4453 86.0886 33.6143 82.8988C33.684 81.5813 33.9561 80.2219 34.4207 78.9888C36.0462 74.675 38.9102 71.3553 42.8904 69.0204C44.6463 67.9905 46.5446 67.4239 48.6387 67.2368C47.9287 67.0622 47.2186 66.8876 46.345 66.6727C47.0528 61.0335 49.5172 56.4501 54.2119 53.2671C59.7355 49.5225 65.7547 48.1785 72.397 50.0285C72.4447 50.8297 72.4841 51.4847 72.5226 52.1395C72.5722 52.1522 72.6216 52.1644 72.6707 52.1766C72.8167 51.7027 72.9675 51.2299 73.1081 50.7548C74.5054 46.0252 76.9876 42.0133 81.0512 39.1307C85.237 36.1614 89.8468 34.9944 94.9135 36.3137C98.5342 37.2565 101.337 39.4088 103.537 42.3906C103.932 42.9258 104.302 43.4808 104.917 43.9241C104.637 43.3254 104.421 42.686 104.063 42.1384C103.612 41.4499 103.61 40.8043 103.994 40.1285C104.559 39.1344 105.004 38.0298 105.743 37.1836C110.291 31.9747 116.006 29.3059 122.977 29.7123C126.925 29.9431 129.97 32.456 131.06 36.1844C131.296 36.9945 131.309 37.871 131.465 39.0174C131.687 38.4725 131.845 38.1685 131.938 37.845C132.877 34.6036 134.216 31.5509 136.223 28.8191C139.019 25.0125 142.604 22.3737 147.331 21.5256C149.358 21.1619 151.409 21.0213 153.471 21.3433C155.966 21.7334 157.518 23.1453 158.082 25.6154C158.206 26.1585 158.303 26.7079 158.602 27.2357C158.624 27.024 158.687 26.8065 158.66 26.6002C158.406 24.5488 158.872 22.594 159.516 20.6848C161.092 16.0159 163.628 11.9567 167.386 8.7235C169.993 6.48019 173.022 5.34123 176.484 5.47704C178.788 5.56714 180.797 6.43963 182.365 8.10533C185.799 11.7534 186.869 16.1047 185.896 20.9758C185.66 22.1643 185.094 23.2116 184.102 24.1009C183.097 23.2777 182.125 22.482 181.154 21.6863C181.084 21.7504 181.016 21.815 180.947 21.8796C181.133 22.1121 181.309 22.3545 181.508 22.5761C184.373 25.764 185.18 29.4666 184 33.5258C182.513 38.6457 179.199 42.2505 174.375 44.4825C173.955 44.677 173.523 44.8465 172.783 45.1603C174.447 45.3196 175.607 44.6864 176.877 44.3989C176.965 44.5704 177.097 44.7263 177.125 44.8995C177.954 49.9004 177.514 54.7204 175.04 59.24C173.945 61.2393 172.582 63.0197 170.614 64.2298C169.818 64.7196 168.922 65.0502 168.039 65.4677C167.505 64.5589 167.067 63.8123 166.629 63.0659C167.475 66.9848 166.14 70.322 164.271 73.5212C162.832 75.9854 160.986 78.1098 158.61 79.7283C156.337 81.2769 153.898 82.0405 150.856 81.0316C151.556 81.755 151.587 82.3299 151.296 83.0071C150.614 84.5865 150.092 86.238 149.356 87.7903C147.754 91.1745 145.246 93.76 142.004 95.6145C140.533 96.4555 138.944 97.0559 137.22 96.8662C136.157 96.7492 135.121 96.381 133.948 96.0947C135.03 96.7929 134.705 97.6503 134.366 98.5676C133.301 101.455 132.001 104.215 130.132 106.678C129.026 108.135 127.757 109.428 126.212 110.429C124.441 111.577 122.516 112.207 120.39 112.168C119.986 112.16 119.582 112.167 119.134 112.405C119.987 112.631 120.84 112.858 121.873 113.132C121.718 113.586 121.592 114.068 121.394 114.518C119.129 119.66 115.139 122.737 109.772 124.105C107.148 124.775 104.48 124.899 101.801 124.406C99.1263 123.914 96.6951 122.922 94.8185 120.814C94.7494 120.878 94.6793 120.941 94.6102 121.005C95.0104 121.676 95.4113 122.347 95.8064 123.009C90.4023 128.366 77.9164 129.791 72.1201 121.403C72.4282 121.002 72.7528 120.579 73.0774 120.156C71.5115 120.94 69.9666 121.642 68.2597 121.935C63.3114 122.787 58.615 122.081 54.3032 119.477C50.4162 117.129 48.2717 113.701 48.3561 109.045C48.3587 108.904 48.332 108.762 48.3196 108.621C48.2462 108.594 48.173 108.568 48.0999 108.542ZM130.402 93.4088C130.416 93.3022 130.43 93.1951 130.442 93.0885C139.698 93.2172 146.361 89.8081 147.255 78.5347C157.769 79.2609 162.139 73.4331 161.238 61.9842C171.592 59.3151 176.761 54.7616 170.369 46.004C177.654 39.3556 183.201 32.4007 177.503 23.4608C182.754 -9.7675 162.641 23.3909 160.096 34.59C154.943 22.5003 143.942 26.7054 128.136 44.2921C124.792 32.9642 115.595 34.5996 101.598 46.8602C89.9345 39.9565 81.398 43.777 75.06 55.1354C63.5751 53.1333 56.108 56.7574 52.2317 65.4082C42.235 75.7039 39.3054 83.1732 44.5271 87.3807C39.1815 95.873 41.8798 101.147 47.9513 105.073C53.1373 117.188 60.2673 122.636 70.7799 116.487C79.1753 123.215 87.3098 127.204 94.179 117.914C105.536 122.346 112.785 120.616 115.01 111.351C122.546 109.914 129.614 107.593 130.402 93.4088Z" fill="#F0BA23"/>
<path d="M84.2041 44.8246C81.1072 44.6534 78.147 45.9301 75.4961 48.3529C76.5225 50.0094 76.9043 51.6382 76.891 53.1621C79.6999 51.4764 82.6943 50.2413 85.7744 50.173C85.6984 48.621 85.1333 46.6937 84.2041 44.8246Z" fill="black"/>
<path d="M109.491 43.0576C112.537 42.4728 115.642 43.341 118.593 45.3862C117.798 47.1655 117.638 48.8306 117.856 50.3389C114.847 49.0455 111.713 48.2228 108.652 48.5684C108.519 47.0198 108.821 45.0347 109.491 43.0576Z" fill="black"/>
<path fill-rule="evenodd" clip-rule="evenodd" d="M82.8491 71.3656C85.9859 71.3656 88.5286 73.7425 88.5286 76.6746C88.5286 79.6068 85.9859 81.9839 82.8491 81.9839C79.7122 81.9839 77.1699 79.6068 77.1699 76.6746C77.1699 73.7425 79.7122 71.3656 82.8491 71.3656Z" fill="black"/>
<path fill-rule="evenodd" clip-rule="evenodd" d="M81.3016 77.3271C82.2741 77.3271 83.0623 78.0638 83.0623 78.9728C83.0623 79.8816 82.2741 80.6187 81.3016 80.6187C80.3293 80.6187 79.541 79.8816 79.541 78.9728C79.541 78.0638 80.3293 77.3271 81.3016 77.3271Z" fill="white"/>
<path fill-rule="evenodd" clip-rule="evenodd" d="M107.201 69.4986C110.338 69.4986 112.88 71.8755 112.88 74.8077C112.88 77.7398 110.338 80.1167 107.201 80.1167C104.064 80.1167 101.521 77.7398 101.521 74.8077C101.521 71.8755 104.064 69.4986 107.201 69.4986Z" fill="black"/>
<path fill-rule="evenodd" clip-rule="evenodd" d="M105.651 75.4598C106.624 75.4598 107.412 76.1969 107.412 77.1057C107.412 78.0148 106.624 78.7515 105.651 78.7515C104.679 78.7515 103.891 78.0148 103.891 77.1057C103.891 76.1969 104.679 75.4598 105.651 75.4598Z" fill="white"/>
<path fill-rule="evenodd" clip-rule="evenodd" d="M62.8433 76.8977C58.875 89.8843 60.8425 107.025 78.7255 104.533C74.8953 106.574 69.9376 106.818 66.2446 104.373C56.4781 97.9083 57.0208 86.4634 62.8433 76.8977Z" fill="#373435"/>
<path fill-rule="evenodd" clip-rule="evenodd" d="M56.3005 226.763L56.1287 226.394C56.0257 226.255 55.9442 226.207 55.8807 225.861C50.712 214.74 37.1466 184.962 30.0404 167.192C28.6636 170.595 24.1673 173.295 16.4505 171.18C15.1386 170.821 14.0276 170.358 13.0898 169.817C12.1447 170.707 10.8363 171.266 9.57821 171.524C1.26451 173.227 -1.31621 164.357 1.83419 156.974C-5.37851 151.665 10.2722 138.564 21.177 144.905C12.2453 125.269 36.9865 91.8343 51.3567 88.5578C51.0027 90.1494 50.7707 92.0307 51.0335 93.6357C43.239 99.5247 38.3173 105.175 33.2928 113.905C28.4796 122.269 23.5016 133.574 25.7871 143.489C31.234 140.812 49.0046 142.249 45.1471 155.976C43.8667 160.532 39.482 164.141 35.9393 161.743C49.202 195.664 43.8364 179.987 58.896 224.588L58.9033 224.585C59.0893 225.173 59.1063 225.106 59.4182 225.637C58.6663 226.057 57.822 226.35 56.937 226.535L56.9531 226.574C56.8865 226.596 56.3646 226.735 56.3005 226.763ZM27.1706 159.664C25.8406 155.906 25.2366 153.539 25.7151 153.296L30.7646 151.426C29.8833 149.536 28.7398 147.713 27.7185 147.979L27.6723 147.976C23.1525 148.781 15.2897 160.17 21.0183 159.115C23.5891 158.642 25.6416 158.923 27.1706 159.664Z" fill="#373435"/>
<path fill-rule="evenodd" clip-rule="evenodd" d="M31.2102 152.437L26.9551 154.351C46.7733 202.563 37.9301 180.646 56.5247 225.541C57.1347 225.305 57.7827 225.053 58.3794 224.806C41.4912 179.725 47.281 197.841 33.7537 159.214C33.1683 158.171 32.649 156.854 32.2264 155.221C32.1584 154.959 31.7713 153.775 31.2102 152.437Z" fill="#999EB2"/>
<path fill-rule="evenodd" clip-rule="evenodd" d="M22.345 145.671C11.6412 140.994 -2.17668 151.865 1.99172 156.624C4.36772 151.397 9.65369 147.022 17.8555 147.873C11.2414 148.25 5.97377 152.751 3.55837 157.664C3.63487 157.666 3.71563 157.656 3.80923 157.636C3.71363 157.681 3.62035 157.71 3.52835 157.724C0.977045 162.967 1.67787 168.66 7.45877 170.301C9.09267 170.765 11.1932 170.545 12.6995 169.582C3.34379 163.649 13.1266 149.142 17.1311 150.492C11.5701 149.539 5.75163 167.687 16.9143 169.464C31.5716 171.797 32.3482 158.846 21.4325 160.845C12.6987 162.445 21.3361 148.182 27.6406 147.929C28.84 147.332 30.2669 149.038 31.4934 151.149L31.7689 151.02L31.7809 151.051L31.8263 151.034C31.8386 151.12 31.8546 151.207 31.8745 151.293L32.7685 153.599C33.6955 155.558 34.3228 157.262 34.3262 157.27C36.7441 162.564 41.0626 161.088 43.025 156.634C48.9265 143.241 25.551 141.176 24.2635 145.013C24.3655 144.512 24.7826 144.062 25.4304 143.681C22.1082 134.784 25.3906 125.912 29.5413 117.151C34.9703 105.692 40.6505 99.4867 51.2163 93.2332C51.1143 92.8417 51.0643 92.4219 51.0551 91.9893C51.0317 90.8512 51.2945 89.6211 51.6433 88.6069C38.656 92.3475 23.074 119.838 20.8727 132.426C19.9656 137.613 19.9344 141.301 21.5927 145.16C21.8461 145.321 22.0975 145.488 22.345 145.671Z" fill="#FFD425"/>
<path fill-rule="evenodd" clip-rule="evenodd" d="M156.484 68.419C172.988 67.2373 195.473 71.1105 202.454 88.2372C204.677 88.2618 207.267 89.1207 208.777 89.7812C225.619 97.1465 212.198 108.401 205.57 106.576C204.518 107.254 203.327 107.776 202.155 108.131C201.603 115.4 199.544 122.619 194.266 123.617C182.54 125.834 190.524 108.132 193.6 99.6055L193.512 99.6132C174.063 101.262 181.763 82.4471 195.322 87.3366C190.349 78.1011 165.768 73.5537 156.646 72.2161C156.636 71.0666 156.6 69.6048 156.484 68.419Z" fill="#373435"/>
<path d="M197.166 88.1319C186.089 85.2304 174.833 96.7597 193.525 99.1598L193.749 99.187C194.56 96.8961 194.958 95.355 194.406 95.1996C197.015 95.6299 182.736 126.231 194.641 121.669C200.962 119.247 202.011 98.6843 201.464 93.7358C202.031 96.2575 202.523 101.496 202.234 106.9C204.723 104.951 208.281 102.127 208.963 100.781C209.181 103.045 207.922 104.873 206.119 106.198C212.08 105.708 223.82 96.707 203.797 89.1413C202.466 88.6382 201.435 88.3287 200.065 88.6689C200.661 88.388 201.372 88.2595 202.137 88.2394C193.561 73.4003 171.698 69.3759 156.143 68.5873L156.489 72.0501C166.314 72.2307 194.102 75.954 196.28 87.7189C196.573 87.8468 196.868 87.9814 197.166 88.1319Z" fill="#FFD425"/>
<path d="M67.7061 187.456C69.1563 187.456 70.3318 188.631 70.3318 190.082C70.3318 191.532 69.1563 192.708 67.7061 192.708C66.2556 192.708 65.0801 191.532 65.0801 190.082C65.0801 188.631 66.2556 187.456 67.7061 187.456Z" fill="#C23B38"/>
<path d="M67.7061 237.478C69.1563 237.478 70.3318 238.653 70.3318 240.104C70.3318 241.554 69.1563 242.729 67.7061 242.729C66.2556 242.729 65.0801 241.554 65.0801 240.104C65.0801 238.653 66.2556 237.478 67.7061 237.478Z" fill="#C23B38"/>
<path d="M67.7061 212.467C69.1563 212.467 70.3318 213.642 70.3318 215.093C70.3318 216.543 69.1563 217.719 67.7061 217.719C66.2556 217.719 65.0801 216.543 65.0801 215.093C65.0801 213.642 66.2556 212.467 67.7061 212.467Z" fill="#C23B38"/>
</svg>