<svg width="582" height="370" viewBox="0 0 582 370" fill="none" xmlns="http://www.w3.org/2000/svg">
<path fill-rule="evenodd" clip-rule="evenodd" d="M302.928 70.789C406.466 70.789 490.4 137.621 490.4 220.063C490.4 302.505 406.466 369.338 302.928 369.338C199.389 369.338 115.455 302.505 115.455 220.063C115.455 137.621 199.389 70.789 302.928 70.789Z" fill="#4D2E60"/>
<path fill-rule="evenodd" clip-rule="evenodd" d="M328.681 329.831L473.732 295.883L581.75 297.426L489.935 358.379L294.733 352.206L328.681 329.831ZM206.776 331.374C249.813 331.374 284.702 337.765 284.702 345.648C284.702 353.531 249.813 359.922 206.776 359.922C174.169 359.922 146.245 356.253 134.622 351.047C120.352 353.212 101.747 354.521 81.3985 354.521C36.4433 354.521 0 348.13 0 340.247C0 332.364 36.4433 325.974 81.3985 325.974C115.223 325.974 144.226 329.591 156.516 334.741C170.084 332.641 187.621 331.374 206.776 331.374Z" fill="#22075D"/>
<path fill-rule="evenodd" clip-rule="evenodd" d="M546.303 305.109L546.327 305.238L487.671 342.097C486.675 342.722 318.01 341.837 317.743 341.727C316.539 341.231 315.543 293.606 314.907 251.206C303.319 253.523 290.033 251.542 286.281 239.651C280.184 238.427 273.464 236.882 266.423 235.029C265.05 237.101 263.602 239.122 262.075 241.09C241.782 267.234 215.074 277.036 190.097 280.525C202.273 290.405 212.121 302.642 215.018 317.313C216.449 301.7 222.584 287.385 235.768 277.643C262.418 257.95 282.487 297.095 262.292 323.018C255.981 331.118 217.512 373.641 210.353 344.277C201.939 309.76 192.315 294.823 172.638 282.081C170.215 282.189 167.831 282.254 165.494 282.29C151.854 282.5 138.257 280.95 125.487 277.366C121.268 284.628 103.992 301.36 88.886 301.976C88.8432 304.913 88.9187 309.83 88.8221 312.166C102.053 306.251 117.986 305.142 126.232 318.487C132.359 328.405 126.235 342.376 112.751 345.92C98.0702 349.778 49.5776 353.784 45.6185 331.363C42.2705 312.404 55.1193 272.526 79.1559 272.246C85.789 272.169 88.1609 279.13 88.6768 287.494C95.597 287.304 103.028 281.897 109.475 275.569C110.296 274.762 111.278 273.803 112.147 272.735C89.6456 263.282 70.9869 246.415 61.2433 220.317C40.8501 165.696 76.846 133.449 121.854 111.64C155.21 95.4762 155.291 87.9973 162.154 51.0039C166.775 26.0916 181.225 9.77322 205.826 2.87964C247.541 -8.80988 271.562 16.5261 284.94 53.069C297.359 86.9903 297.794 140.141 286.434 183.373C295.714 186.11 305.122 188.335 314.17 190.129C314.15 187.742 314.144 186.384 314.15 186.288C314.318 183.553 380.737 162.935 383.277 162.301C385.034 161.863 517.698 160.297 542.665 160.133L542.692 160.836L542.748 160.854L546.689 305.119C546.521 305.108 546.396 305.106 546.303 305.109ZM314.49 220.381L314.478 219.393C314.002 219.95 313.471 220.53 312.869 221.137C313.408 220.863 313.949 220.614 314.49 220.381ZM314.369 210.023C314.339 207.374 314.312 204.889 314.288 202.601C304.721 200.889 294.107 198.575 283.352 195.654C280.688 205.711 277.275 215.197 272.84 223.967C278.214 225.393 283.503 226.658 288.607 227.774C291.992 214.484 307.593 208.37 314.369 210.023Z" fill="#373435"/>
<path fill-rule="evenodd" clip-rule="evenodd" d="M267.516 297.404C257.514 299.862 229.268 329.12 229.088 349.188C241.631 342.749 257.114 324.913 260.003 321.21C265.708 313.897 267.932 305.245 267.516 297.404Z" fill="#FFAB00"/>
<path fill-rule="evenodd" clip-rule="evenodd" d="M115.881 341.721C112.704 324.275 94.1314 337.091 83.1855 345.913C95.0484 346.072 106.665 344.498 112.046 343.09C113.403 342.736 114.686 342.276 115.881 341.721Z" fill="#FFAB00"/>
<path fill-rule="evenodd" clip-rule="evenodd" d="M72.2329 292.501C87.0527 309.151 111.015 290.646 122.835 279.256C123.019 279.079 123.968 278.184 124.844 277.185C120.947 276.068 117.128 274.76 113.41 273.253C111.867 276.419 109.261 279.457 107.689 281.002C87.1802 301.158 75.9247 285.185 74.9754 278.001C78.6111 284.518 82.9743 287.239 87.6053 287.483C86.845 279.883 84.5866 273.766 79.1498 274.054C57.4282 275.201 45.4679 313.687 48.4927 330.874C50.4288 341.874 65.9227 345.444 81.4852 345.877C89.0242 337.272 100.366 326.751 111.851 331.095C115.764 332.575 117.467 336.5 117.782 340.711C123.916 337.008 127.048 330.388 124.698 322.133C118.536 300.488 81.9245 312.012 70.6007 325.375C74.0516 321.082 79.8559 316.585 86.5584 313.235C86.6877 311.688 87.3478 305.475 87.655 301.987C81.8228 301.877 76.3817 299.222 72.2329 292.501Z" fill="#FF8300"/>
<path fill-rule="evenodd" clip-rule="evenodd" d="M314.271 201.098C314.236 197.696 314.208 194.777 314.188 192.451C304.584 190.865 295.037 188.836 285.666 186.201C285.578 186.521 285.491 186.842 285.401 187.16C284.969 189.129 284.513 191.078 284.031 193.008C294.656 196.184 305.051 198.907 314.271 201.098Z" fill="#FF8300"/>
<path fill-rule="evenodd" clip-rule="evenodd" d="M314.431 215.502L314.408 213.539C312.471 208.698 293.389 218.571 288.569 229.586L288.565 229.665L288.538 229.661C288.356 230.083 288.192 230.507 288.054 230.932C288.098 230.484 288.159 230.043 288.229 229.609C285.344 229.127 282.588 228.612 280.103 228.095C247.304 221.271 201.886 206.347 186.451 174.114C200.631 198.486 236.228 213.862 269.458 223.05C293.494 176.577 299.485 98.7758 282.356 54.0352C268.996 19.139 247.103 -5.65787 206.611 5.68832C183.21 12.2457 169.443 27.6661 165.045 51.3771C157.997 89.3767 157.52 97.5946 123.065 114.293C79.5203 135.396 44.1691 166.253 63.9745 219.297C80.327 263.094 121.866 280.751 164.447 280.987C166.581 280.999 168.699 280.976 170.802 280.916C163.316 276.262 154.429 271.834 143.693 266.761C143.722 266.67 143.747 266.578 143.767 266.485C186.277 284.62 201.165 294.229 213.212 343.703C215.237 352.019 220.675 352.856 227.174 350.088C225.816 335.358 241.798 313.173 250.934 305.534C251.373 305.167 261.772 297.775 267.477 296.715C266.276 280.352 253.512 267.859 236.883 279.202C223.469 288.353 217.022 302.453 215.129 317.874L215.135 317.907L215.116 317.975C214.951 319.336 214.821 320.707 214.724 322.086C214.758 321.035 214.811 319.988 214.885 318.947C207.666 292.597 177.341 272.666 155.223 259.643C166.04 264.554 178.176 271.136 188.734 279.439C216.502 275.499 240.827 263.62 259.501 239.047C260.699 237.471 261.865 235.823 263 234.111C228.862 224.776 188.505 208.454 175.087 186.592C191.495 208.873 251.28 229.186 286.012 238.604C286.019 238.318 286.047 237.65 286.049 237.617L286.121 238.633L286.273 238.674C286.279 238.8 286.289 238.922 286.303 239.039C293.924 253.785 314.251 250.971 326 244.093C352.353 228.664 329.673 214.37 310.887 223.015L310.88 223.021L310.871 223.021C309.241 223.773 307.639 224.696 306.102 225.808C307.49 224.557 308.921 223.478 310.372 222.557L311.149 221.595C313.055 218.968 314.083 216.966 314.431 215.502Z" fill="#FF8300"/>
<path fill-rule="evenodd" clip-rule="evenodd" d="M532.179 163.058C443.18 165.145 487.061 163.076 383.983 165.139L321.664 185.791C361.518 184.498 454.903 183.607 482.006 183.406C498.525 176.642 516.387 169.414 532.179 163.058Z" fill="#F3D45C"/>
<path fill-rule="evenodd" clip-rule="evenodd" d="M318.185 250.425L319.73 338.925C430.093 339.281 375.145 339.078 486.557 339.541L487.423 339.009C487.066 338.685 486.108 338.541 485.62 338.587C484.222 305.818 483.155 212.79 482.935 186.493L482.839 186.378L317.109 188.794L317.641 219.238C336.583 213.672 353.791 231.182 327.458 246.616C324.862 248.138 321.658 249.464 318.185 250.425Z" fill="#F3D45C"/>
<path fill-rule="evenodd" clip-rule="evenodd" d="M539.836 163.579L485.939 185.505L488.438 338.387C497.119 333.055 525.635 315.624 544.51 304.203C543.041 271.826 540.496 188.739 539.836 163.579Z" fill="#D8B64B"/>
<path fill-rule="evenodd" clip-rule="evenodd" d="M225.089 84.0125C219.273 77.4415 215.464 68.0914 214.715 61.2755C210.391 21.8986 268.182 14.4052 271.753 61.7946C273.077 79.3566 264.892 87.9014 251.91 91.439C253.98 93.1418 259.226 98.0913 257.381 100.803C257.902 99.4165 256.911 98.2617 255.946 97.3064C246.515 87.9668 228.128 85.2059 215.324 86.2445C218.625 85.156 221.88 84.3963 225.089 84.0125Z" fill="#373435"/>
<path fill-rule="evenodd" clip-rule="evenodd" d="M251.258 90.9316C263.437 87.022 270.339 78.9512 268.849 62.0397C264.753 15.5615 210.179 27.4227 217.856 65.3911C219.395 73.0019 222.116 79.0598 226.517 83.8671C235.115 83.1366 243.372 85.1821 251.258 90.9316Z" fill="white"/>
<path fill-rule="evenodd" clip-rule="evenodd" d="M223.403 17.3921C228.958 13.9431 234.507 12.5669 240.054 13.264C242.163 13.5287 244.223 14.0214 244.734 16.085C245.246 18.1478 244.038 20.8251 241.913 20.7653C236.207 20.606 230.61 21.5159 225.264 24.8934C223.466 26.0284 221.094 24.1357 220.582 22.0726C220.071 20.0093 221.598 18.5132 223.403 17.3921Z" fill="#373435"/>
<path fill-rule="evenodd" clip-rule="evenodd" d="M251.618 70.8816C256.896 70.8816 261.176 75.2988 261.176 80.7473C261.176 86.196 256.896 90.6133 251.618 90.6133C246.34 90.6133 242.061 86.196 242.061 80.7473C242.061 75.2988 246.34 70.8816 251.618 70.8816Z" fill="black"/>
<path fill-rule="evenodd" clip-rule="evenodd" d="M252.97 81.9925C254.764 81.9925 256.218 83.4935 256.218 85.3448C256.218 87.1964 254.764 88.6973 252.97 88.6973C251.176 88.6973 249.723 87.1964 249.723 85.3448C249.723 83.4935 251.176 81.9925 252.97 81.9925Z" fill="white"/>
<path fill-rule="evenodd" clip-rule="evenodd" d="M222.063 3.00784C217.236 3.28314 212.096 4.15161 206.611 5.68832C183.21 12.2457 169.443 27.6661 165.045 51.3771C157.997 89.3767 157.52 97.5946 123.065 114.293C79.5203 135.396 44.1691 166.253 63.9745 219.297C80.327 263.094 121.866 280.751 164.447 280.987C166.581 280.999 168.699 280.976 170.802 280.916C163.316 276.262 154.429 271.834 143.693 266.761C143.722 266.67 143.747 266.578 143.767 266.485C186.277 284.62 201.165 294.229 213.212 343.703C215.237 352.019 220.675 352.856 227.174 350.088C225.816 335.358 241.798 313.173 250.934 305.534C251.373 305.167 261.772 297.775 267.477 296.715C266.276 280.352 253.512 267.859 236.883 279.202C223.469 288.353 217.022 302.453 215.129 317.874L215.135 317.907L215.116 317.975C214.951 319.336 214.821 320.707 214.724 322.086C214.758 321.035 214.811 319.988 214.885 318.947C207.666 292.597 177.341 272.666 155.223 259.643C166.04 264.554 178.176 271.136 188.734 279.439C212.074 276.127 232.98 267.206 250.143 249.854C221.314 263.425 170.253 260.776 151.357 257.813C98.9427 249.594 80.1768 208.95 105.769 166.131C135.096 117.064 195.753 138.344 196.68 46.8706C196.903 24.9205 208.357 10.924 222.063 3.00784Z" fill="#E27400"/>
<path fill-rule="evenodd" clip-rule="evenodd" d="M186.527 115.737C192.889 113.17 202.545 110.876 202.222 118.813C202.088 122.099 199.703 125.366 196.753 128.327C199.012 130.608 201.349 132.695 203.706 134.544L205.417 134.973L204.526 134.878C188.61 133.195 160.288 90.2956 180.952 64.8115C178.178 69.4195 176.615 74.2916 176.029 79.2622C184.891 79.7055 197.264 81.7769 186.974 90.6638C184.394 92.8913 180.831 94.6129 177.444 96.0935C179.279 102.949 182.501 109.64 186.527 115.737Z" fill="#373435"/>
<path fill-rule="evenodd" clip-rule="evenodd" d="M177.202 95.1543C191.623 83.4838 191.16 84.4799 175.879 80.8056C175.512 85.5627 176.018 90.3929 177.202 95.1543Z" fill="white"/>
<path fill-rule="evenodd" clip-rule="evenodd" d="M194.873 126.365C200.322 119.083 203.024 113.372 187.127 116.633C189.489 120.109 192.107 123.38 194.873 126.365Z" fill="white"/>
<path fill-rule="evenodd" clip-rule="evenodd" d="M318.729 281.568L319.73 338.925C430.093 339.281 375.145 339.078 486.557 339.541L487.423 339.009C487.065 338.685 486.108 338.541 485.619 338.587C484.222 305.818 483.155 212.79 482.934 186.493L482.839 186.378L436.168 187.058C499.038 289.231 365.281 344.288 318.729 281.568Z" fill="#E5C453"/>
</svg>